<?xml version="1.0" encoding="UTF-8" standalone="no"?>
<!-- Created with Inkscape (http://www.inkscape.org/) -->

<svg
   xmlns:dc="http://purl.org/dc/elements/1.1/"
   xmlns:cc="http://creativecommons.org/ns#"
   xmlns:rdf="http://www.w3.org/1999/02/22-rdf-syntax-ns#"
   xmlns:svg="http://www.w3.org/2000/svg"
   xmlns="http://www.w3.org/2000/svg"
   xmlns:xlink="http://www.w3.org/1999/xlink"
   xmlns:sodipodi="http://sodipodi.sourceforge.net/DTD/sodipodi-0.dtd"
   xmlns:inkscape="http://www.inkscape.org/namespaces/inkscape"
   version="1.1"
   width="48"
   height="48"
   id="svg3901"
   inkscape:version="0.91 r13725"
   sodipodi:docname="application-illustrator.svg">
  <sodipodi:namedview
     pagecolor="#ffffff"
     bordercolor="#666666"
     borderopacity="1"
     objecttolerance="10"
     gridtolerance="10"
     guidetolerance="10"
     inkscape:pageopacity="0"
     inkscape:pageshadow="2"
     inkscape:window-width="1863"
     inkscape:window-height="1056"
     id="namedview37"
     showgrid="false"
     inkscape:zoom="7.2407734"
     inkscape:cx="40.572115"
     inkscape:cy="34.76001"
     inkscape:window-x="57"
     inkscape:window-y="24"
     inkscape:window-maximized="1"
     inkscape:current-layer="svg3901"
     showguides="true"
     inkscape:guide-bbox="true" />
  <defs
     id="defs3903">
    <linearGradient
       id="linearGradient3860">
      <stop
         style="stop-color:#ffffff;stop-opacity:1;"
         offset="0"
         id="stop3862" />
      <stop
         style="stop-color:#ffffff;stop-opacity:0;"
         offset="1"
         id="stop3864" />
    </linearGradient>
    <linearGradient
       x1="23.99999"
       y1="5.5641499"
       x2="23.99999"
       y2="42.110645"
       id="linearGradient3013"
       xlink:href="#linearGradient3029"
       gradientUnits="userSpaceOnUse"
       gradientTransform="matrix(0.89189189,0,0,1.1351351,2.5945999,-4.7432314)" />
    <linearGradient
       id="linearGradient3029">
      <stop
         id="stop3031"
         style="stop-color:#000000;stop-opacity:1;"
         offset="0" />
      <stop
         id="stop3033"
         style="stop-color:#000000;stop-opacity:0.23529412;"
         offset="0.01487851" />
      <stop
         id="stop3035"
         style="stop-color:#c5c5c5;stop-opacity:0.15686275;"
         offset="0.98463625" />
      <stop
         id="stop3037"
         style="stop-color:#452626;stop-opacity:0.546875;"
         offset="1" />
    </linearGradient>
    <linearGradient
       x1="25.132275"
       y1="0.98520643"
       x2="25.132275"
       y2="47.013336"
       id="linearGradient3016"
       xlink:href="#linearGradient3600"
       gradientUnits="userSpaceOnUse"
       gradientTransform="matrix(1,0,0,0.9561695,-9.9999999e-8,-1.9149218)" />
    <linearGradient
       id="linearGradient3600">
      <stop
         id="stop3602"
         style="stop-color:#f1d956;stop-opacity:1;"
         offset="0" />
      <stop
         id="stop3604"
         style="stop-color:#b9760e;stop-opacity:1;"
         offset="1" />
    </linearGradient>
    <radialGradient
       cx="605.71429"
       cy="486.64789"
       r="117.14286"
       fx="605.71429"
       fy="486.64789"
       id="radialGradient3021"
       xlink:href="#linearGradient5060"
       gradientUnits="userSpaceOnUse"
       gradientTransform="matrix(0.02303995,0,0,0.01470022,26.360882,37.040176)" />
    <linearGradient
       id="linearGradient5060">
      <stop
         id="stop5062"
         style="stop-color:#000000;stop-opacity:1"
         offset="0" />
      <stop
         id="stop5064"
         style="stop-color:#000000;stop-opacity:0"
         offset="1" />
    </linearGradient>
    <radialGradient
       cx="605.71429"
       cy="486.64789"
       r="117.14286"
       fx="605.71429"
       fy="486.64789"
       id="radialGradient3024"
       xlink:href="#linearGradient5060"
       gradientUnits="userSpaceOnUse"
       gradientTransform="matrix(-0.02303994,0,0,0.01470022,21.62311,37.040176)" />
    <linearGradient
       id="linearGradient5048">
      <stop
         id="stop5050"
         style="stop-color:#000000;stop-opacity:0"
         offset="0" />
      <stop
         id="stop5056"
         style="stop-color:#000000;stop-opacity:1"
         offset="0.5" />
      <stop
         id="stop5052"
         style="stop-color:#000000;stop-opacity:0"
         offset="1" />
    </linearGradient>
    <linearGradient
       x1="302.85715"
       y1="366.64789"
       x2="302.85715"
       y2="609.50507"
       id="linearGradient3899"
       xlink:href="#linearGradient5048"
       gradientUnits="userSpaceOnUse"
       gradientTransform="matrix(0.06732488,0,0,0.01470022,-0.3411391,37.040146)" />
    <linearGradient
       id="linearGradient3104-5">
      <stop
         id="stop3106-2"
         style="stop-color:#aaaaaa;stop-opacity:1"
         offset="0" />
      <stop
         id="stop3108-5"
         style="stop-color:#c8c8c8;stop-opacity:1"
         offset="1" />
    </linearGradient>
    <linearGradient
       x1="22.004084"
       y1="47.813133"
       x2="22.004084"
       y2="3.3638515"
       id="linearGradient3052"
       xlink:href="#linearGradient3104-5"
       gradientUnits="userSpaceOnUse"
       gradientTransform="translate(-1.982096,-3.047074)" />
    <linearGradient
       inkscape:collect="always"
       xlink:href="#linearGradient3104-5"
       id="linearGradient3015"
       gradientUnits="userSpaceOnUse"
       gradientTransform="translate(-1.982096,-3.047074)"
       x1="22.004084"
       y1="47.813133"
       x2="22.004084"
       y2="3.3638515" />
    <linearGradient
       inkscape:collect="always"
       xlink:href="#linearGradient3029"
       id="linearGradient3019"
       gradientUnits="userSpaceOnUse"
       gradientTransform="matrix(0.89189189,0,0,1.1351351,2.5945999,-4.7432314)"
       x1="23.99999"
       y1="5.5641499"
       x2="23.99999"
       y2="42.110645" />
    <linearGradient
       inkscape:collect="always"
       xlink:href="#linearGradient3600"
       id="linearGradient3022"
       gradientUnits="userSpaceOnUse"
       gradientTransform="matrix(1,0,0,0.9561695,-1.6e-6,-0.5399218)"
       x1="25.132275"
       y1="0.98520643"
       x2="25.132275"
       y2="47.013336" />
    <radialGradient
       inkscape:collect="always"
       xlink:href="#linearGradient5060"
       id="radialGradient3025"
       gradientUnits="userSpaceOnUse"
       gradientTransform="matrix(0.02303995,0,0,0.01470022,26.360882,38.415176)"
       cx="605.71429"
       cy="486.64789"
       fx="605.71429"
       fy="486.64789"
       r="117.14286" />
    <radialGradient
       inkscape:collect="always"
       xlink:href="#linearGradient5060"
       id="radialGradient3028"
       gradientUnits="userSpaceOnUse"
       gradientTransform="matrix(-0.02303994,0,0,0.01470022,21.62311,38.415176)"
       cx="605.71429"
       cy="486.64789"
       fx="605.71429"
       fy="486.64789"
       r="117.14286" />
    <linearGradient
       inkscape:collect="always"
       xlink:href="#linearGradient5048"
       id="linearGradient3031"
       gradientUnits="userSpaceOnUse"
       gradientTransform="matrix(0.06732488,0,0,0.01470022,-0.3411391,38.415146)"
       x1="302.85715"
       y1="366.64789"
       x2="302.85715"
       y2="609.50507" />
    <linearGradient
       inkscape:collect="always"
       xlink:href="#linearGradient3897-7"
       id="linearGradient3289"
       gradientUnits="userSpaceOnUse"
       gradientTransform="matrix(0.39056994,0,0,-0.39056994,-0.8729074,48.438192)"
       x1="91.308151"
       y1="98.191689"
       x2="95.18235"
       y2="102.06589" />
    <linearGradient
       id="linearGradient3897-7">
      <stop
         id="stop3899-4"
         style="stop-color:#ffe92b;stop-opacity:1;"
         offset="0" />
      <stop
         id="stop3907-4"
         style="stop-color:#ffaa05;stop-opacity:1;"
         offset="1" />
    </linearGradient>
    <filter
       inkscape:collect="always"
       id="filter4740"
       x="-1.2070313"
       width="3.4140625"
       y="-1.1930502"
       height="3.3861003">
      <feGaussianBlur
         inkscape:collect="always"
         stdDeviation="7.6800744"
         id="feGaussianBlur4742" />
    </filter>
    <linearGradient
       inkscape:collect="always"
       xlink:href="#linearGradient3897-7"
       id="linearGradient3807"
       gradientUnits="userSpaceOnUse"
       gradientTransform="matrix(0.56520801,0,0,-0.60266309,-19.240562,70.736731)"
       x1="91.308151"
       y1="98.191689"
       x2="95.18235"
       y2="102.06589" />
    <clipPath
       clipPathUnits="userSpaceOnUse"
       id="clipPath3823">
      <path
         sodipodi:nodetypes="cccccc"
         d="m 10.7586,0.49719902 c 5.083838,0 18.361576,0.001998 18.361576,0.001998 l 12.308735,12.55734904 3.2e-5,26.002479 c 0,0 -20.446895,0 -30.670343,0 0,-12.853941 0,-25.707883 0,-38.56182598 z"
         inkscape:connector-curvature="0"
         id="path3825"
         style="fill:#ffffff;fill-opacity:1;stroke:none;display:inline" />
    </clipPath>
    <filter
       inkscape:collect="always"
       id="filter4109"
       x="-0.7276034"
       width="2.4552068"
       y="-0.71255386"
       height="2.4251077">
      <feGaussianBlur
         inkscape:collect="always"
         stdDeviation="4.1392406"
         id="feGaussianBlur4111" />
    </filter>
    <clipPath
       clipPathUnits="userSpaceOnUse"
       id="clipPath4113">
      <path
         sodipodi:nodetypes="cccccc"
         d="m 6.4999609,1.872199 c 5.8015241,0 20.9536831,0.00228 20.9536831,0.00228 l 14.046362,14.330072 3.6e-5,29.673255 c 0,0 -23.333387,0 -35.0000811,0 0,-14.668535 0,-29.33707 0,-44.005607 z"
         inkscape:connector-curvature="0"
         id="path4115"
         style="fill:#ffffff;fill-opacity:1;stroke:none;display:inline" />
    </clipPath>
    <clipPath
       clipPathUnits="userSpaceOnUse"
       id="clipPath4160">
      <path
         sodipodi:nodetypes="cccccc"
         d="m 6.4999609,1.872199 c 5.8015241,0 20.9536831,0.00228 20.9536831,0.00228 l 14.046362,14.330072 3.6e-5,29.673255 c 0,0 -23.333387,0 -35.0000811,0 0,-14.668535 0,-29.33707 0,-44.005607 z"
         inkscape:connector-curvature="0"
         id="path4162"
         style="fill:#ffffff;fill-opacity:1;stroke:none;display:inline" />
    </clipPath>
    <linearGradient
       y2="20.895"
       x2="84.63858"
       y1="105.105"
       x1="86.132919"
       gradientTransform="matrix(0.3244803,0,0,0.3244803,3.2332655,2.5577454)"
       gradientUnits="userSpaceOnUse"
       id="linearGradient3789"
       xlink:href="#linearGradient5128"
       inkscape:collect="always" />
    <linearGradient
       y2="45"
       x2="37.201294"
       y1="1"
       x1="37.201294"
       gradientUnits="userSpaceOnUse"
       id="linearGradient3787"
       xlink:href="#linearGradient3397"
       inkscape:collect="always" />
    <linearGradient
       y2="45.017357"
       x2="20.758585"
       y1="1"
       x1="20.758585"
       gradientUnits="userSpaceOnUse"
       id="linearGradient3785"
       xlink:href="#linearGradient3309"
       inkscape:collect="always" />
    <radialGradient
       r="10.625"
       fy="4.625"
       fx="62.625"
       cy="4.625"
       cx="62.625"
       gradientTransform="matrix(2.1647059,0,0,0.7529402,-111.56471,36.517647)"
       gradientUnits="userSpaceOnUse"
       id="radialGradient3783"
       xlink:href="#linearGradient8838"
       inkscape:collect="always" />
    <linearGradient
       gradientTransform="matrix(0.3244803,0,0,0.3244803,3.2332655,2.5577454)"
       gradientUnits="userSpaceOnUse"
       xlink:href="#linearGradient5128"
       id="linearGradient2512"
       y2="20.895"
       x2="84.63858"
       y1="105.105"
       x1="86.132919" />
    <linearGradient
       id="linearGradient5128">
      <stop
         offset="0"
         style="stop-color:#acbacc;stop-opacity:1;"
         id="stop5130" />
      <stop
         offset="1"
         style="stop-color:#97a3c0;stop-opacity:1;"
         id="stop5132" />
    </linearGradient>
    <linearGradient
       gradientUnits="userSpaceOnUse"
       xlink:href="#linearGradient3309"
       id="linearGradient2515"
       y2="45.017357"
       x2="20.758585"
       y1="1"
       x1="20.758585" />
    <linearGradient
       gradientUnits="userSpaceOnUse"
       id="linearGradient3309"
       y2="122.8994"
       x2="63.9995"
       y1="3.1001"
       x1="63.9995">
      <stop
         offset="0"
         style="stop-color:#cad8ea;stop-opacity:1;"
         id="stop3311" />
      <stop
         offset="1"
         style="stop-color:#687088;stop-opacity:1;"
         id="stop3313" />
    </linearGradient>
    <linearGradient
       gradientUnits="userSpaceOnUse"
       xlink:href="#linearGradient3397"
       id="linearGradient2517"
       y2="45"
       x2="37.201294"
       y1="1"
       x1="37.201294" />
    <linearGradient
       id="linearGradient3397">
      <stop
         offset="0"
         style="stop-color:#4a5877;stop-opacity:1;"
         id="stop3399" />
      <stop
         offset="1"
         style="stop-color:#2b3249;stop-opacity:1;"
         id="stop3401" />
    </linearGradient>
    <radialGradient
       gradientTransform="matrix(2.1647059,0,0,0.7529402,-111.56471,36.517647)"
       gradientUnits="userSpaceOnUse"
       xlink:href="#linearGradient8838"
       id="radialGradient2436"
       fy="4.625"
       fx="62.625"
       r="10.625"
       cy="4.625"
       cx="62.625" />
    <linearGradient
       id="linearGradient8838">
      <stop
         offset="0"
         style="stop-color:#000000;stop-opacity:1"
         id="stop8840" />
      <stop
         offset="1"
         style="stop-color:#000000;stop-opacity:0"
         id="stop8842" />
    </linearGradient>
    <linearGradient
       inkscape:collect="always"
       xlink:href="#linearGradient3803"
       id="linearGradient3809"
       x1="24.064634"
       y1="8.4172258"
       x2="24.064634"
       y2="26.33223"
       gradientUnits="userSpaceOnUse" />
    <linearGradient
       id="linearGradient3803">
      <stop
         style="stop-color:#46cbf8;stop-opacity:1;"
         offset="0"
         id="stop3805" />
      <stop
         style="stop-color:#2eb1e7;stop-opacity:1;"
         offset="1"
         id="stop3807" />
    </linearGradient>
    <linearGradient
       inkscape:collect="always"
       xlink:href="#linearGradient3803"
       id="linearGradient3850"
       gradientUnits="userSpaceOnUse"
       gradientTransform="translate(-0.0646358,12.625273)"
       x1="24.064634"
       y1="8.4172258"
       x2="24.064634"
       y2="26.33223" />
    <linearGradient
       inkscape:collect="always"
       xlink:href="#linearGradient3600"
       id="linearGradient3950"
       x1="12"
       y1="6.4516926"
       x2="12"
       y2="14.853"
       gradientUnits="userSpaceOnUse" />
    <linearGradient
       inkscape:collect="always"
       xlink:href="#linearGradient3600"
       id="linearGradient4192"
       x1="11.999999"
       y1="6.1236691"
       x2="12"
       y2="15.181021"
       gradientUnits="userSpaceOnUse" />
    <linearGradient
       inkscape:collect="always"
       xlink:href="#linearGradient3812"
       id="linearGradient3818"
       x1="23.61133"
       y1="26.087385"
       x2="23.61133"
       y2="7.8049259"
       gradientUnits="userSpaceOnUse" />
    <linearGradient
       id="linearGradient3812">
      <stop
         style="stop-color:#ffaa05;stop-opacity:1;"
         offset="0"
         id="stop3814" />
      <stop
         style="stop-color:#ffe92b;stop-opacity:1;"
         offset="1"
         id="stop3816" />
    </linearGradient>
    <linearGradient
       gradientTransform="matrix(1.0482005,0,0,1.0482005,-0.7494056,12.237028)"
       y2="7.8049259"
       x2="23.61133"
       y1="26.087385"
       x1="23.61133"
       gradientUnits="userSpaceOnUse"
       id="linearGradient3061"
       xlink:href="#linearGradient5060"
       inkscape:collect="always" />
  </defs>
  <metadata
     id="metadata3906">
    <rdf:RDF>
      <cc:Work
         rdf:about="">
        <dc:format>image/svg+xml</dc:format>
        <dc:type
           rdf:resource="http://purl.org/dc/dcmitype/StillImage" />
        <dc:title />
      </cc:Work>
    </rdf:RDF>
  </metadata>
  <path
     sodipodi:nodetypes="cccccc"
     d="m 6.4999595,1.872199 c 5.8015245,0 21.0210845,0.00228 21.0210845,0.00228 l 13.978961,14.352169 3.5e-5,29.651158 c 0,0 -23.333386,0 -35.0000805,0 0,-14.668535 0,-29.33707 0,-44.005607 z"
     inkscape:connector-curvature="0"
     id="path4372"
     style="fill:none;stroke:#000000;stroke-opacity:0.54901961;display:inline" />
  <path
     style="fill:url(#linearGradient3022);fill-opacity:1.0;stroke:none;display:inline"
     id="path4160"
     inkscape:connector-curvature="0"
     d="m 6.4999595,1.872199 c 5.8015245,0 20.9536835,0.00228 20.9536835,0.00228 l 14.046362,14.330072 3.6e-5,29.673255 c 0,0 -23.333387,0 -35.0000815,0 0,-14.668535 0,-29.33707 0,-44.005607 z"
     sodipodi:nodetypes="cccccc" />
  <g
     id="g4216"
     transform="translate(-4.6905355,-2.2097087)">
    <text
       xml:space="preserve"
       style="font-size:10px;font-style:normal;font-variant:normal;font-weight:normal;font-stretch:normal;line-height:125%;letter-spacing:0px;word-spacing:0px;opacity:0.51000001;fill:#ffffff;fill-opacity:1;stroke:none;font-family:Lucida Grande;-inkscape-font-specification:Lucida Grande"
       x="12.583496"
       y="15.065625"
       id="text4204"
       sodipodi:linespacing="125%"><tspan
         sodipodi:role="line"
         id="tspan4206"
         x="12.583496"
         y="15.065625">AI</tspan></text>
    <text
       sodipodi:linespacing="125%"
       id="text3801"
       y="14.265625"
       x="12.583496"
       style="font-size:10px;font-style:normal;font-variant:normal;font-weight:normal;font-stretch:normal;line-height:125%;letter-spacing:0px;word-spacing:0px;opacity:0.6;fill:#000000;fill-opacity:1;stroke:none;font-family:Lucida Grande;-inkscape-font-specification:Lucida Grande"
       xml:space="preserve"><tspan
         y="14.265625"
         x="12.583496"
         id="tspan3803"
         sodipodi:role="line">AI</tspan></text>
  </g>
  <path
     sodipodi:nodetypes="cccc"
     d="m 33.033607,8.8038818 c -0.04937,-3.7222332 0.10108,-9.9827279 -2.010715,-13.2718925 0,0 13.793921,13.740947 15.270672,15.4496257 0,0 -2.562442,-2.0299713 -13.259957,-2.1777332 z"
     id="path3805"
     style="opacity:0.9;fill:#000000;fill-opacity:1;stroke:none;filter:url(#filter4740)"
     inkscape:connector-curvature="0"
     clip-path="url(#clipPath3823)"
     transform="matrix(1.1411702,0,0,1.1411702,-5.7774346,1.3048103)" />
  <path
     sodipodi:nodetypes="cccc"
     d="m 31.363604,14.097603 c -0.04413,-3.358921 0.09038,-9.0083545 -1.797752,-11.9764771 0,0 12.332945,12.3997501 13.653286,13.9416511 0,0 -2.291044,-1.831833 -11.855534,-1.965174 z"
     id="path3827"
     style="opacity:0.9;fill:#000000;fill-opacity:1;stroke:none;filter:url(#filter4109)"
     inkscape:connector-curvature="0"
     clip-path="url(#clipPath4113)"
     transform="translate(-1.5e-6,0)" />
  <path
     inkscape:connector-curvature="0"
     style="fill:url(#linearGradient3807);fill-opacity:1;stroke:none"
     id="path6011"
     d="m 29.291793,14.167696 c -0.04524,-3.442826 0.09264,-9.2333791 -1.842657,-12.2756438 0,0 12.641014,12.7094898 13.994336,14.2899058 0,0 -2.348271,-1.877591 -12.151679,-2.014262 z"
     sodipodi:nodetypes="cccc" />
  <path
     d="m 31.044644,21.273613 c -2e-6,-0.352112 0.05323,-0.642823 0.159687,-0.872134 0.106455,-0.237466 0.249765,-0.425814 0.429926,-0.565047 0.188346,-0.147384 0.405356,-0.249747 0.651031,-0.30709 0.253857,-0.0573 0.520002,-0.08596 0.798434,-0.08598 0.278424,1.9e-5 0.540473,0.02868 0.786151,0.08598 0.245667,0.05734 0.458583,0.159706 0.638747,0.30709 0.188343,0.139233 0.335746,0.327581 0.44221,0.565047 0.11464,0.229311 0.171965,0.520022 0.17197,0.872134 -5e-6,0.343958 -0.05732,0.634669 -0.17197,0.872135 -0.106464,0.2375 -0.253867,0.429943 -0.44221,0.57733 -0.180164,0.13923 -0.39308,0.241593 -0.638747,0.30709 -0.245678,0.05733 -0.507727,0.086 -0.786151,0.08598 -0.278432,1.6e-5 -0.544577,-0.02865 -0.798434,-0.08598 -0.245675,-0.06549 -0.462685,-0.16786 -0.651031,-0.30709 -0.180161,-0.147387 -0.323471,-0.33983 -0.429926,-0.57733 -0.106459,-0.237466 -0.159689,-0.528177 -0.159687,-0.872135 m 3.906186,17.283025 -3.746499,0 0,-13.733063 3.746499,0 0,13.733063 m -9.568925,0 -1.22836,-4.274693 -6.190935,0 -1.240642,4.274693 -3.844768,0 5.83471,-18.032325 4.655484,0 5.859277,18.032325 -3.844766,0 m -2.112779,-7.468429 -1.154658,-3.930752 c -0.04914,-0.147392 -0.122845,-0.388968 -0.221106,-0.724732 -0.09828,-0.335739 -0.204736,-0.704246 -0.319372,-1.105524 -0.106467,-0.40944 -0.20883,-0.818892 -0.307091,-1.22836 -0.09828,-0.409439 -0.167884,-0.757473 -0.208821,-1.044105 -0.03277,0.180174 -0.0778,0.39309 -0.13512,0.638747 -0.04914,0.245686 -0.11056,0.507735 -0.184254,0.78615 -0.06552,0.270253 -0.135127,0.544586 -0.208821,0.823001 -0.07371,0.278441 -0.143316,0.540491 -0.208821,0.786151 -0.06552,0.245683 -0.126938,0.462695 -0.184254,0.651031 -0.04914,0.188359 -0.08599,0.327574 -0.110553,0.417641 l -1.142374,3.930752 4.385245,0"
     inkscape:connector-curvature="0"
     id="path3853"
     style="opacity:0.5;color:#000000;fill:#000000;fill-opacity:1;fill-rule:nonzero;stroke:none;stroke-width:1;marker:none;visibility:visible;display:inline;overflow:visible;enable-background:accumulate" />
  <path
     style="color:#000000;fill:url(#linearGradient3061);fill-opacity:1.0;fill-rule:nonzero;stroke:none;stroke-width:1;marker:none;visibility:visible;display:inline;overflow:visible;enable-background:accumulate"
     id="rect3029"
     inkscape:connector-curvature="0"
     d="m 31.044644,22.273613 c -2e-6,-0.352112 0.05323,-0.642823 0.159687,-0.872134 0.106455,-0.237466 0.249765,-0.425814 0.429926,-0.565047 0.188346,-0.147384 0.405356,-0.249747 0.651031,-0.30709 0.253857,-0.0573 0.520002,-0.08596 0.798434,-0.08598 0.278424,1.9e-5 0.540473,0.02868 0.786151,0.08598 0.245667,0.05734 0.458583,0.159706 0.638747,0.30709 0.188343,0.139233 0.335746,0.327581 0.44221,0.565047 0.11464,0.229311 0.171965,0.520022 0.17197,0.872134 -5e-6,0.343958 -0.05732,0.634669 -0.17197,0.872135 -0.106464,0.2375 -0.253867,0.429943 -0.44221,0.57733 -0.180164,0.13923 -0.39308,0.241593 -0.638747,0.30709 -0.245678,0.05733 -0.507727,0.086 -0.786151,0.08598 -0.278432,1.6e-5 -0.544577,-0.02865 -0.798434,-0.08598 -0.245675,-0.06549 -0.462685,-0.16786 -0.651031,-0.30709 -0.180161,-0.147387 -0.323471,-0.33983 -0.429926,-0.57733 -0.106459,-0.237466 -0.159689,-0.528177 -0.159687,-0.872135 m 3.906186,17.283025 -3.746499,0 0,-13.733063 3.746499,0 0,13.733063 m -9.568925,0 -1.22836,-4.274693 -6.190935,0 -1.240642,4.274693 -3.844768,0 5.83471,-18.032325 4.655484,0 5.859277,18.032325 -3.844766,0 m -2.112779,-7.468429 -1.154658,-3.930752 c -0.04914,-0.147392 -0.122845,-0.388968 -0.221106,-0.724732 -0.09828,-0.335739 -0.204736,-0.704246 -0.319372,-1.105524 -0.106467,-0.40944 -0.20883,-0.818892 -0.307091,-1.22836 -0.09828,-0.409439 -0.167884,-0.757473 -0.208821,-1.044105 -0.03277,0.180174 -0.0778,0.39309 -0.13512,0.638747 -0.04914,0.245686 -0.11056,0.507735 -0.184254,0.78615 -0.06552,0.270253 -0.135127,0.544586 -0.208821,0.823001 -0.07371,0.278441 -0.143316,0.540491 -0.208821,0.786151 -0.06552,0.245683 -0.126938,0.462695 -0.184254,0.651031 -0.04914,0.188359 -0.08599,0.327574 -0.110553,0.417641 l -1.142374,3.930752 4.385245,0" />
</svg>
