<?xml version="1.0" encoding="UTF-8" standalone="no"?>
<!-- Created with Inkscape (http://www.inkscape.org/) -->

<svg
   xmlns:dc="http://purl.org/dc/elements/1.1/"
   xmlns:cc="http://creativecommons.org/ns#"
   xmlns:rdf="http://www.w3.org/1999/02/22-rdf-syntax-ns#"
   xmlns:svg="http://www.w3.org/2000/svg"
   xmlns="http://www.w3.org/2000/svg"
   xmlns:xlink="http://www.w3.org/1999/xlink"
   xmlns:sodipodi="http://sodipodi.sourceforge.net/DTD/sodipodi-0.dtd"
   xmlns:inkscape="http://www.inkscape.org/namespaces/inkscape"
   version="1.1"
   width="48"
   height="48"
   id="svg3901"
   inkscape:version="0.48.4 r9939"
   sodipodi:docname="image-x-xcf.svg">
  <sodipodi:namedview
     pagecolor="#ffffff"
     bordercolor="#666666"
     borderopacity="1"
     objecttolerance="10"
     gridtolerance="10"
     guidetolerance="10"
     inkscape:pageopacity="0"
     inkscape:pageshadow="2"
     inkscape:window-width="1280"
     inkscape:window-height="1000"
     id="namedview37"
     showgrid="false"
     inkscape:zoom="14.481547"
     inkscape:cx="20.891237"
     inkscape:cy="13.467022"
     inkscape:window-x="0"
     inkscape:window-y="24"
     inkscape:window-maximized="1"
     inkscape:current-layer="svg3901"
     showguides="true"
     inkscape:guide-bbox="true" />
  <defs
     id="defs3903">
    <linearGradient
       id="linearGradient4318"
       gradientUnits="userSpaceOnUse"
       x1="179.0625"
       y1="82.3591"
       x2="179.0625"
       y2="258.07501"
       gradientTransform="matrix(0.37605038,0,0,0.37605038,-0.3145805,3.4510017)"
       spreadMethod="pad">
      <stop
         offset="0"
         style="stop-color:#fcfcfc;stop-opacity:1"
         id="stop4320" />
      <stop
         offset="1"
         style="stop-color:#c1c1c1;stop-opacity:1"
         id="stop4322" />
    </linearGradient>
    <linearGradient
       id="linearGradient4219">
      <stop
         offset="0"
         style="stop-color:#44d1ff;stop-opacity:1"
         id="stop4221" />
      <stop
         offset="1"
         style="stop-color:#0b65ac;stop-opacity:1"
         id="stop4223" />
    </linearGradient>
    <linearGradient
       id="linearGradient3860">
      <stop
         style="stop-color:#ffffff;stop-opacity:1;"
         offset="0"
         id="stop3862" />
      <stop
         style="stop-color:#ffffff;stop-opacity:0;"
         offset="1"
         id="stop3864" />
    </linearGradient>
    <linearGradient
       x1="23.99999"
       y1="5.5641499"
       x2="23.99999"
       y2="42.110645"
       id="linearGradient3013"
       xlink:href="#linearGradient3029"
       gradientUnits="userSpaceOnUse"
       gradientTransform="matrix(0.89189189,0,0,1.1351351,2.5945999,-4.7432314)" />
    <linearGradient
       id="linearGradient3029">
      <stop
         id="stop3031"
         style="stop-color:#ffffff;stop-opacity:1"
         offset="0" />
      <stop
         id="stop3033"
         style="stop-color:#ffffff;stop-opacity:0.23529412"
         offset="0.01487851" />
      <stop
         id="stop3035"
         style="stop-color:#ffffff;stop-opacity:0.15686275"
         offset="0.98463625" />
      <stop
         id="stop3037"
         style="stop-color:#ffffff;stop-opacity:0.39215687"
         offset="1" />
    </linearGradient>
    <linearGradient
       x1="25.132275"
       y1="0.98520643"
       x2="25.132275"
       y2="47.013336"
       id="linearGradient3016"
       xlink:href="#linearGradient3600"
       gradientUnits="userSpaceOnUse"
       gradientTransform="matrix(1,0,0,0.9561695,-9.9999999e-8,-1.9149218)" />
    <linearGradient
       id="linearGradient3600">
      <stop
         id="stop3602"
         style="stop-color:#0868cc;stop-opacity:1;"
         offset="0" />
      <stop
         id="stop3604"
         style="stop-color:#05366e;stop-opacity:1;"
         offset="1" />
    </linearGradient>
    <radialGradient
       cx="605.71429"
       cy="486.64789"
       r="117.14286"
       fx="605.71429"
       fy="486.64789"
       id="radialGradient3021"
       xlink:href="#linearGradient5060"
       gradientUnits="userSpaceOnUse"
       gradientTransform="matrix(0.02303995,0,0,0.01470022,26.360882,37.040176)" />
    <linearGradient
       id="linearGradient5060">
      <stop
         id="stop5062"
         style="stop-color:#000000;stop-opacity:1"
         offset="0" />
      <stop
         id="stop5064"
         style="stop-color:#000000;stop-opacity:0"
         offset="1" />
    </linearGradient>
    <radialGradient
       cx="605.71429"
       cy="486.64789"
       r="117.14286"
       fx="605.71429"
       fy="486.64789"
       id="radialGradient3024"
       xlink:href="#linearGradient5060"
       gradientUnits="userSpaceOnUse"
       gradientTransform="matrix(-0.02303994,0,0,0.01470022,21.62311,37.040176)" />
    <linearGradient
       id="linearGradient5048">
      <stop
         id="stop5050"
         style="stop-color:#000000;stop-opacity:0"
         offset="0" />
      <stop
         id="stop5056"
         style="stop-color:#000000;stop-opacity:1"
         offset="0.5" />
      <stop
         id="stop5052"
         style="stop-color:#000000;stop-opacity:0"
         offset="1" />
    </linearGradient>
    <linearGradient
       x1="302.85715"
       y1="366.64789"
       x2="302.85715"
       y2="609.50507"
       id="linearGradient3899"
       xlink:href="#linearGradient5048"
       gradientUnits="userSpaceOnUse"
       gradientTransform="matrix(0.06732488,0,0,0.01470022,-0.3411391,37.040146)" />
    <linearGradient
       id="linearGradient3104-5">
      <stop
         id="stop3106-2"
         style="stop-color:#aaaaaa;stop-opacity:1"
         offset="0" />
      <stop
         id="stop3108-5"
         style="stop-color:#c8c8c8;stop-opacity:1"
         offset="1" />
    </linearGradient>
    <linearGradient
       x1="22.004084"
       y1="47.813133"
       x2="22.004084"
       y2="3.3638515"
       id="linearGradient3052"
       xlink:href="#linearGradient3104-5"
       gradientUnits="userSpaceOnUse"
       gradientTransform="translate(-1.982096,-3.047074)" />
    <linearGradient
       inkscape:collect="always"
       xlink:href="#linearGradient3104-5"
       id="linearGradient3015"
       gradientUnits="userSpaceOnUse"
       gradientTransform="translate(-1.982096,-3.047074)"
       x1="22.004084"
       y1="47.813133"
       x2="22.004084"
       y2="3.3638515" />
    <linearGradient
       inkscape:collect="always"
       xlink:href="#linearGradient3029"
       id="linearGradient3019"
       gradientUnits="userSpaceOnUse"
       gradientTransform="matrix(0.89189189,0,0,1.1351351,2.5945999,-4.7432314)"
       x1="23.99999"
       y1="5.5641499"
       x2="23.99999"
       y2="42.110645" />
    <linearGradient
       inkscape:collect="always"
       xlink:href="#linearGradient4219"
       id="linearGradient3022"
       gradientUnits="userSpaceOnUse"
       gradientTransform="matrix(1,0,0,0.9561695,-1.6e-6,-0.5399218)"
       x1="25.132275"
       y1="2.6193309"
       x2="25.132275"
       y2="62.333252" />
    <radialGradient
       inkscape:collect="always"
       xlink:href="#linearGradient5060"
       id="radialGradient3025"
       gradientUnits="userSpaceOnUse"
       gradientTransform="matrix(0.02303995,0,0,0.01470022,26.360882,38.415176)"
       cx="605.71429"
       cy="486.64789"
       fx="605.71429"
       fy="486.64789"
       r="117.14286" />
    <radialGradient
       inkscape:collect="always"
       xlink:href="#linearGradient5060"
       id="radialGradient3028"
       gradientUnits="userSpaceOnUse"
       gradientTransform="matrix(-0.02303994,0,0,0.01470022,21.62311,38.415176)"
       cx="605.71429"
       cy="486.64789"
       fx="605.71429"
       fy="486.64789"
       r="117.14286" />
    <linearGradient
       inkscape:collect="always"
       xlink:href="#linearGradient5048"
       id="linearGradient3031"
       gradientUnits="userSpaceOnUse"
       gradientTransform="matrix(0.06732488,0,0,0.01470022,-0.3411391,38.415146)"
       x1="302.85715"
       y1="366.64789"
       x2="302.85715"
       y2="609.50507" />
    <linearGradient
       inkscape:collect="always"
       xlink:href="#linearGradient3897-7"
       id="linearGradient3289"
       gradientUnits="userSpaceOnUse"
       gradientTransform="matrix(0.39056994,0,0,-0.39056994,-0.8729074,48.438192)"
       x1="91.308151"
       y1="98.191689"
       x2="95.18235"
       y2="102.06589" />
    <linearGradient
       id="linearGradient3897-7">
      <stop
         id="stop3899-4"
         style="stop-color:#46cbf8;stop-opacity:1;"
         offset="0" />
      <stop
         id="stop3907-4"
         style="stop-color:#2eb1e7;stop-opacity:1;"
         offset="1" />
    </linearGradient>
    <filter
       inkscape:collect="always"
       id="filter4740"
       x="-1.2070313"
       width="3.4140625"
       y="-1.1930502"
       height="3.3861003">
      <feGaussianBlur
         inkscape:collect="always"
         stdDeviation="7.6800744"
         id="feGaussianBlur4742" />
    </filter>
    <linearGradient
       inkscape:collect="always"
       xlink:href="#linearGradient4318"
       id="linearGradient3807"
       gradientUnits="userSpaceOnUse"
       gradientTransform="matrix(0.56520801,0,0,-0.60266309,-19.240562,70.736731)"
       x1="91.308151"
       y1="98.191689"
       x2="95.18235"
       y2="102.06589" />
    <clipPath
       clipPathUnits="userSpaceOnUse"
       id="clipPath3823">
      <path
         sodipodi:nodetypes="cccccc"
         d="m 10.7586,0.49719902 c 5.083838,0 18.361576,0.001998 18.361576,0.001998 l 12.308735,12.55734904 3.2e-5,26.002479 c 0,0 -20.446895,0 -30.670343,0 0,-12.853941 0,-25.707883 0,-38.56182598 z"
         inkscape:connector-curvature="0"
         id="path3825"
         style="fill:#ffffff;fill-opacity:1;stroke:none;display:inline" />
    </clipPath>
    <filter
       inkscape:collect="always"
       id="filter4109"
       x="-0.7276034"
       width="2.4552068"
       y="-0.71255386"
       height="2.4251077">
      <feGaussianBlur
         inkscape:collect="always"
         stdDeviation="4.1392406"
         id="feGaussianBlur4111" />
    </filter>
    <clipPath
       clipPathUnits="userSpaceOnUse"
       id="clipPath4113">
      <path
         sodipodi:nodetypes="cccccc"
         d="m 6.4999609,1.872199 c 5.8015241,0 20.9536831,0.00228 20.9536831,0.00228 l 14.046362,14.330072 3.6e-5,29.673255 c 0,0 -23.333387,0 -35.0000811,0 0,-14.668535 0,-29.33707 0,-44.005607 z"
         inkscape:connector-curvature="0"
         id="path4115"
         style="fill:#ffffff;fill-opacity:1;stroke:none;display:inline" />
    </clipPath>
    <clipPath
       clipPathUnits="userSpaceOnUse"
       id="clipPath4160">
      <path
         sodipodi:nodetypes="cccccc"
         d="m 6.4999609,1.872199 c 5.8015241,0 20.9536831,0.00228 20.9536831,0.00228 l 14.046362,14.330072 3.6e-5,29.673255 c 0,0 -23.333387,0 -35.0000811,0 0,-14.668535 0,-29.33707 0,-44.005607 z"
         inkscape:connector-curvature="0"
         id="path4162"
         style="fill:#ffffff;fill-opacity:1;stroke:none;display:inline" />
    </clipPath>
    <linearGradient
       y2="20.895"
       x2="84.63858"
       y1="105.105"
       x1="86.132919"
       gradientTransform="matrix(0.3244803,0,0,0.3244803,3.2332655,2.5577454)"
       gradientUnits="userSpaceOnUse"
       id="linearGradient3789"
       xlink:href="#linearGradient5128"
       inkscape:collect="always" />
    <linearGradient
       y2="45"
       x2="37.201294"
       y1="1"
       x1="37.201294"
       gradientUnits="userSpaceOnUse"
       id="linearGradient3787"
       xlink:href="#linearGradient3397"
       inkscape:collect="always" />
    <linearGradient
       y2="45.017357"
       x2="20.758585"
       y1="1"
       x1="20.758585"
       gradientUnits="userSpaceOnUse"
       id="linearGradient3785"
       xlink:href="#linearGradient3309"
       inkscape:collect="always" />
    <radialGradient
       r="10.625"
       fy="4.625"
       fx="62.625"
       cy="4.625"
       cx="62.625"
       gradientTransform="matrix(2.1647059,0,0,0.7529402,-111.56471,36.517647)"
       gradientUnits="userSpaceOnUse"
       id="radialGradient3783"
       xlink:href="#linearGradient8838"
       inkscape:collect="always" />
    <linearGradient
       gradientTransform="matrix(0.3244803,0,0,0.3244803,3.2332655,2.5577454)"
       gradientUnits="userSpaceOnUse"
       xlink:href="#linearGradient5128"
       id="linearGradient2512"
       y2="20.895"
       x2="84.63858"
       y1="105.105"
       x1="86.132919" />
    <linearGradient
       id="linearGradient5128">
      <stop
         offset="0"
         style="stop-color:#acbacc;stop-opacity:1;"
         id="stop5130" />
      <stop
         offset="1"
         style="stop-color:#97a3c0;stop-opacity:1;"
         id="stop5132" />
    </linearGradient>
    <linearGradient
       gradientUnits="userSpaceOnUse"
       xlink:href="#linearGradient3309"
       id="linearGradient2515"
       y2="45.017357"
       x2="20.758585"
       y1="1"
       x1="20.758585" />
    <linearGradient
       gradientUnits="userSpaceOnUse"
       id="linearGradient3309"
       y2="122.8994"
       x2="63.9995"
       y1="3.1001"
       x1="63.9995">
      <stop
         offset="0"
         style="stop-color:#cad8ea;stop-opacity:1;"
         id="stop3311" />
      <stop
         offset="1"
         style="stop-color:#687088;stop-opacity:1;"
         id="stop3313" />
    </linearGradient>
    <linearGradient
       gradientUnits="userSpaceOnUse"
       xlink:href="#linearGradient3397"
       id="linearGradient2517"
       y2="45"
       x2="37.201294"
       y1="1"
       x1="37.201294" />
    <linearGradient
       id="linearGradient3397">
      <stop
         offset="0"
         style="stop-color:#4a5877;stop-opacity:1;"
         id="stop3399" />
      <stop
         offset="1"
         style="stop-color:#2b3249;stop-opacity:1;"
         id="stop3401" />
    </linearGradient>
    <radialGradient
       gradientTransform="matrix(2.1647059,0,0,0.7529402,-111.56471,36.517647)"
       gradientUnits="userSpaceOnUse"
       xlink:href="#linearGradient8838"
       id="radialGradient2436"
       fy="4.625"
       fx="62.625"
       r="10.625"
       cy="4.625"
       cx="62.625" />
    <linearGradient
       id="linearGradient8838">
      <stop
         offset="0"
         style="stop-color:#000000;stop-opacity:1"
         id="stop8840" />
      <stop
         offset="1"
         style="stop-color:#000000;stop-opacity:0"
         id="stop8842" />
    </linearGradient>
    <linearGradient
       inkscape:collect="always"
       xlink:href="#linearGradient3803"
       id="linearGradient3809"
       x1="24.064634"
       y1="8.4172258"
       x2="24.064634"
       y2="26.33223"
       gradientUnits="userSpaceOnUse" />
    <linearGradient
       id="linearGradient3803">
      <stop
         style="stop-color:#46cbf8;stop-opacity:1;"
         offset="0"
         id="stop3805" />
      <stop
         style="stop-color:#2eb1e7;stop-opacity:1;"
         offset="1"
         id="stop3807" />
    </linearGradient>
    <linearGradient
       inkscape:collect="always"
       xlink:href="#linearGradient3600"
       id="linearGradient3950"
       x1="12"
       y1="6.4516926"
       x2="12"
       y2="14.853"
       gradientUnits="userSpaceOnUse" />
    <linearGradient
       inkscape:collect="always"
       xlink:href="#linearGradient3600"
       id="linearGradient4192"
       x1="11.999999"
       y1="6.1236691"
       x2="12"
       y2="15.181021"
       gradientUnits="userSpaceOnUse" />
    <linearGradient
       inkscape:collect="always"
       xlink:href="#linearGradient4216"
       id="linearGradient4175"
       x1="67.022125"
       y1="33.955349"
       x2="67.022125"
       y2="99.86158"
       gradientUnits="userSpaceOnUse" />
    <linearGradient
       spreadMethod="pad"
       gradientTransform="matrix(0.37605038,0,0,0.37605038,-0.3145805,3.4510017)"
       y2="258.07501"
       x2="179.0625"
       y1="82.3591"
       x1="179.0625"
       gradientUnits="userSpaceOnUse"
       id="linearGradient4216">
      <stop
         id="stop4218"
         style="stop-color:#0868c9;stop-opacity:1"
         offset="0" />
      <stop
         id="stop4220"
         style="stop-color:#053870;stop-opacity:1"
         offset="1" />
    </linearGradient>
    <linearGradient
       id="linearGradient3812">
      <stop
         style="stop-color:#ff6123;stop-opacity:1;"
         offset="0"
         id="stop3814" />
      <stop
         style="stop-color:#fea342;stop-opacity:1;"
         offset="1"
         id="stop3816" />
    </linearGradient>
    <linearGradient
       inkscape:collect="always"
       xlink:href="#linearGradient3812"
       id="linearGradient3440"
       x1="24"
       y1="40.156956"
       x2="24"
       y2="20.053177"
       gradientUnits="userSpaceOnUse" />
    <linearGradient
       inkscape:collect="always"
       xlink:href="#linearGradient4216"
       id="linearGradient4385"
       gradientUnits="userSpaceOnUse"
       x1="67.022125"
       y1="33.955349"
       x2="67.022125"
       y2="99.86158" />
    <linearGradient
       inkscape:collect="always"
       xlink:href="#linearGradient4216"
       id="linearGradient4186"
       x1="68.5"
       y1="29.500002"
       x2="68.5"
       y2="97.5"
       gradientUnits="userSpaceOnUse" />
    <linearGradient
       inkscape:collect="always"
       xlink:href="#linearGradient4216"
       id="linearGradient4225"
       x1="68.5"
       y1="29.500002"
       x2="68.5"
       y2="97.5"
       gradientUnits="userSpaceOnUse" />
    <linearGradient
       inkscape:collect="always"
       xlink:href="#linearGradient4216"
       id="linearGradient4233"
       x1="68.5"
       y1="29.500002"
       x2="68.5"
       y2="97.5"
       gradientUnits="userSpaceOnUse" />
    <linearGradient
       y2="97.5"
       x2="68.5"
       y1="29.500002"
       x1="68.5"
       gradientUnits="userSpaceOnUse"
       id="linearGradient4244"
       xlink:href="#linearGradient4216"
       inkscape:collect="always" />
    <linearGradient
       y2="97.5"
       x2="68.5"
       y1="29.500002"
       x1="68.5"
       gradientUnits="userSpaceOnUse"
       id="linearGradient4246"
       xlink:href="#linearGradient4216"
       inkscape:collect="always" />
  </defs>
  <metadata
     id="metadata3906">
    <rdf:RDF>
      <cc:Work
         rdf:about="">
        <dc:format>image/svg+xml</dc:format>
        <dc:type
           rdf:resource="http://purl.org/dc/dcmitype/StillImage" />
        <dc:title />
      </cc:Work>
    </rdf:RDF>
  </metadata>
  <path
     sodipodi:nodetypes="cccccc"
     d="m 6.4999595,1.872199 c 5.8015245,0 21.0210845,0.00228 21.0210845,0.00228 l 13.978961,14.352169 3.5e-5,29.651158 c 0,0 -23.333386,0 -35.0000805,0 0,-14.668535 0,-29.33707 0,-44.005607 z"
     inkscape:connector-curvature="0"
     id="path4372"
     style="fill:none;stroke:#000000;stroke-opacity:0.54901961;display:inline" />
  <path
     style="fill:url(#linearGradient3022);fill-opacity:1;stroke:none;display:inline"
     id="path4160"
     inkscape:connector-curvature="0"
     d="m 6.4999595,1.872199 c 5.8015245,0 20.9536835,0.00228 20.9536835,0.00228 l 14.046362,14.330072 3.6e-5,29.673255 c 0,0 -23.333387,0 -35.0000815,0 0,-14.668535 0,-29.33707 0,-44.005607 z"
     sodipodi:nodetypes="cccccc" />
  <g
     id="g4216"
     transform="translate(-4.6905355,-2.2097087)">
    <text
       xml:space="preserve"
       style="font-style:normal;font-variant:normal;font-weight:normal;font-stretch:normal;font-size:10px;line-height:125%;font-family:'Lucida Grande';-inkscape-font-specification:'Lucida Grande';letter-spacing:0px;word-spacing:0px;opacity:0.51000001;fill:#ffffff;fill-opacity:1;stroke:none"
       x="12.583496"
       y="15.065625"
       id="text4204"
       sodipodi:linespacing="125%"><tspan
         sodipodi:role="line"
         id="tspan4206"
         x="12.583496"
         y="15.065625">XCF</tspan></text>
    <text
       sodipodi:linespacing="125%"
       id="text3801"
       y="14.265625"
       x="12.583496"
       style="font-style:normal;font-variant:normal;font-weight:normal;font-stretch:normal;font-size:10px;line-height:125%;font-family:'Lucida Grande';-inkscape-font-specification:'Lucida Grande';letter-spacing:0px;word-spacing:0px;opacity:0.6;fill:#000000;fill-opacity:1;stroke:none"
       xml:space="preserve"><tspan
         y="14.265625"
         x="12.583496"
         id="tspan3803"
         sodipodi:role="line">XCF</tspan></text>
  </g>
  <path
     sodipodi:nodetypes="cccc"
     d="m 33.033607,8.8038818 c -0.04937,-3.7222332 0.10108,-9.9827279 -2.010715,-13.2718925 0,0 13.793921,13.740947 15.270672,15.4496257 0,0 -2.562442,-2.0299713 -13.259957,-2.1777332 z"
     id="path3805"
     style="opacity:0.9;fill:#000000;fill-opacity:1;stroke:none;filter:url(#filter4740)"
     inkscape:connector-curvature="0"
     clip-path="url(#clipPath3823)"
     transform="matrix(1.1411702,0,0,1.1411702,-5.7774346,1.3048103)" />
  <path
     sodipodi:nodetypes="cccc"
     d="m 31.363604,14.097603 c -0.04413,-3.358921 0.09038,-9.0083545 -1.797752,-11.9764771 0,0 12.332945,12.3997501 13.653286,13.9416511 0,0 -2.291044,-1.831833 -11.855534,-1.965174 z"
     id="path3827"
     style="opacity:0.9;fill:#000000;fill-opacity:1;stroke:none;filter:url(#filter4109)"
     inkscape:connector-curvature="0"
     clip-path="url(#clipPath4113)"
     transform="translate(-1.5e-6,0)" />
  <path
     inkscape:connector-curvature="0"
     style="fill:url(#linearGradient3807);fill-opacity:1;stroke:none;opacity:1"
     id="path6011"
     d="m 29.291793,14.167696 c -0.04524,-3.442826 0.09264,-9.2333791 -1.842657,-12.2756438 0,0 12.641014,12.7094898 13.994336,14.2899058 0,0 -2.348271,-1.877591 -12.151679,-2.014262 z"
     sodipodi:nodetypes="cccc" />
  <g
     transform="matrix(0.25706607,0,0,0.2587816,6.7710472,12.66376)"
     id="g4299"
     style="font-style:normal;font-variant:normal;font-weight:bold;font-stretch:normal;font-size:74.81702423px;line-height:125%;font-family:'Adobe Clean';-inkscape-font-specification:'Adobe Clean Bold';letter-spacing:0px;word-spacing:0px;opacity:0.85;fill:url(#linearGradient4175);fill-opacity:1;stroke:none;stroke-width:1px;stroke-linecap:butt;stroke-linejoin:miter;stroke-opacity:1" />
  <g
     transform="matrix(0.33874544,0,0,0.34100605,1.2967735,9.8720478)"
     id="g4397"
     style="font-style:normal;font-variant:normal;font-weight:bold;font-stretch:normal;font-size:74.81702423px;line-height:125%;font-family:'Adobe Clean';-inkscape-font-specification:'Adobe Clean Bold';letter-spacing:0px;word-spacing:0px;opacity:0.85;fill:url(#linearGradient4385);fill-opacity:1;stroke:none;stroke-width:1px;stroke-linecap:butt;stroke-linejoin:miter;stroke-opacity:1" />
  <g
     id="g4301"
     style="font-style:normal;font-variant:normal;font-weight:bold;font-stretch:normal;font-size:76.99313354px;line-height:125%;font-family:'Adobe Clean';-inkscape-font-specification:'Adobe Clean Bold';letter-spacing:0px;word-spacing:0px;opacity:0.85;fill:url(#linearGradient4186);fill-opacity:1;stroke:none;stroke-width:1px;stroke-linecap:butt;stroke-linejoin:miter;stroke-opacity:1"
     transform="matrix(0.33136384,0,0,0.33136384,1.3015771,11.674743)" />
  <g
     transform="matrix(0.33136384,0,0,0.33136384,1.3015771,11.674743)"
     style="font-style:normal;font-variant:normal;font-weight:bold;font-stretch:normal;font-size:76.99313354000000231px;line-height:125%;font-family:Adobe Clean;-inkscape-font-specification:Adobe Clean Bold;letter-spacing:0px;word-spacing:0px;opacity:0.8;fill:url(#linearGradient4186);fill-opacity:1;stroke:none;stroke-width:1px;stroke-linecap:butt;stroke-linejoin:miter;stroke-opacity:1"
     id="text3376">
    <path
       inkscape:connector-curvature="0"
       d="m 60.726464,61.144247 0,11.164004 c -1.385877,0.615945 -3.618678,1.23189 -6.698403,1.23189 -12.010929,0 -17.785414,-8.392251 -17.785414,-17.9394 0,-11.54897 6.62141,-18.093386 18.016393,-18.093386 4.850568,0 9.855121,1.23189 13.473799,3.156718 0.307972,0.153987 0.615945,0 0.615945,-0.461959 l 0,-7.006375 c 0,-0.461959 -0.07699,-0.769931 -0.461959,-0.923917 -2.848746,-1.616856 -8.161272,-2.771753 -13.858764,-2.771753 -16.014572,0 -27.332562,10.163094 -27.332562,26.331652 0,13.704777 8.084279,25.484727 26.254658,25.484727 5.928471,0 11.702956,-1.23189 16.553524,-3.387698 0.461959,-0.23098 0.538952,-0.384966 0.538952,-0.846925 l 0,-22.789967 c 0,-0.384966 -0.07699,-0.615945 -0.615945,-0.615945 l -17.323455,0 c -0.307973,0 -0.538952,0.153986 -0.538952,0.461959 l 0,6.082457 c 0,0.461959 0.153986,0.615945 0.615945,0.692938 l 8.546238,0.23098 z"
       style="fill:url(#linearGradient4244);fill-opacity:1"
       id="path4204" />
    <path
       inkscape:connector-curvature="0"
       d="m 91.672163,42.357922 c -6.467423,0 -12.857853,2.155808 -16.322544,3.310705 -0.230979,0.07699 -0.307973,0.307972 -0.307973,0.461959 0.153987,1.00091 0.307973,3.541684 0.307973,4.465601 l 0,46.42686 c 0,0.307973 0.07699,0.538952 0.538952,0.461959 l 8.161272,-0.769932 c 0.461959,-0.07699 0.538952,-0.307972 0.538952,-0.615945 l 0,-15.090654 c 0.846924,0.153986 1.924828,0.307973 3.387698,0.307973 11.010018,-0.07699 22.328007,-7.160362 22.328007,-20.788146 0,-10.009108 -6.00546,-18.17038 -18.632337,-18.17038 z m -1.00091,7.468334 c 5.774485,0 10.086097,3.618677 10.086097,11.164004 0,8.854211 -5.774482,13.165826 -12.472885,13.165826 -1.308883,0 -2.694759,-0.153986 -3.69567,-0.461958 l 0,-23.020947 c 1.770842,-0.461959 3.464691,-0.846925 6.082458,-0.846925 z"
       style="fill:url(#linearGradient4246);fill-opacity:1"
       id="path4206" />
  </g>
  <g
     id="g4289"
     style="font-style:normal;font-variant:normal;font-weight:bold;font-stretch:normal;font-size:76.99313354000000231px;line-height:125%;font-family:Adobe Clean;-inkscape-font-specification:Adobe Clean Bold;letter-spacing:0px;word-spacing:0px;opacity:0.5;fill:#000000;fill-opacity:1;stroke:none;stroke-width:1px;stroke-linecap:butt;stroke-linejoin:miter;stroke-opacity:1"
     transform="matrix(0.33136384,0,0,0.33136384,1.3015771,11.674743)">
    <path
       style="fill:#000000;fill-opacity:1"
       d="m 19.205078,20.449219 c -5.30665,0 -9.05664,3.368887 -9.05664,8.726562 0,0.181986 0.01089,0.361293 0.01953,0.541016 0.21118,-5.086818 3.885712,-8.267578 9.037109,-8.267578 1.887943,0 3.647826,0.384154 4.591797,0.919922 0.127565,0.05102 0.152344,0.151611 0.152344,0.304687 l 0,-1 c 0,-0.153076 -0.02478,-0.253662 -0.152344,-0.304687 -0.943971,-0.535768 -2.703854,-0.919922 -4.591797,-0.919922 z m 12.472656,4.261719 c -2.14307,0 -4.260129,0.714965 -5.408203,1.097656 -0.07654,0.02551 -0.101562,0.101317 -0.101562,0.152344 0.03036,0.197338 0.04107,0.542365 0.06055,0.880859 0.01322,-0.01171 0.0216,-0.02673 0.04102,-0.0332 1.148074,-0.382691 3.265133,-1.097656 5.408203,-1.097656 4.009475,0 5.983091,2.491375 6.142578,5.617187 0.01509,-0.196001 0.03125,-0.390746 0.03125,-0.595703 0,-3.316657 -1.989737,-6.021484 -6.173828,-6.021484 z m -13.111328,3.75 c -0.102051,0 -0.177734,0.05029 -0.177734,0.152343 l 0,1 c 0,-0.102051 0.07568,-0.152343 0.177734,-0.152343 l 5.740235,0 c 0.17859,0 0.205078,0.07751 0.205078,0.205078 l 0,-1 c 0,-0.127564 -0.02649,-0.205078 -0.205078,-0.205078 l -5.740235,0 z m -5.230468,0.958984 c -0.01616,0.220737 -0.02539,0.446527 -0.02539,0.679687 0,3.16358 1.914544,5.94336 5.894531,5.94336 1.02051,0 1.759521,-0.204101 2.21875,-0.408203 l 0,-1 c -0.459229,0.204102 -1.19824,0.408203 -2.21875,0.408203 -3.843069,0 -5.741773,-2.596535 -5.86914,-5.623047 z m 21.314453,1.933594 c -0.20051,2.605625 -2.000494,3.894531 -4.09375,3.894531 -0.433717,0 -0.892944,-0.05225 -1.22461,-0.154297 l 0,1 c 0.331666,0.102051 0.790893,0.154297 1.22461,0.154297 2.219608,0 4.132812,-1.429316 4.132812,-4.363281 0,-0.189329 -0.02309,-0.3568 -0.03906,-0.53125 z"
       transform="matrix(3.0178308,0,0,3.0178308,-3.9279395,-32.214568)"
       id="path4291"
       inkscape:connector-curvature="0" />
  </g>
</svg>
