<?xml version="1.0" encoding="UTF-8" standalone="no"?>
<!-- Created with Inkscape (http://www.inkscape.org/) -->

<svg
   xmlns:dc="http://purl.org/dc/elements/1.1/"
   xmlns:cc="http://creativecommons.org/ns#"
   xmlns:rdf="http://www.w3.org/1999/02/22-rdf-syntax-ns#"
   xmlns:svg="http://www.w3.org/2000/svg"
   xmlns="http://www.w3.org/2000/svg"
   xmlns:sodipodi="http://sodipodi.sourceforge.net/DTD/sodipodi-0.dtd"
   xmlns:inkscape="http://www.inkscape.org/namespaces/inkscape"
   id="svg7384"
   style="enable-background:new"
   height="22"
   width="22"
   version="1.1"
   inkscape:version="0.92.4 5da689c313, 2019-01-14"
   sodipodi:docname="battery-caution.svg">
  <sodipodi:namedview
     pagecolor="#a1a1a1"
     bordercolor="#666666"
     borderopacity="1"
     objecttolerance="10"
     gridtolerance="10"
     guidetolerance="10"
     inkscape:pageopacity="0"
     inkscape:pageshadow="2"
     inkscape:window-width="1920"
     inkscape:window-height="1027"
     id="namedview11"
     showgrid="true"
     inkscape:zoom="29.5"
     inkscape:cx="0.89935917"
     inkscape:cy="9.4381833"
     inkscape:window-x="0"
     inkscape:window-y="30"
     inkscape:window-maximized="1"
     inkscape:current-layer="svg7384">
    <inkscape:grid
       type="xygrid"
       id="grid843" />
  </sodipodi:namedview>
  <metadata
     id="metadata90">
    <rdf:RDF>
      <cc:Work
         rdf:about="">
        <dc:format>image/svg+xml</dc:format>
        <dc:type
           rdf:resource="http://purl.org/dc/dcmitype/StillImage" />
        <dc:title>Paper Symbolic Icon Theme</dc:title>
      </cc:Work>
    </rdf:RDF>
  </metadata>
  <title
     id="title8473">Paper Symbolic Icon Theme</title>
  <defs
     id="defs7386">
    <filter
       id="filter7554"
       style="color-interpolation-filters:sRGB">
      <feBlend
         id="feBlend7556"
         in2="BackgroundImage"
         mode="darken" />
    </filter>
  </defs>
  <path
     style="clip-rule:evenodd;fill:#e63e5f;fill-rule:evenodd;stroke-linejoin:round;stroke-miterlimit:1.41420996;fill-opacity:1"
     d="m 3,5.8964844 c -1.108,0 -2,0.8919996 -2,1.9999996 v 6.21875 c 0,1.108 0.892,2 2,2 h 5 v -1 H 3 c -0.554,0 -1,-0.446 -1,-1 v -6.21875 c 0,-0.554 0.446,-1 1,-1 H 7 L 7.02148,5.8964844 H 7 Z m 5.400391,0 L 6,12 h 3 v 4.115234 H 9.599609 L 12,9.96875 H 9 V 5.8964844 Z m 1.599609,0 V 6.896484 h 6 c 0.554,0 1,0.446 1,1 v 6.21875 c 0,0.554 -0.446,1 -1,1 h -5 v 1 h 5 c 1.108,0 2,-0.892 2,-2 v -6.21875 c 0,-1.108 -0.892,-1.9999996 -2,-1.9999996 z M 3,7.896484 v 6.21875 H 8.03125 L 8,12.896484 H 4.982422 L 7,7.896484 Z m 7,0 V 8.96875 h 3 l -2,5.146484 h 5 V 7.896484 Z M 19,9 v 4 c 3,0 3,-4 0,-4 z"
     id="path2-1"
     inkscape:connector-curvature="0"
     sodipodi:nodetypes="ssssccsssscccscccccccccccssssccsssscccccccccccccccccc" />
</svg>
