<?xml version="1.0" encoding="UTF-8" standalone="no"?>
<!-- Created with Inkscape (http://www.inkscape.org/) -->

<svg
   xmlns:dc="http://purl.org/dc/elements/1.1/"
   xmlns:cc="http://creativecommons.org/ns#"
   xmlns:rdf="http://www.w3.org/1999/02/22-rdf-syntax-ns#"
   xmlns:svg="http://www.w3.org/2000/svg"
   xmlns="http://www.w3.org/2000/svg"
   xmlns:sodipodi="http://sodipodi.sourceforge.net/DTD/sodipodi-0.dtd"
   xmlns:inkscape="http://www.inkscape.org/namespaces/inkscape"
   id="svg7384"
   style="enable-background:new"
   height="22"
   width="22"
   version="1.1"
   inkscape:version="0.92.4 5da689c313, 2019-01-14"
   sodipodi:docname="battery-missing.svg">
  <sodipodi:namedview
     pagecolor="#a1a1a1"
     bordercolor="#666666"
     borderopacity="1"
     objecttolerance="10"
     gridtolerance="10"
     guidetolerance="10"
     inkscape:pageopacity="0"
     inkscape:pageshadow="2"
     inkscape:window-width="1920"
     inkscape:window-height="1027"
     id="namedview11"
     showgrid="true"
     inkscape:zoom="5.2149125"
     inkscape:cx="6.1854843"
     inkscape:cy="9.3958238"
     inkscape:window-x="0"
     inkscape:window-y="30"
     inkscape:window-maximized="1"
     inkscape:current-layer="svg7384">
    <inkscape:grid
       type="xygrid"
       id="grid843" />
  </sodipodi:namedview>
  <metadata
     id="metadata90">
    <rdf:RDF>
      <cc:Work
         rdf:about="">
        <dc:format>image/svg+xml</dc:format>
        <dc:type
           rdf:resource="http://purl.org/dc/dcmitype/StillImage" />
        <dc:title>Paper Symbolic Icon Theme</dc:title>
      </cc:Work>
    </rdf:RDF>
  </metadata>
  <title
     id="title8473">Paper Symbolic Icon Theme</title>
  <defs
     id="defs7386">
    <filter
       id="filter7554"
       style="color-interpolation-filters:sRGB">
      <feBlend
         id="feBlend7556"
         in2="BackgroundImage"
         mode="darken" />
    </filter>
    <filter
       style="color-interpolation-filters:sRGB"
       id="filter7554-6">
      <feBlend
         mode="darken"
         in2="BackgroundImage"
         id="feBlend7556-3" />
    </filter>
  </defs>
  <path
     style="clip-rule:evenodd;fill:#202020;fill-rule:evenodd;stroke-linejoin:round;stroke-miterlimit:1.41420996"
     d="M 3 6 C 1.892 6 1 6.892 1 8 L 1 14 C 1 15.108 1.892 16 3 16 L 16 16 C 17.108 16 18 15.108 18 14 L 18 8 C 18 6.892 17.108 6 16 6 L 3 6 z M 3 7 L 16 7 C 16.554 7 17 7.446 17 8 L 17 14 C 17 14.554 16.554 15 16 15 L 3 15 C 2.446 15 2 14.554 2 14 L 2 8 C 2 7.446 2.446 7 3 7 z M 3 8 L 3 14 L 16 14 L 16 8 L 3 8 z M 9.5 8.5 C 10.25 8.5 11 9 11 10 C 11 11 10 11 10 12 L 10 13 C 10 14 9 14 9 13 L 9 12 C 9 11 10 11 10 10 C 10 9 9 9 9 10 C 9 11 8 11 8 10 C 8 9 8.75 8.5 9.5 8.5 z M 19 9 L 19 13 C 22 13 22 9 19 9 z "
     id="path2-7" />
</svg>
