<?xml version="1.0" encoding="UTF-8" standalone="no"?>
<svg
   xmlns:dc="http://purl.org/dc/elements/1.1/"
   xmlns:cc="http://creativecommons.org/ns#"
   xmlns:rdf="http://www.w3.org/1999/02/22-rdf-syntax-ns#"
   xmlns:svg="http://www.w3.org/2000/svg"
   xmlns="http://www.w3.org/2000/svg"
   xmlns:sodipodi="http://sodipodi.sourceforge.net/DTD/sodipodi-0.dtd"
   xmlns:inkscape="http://www.inkscape.org/namespaces/inkscape"
   height="22"
   width="22"
   version="1.1"
   id="svg6"
   sodipodi:docname="notification-symbolic.svg"
   inkscape:version="0.92.4 5da689c313, 2019-01-14">
  <metadata
     id="metadata12">
    <rdf:RDF>
      <cc:Work
         rdf:about="">
        <dc:format>image/svg+xml</dc:format>
        <dc:type
           rdf:resource="http://purl.org/dc/dcmitype/StillImage" />
        <dc:title></dc:title>
      </cc:Work>
    </rdf:RDF>
  </metadata>
  <defs
     id="defs10" />
  <sodipodi:namedview
     pagecolor="#ffffff"
     bordercolor="#666666"
     borderopacity="1"
     objecttolerance="10"
     gridtolerance="10"
     guidetolerance="10"
     inkscape:pageopacity="0"
     inkscape:pageshadow="2"
     inkscape:window-width="1920"
     inkscape:window-height="1030"
     id="namedview8"
     showgrid="true"
     inkscape:zoom="20.85965"
     inkscape:cx="-2.6812771"
     inkscape:cy="7.0210617"
     inkscape:window-x="0"
     inkscape:window-y="26"
     inkscape:window-maximized="1"
     inkscape:current-layer="svg6">
    <inkscape:grid
       type="xygrid"
       id="grid3717"
       spacingy="0.5"
       spacingx="0.5" />
  </sodipodi:namedview>
  <g
     transform="matrix(1.0629326,0,0,1.0629326,-308.38806,226.40835)"
     id="g4"
     style="color:#bebebe;fill:#1a1a1a">
    <path
       d="m 301,-210.01 a 1,1 0 0 0 -1,1 v 0.01 c -1.764,0.456 -2.998,2.168 -3,3.99 0,0 0,5 -1.66,5.622 -0.016,0.01 -0.023,0.03 -0.04,0.043 a 0.726,0.726 0 0 0 -0.161,0.175 c -0.018,0.027 -0.039,0.048 -0.053,0.077 a 0.738,0.738 0 0 0 -0.086,0.334 c 0,0.415 0.335,0.75 0.75,0.75 h 10.5 c 0.416,0 0.75,-0.335 0.75,-0.75 a 0.738,0.738 0 0 0 -0.086,-0.334 c -0.014,-0.03 -0.035,-0.05 -0.052,-0.077 a 0.725,0.725 0 0 0 -0.162,-0.175 c -0.016,-0.012 -0.023,-0.033 -0.04,-0.043 -1.66,-0.622 -1.66,-5.622 -1.66,-5.622 -0.002,-1.822 -1.235,-3.534 -3,-3.99 v -0.01 a 1,1 0 0 0 -1,-1 z m -1.933,13 a 2,2 0 0 0 1.933,1.5 2,2 0 0 0 1.936,-1.5 z"
       overflow="visible"
       style="overflow:visible;isolation:auto;mix-blend-mode:normal;fill:#1a1a1a;marker:none"
       id="path2"
       inkscape:connector-curvature="0" />
  </g>
</svg>
