<?xml version="1.0" encoding="UTF-8" standalone="no"?>
<svg
   xmlns:dc="http://purl.org/dc/elements/1.1/"
   xmlns:cc="http://creativecommons.org/ns#"
   xmlns:rdf="http://www.w3.org/1999/02/22-rdf-syntax-ns#"
   xmlns:svg="http://www.w3.org/2000/svg"
   xmlns="http://www.w3.org/2000/svg"
   xmlns:sodipodi="http://sodipodi.sourceforge.net/DTD/sodipodi-0.dtd"
   xmlns:inkscape="http://www.inkscape.org/namespaces/inkscape"
   width="24"
   height="24"
   version="1"
   id="svg9"
   sodipodi:docname="skype-indicator.svg"
   inkscape:version="0.92.4 5da689c313, 2019-01-14">
  <metadata
     id="metadata13">
    <rdf:RDF>
      <cc:Work
         rdf:about="">
        <dc:format>image/svg+xml</dc:format>
        <dc:type
           rdf:resource="http://purl.org/dc/dcmitype/StillImage" />
        <dc:title></dc:title>
      </cc:Work>
    </rdf:RDF>
  </metadata>
  <sodipodi:namedview
     pagecolor="#ffffff"
     bordercolor="#666666"
     borderopacity="1"
     objecttolerance="10"
     gridtolerance="10"
     guidetolerance="10"
     inkscape:pageopacity="0"
     inkscape:pageshadow="2"
     inkscape:window-width="1920"
     inkscape:window-height="1027"
     id="namedview11"
     showgrid="true"
     showguides="true"
     inkscape:guide-bbox="true"
     inkscape:zoom="6.9532167"
     inkscape:cx="-9.1158176"
     inkscape:cy="10.426156"
     inkscape:window-x="0"
     inkscape:window-y="30"
     inkscape:window-maximized="1"
     inkscape:current-layer="svg9">
    <inkscape:grid
       type="xygrid"
       id="grid820" />
    <sodipodi:guide
       position="8,20.400391"
       orientation="0,1"
       id="guide824"
       inkscape:locked="false" />
    <sodipodi:guide
       position="20,3.5954582"
       orientation="0,1"
       id="guide826"
       inkscape:locked="false" />
    <sodipodi:guide
       position="5.4291419,12"
       orientation="1,0"
       id="guide828"
       inkscape:locked="false" />
    <sodipodi:guide
       position="18.588519,12"
       orientation="1,0"
       id="guide830"
       inkscape:locked="false" />
    <sodipodi:guide
       position="3.6314128,16"
       orientation="1,0"
       id="guide832"
       inkscape:locked="false" />
    <sodipodi:guide
       position="4.4224136,16"
       orientation="1,0"
       id="guide834"
       inkscape:locked="false" />
    <sodipodi:guide
       position="12,19.37952"
       orientation="1,0"
       id="guide836"
       inkscape:locked="false" />
    <sodipodi:guide
       position="20.415254,8"
       orientation="1,0"
       id="guide838"
       inkscape:locked="false" />
  </sodipodi:namedview>
  <defs
     id="defs3">
    <style
       id="current-color-scheme"
       type="text/css">
   .ColorScheme-Text { color:#444444; } .ColorScheme-Highlight { color:#5294e2; }
  </style>
  </defs>
  <path
     style="color:#444444;font-style:normal;font-variant:normal;font-weight:normal;font-stretch:normal;font-size:medium;line-height:normal;font-family:sans-serif;font-variant-ligatures:normal;font-variant-position:normal;font-variant-caps:normal;font-variant-numeric:normal;font-variant-alternates:normal;font-feature-settings:normal;text-indent:0;text-align:start;text-decoration:none;text-decoration-line:none;text-decoration-style:solid;text-decoration-color:#000000;letter-spacing:normal;word-spacing:normal;text-transform:none;writing-mode:lr-tb;direction:ltr;text-orientation:mixed;dominant-baseline:auto;baseline-shift:baseline;text-anchor:start;white-space:normal;shape-padding:0;clip-rule:nonzero;display:inline;overflow:visible;visibility:visible;opacity:1;isolation:auto;mix-blend-mode:normal;color-interpolation:sRGB;color-interpolation-filters:linearRGB;solid-color:#000000;solid-opacity:1;vector-effect:none;fill:#f5f5f5;fill-opacity:1;fill-rule:nonzero;stroke:none;stroke-width:0.80000001;stroke-linecap:butt;stroke-linejoin:miter;stroke-miterlimit:4;stroke-dasharray:none;stroke-dashoffset:0;stroke-opacity:1;color-rendering:auto;image-rendering:auto;shape-rendering:auto;text-rendering:auto;enable-background:accumulate"
     d="M 8,3.5996094 C 5.574685,3.5996094 3.5996094,5.574685 3.5996094,8 c 2.408e-4,1.0614828 0.4149304,2.065278 1.1074218,2.863281 -0.060288,0.375537 -0.105508,0.75426 -0.1074218,1.134766 V 12 c 0,4.082169 3.3182213,7.400391 7.4003906,7.400391 0.383957,-8.1e-4 0.76745,-0.04326 1.146484,-0.103516 0.795731,0.688574 1.7963,1.101766 2.853516,1.103516 2.425315,0 4.400391,-1.975076 4.400391,-4.400391 -1.86e-4,-1.05998 -0.41487,-2.061828 -1.105469,-2.859375 0.06063,-0.376786 0.10361,-0.756881 0.105469,-1.138672 V 12 C 19.400391,7.9178307 16.082169,4.5996094 12,4.5996094 11.616676,4.6005099 11.233876,4.6449272 10.855469,4.7050781 10.059493,4.0153212 9.0581283,3.6014438 8,3.5996094 Z m 0,0.8007812 c 0.9268087,0.00161 1.8155205,0.360384 2.484375,1.0019532 l 0.148437,0.140625 0.201172,-0.037109 C 11.219132,5.4357028 11.608516,5.4013103 12,5.4003906 c 3.649817,0 6.588519,2.9497923 6.588519,6.5996094 -0.002,0.388359 -0.0262,0.776221 -0.09633,1.158203 l -0.03711,0.201172 0.140625,0.148437 c 0.643851,0.670412 1.003743,1.562674 1.003906,2.492188 0,1.992963 -1.606646,3.599609 -3.599609,3.599609 -0.926771,-0.0015 -1.815478,-0.360482 -2.484375,-1.001953 l -0.148437,-0.140625 -0.201172,0.03711 C 12.780862,18.564201 12.391476,18.598783 12,18.599609 8.3508492,18.599609 5.4302189,15.648895 5.4291419,12 v 0 c 0.00207,-0.388365 0.00847,-0.776226 0.078671,-1.158203 l 0.037109,-0.201172 -0.140625,-0.148437 C 4.7603805,9.8218046 4.4226245,8.9295387 4.4224136,8 4.4224136,6.007037 6.007037,4.4003906 8,4.4003906 Z"
     id="path5"
     inkscape:connector-curvature="0"
     sodipodi:nodetypes="ccccsccccccsccccccccccccccccccccccccc" />
  <path
     style="fill:currentColor"
     class="ColorScheme-Text"
     d="m-22.069-4.0812"
     id="path7" />
</svg>
