<?xml version="1.0" encoding="UTF-8" standalone="no"?>
<!-- Created with Inkscape (http://www.inkscape.org/) -->

<svg
   xmlns:dc="http://purl.org/dc/elements/1.1/"
   xmlns:cc="http://creativecommons.org/ns#"
   xmlns:rdf="http://www.w3.org/1999/02/22-rdf-syntax-ns#"
   xmlns:svg="http://www.w3.org/2000/svg"
   xmlns="http://www.w3.org/2000/svg"
   xmlns:xlink="http://www.w3.org/1999/xlink"
   xmlns:sodipodi="http://sodipodi.sourceforge.net/DTD/sodipodi-0.dtd"
   xmlns:inkscape="http://www.inkscape.org/namespaces/inkscape"
   id="svg2"
   version="1.1"
   inkscape:version="0.91 r13725"
   width="128"
   height="128"
   viewBox="0 0 128 128"
   sodipodi:docname="network.svg">
  <metadata
     id="metadata8">
    <rdf:RDF>
      <cc:Work
         rdf:about="">
        <dc:format>image/svg+xml</dc:format>
        <dc:type
           rdf:resource="http://purl.org/dc/dcmitype/StillImage" />
        <dc:title></dc:title>
      </cc:Work>
    </rdf:RDF>
  </metadata>
  <defs
     id="defs6">
    <linearGradient
       inkscape:collect="always"
       id="linearGradient4209">
      <stop
         style="stop-color:#5d94c7;stop-opacity:1;"
         offset="0"
         id="stop4211" />
      <stop
         style="stop-color:#2f608d;stop-opacity:1"
         offset="1"
         id="stop4213" />
    </linearGradient>
    <linearGradient
       inkscape:collect="always"
       id="linearGradient4178">
      <stop
         style="stop-color:#9af590;stop-opacity:1"
         offset="0"
         id="stop4180" />
      <stop
         style="stop-color:#74ce6d;stop-opacity:1"
         offset="1"
         id="stop4182" />
    </linearGradient>
    <linearGradient
       inkscape:collect="always"
       id="linearGradient4152">
      <stop
         style="stop-color:#a5abae;stop-opacity:1"
         offset="0"
         id="stop4154" />
      <stop
         id="stop4166"
         offset="0.03589743"
         style="stop-color:#c5ccd0;stop-opacity:1" />
      <stop
         id="stop4160"
         offset="0.07179487"
         style="stop-color:#d7dee2;stop-opacity:1" />
      <stop
         style="stop-color:#dde2e5;stop-opacity:1"
         offset="0.11461538"
         id="stop4162" />
      <stop
         id="stop4164"
         offset="0.24576923"
         style="stop-color:#bbbdbd;stop-opacity:1" />
      <stop
         style="stop-color:#bbbcbc;stop-opacity:1"
         offset="0.30291665"
         id="stop4174" />
      <stop
         style="stop-color:#c6cacb;stop-opacity:1"
         offset="0.5113461"
         id="stop4168" />
      <stop
         id="stop4170"
         offset="0.75567305"
         style="stop-color:#d5dbdd;stop-opacity:1" />
      <stop
         style="stop-color:#cbd3d6;stop-opacity:1;"
         offset="0.93333334"
         id="stop4172" />
      <stop
         style="stop-color:#a6aaac;stop-opacity:1"
         offset="1"
         id="stop4156" />
    </linearGradient>
    <linearGradient
       inkscape:collect="always"
       id="linearGradient4141">
      <stop
         style="stop-color:#a1a3a4;stop-opacity:1;"
         offset="0"
         id="stop4143" />
      <stop
         style="stop-color:#dee4e6;stop-opacity:1"
         offset="1"
         id="stop4145" />
    </linearGradient>
    <linearGradient
       inkscape:collect="always"
       xlink:href="#linearGradient4141"
       id="linearGradient4147"
       x1="235.95546"
       y1="125.25424"
       x2="235.95546"
       y2="7.2881422"
       gradientUnits="userSpaceOnUse"
       gradientTransform="translate(18.431647,-32)" />
    <linearGradient
       inkscape:collect="always"
       xlink:href="#linearGradient4152"
       id="linearGradient4158"
       x1="145.76271"
       y1="183.4442"
       x2="13.559327"
       y2="183.4442"
       gradientUnits="userSpaceOnUse"
       gradientTransform="translate(164.36635,-83.774598)" />
    <radialGradient
       inkscape:collect="always"
       xlink:href="#linearGradient4178"
       id="radialGradient4184"
       cx="128.23802"
       cy="137.28868"
       fx="128.23802"
       fy="137.28868"
       r="2.3969722"
       gradientUnits="userSpaceOnUse"
       gradientTransform="translate(159.56062,-32)" />
    <linearGradient
       inkscape:collect="always"
       xlink:href="#linearGradient4209"
       id="linearGradient4215"
       x1="237.4445"
       y1="5.6779666"
       x2="237.4445"
       y2="102.62712"
       gradientUnits="userSpaceOnUse"
       gradientTransform="translate(1.4010986,-30.644068)" />
    <linearGradient
       gradientTransform="matrix(2.213863,0,0,2.213863,289.84755,-2436.2025)"
       id="e"
       gradientUnits="userSpaceOnUse"
       x1="-20.764721"
       x2="-22.211618"
       y1="1116.8074"
       y2="1146.8351">
      <stop
         offset="0"
         stop-color="#1296d5"
         id="stop25" />
      <stop
         offset="1"
         stop-color="#4fb6e8"
         id="stop27" />
    </linearGradient>
  </defs>
  <sodipodi:namedview
     pagecolor="#ffffff"
     bordercolor="#666666"
     borderopacity="1"
     objecttolerance="10"
     gridtolerance="10"
     guidetolerance="10"
     inkscape:pageopacity="0"
     inkscape:pageshadow="2"
     inkscape:window-width="1920"
     inkscape:window-height="1025"
     id="namedview4"
     showgrid="false"
     inkscape:zoom="1.0429825"
     inkscape:cx="185.60108"
     inkscape:cy="37.159329"
     inkscape:window-x="0"
     inkscape:window-y="26"
     inkscape:window-maximized="1"
     inkscape:current-layer="svg2" />
  <g
     id="g4309"
     transform="matrix(0.81978949,0,0,0.81978949,-135.48181,26.526033)">
    <g
       style="opacity:0.7"
       transform="translate(-147.07752,-31.47948)"
       id="g4201">
      <path
         style="opacity:1;fill:none;fill-opacity:0.04942968;stroke:#000000;stroke-width:2;stroke-linecap:round;stroke-linejoin:round;stroke-miterlimit:4;stroke-dasharray:none;stroke-dashoffset:0;stroke-opacity:0.04562737;paint-order:fill markers stroke"
         d="m 339.38795,6.1015625 c -3.15889,0 -5.42867,2.5540551 -5.70118,5.7011715 l -9.46093,109.244146 -0.19922,0 0,22.32421 c 0,3.15889 2.54423,5.70118 5.70312,5.70118 l 121.47656,0 c 3.1589,0 5.70313,-2.54229 5.70313,-5.70118 l 0,-22.32421 -0.20898,0 L 445.8899,11.802734 c -0.31109,-3.1435376 -2.54424,-5.7011715 -5.70313,-5.7011715 l -100.79882,0 z"
         id="path4190"
         inkscape:connector-curvature="0" />
      <path
         inkscape:connector-curvature="0"
         id="path4197"
         d="m 339.38795,6.1015625 c -3.15889,0 -5.42867,2.5540551 -5.70118,5.7011715 l -9.46093,109.244146 -0.19922,0 0,22.32421 c 0,3.15889 2.54423,5.70118 5.70312,5.70118 l 121.47656,0 c 3.1589,0 5.70313,-2.54229 5.70313,-5.70118 l 0,-22.32421 -0.20898,0 L 445.8899,11.802734 c -0.31109,-3.1435376 -2.54424,-5.7011715 -5.70313,-5.7011715 l -100.79882,0 z"
         style="opacity:1;fill:none;fill-opacity:0.04942968;stroke:#000000;stroke-width:4;stroke-linecap:round;stroke-linejoin:round;stroke-miterlimit:4;stroke-dasharray:none;stroke-dashoffset:0;stroke-opacity:0.04562737;paint-order:fill markers stroke" />
      <path
         style="opacity:1;fill:none;fill-opacity:0.04942968;stroke:#000000;stroke-width:6;stroke-linecap:round;stroke-linejoin:round;stroke-miterlimit:4;stroke-dasharray:none;stroke-dashoffset:0;stroke-opacity:0.04562737;paint-order:fill markers stroke"
         d="m 339.38795,6.1015625 c -3.15889,0 -5.42867,2.5540551 -5.70118,5.7011715 l -9.46093,109.244146 -0.19922,0 0,22.32421 c 0,3.15889 2.54423,5.70118 5.70312,5.70118 l 121.47656,0 c 3.1589,0 5.70313,-2.54229 5.70313,-5.70118 l 0,-22.32421 -0.20898,0 L 445.8899,11.802734 c -0.31109,-3.1435376 -2.54424,-5.7011715 -5.70313,-5.7011715 l -100.79882,0 z"
         id="path4199"
         inkscape:connector-curvature="0" />
    </g>
    <path
       sodipodi:nodetypes="csssscc"
       inkscape:connector-curvature="0"
       id="rect4149"
       d="m 310.46805,89.04601 0,22.32487 c 0,3.15889 -2.54308,5.70197 -5.70197,5.70197 l -121.47742,0 c -3.15889,0 -5.70197,-2.54308 -5.70197,-5.70197 l 0,-22.32487 z"
       style="opacity:1;fill:url(#linearGradient4158);fill-opacity:1;stroke:none;stroke-width:2;stroke-linecap:round;stroke-linejoin:round;stroke-miterlimit:4;stroke-dasharray:none;stroke-dashoffset:0;stroke-opacity:1;paint-order:fill markers stroke" />
    <path
       sodipodi:nodetypes="sssssssss"
       inkscape:connector-curvature="0"
       id="rect4138"
       d="m 192.94718,-25.898305 100.79944,0 c 3.15889,0 5.39088,2.558436 5.70197,5.701974 L 310.29605,89.41667 c 0.31109,3.14354 -2.54308,5.70198 -5.70197,5.70198 l -121.13842,0 c -3.1589,0 -5.97449,-2.55486 -5.70198,-5.70198 l 9.49153,-109.613001 c 0.27251,-3.147117 2.54308,-5.701974 5.70197,-5.701974 z"
       style="opacity:1;fill:url(#linearGradient4147);fill-opacity:1;stroke:none;stroke-width:2;stroke-linecap:round;stroke-linejoin:round;stroke-miterlimit:4;stroke-dasharray:none;stroke-dashoffset:0;stroke-opacity:1;paint-order:fill markers stroke" />
    <circle
       r="2.3969722"
       cy="105.28868"
       cx="287.79865"
       id="path4176"
       style="opacity:1;fill:url(#radialGradient4184);fill-opacity:1;stroke:#76a578;stroke-width:0.5;stroke-linecap:round;stroke-linejoin:round;stroke-miterlimit:4;stroke-dasharray:none;stroke-dashoffset:0;stroke-opacity:1;paint-order:fill markers stroke" />
    <circle
       r="0.59924304"
       cy="105.28868"
       cx="287.79865"
       id="path4188"
       style="opacity:1;fill:#ffffff;fill-opacity:0.29657796;stroke:none;stroke-width:0.5;stroke-linecap:round;stroke-linejoin:round;stroke-miterlimit:4;stroke-dasharray:none;stroke-dashoffset:0;stroke-opacity:1;paint-order:fill markers stroke" />
    <path
       sodipodi:nodetypes="sssssssss"
       inkscape:connector-curvature="0"
       id="rect4206"
       d="m 194.5607,-23.694915 99.44352,0 c 2.5955,0 4.49206,2.096702 4.68502,4.685021 l 6.44068,86.392676 C 305.32288,69.9711 303.0404,72.0678 300.4449,72.0678 l -112.83335,0 c -2.59551,0 -4.89313,-2.09788 -4.68502,-4.685018 l 6.94915,-86.392676 c 0.2081,-2.587145 2.08952,-4.685021 4.68502,-4.685021 z"
       style="opacity:1;fill:url(#linearGradient4215);fill-opacity:1;stroke:none;stroke-width:6;stroke-linecap:round;stroke-linejoin:round;stroke-miterlimit:4;stroke-dasharray:none;stroke-dashoffset:0;stroke-opacity:0.04562737;paint-order:fill markers stroke" />
    <path
       inkscape:connector-curvature="0"
       id="path4217"
       d="m 177.84961,88.30664 -0.0957,1.10938 c -0.27251,3.14712 2.54227,5.70312 5.70117,5.70312 l 121.13867,0 c 3.15889,0 6.01421,-2.55958 5.70313,-5.70312 l -0.10157,-1.02735 c -0.5512,2.41439 -2.96702,4.19531 -5.60156,4.19531 l -121.13867,0 c -2.66465,0 -5.07687,-1.81949 -5.60547,-4.27734 z"
       style="opacity:1;fill:#e0e3e4;fill-opacity:1;stroke:none;stroke-width:2;stroke-linecap:round;stroke-linejoin:round;stroke-miterlimit:4;stroke-dasharray:none;stroke-dashoffset:0;stroke-opacity:1;paint-order:fill markers stroke" />
    <path
       id="path55"
       d="m 244.50797,-9.981171 c -4.2188,0.124355 -7.54581,3.587352 -7.54581,7.838509 0.004,2.861647 1.5661,5.493921 4.07644,6.867953 l -10.02533,8.93066 -0.7753,0.66325 -0.77774,-0.66325 0,0.0025 -10.02533,-8.93066 c 2.51034,-1.374033 4.07277,-4.006307 4.07645,-6.867954 0,-4.263591 -3.34616,-7.732389 -7.58238,-7.838508 l -0.43886,0 c -4.21879,0.124354 -7.54581,3.587343 -7.54581,7.838498 0.004,2.861647 1.56612,5.493921 4.07645,6.867954 l -10.02532,8.93066 -0.46811,6.402297 7.95784,-5.919506 -0.8387,9.625415 -8.21139,28.062105 6.08541,0 9.18419,-23.605342 0.0439,-0.0025 9.18663,23.607828 6.08541,0 0,-0.0025 4.51773,0 9.18419,-23.602855 0.0439,0 9.18663,23.607829 4.51773,0 1.56767,0 4.51775,0 9.1842,-23.602854 0.0439,0 9.18664,23.607829 6.08541,0 -8.21141,-28.062105 -0.83869,-9.625692 7.95785,5.919782 -0.46811,-6.402295 -10.02533,-8.930661 c 2.51034,-1.374032 4.07277,-4.006583 4.07644,-6.86823 0,-4.263592 -3.34615,-7.732112 -7.58238,-7.838232 l -0.43885,0 c -4.2188,0.124355 -7.54581,3.587077 -7.54581,7.838232 0.004,2.861647 1.5661,5.494198 4.07643,6.86823 l -10.02533,8.930661 0,-0.0025 -0.7753,0.662421 -0.77775,-0.660209 -10.02532,-8.930385 c 2.51034,-1.374032 4.07278,-4.006583 4.07645,-6.86823 0,-4.263592 -3.34615,-7.732112 -7.58238,-7.838232 z m -6.00496,24.119913 -0.83869,9.625415 -7.42879,25.385062 -7.42634,-25.382575 -0.8387,-9.625415 7.95784,5.919506 0.30964,0.193447 0.30719,-0.196211 z m 12.48532,0 7.95785,5.919505 0.30964,0.196213 0.30719,-0.198975 0,0.0025 7.95785,-5.919506 -0.83869,9.625415 -7.42879,25.382852 -7.42634,-25.382852 z"
       style="opacity:1;fill:#ffffff"
       inkscape:connector-curvature="0" />
  </g>
</svg>
