<?xml version="1.0" encoding="UTF-8" standalone="no"?>
<!-- Created with Inkscape (http://www.inkscape.org/) -->

<svg
   xmlns:osb="http://www.openswatchbook.org/uri/2009/osb"
   xmlns:dc="http://purl.org/dc/elements/1.1/"
   xmlns:cc="http://creativecommons.org/ns#"
   xmlns:rdf="http://www.w3.org/1999/02/22-rdf-syntax-ns#"
   xmlns:svg="http://www.w3.org/2000/svg"
   xmlns="http://www.w3.org/2000/svg"
   xmlns:sodipodi="http://sodipodi.sourceforge.net/DTD/sodipodi-0.dtd"
   xmlns:inkscape="http://www.inkscape.org/namespaces/inkscape"
   width="128"
   height="128"
   viewBox="0 0 33.866665 33.866667"
   version="1.1"
   id="svg8"
   inkscape:version="0.92.2 5c3e80d, 2017-08-06"
   sodipodi:docname="user-trash.svg">
  <defs
     id="defs2">
    <linearGradient
       osb:paint="solid"
       id="linearGradient6088">
      <stop
         id="stop6086"
         offset="0"
         style="stop-color:#51b3e3;stop-opacity:1;" />
    </linearGradient>
    <linearGradient
       osb:paint="solid"
       id="linearGradient6987">
      <stop
         id="stop6985"
         offset="0"
         style="stop-color:#77d2fb;stop-opacity:1;" />
    </linearGradient>
  </defs>
  <sodipodi:namedview
     id="base"
     pagecolor="#ffffff"
     bordercolor="#666666"
     borderopacity="1.0"
     inkscape:pageopacity="0.0"
     inkscape:pageshadow="2"
     inkscape:zoom="2.56"
     inkscape:cx="43.966148"
     inkscape:cy="19.853537"
     inkscape:document-units="mm"
     inkscape:current-layer="layer1"
     showgrid="false"
     inkscape:window-width="1600"
     inkscape:window-height="814"
     inkscape:window-x="0"
     inkscape:window-y="0"
     inkscape:window-maximized="1"
     units="px" />
  <metadata
     id="metadata5">
    <rdf:RDF>
      <cc:Work
         rdf:about="">
        <dc:format>image/svg+xml</dc:format>
        <dc:type
           rdf:resource="http://purl.org/dc/dcmitype/StillImage" />
        <dc:title />
      </cc:Work>
    </rdf:RDF>
  </metadata>
  <g
     inkscape:label="Layer 1"
     inkscape:groupmode="layer"
     id="layer1"
     transform="translate(0,-263.13331)">
    <g
       id="layer1-4"
       inkscape:label="Layer 1"
       transform="matrix(0.9677313,0,0,0.96784561,0.54645388,9.5409306)"
       style="stroke-width:1.03328371">
      <g
         style="stroke-width:1.00674617"
         transform="matrix(1.0264178,0,0,1.0263014,-0.44634045,-7.8041858)"
         id="g825">
        <path
           style="opacity:0.25;fill:#000000;fill-opacity:1;stroke:#808080;stroke-width:0.0260407;stroke-miterlimit:4;stroke-dasharray:none;stroke-opacity:1"
           d="m 16.93738,264.94506 a 12.756763,3.0691088 0 0 0 -12.7567689,3.06913 12.756763,3.0691088 0 0 0 0.00554,0.0374 c -0.00476,0.012 -0.00923,0.0228 -0.013372,0.034 l 3.0560025,23.82162 c -0.015024,0.10515 0.6159215,4.78759 8.1145854,4.80372 4.947579,0.10356 10.659318,-0.40319 11.361529,-5.27965 0.335848,-1.64196 2.92551,-22.96468 2.968045,-23.31498 a 12.756763,3.0691088 0 0 0 0.02125,-0.10217 12.756763,3.0691088 0 0 0 -12.756766,-3.06913 z"
           id="path1139-9-8"
           inkscape:connector-curvature="0" />
        <path
           inkscape:connector-curvature="0"
           id="path822-0-3"
           d="m 16.93738,264.34938 a 12.756763,3.0691088 0 0 0 -12.7567689,3.06913 12.756763,3.0691088 0 0 0 0.00554,0.0374 c -0.00476,0.012 -0.00923,0.0228 -0.013372,0.034 l 3.0560025,23.82162 c -0.015024,0.10515 0.6159215,4.78759 8.1145854,4.80372 4.947579,0.10356 10.659318,-0.40319 11.361529,-5.27965 0.335848,-1.64196 2.92551,-22.96468 2.968045,-23.31498 a 12.756763,3.0691088 0 0 0 0.02125,-0.10217 12.756763,3.0691088 0 0 0 -12.756766,-3.06913 z"
           style="opacity:1;fill:#f2f2f2;fill-opacity:1;stroke:#808080;stroke-width:0.20134926;stroke-miterlimit:4;stroke-dasharray:none;stroke-opacity:1" />
        <ellipse
           ry="2.5476561"
           rx="11.658007"
           cy="267.70151"
           cx="16.828098"
           id="ellipse824-9"
           style="opacity:1;fill:#808080;fill-opacity:1;stroke:#4d4d4d;stroke-width:0.20134926;stroke-miterlimit:4;stroke-dasharray:none;stroke-opacity:1" />
      </g>
    </g>
  </g>
</svg>
