<?xml version="1.0" encoding="UTF-8" standalone="no"?>
<!-- Created with Inkscape (http://www.inkscape.org/) -->

<svg
   xmlns:dc="http://purl.org/dc/elements/1.1/"
   xmlns:cc="http://creativecommons.org/ns#"
   xmlns:rdf="http://www.w3.org/1999/02/22-rdf-syntax-ns#"
   xmlns:svg="http://www.w3.org/2000/svg"
   xmlns="http://www.w3.org/2000/svg"
   xmlns:xlink="http://www.w3.org/1999/xlink"
   xmlns:sodipodi="http://sodipodi.sourceforge.net/DTD/sodipodi-0.dtd"
   xmlns:inkscape="http://www.inkscape.org/namespaces/inkscape"
   width="128"
   height="128"
   viewBox="0 0 33.866666 33.866666"
   id="svg2"
   version="1.1"
   inkscape:version="0.92.3 (2405546, 2018-03-11)"
   sodipodi:docname="user-trash.svg">
  <defs
     id="defs4">
    <linearGradient
       inkscape:collect="always"
       id="linearGradient4761">
      <stop
         style="stop-color:#fbfbfc;stop-opacity:1"
         offset="0"
         id="stop4763" />
      <stop
         id="stop4765"
         offset="0.25423759"
         style="stop-color:#ccced2;stop-opacity:1" />
      <stop
         style="stop-color:#f3f4f5;stop-opacity:1"
         offset="0.74363941"
         id="stop4767" />
      <stop
         style="stop-color:#d6d6db;stop-opacity:1"
         offset="1"
         id="stop4769" />
    </linearGradient>
    <linearGradient
       id="linearGradient4685"
       inkscape:collect="always">
      <stop
         id="stop4751"
         offset="0"
         style="stop-color:#d9dadd;stop-opacity:1" />
      <stop
         style="stop-color:#e3e4e6;stop-opacity:1"
         offset="0.25423759"
         id="stop4753" />
      <stop
         id="stop4755"
         offset="0.74363941"
         style="stop-color:#d8dbde;stop-opacity:1" />
      <stop
         id="stop4757"
         offset="1"
         style="stop-color:#f7f7f8;stop-opacity:1" />
    </linearGradient>
    <clipPath
       clipPathUnits="userSpaceOnUse"
       id="clipPath4229">
      <path
         style="color:#000000;display:inline;overflow:visible;visibility:visible;opacity:0.69100001;fill:#ffffff;fill-opacity:1;fill-rule:nonzero;stroke:none;stroke-width:4.81500006;stroke-linecap:round;stroke-linejoin:miter;stroke-miterlimit:4;stroke-dasharray:none;stroke-dashoffset:0;stroke-opacity:1;marker:none;enable-background:accumulate"
         d="m 45.101638,268.00145 3.77548,30.73559 c -5e-6,2.84279 5.376939,5.14749 12.010119,5.14749 6.633181,0 12.010644,-2.3047 12.010636,-5.14749 l 3.741891,-30.73559 c -7.94e-4,2.17711 -7.06062,3.9419 -15.769063,3.94188 -8.708442,2e-5 -15.76829,-1.76477 -15.769063,-3.94188 z m 31.538126,0 c 0,-0.0854 -0.01476,-0.17017 -0.03617,-0.25425 0.02299,0.0846 0.03506,0.16942 0.03617,0.25425 z"
         id="path4231"
         inkscape:connector-curvature="0"
         sodipodi:nodetypes="ccsccscccc" />
    </clipPath>
    <filter
       inkscape:collect="always"
       style="color-interpolation-filters:sRGB"
       id="filter4481"
       x="-0.084444419"
       width="1.1688888"
       y="-0.18726517"
       height="1.3745303">
      <feGaussianBlur
         inkscape:collect="always"
         stdDeviation="1.0791004"
         id="feGaussianBlur4483" />
    </filter>
    <clipPath
       clipPathUnits="userSpaceOnUse"
       id="clipPath4493">
      <path
         style="color:#000000;display:inline;overflow:visible;visibility:visible;opacity:0.69100001;fill:#ffffff;fill-opacity:1;fill-rule:nonzero;stroke:none;stroke-width:4.81500006;stroke-linecap:round;stroke-linejoin:miter;stroke-miterlimit:4;stroke-dasharray:none;stroke-dashoffset:0;stroke-opacity:1;marker:none;enable-background:accumulate"
         d="m 45.101638,268.00145 3.77548,30.73559 c -5e-6,2.84279 5.376939,5.14749 12.010119,5.14749 6.633181,0 12.010644,-2.3047 12.010636,-5.14749 l 3.741891,-30.73559 c -7.94e-4,2.17711 -7.06062,3.9419 -15.769063,3.94188 -8.708442,2e-5 -15.76829,-1.76477 -15.769063,-3.94188 z m 31.538126,0 c 0,-0.0854 -0.01476,-0.17017 -0.03617,-0.25425 0.02299,0.0846 0.03506,0.16942 0.03617,0.25425 z"
         id="path4495"
         inkscape:connector-curvature="0"
         sodipodi:nodetypes="ccsccscccc" />
    </clipPath>
    <filter
       inkscape:collect="always"
       style="color-interpolation-filters:sRGB"
       id="filter4673"
       x="-0.36660698"
       width="1.733214"
       y="-0.59061521"
       height="2.1812303">
      <feGaussianBlur
         inkscape:collect="always"
         stdDeviation="1.6947276"
         id="feGaussianBlur4675" />
    </filter>
    <linearGradient
       inkscape:collect="always"
       xlink:href="#linearGradient4685"
       id="linearGradient4691"
       x1="170.46289"
       y1="713.63477"
       x2="289.66211"
       y2="713.63477"
       gradientUnits="userSpaceOnUse" />
    <linearGradient
       inkscape:collect="always"
       xlink:href="#linearGradient4761"
       id="linearGradient4747"
       x1="170.46289"
       y1="704.73242"
       x2="289.66211"
       y2="704.73242"
       gradientUnits="userSpaceOnUse"
       gradientTransform="matrix(1.1010059,0,0,1.1010059,-147.4503,-583.16172)" />
    <clipPath
       clipPathUnits="userSpaceOnUse"
       id="clipPath4229-3">
      <path
         style="color:#000000;display:inline;overflow:visible;visibility:visible;opacity:0.69100001;fill:#ffffff;fill-opacity:1;fill-rule:nonzero;stroke:none;stroke-width:4.81500006;stroke-linecap:round;stroke-linejoin:miter;stroke-miterlimit:4;stroke-dasharray:none;stroke-dashoffset:0;stroke-opacity:1;marker:none;enable-background:accumulate"
         d="m 45.101638,268.00145 3.77548,30.73559 c -5e-6,2.84279 5.376939,5.14749 12.010119,5.14749 6.633181,0 12.010644,-2.3047 12.010636,-5.14749 l 3.741891,-30.73559 c -7.94e-4,2.17711 -7.06062,3.9419 -15.769063,3.94188 -8.708442,2e-5 -15.76829,-1.76477 -15.769063,-3.94188 z m 31.538126,0 c 0,-0.0854 -0.01476,-0.17017 -0.03617,-0.25425 0.02299,0.0846 0.03506,0.16942 0.03617,0.25425 z"
         id="path4231-2"
         inkscape:connector-curvature="0"
         sodipodi:nodetypes="ccsccscccc" />
    </clipPath>
    <filter
       inkscape:collect="always"
       style="color-interpolation-filters:sRGB"
       id="filter4481-3"
       x="-0.084444419"
       width="1.1688888"
       y="-0.18726517"
       height="1.3745303">
      <feGaussianBlur
         inkscape:collect="always"
         stdDeviation="1.0791004"
         id="feGaussianBlur4483-5" />
    </filter>
    <clipPath
       clipPathUnits="userSpaceOnUse"
       id="clipPath4493-9">
      <path
         style="color:#000000;display:inline;overflow:visible;visibility:visible;opacity:0.69100001;fill:#ffffff;fill-opacity:1;fill-rule:nonzero;stroke:none;stroke-width:4.81500006;stroke-linecap:round;stroke-linejoin:miter;stroke-miterlimit:4;stroke-dasharray:none;stroke-dashoffset:0;stroke-opacity:1;marker:none;enable-background:accumulate"
         d="m 45.101638,268.00145 3.77548,30.73559 c -5e-6,2.84279 5.376939,5.14749 12.010119,5.14749 6.633181,0 12.010644,-2.3047 12.010636,-5.14749 l 3.741891,-30.73559 c -7.94e-4,2.17711 -7.06062,3.9419 -15.769063,3.94188 -8.708442,2e-5 -15.76829,-1.76477 -15.769063,-3.94188 z m 31.538126,0 c 0,-0.0854 -0.01476,-0.17017 -0.03617,-0.25425 0.02299,0.0846 0.03506,0.16942 0.03617,0.25425 z"
         id="path4495-0"
         inkscape:connector-curvature="0"
         sodipodi:nodetypes="ccsccscccc" />
    </clipPath>
    <filter
       inkscape:collect="always"
       style="color-interpolation-filters:sRGB"
       id="filter4673-6"
       x="-0.36660698"
       width="1.733214"
       y="-0.59061521"
       height="2.1812303">
      <feGaussianBlur
         inkscape:collect="always"
         stdDeviation="1.6947276"
         id="feGaussianBlur4675-1" />
    </filter>
    <clipPath
       clipPathUnits="userSpaceOnUse"
       id="clipPath5052">
      <g
         transform="translate(-3.4017833,-18.615328)"
         id="g5054">
        <path
           style="color:#000000;display:inline;overflow:visible;visibility:visible;opacity:0.91500005;fill:url(#linearGradient5062);fill-opacity:1;fill-rule:nonzero;stroke:none;stroke-width:4.81500006;stroke-linecap:round;stroke-linejoin:miter;stroke-miterlimit:4;stroke-dasharray:none;stroke-dashoffset:0;stroke-opacity:1;marker:none;enable-background:accumulate"
           d="m 170.46289,646.30469 14.26953,116.16601 c -2e-5,10.74441 20.32229,19.45508 45.39258,19.45508 25.07029,0 45.39456,-8.71067 45.39453,-19.45508 l 14.14258,-116.16601 c -0.003,8.22845 -26.68581,14.89851 -59.59961,14.89843 -32.9138,8e-5 -59.59669,-6.66998 -59.59961,-14.89843 z m 119.19922,0 c 0,-0.3229 -0.0558,-0.64315 -0.13672,-0.96094 0.0869,0.31986 0.13251,0.64034 0.13672,0.96094 z"
           id="path5056"
           inkscape:connector-curvature="0"
           sodipodi:nodetypes="ccsccscccc"
           transform="matrix(0.26458333,0,0,0.26458333,0,97.000003)" />
        <path
           style="opacity:0.72899996;fill:#ffffff;fill-opacity:1;fill-rule:evenodd;stroke:none;stroke-width:0.26458332px;stroke-linecap:butt;stroke-linejoin:miter;stroke-opacity:1;filter:url(#filter4481-3)"
           d="m 46.504896,302.14494 c 7.684,-6.01356 8.753078,-2.80633 14.766642,-2.20497 6.013564,0.60135 15.902538,-4.27632 15.902538,-4.27632 l -1.00226,13.63075 c 0,0 -28.531024,2.07134 -29.66692,-7.14946 z"
           id="path5058"
           inkscape:connector-curvature="0"
           clip-path="url(#clipPath4229-3)" />
        <path
           style="opacity:0.48300003;fill:#a4a4a4;fill-opacity:1;fill-rule:evenodd;stroke:none;stroke-width:0.26458332px;stroke-linecap:butt;stroke-linejoin:miter;stroke-opacity:1;filter:url(#filter4673-6)"
           d="m 60.737,305.41899 c 6.748555,-6.34765 8.15172,-7.48355 10.757599,-1.67043 2.605876,5.81311 -10.757599,1.67043 -10.757599,1.67043 z"
           id="path5060"
           inkscape:connector-curvature="0"
           clip-path="url(#clipPath4493-9)" />
      </g>
    </clipPath>
    <linearGradient
       inkscape:collect="always"
       xlink:href="#linearGradient4685"
       id="linearGradient5062"
       gradientUnits="userSpaceOnUse"
       x1="170.46289"
       y1="713.63477"
       x2="289.66211"
       y2="713.63477" />
    <filter
       inkscape:collect="always"
       style="color-interpolation-filters:sRGB"
       id="filter5236"
       x="-0.24031065"
       width="1.4806213"
       y="-0.031949174"
       height="1.0638984">
      <feGaussianBlur
         inkscape:collect="always"
         stdDeviation="0.50623594"
         id="feGaussianBlur5238" />
    </filter>
  </defs>
  <sodipodi:namedview
     id="base"
     pagecolor="#ffffff"
     bordercolor="#666666"
     borderopacity="1.0"
     inkscape:pageopacity="0.0"
     inkscape:pageshadow="2"
     inkscape:zoom="1.979899"
     inkscape:cx="-27.50254"
     inkscape:cy="84.366586"
     inkscape:document-units="mm"
     inkscape:current-layer="layer1"
     showgrid="false"
     inkscape:window-width="1360"
     inkscape:window-height="718"
     inkscape:window-x="0"
     inkscape:window-y="24"
     inkscape:window-maximized="1"
     units="px" />
  <metadata
     id="metadata7">
    <rdf:RDF>
      <cc:Work
         rdf:about="">
        <dc:format>image/svg+xml</dc:format>
        <dc:type
           rdf:resource="http://purl.org/dc/dcmitype/StillImage" />
        <dc:title />
      </cc:Work>
    </rdf:RDF>
  </metadata>
  <g
     inkscape:label="Layer 1"
     inkscape:groupmode="layer"
     id="layer1"
     transform="translate(0,-263.13334)">
    <g
       id="g5240"
       transform="matrix(0.18398681,0,0,0.17490051,-1.9586384,247.03102)">
      <path
         inkscape:connector-curvature="0"
         id="path4147-0"
         d="m 105.84986,112.01813 c -36.240256,0 -65.619461,7.34533 -65.619519,16.4054 l 0.116141,0.93974 c 1.41e-4,6.7e-4 -1.54e-4,0.001 0,0.002 1.954912,8.62131 30.529471,15.46146 65.503398,15.46137 34.9801,9e-5 63.55961,-6.84223 65.50554,-15.46569 l 0.11398,-0.93758 c -5e-5,-9.06007 -29.37926,-16.4054 -65.61952,-16.4054 z M 56.199232,258.51428 c 0.170487,0.7194 0.424484,1.42798 0.756941,2.12458 -0.33257,-0.69656 -0.586329,-1.40522 -0.756941,-2.12458 z m 0.756941,2.12675 c 0.499316,1.04577 1.17624,2.06291 2.017077,3.04709 -0.840354,-0.98368 -1.517856,-2.00191 -2.017077,-3.04709 z m 2.911645,4.01909 c 0.63256,0.64104 1.335388,1.26565 2.105242,1.87299 -0.769358,-0.60701 -1.47301,-1.23232 -2.105242,-1.87299 z m 92.101722,0.002 c -0.63175,0.63992 -1.33452,1.26449 -2.10309,1.87083 0.76939,-0.60701 1.47082,-1.2302 2.10309,-1.87083 z m -88.792255,2.76754 c 0.834421,0.58849 1.733457,1.16009 2.692304,1.70958 -0.95935,-0.54983 -1.857521,-1.12071 -2.692304,-1.70958 z m 4.176084,2.51812 c 1.527798,0.79343 3.185861,1.53855 4.960977,2.22999 -1.775062,-0.69148 -3.433233,-1.43656 -4.960977,-2.22999 z m 4.960977,2.22999 c 1.183406,0.46095 2.417975,0.89842 3.700836,1.3096 -1.282815,-0.41114 -2.517463,-0.84861 -3.700836,-1.3096 z m 72.171794,-2.22999 c -1.52785,0.79343 -3.18797,1.53851 -4.96313,2.22999 1.77511,-0.69144 3.43532,-1.43656 4.96313,-2.22999 z m -4.96313,2.22999 c -1.18344,0.46099 -2.41796,0.89838 -3.70084,1.3096 1.28286,-0.41114 2.51743,-0.84865 3.70084,-1.3096 z"
         style="color:#000000;display:inline;overflow:visible;visibility:visible;opacity:0.54199997;fill:url(#linearGradient4747);fill-opacity:1;fill-rule:nonzero;stroke:none;stroke-width:4.81500006;stroke-linecap:round;stroke-linejoin:miter;stroke-miterlimit:4;stroke-dasharray:none;stroke-dashoffset:0;stroke-opacity:1;marker:none;enable-background:accumulate" />
      <g
         transform="matrix(4.1612821,0,0,4.1612821,-147.4503,-986.80609)"
         id="g4771">
        <path
           style="color:#000000;display:inline;overflow:visible;visibility:visible;opacity:0.91500005;fill:url(#linearGradient4691);fill-opacity:1;fill-rule:nonzero;stroke:none;stroke-width:4.81500006;stroke-linecap:round;stroke-linejoin:miter;stroke-miterlimit:4;stroke-dasharray:none;stroke-dashoffset:0;stroke-opacity:1;marker:none;enable-background:accumulate"
           d="m 170.46289,646.30469 14.26953,116.16601 c -2e-5,10.74441 20.32229,19.45508 45.39258,19.45508 25.07029,0 45.39456,-8.71067 45.39453,-19.45508 l 14.14258,-116.16601 c -0.003,8.22845 -26.68581,14.89851 -59.59961,14.89843 -32.9138,8e-5 -59.59669,-6.66998 -59.59961,-14.89843 z m 119.19922,0 c 0,-0.3229 -0.0558,-0.64315 -0.13672,-0.96094 0.0869,0.31986 0.13251,0.64034 0.13672,0.96094 z"
           id="path4147-0-0"
           inkscape:connector-curvature="0"
           sodipodi:nodetypes="ccsccscccc"
           transform="matrix(0.26458333,0,0,0.26458333,0,97.000003)" />
        <path
           style="opacity:0.72899996;fill:#ffffff;fill-opacity:1;fill-rule:evenodd;stroke:none;stroke-width:0.26458332px;stroke-linecap:butt;stroke-linejoin:miter;stroke-opacity:1;filter:url(#filter4481)"
           d="m 46.504896,302.14494 c 7.684,-6.01356 8.753078,-2.80633 14.766642,-2.20497 6.013564,0.60135 15.902538,-4.27632 15.902538,-4.27632 l -1.00226,13.63075 c 0,0 -28.531024,2.07134 -29.66692,-7.14946 z"
           id="path4212"
           inkscape:connector-curvature="0"
           clip-path="url(#clipPath4229)" />
        <path
           style="opacity:0.48300003;fill:#a4a4a4;fill-opacity:1;fill-rule:evenodd;stroke:none;stroke-width:0.26458332px;stroke-linecap:butt;stroke-linejoin:miter;stroke-opacity:1;filter:url(#filter4673)"
           d="m 60.737,305.41899 c 6.748555,-6.34765 8.15172,-7.48355 10.757599,-1.67043 2.605876,5.81311 -10.757599,1.67043 -10.757599,1.67043 z"
           id="path4485"
           inkscape:connector-curvature="0"
           clip-path="url(#clipPath4493)" />
      </g>
      <path
         transform="matrix(4.1612821,0,0,4.1612821,-133.29451,-909.34247)"
         sodipodi:nodetypes="csc"
         clip-path="url(#clipPath5052)"
         inkscape:connector-curvature="0"
         id="path4776"
         d="m 44.938064,285.23274 c 3.496279,-11.62277 -4.515492,-41.01985 -4.15889,-37.78039 z"
         style="opacity:0.06400003;fill:#9d9da9;fill-opacity:1;fill-rule:evenodd;stroke:none;stroke-width:0.26458332px;stroke-linecap:butt;stroke-linejoin:miter;stroke-opacity:1;filter:url(#filter5236)" />
    </g>
  </g>
</svg>
