<?xml version="1.0" encoding="UTF-8" standalone="no"?>
<!-- Created with Inkscape (http://www.inkscape.org/) -->

<svg
   xmlns:osb="http://www.openswatchbook.org/uri/2009/osb"
   xmlns:dc="http://purl.org/dc/elements/1.1/"
   xmlns:cc="http://creativecommons.org/ns#"
   xmlns:rdf="http://www.w3.org/1999/02/22-rdf-syntax-ns#"
   xmlns:svg="http://www.w3.org/2000/svg"
   xmlns="http://www.w3.org/2000/svg"
   xmlns:xlink="http://www.w3.org/1999/xlink"
   xmlns:sodipodi="http://sodipodi.sourceforge.net/DTD/sodipodi-0.dtd"
   xmlns:inkscape="http://www.inkscape.org/namespaces/inkscape"
   width="128"
   height="128"
   viewBox="0 0 33.866665 33.866667"
   version="1.1"
   id="svg8"
   inkscape:version="0.92.2 5c3e80d, 2017-08-06"
   sodipodi:docname="user-trash-full.svg">
  <defs
     id="defs2">
    <linearGradient
       osb:paint="solid"
       id="linearGradient6088">
      <stop
         id="stop6086"
         offset="0"
         style="stop-color:#51b3e3;stop-opacity:1;" />
    </linearGradient>
    <linearGradient
       osb:paint="solid"
       id="linearGradient6987">
      <stop
         id="stop6985"
         offset="0"
         style="stop-color:#77d2fb;stop-opacity:1;" />
    </linearGradient>
    <linearGradient
       id="linearGradient7223"
       inkscape:collect="always">
      <stop
         id="stop7225"
         offset="0"
         style="stop-color:#ffffff;stop-opacity:1;" />
      <stop
         id="stop7227"
         offset="1"
         style="stop-color:#ffffff;stop-opacity:0;" />
    </linearGradient>
    <clipPath
       id="clipPath7804"
       clipPathUnits="userSpaceOnUse">
      <g
         transform="matrix(0.99729721,0,0,0.99729721,-66.642768,-64.164273)"
         id="g7806">
        <path
           style="color:#000000;display:inline;overflow:visible;visibility:visible;opacity:0.91500005;fill:url(#linearGradient7814);fill-opacity:1;fill-rule:nonzero;stroke:none;stroke-width:4.81500006;stroke-linecap:round;stroke-linejoin:miter;stroke-miterlimit:4;stroke-dasharray:none;stroke-dashoffset:0;stroke-opacity:1;marker:none;enable-background:accumulate"
           d="m 170.46289,646.30469 14.26953,116.16601 c -2e-5,10.74441 20.32229,19.45508 45.39258,19.45508 25.07029,0 45.39456,-8.71067 45.39453,-19.45508 l 14.14258,-116.16601 c -0.003,8.22845 -26.68581,14.89851 -59.59961,14.89843 -32.9138,8e-5 -59.59669,-6.66998 -59.59961,-14.89843 z m 119.19922,0 c 0,-0.3229 -0.0558,-0.64315 -0.13672,-0.96094 0.0869,0.31986 0.13251,0.64034 0.13672,0.96094 z"
           id="path7808"
           inkscape:connector-curvature="0"
           sodipodi:nodetypes="ccsccscccc"
           transform="matrix(0.26458333,0,0,0.26458333,0,97.000003)" />
        <path
           style="opacity:0.72899996;fill:#ffffff;fill-opacity:1;fill-rule:evenodd;stroke:none;stroke-width:0.26458332px;stroke-linecap:butt;stroke-linejoin:miter;stroke-opacity:1;filter:url(#filter4481-1)"
           d="m 46.504896,302.14494 c 7.684,-6.01356 8.753078,-2.80633 14.766642,-2.20497 6.013564,0.60135 15.902538,-4.27632 15.902538,-4.27632 l -1.00226,13.63075 c 0,0 -28.531024,2.07134 -29.66692,-7.14946 z"
           id="path7810"
           inkscape:connector-curvature="0"
           clip-path="url(#clipPath4229-1)" />
        <path
           style="opacity:0.48300003;fill:#a4a4a4;fill-opacity:1;fill-rule:evenodd;stroke:none;stroke-width:0.26458332px;stroke-linecap:butt;stroke-linejoin:miter;stroke-opacity:1;filter:url(#filter4673-1)"
           d="m 60.737,305.41899 c 6.748555,-6.34765 8.15172,-7.48355 10.757599,-1.67043 2.605876,5.81311 -10.757599,1.67043 -10.757599,1.67043 z"
           id="path7812"
           inkscape:connector-curvature="0"
           clip-path="url(#clipPath4493-7)" />
      </g>
    </clipPath>
    <filter
       height="1.2117935"
       y="-0.10589673"
       width="1.1601709"
       x="-0.080085449"
       id="filter6995-3-2"
       style="color-interpolation-filters:sRGB"
       inkscape:collect="always">
      <feGaussianBlur
         id="feGaussianBlur6997-4-6"
         stdDeviation="0.20389857"
         inkscape:collect="always" />
    </filter>
    <filter
       height="1.2117935"
       y="-0.10589673"
       width="1.1601709"
       x="-0.080085449"
       id="filter6995"
       style="color-interpolation-filters:sRGB"
       inkscape:collect="always">
      <feGaussianBlur
         id="feGaussianBlur6997"
         stdDeviation="0.20389857"
         inkscape:collect="always" />
    </filter>
    <filter
       height="1.572499"
       y="-0.28624949"
       width="1.7528404"
       x="-0.3764202"
       id="filter7165"
       style="color-interpolation-filters:sRGB"
       inkscape:collect="always">
      <feGaussianBlur
         id="feGaussianBlur7167"
         stdDeviation="0.46610163"
         inkscape:collect="always" />
    </filter>
    <filter
       height="1.572499"
       y="-0.28624949"
       width="1.7528404"
       x="-0.3764202"
       id="filter7165-1"
       style="color-interpolation-filters:sRGB"
       inkscape:collect="always">
      <feGaussianBlur
         id="feGaussianBlur7167-1"
         stdDeviation="0.46610163"
         inkscape:collect="always" />
    </filter>
    <filter
       height="1.2117935"
       y="-0.10589673"
       width="1.1601709"
       x="-0.080085449"
       id="filter6995-3"
       style="color-interpolation-filters:sRGB"
       inkscape:collect="always">
      <feGaussianBlur
         id="feGaussianBlur6997-4"
         stdDeviation="0.20389857"
         inkscape:collect="always" />
    </filter>
    <linearGradient
       gradientUnits="userSpaceOnUse"
       y2="211.60101"
       x2="-3.3545387"
       y1="217.79036"
       x1="-0.68508178"
       id="linearGradient7219"
       xlink:href="#linearGradient7223"
       inkscape:collect="always" />
    <radialGradient
       gradientUnits="userSpaceOnUse"
       gradientTransform="matrix(1.5723113,1.7816095,-0.76333197,0.67365801,158.91141,65.624386)"
       r="1.194903"
       fy="209.30608"
       fx="1.4013796"
       cy="209.30608"
       cx="1.4013796"
       id="radialGradient7231"
       xlink:href="#linearGradient7223"
       inkscape:collect="always" />
    <filter
       height="1.1404798"
       y="-0.070239894"
       width="1.1084433"
       x="-0.05422166"
       id="filter7265"
       style="color-interpolation-filters:sRGB"
       inkscape:collect="always">
      <feGaussianBlur
         id="feGaussianBlur7267"
         stdDeviation="0.053991352"
         inkscape:collect="always" />
    </filter>
    <filter
       height="1.572499"
       y="-0.28624949"
       width="1.7528404"
       x="-0.3764202"
       id="filter7165-1-9"
       style="color-interpolation-filters:sRGB"
       inkscape:collect="always">
      <feGaussianBlur
         id="feGaussianBlur7167-1-2"
         stdDeviation="0.46610163"
         inkscape:collect="always" />
    </filter>
    <filter
       height="1.2117935"
       y="-0.10589673"
       width="1.1601709"
       x="-0.080085449"
       id="filter6995-4"
       style="color-interpolation-filters:sRGB"
       inkscape:collect="always">
      <feGaussianBlur
         id="feGaussianBlur6997-7"
         stdDeviation="0.20389857"
         inkscape:collect="always" />
    </filter>
    <filter
       height="1.572499"
       y="-0.28624949"
       width="1.7528404"
       x="-0.3764202"
       id="filter7165-1-9-5"
       style="color-interpolation-filters:sRGB"
       inkscape:collect="always">
      <feGaussianBlur
         id="feGaussianBlur7167-1-2-2"
         stdDeviation="0.46610163"
         inkscape:collect="always" />
    </filter>
    <filter
       height="1.2117935"
       y="-0.10589673"
       width="1.1601709"
       x="-0.080085449"
       id="filter6995-4-8"
       style="color-interpolation-filters:sRGB"
       inkscape:collect="always">
      <feGaussianBlur
         id="feGaussianBlur6997-7-7"
         stdDeviation="0.20389857"
         inkscape:collect="always" />
    </filter>
    <filter
       height="2.5679429"
       y="-0.78397143"
       width="1.4863138"
       x="-0.2431569"
       id="filter7479"
       style="color-interpolation-filters:sRGB"
       inkscape:collect="always">
      <feGaussianBlur
         id="feGaussianBlur7481"
         stdDeviation="0.89514091"
         inkscape:collect="always" />
    </filter>
    <filter
       height="2.5679429"
       y="-0.78397143"
       width="1.4863138"
       x="-0.2431569"
       id="filter7479-7"
       style="color-interpolation-filters:sRGB"
       inkscape:collect="always">
      <feGaussianBlur
         id="feGaussianBlur7481-7"
         stdDeviation="0.89514091"
         inkscape:collect="always" />
    </filter>
    <filter
       height="2.5679429"
       y="-0.78397143"
       width="1.4863138"
       x="-0.2431569"
       id="filter7479-6"
       style="color-interpolation-filters:sRGB"
       inkscape:collect="always">
      <feGaussianBlur
         id="feGaussianBlur7481-1"
         stdDeviation="0.89514091"
         inkscape:collect="always" />
    </filter>
    <filter
       height="2.5679429"
       y="-0.78397143"
       width="1.4863138"
       x="-0.2431569"
       id="filter7479-9"
       style="color-interpolation-filters:sRGB"
       inkscape:collect="always">
      <feGaussianBlur
         id="feGaussianBlur7481-4"
         stdDeviation="0.89514091"
         inkscape:collect="always" />
    </filter>
    <filter
       height="1.4873419"
       y="-0.24367096"
       width="1.3200988"
       x="-0.16004938"
       id="filter7616"
       style="color-interpolation-filters:sRGB"
       inkscape:collect="always">
      <feGaussianBlur
         id="feGaussianBlur7618"
         stdDeviation="0.5727377"
         inkscape:collect="always" />
    </filter>
    <filter
       height="2.5679429"
       y="-0.78397143"
       width="1.4863138"
       x="-0.2431569"
       id="filter7479-6-2"
       style="color-interpolation-filters:sRGB"
       inkscape:collect="always">
      <feGaussianBlur
         id="feGaussianBlur7481-1-4"
         stdDeviation="0.89514091"
         inkscape:collect="always" />
    </filter>
    <filter
       height="2.5679429"
       y="-0.78397143"
       width="1.4863138"
       x="-0.2431569"
       id="filter7479-6-2-8"
       style="color-interpolation-filters:sRGB"
       inkscape:collect="always">
      <feGaussianBlur
         id="feGaussianBlur7481-1-4-7"
         stdDeviation="0.89514091"
         inkscape:collect="always" />
    </filter>
    <clipPath
       id="clipPath6726"
       clipPathUnits="userSpaceOnUse">
      <path
         sodipodi:nodetypes="ccccscccc"
         inkscape:connector-curvature="0"
         id="path6728"
         d="m -5.693118,195.49384 c -8.685378,0 -15.726428,6.10712 -15.726442,8.27847 l 0.02783,0.22522 c 3.4e-5,1.6e-4 -3.7e-5,2.4e-4 0,4.8e-4 0.468516,2.06619 7.316725,3.7055 15.698613,3.70548 8.383367,2e-5 15.232762,-1.63981 15.699124,-3.70652 l 0.02732,-0.2247 c -1.1e-5,-2.17135 -7.041064,-7.75875 -15.726442,-7.75875 z"
         style="color:#000000;display:inline;overflow:visible;visibility:visible;opacity:0.54199997;fill:url(#linearGradient6730);fill-opacity:1;fill-rule:nonzero;stroke:none;stroke-width:4.81500006;stroke-linecap:round;stroke-linejoin:miter;stroke-miterlimit:4;stroke-dasharray:none;stroke-dashoffset:0;stroke-opacity:1;marker:none;enable-background:accumulate" />
    </clipPath>
    <linearGradient
       gradientUnits="userSpaceOnUse"
       y2="207.1778"
       x2="-5.0417333"
       y1="207.1778"
       x1="-8.6402893"
       id="linearGradient6468"
       xlink:href="#linearGradient6462"
       inkscape:collect="always" />
    <linearGradient
       id="linearGradient6462"
       inkscape:collect="always">
      <stop
         id="stop6464"
         offset="0"
         style="stop-color:#99662e;stop-opacity:1" />
      <stop
         id="stop6466"
         offset="1"
         style="stop-color:#b67937;stop-opacity:1" />
    </linearGradient>
    <clipPath
       id="clipPath6416"
       clipPathUnits="userSpaceOnUse">
      <path
         sodipodi:nodetypes="csc"
         inkscape:connector-curvature="0"
         id="path6418"
         d="m -16.961681,206.64007 c -1.169364,-0.69689 -2.657645,-1.98437 -2.657645,-3.93331 0,-1.16936 0.755952,-1.71271 0.755952,-1.71271 -0.05906,0.61421 -0.708705,1.79539 0.12993,2.48047 0.200799,0.3071 0.437034,0.33073 1.110305,0.3071 0.67327,-0.0236 0.531529,0.17718 0.531529,0.17718 0,0 0.165364,-0.74414 0.330729,-0.93313 0.165364,-0.18899 0.862258,-1.70089 0.862258,-1.70089 0,0 3.319103,-1.68908 3.555338,-1.79539 0.236235,-0.1063 1.192988,-0.24805 1.192988,-0.24805 0,0 3.3899731,1.19299 3.5553381,1.35836 0.165365,0.16536 0.377976,1.26385 0.377976,1.26385 l -0.425223,1.64184 -3.0828681,1.15755 1.5709631,3.37816 -3.3545381,0.22443 c 0,0 -3.661644,-0.29529 -4.453032,-1.66546 z"
         style="fill:#b0afad;fill-opacity:1;fill-rule:evenodd;stroke:none;stroke-width:0.26458332px;stroke-linecap:butt;stroke-linejoin:miter;stroke-opacity:1" />
    </clipPath>
    <clipPath
       id="clipPath6392"
       clipPathUnits="userSpaceOnUse">
      <path
         sodipodi:nodetypes="csc"
         inkscape:connector-curvature="0"
         id="path6394"
         d="m -16.961681,206.64007 c -1.169364,-0.69689 -2.657645,-1.98437 -2.657645,-3.93331 0,-1.16936 0.755952,-1.71271 0.755952,-1.71271 -0.05906,0.61421 -0.708705,1.79539 0.12993,2.48047 0.200799,0.3071 0.437034,0.33073 1.110305,0.3071 0.67327,-0.0236 0.531529,0.17718 0.531529,0.17718 0,0 0.165364,-0.74414 0.330729,-0.93313 0.165364,-0.18899 0.862258,-1.70089 0.862258,-1.70089 0,0 3.319103,-1.68908 3.555338,-1.79539 0.236235,-0.1063 1.192988,-0.24805 1.192988,-0.24805 0,0 3.3899731,1.19299 3.5553381,1.35836 0.165365,0.16536 0.377976,1.26385 0.377976,1.26385 l -0.425223,1.64184 -3.0828681,1.15755 1.5709631,3.37816 -3.3545381,0.22443 c 0,0 -3.661644,-0.29529 -4.453032,-1.66546 z"
         style="fill:#b0afad;fill-opacity:1;fill-rule:evenodd;stroke:none;stroke-width:0.26458332px;stroke-linecap:butt;stroke-linejoin:miter;stroke-opacity:1" />
    </clipPath>
    <clipPath
       id="clipPath6404"
       clipPathUnits="userSpaceOnUse">
      <path
         sodipodi:nodetypes="csc"
         inkscape:connector-curvature="0"
         id="path6406"
         d="m -16.961681,206.64007 c -1.169364,-0.69689 -2.657645,-1.98437 -2.657645,-3.93331 0,-1.16936 0.755952,-1.71271 0.755952,-1.71271 -0.05906,0.61421 -0.708705,1.79539 0.12993,2.48047 0.200799,0.3071 0.437034,0.33073 1.110305,0.3071 0.67327,-0.0236 0.531529,0.17718 0.531529,0.17718 0,0 0.165364,-0.74414 0.330729,-0.93313 0.165364,-0.18899 0.862258,-1.70089 0.862258,-1.70089 0,0 3.319103,-1.68908 3.555338,-1.79539 0.236235,-0.1063 1.192988,-0.24805 1.192988,-0.24805 0,0 3.3899731,1.19299 3.5553381,1.35836 0.165365,0.16536 0.377976,1.26385 0.377976,1.26385 l -0.425223,1.64184 -3.0828681,1.15755 1.5709631,3.37816 -3.3545381,0.22443 c 0,0 -3.661644,-0.29529 -4.453032,-1.66546 z"
         style="fill:#b0afad;fill-opacity:1;fill-rule:evenodd;stroke:none;stroke-width:0.26458332px;stroke-linecap:butt;stroke-linejoin:miter;stroke-opacity:1" />
    </clipPath>
    <linearGradient
       gradientUnits="userSpaceOnUse"
       y2="205.25885"
       x2="-4.1512551"
       y1="202.90831"
       x1="-7.6835475"
       id="linearGradient6205"
       xlink:href="#linearGradient6199"
       inkscape:collect="always" />
    <linearGradient
       id="linearGradient6199"
       inkscape:collect="always">
      <stop
         id="stop6201"
         offset="0"
         style="stop-color:#77d743;stop-opacity:1;" />
      <stop
         id="stop6203"
         offset="1"
         style="stop-color:#254a12;stop-opacity:1" />
    </linearGradient>
    <linearGradient
       gradientUnits="userSpaceOnUse"
       y2="204.85217"
       x2="-9.9159689"
       y1="203.74185"
       x1="-9.8639336"
       id="linearGradient6213"
       xlink:href="#linearGradient6207"
       inkscape:collect="always" />
    <linearGradient
       id="linearGradient6207"
       inkscape:collect="always">
      <stop
         id="stop6209"
         offset="0"
         style="stop-color:#3cd0f2;stop-opacity:1;" />
      <stop
         id="stop6211"
         offset="1"
         style="stop-color:#0eacd0;stop-opacity:1" />
    </linearGradient>
    <linearGradient
       gradientUnits="userSpaceOnUse"
       y2="205.4622"
       x2="-5.0417333"
       y1="205.4622"
       x1="-7.61866"
       id="linearGradient6430"
       xlink:href="#linearGradient6424"
       inkscape:collect="always" />
    <linearGradient
       id="linearGradient6424"
       inkscape:collect="always">
      <stop
         id="stop6426"
         offset="0"
         style="stop-color:#872c1f;stop-opacity:1" />
      <stop
         id="stop6428"
         offset="1"
         style="stop-color:#bf3f2d;stop-opacity:1" />
    </linearGradient>
    <linearGradient
       gradientUnits="userSpaceOnUse"
       y2="205.53484"
       x2="-2.2383943"
       y1="206.88138"
       x1="-3.5789621"
       id="linearGradient6492"
       xlink:href="#linearGradient6486"
       inkscape:collect="always" />
    <linearGradient
       id="linearGradient6486"
       inkscape:collect="always">
      <stop
         id="stop6488"
         offset="0"
         style="stop-color:#3c4533;stop-opacity:1;" />
      <stop
         style="stop-color:#3c4533;stop-opacity:1;"
         offset="0.32423252"
         id="stop6496" />
      <stop
         style="stop-color:#414a37;stop-opacity:1"
         offset="0.57560378"
         id="stop6494" />
      <stop
         id="stop6498"
         offset="0.80511671"
         style="stop-color:#3c4533;stop-opacity:1;" />
      <stop
         id="stop6490"
         offset="1"
         style="stop-color:#3c4533;stop-opacity:1" />
    </linearGradient>
    <clipPath
       id="clipPath5626"
       clipPathUnits="userSpaceOnUse">
      <path
         sodipodi:nodetypes="csssssscccccsssssccscsccscsc"
         inkscape:connector-curvature="0"
         id="path5628"
         d="m -14.611142,203.48633 c 4.299479,1.6064 4.37035,4.31129 5.3034784,4.31129 0.9331288,0 0.8386347,0.4961 1.3229166,-0.16536 0.4842823,-0.66146 1.6063989,-1.83082 1.7245166,-2.89388 0.1181174,-1.06306 1.0276226,-0.57878 1.0158108,-0.14174 -0.011811,0.43703 -0.3071056,3.35454 -0.2007997,3.57896 0.1063059,0.22442 0.2598589,0.34254 0.354353,-0.43704 0.094494,-0.77957 0.1181174,-1.98437 0.3189171,-2.13792 0.2007993,-0.15356 1.4292223,-0.8977 1.6654573,-1.74814 0,0 0.03543,-0.42523 -0.685082,-0.67328 -0.720517,-0.24804 1.712705,-2.29148 1.712705,-2.29148 0,0 3.484468,1.6064 4.37035,2.52772 0,0 -0.337072,1.22622 0.08054,1.22622 0.417608,0 0.601356,1.08578 -0.317383,0.86862 -0.918739,-0.21716 -1.620321,-0.61806 -2.188269,0.0167 -0.567948,0.63476 -0.818513,1.23612 -1.119191,1.35305 -0.300678,0.11693 -0.701583,0.31738 -0.684878,-0.53454 0.0167,-0.85192 -0.116931,0.70158 -0.367496,0.66817 -0.250565,-0.0334 -0.150339,0.40091 -1.687139,0.45102 0,0 0.902035,0.3508 0.968853,0.88534 0.06682,0.53454 0.11693,0.55124 0.11693,0.55124 0,0 1.921,0.16705 2.004521,-0.3842 0.08352,-0.55124 0.551244,-1.30294 0.751696,-1.5535 0.200452,-0.25057 1.102487,-1.28624 1.954409,-1.1693 0,0 -1.553505,0.98555 -2.171565,2.35531 -0.618061,1.36975 4.393242,1.00226 4.393242,1.00226 0,0 2.672696,-0.70158 2.973374,-1.65373 0.300678,-0.95215 0.367495,-4.62711 -0.217157,-5.22846 -0.89971,-0.75589 -2.080885,-1.4646 -3.521919,-0.54328 -1.441034,0.92131 -0.259859,1.37016 -2.22061,-0.35435 -1.960752,-1.72452 -3.756139,-2.5041 -3.756139,-2.5041 0,0 -2.2914804,3.09468 -2.3387273,2.76395 -0.047247,-0.33073 -0.5669642,-2.05524 -0.8268229,-0.77957 0,0 -0.7559524,-0.28348 -0.6850819,0.37797 0.070871,0.66146 -1.015811,-0.7087 -1.015811,-0.7087 0,0 0.094494,1.88988 -0.3779761,2.12611 0,0 1.9843749,-0.51971 1.2520461,0.54335 -0.732329,1.06305 -1.5591519,1.13392 -2.8348214,1.20479 -1.2756736,0.0709 -2.1024966,-0.66145 -2.7403316,-0.85044 -0.637835,-0.18899 -1.157552,-0.75595 -2.326916,-0.0591 z"
         style="fill:#dedede;fill-opacity:1;fill-rule:evenodd;stroke:none;stroke-width:0.26458332px;stroke-linecap:butt;stroke-linejoin:miter;stroke-opacity:1" />
    </clipPath>
    <filter
       height="1.2429479"
       y="-0.12147393"
       width="1.3464173"
       x="-0.17320865"
       id="filter5447"
       style="color-interpolation-filters:sRGB"
       inkscape:collect="always">
      <feGaussianBlur
         id="feGaussianBlur5449"
         stdDeviation="0.18354709"
         inkscape:collect="always" />
    </filter>
    <clipPath
       id="clipPath5636"
       clipPathUnits="userSpaceOnUse">
      <path
         sodipodi:nodetypes="csssssscccccsssssccscsccscsc"
         inkscape:connector-curvature="0"
         id="path5638"
         d="m -14.611142,203.48633 c 4.299479,1.6064 4.37035,4.31129 5.3034784,4.31129 0.9331288,0 0.8386347,0.4961 1.3229166,-0.16536 0.4842823,-0.66146 1.6063989,-1.83082 1.7245166,-2.89388 0.1181174,-1.06306 1.0276226,-0.57878 1.0158108,-0.14174 -0.011811,0.43703 -0.3071056,3.35454 -0.2007997,3.57896 0.1063059,0.22442 0.2598589,0.34254 0.354353,-0.43704 0.094494,-0.77957 0.1181174,-1.98437 0.3189171,-2.13792 0.2007993,-0.15356 1.4292223,-0.8977 1.6654573,-1.74814 0,0 0.03543,-0.42523 -0.685082,-0.67328 -0.720517,-0.24804 1.712705,-2.29148 1.712705,-2.29148 0,0 3.484468,1.6064 4.37035,2.52772 0,0 -0.337072,1.22622 0.08054,1.22622 0.417608,0 0.601356,1.08578 -0.317383,0.86862 -0.918739,-0.21716 -1.620321,-0.61806 -2.188269,0.0167 -0.567948,0.63476 -0.818513,1.23612 -1.119191,1.35305 -0.300678,0.11693 -0.701583,0.31738 -0.684878,-0.53454 0.0167,-0.85192 -0.116931,0.70158 -0.367496,0.66817 -0.250565,-0.0334 -0.150339,0.40091 -1.687139,0.45102 0,0 0.902035,0.3508 0.968853,0.88534 0.06682,0.53454 0.11693,0.55124 0.11693,0.55124 0,0 1.921,0.16705 2.004521,-0.3842 0.08352,-0.55124 0.551244,-1.30294 0.751696,-1.5535 0.200452,-0.25057 1.102487,-1.28624 1.954409,-1.1693 0,0 -1.553505,0.98555 -2.171565,2.35531 -0.618061,1.36975 4.393242,1.00226 4.393242,1.00226 0,0 2.672696,-0.70158 2.973374,-1.65373 0.300678,-0.95215 0.367495,-4.62711 -0.217157,-5.22846 -0.89971,-0.75589 -2.080885,-1.4646 -3.521919,-0.54328 -1.441034,0.92131 -0.259859,1.37016 -2.22061,-0.35435 -1.960752,-1.72452 -3.756139,-2.5041 -3.756139,-2.5041 0,0 -2.2914804,3.09468 -2.3387273,2.76395 -0.047247,-0.33073 -0.5669642,-2.05524 -0.8268229,-0.77957 0,0 -0.7559524,-0.28348 -0.6850819,0.37797 0.070871,0.66146 -1.015811,-0.7087 -1.015811,-0.7087 0,0 0.094494,1.88988 -0.3779761,2.12611 0,0 1.9843749,-0.51971 1.2520461,0.54335 -0.732329,1.06305 -1.5591519,1.13392 -2.8348214,1.20479 -1.2756736,0.0709 -2.1024966,-0.66145 -2.7403316,-0.85044 -0.637835,-0.18899 -1.157552,-0.75595 -2.326916,-0.0591 z"
         style="fill:#dedede;fill-opacity:1;fill-rule:evenodd;stroke:none;stroke-width:0.26458332px;stroke-linecap:butt;stroke-linejoin:miter;stroke-opacity:1" />
    </clipPath>
    <filter
       height="1.0656796"
       y="-0.032839753"
       width="1.1077081"
       x="-0.053854045"
       id="filter5529"
       style="color-interpolation-filters:sRGB"
       inkscape:collect="always">
      <feGaussianBlur
         id="feGaussianBlur5531"
         stdDeviation="0.097488778"
         inkscape:collect="always" />
    </filter>
    <clipPath
       id="clipPath5646"
       clipPathUnits="userSpaceOnUse">
      <path
         sodipodi:nodetypes="csssssscccccsssssccscsccscsc"
         inkscape:connector-curvature="0"
         id="path5648"
         d="m -14.611142,203.48633 c 4.299479,1.6064 4.37035,4.31129 5.3034784,4.31129 0.9331288,0 0.8386347,0.4961 1.3229166,-0.16536 0.4842823,-0.66146 1.6063989,-1.83082 1.7245166,-2.89388 0.1181174,-1.06306 1.0276226,-0.57878 1.0158108,-0.14174 -0.011811,0.43703 -0.3071056,3.35454 -0.2007997,3.57896 0.1063059,0.22442 0.2598589,0.34254 0.354353,-0.43704 0.094494,-0.77957 0.1181174,-1.98437 0.3189171,-2.13792 0.2007993,-0.15356 1.4292223,-0.8977 1.6654573,-1.74814 0,0 0.03543,-0.42523 -0.685082,-0.67328 -0.720517,-0.24804 1.712705,-2.29148 1.712705,-2.29148 0,0 3.484468,1.6064 4.37035,2.52772 0,0 -0.337072,1.22622 0.08054,1.22622 0.417608,0 0.601356,1.08578 -0.317383,0.86862 -0.918739,-0.21716 -1.620321,-0.61806 -2.188269,0.0167 -0.567948,0.63476 -0.818513,1.23612 -1.119191,1.35305 -0.300678,0.11693 -0.701583,0.31738 -0.684878,-0.53454 0.0167,-0.85192 -0.116931,0.70158 -0.367496,0.66817 -0.250565,-0.0334 -0.150339,0.40091 -1.687139,0.45102 0,0 0.902035,0.3508 0.968853,0.88534 0.06682,0.53454 0.11693,0.55124 0.11693,0.55124 0,0 1.921,0.16705 2.004521,-0.3842 0.08352,-0.55124 0.551244,-1.30294 0.751696,-1.5535 0.200452,-0.25057 1.102487,-1.28624 1.954409,-1.1693 0,0 -1.553505,0.98555 -2.171565,2.35531 -0.618061,1.36975 4.393242,1.00226 4.393242,1.00226 0,0 2.672696,-0.70158 2.973374,-1.65373 0.300678,-0.95215 0.367495,-4.62711 -0.217157,-5.22846 -0.89971,-0.75589 -2.080885,-1.4646 -3.521919,-0.54328 -1.441034,0.92131 -0.259859,1.37016 -2.22061,-0.35435 -1.960752,-1.72452 -3.756139,-2.5041 -3.756139,-2.5041 0,0 -2.2914804,3.09468 -2.3387273,2.76395 -0.047247,-0.33073 -0.5669642,-2.05524 -0.8268229,-0.77957 0,0 -0.7559524,-0.28348 -0.6850819,0.37797 0.070871,0.66146 -1.015811,-0.7087 -1.015811,-0.7087 0,0 0.094494,1.88988 -0.3779761,2.12611 0,0 1.9843749,-0.51971 1.2520461,0.54335 -0.732329,1.06305 -1.5591519,1.13392 -2.8348214,1.20479 -1.2756736,0.0709 -2.1024966,-0.66145 -2.7403316,-0.85044 -0.637835,-0.18899 -1.157552,-0.75595 -2.326916,-0.0591 z"
         style="fill:#dedede;fill-opacity:1;fill-rule:evenodd;stroke:none;stroke-width:0.26458332px;stroke-linecap:butt;stroke-linejoin:miter;stroke-opacity:1" />
    </clipPath>
    <filter
       height="1.3505949"
       y="-0.17529747"
       width="1.4303502"
       x="-0.21517509"
       id="filter5607"
       style="color-interpolation-filters:sRGB"
       inkscape:collect="always">
      <feGaussianBlur
         id="feGaussianBlur5609"
         stdDeviation="0.13798654"
         inkscape:collect="always" />
    </filter>
    <clipPath
       id="clipPath5722"
       clipPathUnits="userSpaceOnUse">
      <path
         sodipodi:nodetypes="csssssscccccsssssccscsccscsc"
         inkscape:connector-curvature="0"
         id="path5724"
         d="m -14.611142,203.48633 c 4.299479,1.6064 4.37035,4.31129 5.3034784,4.31129 0.9331288,0 0.8386347,0.4961 1.3229166,-0.16536 0.4842823,-0.66146 1.6063989,-1.83082 1.7245166,-2.89388 0.1181174,-1.06306 1.0276226,-0.57878 1.0158108,-0.14174 -0.011811,0.43703 -0.3071056,3.35454 -0.2007997,3.57896 0.1063059,0.22442 0.2598589,0.34254 0.354353,-0.43704 0.094494,-0.77957 0.1181174,-1.98437 0.3189171,-2.13792 0.2007993,-0.15356 1.4292223,-0.8977 1.6654573,-1.74814 0,0 0.03543,-0.42523 -0.685082,-0.67328 -0.720517,-0.24804 1.712705,-2.29148 1.712705,-2.29148 0,0 3.484468,1.6064 4.37035,2.52772 0,0 -0.337072,1.22622 0.08054,1.22622 0.417608,0 0.601356,1.08578 -0.317383,0.86862 -0.918739,-0.21716 -1.620321,-0.61806 -2.188269,0.0167 -0.567948,0.63476 -0.818513,1.23612 -1.119191,1.35305 -0.300678,0.11693 -0.701583,0.31738 -0.684878,-0.53454 0.0167,-0.85192 -0.116931,0.70158 -0.367496,0.66817 -0.250565,-0.0334 -0.150339,0.40091 -1.687139,0.45102 0,0 0.902035,0.3508 0.968853,0.88534 0.06682,0.53454 0.11693,0.55124 0.11693,0.55124 0,0 1.921,0.16705 2.004521,-0.3842 0.08352,-0.55124 0.551244,-1.30294 0.751696,-1.5535 0.200452,-0.25057 1.102487,-1.28624 1.954409,-1.1693 0,0 -1.553505,0.98555 -2.171565,2.35531 -0.618061,1.36975 4.393242,1.00226 4.393242,1.00226 0,0 2.672696,-0.70158 2.973374,-1.65373 0.300678,-0.95215 0.367495,-4.62711 -0.217157,-5.22846 -0.89971,-0.75589 -2.080885,-1.4646 -3.521919,-0.54328 -1.441034,0.92131 -0.259859,1.37016 -2.22061,-0.35435 -1.960752,-1.72452 -3.756139,-2.5041 -3.756139,-2.5041 0,0 -2.2914804,3.09468 -2.3387273,2.76395 -0.047247,-0.33073 -0.5669642,-2.05524 -0.8268229,-0.77957 0,0 -0.7559524,-0.28348 -0.6850819,0.37797 0.070871,0.66146 -1.015811,-0.7087 -1.015811,-0.7087 0,0 0.094494,1.88988 -0.3779761,2.12611 0,0 1.9843749,-0.51971 1.2520461,0.54335 -0.732329,1.06305 -1.5591519,1.13392 -2.8348214,1.20479 -1.2756736,0.0709 -2.1024966,-0.66145 -2.7403316,-0.85044 -0.637835,-0.18899 -1.157552,-0.75595 -2.326916,-0.0591 z"
         style="fill:#dedede;fill-opacity:1;fill-rule:evenodd;stroke:none;stroke-width:0.26458332px;stroke-linecap:butt;stroke-linejoin:miter;stroke-opacity:1" />
    </clipPath>
    <filter
       height="1.1645405"
       y="-0.082270272"
       width="1.0858151"
       x="-0.042907529"
       id="filter5712"
       style="color-interpolation-filters:sRGB"
       inkscape:collect="always">
      <feGaussianBlur
         id="feGaussianBlur5714"
         stdDeviation="0.17003381"
         inkscape:collect="always" />
    </filter>
    <clipPath
       id="clipPath5958"
       clipPathUnits="userSpaceOnUse">
      <path
         sodipodi:nodetypes="csssssscccccsssssccscsccscsc"
         inkscape:connector-curvature="0"
         id="path5960"
         d="m -14.611142,203.48633 c 4.299479,1.6064 4.37035,4.31129 5.3034784,4.31129 0.9331288,0 0.8386347,0.4961 1.3229166,-0.16536 0.4842823,-0.66146 1.6063989,-1.83082 1.7245166,-2.89388 0.1181174,-1.06306 1.0276226,-0.57878 1.0158108,-0.14174 -0.011811,0.43703 -0.3071056,3.35454 -0.2007997,3.57896 0.1063059,0.22442 0.2598589,0.34254 0.354353,-0.43704 0.094494,-0.77957 0.1181174,-1.98437 0.3189171,-2.13792 0.2007993,-0.15356 1.4292223,-0.8977 1.6654573,-1.74814 0,0 0.03543,-0.42523 -0.685082,-0.67328 -0.720517,-0.24804 1.712705,-2.29148 1.712705,-2.29148 0,0 3.484468,1.6064 4.37035,2.52772 0,0 -0.337072,1.22622 0.08054,1.22622 0.417608,0 0.601356,1.08578 -0.317383,0.86862 -0.918739,-0.21716 -1.620321,-0.61806 -2.188269,0.0167 -0.567948,0.63476 -0.818513,1.23612 -1.119191,1.35305 -0.300678,0.11693 -0.701583,0.31738 -0.684878,-0.53454 0.0167,-0.85192 -0.116931,0.70158 -0.367496,0.66817 -0.250565,-0.0334 -0.150339,0.40091 -1.687139,0.45102 0,0 0.902035,0.3508 0.968853,0.88534 0.06682,0.53454 0.11693,0.55124 0.11693,0.55124 0,0 1.921,0.16705 2.004521,-0.3842 0.08352,-0.55124 0.551244,-1.30294 0.751696,-1.5535 0.200452,-0.25057 1.102487,-1.28624 1.954409,-1.1693 0,0 -1.553505,0.98555 -2.171565,2.35531 -0.618061,1.36975 4.393242,1.00226 4.393242,1.00226 0,0 2.672696,-0.70158 2.973374,-1.65373 0.300678,-0.95215 0.367495,-4.62711 -0.217157,-5.22846 -0.89971,-0.75589 -2.080885,-1.4646 -3.521919,-0.54328 -1.441034,0.92131 -0.259859,1.37016 -2.22061,-0.35435 -1.960752,-1.72452 -3.756139,-2.5041 -3.756139,-2.5041 0,0 -2.2914804,3.09468 -2.3387273,2.76395 -0.047247,-0.33073 -0.5669642,-2.05524 -0.8268229,-0.77957 0,0 -0.7559524,-0.28348 -0.6850819,0.37797 0.070871,0.66146 -1.015811,-0.7087 -1.015811,-0.7087 0,0 0.094494,1.88988 -0.3779761,2.12611 0,0 1.9843749,-0.51971 1.2520461,0.54335 -0.732329,1.06305 -1.5591519,1.13392 -2.8348214,1.20479 -1.2756736,0.0709 -2.1024966,-0.66145 -2.7403316,-0.85044 -0.637835,-0.18899 -1.157552,-0.75595 -2.326916,-0.0591 z"
         style="fill:#dedede;fill-opacity:1;fill-rule:evenodd;stroke:none;stroke-width:0.26458332px;stroke-linecap:butt;stroke-linejoin:miter;stroke-opacity:1" />
    </clipPath>
    <filter
       height="1.1523545"
       y="-0.076177247"
       width="1.1527307"
       x="-0.076365359"
       id="filter5948"
       style="color-interpolation-filters:sRGB"
       inkscape:collect="always">
      <feGaussianBlur
         id="feGaussianBlur5950"
         stdDeviation="0.22924756"
         inkscape:collect="always" />
    </filter>
    <clipPath
       id="clipPath6171"
       clipPathUnits="userSpaceOnUse">
      <path
         sodipodi:nodetypes="csssssscccccsssssccscsccscsc"
         inkscape:connector-curvature="0"
         id="path6173"
         d="m -55.223215,402.46801 c 16.25,6.07144 16.517859,16.29464 20.044643,16.29464 3.526787,0 3.169643,1.87503 5,-0.62498 1.830359,-2.50001 6.071429,-6.91964 6.517858,-10.9375 0.446428,-4.01786 3.883928,-2.18751 3.839285,-0.53571 -0.04464,1.65177 -1.160714,12.67858 -0.758928,13.52678 0.401786,0.8482 0.982144,1.29464 1.339287,-1.65181 0.357143,-2.9464 0.446428,-7.49998 1.205356,-8.08032 0.758927,-0.58039 5.401785,-3.39289 6.294642,-6.60715 0,0 0.133909,-1.60717 -2.589286,-2.54468 -2.723214,-0.93747 6.4732156,-8.66071 6.4732156,-8.66071 0,0 13.169643,6.07143 16.5178585,9.55359 0,0 -1.273973,4.63453 0.3044031,4.63453 1.5783608,0 2.2728418,4.10374 -1.1995578,3.28297 -3.4723994,-0.82076 -6.1240479,-2.33597 -8.27062308,0.0631 -2.14657512,2.39909 -3.09359252,4.67195 -4.23001332,5.11389 -1.1364208,0.44194 -2.6516523,1.19955 -2.5885153,-2.02031 0.063118,-3.21985 -0.4419439,2.65164 -1.3889612,2.52537 -0.9470174,-0.12624 -0.5682104,1.51525 -6.3765885,1.70464 0,0 3.409266,1.32586 3.661807,3.34617 0.252548,2.02031 0.44194,2.08343 0.44194,2.08343 0,0 7.2604724,0.63137 7.5761423,-1.4521 0.3156662,-2.08343 2.0834419,-4.9245 2.8410558,-5.8715 0.75761386,-0.94703 4.16688,-4.86137 7.3867428,-4.4194 0,0 -5.87151507,3.72492 -8.2074899,8.90196 -2.3359786,5.17701 16.604379,3.78807 16.604379,3.78807 0,0 10.101529,-2.65164 11.23795,-6.25032 1.13642,-3.59867 1.388957,-17.48829 -0.820751,-19.76111 -3.400479,-2.8569 -7.864763,-5.53549 -13.31119,-2.05334 -5.4464282,3.48212 -0.982145,5.17856 -8.3928572,-1.33927 -7.4107163,-6.51787 -14.1964308,-9.46432 -14.1964308,-9.46432 0,0 -8.660714,11.69643 -8.839285,10.44643 -0.178571,-1.25001 -2.142857,-7.76784 -3.125,-2.94641 0,0 -2.857143,-1.07142 -2.589286,1.42855 0.267859,2.50001 -3.839285,-2.67855 -3.839285,-2.67855 0,0 0.357142,7.14285 -1.428571,8.03569 0,0 7.499999,-1.96426 4.732142,2.05361 -2.767857,4.01782 -5.892857,4.28568 -10.714285,4.55353 -4.821444,0.26797 -7.946444,-2.49997 -10.357159,-3.21426 -2.410715,-0.71429 -4.375,-2.85713 -8.794644,-0.22337 z"
         style="fill:#dedede;fill-opacity:1;fill-rule:evenodd;stroke:none;stroke-width:0.26458332px;stroke-linecap:butt;stroke-linejoin:miter;stroke-opacity:1" />
    </clipPath>
    <filter
       height="1.2481205"
       y="-0.12406027"
       width="1.3950413"
       x="-0.19752067"
       id="filter6060"
       style="color-interpolation-filters:sRGB"
       inkscape:collect="always">
      <feGaussianBlur
         id="feGaussianBlur6062"
         stdDeviation="0.2430634"
         inkscape:collect="always" />
    </filter>
    <clipPath
       id="clipPath6181"
       clipPathUnits="userSpaceOnUse">
      <path
         sodipodi:nodetypes="csssssscccccsssssccscsccscsc"
         inkscape:connector-curvature="0"
         id="path6183"
         d="m -14.611142,203.48633 c 4.299479,1.6064 4.37035,4.31129 5.3034784,4.31129 0.9331288,0 0.8386347,0.4961 1.3229166,-0.16536 0.4842823,-0.66146 1.6063989,-1.83082 1.7245166,-2.89388 0.1181174,-1.06306 1.0276226,-0.57878 1.0158108,-0.14174 -0.011811,0.43703 -0.3071056,3.35454 -0.2007997,3.57896 0.1063059,0.22442 0.2598589,0.34254 0.354353,-0.43704 0.094494,-0.77957 0.1181174,-1.98437 0.3189171,-2.13792 0.2007993,-0.15356 1.4292223,-0.8977 1.6654573,-1.74814 0,0 0.03543,-0.42523 -0.685082,-0.67328 -0.720517,-0.24804 1.712705,-2.29148 1.712705,-2.29148 0,0 3.484468,1.6064 4.37035,2.52772 0,0 -0.337072,1.22622 0.08054,1.22622 0.417608,0 0.601356,1.08578 -0.317383,0.86862 -0.918739,-0.21716 -1.620321,-0.61806 -2.188269,0.0167 -0.567948,0.63476 -0.818513,1.23612 -1.119191,1.35305 -0.300678,0.11693 -0.701583,0.31738 -0.684878,-0.53454 0.0167,-0.85192 -0.116931,0.70158 -0.367496,0.66817 -0.250565,-0.0334 -0.150339,0.40091 -1.687139,0.45102 0,0 0.902035,0.3508 0.968853,0.88534 0.06682,0.53454 0.11693,0.55124 0.11693,0.55124 0,0 1.921,0.16705 2.004521,-0.3842 0.08352,-0.55124 0.551244,-1.30294 0.751696,-1.5535 0.200452,-0.25057 1.102487,-1.28624 1.954409,-1.1693 0,0 -1.553505,0.98555 -2.171565,2.35531 -0.618061,1.36975 4.393242,1.00226 4.393242,1.00226 0,0 2.672696,-0.70158 2.973374,-1.65373 0.300678,-0.95215 0.367495,-4.62711 -0.217157,-5.22846 -0.89971,-0.75589 -2.080885,-1.4646 -3.521919,-0.54328 -1.441034,0.92131 -0.259859,1.37016 -2.22061,-0.35435 -1.960752,-1.72452 -3.756139,-2.5041 -3.756139,-2.5041 0,0 -2.2914804,3.09468 -2.3387273,2.76395 -0.047247,-0.33073 -0.5669642,-2.05524 -0.8268229,-0.77957 0,0 -0.7559524,-0.28348 -0.6850819,0.37797 0.070871,0.66146 -1.015811,-0.7087 -1.015811,-0.7087 0,0 0.094494,1.88988 -0.3779761,2.12611 0,0 1.9843749,-0.51971 1.2520461,0.54335 -0.732329,1.06305 -1.5591519,1.13392 -2.8348214,1.20479 -1.2756736,0.0709 -2.1024966,-0.66145 -2.7403316,-0.85044 -0.637835,-0.18899 -1.157552,-0.75595 -2.326916,-0.0591 z"
         style="fill:#dedede;fill-opacity:1;fill-rule:evenodd;stroke:none;stroke-width:0.26458332px;stroke-linecap:butt;stroke-linejoin:miter;stroke-opacity:1" />
    </clipPath>
    <filter
       height="1.2942749"
       y="-0.14713746"
       width="1.2393733"
       x="-0.11968667"
       id="filter6161"
       style="color-interpolation-filters:sRGB"
       inkscape:collect="always">
      <feGaussianBlur
         id="feGaussianBlur6163"
         stdDeviation="0.12848643"
         inkscape:collect="always" />
    </filter>
    <clipPath
       id="clipPath6240"
       clipPathUnits="userSpaceOnUse">
      <path
         sodipodi:nodetypes="csc"
         inkscape:connector-curvature="0"
         id="path6242"
         d="m -16.961681,206.64007 c -1.169364,-0.69689 -2.657645,-1.98437 -2.657645,-3.93331 0,-1.16936 0.755952,-1.71271 0.755952,-1.71271 -0.05906,0.61421 -0.708705,1.79539 0.12993,2.48047 0.200799,0.3071 0.437034,0.33073 1.110305,0.3071 0.67327,-0.0236 0.531529,0.17718 0.531529,0.17718 0,0 0.165364,-0.74414 0.330729,-0.93313 0.165364,-0.18899 0.862258,-1.70089 0.862258,-1.70089 0,0 3.319103,-1.68908 3.555338,-1.79539 0.236235,-0.1063 1.192988,-0.24805 1.192988,-0.24805 0,0 3.3899731,1.19299 3.5553381,1.35836 0.165365,0.16536 0.377976,1.26385 0.377976,1.26385 l -0.425223,1.64184 -3.0828681,1.15755 1.5709631,3.37816 -3.3545381,0.22443 c 0,0 -3.661644,-0.29529 -4.453032,-1.66546 z"
         style="fill:#b0afad;fill-opacity:1;fill-rule:evenodd;stroke:none;stroke-width:0.26458332px;stroke-linecap:butt;stroke-linejoin:miter;stroke-opacity:1" />
    </clipPath>
    <filter
       height="2.1812303"
       y="-0.59061521"
       width="1.733214"
       x="-0.36660698"
       id="filter4673-1"
       style="color-interpolation-filters:sRGB"
       inkscape:collect="always">
      <feGaussianBlur
         id="feGaussianBlur4675-6"
         stdDeviation="1.6947276"
         inkscape:collect="always" />
    </filter>
    <filter
       inkscape:collect="always"
       style="color-interpolation-filters:sRGB"
       id="filter2135"
       x="-0.066854582"
       width="1.1337092"
       y="-0.054420301"
       height="1.1088406">
      <feGaussianBlur
         inkscape:collect="always"
         stdDeviation="0.73316814"
         id="feGaussianBlur2137" />
    </filter>
  </defs>
  <sodipodi:namedview
     id="base"
     pagecolor="#ffffff"
     bordercolor="#666666"
     borderopacity="1.0"
     inkscape:pageopacity="0.0"
     inkscape:pageshadow="2"
     inkscape:zoom="3.6203867"
     inkscape:cx="79.674592"
     inkscape:cy="43.971973"
     inkscape:document-units="mm"
     inkscape:current-layer="layer1"
     showgrid="false"
     inkscape:window-width="1600"
     inkscape:window-height="814"
     inkscape:window-x="0"
     inkscape:window-y="0"
     inkscape:window-maximized="1"
     units="px" />
  <metadata
     id="metadata5">
    <rdf:RDF>
      <cc:Work
         rdf:about="">
        <dc:format>image/svg+xml</dc:format>
        <dc:type
           rdf:resource="http://purl.org/dc/dcmitype/StillImage" />
        <dc:title />
      </cc:Work>
    </rdf:RDF>
  </metadata>
  <g
     inkscape:label="Layer 1"
     inkscape:groupmode="layer"
     id="layer1"
     transform="translate(0,-263.13331)">
    <g
       id="g1398"
       transform="matrix(1.0080417,0,0,1.0079806,0.39179602,-2.3680195)"
       style="stroke-width:0.99205256">
      <g
         style="stroke-width:1.03328371"
         transform="matrix(0.96001118,0,0,0.96018278,0.15342407,11.814662)"
         inkscape:label="Layer 1"
         id="layer1-4">
        <g
           id="g825"
           transform="matrix(1.0264178,0,0,1.0263014,-0.44634045,-7.8041858)"
           style="stroke-width:1.00674617">
          <path
             inkscape:connector-curvature="0"
             id="path1139-9-8"
             d="m 16.93738,264.94506 a 12.756763,3.0691088 0 0 0 -12.7567689,3.06913 12.756763,3.0691088 0 0 0 0.00554,0.0374 c -0.00476,0.012 -0.00923,0.0228 -0.013372,0.034 l 3.0560025,23.82162 c -0.015024,0.10515 0.6159215,4.78759 8.1145854,4.80372 4.947579,0.10356 10.659318,-0.40319 11.361529,-5.27965 0.335848,-1.64196 2.92551,-22.96468 2.968045,-23.31498 a 12.756763,3.0691088 0 0 0 0.02125,-0.10217 12.756763,3.0691088 0 0 0 -12.756766,-3.06913 z"
             style="opacity:0.25;fill:#000000;fill-opacity:1;stroke:#808080;stroke-width:0.0260407;stroke-miterlimit:4;stroke-dasharray:none;stroke-opacity:1" />
          <path
             style="opacity:1;fill:#f2f2f2;fill-opacity:1;stroke:#808080;stroke-width:0.20134926;stroke-miterlimit:4;stroke-dasharray:none;stroke-opacity:1"
             d="m 16.93738,264.34938 a 12.756763,3.0691088 0 0 0 -12.7567689,3.06913 12.756763,3.0691088 0 0 0 0.00554,0.0374 c -0.00476,0.012 -0.00923,0.0228 -0.013372,0.034 l 3.0560025,23.82162 c -0.015024,0.10515 0.6159215,4.78759 8.1145854,4.80372 4.947579,0.10356 10.659318,-0.40319 11.361529,-5.27965 0.335848,-1.64196 2.92551,-22.96468 2.968045,-23.31498 a 12.756763,3.0691088 0 0 0 0.02125,-0.10217 12.756763,3.0691088 0 0 0 -12.756766,-3.06913 z"
             id="path822-0-3"
             inkscape:connector-curvature="0" />
          <ellipse
             style="opacity:1;fill:#808080;fill-opacity:1;stroke:#4d4d4d;stroke-width:0.20134926;stroke-miterlimit:4;stroke-dasharray:none;stroke-opacity:1"
             id="ellipse824-9"
             cx="16.828098"
             cy="267.70151"
             rx="11.658007"
             ry="2.5476561" />
        </g>
      </g>
      <g
         style="stroke-width:0.98759007"
         transform="matrix(1.0044935,0,0,1.0045436,-0.32726153,-0.93293783)"
         id="g1226">
        <g
           id="g6522"
           transform="matrix(0.73648362,0,0,0.73649683,20.612614,117.2488)"
           clip-path="url(#clipPath6726)"
           style="stroke-width:5.58490276">
          <path
             inkscape:connector-curvature="0"
             id="path6520"
             d="m 0.6968936,203.59264 0.4783761,-1.28748 1.4764694,1.15164 0.3071058,1.99028 -0.7382348,0.42522 -2.43912758,2.57497 -1.37016372,-0.0886 1.57096357,-2.75214 z"
             style="fill:#96999f;fill-opacity:1;fill-rule:evenodd;stroke:none;stroke-width:1.47767222px;stroke-linecap:butt;stroke-linejoin:miter;stroke-opacity:1" />
          <path
             inkscape:connector-curvature="0"
             id="path6514"
             d="m -1.1024868,206.30376 c 0.30067824,-0.7517 0.23386084,-0.86863 0.40090431,-0.95215 0.16704344,-0.0835 0.28397385,-0.41761 0.47607383,-0.48443 0.19209997,-0.0668 0.050113,-0.61805 0.15869128,-0.67652 0.10857824,-0.0585 0.50113036,-0.0752 0.59300425,-0.29233 0.0918739,-0.21715 -0.0417608,-0.39255 -0.0417608,-0.39255 l -1.67878677,0.0251 -1.2194172,2.38037 c 0,0 0.8352173,1.61197 1.3112911,0.39255 z"
             style="fill:#5975b5;fill-opacity:1;fill-rule:evenodd;stroke:none;stroke-width:1.47767222px;stroke-linecap:butt;stroke-linejoin:miter;stroke-opacity:1" />
          <path
             inkscape:connector-curvature="0"
             id="path6518"
             d="m 0.64374069,203.56901 c 0.76776411,-0.53153 0.88588171,-0.6083 1.08668151,-0.12993 0.2007999,0.47838 -0.4075056,1.54734 -0.4075056,1.54734 l -1.31701072,-0.1004 c 0,0 -0.242141,-1.02762 -0.00590588,-1.13392 0.23623512,-0.10631 0.64374069,-0.18309 0.64374069,-0.18309 z"
             style="fill:#39497e;fill-opacity:1;fill-rule:evenodd;stroke:none;stroke-width:1.47767222px;stroke-linecap:butt;stroke-linejoin:miter;stroke-opacity:1" />
          <path
             inkscape:connector-curvature="0"
             id="path6512"
             d="m -0.37207031,203.67532 c 0.6142113,0.16536 0.98628162,0.006 1.16936384,-0.13584 0.18308222,-0.14174 0.31301157,-0.96265 0.44294087,-0.98628 0.1299293,-0.0236 -0.60239958,-0.21851 -0.60239958,-0.21851 z"
             style="fill:#252921;fill-opacity:1;fill-rule:evenodd;stroke:none;stroke-width:1.47767222px;stroke-linecap:butt;stroke-linejoin:miter;stroke-opacity:1" />
          <path
             inkscape:connector-curvature="0"
             id="path6510"
             d="m -3.6833082,202.13603 1.3614042,-0.0501 c 0,0 2.07133882,0.35915 2.54741266,0.46772 0.47607383,0.10858 0.92709114,-0.10857 0.92709114,-0.10857 l -3.3742777,-2.14651 z"
             style="fill:#eae9e8;fill-opacity:1;fill-rule:evenodd;stroke:none;stroke-width:1.47767222px;stroke-linecap:butt;stroke-linejoin:miter;stroke-opacity:1" />
          <path
             inkscape:connector-curvature="0"
             id="path6470"
             d="m -7.1745162,208.05772 c 0.3257346,1.01896 1.8207736,1.08578 1.8374778,0.75169 0.016703,-0.33409 0.050113,-0.9605 0.050113,-0.9605 0,0 0.292326,-1.73725 -0.075169,-1.68714 -0.3674957,0.0501 -1.8124215,1.89595 -1.8124218,1.89595 z"
             style="fill:#759d70;fill-opacity:1;fill-rule:evenodd;stroke:none;stroke-width:1.47767222px;stroke-linecap:butt;stroke-linejoin:miter;stroke-opacity:1" />
          <path
             sodipodi:nodetypes="cssc"
             inkscape:connector-curvature="0"
             id="path6422-3"
             d="m -8.0264381,209.21031 c 0.7600479,0.11693 2.756217,-2.64764 2.9232608,-3.2824 0.1670433,-0.63477 0.00835,-0.80181 -0.6598216,-0.78511 -0.668174,0.0167 -4.3013691,2.79798 -2.2634392,4.06751 z"
             style="fill:url(#linearGradient6468);fill-opacity:1;fill-rule:evenodd;stroke:none;stroke-width:1.47767222px;stroke-linecap:butt;stroke-linejoin:miter;stroke-opacity:1" />
          <path
             sodipodi:nodetypes="csc"
             inkscape:connector-curvature="0"
             id="path6221"
             d="m -16.961681,206.64007 c -1.169364,-0.69689 -2.657645,-1.98437 -2.657645,-3.93331 0,-1.16936 0.755952,-1.71271 0.755952,-1.71271 -0.05906,0.61421 -0.708705,1.79539 0.12993,2.48047 0.200799,0.3071 0.437034,0.33073 1.110305,0.3071 0.67327,-0.0236 0.531529,0.17718 0.531529,0.17718 0,0 0.165364,-0.74414 0.330729,-0.93313 0.165364,-0.18899 0.862258,-1.70089 0.862258,-1.70089 0,0 3.319103,-1.68908 3.555338,-1.79539 0.236235,-0.1063 1.192988,-0.24805 1.192988,-0.24805 0,0 3.3899735,1.19299 3.5553381,1.35836 0.1653646,0.16536 0.3779762,1.26385 0.3779762,1.26385 l -0.4252232,1.64184 -3.0828681,1.15755 1.5709634,3.37816 -3.3545384,0.22443 c 0,0 -3.661644,-0.29529 -4.453032,-1.66546 z"
             style="fill:#aad400;fill-opacity:1;fill-rule:evenodd;stroke:none;stroke-width:1.47767222px;stroke-linecap:butt;stroke-linejoin:miter;stroke-opacity:1" />
          <path
             clip-path="url(#clipPath6416)"
             inkscape:connector-curvature="0"
             id="path6408"
             d="m -16.91315,206.41234 c 1.186009,-0.3675 1.027318,-0.29233 1.135896,-0.70994 0.618061,-1.71219 0.927091,-2.20497 1.244474,-2.25509 0.317382,-0.0501 3.056895,0.80181 3.908817,1.55351 0.8519211,0.75169 1.7456036,3.41604 1.7456036,3.41604 l -5.5040816,0.46772 c 0,0 -2.806331,-1.23611 -2.530709,-2.47224 z"
             style="fill:#626262;fill-opacity:1;fill-rule:evenodd;stroke:none;stroke-width:1.47767222px;stroke-linecap:butt;stroke-linejoin:miter;stroke-opacity:1" />
          <path
             inkscape:connector-curvature="0"
             id="path6420"
             d="m -14.507724,205.25139 c 0.409257,0.36749 1.002261,0.93544 1.160952,0.81016 0.158691,-0.12529 1.202713,-0.67653 1.202713,-0.67653 0,0 1.578561,1.91265 1.854182,2.05463 0.275622,0.14199 0.5763001,0.0418 0.5763001,0.0418 l -1.4532781,-2.83139 -1.486687,-0.28397 c 0,0 -1.102486,-0.0668 -1.586912,0.45101 -0.484426,0.51784 -0.26727,0.43432 -0.26727,0.43432 z"
             style="fill:#441111;fill-opacity:1;fill-rule:evenodd;stroke:none;stroke-width:1.47767222px;stroke-linecap:butt;stroke-linejoin:miter;stroke-opacity:1" />
          <path
             clip-path="url(#clipPath6392)"
             inkscape:connector-curvature="0"
             id="path6244"
             d="m -19.867373,203.53358 c 1.311105,0.38979 2.01981,0.77957 2.445033,1.15755 0.425223,0.37798 1.783575,1.25205 1.783575,1.25205 l -0.862258,1.08668 -3.082868,-1.03944 z"
             style="fill:#9f9f9f;fill-opacity:1;fill-rule:evenodd;stroke:none;stroke-width:1.47767222px;stroke-linecap:butt;stroke-linejoin:miter;stroke-opacity:1" />
          <path
             clip-path="url(#clipPath6404)"
             inkscape:connector-curvature="0"
             id="path6396"
             d="m -19.635958,203.88163 c 1.545152,1.69549 3.491208,2.98172 3.491208,2.98172 l -0.292326,0.43432 c 0,0 -3.165473,-0.7684 -3.198882,-1.37811 -0.03341,-0.60971 0,-2.03793 0,-2.03793 z"
             style="fill:#606060;fill-opacity:1;fill-rule:evenodd;stroke:none;stroke-width:1.47767222px;stroke-linecap:butt;stroke-linejoin:miter;stroke-opacity:1" />
          <path
             inkscape:connector-curvature="0"
             id="path6185"
             d="m -10.878627,199.84831 c 0.519717,0.23623 1.2166108,3.7207 1.2166108,3.7207 l 0.8740698,-0.21261 c 0,0 -0.5905878,-3.18917 -1.2638576,-3.43722 -0.67327,-0.24805 -0.826823,-0.0709 -0.826823,-0.0709 z"
             style="fill:#444342;fill-opacity:1;fill-rule:evenodd;stroke:none;stroke-width:1.47767222px;stroke-linecap:butt;stroke-linejoin:miter;stroke-opacity:1" />
          <path
             inkscape:connector-curvature="0"
             id="path6189"
             d="m -10.541992,203.07883 c 0.8091053,-0.34255 2.0847748,-0.67328 2.6163039,-0.44295 0,0 0.4839024,-0.34117 0.901511,-0.39963 0.4176086,-0.0585 0.8018086,0.53454 0.7683999,0.54289 -0.033409,0.008 -0.9270912,1.57856 -1.2611781,1.5368 -0.3340869,-0.0418 -3.0250367,-1.23711 -3.0250367,-1.23711 z"
             style="fill:url(#linearGradient6205);fill-opacity:1;fill-rule:evenodd;stroke:none;stroke-width:1.47767222px;stroke-linecap:butt;stroke-linejoin:miter;stroke-opacity:1" />
          <path
             sodipodi:nodetypes="cscc"
             inkscape:connector-curvature="0"
             id="path6187"
             d="m -11.427874,204.48442 c -0.64374,-0.73233 0.248049,-1.40559 1.122117,-1.5119 0.8740698,-0.10631 2.7285156,1.22842 2.7285156,1.22842 0,0 -2.6517386,1.13393 -3.8506326,0.28348 z"
             style="fill:url(#linearGradient6213);fill-opacity:1;fill-rule:evenodd;stroke:none;stroke-width:1.47767222px;stroke-linecap:butt;stroke-linejoin:miter;stroke-opacity:1" />
          <path
             sodipodi:nodetypes="cssc"
             inkscape:connector-curvature="0"
             id="path6422"
             d="m -7.6171816,207.06381 c 0.7600479,0.11693 2.4304822,-1.63703 2.5975259,-2.27179 0.1670433,-0.63477 -0.075172,-0.95215 -0.7433433,-0.93545 -0.668174,0.0167 -1.9042954,2.37202 -1.8541826,3.20724 z"
             style="fill:url(#linearGradient6430);fill-opacity:1;fill-rule:evenodd;stroke:none;stroke-width:1.47767222px;stroke-linecap:butt;stroke-linejoin:miter;stroke-opacity:1" />
          <path
             inkscape:connector-curvature="0"
             id="path6506"
             d="m -2.1214518,206.02814 c 0.6347651,-0.81016 1.27788236,-0.72664 1.32799539,-0.88533 0.050113,-0.15869 0.0167045,-0.37585 -0.12528259,-0.58465 -0.1419869,-0.20881 0.19209999,-0.7517 0.48442602,-0.73499 0.29232605,0.0167 0.53453905,-0.60136 0.53453905,-0.60136 l -1.14424767,-0.50113 -1.8792387,0.65982 -0.2839741,1.20271 0.025056,1.31129 z"
             style="fill:#aa531f;fill-opacity:1;fill-rule:evenodd;stroke:none;stroke-width:1.47767222px;stroke-linecap:butt;stroke-linejoin:miter;stroke-opacity:1" />
          <path
             inkscape:connector-curvature="0"
             id="path6508"
             d="m -1.5284476,206.53762 c 0.78510423,-0.64312 1.52009543,-0.52619 1.52009543,-0.52619 l -1.27788243,1.03567 z"
             style="fill:#c1c2c9;fill-opacity:1;fill-rule:evenodd;stroke:none;stroke-width:1.47767222px;stroke-linecap:butt;stroke-linejoin:miter;stroke-opacity:1" />
          <path
             sodipodi:nodetypes="ccsscc"
             inkscape:connector-curvature="0"
             id="path6476"
             d="m -4.4884673,205.1636 c 0.8740701,0.0236 1.2520462,-0.11812 1.842634,0.11812 0.5905878,0.23623 0.5551525,0.42522 0.7441406,0.61421 0.1889881,0.18899 0.484282,-0.0354 0.6496466,1.14574 0.1653646,1.18117 -3.236421,0.51972 -3.236421,0.51972 z"
             style="fill:url(#linearGradient6492);fill-opacity:1;fill-rule:evenodd;stroke:none;stroke-width:1.47767222px;stroke-linecap:butt;stroke-linejoin:miter;stroke-opacity:1" />
          <path
             inkscape:connector-curvature="0"
             id="path6474"
             d="m -4.3703496,205.21085 c -0.023625,1.3111 -0.059059,1.25204 0.3189174,1.29929 0.377976,0.0472 -0.059059,0.54334 0.035435,0.77958 0.094494,0.23623 0.3071056,0.22442 0.3071056,0.22442 l 0.1299292,0.42522 -1.1221167,-0.0945 c 0,0 -0.1299294,-0.14174 -0.1771763,-0.24805 -0.047247,-0.1063 0.023625,-2.43322 0.023625,-2.55134 0,-0.11811 0.4842819,0.16537 0.4842819,0.16537 z"
             style="fill:#242f65;fill-opacity:1;fill-rule:evenodd;stroke:none;stroke-width:1.47767222px;stroke-linecap:butt;stroke-linejoin:miter;stroke-opacity:1" />
          <path
             inkscape:connector-curvature="0"
             id="path6504"
             d="m -2.2300301,201.95228 c 0.016704,-0.32574 0.726639,-0.65983 1.0690781,-0.47608 0.34243907,0.18375 0.16704345,0.49278 0.57629991,0.66818 0.40925646,0.17539 1.60361719,0.46772 1.46998239,0.65982 -0.13363477,0.1921 -0.40090428,0.68488 -0.76839988,0.5763 -0.3674956,-0.10858 -0.35914343,-0.43431 -0.84356943,-0.43431 -0.48442599,0 -0.86027379,0.0418 -0.86027379,0.0418 z"
             style="fill:#5975b5;fill-opacity:1;fill-rule:evenodd;stroke:none;stroke-width:1.47767222px;stroke-linecap:butt;stroke-linejoin:miter;stroke-opacity:1" />
          <path
             inkscape:connector-curvature="0"
             id="path6502"
             d="m -2.3386083,203.43896 c 0.2255086,0.28398 0.4259608,0.30068 0.8435694,0.0251 0.4176086,-0.27562 0.60135642,-0.64312 0,-0.62641 -0.6013564,0.0167 -1.8625344,-0.45102 -1.8625344,-0.45102 0,0 -0.4259609,0.13363 -0.4176088,0.37585 0.00835,0.24221 0.334087,0.50948 0.334087,0.50948 z"
             style="fill:#252921;fill-opacity:1;fill-rule:evenodd;stroke:none;stroke-width:1.47767222px;stroke-linecap:butt;stroke-linejoin:miter;stroke-opacity:1" />
          <path
             inkscape:connector-curvature="0"
             id="path6500"
             d="m -3.3993343,205.38502 c 1.1191912,-0.33409 0.5595956,-1.01896 0.434313,-1.19436 -0.1252826,-0.1754 0.1336347,-0.68488 0.6848782,-0.70158 0.5512434,-0.0167 -0.3006782,-0.21716 -0.8018087,-0.23386 -0.5011304,-0.0167 -0.7099345,-0.3675 -0.492778,-0.50949 0.2171565,-0.14198 0.5094824,-0.15869 0.7516955,0.13364 0.242213,0.29232 1.2444737,0.30068 1.4282215,0.13363 0.1837478,-0.16704 0.50113032,-0.30903 0.50113032,-0.30903 0,0 -0.83521722,-0.33408 -1.00226072,-0.60135 -0.1670435,-0.26727 -0.4677217,-0.56795 -0.8352172,-0.35915 -0.3674956,0.20881 -1.0941346,0.30068 -1.0941346,0.30068 l -0.8936826,1.48669 0.4927783,1.9377 z"
             style="fill:#3d4b6f;fill-opacity:1;fill-rule:evenodd;stroke:none;stroke-width:1.47767222px;stroke-linecap:butt;stroke-linejoin:miter;stroke-opacity:1" />
          <path
             inkscape:connector-curvature="0"
             id="path6472"
             d="m -4.5829614,205.30534 c -0.1535528,0.85045 0.035435,2.32692 0.1181177,2.31511 0.082682,-0.0118 0.3543528,0.14174 0.7441406,-0.10631 1.3465402,-0.0236 1.0039993,1.54734 1.0039993,1.54734 l -2.7521391,-0.30711 c 0,0 0.1653646,-3.40178 0.4134115,-3.53171 0.2480468,-0.12993 0.47247,0.0827 0.47247,0.0827 z"
             style="fill:#652424;fill-opacity:1;fill-rule:evenodd;stroke:none;stroke-width:1.47767222px;stroke-linecap:butt;stroke-linejoin:miter;stroke-opacity:1" />
          <path
             sodipodi:nodetypes="csssssscccccsssssccscsccscsccccsccccccscc"
             inkscape:connector-curvature="0"
             id="path5375"
             d="m -14.611142,203.48633 c 4.299479,1.6064 4.37035,4.31129 5.3034783,4.31129 0.9331288,0 0.8386347,0.4961 1.3229166,-0.16536 0.4842822,-0.66146 1.6063989,-1.83082 1.7245166,-2.89388 0.1181174,-1.06306 1.0276226,-0.57878 1.0158108,-0.14174 -0.011811,0.43703 -0.3071056,3.35454 -0.2007997,3.57896 0.1063059,0.22442 0.2598587,0.34254 0.3543528,-0.43704 0.094494,-0.77957 0.1181174,-1.98437 0.3189173,-2.13792 0.2007997,-0.15356 1.4292223,-0.8977 1.6654576,-1.74814 0,0 0.035435,-0.42523 -0.6850819,-0.67328 -0.7205171,-0.24804 1.7127046,-2.29148 1.7127046,-2.29148 0,0 3.4844679,1.6064 4.3703496,2.52772 0,0 -0.3370722,1.22622 0.080536,1.22622 0.4176086,0 0.6013564,1.08578 -0.3173826,0.86862 -0.9187389,-0.21716 -1.62032143,-0.61806 -2.18826916,0.0167 -0.56794773,0.63476 -0.81851291,1.23612 -1.11919114,1.35305 -0.3006782,0.11693 -0.7015825,0.31738 -0.6848781,-0.53454 0.016704,-0.85192 -0.1169304,0.70158 -0.3674956,0.66817 -0.2505652,-0.0334 -0.1503391,0.40091 -1.6871389,0.45102 0,0 0.9020351,0.3508 0.9688524,0.88534 0.066817,0.53454 0.1169305,0.55124 0.1169305,0.55124 0,0 1.92099964,0.16705 2.00452137,-0.3842 0.0835217,-0.55124 0.55124338,-1.30294 0.75169552,-1.5535 0.20045215,-0.25057 1.10248678,-1.28624 1.95440841,-1.1693 0,0 -1.55350412,0.98555 -2.17156489,2.35531 -0.61806077,1.36975 4.39324279,1.00226 4.39324279,1.00226 0,0 6.5661348,-3.43295 6.8065798,-4.40207 0.300679,-1.21188 -3.4657108,-4.53405 -4.0503629,-2.48012 -0.8997098,-0.75589 -2.0808853,-1.4646 -3.5219195,-0.54328 -1.4410342,0.92131 -0.2598587,1.37016 -2.2206101,-0.35435 -1.96075144,-1.72452 -3.7561383,-2.5041 -3.7561383,-2.5041 0,0 -2.2914806,3.09468 -2.3387276,2.76395 -0.047247,-0.33073 -0.5669643,-2.05524 -0.8268229,-0.77957 0,0 -0.7559524,-0.28348 -0.6850818,0.37797 0.070871,0.66146 -1.015811,-0.7087 -1.015811,-0.7087 0,0 0.094494,1.88988 -0.3779762,2.12611 0,0 1.9843749,-0.51971 1.2520461,0.54335 -0.7323289,1.06305 -1.5591518,1.13392 -2.8348214,1.20479 -1.2756694,0.0709 -2.1024924,-0.66145 -2.7403274,-0.85044 -0.637835,-0.18899 -1.157552,-0.75595 -2.326916,-0.0591 z"
             style="fill:#dedede;fill-opacity:1;fill-rule:evenodd;stroke:none;stroke-width:1.47767222px;stroke-linecap:butt;stroke-linejoin:miter;stroke-opacity:1" />
          <path
             sodipodi:nodetypes="ccsc"
             inkscape:connector-curvature="0"
             id="path5363"
             d="m -16.961681,207.72675 c 0,0 -0.259859,-1.48828 0.106306,-1.94894 0,0 0.295293,0.6024 1.547339,0.90951 1.252047,0.3071 -0.921317,1.46466 -0.921317,1.46466 2.527715,-0.68507 3.236422,1.48827 1.157553,0.89769 -2.078869,-0.59059 -1.889881,-1.32292 -1.889881,-1.32292 z"
             style="fill:#dedede;fill-opacity:1;fill-rule:evenodd;stroke:none;stroke-width:1.47767222px;stroke-linecap:butt;stroke-linejoin:miter;stroke-opacity:1" />
          <path
             inkscape:connector-curvature="0"
             id="path5367"
             d="m -15.802311,206.07825 c -0.417608,-1.06908 -0.367495,-1.98782 1.002261,-2.45554 0,0 0.0167,0.3842 0.300678,0.46772 0.283974,0.0835 0.484427,0.83522 0.902035,0.83522 0,0 -0.785104,0.13363 -0.868626,1.13589 0,0 -0.684879,0.13364 -1.336348,0.0167 z"
             style="fill:#ffdd55;fill-opacity:1;fill-rule:evenodd;stroke:none;stroke-width:1.47767222px;stroke-linecap:butt;stroke-linejoin:miter;stroke-opacity:1" />
          <path
             inkscape:connector-curvature="0"
             id="path5369"
             d="m -16.854684,203.28862 c 2.605877,-1.06907 2.288495,-1.26952 2.288495,-1.26952 0,0 -1.987817,0.25056 -0.935443,-0.43432 1.052374,-0.68488 2.906556,-0.96885 3.290756,-2.12145 0,0 -1.26953,-0.51784 -5.629365,1.88759 0,0 0.317383,1.48668 0.985557,1.9377 z"
             style="fill:#ff8080;fill-opacity:1;fill-rule:evenodd;stroke:none;stroke-width:1.47767222px;stroke-linecap:butt;stroke-linejoin:miter;stroke-opacity:1" />
          <path
             inkscape:connector-curvature="0"
             id="path5371"
             d="m -11.459181,200.1315 c -0.217156,0.30068 -0.400904,0.50113 -0.334087,-0.76839 0.06682,-1.26954 0.718287,-1.05238 1.386461,-0.41762 0.6681738,0.63477 1.0857823,0.23387 1.5367996,0.51784 0.4510174,0.28397 1.3530521,0.48442 1.3363477,1.31964 0,0 -0.8185128,0.3842 -1.8374779,-0.55124 -0.4176086,-0.28398 -1.8374784,-0.45102 -2.0880434,-0.10023 z"
             style="fill:#ffdd55;fill-opacity:1;fill-rule:evenodd;stroke:none;stroke-width:1.47767222px;stroke-linecap:butt;stroke-linejoin:miter;stroke-opacity:1" />
          <path
             clip-path="url(#clipPath5626)"
             inkscape:connector-curvature="0"
             id="path5377"
             d="m -11.008164,206.81324 c 1.620322,-2.50565 1.7706612,-2.40543 2.3386089,-2.18827 0.5679477,0.21716 -0.1503392,2.75622 -0.8853305,3.39098 -0.7349914,0.63477 -1.4532784,-1.20271 -1.4532784,-1.20271 z"
             style="opacity:0.42399998;fill:#a3a3a3;fill-opacity:1;fill-rule:evenodd;stroke:none;stroke-width:1.47767222px;stroke-linecap:butt;stroke-linejoin:miter;stroke-opacity:1;filter:url(#filter5447)" />
          <path
             clip-path="url(#clipPath5636)"
             inkscape:connector-curvature="0"
             id="path5451"
             d="m -9.3043204,208.21641 c 2.4388344,-4.34313 3.0234865,-6.1472 3.2573475,-5.99686 0.2338607,0.15034 1.3363474,1.68714 1.0356694,2.15486 -0.3006783,0.46772 -0.8185129,1.08578 -0.8853305,1.10248 -0.066817,0.0167 -1.3697561,3.85871 -1.3697561,3.85871 z"
             style="opacity:0.47900008;fill:#838383;fill-opacity:1;fill-rule:evenodd;stroke:none;stroke-width:1.47767222px;stroke-linecap:butt;stroke-linejoin:miter;stroke-opacity:1;filter:url(#filter5529)" />
          <path
             clip-path="url(#clipPath5646)"
             inkscape:connector-curvature="0"
             id="path5533"
             d="m -6.4645817,202.83761 c 0.6013566,0.96885 0.9354433,1.63702 1.3363477,1.38646 0.4009043,-0.25056 0.1670433,-1.28623 -0.3507912,-1.60362 -0.5178348,-0.31738 -0.8519216,-0.36749 -0.9855565,0.21716 z"
             style="opacity:0.70800003;fill:#838383;fill-opacity:1;fill-rule:evenodd;stroke:none;stroke-width:1.47767222px;stroke-linecap:butt;stroke-linejoin:miter;stroke-opacity:1;filter:url(#filter5607)" />
          <path
             clip-path="url(#clipPath5722)"
             inkscape:connector-curvature="0"
             id="path5650"
             d="m -4.1813614,209.25047 c -0.035435,-2.32692 0.3307291,-3.14193 2.3269157,-4.48847 1.99618677,-1.34654 1.28748143,0.67327 1.58277532,0.86226 0.29529389,0.18899 1.015811,1.21661 1.37016368,0.85045 0.3543527,-0.36617 1.1457403,-0.95676 1.4410342,-0.85045 0.295294,0.1063 2.7875745,2.77576 2.7875745,2.77576 l -6.7563244,0.66146 -2.6930803,0.2008 z"
             style="opacity:0.64830508;fill:#838383;fill-opacity:1;fill-rule:evenodd;stroke:none;stroke-width:1.47767222px;stroke-linecap:butt;stroke-linejoin:miter;stroke-opacity:1;filter:url(#filter5712)" />
          <path
             clip-path="url(#clipPath5958)"
             inkscape:connector-curvature="0"
             id="path5726"
             d="m 2.3859747,205.86049 c 0.4960937,-0.53153 0.3307291,-0.61421 0.9213169,-0.34254 0.5905879,0.27167 0.9095052,1.33473 1.3229167,1.38198 0.4134114,0.0472 1.7599517,-0.33073 1.9843749,-0.79139 0.2244233,-0.46066 -0.236235,-2.30329 -0.1417409,-2.45684 0.094494,-0.15356 1.5119048,-1.4056 2.1733631,-0.48429 0.6614583,0.92132 1.8308216,6.46103 -0.1771764,6.86263 -2.0079985,0.4016 -4.9963728,-4.27585 -6.0830543,-4.16955 z"
             style="opacity:0.75800003;fill:#373737;fill-opacity:1;fill-rule:evenodd;stroke:none;stroke-width:1.47767222px;stroke-linecap:butt;stroke-linejoin:miter;stroke-opacity:1;filter:url(#filter5948)" />
          <path
             clip-path="url(#clipPath6171)"
             id="path5962"
             transform="matrix(0.26458333,0,0,0.26458333,0,97.000003)"
             d="m 20.089844,393.00391 c 0,0 -6.473494,1.29434 -7.232422,6.51757 -0.758929,5.2232 0.222656,6.38477 0.222656,6.38477 0.9375,1.83035 3.392578,4.99914 4.955078,4.86523 1.5625,-0.13379 4.37472,-0.62419 4.955078,-2.36523 0.580357,-1.74108 0.760324,-6.25166 -1.33789,-7.14453 -2.098215,-0.89284 -3.036831,-1.38391 -0.804688,-1.25 2.232143,0.13379 3.438337,0.53736 2.634766,-0.66797 -0.803571,-1.20537 -3.392578,-6.33984 -3.392578,-6.33984 z m -1.746094,12.45703 c 1.879446,-0.0636 2.13114,2.09597 -0.128906,2.76562 -1.651786,-0.35716 -2.499723,-2.32085 -0.267578,-2.72265 0.139509,-0.0251 0.271188,-0.0387 0.396484,-0.043 z"
             style="opacity:0.58499995;fill:#656565;fill-opacity:1;fill-rule:evenodd;stroke:none;stroke-width:1.47767222px;stroke-linecap:butt;stroke-linejoin:miter;stroke-opacity:1;filter:url(#filter6060)"
             inkscape:connector-curvature="0" />
          <path
             clip-path="url(#clipPath6181)"
             inkscape:connector-curvature="0"
             id="path6067"
             d="m 5.3034784,203.86431 c -1.7599517,-0.2008 -1.7717635,-1.02763 -1.1575521,-1.38198 0.6142112,-0.35435 1.2402344,-0.55515 1.7127045,-0.1063 0.4724705,0.44884 0.7323289,0.54334 0.2008,0.57877 -0.5315291,0.0354 -0.637835,0.0118 -0.6260232,-0.24804 0.011811,-0.25986 -0.3897879,-0.41342 -0.8150111,-0.10631 -0.4252233,0.30711 -0.4134115,0.66146 0.2480469,0.69689 0.6614583,0.0354 1.0394346,0.37798 0.9803756,0.77958 -0.059059,0.4016 -0.5433406,-0.21261 -0.5433406,-0.21261 z"
             style="opacity:0.47000002;fill:#000000;fill-opacity:1;fill-rule:evenodd;stroke:none;stroke-width:1.47767222px;stroke-linecap:butt;stroke-linejoin:miter;stroke-opacity:1;filter:url(#filter6161)" />
          <path
             clip-path="url(#clipPath6240)"
             sodipodi:nodetypes="cccc"
             inkscape:connector-curvature="0"
             id="path6223"
             d="m -19.259764,204.73363 c -0.206705,-3.13012 0.738931,-3.79273 0.738931,-3.79273 l -0.437035,-0.18308 c 0,0 -2.823705,3.18442 -0.301896,3.97581 z"
             style="fill:#2dc4e7;fill-opacity:1;fill-rule:evenodd;stroke:none;stroke-width:1.47767222px;stroke-linecap:butt;stroke-linejoin:miter;stroke-opacity:1" />
          <path
             inkscape:connector-curvature="0"
             id="path6516"
             d="m -1.2862346,206.42904 0.71828685,-0.0668 c 0,0 1.77066065,-0.93544 2.10474755,-1.04402 0.3340869,-0.10858 0.676526,-0.55124 0.6932303,-0.89368 0.016704,-0.34244 -0.5512434,-1.07743 -0.5512434,-1.07743 0,0 0.050113,0.93544 -0.2004521,1.14425 -0.2505652,0.2088 -0.48442605,0.52618 -1.34469984,-0.42596 -0.86027377,-0.95215 -1.41986936,2.36366 -1.41986936,2.36366 z"
             style="fill:#773520;fill-opacity:1;fill-rule:evenodd;stroke:none;stroke-width:1.47767222px;stroke-linecap:butt;stroke-linejoin:miter;stroke-opacity:1" />
        </g>
        <g
           id="g7683"
           transform="matrix(0.79468843,0,0,0.79470268,22.334979,105.599)"
           clip-path="url(#clipPath7804)"
           style="opacity:1;stroke-width:5.17585135;filter:url(#filter2135)">
          <path
             inkscape:connector-curvature="0"
             id="path6797-3-9"
             d="m 0.56696373,212.66405 c 0.51971707,-1.98436 2.40959797,-3.63801 4.15773797,-3.77975 1.74814,-0.14174 3.118304,3.54352 0.472471,3.827 -2.645834,0.28348 -3.9215029,1.65365 -4.63020897,-0.0472 z"
             style="opacity:0.475;fill:#f2a457;fill-opacity:0.26811595;fill-rule:evenodd;stroke:none;stroke-width:1.36944425px;stroke-linecap:butt;stroke-linejoin:miter;stroke-opacity:1;filter:url(#filter6995-3-2)" />
          <path
             inkscape:connector-curvature="0"
             id="path6732"
             d="m -18.49721,207.774 c -0.47247,4.016 2.007999,4.20498 2.007999,4.20498 l 0.661458,-2.03162 c 0,0 -1.677269,-2.76395 -2.669457,-2.17336 z"
             style="opacity:0.572;fill:#eae9e8;fill-opacity:1;fill-rule:evenodd;stroke:none;stroke-width:1.36944425px;stroke-linecap:butt;stroke-linejoin:miter;stroke-opacity:1" />
          <path
             inkscape:connector-curvature="0"
             id="path6734"
             d="m -16.300223,208.69532 c 2.078869,1.63002 2.952939,2.85844 3.992373,2.85844 1.039435,0 3.0474334,-0.30711 2.9293158,-0.4016 -0.1181174,-0.0945 -3.3545388,-1.98437 -3.3545388,-1.88988 0,0.0945 -0.377976,-1.55915 -0.377976,-1.55915 l -4.323103,-2.31511 z"
             style="fill:#eae9e8;fill-opacity:0.26811595;fill-rule:evenodd;stroke:none;stroke-width:1.36944425px;stroke-linecap:butt;stroke-linejoin:miter;stroke-opacity:1" />
          <path
             id="path6736"
             transform="matrix(0.26458333,0,0,0.26458333,0,97.000003)"
             d="m -28.302734,419.47656 c 0,0 -3.035714,4.911 -8.125,7.23242 l 0.535156,2.41016 7.482422,-0.62891 c 2.575073,-4.45751 4.500057,-6.69276 5.496094,-7.68554 z"
             style="opacity:0.356;fill:#b58043;fill-opacity:1;fill-rule:evenodd;stroke:none;stroke-width:1.36944425px;stroke-linecap:butt;stroke-linejoin:miter;stroke-opacity:1"
             inkscape:connector-curvature="0" />
          <path
             inkscape:connector-curvature="0"
             id="path6738"
             d="m -7.5595238,210.44346 c 1.0394346,-1.81902 1.700893,-2.29148 1.700893,-2.29148 l 0.8976934,0.0945 c 0,0 0.3071055,1.58277 -0.6850819,2.12611 -0.9921875,0.54334 -1.5591518,0.47248 -1.9135045,0.0709 z"
             style="opacity:0.65700001;fill:#6c9781;fill-opacity:1;fill-rule:evenodd;stroke:none;stroke-width:1.36944425px;stroke-linecap:butt;stroke-linejoin:miter;stroke-opacity:1" />
          <path
             id="path6736-1"
             d="m -3.0235882,208.9787 c 0,0 -0.8031993,1.29937 -2.1497395,1.91357 l 0.1415934,0.63769 1.9797241,-0.1664 c 0.6813213,-1.17938 1.19064,-1.77079 1.4541748,-2.03346 z"
             style="opacity:0.11000001;fill:#b58043;fill-opacity:1;fill-rule:evenodd;stroke:none;stroke-width:1.36944425px;stroke-linecap:butt;stroke-linejoin:miter;stroke-opacity:1"
             inkscape:connector-curvature="0" />
          <path
             inkscape:connector-curvature="0"
             id="path6797"
             d="m -17.670387,218.56994 c 0.519717,-1.98437 2.409598,-3.63802 4.157738,-3.77976 1.74814,-0.14174 3.118304,3.54353 0.472471,3.82701 -2.645834,0.28348 -3.921503,1.65365 -4.630209,-0.0472 z"
             style="opacity:0.475;fill:#f2a457;fill-opacity:0.26811595;fill-rule:evenodd;stroke:none;stroke-width:1.36944425px;stroke-linecap:butt;stroke-linejoin:miter;stroke-opacity:1;filter:url(#filter6995)" />
          <path
             inkscape:connector-curvature="0"
             id="path6999"
             d="m -18.007284,217.08642 c -1.135896,-0.80181 -2.438835,-3.50792 -1.002261,-3.87542 1.436574,-0.36749 3.875408,2.47225 1.002261,3.87542 z"
             style="opacity:0.38100011;fill:#57f26b;fill-opacity:0.26811595;fill-rule:evenodd;stroke:none;stroke-width:1.36944425px;stroke-linecap:butt;stroke-linejoin:miter;stroke-opacity:1;filter:url(#filter7165)" />
          <path
             transform="rotate(40.80103,-5.3998763,219.14845)"
             inkscape:connector-curvature="0"
             id="path6999-7"
             d="m -5.2505879,221.10242 c -1.135896,-0.80181 -2.438835,-3.50792 -1.002261,-3.87542 1.436574,-0.36749 3.875408,2.47225 1.002261,3.87542 z"
             style="opacity:0.144;fill:#57f26b;fill-opacity:0.26811595;fill-rule:evenodd;stroke:none;stroke-width:1.36944425px;stroke-linecap:butt;stroke-linejoin:miter;stroke-opacity:1;filter:url(#filter7165-1)" />
          <path
             inkscape:connector-curvature="0"
             id="path6797-3"
             d="m 0.0944935,219.32589 c 0.519717,-1.98437 2.409598,-3.63802 4.157738,-3.77976 1.74814,-0.14174 3.118304,3.54353 0.472471,3.82701 -2.645834,0.28348 -3.921503,1.65365 -4.630209,-0.0472 z"
             style="opacity:0.475;fill:#f2a457;fill-opacity:0.26811595;fill-rule:evenodd;stroke:none;stroke-width:1.36944425px;stroke-linecap:butt;stroke-linejoin:miter;stroke-opacity:1;filter:url(#filter6995-3)" />
          <path
             sodipodi:nodetypes="ssccs"
             inkscape:connector-curvature="0"
             id="path7211"
             d="m -4.1426775,215.58302 c 3.24064287,-0.86862 5.278573,-2.57247 5.712886,-3.74177 0.4343129,-1.16931 -0.83521731,-2.07134 -0.83521731,-2.07134 0,0 -5.91333829,3.20724 -13.09620719,4.35984 4.5101737,1.85418 4.9778954,2.3219 8.2185385,1.45327 z"
             style="fill:url(#linearGradient7219);fill-opacity:1;fill-rule:evenodd;stroke:none;stroke-width:1.36944425px;stroke-linecap:butt;stroke-linejoin:miter;stroke-opacity:1" />
          <path
             sodipodi:nodetypes="csccc"
             inkscape:connector-curvature="0"
             id="path7221"
             d="m 1.7205476,209.78661 c 0,0 -0.4009043,-0.43431 0.1837478,-0.45101 0.5846521,-0.0167 1.403165,0.65147 1.9878169,0.45101 0.5846522,-0.20045 -2.0713387,1.62033 -1.9878169,1.36976 -0.033409,-0.7684 -0.1837478,-1.36976 -0.1837478,-1.36976 z"
             style="fill:url(#radialGradient7231);fill-opacity:1;fill-rule:evenodd;stroke:none;stroke-width:1.36944425px;stroke-linecap:butt;stroke-linejoin:miter;stroke-opacity:1;filter:url(#filter7265)" />
          <path
             transform="matrix(0.56861933,0.49083688,-0.49083688,0.56861933,102.59745,102.56566)"
             inkscape:connector-curvature="0"
             id="path6999-7-6"
             d="m -5.2505879,221.10242 c -1.135896,-0.80181 -2.438835,-3.50792 -1.002261,-3.87542 1.436574,-0.36749 3.875408,2.47225 1.002261,3.87542 z"
             style="opacity:0.572;fill:#10d52a;fill-opacity:0.26811595;fill-rule:evenodd;stroke:none;stroke-width:1.36944425px;stroke-linecap:butt;stroke-linejoin:miter;stroke-opacity:1;filter:url(#filter7165-1-9)" />
          <path
             transform="rotate(52.102299,-11.742025,227.05252)"
             inkscape:connector-curvature="0"
             id="path6797-8"
             d="m -14.79724,228.52573 c 0.519717,-1.98437 2.409598,-3.63802 4.157738,-3.77976 1.7481403,-0.14174 3.1183043,3.54353 0.472471,3.82701 -2.645834,0.28348 -3.921503,1.65365 -4.630209,-0.0472 z"
             style="opacity:0.475;fill:#f2a457;fill-opacity:0.26811595;fill-rule:evenodd;stroke:none;stroke-width:1.36944425px;stroke-linecap:butt;stroke-linejoin:miter;stroke-opacity:1;filter:url(#filter6995-4)" />
          <path
             transform="matrix(0.56861933,0.49083689,-0.49083689,0.56861933,96.049347,108.44559)"
             inkscape:connector-curvature="0"
             id="path6999-7-6-3"
             d="m -5.2505879,221.10242 c -1.135896,-0.80181 -2.438835,-3.50792 -1.002261,-3.87542 1.436574,-0.36749 3.875408,2.47225 1.002261,3.87542 z"
             style="opacity:0.572;fill:#10d52a;fill-opacity:0.26811595;fill-rule:evenodd;stroke:none;stroke-width:1.36944425px;stroke-linecap:butt;stroke-linejoin:miter;stroke-opacity:1;filter:url(#filter7165-1-9-5)" />
          <path
             transform="matrix(0.41309475,0.53068752,-0.53068752,0.41309475,124.49371,140.62556)"
             inkscape:connector-curvature="0"
             id="path6797-8-6"
             d="m -14.79724,228.52573 c 0.519717,-1.98437 2.409598,-3.63802 4.157738,-3.77976 1.7481403,-0.14174 3.1183043,3.54353 0.472471,3.82701 -2.645834,0.28348 -3.921503,1.65365 -4.630209,-0.0472 z"
             style="opacity:0.475;fill:#f2a457;fill-opacity:0.26811595;fill-rule:evenodd;stroke:none;stroke-width:1.36944425px;stroke-linecap:butt;stroke-linejoin:miter;stroke-opacity:1;filter:url(#filter6995-4-8)" />
          <rect
             transform="matrix(0.79466436,0,0,0.79466436,-1.343657,45.675722)"
             y="221.07404"
             x="-10.961308"
             height="2.7403271"
             width="8.8351936"
             id="rect7353"
             style="color:#000000;display:inline;overflow:visible;visibility:visible;opacity:0.43600003;fill:#1c1c1c;fill-opacity:0.26811595;fill-rule:nonzero;stroke:none;stroke-width:24.92173004;stroke-linecap:round;stroke-linejoin:miter;stroke-miterlimit:4;stroke-dasharray:none;stroke-dashoffset:0;stroke-opacity:1;marker:none;filter:url(#filter7479);enable-background:accumulate" />
          <rect
             transform="matrix(0.79466435,0,0,0.79466435,-0.9184339,50.778401)"
             y="221.07404"
             x="-10.961308"
             height="2.7403271"
             width="8.8351936"
             id="rect7353-3"
             style="color:#000000;display:inline;overflow:visible;visibility:visible;opacity:0.98305084;fill:#ffffff;fill-opacity:0.26811595;fill-rule:nonzero;stroke:none;stroke-width:24.92173004;stroke-linecap:round;stroke-linejoin:miter;stroke-miterlimit:4;stroke-dasharray:none;stroke-dashoffset:0;stroke-opacity:1;marker:none;filter:url(#filter7479-7);enable-background:accumulate" />
          <rect
             transform="matrix(0.79466435,0,0,0.79466435,-0.72944581,52.762776)"
             y="221.07404"
             x="-10.961308"
             height="2.7403271"
             width="8.8351936"
             id="rect7353-9"
             style="color:#000000;display:inline;overflow:visible;visibility:visible;opacity:0.43600003;fill:#1c1c1c;fill-opacity:0.26811595;fill-rule:nonzero;stroke:none;stroke-width:24.92173004;stroke-linecap:round;stroke-linejoin:miter;stroke-miterlimit:4;stroke-dasharray:none;stroke-dashoffset:0;stroke-opacity:1;marker:none;filter:url(#filter7479-6);enable-background:accumulate" />
          <rect
             transform="matrix(0.74344902,0.28066882,-0.28066882,0.74344902,57.777794,68.259802)"
             y="221.07404"
             x="-10.961308"
             height="2.7403271"
             width="8.8351936"
             id="rect7353-0"
             style="color:#000000;display:inline;overflow:visible;visibility:visible;opacity:0.43600003;fill:#1c1c1c;fill-opacity:0.26811595;fill-rule:nonzero;stroke:none;stroke-width:24.92173004;stroke-linecap:round;stroke-linejoin:miter;stroke-miterlimit:4;stroke-dasharray:none;stroke-dashoffset:0;stroke-opacity:1;marker:none;filter:url(#filter7479-9);enable-background:accumulate" />
          <path
             inkscape:connector-curvature="0"
             id="path7538"
             d="m -15.024553,232.83855 c 1.370163,2.78757 3.921502,5.10267 7.3232882,4.86644 3.4017857,-0.23624 -1.1339285,-3.59077 -1.1339285,-3.59077 0,0 -3.5435267,-3.54353 -6.1893597,-1.27567 z"
             style="fill:#e8dd70;fill-opacity:0.26811595;fill-rule:evenodd;stroke:none;stroke-width:1.36944425px;stroke-linecap:butt;stroke-linejoin:miter;stroke-opacity:1;filter:url(#filter7616)" />
          <rect
             transform="matrix(0.73665912,-0.29803484,0.29803484,0.73665912,-60.696061,66.692011)"
             y="221.07404"
             x="-10.961308"
             height="2.7403271"
             width="8.8351936"
             id="rect7353-9-4"
             style="color:#000000;display:inline;overflow:visible;visibility:visible;opacity:0.43600003;fill:#1c1c1c;fill-opacity:0.26811595;fill-rule:nonzero;stroke:none;stroke-width:24.92173004;stroke-linecap:round;stroke-linejoin:miter;stroke-miterlimit:4;stroke-dasharray:none;stroke-dashoffset:0;stroke-opacity:1;marker:none;filter:url(#filter7479-6-2);enable-background:accumulate" />
          <rect
             transform="matrix(0.18133133,-0.77369914,0.77369914,0.18133133,-168.34334,178.50989)"
             y="221.07404"
             x="-10.961308"
             height="2.7403271"
             width="8.8351936"
             id="rect7353-9-4-3"
             style="color:#000000;display:inline;overflow:visible;visibility:visible;opacity:0.43600003;fill:#1c1c1c;fill-opacity:0.26811595;fill-rule:nonzero;stroke:none;stroke-width:24.92173004;stroke-linecap:round;stroke-linejoin:miter;stroke-miterlimit:4;stroke-dasharray:none;stroke-dashoffset:0;stroke-opacity:1;marker:none;filter:url(#filter7479-6-2-8);enable-background:accumulate" />
        </g>
      </g>
    </g>
  </g>
</svg>
