<?xml version="1.0" encoding="UTF-8" standalone="no"?>
<!-- Created with Inkscape (http://www.inkscape.org/) -->

<svg
   xmlns:dc="http://purl.org/dc/elements/1.1/"
   xmlns:cc="http://creativecommons.org/ns#"
   xmlns:rdf="http://www.w3.org/1999/02/22-rdf-syntax-ns#"
   xmlns:svg="http://www.w3.org/2000/svg"
   xmlns="http://www.w3.org/2000/svg"
   xmlns:sodipodi="http://sodipodi.sourceforge.net/DTD/sodipodi-0.dtd"
   xmlns:inkscape="http://www.inkscape.org/namespaces/inkscape"
   id="svg7384"
   style="enable-background:new"
   height="16"
   width="16"
   version="1.1"
   inkscape:version="0.92.4 5da689c313, 2019-01-14"
   sodipodi:docname="gpm-brightness-kbd-disabled.svg">
  <sodipodi:namedview
     pagecolor="#ffffff"
     bordercolor="#666666"
     borderopacity="1"
     objecttolerance="10"
     gridtolerance="10"
     guidetolerance="10"
     inkscape:pageopacity="0"
     inkscape:pageshadow="2"
     inkscape:window-width="1920"
     inkscape:window-height="1017"
     id="namedview7999"
     showgrid="true"
     inkscape:zoom="3.6404951"
     inkscape:cx="-45.304688"
     inkscape:cy="5.9545125"
     inkscape:current-layer="svg7384"
     showguides="true"
     inkscape:guide-bbox="true"
     inkscape:window-x="0"
     inkscape:window-y="26"
     inkscape:window-maximized="1">
    <inkscape:grid
       type="xygrid"
       id="grid817" />
    <sodipodi:guide
       position="3.2679491,8.0000001"
       orientation="0,1"
       id="guide833"
       inkscape:locked="false" />
    <sodipodi:guide
       position="12.732051,8.0000001"
       orientation="1,0"
       id="guide835"
       inkscape:locked="false" />
    <sodipodi:guide
       position="3.2679491,8.0000001"
       orientation="1,0"
       id="guide837"
       inkscape:locked="false" />
  </sodipodi:namedview>
  <metadata
     id="metadata90">
    <rdf:RDF>
      <cc:Work
         rdf:about="">
        <dc:format>image/svg+xml</dc:format>
        <dc:type
           rdf:resource="http://purl.org/dc/dcmitype/StillImage" />
        <dc:title>Paper Symbolic Icon Theme</dc:title>
      </cc:Work>
    </rdf:RDF>
  </metadata>
  <title
     id="title8473">Paper Symbolic Icon Theme</title>
  <defs
     id="defs7386">
    <filter
       id="filter7554"
       color-interpolation-filters="sRGB">
      <feBlend
         id="feBlend7556"
         in2="BackgroundImage"
         mode="darken" />
    </filter>
  </defs>
  <path
     style="opacity:1;fill:#000000;fill-opacity:0.34509805;stroke:none;stroke-width:1;stroke-miterlimit:4;stroke-dasharray:none;stroke-opacity:1"
     d="M 7.0449219 1 C 7.0197019 1 7 1.0197019 7 1.0449219 L 7 6.9550781 C 7 6.9802981 7.0197019 7 7.0449219 7 L 8.9550781 7 C 8.9802981 7 9 6.9802981 9 6.9550781 L 9 1.0449219 C 9 1.0197019 8.9802981 1 8.9550781 1 L 7.0449219 1 z M 1.9609375 1.8261719 L 0.30664062 2.78125 C 0.28479945 2.79386 0.27840562 2.8219088 0.29101562 2.84375 L 3.2460938 7.9609375 C 3.2587038 7.9827787 3.2847994 7.9891725 3.3066406 7.9765625 L 4.9609375 7.0234375 C 4.9827787 7.0108275 4.9891725 6.9827787 4.9765625 6.9609375 L 2.0234375 1.84375 C 2.0108275 1.8219088 1.9827787 1.8135619 1.9609375 1.8261719 z M 14.039062 1.8261719 C 14.017221 1.8135623 13.989173 1.8219088 13.976562 1.84375 L 11.023438 6.9609375 C 11.010827 6.9827787 11.017531 7.0103118 11.039062 7.0234375 L 12.669922 8.0175781 C 12.691454 8.0307039 12.732422 8 12.732422 8 L 15.708984 2.84375 C 15.721594 2.8219088 15.715201 2.79386 15.693359 2.78125 L 14.039062 1.8261719 z M 1.0449219 9 C 1.0197018 9 1 9.0197018 1 9.0449219 L 1 10 L 0.052734375 10 C 0.023311006 10 5.2596606e-18 10.023311 0 10.052734 L 0 12.947266 C 9.2518585e-18 12.976689 0.023311006 13 0.052734375 13 L 15.947266 13 C 15.976689 13 16 12.976689 16 12.947266 L 16 10.052734 C 16 10.023311 15.976689 10 15.947266 10 L 15 10 L 15 9.0449219 C 15 9.0197018 14.980298 9 14.955078 9 L 9.0449219 9 C 9.0197018 9 9 9.0197018 9 9.0449219 L 9 10 L 7 10 L 7 9.0449219 C 7 9.0197018 6.9802982 9 6.9550781 9 L 1.0449219 9 z "
     id="rect819" />
</svg>
