<?xml version="1.0" encoding="UTF-8" standalone="no"?>
<!-- Created with Inkscape (http://www.inkscape.org/) -->

<svg
   xmlns:dc="http://purl.org/dc/elements/1.1/"
   xmlns:cc="http://creativecommons.org/ns#"
   xmlns:rdf="http://www.w3.org/1999/02/22-rdf-syntax-ns#"
   xmlns:svg="http://www.w3.org/2000/svg"
   xmlns="http://www.w3.org/2000/svg"
   xmlns:xlink="http://www.w3.org/1999/xlink"
   xmlns:sodipodi="http://sodipodi.sourceforge.net/DTD/sodipodi-0.dtd"
   xmlns:inkscape="http://www.inkscape.org/namespaces/inkscape"
   version="1.1"
   id="svg2"
   width="128"
   height="128"
   viewBox="0 0 128 128"
   sodipodi:docname="4kslideshowmaker.svg"
   inkscape:version="0.92.4 5da689c313, 2019-01-14">
  <metadata
     id="metadata8">
    <rdf:RDF>
      <cc:Work
         rdf:about="">
        <dc:format>image/svg+xml</dc:format>
        <dc:type
           rdf:resource="http://purl.org/dc/dcmitype/StillImage" />
        <dc:title></dc:title>
      </cc:Work>
    </rdf:RDF>
  </metadata>
  <defs
     id="defs6">
    <linearGradient
       inkscape:collect="always"
       id="linearGradient4541">
      <stop
         style="stop-color:#f40046;stop-opacity:1"
         offset="0"
         id="stop4537" />
      <stop
         style="stop-color:#ef7559;stop-opacity:1"
         offset="1"
         id="stop4539" />
    </linearGradient>
    <linearGradient
       inkscape:collect="always"
       id="linearGradient1078">
      <stop
         style="stop-color:#cccdd1;stop-opacity:1;"
         offset="0"
         id="stop1074" />
      <stop
         style="stop-color:#f7f9f9;stop-opacity:1"
         offset="1"
         id="stop1076" />
    </linearGradient>
    <linearGradient
       inkscape:collect="always"
       xlink:href="#linearGradient1078"
       id="linearGradient1080"
       x1="701.81012"
       y1="398.37137"
       x2="699.27539"
       y2="220.52734"
       gradientUnits="userSpaceOnUse"
       gradientTransform="matrix(0.66355071,0,0,0.66355071,-399.67109,-144.99254)" />
    <linearGradient
       inkscape:collect="always"
       xlink:href="#linearGradient4541"
       id="linearGradient4543"
       x1="66.516502"
       y1="120.59479"
       x2="64.333595"
       y2="5.9833865"
       gradientUnits="userSpaceOnUse" />
    <filter
       filterUnits="objectBoundingBox"
       color-interpolation-filters="sRGB"
       y="-200%"
       x="-200%"
       height="400%"
       width="400%"
       id="a">
      <feGaussianBlur
         id="feGaussianBlur837"
         stdDeviation="4.294"
         in="SourceGraphic" />
      <feOffset
         id="feOffset839"
         result="pf_100_offsetBlur"
         dy="4" />
      <feFlood
         id="feFlood841"
         flood-opacity=".4" />
      <feComposite
         id="feComposite843"
         result="pf_100_dropShadow"
         operator="in"
         in2="pf_100_offsetBlur" />
      <feBlend
         id="feBlend845"
         in2="pf_100_dropShadow"
         in="SourceGraphic" />
    </filter>
    <filter
       filterUnits="objectBoundingBox"
       color-interpolation-filters="sRGB"
       y="-200%"
       x="-200%"
       height="400%"
       width="400%"
       id="hBYla7m5PD9vyEZfG7pDkAts6vNnGLHv">
      <feGaussianBlur
         id="feGaussianBlur926"
         stdDeviation="4.294"
         in="SourceGraphic" />
      <feOffset
         id="feOffset928"
         result="pf_100_offsetBlur"
         dy="4"
         dx="0" />
      <feFlood
         id="feFlood930"
         flood-opacity=".4" />
      <feComposite
         id="feComposite932"
         result="pf_100_dropShadow"
         operator="in"
         in2="pf_100_offsetBlur" />
      <feBlend
         id="feBlend934"
         mode="normal"
         in2="pf_100_dropShadow"
         in="SourceGraphic" />
    </filter>
  </defs>
  <sodipodi:namedview
     pagecolor="#ffffff"
     bordercolor="#666666"
     borderopacity="1"
     objecttolerance="10"
     gridtolerance="10"
     guidetolerance="10"
     inkscape:pageopacity="0"
     inkscape:pageshadow="2"
     inkscape:window-width="1920"
     inkscape:window-height="1024"
     id="namedview4"
     showgrid="false"
     inkscape:zoom="2.528"
     inkscape:cx="-61.221417"
     inkscape:cy="16.39426"
     inkscape:window-x="0"
     inkscape:window-y="30"
     inkscape:window-maximized="1"
     inkscape:current-layer="svg2" />
  <path
     id="path850-9"
     d="m 77.389399,29.409666 c -3.578841,0 -7.253428,4.949255 -7.253428,14.506856 0,8.704113 2.901371,14.506851 2.901371,14.506851 0,0 23.210971,-2.90137 23.210971,-14.506851 0,-8.704114 -8.172679,-15.772821 -11.605486,-8.704114 -1.295946,-3.887837 -3.788223,-5.802742 -7.253428,-5.802742 z M 44.02363,32.311037 c -8.704114,0 -15.772821,8.172679 -8.704114,11.605485 -3.887837,1.295945 -5.802742,3.788223 -5.802742,7.253428 0,3.578841 4.949256,7.253423 14.506856,7.253423 8.704113,0 14.506856,-2.90137 14.506856,-2.90137 0,0 -2.901371,-23.210966 -14.506856,-23.210966 z m 11.605485,37.717826 c 0,0 -23.21097,2.90137 -23.21097,14.50685 0,8.70412 8.172679,15.772817 11.605485,8.70412 1.295946,3.887831 3.788223,5.802741 7.253428,5.802741 3.578841,0 7.253428,-4.949261 7.253428,-14.506861 0,-8.70411 -2.901371,-14.50685 -2.901371,-14.50685 z m 29.013712,0 c -8.704113,0 -14.506856,2.90137 -14.506856,2.90137 0,0 2.901371,23.21097 14.506856,23.21097 8.704115,0 15.772823,-8.17268 8.704115,-11.60549 3.887837,-1.29594 5.802742,-3.78822 5.802742,-7.25342 0,-3.57884 -4.949255,-7.25343 -14.506857,-7.25343 z"
     inkscape:connector-curvature="0"
     style="isolation:isolate;fill:#f9f9f9;stroke-width:0.48356187" />
  <path
     style="fill:#000000;stroke-width:1.33333337"
     d=""
     id="path849"
     inkscape:connector-curvature="0" />
  <path
     style="fill:#000000;stroke-width:1.33333337"
     d=""
     id="path847"
     inkscape:connector-curvature="0" />
  <circle
     id="path12-3"
     cx="64.333229"
     cy="64.22612"
     r="60.565502"
     style="fill:url(#linearGradient4543);fill-opacity:1;stroke:#cccdd1;stroke-width:4.64485502;stroke-miterlimit:4;stroke-dasharray:none;stroke-opacity:1" />
  <path
     style="color:#000000;font-style:normal;font-variant:normal;font-weight:normal;font-stretch:normal;font-size:medium;line-height:normal;font-family:sans-serif;font-variant-ligatures:normal;font-variant-position:normal;font-variant-caps:normal;font-variant-numeric:normal;font-variant-alternates:normal;font-feature-settings:normal;text-indent:0;text-align:start;text-decoration:none;text-decoration-line:none;text-decoration-style:solid;text-decoration-color:#000000;letter-spacing:normal;word-spacing:normal;text-transform:none;writing-mode:lr-tb;direction:ltr;text-orientation:mixed;dominant-baseline:auto;baseline-shift:baseline;text-anchor:start;white-space:normal;shape-padding:0;clip-rule:nonzero;display:inline;overflow:visible;visibility:visible;opacity:1;isolation:auto;mix-blend-mode:normal;color-interpolation:sRGB;color-interpolation-filters:linearRGB;solid-color:#000000;solid-opacity:1;vector-effect:none;fill:url(#linearGradient1080);fill-opacity:1;fill-rule:nonzero;stroke:none;stroke-width:4.64485502;stroke-linecap:butt;stroke-linejoin:miter;stroke-miterlimit:4;stroke-dasharray:none;stroke-dashoffset:0;stroke-opacity:1;color-rendering:auto;image-rendering:auto;shape-rendering:auto;text-rendering:auto;enable-background:accumulate"
     d="m 64.333592,1.3385313 c -34.704539,0 -62.8882778,28.1824517 -62.8882778,62.8869837 0,34.704538 28.1837388,62.888275 62.8882778,62.888275 34.704538,0 62.886978,-28.183737 62.886978,-62.888275 0,-34.704532 -28.18244,-62.8869837 -62.886978,-62.8869837 z m 0,4.644855 c 32.194272,0 58.242128,26.0478627 58.242128,58.2421287 0,32.194272 -26.047856,58.243425 -58.242128,58.243425 -32.194267,0 -58.2434228,-26.049153 -58.2434228,-58.243425 0,-32.194266 26.0491558,-58.2421287 58.2434228,-58.2421287 z"
     id="circle1062"
     inkscape:connector-curvature="0" />
  <g
     id="g844" />
  <path
     inkscape:connector-curvature="0"
     style="isolation:isolate;fill:#ffffff;fill-opacity:1;stroke-width:0.50894588"
     d="m 62.374978,27.327703 v 3.882701 H 25.487334 v 3.8827 h 1.940357 v 46.1272 h -1.940357 v 3.882697 h 34.962195 v 3.559644 l -9.141141,9.141142 c -0.491133,0.49164 -0.682639,1.20842 -0.502981,1.87972 0.180166,0.670793 0.703959,1.194593 1.374749,1.374753 0.6713,0.17966 1.387591,-0.0118 1.878723,-0.50298 l 6.39065,-6.390649 v 3.073546 c 0,1.06777 0.874578,1.94135 1.942346,1.94135 1.067769,0 1.941349,-0.87358 1.941349,-1.94135 v -3.073546 l 6.390651,6.390649 c 0.759855,0.75833 1.99064,0.75833 2.750496,0 0.760365,-0.760363 0.760365,-1.990623 0,-2.751493 l -9.141147,-9.141142 v -3.559644 h 38.845896 v -3.882697 h -1.94035 v -46.1272 h 1.94035 v -3.8827 H 66.258674 V 27.327703 Z M 31.311385,43.105026 H 97.35507 V 61.083143 C 94.788604,57.413683 91.925208,55.5742 88.762628,55.5742 c -7.634189,0 -7.25248,12.469174 -14.886668,12.341938 -4.835495,-0.08041 -5.316958,-8.193011 -10.306155,-8.143134 -4.06037,0.04021 -5.598405,5.980114 -9.288262,5.852878 -5.240107,-0.180676 -8.073918,-5.63963 -13.232593,-5.216696 -2.727838,0.223875 -5.974159,1.830612 -9.737565,4.81411 z m 21.443321,3.817094 a 5.5984047,5.5984047 0 0 0 -5.598405,5.598405 5.5984047,5.5984047 0 0 0 5.598405,5.598405 5.5984047,5.5984047 0 0 0 5.598404,-5.598405 5.5984047,5.5984047 0 0 0 -5.598404,-5.598405 z"
     id="path961-6" />
</svg>
