<?xml version="1.0" encoding="UTF-8" standalone="no"?>
<!-- Created with Inkscape (http://www.inkscape.org/) -->

<svg
   xmlns:dc="http://purl.org/dc/elements/1.1/"
   xmlns:cc="http://creativecommons.org/ns#"
   xmlns:rdf="http://www.w3.org/1999/02/22-rdf-syntax-ns#"
   xmlns:svg="http://www.w3.org/2000/svg"
   xmlns="http://www.w3.org/2000/svg"
   xmlns:xlink="http://www.w3.org/1999/xlink"
   xmlns:sodipodi="http://sodipodi.sourceforge.net/DTD/sodipodi-0.dtd"
   xmlns:inkscape="http://www.inkscape.org/namespaces/inkscape"
   version="1.1"
   id="svg2"
   width="128"
   height="128"
   viewBox="0 0 128 128"
   sodipodi:docname="7z.svg"
   inkscape:version="0.92.2 (5c3e80d, 2017-08-06)">
  <metadata
     id="metadata8">
    <rdf:RDF>
      <cc:Work
         rdf:about="">
        <dc:format>image/svg+xml</dc:format>
        <dc:type
           rdf:resource="http://purl.org/dc/dcmitype/StillImage" />
        <dc:title></dc:title>
      </cc:Work>
    </rdf:RDF>
  </metadata>
  <defs
     id="defs6">
    <linearGradient
       inkscape:collect="always"
       id="linearGradient1078">
      <stop
         style="stop-color:#cccdd1;stop-opacity:1;"
         offset="0"
         id="stop1074" />
      <stop
         style="stop-color:#f7f9f9;stop-opacity:1"
         offset="1"
         id="stop1076" />
    </linearGradient>
    <linearGradient
       inkscape:collect="always"
       id="linearGradient972">
      <stop
         style="stop-color:#ffffff;stop-opacity:1;"
         offset="0"
         id="stop968" />
      <stop
         style="stop-color:#ffffff;stop-opacity:0;"
         offset="1"
         id="stop970" />
    </linearGradient>
    <linearGradient
       id="linearGradient821"
       inkscape:collect="always">
      <stop
         id="stop817"
         offset="0"
         style="stop-color:#d87aa7;stop-opacity:1" />
      <stop
         id="stop819"
         offset="1"
         style="stop-color:#d16050;stop-opacity:1" />
    </linearGradient>
    <linearGradient
       gradientUnits="userSpaceOnUse"
       y2="121.01225"
       x2="68.286613"
       y1="23.819031"
       x1="68.462769"
       id="linearGradient823"
       xlink:href="#linearGradient821"
       inkscape:collect="always"
       gradientTransform="matrix(1.4256904,0,0,1.4256904,600.96896,-376.16693)" />
    <linearGradient
       inkscape:collect="always"
       xlink:href="#linearGradient972"
       id="linearGradient974"
       x1="664.41205"
       y1="315.3017"
       x2="683.90033"
       y2="315.69727"
       gradientUnits="userSpaceOnUse"
       gradientTransform="translate(0,-594)" />
    <linearGradient
       inkscape:collect="always"
       xlink:href="#linearGradient972"
       id="linearGradient982"
       gradientUnits="userSpaceOnUse"
       x1="751.04181"
       y1="315.3017"
       x2="683.90033"
       y2="315.69727"
       gradientTransform="translate(0,-594)" />
    <filter
       inkscape:collect="always"
       style="color-interpolation-filters:sRGB"
       id="filter994"
       x="-0.019704174"
       width="1.0394084"
       y="-0.0086269369"
       height="1.0172539">
      <feGaussianBlur
         inkscape:collect="always"
         stdDeviation="0.57245241"
         id="feGaussianBlur996" />
    </filter>
    <filter
       inkscape:collect="always"
       style="color-interpolation-filters:sRGB"
       id="filter1040"
       x="-0.04729002"
       width="1.0945801"
       y="-0.020704648"
       height="1.0414093">
      <feGaussianBlur
         inkscape:collect="always"
         stdDeviation="1.3738858"
         id="feGaussianBlur1042" />
    </filter>
    <filter
       inkscape:collect="always"
       style="color-interpolation-filters:sRGB"
       id="filter1048"
       x="-0.010748078"
       width="1.0214962"
       y="-0.013582015"
       height="1.027164">
      <feGaussianBlur
         inkscape:collect="always"
         stdDeviation="0.3332032"
         id="feGaussianBlur1050" />
    </filter>
    <linearGradient
       inkscape:collect="always"
       xlink:href="#linearGradient1078"
       id="linearGradient1080"
       x1="701.81012"
       y1="398.37137"
       x2="699.27539"
       y2="220.52734"
       gradientUnits="userSpaceOnUse"
       gradientTransform="translate(0,-594)" />
    <linearGradient
       inkscape:collect="always"
       xlink:href="#linearGradient972"
       id="linearGradient1082"
       gradientUnits="userSpaceOnUse"
       x1="751.04181"
       y1="315.3017"
       x2="683.90033"
       y2="315.69727"
       gradientTransform="translate(0,-594)" />
  </defs>
  <sodipodi:namedview
     pagecolor="#ffffff"
     bordercolor="#666666"
     borderopacity="1"
     objecttolerance="10"
     gridtolerance="10"
     guidetolerance="10"
     inkscape:pageopacity="0"
     inkscape:pageshadow="2"
     inkscape:window-width="1360"
     inkscape:window-height="716"
     id="namedview4"
     showgrid="false"
     inkscape:zoom="1.7875659"
     inkscape:cx="131.27819"
     inkscape:cy="102.69964"
     inkscape:window-x="0"
     inkscape:window-y="24"
     inkscape:window-maximized="1"
     inkscape:current-layer="svg2" />
  <path
     style="fill:#000000;stroke-width:1.33333337"
     d=""
     id="path849"
     inkscape:connector-curvature="0" />
  <path
     style="fill:#000000;stroke-width:1.33333337"
     d=""
     id="path847"
     inkscape:connector-curvature="0" />
  <g
     id="g1093"
     transform="matrix(0.66355071,0,0,0.66355071,-399.67109,249.15658)">
    <circle
       style="fill:url(#linearGradient823);fill-opacity:1;stroke:#cccdd1;stroke-width:7;stroke-miterlimit:4;stroke-dasharray:none;stroke-opacity:1"
       r="91.274864"
       cy="-278.6983"
       cx="699.27484"
       id="path12-3" />
    <path
       sodipodi:nodetypes="ccccc"
       inkscape:connector-curvature="0"
       id="path1044"
       d="m 662.07348,-359.81417 c 3.35652,2.23768 28.2507,49.22895 28.2507,49.22895 l 13.70579,0.55942 32.44636,-50.06808 c -25.17384,-11.83788 -49.9749,-11.74819 -74.40285,0.27971 z"
       style="fill:#d05a8a;fill-opacity:1;stroke:none;stroke-width:1px;stroke-linecap:butt;stroke-linejoin:miter;stroke-opacity:1" />
    <path
       inkscape:connector-curvature="0"
       style="fill:#000000;fill-opacity:0.57512949;stroke:#ffffff;stroke-width:0.2;stroke-miterlimit:4;stroke-dasharray:none;stroke-opacity:1;filter:url(#filter1040)"
       d="m 723.48966,-358.32259 c -0.51826,-0.0298 -1.04867,0.13701 -1.4668,0.50977 -0.83588,0.74595 -0.90838,2.02773 -0.16211,2.86328 0.46597,0.52232 1.16764,0.76755 1.85742,0.64844 0.59875,0.86633 0.75899,1.65552 0.84961,2.66211 l 0.13477,1.49414 c 0.0175,0.19249 0.0975,0.37372 0.22656,0.51758 l 4.08594,4.58007 c 0.33042,0.3707 0.89835,0.4021 1.26953,0.0723 l 3.55273,-3.16797 c 0.36998,-0.33122 0.40289,-0.90104 0.0723,-1.27148 l -4.04102,-4.52735 c -0.14102,-0.15855 -0.33305,-0.26245 -0.54296,-0.29297 l -1.83985,-0.26172 c -0.94625,0.0249 -1.59342,-0.50857 -2.25391,-0.99609 0.31467,-0.72429 0.17906,-1.56416 -0.3457,-2.1543 -0.37257,-0.41828 -0.87823,-0.64593 -1.39648,-0.67578 z m -47.47656,0.8086 c -0.3886,0.0371 -0.76957,0.18789 -1.09376,0.45507 -0.60903,0.50276 -0.87182,1.31223 -0.67187,2.07618 -0.72739,0.38056 -1.44961,0.80832 -2.38086,0.63867 l -1.85742,-0.0234 c -0.21211,-0.002 -0.41838,0.07 -0.58203,0.20508 l -4.6875,3.85547 c -0.38349,0.31541 -0.43791,0.88359 -0.12305,1.26758 l 3.02539,3.67382 c 0.31625,0.38281 0.88231,0.44069 1.26563,0.125 l 4.74023,-3.90039 c 0.14957,-0.12239 0.25593,-0.28902 0.30274,-0.47656 l 0.36328,-1.45703 c 0.24379,-0.98082 0.52167,-1.73566 1.24609,-2.5 0.66339,0.22339 1.39505,0.0893 1.93555,-0.35547 0.86549,-0.71133 0.98906,-1.99024 0.27734,-2.85547 -0.35607,-0.43243 -0.85441,-0.67821 -1.37109,-0.72851 -0.12918,-0.0125 -0.25915,-0.0124 -0.38867,0 z m 38.93945,7.03711 c -0.51806,0.033 -1.02454,0.26496 -1.39453,0.68554 -0.73955,0.84154 -0.65628,2.12213 0.18554,2.86133 0.5257,0.46215 1.2535,0.62155 1.92383,0.41992 0.6991,0.78757 0.95241,1.55083 1.16406,2.53906 l 0.31446,1.4668 c 0.0411,0.18887 0.14157,0.35915 0.28711,0.48633 l 4.60937,4.05273 c 0.37282,0.32803 0.94096,0.29225 1.26953,-0.0801 l 3.14258,-3.57618 c 0.32721,-0.37353 0.29098,-0.94178 -0.082,-1.26953 l -4.55664,-4.00781 c -0.15916,-0.14034 -0.36411,-0.2197 -0.57617,-0.22461 l -1.85742,-0.0371 c -0.93629,0.13915 -1.6448,-0.31075 -2.35938,-0.71484 0.22476,-0.75701 -0.009,-1.57724 -0.60156,-2.09961 -0.42042,-0.37017 -0.95069,-0.53499 -1.46875,-0.50195 z m -31.70313,1.97656 c -0.39045,-0.0102 -0.78649,0.0923 -1.14062,0.31836 -0.6656,0.4254 -1.02213,1.19991 -0.91602,1.98242 -0.76806,0.28987 -1.53749,0.62667 -2.4414,0.3457 l -1.8418,-0.24804 c -0.2103,-0.0276 -0.42473,0.0205 -0.60352,0.13476 l -5.11718,3.26172 c -0.41879,0.26674 -0.5415,0.82293 -0.27539,1.24219 l 2.55664,4.01562 c 0.26763,0.41831 0.8235,0.54047 1.24218,0.27344 l 5.17774,-3.29883 c 0.1633,-0.10337 0.28782,-0.25716 0.35742,-0.4375 l 0.53516,-1.40039 c 0.36058,-0.94413 0.72754,-1.65893 1.53906,-2.33008 0.63152,0.30197 1.37649,0.25505 1.9668,-0.12109 0.94514,-0.60148 1.22295,-1.85391 0.62109,-2.79883 -0.30118,-0.47231 -0.76655,-0.77861 -1.27344,-0.89062 -0.12672,-0.028 -0.25657,-0.0454 -0.38672,-0.0488 z m 24.65235,7.38672 c -0.65025,0.0344 -1.27221,0.38028 -1.63282,0.98047 -0.57646,0.96063 -0.2636,2.20715 0.69727,2.7832 0.60013,0.36027 1.34356,0.38509 1.9668,0.0664 0.82912,0.64928 1.21594,1.35488 1.60156,2.28907 l 0.57226,1.38672 c 0.0743,0.17843 0.2051,0.32875 0.3711,0.42773 l 5.25976,3.1582 c 0.42564,0.25577 0.97798,0.11859 1.23438,-0.30664 l 2.45117,-4.08203 c 0.25483,-0.4262 0.11723,-0.9789 -0.30859,-1.23437 l -5.20313,-3.12305 c -0.18177,-0.10948 -0.39598,-0.15239 -0.60547,-0.11914 l -1.83593,0.29883 c -0.89611,0.30495 -1.67176,-0.012 -2.44727,-0.28125 0.0852,-0.78507 -0.29432,-1.54946 -0.9707,-1.95703 -0.36003,-0.21651 -0.76025,-0.30776 -1.15039,-0.28711 z m -19.32032,2.95898 c -0.19878,0.017 -0.39927,0.0632 -0.59375,0.14258 -0.73084,0.29911 -1.22171,0.99631 -1.25781,1.78516 -0.80761,0.14721 -1.6241,0.341 -2.46289,-0.0977 l -1.76758,-0.57617 c -0.20193,-0.0649 -0.42078,-0.0549 -0.61718,0.0254 l -5.61914,2.28906 c -0.46,0.1872 -0.68066,0.71166 -0.49415,1.17188 l 1.79688,4.41015 c 0.18822,0.45956 0.71206,0.67972 1.17187,0.49219 l 5.68164,-2.31445 c 0.17922,-0.0724 0.33088,-0.20226 0.43165,-0.36719 l 0.77929,-1.28125 c 0.52421,-0.86407 1.01478,-1.50302 1.9336,-2.01758 0.56704,0.41045 1.30488,0.50038 1.95312,0.23633 1.03781,-0.42201 1.53769,-1.60691 1.11524,-2.64453 -0.26439,-0.64836 -0.8256,-1.08507 -1.4629,-1.21875 -0.19118,-0.0401 -0.3891,-0.0522 -0.58789,-0.0352 z m 13.19727,7.33203 c -0.78958,0.0377 -1.51882,0.5375 -1.80859,1.32617 -0.3858,1.05179 0.15508,2.21621 1.20703,2.60157 0.65711,0.24116 1.393,0.12726 1.94531,-0.30274 0.9363,0.48202 1.44972,1.10212 2.00391,1.94727 l 0.82031,1.2539 c 0.10645,0.16131 0.26368,0.28356 0.44531,0.34961 l 5.75977,2.11524 c 0.46609,0.17129 0.9823,-0.0674 1.15429,-0.5332 l 1.64063,-4.47071 c 0.17026,-0.46648 -0.0689,-0.98138 -0.53516,-1.15234 l -5.69531,-2.0918 c -0.1991,-0.0734 -0.41767,-0.0739 -0.61719,-0.002 l -1.74804,0.63672 c -0.8229,0.4678 -1.64477,0.30234 -2.45704,0.18359 -0.0637,-0.78711 -0.57943,-1.46498 -1.32031,-1.73828 -0.26285,-0.0967 -0.53173,-0.13562 -0.79492,-0.12305 z m -8.53125,3.76953 c -0.13458,-3.2e-4 -0.27092,0.0134 -0.4082,0.041 -0.77401,0.15654 -1.38873,0.74756 -1.57227,1.51562 -0.82087,-0.007 -1.65694,0.0298 -2.39844,-0.55859 l -1.63086,-0.89648 c -0.0931,-0.0508 -0.19359,-0.0839 -0.29687,-0.0996 -0.10328,-0.0157 -0.20851,-0.0132 -0.3125,0.008 l -5.94922,1.19336 c -0.48695,0.0975 -0.80188,0.56958 -0.70508,1.05664 l 0.72461,3.61719 c 0.448,-0.19476 0.90298,-0.37685 1.36719,-0.53516 2.43738,-0.83122 5.07937,-1.25782 7.08203,-1.8125 0.0795,-0.021 0.16174,-0.0323 0.24414,-0.0293 0.47583,0.015 0.80295,0.41402 0.79297,0.83985 0.44476,-0.39219 0.92288,-0.70488 1.57422,-0.92188 0.47988,0.50965 1.19065,0.73527 1.87695,0.59766 1.09858,-0.21962 1.81188,-1.28824 1.5918,-2.38672 -0.1655,-0.82377 -0.80953,-1.42961 -1.58399,-1.58789 -0.12908,-0.0263 -0.2619,-0.0407 -0.39648,-0.041 z m -2.60352,5.12891 c -0.0803,-0.003 -0.16068,0.006 -0.23828,0.0273 -1.95373,0.54113 -4.53037,0.95863 -6.9082,1.76954 -2.37782,0.81091 -4.63723,2.05147 -5.73242,4.35742 -1.51216,3.18388 -1.49102,6.14883 -0.64258,8.81445 0.84845,2.66562 2.47744,5.05043 4.14844,7.31836 1.58727,2.1543 2.0829,3.83162 2.21093,4.94141 0.12801,1.1098 -0.0762,1.5664 -0.0762,1.5664 -0.36862,0.96462 1.04411,1.55779 1.47461,0.61914 l 0.0176,-0.0391 5.08789,-11.21875 c 0.0453,-0.10077 0.0693,-0.20983 0.0703,-0.32031 l 0.17188,-14.88282 1.07226,-1.73437 c 0.32187,-0.52346 -0.0421,-1.19935 -0.65625,-1.21875 z m 12.26758,0 c -0.6142,0.0194 -0.97812,0.69529 -0.65625,1.21875 l 1.07227,1.73437 0.17187,14.88282 c 10e-4,0.11048 0.025,0.21954 0.0703,0.32031 l 5.08789,11.21875 0.0176,0.0391 c 0.4305,0.93865 1.84323,0.34548 1.47461,-0.61914 0,0 -0.20417,-0.4566 -0.0762,-1.5664 0.12803,-1.10979 0.62367,-2.78711 2.21094,-4.94141 1.671,-2.26793 3.29999,-4.65274 4.14844,-7.31836 0.84844,-2.66562 0.86958,-5.63057 -0.64258,-8.81445 -1.09519,-2.30595 -3.3546,-3.54651 -5.73242,-4.35742 -2.37783,-0.81091 -4.95448,-1.22841 -6.90821,-1.76954 -0.0776,-0.021 -0.15793,-0.0302 -0.23828,-0.0273 z m -8.09179,0.86914 c -1.31715,0 -2.37696,1.05979 -2.37696,2.37695 v 12.04297 c 0,1.31715 2.24937,-0.70999 3.41406,-0.85351 0.53486,-0.0659 1.08188,-0.062 1.61719,0 1.23777,0.14339 3.63867,2.17066 3.63867,0.85351 v -12.04297 c 0,-1.31716 -1.05979,-2.37695 -2.37695,-2.37695 z m 2.73828,15.13477 c -2.78056,-0.11451 -5.70448,1.98098 -7.41407,6.45898 -1.65547,3.94205 -3.09462,8.12921 -4.32617,12.41016 -2.38269,8.2824 -3.99352,16.91257 -4.91601,24.77929 -1.87728,12.04705 -4.9784,29.11172 8.13281,34.84766 2.20689,0.96547 4.80439,1.73572 8.01953,1.91797 5.86774,0.1734 12.47226,-2.95068 15.63672,-9.2793 3.88441,-7.523 0.64603,-33.636 -5.38867,-54.88476 -0.46367,-1.63261 -0.98946,-3.25959 -1.53125,-4.84766 -0.59397,-1.74104 -1.20848,-3.43635 -1.78321,-5.04297 -1.19502,-4.07868 -3.74493,-6.2488 -6.42968,-6.35937 z m -0.54102,51.1582 a 11.520966,11.520966 0 0 1 11.51953,11.52148 11.520966,11.520966 0 0 1 -11.51953,11.51953 11.520966,11.520966 0 0 1 -11.52148,-11.51953 11.520966,11.520966 0 0 1 11.52148,-11.52148 z m -12.73828,27.52734 c -0.49657,-1.7e-4 -0.89947,0.40186 -0.90039,0.89844 v 4.76172 c 9.1e-4,0.49658 0.40382,0.89861 0.90039,0.89844 h 6.13672 c 0.19327,5.9e-4 0.38159,-0.061 0.53711,-0.17578 l 1.20508,-0.89454 c 0.81149,-0.6024 1.50573,-1.00688 2.55078,-1.13671 0.3703,0.59399 1.02074,0.95501 1.7207,0.95507 1.03387,7.1e-4 1.8781,-0.7756 2.00391,-1.77539 -0.46161,0.0238 -0.92197,0.0349 -1.37696,0.0215 -3.41565,-0.19362 -6.175,-1.01143 -8.51953,-2.03711 -1.00964,-0.44171 -1.91819,-0.95407 -2.7539,-1.51563 z m 16.31641,5.08985 c -0.21218,-2.6e-4 -0.41763,0.0745 -0.58008,0.21093 l -1.41992,1.19922 c -0.61128,0.72273 -1.4407,0.85108 -2.24414,1.01953 -0.33106,-0.71694 -1.04821,-1.17649 -1.83789,-1.17773 -1.12032,-7.7e-4 -2.02899,0.90703 -2.0293,2.02734 3e-4,1.12031 0.90899,2.02812 2.0293,2.02735 0.69995,-6e-5 1.3504,-0.36109 1.7207,-0.95508 1.04505,0.12983 1.74124,0.53627 2.55273,1.13867 l 1.20313,0.89258 c 0.15552,0.11474 0.34384,0.17637 0.53711,0.17578 h 6.13672 c 0.49657,1.7e-4 0.89948,-0.40186 0.90039,-0.89844 v -4.76172 c -9.2e-4,-0.49658 -0.40382,-0.8986 -0.90039,-0.89843 z m -15.61719,5.53906 c -0.49657,-1.7e-4 -0.89947,0.40186 -0.90039,0.89844 v 4.76172 c 9.1e-4,0.49658 0.40382,0.8986 0.90039,0.89843 h 6.13672 c 0.19327,5.9e-4 0.38159,-0.061 0.53711,-0.17578 l 1.20507,-0.89453 c 0.8115,-0.6024 1.50574,-1.00689 2.55079,-1.13672 0.3703,0.59399 1.02074,0.95502 1.7207,0.95508 1.12031,7.7e-4 2.029,-0.90703 2.0293,-2.02734 -3.1e-4,-1.12031 -0.90899,-2.02812 -2.0293,-2.02735 -0.78968,0.001 -1.50683,0.4608 -1.83789,1.17774 -0.80344,-0.16845 -1.63091,-0.2968 -2.24219,-1.01953 l -1.42187,-1.19922 c -0.16245,-0.13644 -0.3679,-0.2112 -0.58008,-0.21094 z m 15.75,5.58008 c -0.21218,-2.6e-4 -0.41763,0.0745 -0.58008,0.21094 l -1.41992,1.19921 c -0.61128,0.72273 -1.4407,0.85108 -2.24414,1.01953 -0.33106,-0.71694 -1.04821,-1.17649 -1.83789,-1.17773 -1.12031,-7.7e-4 -2.02899,0.90703 -2.0293,2.02734 3e-4,1.12031 0.90899,2.02812 2.0293,2.02735 0.69996,-6e-5 1.3504,-0.36109 1.7207,-0.95508 1.04505,0.12983 1.74125,0.53627 2.55273,1.13867 l 1.20313,0.89258 c 0.15552,0.11474 0.34384,0.17637 0.53711,0.17578 h 6.13672 c 0.49657,1.7e-4 0.89948,-0.40186 0.90039,-0.89844 v -4.76171 c -9.2e-4,-0.49658 -0.40382,-0.89861 -0.90039,-0.89844 z m -16.14453,5.39648 c -0.49657,-1.7e-4 -0.89947,0.40186 -0.90039,0.89844 v 4.76172 c 9.1e-4,0.49658 0.40382,0.89861 0.90039,0.89844 h 6.13672 c 0.19327,5.9e-4 0.38159,-0.0611 0.53711,-0.17579 l 1.20312,-0.89453 c 0.81149,-0.6024 1.50768,-1.00689 2.55274,-1.13672 0.37029,0.59399 1.02074,0.95502 1.7207,0.95508 1.12031,7.7e-4 2.029,-0.90703 2.0293,-2.02734 -3.2e-4,-1.12031 -0.90899,-2.02811 -2.0293,-2.02734 -0.78968,0.001 -1.50683,0.46079 -1.83789,1.17773 -0.80344,-0.16845 -1.63286,-0.2968 -2.24414,-1.01953 l -1.41993,-1.19922 c -0.16245,-0.13644 -0.36789,-0.2112 -0.58007,-0.21094 z"
       id="path998" />
    <path
       inkscape:connector-curvature="0"
       style="fill:#e8e8e8;fill-opacity:1;stroke-width:1.2608695"
       d="m 723.48966,-358.32259 c -0.51826,-0.0298 -1.04867,0.13701 -1.4668,0.50977 -0.83588,0.74595 -0.90838,2.02773 -0.16211,2.86328 0.46597,0.52232 1.16764,0.76755 1.85742,0.64844 0.59875,0.86633 0.75899,1.65552 0.84961,2.66211 l 0.13477,1.49414 c 0.0175,0.19249 0.0975,0.37372 0.22656,0.51758 l 4.08594,4.58007 c 0.33042,0.3707 0.89835,0.4021 1.26953,0.0723 l 3.55273,-3.16797 c 0.36998,-0.33122 0.40289,-0.90104 0.0723,-1.27148 l -4.04102,-4.52735 c -0.14102,-0.15855 -0.33305,-0.26245 -0.54296,-0.29297 l -1.83985,-0.26172 c -0.94625,0.0249 -1.59342,-0.50857 -2.25391,-0.99609 0.31467,-0.72429 0.17906,-1.56416 -0.3457,-2.1543 -0.37257,-0.41828 -0.87823,-0.64593 -1.39648,-0.67578 z m -47.47656,0.8086 c -0.3886,0.0371 -0.76957,0.18789 -1.09376,0.45507 -0.60903,0.50276 -0.87182,1.31223 -0.67187,2.07618 -0.72739,0.38056 -1.44961,0.80832 -2.38086,0.63867 l -1.85742,-0.0234 c -0.21211,-0.002 -0.41838,0.07 -0.58203,0.20508 l -4.6875,3.85547 c -0.38349,0.31541 -0.43791,0.88359 -0.12305,1.26758 l 3.02539,3.67382 c 0.31625,0.38281 0.88231,0.44069 1.26563,0.125 l 4.74023,-3.90039 c 0.14957,-0.12239 0.25593,-0.28902 0.30274,-0.47656 l 0.36328,-1.45703 c 0.24379,-0.98082 0.52167,-1.73566 1.24609,-2.5 0.66339,0.22339 1.39505,0.0893 1.93555,-0.35547 0.86549,-0.71133 0.98906,-1.99024 0.27734,-2.85547 -0.35607,-0.43243 -0.85441,-0.67821 -1.37109,-0.72851 -0.12918,-0.0125 -0.25915,-0.0124 -0.38867,0 z m 38.93945,7.03711 c -0.51806,0.033 -1.02454,0.26496 -1.39453,0.68554 -0.73955,0.84154 -0.65628,2.12213 0.18554,2.86133 0.5257,0.46215 1.2535,0.62155 1.92383,0.41992 0.6991,0.78757 0.95241,1.55083 1.16406,2.53906 l 0.31446,1.4668 c 0.0411,0.18887 0.14157,0.35915 0.28711,0.48633 l 4.60937,4.05273 c 0.37282,0.32803 0.94096,0.29225 1.26953,-0.0801 l 3.14258,-3.57618 c 0.32721,-0.37353 0.29098,-0.94178 -0.082,-1.26953 l -4.55664,-4.00781 c -0.15916,-0.14034 -0.36411,-0.2197 -0.57617,-0.22461 l -1.85742,-0.0371 c -0.93629,0.13915 -1.6448,-0.31075 -2.35938,-0.71484 0.22476,-0.75701 -0.009,-1.57724 -0.60156,-2.09961 -0.42042,-0.37017 -0.95069,-0.53499 -1.46875,-0.50195 z m -31.70313,1.97656 c -0.39045,-0.0102 -0.78649,0.0923 -1.14062,0.31836 -0.6656,0.4254 -1.02213,1.19991 -0.91602,1.98242 -0.76806,0.28987 -1.53749,0.62667 -2.4414,0.3457 l -1.8418,-0.24804 c -0.2103,-0.0276 -0.42473,0.0205 -0.60352,0.13476 l -5.11718,3.26172 c -0.41879,0.26674 -0.5415,0.82293 -0.27539,1.24219 l 2.55664,4.01562 c 0.26763,0.41831 0.8235,0.54047 1.24218,0.27344 l 5.17774,-3.29883 c 0.1633,-0.10337 0.28782,-0.25716 0.35742,-0.4375 l 0.53516,-1.40039 c 0.36058,-0.94413 0.72754,-1.65893 1.53906,-2.33008 0.63152,0.30197 1.37649,0.25505 1.9668,-0.12109 0.94514,-0.60148 1.22295,-1.85391 0.62109,-2.79883 -0.30118,-0.47231 -0.76655,-0.77861 -1.27344,-0.89062 -0.12672,-0.028 -0.25657,-0.0454 -0.38672,-0.0488 z m 24.65235,7.38672 c -0.65025,0.0344 -1.27221,0.38028 -1.63282,0.98047 -0.57646,0.96063 -0.2636,2.20715 0.69727,2.7832 0.60013,0.36027 1.34356,0.38509 1.9668,0.0664 0.82912,0.64928 1.21594,1.35488 1.60156,2.28907 l 0.57226,1.38672 c 0.0743,0.17843 0.2051,0.32875 0.3711,0.42773 l 5.25976,3.1582 c 0.42564,0.25577 0.97798,0.11859 1.23438,-0.30664 l 2.45117,-4.08203 c 0.25483,-0.4262 0.11723,-0.9789 -0.30859,-1.23437 l -5.20313,-3.12305 c -0.18177,-0.10948 -0.39598,-0.15239 -0.60547,-0.11914 l -1.83593,0.29883 c -0.89611,0.30495 -1.67176,-0.012 -2.44727,-0.28125 0.0852,-0.78507 -0.29432,-1.54946 -0.9707,-1.95703 -0.36003,-0.21651 -0.76025,-0.30776 -1.15039,-0.28711 z m -19.32032,2.95898 c -0.19878,0.017 -0.39927,0.0632 -0.59375,0.14258 -0.73084,0.29911 -1.22171,0.99631 -1.25781,1.78516 -0.80761,0.14721 -1.6241,0.341 -2.46289,-0.0977 l -1.76758,-0.57617 c -0.20193,-0.0649 -0.42078,-0.0549 -0.61718,0.0254 l -5.61914,2.28906 c -0.46,0.1872 -0.68066,0.71166 -0.49415,1.17188 l 1.79688,4.41015 c 0.18822,0.45956 0.71206,0.67972 1.17187,0.49219 l 5.68164,-2.31445 c 0.17922,-0.0724 0.33088,-0.20226 0.43165,-0.36719 l 0.77929,-1.28125 c 0.52421,-0.86407 1.01478,-1.50302 1.9336,-2.01758 0.56704,0.41045 1.30488,0.50038 1.95312,0.23633 1.03781,-0.42201 1.53769,-1.60691 1.11524,-2.64453 -0.26439,-0.64836 -0.8256,-1.08507 -1.4629,-1.21875 -0.19118,-0.0401 -0.3891,-0.0522 -0.58789,-0.0352 z m 13.19727,7.33203 c -0.78958,0.0377 -1.51882,0.5375 -1.80859,1.32617 -0.3858,1.05179 0.15508,2.21621 1.20703,2.60157 0.65711,0.24116 1.393,0.12726 1.94531,-0.30274 0.9363,0.48202 1.44972,1.10212 2.00391,1.94727 l 0.82031,1.2539 c 0.10645,0.16131 0.26368,0.28356 0.44531,0.34961 l 5.75977,2.11524 c 0.46609,0.17129 0.9823,-0.0674 1.15429,-0.5332 l 1.64063,-4.47071 c 0.17026,-0.46648 -0.0689,-0.98138 -0.53516,-1.15234 l -5.69531,-2.0918 c -0.1991,-0.0734 -0.41767,-0.0739 -0.61719,-0.002 l -1.74804,0.63672 c -0.8229,0.4678 -1.64477,0.30234 -2.45704,0.18359 -0.0637,-0.78711 -0.57943,-1.46498 -1.32031,-1.73828 -0.26285,-0.0967 -0.53173,-0.13562 -0.79492,-0.12305 z m -8.53125,3.76953 c -0.13458,-3.2e-4 -0.27092,0.0134 -0.4082,0.041 -0.77401,0.15654 -1.38873,0.74756 -1.57227,1.51562 -0.82087,-0.007 -1.65694,0.0298 -2.39844,-0.55859 l -1.63086,-0.89648 c -0.0931,-0.0508 -0.19359,-0.0839 -0.29687,-0.0996 -0.10328,-0.0157 -0.20851,-0.0132 -0.3125,0.008 l -5.94922,1.19336 c -0.48695,0.0975 -0.80188,0.56958 -0.70508,1.05664 l 0.72461,3.61719 c 0.448,-0.19476 0.90298,-0.37685 1.36719,-0.53516 2.43738,-0.83122 5.07937,-1.25782 7.08203,-1.8125 0.0795,-0.021 0.16174,-0.0323 0.24414,-0.0293 0.47583,0.015 0.80295,0.41402 0.79297,0.83985 0.44476,-0.39219 0.92288,-0.70488 1.57422,-0.92188 0.47988,0.50965 1.19065,0.73527 1.87695,0.59766 1.09858,-0.21962 1.81188,-1.28824 1.5918,-2.38672 -0.1655,-0.82377 -0.80953,-1.42961 -1.58399,-1.58789 -0.12908,-0.0263 -0.2619,-0.0407 -0.39648,-0.041 z m -2.60352,5.12891 c -0.0803,-0.003 -0.16068,0.006 -0.23828,0.0273 -1.95373,0.54113 -4.53037,0.95863 -6.9082,1.76954 -2.37782,0.81091 -4.63723,2.05147 -5.73242,4.35742 -1.51216,3.18388 -1.49102,6.14883 -0.64258,8.81445 0.84845,2.66562 2.47744,5.05043 4.14844,7.31836 1.58727,2.1543 2.0829,3.83162 2.21093,4.94141 0.12801,1.1098 -0.0762,1.5664 -0.0762,1.5664 -0.36862,0.96462 1.04411,1.55779 1.47461,0.61914 l 0.0176,-0.0391 5.08789,-11.21875 c 0.0453,-0.10077 0.0693,-0.20983 0.0703,-0.32031 l 0.17188,-14.88282 1.07226,-1.73437 c 0.32187,-0.52346 -0.0421,-1.19935 -0.65625,-1.21875 z m 12.26758,0 c -0.6142,0.0194 -0.97812,0.69529 -0.65625,1.21875 l 1.07227,1.73437 0.17187,14.88282 c 10e-4,0.11048 0.025,0.21954 0.0703,0.32031 l 5.08789,11.21875 0.0176,0.0391 c 0.4305,0.93865 1.84323,0.34548 1.47461,-0.61914 0,0 -0.20417,-0.4566 -0.0762,-1.5664 0.12803,-1.10979 0.62367,-2.78711 2.21094,-4.94141 1.671,-2.26793 3.29999,-4.65274 4.14844,-7.31836 0.84844,-2.66562 0.86958,-5.63057 -0.64258,-8.81445 -1.09519,-2.30595 -3.3546,-3.54651 -5.73242,-4.35742 -2.37783,-0.81091 -4.95448,-1.22841 -6.90821,-1.76954 -0.0776,-0.021 -0.15793,-0.0302 -0.23828,-0.0273 z m -8.09179,0.86914 c -1.31715,0 -2.37696,1.05979 -2.37696,2.37695 v 12.04297 c 0,1.31715 2.24937,-0.70999 3.41406,-0.85351 0.53486,-0.0659 1.08188,-0.062 1.61719,0 1.23777,0.14339 3.63867,2.17066 3.63867,0.85351 v -12.04297 c 0,-1.31716 -1.05979,-2.37695 -2.37695,-2.37695 z m 2.73828,15.13477 c -2.78056,-0.11451 -5.70448,1.98098 -7.41407,6.45898 -1.65547,3.94205 -3.09462,8.12921 -4.32617,12.41016 -2.38269,8.2824 -3.99352,16.91257 -4.91601,24.77929 -1.87728,12.04705 -4.9784,29.11172 8.13281,34.84766 2.20689,0.96547 4.80439,1.73572 8.01953,1.91797 5.86774,0.1734 12.47226,-2.95068 15.63672,-9.2793 3.88441,-7.523 0.64603,-33.636 -5.38867,-54.88476 -0.46367,-1.63261 -0.98946,-3.25959 -1.53125,-4.84766 -0.59397,-1.74104 -1.20848,-3.43635 -1.78321,-5.04297 -1.19502,-4.07868 -3.74493,-6.2488 -6.42968,-6.35937 z m -0.54102,51.1582 a 11.520966,11.520966 0 0 1 11.51953,11.52148 11.520966,11.520966 0 0 1 -11.51953,11.51953 11.520966,11.520966 0 0 1 -11.52148,-11.51953 11.520966,11.520966 0 0 1 11.52148,-11.52148 z m -12.73828,27.52734 c -0.49657,-1.7e-4 -0.89947,0.40186 -0.90039,0.89844 v 4.76172 c 9.1e-4,0.49658 0.40382,0.89861 0.90039,0.89844 h 6.13672 c 0.19327,5.9e-4 0.38159,-0.061 0.53711,-0.17578 l 1.20508,-0.89454 c 0.81149,-0.6024 1.50573,-1.00688 2.55078,-1.13671 0.3703,0.59399 1.02074,0.95501 1.7207,0.95507 1.03387,7.1e-4 1.8781,-0.7756 2.00391,-1.77539 -0.46161,0.0238 -0.92197,0.0349 -1.37696,0.0215 -3.41565,-0.19362 -6.175,-1.01143 -8.51953,-2.03711 -1.00964,-0.44171 -1.91819,-0.95407 -2.7539,-1.51563 z m 16.31641,5.08985 c -0.21218,-2.6e-4 -0.41763,0.0745 -0.58008,0.21093 l -1.41992,1.19922 c -0.61128,0.72273 -1.4407,0.85108 -2.24414,1.01953 -0.33106,-0.71694 -1.04821,-1.17649 -1.83789,-1.17773 -1.12032,-7.7e-4 -2.02899,0.90703 -2.0293,2.02734 3e-4,1.12031 0.90899,2.02812 2.0293,2.02735 0.69995,-6e-5 1.3504,-0.36109 1.7207,-0.95508 1.04505,0.12983 1.74124,0.53627 2.55273,1.13867 l 1.20313,0.89258 c 0.15552,0.11474 0.34384,0.17637 0.53711,0.17578 h 6.13672 c 0.49657,1.7e-4 0.89948,-0.40186 0.90039,-0.89844 v -4.76172 c -9.2e-4,-0.49658 -0.40382,-0.8986 -0.90039,-0.89843 z m -15.61719,5.53906 c -0.49657,-1.7e-4 -0.89947,0.40186 -0.90039,0.89844 v 4.76172 c 9.1e-4,0.49658 0.40382,0.8986 0.90039,0.89843 h 6.13672 c 0.19327,5.9e-4 0.38159,-0.061 0.53711,-0.17578 l 1.20507,-0.89453 c 0.8115,-0.6024 1.50574,-1.00689 2.55079,-1.13672 0.3703,0.59399 1.02074,0.95502 1.7207,0.95508 1.12031,7.7e-4 2.029,-0.90703 2.0293,-2.02734 -3.1e-4,-1.12031 -0.90899,-2.02812 -2.0293,-2.02735 -0.78968,0.001 -1.50683,0.4608 -1.83789,1.17774 -0.80344,-0.16845 -1.63091,-0.2968 -2.24219,-1.01953 l -1.42187,-1.19922 c -0.16245,-0.13644 -0.3679,-0.2112 -0.58008,-0.21094 z m 15.75,5.58008 c -0.21218,-2.6e-4 -0.41763,0.0745 -0.58008,0.21094 l -1.41992,1.19921 c -0.61128,0.72273 -1.4407,0.85108 -2.24414,1.01953 -0.33106,-0.71694 -1.04821,-1.17649 -1.83789,-1.17773 -1.12031,-7.7e-4 -2.02899,0.90703 -2.0293,2.02734 3e-4,1.12031 0.90899,2.02812 2.0293,2.02735 0.69996,-6e-5 1.3504,-0.36109 1.7207,-0.95508 1.04505,0.12983 1.74125,0.53627 2.55273,1.13867 l 1.20313,0.89258 c 0.15552,0.11474 0.34384,0.17637 0.53711,0.17578 h 6.13672 c 0.49657,1.7e-4 0.89948,-0.40186 0.90039,-0.89844 v -4.76171 c -9.2e-4,-0.49658 -0.40382,-0.89861 -0.90039,-0.89844 z m -16.14453,5.39648 c -0.49657,-1.7e-4 -0.89947,0.40186 -0.90039,0.89844 v 4.76172 c 9.1e-4,0.49658 0.40382,0.89861 0.90039,0.89844 h 6.13672 c 0.19327,5.9e-4 0.38159,-0.0611 0.53711,-0.17579 l 1.20312,-0.89453 c 0.81149,-0.6024 1.50768,-1.00689 2.55274,-1.13672 0.37029,0.59399 1.02074,0.95502 1.7207,0.95508 1.12031,7.7e-4 2.029,-0.90703 2.0293,-2.02734 -3.2e-4,-1.12031 -0.90899,-2.02811 -2.0293,-2.02734 -0.78968,0.001 -1.50683,0.46079 -1.83789,1.17773 -0.80344,-0.16845 -1.63286,-0.2968 -2.24414,-1.01953 l -1.41993,-1.19922 c -0.16245,-0.13644 -0.36789,-0.2112 -0.58007,-0.21094 z"
       id="path922" />
    <path
       id="path966"
       d="m 723.48966,-358.32259 c -0.51826,-0.0298 -1.04867,0.13701 -1.4668,0.50977 -0.83588,0.74595 -0.90838,2.02773 -0.16211,2.86328 0.46597,0.52232 1.16764,0.76755 1.85742,0.64844 0.59875,0.86633 0.75899,1.65552 0.84961,2.66211 l 0.13477,1.49414 c 0.0175,0.19249 0.0975,0.37372 0.22656,0.51758 l 4.08594,4.58007 c 0.33042,0.3707 0.89835,0.4021 1.26953,0.0723 l 3.55273,-3.16797 c 0.36998,-0.33122 0.40289,-0.90104 0.0723,-1.27148 l -4.04102,-4.52735 c -0.14102,-0.15855 -0.33305,-0.26245 -0.54296,-0.29297 l -1.83985,-0.26172 c -0.94625,0.0249 -1.59342,-0.50857 -2.25391,-0.99609 0.31467,-0.72429 0.17906,-1.56416 -0.3457,-2.1543 -0.37257,-0.41828 -0.87823,-0.64593 -1.39648,-0.67578 z m -47.47656,0.8086 c -0.3886,0.0371 -0.76957,0.18789 -1.09376,0.45507 -0.60903,0.50276 -0.87182,1.31223 -0.67187,2.07618 -0.72739,0.38056 -1.44961,0.80832 -2.38086,0.63867 l -1.85742,-0.0234 c -0.21211,-0.002 -0.41838,0.07 -0.58203,0.20508 l -4.6875,3.85547 c -0.38349,0.31541 -0.43791,0.88359 -0.12305,1.26758 l 3.02539,3.67382 c 0.31625,0.38281 0.88231,0.44069 1.26563,0.125 l 4.74023,-3.90039 c 0.14957,-0.12239 0.25593,-0.28902 0.30274,-0.47656 l 0.36328,-1.45703 c 0.24379,-0.98082 0.52167,-1.73566 1.24609,-2.5 0.66339,0.22339 1.39505,0.0893 1.93555,-0.35547 0.86549,-0.71133 0.98906,-1.99024 0.27734,-2.85547 -0.35607,-0.43243 -0.85441,-0.67821 -1.37109,-0.72851 -0.12918,-0.0125 -0.25915,-0.0124 -0.38867,0 z m 38.93945,7.03711 c -0.51806,0.033 -1.02454,0.26496 -1.39453,0.68554 -0.73955,0.84154 -0.65628,2.12213 0.18554,2.86133 0.5257,0.46215 1.2535,0.62155 1.92383,0.41992 0.6991,0.78757 0.95241,1.55083 1.16406,2.53906 l 0.31446,1.4668 c 0.0411,0.18887 0.14157,0.35915 0.28711,0.48633 l 4.60937,4.05273 c 0.37282,0.32803 0.94096,0.29225 1.26953,-0.0801 l 3.14258,-3.57618 c 0.32721,-0.37353 0.29098,-0.94178 -0.082,-1.26953 l -4.55664,-4.00781 c -0.15916,-0.14034 -0.36411,-0.2197 -0.57617,-0.22461 l -1.85742,-0.0371 c -0.93629,0.13915 -1.6448,-0.31075 -2.35938,-0.71484 0.22476,-0.75701 -0.009,-1.57724 -0.60156,-2.09961 -0.42042,-0.37017 -0.95069,-0.53499 -1.46875,-0.50195 z m -31.70313,1.97656 c -0.39045,-0.0102 -0.78649,0.0923 -1.14062,0.31836 -0.6656,0.4254 -1.02213,1.19991 -0.91602,1.98242 -0.76806,0.28987 -1.53749,0.62667 -2.4414,0.3457 l -1.8418,-0.24804 c -0.2103,-0.0276 -0.42473,0.0205 -0.60352,0.13476 l -5.11718,3.26172 c -0.41879,0.26674 -0.5415,0.82293 -0.27539,1.24219 l 2.55664,4.01562 c 0.26763,0.41831 0.8235,0.54047 1.24218,0.27344 l 5.17774,-3.29883 c 0.1633,-0.10337 0.28782,-0.25716 0.35742,-0.4375 l 0.53516,-1.40039 c 0.36058,-0.94413 0.72754,-1.65893 1.53906,-2.33008 0.63152,0.30197 1.37649,0.25505 1.9668,-0.12109 0.94514,-0.60148 1.22295,-1.85391 0.62109,-2.79883 -0.30118,-0.47231 -0.76655,-0.77861 -1.27344,-0.89062 -0.12672,-0.028 -0.25657,-0.0454 -0.38672,-0.0488 z m 24.65235,7.38672 c -0.65025,0.0344 -1.27221,0.38028 -1.63282,0.98047 -0.57646,0.96063 -0.2636,2.20715 0.69727,2.7832 0.60013,0.36027 1.34356,0.38509 1.9668,0.0664 0.82912,0.64928 1.21594,1.35488 1.60156,2.28907 l 0.57226,1.38672 c 0.0743,0.17843 0.2051,0.32875 0.3711,0.42773 l 5.25976,3.1582 c 0.42564,0.25577 0.97798,0.11859 1.23438,-0.30664 l 2.45117,-4.08203 c 0.25483,-0.4262 0.11723,-0.9789 -0.30859,-1.23437 l -5.20313,-3.12305 c -0.18177,-0.10948 -0.39598,-0.15239 -0.60547,-0.11914 l -1.83593,0.29883 c -0.89611,0.30495 -1.67176,-0.012 -2.44727,-0.28125 0.0852,-0.78507 -0.29432,-1.54946 -0.9707,-1.95703 -0.36003,-0.21651 -0.76025,-0.30776 -1.15039,-0.28711 z m -19.32032,2.95898 c -0.19878,0.017 -0.39927,0.0632 -0.59375,0.14258 -0.73084,0.29911 -1.22171,0.99631 -1.25781,1.78516 -0.80761,0.14721 -1.6241,0.341 -2.46289,-0.0977 l -1.76758,-0.57617 c -0.20193,-0.0649 -0.42078,-0.0549 -0.61718,0.0254 l -5.61914,2.28906 c -0.46,0.1872 -0.68066,0.71166 -0.49415,1.17188 l 1.79688,4.41015 c 0.18822,0.45956 0.71206,0.67972 1.17187,0.49219 l 5.68164,-2.31445 c 0.17922,-0.0724 0.33088,-0.20226 0.43165,-0.36719 l 0.77929,-1.28125 c 0.52421,-0.86407 1.01478,-1.50302 1.9336,-2.01758 0.56704,0.41045 1.30488,0.50038 1.95312,0.23633 1.03781,-0.42201 1.53769,-1.60691 1.11524,-2.64453 -0.26439,-0.64836 -0.8256,-1.08507 -1.4629,-1.21875 -0.19118,-0.0401 -0.3891,-0.0522 -0.58789,-0.0352 z m 13.19727,7.33203 c -0.78958,0.0377 -1.51882,0.5375 -1.80859,1.32617 -0.3858,1.05179 0.15508,2.21621 1.20703,2.60157 0.65711,0.24116 1.393,0.12726 1.94531,-0.30274 0.9363,0.48202 1.44972,1.10212 2.00391,1.94727 l 0.82031,1.2539 c 0.10645,0.16131 0.26368,0.28356 0.44531,0.34961 l 5.75977,2.11524 c 0.46609,0.17129 0.9823,-0.0674 1.15429,-0.5332 l 1.64063,-4.47071 c 0.17026,-0.46648 -0.0689,-0.98138 -0.53516,-1.15234 l -5.69531,-2.0918 c -0.1991,-0.0734 -0.41767,-0.0739 -0.61719,-0.002 l -1.74804,0.63672 c -0.8229,0.4678 -1.64477,0.30234 -2.45704,0.18359 -0.0637,-0.78711 -0.57943,-1.46498 -1.32031,-1.73828 -0.26285,-0.0967 -0.53173,-0.13562 -0.79492,-0.12305 z m -8.53125,3.76953 c -0.13458,-3.2e-4 -0.27092,0.0134 -0.4082,0.041 -0.77401,0.15654 -1.38873,0.74756 -1.57227,1.51562 -0.82087,-0.007 -1.65694,0.0298 -2.39844,-0.55859 l -1.63086,-0.89648 c -0.0931,-0.0508 -0.19359,-0.0839 -0.29687,-0.0996 -0.10328,-0.0157 -0.20851,-0.0132 -0.3125,0.008 l -5.94922,1.19336 c -0.48695,0.0975 -0.80188,0.56958 -0.70508,1.05664 l 0.72461,3.61719 c 0.448,-0.19476 0.90298,-0.37685 1.36719,-0.53516 2.43738,-0.83122 5.07937,-1.25782 7.08203,-1.8125 0.0795,-0.021 0.16174,-0.0323 0.24414,-0.0293 0.47583,0.015 0.80295,0.41402 0.79297,0.83985 0.44476,-0.39219 0.92288,-0.70488 1.57422,-0.92188 0.47988,0.50965 1.19065,0.73527 1.87695,0.59766 1.09858,-0.21962 1.81188,-1.28824 1.5918,-2.38672 -0.1655,-0.82377 -0.80953,-1.42961 -1.58399,-1.58789 -0.12908,-0.0263 -0.2619,-0.0407 -0.39648,-0.041 z m -2.60352,5.12891 c -0.0803,-0.003 -0.16068,0.006 -0.23828,0.0273 -1.95373,0.54113 -4.53037,0.95863 -6.9082,1.76954 -2.37782,0.81091 -4.63723,2.05147 -5.73242,4.35742 -1.51216,3.18388 -1.49102,6.14883 -0.64258,8.81445 0.84845,2.66562 2.47744,5.05043 4.14844,7.31836 1.58727,2.1543 2.0829,3.83162 2.21093,4.94141 0.12801,1.1098 -0.0762,1.5664 -0.0762,1.5664 -0.36862,0.96462 1.04411,1.55779 1.47461,0.61914 l 0.0176,-0.0391 5.08789,-11.21875 c 0.0453,-0.10077 0.0693,-0.20983 0.0703,-0.32031 l 0.17188,-14.88282 1.07226,-1.73437 c 0.32187,-0.52346 -0.0421,-1.19935 -0.65625,-1.21875 z m 12.26758,0 c -0.6142,0.0194 -0.97812,0.69529 -0.65625,1.21875 l 1.07227,1.73437 0.17187,14.88282 c 10e-4,0.11048 0.025,0.21954 0.0703,0.32031 l 5.08789,11.21875 0.0176,0.0391 c 0.4305,0.93865 1.84323,0.34548 1.47461,-0.61914 0,0 -0.20417,-0.4566 -0.0762,-1.5664 0.12803,-1.10979 0.62367,-2.78711 2.21094,-4.94141 1.671,-2.26793 3.29999,-4.65274 4.14844,-7.31836 0.84844,-2.66562 0.86958,-5.63057 -0.64258,-8.81445 -1.09519,-2.30595 -3.3546,-3.54651 -5.73242,-4.35742 -2.37783,-0.81091 -4.95448,-1.22841 -6.90821,-1.76954 -0.0776,-0.021 -0.15793,-0.0302 -0.23828,-0.0273 z m -8.09179,0.86914 c -1.31715,0 -2.37696,1.05979 -2.37696,2.37695 v 12.04297 c 0,1.31715 2.24937,-0.70999 3.41406,-0.85351 0.53486,-0.0659 1.08188,-0.062 1.61719,0 1.23777,0.14339 3.63867,2.17066 3.63867,0.85351 v -12.04297 c 0,-1.31716 -1.05979,-2.37695 -2.37695,-2.37695 z m 2.73828,15.13477 c -2.78056,-0.11451 -5.70448,1.98098 -7.41407,6.45898 -1.65547,3.94205 -3.09462,8.12921 -4.32617,12.41016 -2.38269,8.2824 -3.99352,16.91257 -4.91601,24.77929 -1.87728,12.04705 -4.9784,29.11172 8.13281,34.84766 2.20689,0.96547 4.80439,1.73572 8.01953,1.91797 5.86774,0.1734 12.47226,-2.95068 15.63672,-9.2793 3.88441,-7.523 0.64603,-33.636 -5.38867,-54.88476 -0.46367,-1.63261 -0.98946,-3.25959 -1.53125,-4.84766 -0.59397,-1.74104 -1.20848,-3.43635 -1.78321,-5.04297 -1.19502,-4.07868 -3.74493,-6.2488 -6.42968,-6.35937 z m -0.54102,51.1582 a 11.520966,11.520966 0 0 1 11.51953,11.52148 11.520966,11.520966 0 0 1 -11.51953,11.51953 11.520966,11.520966 0 0 1 -11.52148,-11.51953 11.520966,11.520966 0 0 1 11.52148,-11.52148 z m -12.73828,27.52734 c -0.49657,-1.7e-4 -0.89947,0.40186 -0.90039,0.89844 v 4.76172 c 9.1e-4,0.49658 0.40382,0.89861 0.90039,0.89844 h 6.13672 c 0.19327,5.9e-4 0.38159,-0.061 0.53711,-0.17578 l 1.20508,-0.89454 c 0.81149,-0.6024 1.50573,-1.00688 2.55078,-1.13671 0.3703,0.59399 1.02074,0.95501 1.7207,0.95507 1.03387,7.1e-4 1.8781,-0.7756 2.00391,-1.77539 -0.46161,0.0238 -0.92197,0.0349 -1.37696,0.0215 -3.41565,-0.19362 -6.175,-1.01143 -8.51953,-2.03711 -1.00964,-0.44171 -1.91819,-0.95407 -2.7539,-1.51563 z m 16.31641,5.08985 c -0.21218,-2.6e-4 -0.41763,0.0745 -0.58008,0.21093 l -1.41992,1.19922 c -0.61128,0.72273 -1.4407,0.85108 -2.24414,1.01953 -0.33106,-0.71694 -1.04821,-1.17649 -1.83789,-1.17773 -1.12032,-7.7e-4 -2.02899,0.90703 -2.0293,2.02734 3e-4,1.12031 0.90899,2.02812 2.0293,2.02735 0.69995,-6e-5 1.3504,-0.36109 1.7207,-0.95508 1.04505,0.12983 1.74124,0.53627 2.55273,1.13867 l 1.20313,0.89258 c 0.15552,0.11474 0.34384,0.17637 0.53711,0.17578 h 6.13672 c 0.49657,1.7e-4 0.89948,-0.40186 0.90039,-0.89844 v -4.76172 c -9.2e-4,-0.49658 -0.40382,-0.8986 -0.90039,-0.89843 z m -15.61719,5.53906 c -0.49657,-1.7e-4 -0.89947,0.40186 -0.90039,0.89844 v 4.76172 c 9.1e-4,0.49658 0.40382,0.8986 0.90039,0.89843 h 6.13672 c 0.19327,5.9e-4 0.38159,-0.061 0.53711,-0.17578 l 1.20507,-0.89453 c 0.8115,-0.6024 1.50574,-1.00689 2.55079,-1.13672 0.3703,0.59399 1.02074,0.95502 1.7207,0.95508 1.12031,7.7e-4 2.029,-0.90703 2.0293,-2.02734 -3.1e-4,-1.12031 -0.90899,-2.02812 -2.0293,-2.02735 -0.78968,0.001 -1.50683,0.4608 -1.83789,1.17774 -0.80344,-0.16845 -1.63091,-0.2968 -2.24219,-1.01953 l -1.42187,-1.19922 c -0.16245,-0.13644 -0.3679,-0.2112 -0.58008,-0.21094 z m 15.75,5.58008 c -0.21218,-2.6e-4 -0.41763,0.0745 -0.58008,0.21094 l -1.41992,1.19921 c -0.61128,0.72273 -1.4407,0.85108 -2.24414,1.01953 -0.33106,-0.71694 -1.04821,-1.17649 -1.83789,-1.17773 -1.12031,-7.7e-4 -2.02899,0.90703 -2.0293,2.02734 3e-4,1.12031 0.90899,2.02812 2.0293,2.02735 0.69996,-6e-5 1.3504,-0.36109 1.7207,-0.95508 1.04505,0.12983 1.74125,0.53627 2.55273,1.13867 l 1.20313,0.89258 c 0.15552,0.11474 0.34384,0.17637 0.53711,0.17578 h 6.13672 c 0.49657,1.7e-4 0.89948,-0.40186 0.90039,-0.89844 v -4.76171 c -9.2e-4,-0.49658 -0.40382,-0.89861 -0.90039,-0.89844 z m -16.14453,5.39648 c -0.49657,-1.7e-4 -0.89947,0.40186 -0.90039,0.89844 v 4.76172 c 9.1e-4,0.49658 0.40382,0.89861 0.90039,0.89844 h 6.13672 c 0.19327,5.9e-4 0.38159,-0.0611 0.53711,-0.17579 l 1.20312,-0.89453 c 0.81149,-0.6024 1.50768,-1.00689 2.55274,-1.13672 0.37029,0.59399 1.02074,0.95502 1.7207,0.95508 1.12031,7.7e-4 2.029,-0.90703 2.0293,-2.02734 -3.2e-4,-1.12031 -0.90899,-2.02811 -2.0293,-2.02734 -0.78968,0.001 -1.50683,0.46079 -1.83789,1.17773 -0.80344,-0.16845 -1.63286,-0.2968 -2.24414,-1.01953 l -1.41993,-1.19922 c -0.16245,-0.13644 -0.36789,-0.2112 -0.58007,-0.21094 z"
       style="fill:url(#linearGradient974);fill-opacity:1;stroke-width:1.2608695"
       inkscape:connector-curvature="0" />
    <path
       inkscape:connector-curvature="0"
       style="fill:url(#linearGradient1082);fill-opacity:1;stroke-width:1.2608695"
       d="m 723.48966,-358.32259 c -0.51826,-0.0298 -1.04867,0.13701 -1.4668,0.50977 -0.83588,0.74595 -0.90838,2.02773 -0.16211,2.86328 0.46597,0.52232 1.16764,0.76755 1.85742,0.64844 0.59875,0.86633 0.75899,1.65552 0.84961,2.66211 l 0.13477,1.49414 c 0.0175,0.19249 0.0975,0.37372 0.22656,0.51758 l 4.08594,4.58007 c 0.33042,0.3707 0.89835,0.4021 1.26953,0.0723 l 3.55273,-3.16797 c 0.36998,-0.33122 0.40289,-0.90104 0.0723,-1.27148 l -4.04102,-4.52735 c -0.14102,-0.15855 -0.33305,-0.26245 -0.54296,-0.29297 l -1.83985,-0.26172 c -0.94625,0.0249 -1.59342,-0.50857 -2.25391,-0.99609 0.31467,-0.72429 0.17906,-1.56416 -0.3457,-2.1543 -0.37257,-0.41828 -0.87823,-0.64593 -1.39648,-0.67578 z m -47.47656,0.8086 c -0.3886,0.0371 -0.76957,0.18789 -1.09376,0.45507 -0.60903,0.50276 -0.87182,1.31223 -0.67187,2.07618 -0.72739,0.38056 -1.44961,0.80832 -2.38086,0.63867 l -1.85742,-0.0234 c -0.21211,-0.002 -0.41838,0.07 -0.58203,0.20508 l -4.6875,3.85547 c -0.38349,0.31541 -0.43791,0.88359 -0.12305,1.26758 l 3.02539,3.67382 c 0.31625,0.38281 0.88231,0.44069 1.26563,0.125 l 4.74023,-3.90039 c 0.14957,-0.12239 0.25593,-0.28902 0.30274,-0.47656 l 0.36328,-1.45703 c 0.24379,-0.98082 0.52167,-1.73566 1.24609,-2.5 0.66339,0.22339 1.39505,0.0893 1.93555,-0.35547 0.86549,-0.71133 0.98906,-1.99024 0.27734,-2.85547 -0.35607,-0.43243 -0.85441,-0.67821 -1.37109,-0.72851 -0.12918,-0.0125 -0.25915,-0.0124 -0.38867,0 z m 38.93945,7.03711 c -0.51806,0.033 -1.02454,0.26496 -1.39453,0.68554 -0.73955,0.84154 -0.65628,2.12213 0.18554,2.86133 0.5257,0.46215 1.2535,0.62155 1.92383,0.41992 0.6991,0.78757 0.95241,1.55083 1.16406,2.53906 l 0.31446,1.4668 c 0.0411,0.18887 0.14157,0.35915 0.28711,0.48633 l 4.60937,4.05273 c 0.37282,0.32803 0.94096,0.29225 1.26953,-0.0801 l 3.14258,-3.57618 c 0.32721,-0.37353 0.29098,-0.94178 -0.082,-1.26953 l -4.55664,-4.00781 c -0.15916,-0.14034 -0.36411,-0.2197 -0.57617,-0.22461 l -1.85742,-0.0371 c -0.93629,0.13915 -1.6448,-0.31075 -2.35938,-0.71484 0.22476,-0.75701 -0.009,-1.57724 -0.60156,-2.09961 -0.42042,-0.37017 -0.95069,-0.53499 -1.46875,-0.50195 z m -31.70313,1.97656 c -0.39045,-0.0102 -0.78649,0.0923 -1.14062,0.31836 -0.6656,0.4254 -1.02213,1.19991 -0.91602,1.98242 -0.76806,0.28987 -1.53749,0.62667 -2.4414,0.3457 l -1.8418,-0.24804 c -0.2103,-0.0276 -0.42473,0.0205 -0.60352,0.13476 l -5.11718,3.26172 c -0.41879,0.26674 -0.5415,0.82293 -0.27539,1.24219 l 2.55664,4.01562 c 0.26763,0.41831 0.8235,0.54047 1.24218,0.27344 l 5.17774,-3.29883 c 0.1633,-0.10337 0.28782,-0.25716 0.35742,-0.4375 l 0.53516,-1.40039 c 0.36058,-0.94413 0.72754,-1.65893 1.53906,-2.33008 0.63152,0.30197 1.37649,0.25505 1.9668,-0.12109 0.94514,-0.60148 1.22295,-1.85391 0.62109,-2.79883 -0.30118,-0.47231 -0.76655,-0.77861 -1.27344,-0.89062 -0.12672,-0.028 -0.25657,-0.0454 -0.38672,-0.0488 z m 24.65235,7.38672 c -0.65025,0.0344 -1.27221,0.38028 -1.63282,0.98047 -0.57646,0.96063 -0.2636,2.20715 0.69727,2.7832 0.60013,0.36027 1.34356,0.38509 1.9668,0.0664 0.82912,0.64928 1.21594,1.35488 1.60156,2.28907 l 0.57226,1.38672 c 0.0743,0.17843 0.2051,0.32875 0.3711,0.42773 l 5.25976,3.1582 c 0.42564,0.25577 0.97798,0.11859 1.23438,-0.30664 l 2.45117,-4.08203 c 0.25483,-0.4262 0.11723,-0.9789 -0.30859,-1.23437 l -5.20313,-3.12305 c -0.18177,-0.10948 -0.39598,-0.15239 -0.60547,-0.11914 l -1.83593,0.29883 c -0.89611,0.30495 -1.67176,-0.012 -2.44727,-0.28125 0.0852,-0.78507 -0.29432,-1.54946 -0.9707,-1.95703 -0.36003,-0.21651 -0.76025,-0.30776 -1.15039,-0.28711 z m -19.32032,2.95898 c -0.19878,0.017 -0.39927,0.0632 -0.59375,0.14258 -0.73084,0.29911 -1.22171,0.99631 -1.25781,1.78516 -0.80761,0.14721 -1.6241,0.341 -2.46289,-0.0977 l -1.76758,-0.57617 c -0.20193,-0.0649 -0.42078,-0.0549 -0.61718,0.0254 l -5.61914,2.28906 c -0.46,0.1872 -0.68066,0.71166 -0.49415,1.17188 l 1.79688,4.41015 c 0.18822,0.45956 0.71206,0.67972 1.17187,0.49219 l 5.68164,-2.31445 c 0.17922,-0.0724 0.33088,-0.20226 0.43165,-0.36719 l 0.77929,-1.28125 c 0.52421,-0.86407 1.01478,-1.50302 1.9336,-2.01758 0.56704,0.41045 1.30488,0.50038 1.95312,0.23633 1.03781,-0.42201 1.53769,-1.60691 1.11524,-2.64453 -0.26439,-0.64836 -0.8256,-1.08507 -1.4629,-1.21875 -0.19118,-0.0401 -0.3891,-0.0522 -0.58789,-0.0352 z m 13.19727,7.33203 c -0.78958,0.0377 -1.51882,0.5375 -1.80859,1.32617 -0.3858,1.05179 0.15508,2.21621 1.20703,2.60157 0.65711,0.24116 1.393,0.12726 1.94531,-0.30274 0.9363,0.48202 1.44972,1.10212 2.00391,1.94727 l 0.82031,1.2539 c 0.10645,0.16131 0.26368,0.28356 0.44531,0.34961 l 5.75977,2.11524 c 0.46609,0.17129 0.9823,-0.0674 1.15429,-0.5332 l 1.64063,-4.47071 c 0.17026,-0.46648 -0.0689,-0.98138 -0.53516,-1.15234 l -5.69531,-2.0918 c -0.1991,-0.0734 -0.41767,-0.0739 -0.61719,-0.002 l -1.74804,0.63672 c -0.8229,0.4678 -1.64477,0.30234 -2.45704,0.18359 -0.0637,-0.78711 -0.57943,-1.46498 -1.32031,-1.73828 -0.26285,-0.0967 -0.53173,-0.13562 -0.79492,-0.12305 z m -8.53125,3.76953 c -0.13458,-3.2e-4 -0.27092,0.0134 -0.4082,0.041 -0.77401,0.15654 -1.38873,0.74756 -1.57227,1.51562 -0.82087,-0.007 -1.65694,0.0298 -2.39844,-0.55859 l -1.63086,-0.89648 c -0.0931,-0.0508 -0.19359,-0.0839 -0.29687,-0.0996 -0.10328,-0.0157 -0.20851,-0.0132 -0.3125,0.008 l -5.94922,1.19336 c -0.48695,0.0975 -0.80188,0.56958 -0.70508,1.05664 l 0.72461,3.61719 c 0.448,-0.19476 0.90298,-0.37685 1.36719,-0.53516 2.43738,-0.83122 5.07937,-1.25782 7.08203,-1.8125 0.0795,-0.021 0.16174,-0.0323 0.24414,-0.0293 0.47583,0.015 0.80295,0.41402 0.79297,0.83985 0.44476,-0.39219 0.92288,-0.70488 1.57422,-0.92188 0.47988,0.50965 1.19065,0.73527 1.87695,0.59766 1.09858,-0.21962 1.81188,-1.28824 1.5918,-2.38672 -0.1655,-0.82377 -0.80953,-1.42961 -1.58399,-1.58789 -0.12908,-0.0263 -0.2619,-0.0407 -0.39648,-0.041 z m -2.60352,5.12891 c -0.0803,-0.003 -0.16068,0.006 -0.23828,0.0273 -1.95373,0.54113 -4.53037,0.95863 -6.9082,1.76954 -2.37782,0.81091 -4.63723,2.05147 -5.73242,4.35742 -1.51216,3.18388 -1.49102,6.14883 -0.64258,8.81445 0.84845,2.66562 2.47744,5.05043 4.14844,7.31836 1.58727,2.1543 2.0829,3.83162 2.21093,4.94141 0.12801,1.1098 -0.0762,1.5664 -0.0762,1.5664 -0.36862,0.96462 1.04411,1.55779 1.47461,0.61914 l 0.0176,-0.0391 5.08789,-11.21875 c 0.0453,-0.10077 0.0693,-0.20983 0.0703,-0.32031 l 0.17188,-14.88282 1.07226,-1.73437 c 0.32187,-0.52346 -0.0421,-1.19935 -0.65625,-1.21875 z m 12.26758,0 c -0.6142,0.0194 -0.97812,0.69529 -0.65625,1.21875 l 1.07227,1.73437 0.17187,14.88282 c 10e-4,0.11048 0.025,0.21954 0.0703,0.32031 l 5.08789,11.21875 0.0176,0.0391 c 0.4305,0.93865 1.84323,0.34548 1.47461,-0.61914 0,0 -0.20417,-0.4566 -0.0762,-1.5664 0.12803,-1.10979 0.62367,-2.78711 2.21094,-4.94141 1.671,-2.26793 3.29999,-4.65274 4.14844,-7.31836 0.84844,-2.66562 0.86958,-5.63057 -0.64258,-8.81445 -1.09519,-2.30595 -3.3546,-3.54651 -5.73242,-4.35742 -2.37783,-0.81091 -4.95448,-1.22841 -6.90821,-1.76954 -0.0776,-0.021 -0.15793,-0.0302 -0.23828,-0.0273 z m -8.09179,0.86914 c -1.31715,0 -2.37696,1.05979 -2.37696,2.37695 v 12.04297 c 0,1.31715 2.24937,-0.70999 3.41406,-0.85351 0.53486,-0.0659 1.08188,-0.062 1.61719,0 1.23777,0.14339 3.63867,2.17066 3.63867,0.85351 v -12.04297 c 0,-1.31716 -1.05979,-2.37695 -2.37695,-2.37695 z m 2.73828,15.13477 c -2.78056,-0.11451 -5.70448,1.98098 -7.41407,6.45898 -1.65547,3.94205 -3.09462,8.12921 -4.32617,12.41016 -2.38269,8.2824 -3.99352,16.91257 -4.91601,24.77929 -1.87728,12.04705 -4.9784,29.11172 8.13281,34.84766 2.20689,0.96547 4.80439,1.73572 8.01953,1.91797 5.86774,0.1734 12.47226,-2.95068 15.63672,-9.2793 3.88441,-7.523 0.64603,-33.636 -5.38867,-54.88476 -0.46367,-1.63261 -0.98946,-3.25959 -1.53125,-4.84766 -0.59397,-1.74104 -1.20848,-3.43635 -1.78321,-5.04297 -1.19502,-4.07868 -3.74493,-6.2488 -6.42968,-6.35937 z m -0.54102,51.1582 a 11.520966,11.520966 0 0 1 11.51953,11.52148 11.520966,11.520966 0 0 1 -11.51953,11.51953 11.520966,11.520966 0 0 1 -11.52148,-11.51953 11.520966,11.520966 0 0 1 11.52148,-11.52148 z m -12.73828,27.52734 c -0.49657,-1.7e-4 -0.89947,0.40186 -0.90039,0.89844 v 4.76172 c 9.1e-4,0.49658 0.40382,0.89861 0.90039,0.89844 h 6.13672 c 0.19327,5.9e-4 0.38159,-0.061 0.53711,-0.17578 l 1.20508,-0.89454 c 0.81149,-0.6024 1.50573,-1.00688 2.55078,-1.13671 0.3703,0.59399 1.02074,0.95501 1.7207,0.95507 1.03387,7.1e-4 1.8781,-0.7756 2.00391,-1.77539 -0.46161,0.0238 -0.92197,0.0349 -1.37696,0.0215 -3.41565,-0.19362 -6.175,-1.01143 -8.51953,-2.03711 -1.00964,-0.44171 -1.91819,-0.95407 -2.7539,-1.51563 z m 16.31641,5.08985 c -0.21218,-2.6e-4 -0.41763,0.0745 -0.58008,0.21093 l -1.41992,1.19922 c -0.61128,0.72273 -1.4407,0.85108 -2.24414,1.01953 -0.33106,-0.71694 -1.04821,-1.17649 -1.83789,-1.17773 -1.12032,-7.7e-4 -2.02899,0.90703 -2.0293,2.02734 3e-4,1.12031 0.90899,2.02812 2.0293,2.02735 0.69995,-6e-5 1.3504,-0.36109 1.7207,-0.95508 1.04505,0.12983 1.74124,0.53627 2.55273,1.13867 l 1.20313,0.89258 c 0.15552,0.11474 0.34384,0.17637 0.53711,0.17578 h 6.13672 c 0.49657,1.7e-4 0.89948,-0.40186 0.90039,-0.89844 v -4.76172 c -9.2e-4,-0.49658 -0.40382,-0.8986 -0.90039,-0.89843 z m -15.61719,5.53906 c -0.49657,-1.7e-4 -0.89947,0.40186 -0.90039,0.89844 v 4.76172 c 9.1e-4,0.49658 0.40382,0.8986 0.90039,0.89843 h 6.13672 c 0.19327,5.9e-4 0.38159,-0.061 0.53711,-0.17578 l 1.20507,-0.89453 c 0.8115,-0.6024 1.50574,-1.00689 2.55079,-1.13672 0.3703,0.59399 1.02074,0.95502 1.7207,0.95508 1.12031,7.7e-4 2.029,-0.90703 2.0293,-2.02734 -3.1e-4,-1.12031 -0.90899,-2.02812 -2.0293,-2.02735 -0.78968,0.001 -1.50683,0.4608 -1.83789,1.17774 -0.80344,-0.16845 -1.63091,-0.2968 -2.24219,-1.01953 l -1.42187,-1.19922 c -0.16245,-0.13644 -0.3679,-0.2112 -0.58008,-0.21094 z m 15.75,5.58008 c -0.21218,-2.6e-4 -0.41763,0.0745 -0.58008,0.21094 l -1.41992,1.19921 c -0.61128,0.72273 -1.4407,0.85108 -2.24414,1.01953 -0.33106,-0.71694 -1.04821,-1.17649 -1.83789,-1.17773 -1.12031,-7.7e-4 -2.02899,0.90703 -2.0293,2.02734 3e-4,1.12031 0.90899,2.02812 2.0293,2.02735 0.69996,-6e-5 1.3504,-0.36109 1.7207,-0.95508 1.04505,0.12983 1.74125,0.53627 2.55273,1.13867 l 1.20313,0.89258 c 0.15552,0.11474 0.34384,0.17637 0.53711,0.17578 h 6.13672 c 0.49657,1.7e-4 0.89948,-0.40186 0.90039,-0.89844 v -4.76171 c -9.2e-4,-0.49658 -0.40382,-0.89861 -0.90039,-0.89844 z m -16.14453,5.39648 c -0.49657,-1.7e-4 -0.89947,0.40186 -0.90039,0.89844 v 4.76172 c 9.1e-4,0.49658 0.40382,0.89861 0.90039,0.89844 h 6.13672 c 0.19327,5.9e-4 0.38159,-0.0611 0.53711,-0.17579 l 1.20312,-0.89453 c 0.81149,-0.6024 1.50768,-1.00689 2.55274,-1.13672 0.37029,0.59399 1.02074,0.95502 1.7207,0.95508 1.12031,7.7e-4 2.029,-0.90703 2.0293,-2.02734 -3.2e-4,-1.12031 -0.90899,-2.02811 -2.0293,-2.02734 -0.78968,0.001 -1.50683,0.46079 -1.83789,1.17773 -0.80344,-0.16845 -1.63286,-0.2968 -2.24414,-1.01953 l -1.41993,-1.19922 c -0.16245,-0.13644 -0.36789,-0.2112 -0.58007,-0.21094 z"
       id="path980" />
    <path
       id="path984"
       d="m 723.48966,-358.32259 c -0.51826,-0.0298 -1.04867,0.13701 -1.4668,0.50977 -0.83588,0.74595 -0.90838,2.02773 -0.16211,2.86328 0.46597,0.52232 1.16764,0.76755 1.85742,0.64844 0.59875,0.86633 0.75899,1.65552 0.84961,2.66211 l 0.13477,1.49414 c 0.0175,0.19249 0.0975,0.37372 0.22656,0.51758 l 4.08594,4.58007 c 0.33042,0.3707 0.89835,0.4021 1.26953,0.0723 l 3.55273,-3.16797 c 0.36998,-0.33122 0.40289,-0.90104 0.0723,-1.27148 l -4.04102,-4.52735 c -0.14102,-0.15855 -0.33305,-0.26245 -0.54296,-0.29297 l -1.83985,-0.26172 c -0.94625,0.0249 -1.59342,-0.50857 -2.25391,-0.99609 0.31467,-0.72429 0.17906,-1.56416 -0.3457,-2.1543 -0.37257,-0.41828 -0.87823,-0.64593 -1.39648,-0.67578 z m -47.47656,0.8086 c -0.3886,0.0371 -0.76957,0.18789 -1.09376,0.45507 -0.60903,0.50276 -0.87182,1.31223 -0.67187,2.07618 -0.72739,0.38056 -1.44961,0.80832 -2.38086,0.63867 l -1.85742,-0.0234 c -0.21211,-0.002 -0.41838,0.07 -0.58203,0.20508 l -4.6875,3.85547 c -0.38349,0.31541 -0.43791,0.88359 -0.12305,1.26758 l 3.02539,3.67382 c 0.31625,0.38281 0.88231,0.44069 1.26563,0.125 l 4.74023,-3.90039 c 0.14957,-0.12239 0.25593,-0.28902 0.30274,-0.47656 l 0.36328,-1.45703 c 0.24379,-0.98082 0.52167,-1.73566 1.24609,-2.5 0.66339,0.22339 1.39505,0.0893 1.93555,-0.35547 0.86549,-0.71133 0.98906,-1.99024 0.27734,-2.85547 -0.35607,-0.43243 -0.85441,-0.67821 -1.37109,-0.72851 -0.12918,-0.0125 -0.25915,-0.0124 -0.38867,0 z m 38.93945,7.03711 c -0.51806,0.033 -1.02454,0.26496 -1.39453,0.68554 -0.73955,0.84154 -0.65628,2.12213 0.18554,2.86133 0.5257,0.46215 1.2535,0.62155 1.92383,0.41992 0.6991,0.78757 0.95241,1.55083 1.16406,2.53906 l 0.31446,1.4668 c 0.0411,0.18887 0.14157,0.35915 0.28711,0.48633 l 4.60937,4.05273 c 0.37282,0.32803 0.94096,0.29225 1.26953,-0.0801 l 3.14258,-3.57618 c 0.32721,-0.37353 0.29098,-0.94178 -0.082,-1.26953 l -4.55664,-4.00781 c -0.15916,-0.14034 -0.36411,-0.2197 -0.57617,-0.22461 l -1.85742,-0.0371 c -0.93629,0.13915 -1.6448,-0.31075 -2.35938,-0.71484 0.22476,-0.75701 -0.009,-1.57724 -0.60156,-2.09961 -0.42042,-0.37017 -0.95069,-0.53499 -1.46875,-0.50195 z m -31.70313,1.97656 c -0.39045,-0.0102 -0.78649,0.0923 -1.14062,0.31836 -0.6656,0.4254 -1.02213,1.19991 -0.91602,1.98242 -0.76806,0.28987 -1.53749,0.62667 -2.4414,0.3457 l -1.8418,-0.24804 c -0.2103,-0.0276 -0.42473,0.0205 -0.60352,0.13476 l -5.11718,3.26172 c -0.41879,0.26674 -0.5415,0.82293 -0.27539,1.24219 l 2.55664,4.01562 c 0.26763,0.41831 0.8235,0.54047 1.24218,0.27344 l 5.17774,-3.29883 c 0.1633,-0.10337 0.28782,-0.25716 0.35742,-0.4375 l 0.53516,-1.40039 c 0.36058,-0.94413 0.72754,-1.65893 1.53906,-2.33008 0.63152,0.30197 1.37649,0.25505 1.9668,-0.12109 0.94514,-0.60148 1.22295,-1.85391 0.62109,-2.79883 -0.30118,-0.47231 -0.76655,-0.77861 -1.27344,-0.89062 -0.12672,-0.028 -0.25657,-0.0454 -0.38672,-0.0488 z m 24.65235,7.38672 c -0.65025,0.0344 -1.27221,0.38028 -1.63282,0.98047 -0.57646,0.96063 -0.2636,2.20715 0.69727,2.7832 0.60013,0.36027 1.34356,0.38509 1.9668,0.0664 0.82912,0.64928 1.21594,1.35488 1.60156,2.28907 l 0.57226,1.38672 c 0.0743,0.17843 0.2051,0.32875 0.3711,0.42773 l 5.25976,3.1582 c 0.42564,0.25577 0.97798,0.11859 1.23438,-0.30664 l 2.45117,-4.08203 c 0.25483,-0.4262 0.11723,-0.9789 -0.30859,-1.23437 l -5.20313,-3.12305 c -0.18177,-0.10948 -0.39598,-0.15239 -0.60547,-0.11914 l -1.83593,0.29883 c -0.89611,0.30495 -1.67176,-0.012 -2.44727,-0.28125 0.0852,-0.78507 -0.29432,-1.54946 -0.9707,-1.95703 -0.36003,-0.21651 -0.76025,-0.30776 -1.15039,-0.28711 z m -19.32032,2.95898 c -0.19878,0.017 -0.39927,0.0632 -0.59375,0.14258 -0.73084,0.29911 -1.22171,0.99631 -1.25781,1.78516 -0.80761,0.14721 -1.6241,0.341 -2.46289,-0.0977 l -1.76758,-0.57617 c -0.20193,-0.0649 -0.42078,-0.0549 -0.61718,0.0254 l -5.61914,2.28906 c -0.46,0.1872 -0.68066,0.71166 -0.49415,1.17188 l 1.79688,4.41015 c 0.18822,0.45956 0.71206,0.67972 1.17187,0.49219 l 5.68164,-2.31445 c 0.17922,-0.0724 0.33088,-0.20226 0.43165,-0.36719 l 0.77929,-1.28125 c 0.52421,-0.86407 1.01478,-1.50302 1.9336,-2.01758 0.56704,0.41045 1.30488,0.50038 1.95312,0.23633 1.03781,-0.42201 1.53769,-1.60691 1.11524,-2.64453 -0.26439,-0.64836 -0.8256,-1.08507 -1.4629,-1.21875 -0.19118,-0.0401 -0.3891,-0.0522 -0.58789,-0.0352 z m 13.19727,7.33203 c -0.78958,0.0377 -1.51882,0.5375 -1.80859,1.32617 -0.3858,1.05179 0.15508,2.21621 1.20703,2.60157 0.65711,0.24116 1.393,0.12726 1.94531,-0.30274 0.9363,0.48202 1.44972,1.10212 2.00391,1.94727 l 0.82031,1.2539 c 0.10645,0.16131 0.26368,0.28356 0.44531,0.34961 l 5.75977,2.11524 c 0.46609,0.17129 0.9823,-0.0674 1.15429,-0.5332 l 1.64063,-4.47071 c 0.17026,-0.46648 -0.0689,-0.98138 -0.53516,-1.15234 l -5.69531,-2.0918 c -0.1991,-0.0734 -0.41767,-0.0739 -0.61719,-0.002 l -1.74804,0.63672 c -0.8229,0.4678 -1.64477,0.30234 -2.45704,0.18359 -0.0637,-0.78711 -0.57943,-1.46498 -1.32031,-1.73828 -0.26285,-0.0967 -0.53173,-0.13562 -0.79492,-0.12305 z m -8.53125,3.76953 c -0.13458,-3.2e-4 -0.27092,0.0134 -0.4082,0.041 -0.77401,0.15654 -1.38873,0.74756 -1.57227,1.51562 -0.82087,-0.007 -1.65694,0.0298 -2.39844,-0.55859 l -1.63086,-0.89648 c -0.0931,-0.0508 -0.19359,-0.0839 -0.29687,-0.0996 -0.10328,-0.0157 -0.20851,-0.0132 -0.3125,0.008 l -5.94922,1.19336 c -0.48695,0.0975 -0.80188,0.56958 -0.70508,1.05664 l 0.72461,3.61719 c 0.448,-0.19476 0.90298,-0.37685 1.36719,-0.53516 2.43738,-0.83122 5.07937,-1.25782 7.08203,-1.8125 0.0795,-0.021 0.16174,-0.0323 0.24414,-0.0293 0.47583,0.015 0.80295,0.41402 0.79297,0.83985 0.44476,-0.39219 0.92288,-0.70488 1.57422,-0.92188 0.47988,0.50965 1.19065,0.73527 1.87695,0.59766 1.09858,-0.21962 1.81188,-1.28824 1.5918,-2.38672 -0.1655,-0.82377 -0.80953,-1.42961 -1.58399,-1.58789 -0.12908,-0.0263 -0.2619,-0.0407 -0.39648,-0.041 z m -2.60352,5.12891 c -0.0803,-0.003 -0.16068,0.006 -0.23828,0.0273 -1.95373,0.54113 -4.53037,0.95863 -6.9082,1.76954 -2.37782,0.81091 -4.63723,2.05147 -5.73242,4.35742 -1.51216,3.18388 -1.49102,6.14883 -0.64258,8.81445 0.84845,2.66562 2.47744,5.05043 4.14844,7.31836 1.58727,2.1543 2.0829,3.83162 2.21093,4.94141 0.12801,1.1098 -0.0762,1.5664 -0.0762,1.5664 -0.36862,0.96462 1.04411,1.55779 1.47461,0.61914 l 0.0176,-0.0391 5.08789,-11.21875 c 0.0453,-0.10077 0.0693,-0.20983 0.0703,-0.32031 l 0.17188,-14.88282 1.07226,-1.73437 c 0.32187,-0.52346 -0.0421,-1.19935 -0.65625,-1.21875 z m 12.26758,0 c -0.6142,0.0194 -0.97812,0.69529 -0.65625,1.21875 l 1.07227,1.73437 0.17187,14.88282 c 10e-4,0.11048 0.025,0.21954 0.0703,0.32031 l 5.08789,11.21875 0.0176,0.0391 c 0.4305,0.93865 1.84323,0.34548 1.47461,-0.61914 0,0 -0.20417,-0.4566 -0.0762,-1.5664 0.12803,-1.10979 0.62367,-2.78711 2.21094,-4.94141 1.671,-2.26793 3.29999,-4.65274 4.14844,-7.31836 0.84844,-2.66562 0.86958,-5.63057 -0.64258,-8.81445 -1.09519,-2.30595 -3.3546,-3.54651 -5.73242,-4.35742 -2.37783,-0.81091 -4.95448,-1.22841 -6.90821,-1.76954 -0.0776,-0.021 -0.15793,-0.0302 -0.23828,-0.0273 z m -8.09179,0.86914 c -1.31715,0 -2.37696,1.05979 -2.37696,2.37695 v 12.04297 c 0,1.31715 2.24937,-0.70999 3.41406,-0.85351 0.53486,-0.0659 1.08188,-0.062 1.61719,0 1.23777,0.14339 3.63867,2.17066 3.63867,0.85351 v -12.04297 c 0,-1.31716 -1.05979,-2.37695 -2.37695,-2.37695 z m 2.73828,15.13477 c -2.78056,-0.11451 -5.70448,1.98098 -7.41407,6.45898 -1.65547,3.94205 -3.09462,8.12921 -4.32617,12.41016 -2.38269,8.2824 -3.99352,16.91257 -4.91601,24.77929 -1.87728,12.04705 -4.9784,29.11172 8.13281,34.84766 2.20689,0.96547 4.80439,1.73572 8.01953,1.91797 5.86774,0.1734 12.47226,-2.95068 15.63672,-9.2793 3.88441,-7.523 0.64603,-33.636 -5.38867,-54.88476 -0.46367,-1.63261 -0.98946,-3.25959 -1.53125,-4.84766 -0.59397,-1.74104 -1.20848,-3.43635 -1.78321,-5.04297 -1.19502,-4.07868 -3.74493,-6.2488 -6.42968,-6.35937 z m -0.54102,51.1582 a 11.520966,11.520966 0 0 1 11.51953,11.52148 11.520966,11.520966 0 0 1 -11.51953,11.51953 11.520966,11.520966 0 0 1 -11.52148,-11.51953 11.520966,11.520966 0 0 1 11.52148,-11.52148 z m -12.73828,27.52734 c -0.49657,-1.7e-4 -0.89947,0.40186 -0.90039,0.89844 v 4.76172 c 9.1e-4,0.49658 0.40382,0.89861 0.90039,0.89844 h 6.13672 c 0.19327,5.9e-4 0.38159,-0.061 0.53711,-0.17578 l 1.20508,-0.89454 c 0.81149,-0.6024 1.50573,-1.00688 2.55078,-1.13671 0.3703,0.59399 1.02074,0.95501 1.7207,0.95507 1.03387,7.1e-4 1.8781,-0.7756 2.00391,-1.77539 -0.46161,0.0238 -0.92197,0.0349 -1.37696,0.0215 -3.41565,-0.19362 -6.175,-1.01143 -8.51953,-2.03711 -1.00964,-0.44171 -1.91819,-0.95407 -2.7539,-1.51563 z m 16.31641,5.08985 c -0.21218,-2.6e-4 -0.41763,0.0745 -0.58008,0.21093 l -1.41992,1.19922 c -0.61128,0.72273 -1.4407,0.85108 -2.24414,1.01953 -0.33106,-0.71694 -1.04821,-1.17649 -1.83789,-1.17773 -1.12032,-7.7e-4 -2.02899,0.90703 -2.0293,2.02734 3e-4,1.12031 0.90899,2.02812 2.0293,2.02735 0.69995,-6e-5 1.3504,-0.36109 1.7207,-0.95508 1.04505,0.12983 1.74124,0.53627 2.55273,1.13867 l 1.20313,0.89258 c 0.15552,0.11474 0.34384,0.17637 0.53711,0.17578 h 6.13672 c 0.49657,1.7e-4 0.89948,-0.40186 0.90039,-0.89844 v -4.76172 c -9.2e-4,-0.49658 -0.40382,-0.8986 -0.90039,-0.89843 z m -15.61719,5.53906 c -0.49657,-1.7e-4 -0.89947,0.40186 -0.90039,0.89844 v 4.76172 c 9.1e-4,0.49658 0.40382,0.8986 0.90039,0.89843 h 6.13672 c 0.19327,5.9e-4 0.38159,-0.061 0.53711,-0.17578 l 1.20507,-0.89453 c 0.8115,-0.6024 1.50574,-1.00689 2.55079,-1.13672 0.3703,0.59399 1.02074,0.95502 1.7207,0.95508 1.12031,7.7e-4 2.029,-0.90703 2.0293,-2.02734 -3.1e-4,-1.12031 -0.90899,-2.02812 -2.0293,-2.02735 -0.78968,0.001 -1.50683,0.4608 -1.83789,1.17774 -0.80344,-0.16845 -1.63091,-0.2968 -2.24219,-1.01953 l -1.42187,-1.19922 c -0.16245,-0.13644 -0.3679,-0.2112 -0.58008,-0.21094 z m 15.75,5.58008 c -0.21218,-2.6e-4 -0.41763,0.0745 -0.58008,0.21094 l -1.41992,1.19921 c -0.61128,0.72273 -1.4407,0.85108 -2.24414,1.01953 -0.33106,-0.71694 -1.04821,-1.17649 -1.83789,-1.17773 -1.12031,-7.7e-4 -2.02899,0.90703 -2.0293,2.02734 3e-4,1.12031 0.90899,2.02812 2.0293,2.02735 0.69996,-6e-5 1.3504,-0.36109 1.7207,-0.95508 1.04505,0.12983 1.74125,0.53627 2.55273,1.13867 l 1.20313,0.89258 c 0.15552,0.11474 0.34384,0.17637 0.53711,0.17578 h 6.13672 c 0.49657,1.7e-4 0.89948,-0.40186 0.90039,-0.89844 v -4.76171 c -9.2e-4,-0.49658 -0.40382,-0.89861 -0.90039,-0.89844 z m -16.14453,5.39648 c -0.49657,-1.7e-4 -0.89947,0.40186 -0.90039,0.89844 v 4.76172 c 9.1e-4,0.49658 0.40382,0.89861 0.90039,0.89844 h 6.13672 c 0.19327,5.9e-4 0.38159,-0.0611 0.53711,-0.17579 l 1.20312,-0.89453 c 0.81149,-0.6024 1.50768,-1.00689 2.55274,-1.13672 0.37029,0.59399 1.02074,0.95502 1.7207,0.95508 1.12031,7.7e-4 2.029,-0.90703 2.0293,-2.02734 -3.2e-4,-1.12031 -0.90899,-2.02811 -2.0293,-2.02734 -0.78968,0.001 -1.50683,0.46079 -1.83789,1.17773 -0.80344,-0.16845 -1.63286,-0.2968 -2.24414,-1.01953 l -1.41993,-1.19922 c -0.16245,-0.13644 -0.36789,-0.2112 -0.58007,-0.21094 z"
       style="fill:url(#linearGradient982);fill-opacity:1;stroke:none;stroke-width:0.2;stroke-miterlimit:4;stroke-dasharray:none;stroke-opacity:1;filter:url(#filter994)"
       inkscape:connector-curvature="0" />
    <path
       style="fill:none;fill-opacity:1;stroke:#f8f8f8;stroke-width:0.80000001;stroke-linecap:butt;stroke-linejoin:miter;stroke-miterlimit:4;stroke-dasharray:none;stroke-opacity:0.2176166;filter:url(#filter1048)"
       d="m 662.07348,-359.81417 c 3.35652,2.23768 28.2507,49.22895 28.2507,49.22895 l 13.70579,0.55942 32.44636,-50.06808 c -25.17384,-11.83788 -49.9749,-11.74819 -74.40285,0.27971 z"
       id="path1046"
       inkscape:connector-curvature="0"
       sodipodi:nodetypes="ccccc" />
    <path
       inkscape:connector-curvature="0"
       id="circle1062"
       d="m 699.27539,-373.47266 c -52.30126,0 -94.77539,42.47219 -94.77539,94.77344 0,52.30126 42.47413,94.77539 94.77539,94.77539 52.30126,0 94.77344,-42.47413 94.77344,-94.77539 0,-52.30125 -42.47218,-94.77344 -94.77344,-94.77344 z m 0,7 c 48.51818,0 87.77344,39.25527 87.77344,87.77344 0,48.51818 -39.25526,87.77539 -87.77344,87.77539 -48.51817,0 -87.77539,-39.25721 -87.77539,-87.77539 0,-48.51817 39.25722,-87.77344 87.77539,-87.77344 z"
       style="color:#000000;font-style:normal;font-variant:normal;font-weight:normal;font-stretch:normal;font-size:medium;line-height:normal;font-family:sans-serif;font-variant-ligatures:normal;font-variant-position:normal;font-variant-caps:normal;font-variant-numeric:normal;font-variant-alternates:normal;font-feature-settings:normal;text-indent:0;text-align:start;text-decoration:none;text-decoration-line:none;text-decoration-style:solid;text-decoration-color:#000000;letter-spacing:normal;word-spacing:normal;text-transform:none;writing-mode:lr-tb;direction:ltr;text-orientation:mixed;dominant-baseline:auto;baseline-shift:baseline;text-anchor:start;white-space:normal;shape-padding:0;clip-rule:nonzero;display:inline;overflow:visible;visibility:visible;opacity:1;isolation:auto;mix-blend-mode:normal;color-interpolation:sRGB;color-interpolation-filters:linearRGB;solid-color:#000000;solid-opacity:1;vector-effect:none;fill:url(#linearGradient1080);fill-opacity:1;fill-rule:nonzero;stroke:none;stroke-width:7;stroke-linecap:butt;stroke-linejoin:miter;stroke-miterlimit:4;stroke-dasharray:none;stroke-dashoffset:0;stroke-opacity:1;color-rendering:auto;image-rendering:auto;shape-rendering:auto;text-rendering:auto;enable-background:accumulate" />
  </g>
</svg>
