<?xml version="1.0" encoding="UTF-8" standalone="no"?>
<!-- Created with Inkscape (http://www.inkscape.org/) -->

<svg
   xmlns:dc="http://purl.org/dc/elements/1.1/"
   xmlns:cc="http://creativecommons.org/ns#"
   xmlns:rdf="http://www.w3.org/1999/02/22-rdf-syntax-ns#"
   xmlns:svg="http://www.w3.org/2000/svg"
   xmlns="http://www.w3.org/2000/svg"
   xmlns:xlink="http://www.w3.org/1999/xlink"
   xmlns:sodipodi="http://sodipodi.sourceforge.net/DTD/sodipodi-0.dtd"
   xmlns:inkscape="http://www.inkscape.org/namespaces/inkscape"
   version="1.1"
   id="svg2"
   width="128"
   height="128"
   viewBox="0 0 128 128"
   sodipodi:docname="abgx360gui.svg"
   inkscape:version="0.92.4 5da689c313, 2019-01-14">
  <metadata
     id="metadata8">
    <rdf:RDF>
      <cc:Work
         rdf:about="">
        <dc:format>image/svg+xml</dc:format>
        <dc:type
           rdf:resource="http://purl.org/dc/dcmitype/StillImage" />
        <dc:title></dc:title>
      </cc:Work>
    </rdf:RDF>
  </metadata>
  <defs
     id="defs6">
    <linearGradient
       inkscape:collect="always"
       id="linearGradient4541">
      <stop
         style="stop-color:#007bf4;stop-opacity:1"
         offset="0"
         id="stop4537" />
      <stop
         style="stop-color:#59d3ef;stop-opacity:1"
         offset="1"
         id="stop4539" />
    </linearGradient>
    <linearGradient
       inkscape:collect="always"
       id="linearGradient1078">
      <stop
         style="stop-color:#cccdd1;stop-opacity:1;"
         offset="0"
         id="stop1074" />
      <stop
         style="stop-color:#f7f9f9;stop-opacity:1"
         offset="1"
         id="stop1076" />
    </linearGradient>
    <linearGradient
       inkscape:collect="always"
       xlink:href="#linearGradient1078"
       id="linearGradient1080"
       x1="701.81012"
       y1="398.37137"
       x2="699.27539"
       y2="220.52734"
       gradientUnits="userSpaceOnUse"
       gradientTransform="matrix(0.66355071,0,0,0.66355071,-399.67109,-144.99254)" />
    <linearGradient
       inkscape:collect="always"
       xlink:href="#linearGradient4541"
       id="linearGradient4543"
       x1="66.516502"
       y1="120.59479"
       x2="64.333595"
       y2="5.9833865"
       gradientUnits="userSpaceOnUse" />
    <filter
       filterUnits="objectBoundingBox"
       color-interpolation-filters="sRGB"
       y="-200%"
       x="-200%"
       height="400%"
       width="400%"
       id="a">
      <feGaussianBlur
         id="feGaussianBlur837"
         stdDeviation="4.294"
         in="SourceGraphic" />
      <feOffset
         id="feOffset839"
         result="pf_100_offsetBlur"
         dy="4" />
      <feFlood
         id="feFlood841"
         flood-opacity=".4" />
      <feComposite
         id="feComposite843"
         result="pf_100_dropShadow"
         operator="in"
         in2="pf_100_offsetBlur" />
      <feBlend
         id="feBlend845"
         in2="pf_100_dropShadow"
         in="SourceGraphic" />
    </filter>
    <filter
       filterUnits="objectBoundingBox"
       color-interpolation-filters="sRGB"
       y="-200%"
       x="-200%"
       height="400%"
       width="400%"
       id="hBYla7m5PD9vyEZfG7pDkAts6vNnGLHv">
      <feGaussianBlur
         id="feGaussianBlur926"
         stdDeviation="4.294"
         in="SourceGraphic" />
      <feOffset
         id="feOffset928"
         result="pf_100_offsetBlur"
         dy="4"
         dx="0" />
      <feFlood
         id="feFlood930"
         flood-opacity=".4" />
      <feComposite
         id="feComposite932"
         result="pf_100_dropShadow"
         operator="in"
         in2="pf_100_offsetBlur" />
      <feBlend
         id="feBlend934"
         mode="normal"
         in2="pf_100_dropShadow"
         in="SourceGraphic" />
    </filter>
    <filter
       filterUnits="objectBoundingBox"
       color-interpolation-filters="sRGB"
       y="-200%"
       x="-200%"
       height="400%"
       width="400%"
       id="wKQL6yIg1lswnu4nIoyv6kDKx6B0YTde">
      <feGaussianBlur
         id="feGaussianBlur1034"
         stdDeviation="4.294"
         in="SourceGraphic" />
      <feOffset
         id="feOffset1036"
         result="pf_100_offsetBlur"
         dy="4"
         dx="0" />
      <feFlood
         id="feFlood1038"
         flood-opacity=".4" />
      <feComposite
         id="feComposite1040"
         result="pf_100_dropShadow"
         operator="in"
         in2="pf_100_offsetBlur" />
      <feBlend
         id="feBlend1042"
         mode="normal"
         in2="pf_100_dropShadow"
         in="SourceGraphic" />
    </filter>
    <filter
       filterUnits="objectBoundingBox"
       color-interpolation-filters="sRGB"
       y="-200%"
       x="-200%"
       height="400%"
       width="400%"
       id="a-8">
      <feGaussianBlur
         id="feGaussianBlur1146"
         stdDeviation="4.294"
         in="SourceGraphic" />
      <feOffset
         id="feOffset1148"
         result="pf_100_offsetBlur"
         dy="4" />
      <feFlood
         id="feFlood1150"
         flood-opacity=".4" />
      <feComposite
         id="feComposite1152"
         result="pf_100_dropShadow"
         operator="in"
         in2="pf_100_offsetBlur" />
      <feBlend
         id="feBlend1154"
         in2="pf_100_dropShadow"
         in="SourceGraphic" />
    </filter>
  </defs>
  <sodipodi:namedview
     pagecolor="#ffffff"
     bordercolor="#666666"
     borderopacity="1"
     objecttolerance="10"
     gridtolerance="10"
     guidetolerance="10"
     inkscape:pageopacity="0"
     inkscape:pageshadow="2"
     inkscape:window-width="1920"
     inkscape:window-height="1024"
     id="namedview4"
     showgrid="false"
     inkscape:zoom="2.528"
     inkscape:cx="-61.221417"
     inkscape:cy="16.39426"
     inkscape:window-x="0"
     inkscape:window-y="30"
     inkscape:window-maximized="1"
     inkscape:current-layer="svg2" />
  <path
     id="path850-9"
     d="m 77.389399,29.409666 c -3.578841,0 -7.253428,4.949255 -7.253428,14.506856 0,8.704113 2.901371,14.506851 2.901371,14.506851 0,0 23.210971,-2.90137 23.210971,-14.506851 0,-8.704114 -8.172679,-15.772821 -11.605486,-8.704114 -1.295946,-3.887837 -3.788223,-5.802742 -7.253428,-5.802742 z M 44.02363,32.311037 c -8.704114,0 -15.772821,8.172679 -8.704114,11.605485 -3.887837,1.295945 -5.802742,3.788223 -5.802742,7.253428 0,3.578841 4.949256,7.253423 14.506856,7.253423 8.704113,0 14.506856,-2.90137 14.506856,-2.90137 0,0 -2.901371,-23.210966 -14.506856,-23.210966 z m 11.605485,37.717826 c 0,0 -23.21097,2.90137 -23.21097,14.50685 0,8.70412 8.172679,15.772817 11.605485,8.70412 1.295946,3.887831 3.788223,5.802741 7.253428,5.802741 3.578841,0 7.253428,-4.949261 7.253428,-14.506861 0,-8.70411 -2.901371,-14.50685 -2.901371,-14.50685 z m 29.013712,0 c -8.704113,0 -14.506856,2.90137 -14.506856,2.90137 0,0 2.901371,23.21097 14.506856,23.21097 8.704115,0 15.772823,-8.17268 8.704115,-11.60549 3.887837,-1.29594 5.802742,-3.78822 5.802742,-7.25342 0,-3.57884 -4.949255,-7.25343 -14.506857,-7.25343 z"
     inkscape:connector-curvature="0"
     style="isolation:isolate;fill:#f9f9f9;stroke-width:0.48356187" />
  <path
     style="fill:#000000;stroke-width:1.33333337"
     d=""
     id="path849"
     inkscape:connector-curvature="0" />
  <path
     style="fill:#000000;stroke-width:1.33333337"
     d=""
     id="path847"
     inkscape:connector-curvature="0" />
  <circle
     id="path12-3"
     cx="64.333229"
     cy="64.22612"
     r="60.565502"
     style="fill:url(#linearGradient4543);fill-opacity:1;stroke:#cccdd1;stroke-width:4.64485502;stroke-miterlimit:4;stroke-dasharray:none;stroke-opacity:1" />
  <path
     style="color:#000000;font-style:normal;font-variant:normal;font-weight:normal;font-stretch:normal;font-size:medium;line-height:normal;font-family:sans-serif;font-variant-ligatures:normal;font-variant-position:normal;font-variant-caps:normal;font-variant-numeric:normal;font-variant-alternates:normal;font-feature-settings:normal;text-indent:0;text-align:start;text-decoration:none;text-decoration-line:none;text-decoration-style:solid;text-decoration-color:#000000;letter-spacing:normal;word-spacing:normal;text-transform:none;writing-mode:lr-tb;direction:ltr;text-orientation:mixed;dominant-baseline:auto;baseline-shift:baseline;text-anchor:start;white-space:normal;shape-padding:0;clip-rule:nonzero;display:inline;overflow:visible;visibility:visible;opacity:1;isolation:auto;mix-blend-mode:normal;color-interpolation:sRGB;color-interpolation-filters:linearRGB;solid-color:#000000;solid-opacity:1;vector-effect:none;fill:url(#linearGradient1080);fill-opacity:1;fill-rule:nonzero;stroke:none;stroke-width:4.64485502;stroke-linecap:butt;stroke-linejoin:miter;stroke-miterlimit:4;stroke-dasharray:none;stroke-dashoffset:0;stroke-opacity:1;color-rendering:auto;image-rendering:auto;shape-rendering:auto;text-rendering:auto;enable-background:accumulate"
     d="m 64.333592,1.3385313 c -34.704539,0 -62.8882778,28.1824517 -62.8882778,62.8869837 0,34.704538 28.1837388,62.888275 62.8882778,62.888275 34.704538,0 62.886978,-28.183737 62.886978,-62.888275 0,-34.704532 -28.18244,-62.8869837 -62.886978,-62.8869837 z m 0,4.644855 c 32.194272,0 58.242128,26.0478627 58.242128,58.2421287 0,32.194272 -26.047856,58.243425 -58.242128,58.243425 -32.194267,0 -58.2434228,-26.049153 -58.2434228,-58.243425 0,-32.194266 26.0491558,-58.2421287 58.2434228,-58.2421287 z"
     id="circle1062"
     inkscape:connector-curvature="0" />
  <g
     id="g844" />
  <path
     id="path1165-8"
     d="m 64.33323,31.036249 c -18.342774,0 -33.184505,14.830503 -33.184505,33.140087 0,18.309588 14.841731,33.239654 33.184505,33.239654 18.342773,0 33.184503,-14.919334 33.184503,-33.239654 0,-18.309584 -14.84173,-33.140087 -33.184503,-33.140087 z M 82.427077,44.78857 c 7.96118,2.408218 10.046284,13.804546 3.876871,18.245644 L 91.306349,81.94951 84.371125,83.655371 79.423883,64.881618 C 70.618806,62.710612 68.600081,55.028621 73.865556,47.166526 l 5.649598,10.488976 3.285311,-0.973244 m -18.472604,1.415939 c 3.401474,0 6.091806,2.709855 6.091806,6.081067 0,3.370725 -2.701558,6.166484 -6.091806,6.166484 -3.382439,0 -6.07033,-2.798196 -6.07033,-6.166484 a 6.0571517,6.0571517 0 0 1 6.07033,-6.081067 z"
     inkscape:connector-curvature="0"
     style="isolation:isolate;fill:#ffffff;stroke-width:0.48808637" />
</svg>
