<?xml version="1.0" encoding="UTF-8" standalone="no"?>
<!-- Created with Inkscape (http://www.inkscape.org/) -->

<svg
   xmlns:dc="http://purl.org/dc/elements/1.1/"
   xmlns:cc="http://creativecommons.org/ns#"
   xmlns:rdf="http://www.w3.org/1999/02/22-rdf-syntax-ns#"
   xmlns:svg="http://www.w3.org/2000/svg"
   xmlns="http://www.w3.org/2000/svg"
   xmlns:xlink="http://www.w3.org/1999/xlink"
   xmlns:sodipodi="http://sodipodi.sourceforge.net/DTD/sodipodi-0.dtd"
   xmlns:inkscape="http://www.inkscape.org/namespaces/inkscape"
   version="1.1"
   id="svg2"
   width="128"
   height="128"
   viewBox="0 0 127.99999 128"
   sodipodi:docname="access.svg"
   inkscape:version="0.92.2 (5c3e80d, 2017-08-06)">
  <metadata
     id="metadata8">
    <rdf:RDF>
      <cc:Work
         rdf:about="">
        <dc:format>image/svg+xml</dc:format>
        <dc:type
           rdf:resource="http://purl.org/dc/dcmitype/StillImage" />
        <dc:title></dc:title>
      </cc:Work>
    </rdf:RDF>
  </metadata>
  <defs
     id="defs6">
    <linearGradient
       inkscape:collect="always"
       id="linearGradient4512">
      <stop
         style="stop-color:#3cc5dc;stop-opacity:1"
         offset="0"
         id="stop4508" />
      <stop
         style="stop-color:#245ee1;stop-opacity:1"
         offset="1"
         id="stop4510" />
    </linearGradient>
    <linearGradient
       inkscape:collect="always"
       xlink:href="#linearGradient4512"
       id="linearGradient4514"
       x1="717.89307"
       y1="594.45966"
       x2="717.89313"
       y2="638.50403"
       gradientUnits="userSpaceOnUse"
       gradientTransform="translate(0,-672)" />
    <filter
       inkscape:collect="always"
       style="color-interpolation-filters:sRGB"
       id="filter4562"
       x="-0.044399999"
       width="1.0888"
       y="-0.044399999"
       height="1.0888">
      <feGaussianBlur
         inkscape:collect="always"
         stdDeviation="0.80923051"
         id="feGaussianBlur4564" />
    </filter>
    <filter
       inkscape:collect="always"
       style="color-interpolation-filters:sRGB"
       id="filter4610"
       x="-0.10695377"
       width="1.2139075"
       y="-0.089076564"
       height="1.1781532">
      <feGaussianBlur
         inkscape:collect="always"
         stdDeviation="1.0084679"
         id="feGaussianBlur4612" />
    </filter>
  </defs>
  <sodipodi:namedview
     pagecolor="#ffffff"
     bordercolor="#666666"
     borderopacity="1"
     objecttolerance="10"
     gridtolerance="10"
     guidetolerance="10"
     inkscape:pageopacity="0"
     inkscape:pageshadow="2"
     inkscape:window-width="1360"
     inkscape:window-height="717"
     id="namedview4"
     showgrid="false"
     inkscape:zoom="2.8284271"
     inkscape:cx="126.2246"
     inkscape:cy="55.419394"
     inkscape:window-x="0"
     inkscape:window-y="25"
     inkscape:window-maximized="1"
     inkscape:current-layer="svg2" />
  <g
     id="g4619"
     transform="matrix(2.3655968,0,0,2.3655968,-1635.6265,198.19188)">
    <circle
       style="fill:url(#linearGradient4514);fill-opacity:1;stroke-width:1.01250005"
       r="24.269342"
       cy="-56.267212"
       cx="717.89313"
       id="path3701" />
    <path
       inkscape:connector-curvature="0"
       id="circle4522"
       d="m 717.89258,-78.13867 c -12.06621,0 -21.8711,9.80488 -21.8711,21.87109 0,12.06621 9.80489,21.8711 21.8711,21.8711 12.06621,0 21.87109,-9.80489 21.87109,-21.8711 0,-12.06621 -9.80488,-21.87109 -21.87109,-21.87109 z m 0,2.19922 c 10.87724,0 19.67187,8.79463 19.67187,19.67187 0,10.87724 -8.79463,19.67188 -19.67187,19.67188 -10.87724,0 -19.66992,-8.79464 -19.66992,-19.67188 0,-10.87724 8.79268,-19.67187 19.66992,-19.67187 z"
       style="color:#000000;font-style:normal;font-variant:normal;font-weight:normal;font-stretch:normal;font-size:medium;line-height:normal;font-family:sans-serif;font-variant-ligatures:normal;font-variant-position:normal;font-variant-caps:normal;font-variant-numeric:normal;font-variant-alternates:normal;font-feature-settings:normal;text-indent:0;text-align:start;text-decoration:none;text-decoration-line:none;text-decoration-style:solid;text-decoration-color:#000000;letter-spacing:normal;word-spacing:normal;text-transform:none;writing-mode:lr-tb;direction:ltr;text-orientation:mixed;dominant-baseline:auto;baseline-shift:baseline;text-anchor:start;white-space:normal;shape-padding:0;clip-rule:nonzero;display:inline;overflow:visible;visibility:visible;opacity:0.53899997;isolation:auto;mix-blend-mode:normal;color-interpolation:sRGB;color-interpolation-filters:linearRGB;solid-color:#000000;solid-opacity:1;vector-effect:none;fill:#000000;fill-opacity:1;fill-rule:nonzero;stroke:none;stroke-width:2.20000005;stroke-linecap:butt;stroke-linejoin:miter;stroke-miterlimit:4;stroke-dasharray:none;stroke-dashoffset:0;stroke-opacity:1;filter:url(#filter4562);color-rendering:auto;image-rendering:auto;shape-rendering:auto;text-rendering:auto;enable-background:accumulate" />
    <circle
       id="circle4518"
       cx="717.89313"
       cy="-56.267212"
       r="20.771399"
       style="fill:none;fill-opacity:1;stroke:#ffffff;stroke-width:2.20000005;stroke-miterlimit:4;stroke-dasharray:none;stroke-opacity:1" />
    <path
       style="color:#000000;font-style:normal;font-variant:normal;font-weight:normal;font-stretch:normal;font-size:medium;line-height:normal;font-family:sans-serif;font-variant-ligatures:normal;font-variant-position:normal;font-variant-caps:normal;font-variant-numeric:normal;font-variant-alternates:normal;font-feature-settings:normal;text-indent:0;text-align:start;text-decoration:none;text-decoration-line:none;text-decoration-style:solid;text-decoration-color:#000000;letter-spacing:normal;word-spacing:normal;text-transform:none;writing-mode:lr-tb;direction:ltr;text-orientation:mixed;dominant-baseline:auto;baseline-shift:baseline;text-anchor:start;white-space:normal;shape-padding:0;clip-rule:nonzero;display:inline;overflow:visible;visibility:visible;opacity:0.68800001;isolation:auto;mix-blend-mode:normal;color-interpolation:sRGB;color-interpolation-filters:linearRGB;solid-color:#000000;solid-opacity:1;vector-effect:none;fill:#161616;fill-opacity:1;fill-rule:nonzero;stroke:none;stroke-width:2.5;stroke-linecap:round;stroke-linejoin:miter;stroke-miterlimit:4;stroke-dasharray:none;stroke-dashoffset:0;stroke-opacity:1;filter:url(#filter4610);color-rendering:auto;image-rendering:auto;shape-rendering:auto;text-rendering:auto;enable-background:accumulate"
       d="m 717.6875,-69.875 c -1.69137,0 -3.0625,1.37113 -3.0625,3.0625 0,1.69137 1.37113,3.0625 3.0625,3.0625 1.69137,0 3.0625,-1.37113 3.0625,-3.0625 0,-1.69137 -1.37113,-3.0625 -3.0625,-3.0625 z m 10.44922,7.11719 -20.09766,0.125 c -1.68809,-0.0109 -1.67219,2.53195 0.0156,2.5 l 5.84753,0.77924 c 1.74146,0.5657 1.12376,1.74671 0.98288,2.98341 -0.44272,3.86447 -1.71722,8.04915 -2.56869,11.96977 -0.60372,1.61196 1.8683,2.44821 2.36718,0.80078 l 1.97461,-5.84961 c 0.63494,-0.71454 1.36373,-0.68614 2.18555,0.25195 l 1.84766,5.47266 c 0.49888,1.64743 2.9709,0.81118 2.36718,-0.80078 -1.34413,-3.63937 -2.07034,-7.4226 -2.32916,-11.23624 0.0357,-1.82965 -0.41962,-3.16398 0.95716,-3.59009 l 6.46575,-0.90609 c 1.68809,0.0109 1.6722,-2.53195 -0.0156,-2.5 z"
       id="path4592"
       inkscape:connector-curvature="0"
       sodipodi:nodetypes="ssssscccccccccccccccc" />
    <path
       sodipodi:nodetypes="ssssscccccccccccccccc"
       inkscape:connector-curvature="0"
       id="path4566"
       d="m 717.6875,-69.875 c -1.69137,0 -3.0625,1.37113 -3.0625,3.0625 0,1.69137 1.37113,3.0625 3.0625,3.0625 1.69137,0 3.0625,-1.37113 3.0625,-3.0625 0,-1.69137 -1.37113,-3.0625 -3.0625,-3.0625 z m 10.44922,7.11719 -20.09766,0.125 c -1.68809,-0.0109 -1.67219,2.53195 0.0156,2.5 l 5.84753,0.77924 c 1.74146,0.5657 1.12376,1.74671 0.98288,2.98341 -0.44272,3.86447 -1.71722,8.04915 -2.56869,11.96977 -0.60372,1.61196 1.8683,2.44821 2.36718,0.80078 l 1.97461,-5.84961 c 0.63494,-0.71454 1.36373,-0.68614 2.18555,0.25195 l 1.84766,5.47266 c 0.49888,1.64743 2.9709,0.81118 2.36718,-0.80078 -1.34413,-3.63937 -2.07034,-7.4226 -2.32916,-11.23624 0.0357,-1.82965 -0.41962,-3.16398 0.95716,-3.59009 l 6.46575,-0.90609 c 1.68809,0.0109 1.6722,-2.53195 -0.0156,-2.5 z"
       style="color:#000000;font-style:normal;font-variant:normal;font-weight:normal;font-stretch:normal;font-size:medium;line-height:normal;font-family:sans-serif;font-variant-ligatures:normal;font-variant-position:normal;font-variant-caps:normal;font-variant-numeric:normal;font-variant-alternates:normal;font-feature-settings:normal;text-indent:0;text-align:start;text-decoration:none;text-decoration-line:none;text-decoration-style:solid;text-decoration-color:#000000;letter-spacing:normal;word-spacing:normal;text-transform:none;writing-mode:lr-tb;direction:ltr;text-orientation:mixed;dominant-baseline:auto;baseline-shift:baseline;text-anchor:start;white-space:normal;shape-padding:0;clip-rule:nonzero;display:inline;overflow:visible;visibility:visible;opacity:1;isolation:auto;mix-blend-mode:normal;color-interpolation:sRGB;color-interpolation-filters:linearRGB;solid-color:#000000;solid-opacity:1;vector-effect:none;fill:#ffffff;fill-opacity:1;fill-rule:nonzero;stroke:none;stroke-width:2.5;stroke-linecap:round;stroke-linejoin:miter;stroke-miterlimit:4;stroke-dasharray:none;stroke-dashoffset:0;stroke-opacity:1;color-rendering:auto;image-rendering:auto;shape-rendering:auto;text-rendering:auto;enable-background:accumulate" />
  </g>
</svg>
