<?xml version="1.0" encoding="UTF-8" standalone="no"?>
<!-- Created with Inkscape (http://www.inkscape.org/) -->

<svg
   xmlns:osb="http://www.openswatchbook.org/uri/2009/osb"
   xmlns:dc="http://purl.org/dc/elements/1.1/"
   xmlns:cc="http://creativecommons.org/ns#"
   xmlns:rdf="http://www.w3.org/1999/02/22-rdf-syntax-ns#"
   xmlns:svg="http://www.w3.org/2000/svg"
   xmlns="http://www.w3.org/2000/svg"
   xmlns:xlink="http://www.w3.org/1999/xlink"
   xmlns:sodipodi="http://sodipodi.sourceforge.net/DTD/sodipodi-0.dtd"
   xmlns:inkscape="http://www.inkscape.org/namespaces/inkscape"
   width="128"
   height="128"
   viewBox="0 0 33.866665 33.866665"
   version="1.1"
   id="svg4942"
   inkscape:version="0.92.2 5c3e80d, 2017-08-06"
   sodipodi:docname="input-gaming.svg">
  <defs
     id="defs4936">
    <linearGradient
       id="linearGradient6987"
       osb:paint="solid">
      <stop
         style="stop-color:#77d2fb;stop-opacity:1;"
         offset="0"
         id="stop6985" />
    </linearGradient>
    <linearGradient
       inkscape:collect="always"
       xlink:href="#linearGradient4303-1"
       id="linearGradient4295"
       x1="504.57144"
       y1="549.79797"
       x2="504.57144"
       y2="537.79797"
       gradientUnits="userSpaceOnUse"
       gradientTransform="matrix(0.57892576,0,0,0.61865602,-275.38666,-50.516977)" />
    <linearGradient
       inkscape:collect="always"
       id="linearGradient4303-1">
      <stop
         style="stop-color:#bfc1c1;stop-opacity:1"
         offset="0"
         id="stop4305-2" />
      <stop
         style="stop-color:#f1f2f3;stop-opacity:1"
         offset="1"
         id="stop4307-2" />
    </linearGradient>
    <linearGradient
       inkscape:collect="always"
       xlink:href="#linearGradient5322"
       id="linearGradient4295-9"
       x1="504.57144"
       y1="549.79797"
       x2="504.57144"
       y2="537.79797"
       gradientUnits="userSpaceOnUse"
       gradientTransform="matrix(0.57892576,0,0,0.61865602,-275.24192,-57.631526)" />
    <linearGradient
       id="linearGradient5322">
      <stop
         id="stop5324"
         style="stop-color:#0088ff;stop-opacity:1"
         offset="0" />
      <stop
         id="stop5326"
         style="stop-color:#02c3ff;stop-opacity:1"
         offset="1" />
    </linearGradient>
    <linearGradient
       inkscape:collect="always"
       xlink:href="#linearGradient4350"
       id="linearGradient4295-3"
       x1="504.57144"
       y1="549.79797"
       x2="504.57144"
       y2="537.79797"
       gradientUnits="userSpaceOnUse"
       gradientTransform="matrix(1.0565395,0,0,1.1290472,-508.02954,-339.94487)" />
    <linearGradient
       inkscape:collect="always"
       id="linearGradient4350">
      <stop
         style="stop-color:#f0a23a;stop-opacity:1"
         offset="0"
         id="stop4352" />
      <stop
         style="stop-color:#fde46a;stop-opacity:1"
         offset="1"
         id="stop4354" />
    </linearGradient>
    <linearGradient
       inkscape:collect="always"
       xlink:href="#linearGradient4303-1"
       id="linearGradient4295-0"
       x1="504.57144"
       y1="549.79797"
       x2="504.57144"
       y2="537.79797"
       gradientUnits="userSpaceOnUse"
       gradientTransform="matrix(1.0131201,0,0,1.082648,-503.69533,-314.58935)" />
    <linearGradient
       gradientTransform="matrix(0.57892576,0,0,0.61865602,-253.53222,-47.733033)"
       inkscape:collect="always"
       xlink:href="#linearGradient4408"
       id="linearGradient4278"
       x1="468.2439"
       y1="553.73291"
       x2="468.2439"
       y2="502.65051"
       gradientUnits="userSpaceOnUse" />
    <linearGradient
       inkscape:collect="always"
       id="linearGradient4408">
      <stop
         style="stop-color:#4c4c4d;stop-opacity:1"
         offset="0"
         id="stop4410" />
      <stop
         id="stop4414"
         offset="0.49668527"
         style="stop-color:#3f3f40;stop-opacity:1" />
      <stop
         style="stop-color:#636366;stop-opacity:1"
         offset="1"
         id="stop4412" />
    </linearGradient>
  </defs>
  <sodipodi:namedview
     id="base"
     pagecolor="#ffffff"
     bordercolor="#666666"
     borderopacity="1.0"
     inkscape:pageopacity="0.0"
     inkscape:pageshadow="2"
     inkscape:zoom="3.5588345"
     inkscape:cx="31.937255"
     inkscape:cy="74.438588"
     inkscape:document-units="mm"
     inkscape:current-layer="layer1"
     showgrid="false"
     units="px"
     width="128px"
     inkscape:window-width="1600"
     inkscape:window-height="806"
     inkscape:window-x="5"
     inkscape:window-y="8"
     inkscape:window-maximized="0"
     inkscape:measure-start="-1358.47,-26.6019"
     inkscape:measure-end="-1363.38,56.2869"
     showguides="false" />
  <metadata
     id="metadata4939">
    <rdf:RDF>
      <cc:Work
         rdf:about="">
        <dc:format>image/svg+xml</dc:format>
        <dc:type
           rdf:resource="http://purl.org/dc/dcmitype/StillImage" />
        <dc:title></dc:title>
      </cc:Work>
    </rdf:RDF>
  </metadata>
  <g
     inkscape:label="Layer 1"
     inkscape:groupmode="layer"
     id="layer1"
     transform="translate(0,-263.13332)">
    <g
       id="g882"
       transform="matrix(1.0195182,0,0,1.0195182,-0.33050954,-4.833706)"
       style="stroke-width:0.98085546">
      <path
         style="opacity:0.25;fill:#1a1a1a;fill-opacity:1;stroke-width:2.22187448"
         inkscape:connector-curvature="0"
         id="path872"
         d="m 32.24536,273.75095 c -1.070492,-4.78539 -3.009112,-6.04506 -5.150968,-5.83465 h -3.511891 c -0.0293,-3.87098 -2.995437,-4.29069 -6.649629,-4.29069 -3.656416,0 -6.620457,0.41971 -6.649756,4.29069 0,0 -3.372225,0 -4.5425121,0 -1.7396899,0 -3.2248132,1.83217 -4.1192768,5.83465 -1.21183831,5.40811 -0.8567372,13.26359 1.6097829,13.89543 1.522829,0.38899 3.4929639,-2.07116 5.0630104,-5.28114 l 4.0533266,1.6151 c 1.19394,6.2196 2.806884,11.81537 4.585425,11.81537 1.785744,0 3.405961,-5.64997 4.601043,-11.90487 l 4.003027,-1.59498 c 1.576242,3.24462 3.565228,5.7428 5.09857,5.35052 2.466519,-0.63184 2.821691,-8.48732 1.609848,-13.89543 z m -6.175263,-2.04258 c 0.666166,0 1.204439,0.57637 1.204439,1.28766 0,0.71131 -0.538273,1.28769 -1.204439,1.28769 -0.666163,0 -1.20457,-0.57638 -1.20457,-1.28769 0,-0.71129 0.538407,-1.28766 1.20457,-1.28766 z m -7.106485,8.27281 c 0,1.13893 -0.864151,2.06166 -1.930266,2.06166 -1.065236,0 -1.929253,-0.92273 -1.929253,-2.06166 0,-1.13879 0.864017,-2.06222 1.929253,-2.06222 1.066183,7e-5 1.930266,0.92343 1.930266,2.06222 z m -7.489728,-3.48534 c 0,0.28146 -0.213774,0.50922 -0.476539,0.50922 H 9.3476963 v 1.76227 c 0,0.28146 -0.213774,0.50932 -0.4766485,0.50932 H 7.2896232 c -0.2628964,0 -0.476517,-0.22775 -0.476517,-0.50932 v -1.76227 H 5.7406039 5.1634577 c -0.2628303,0 -0.476517,-0.22774 -0.476517,-0.50922 v -1.69002 c 0,-0.28146 0.2135551,-0.50922 0.476517,-0.50922 h 0.5771462 1.0725023 v -1.76286 c 0,-0.28145 0.213774,-0.50932 0.476517,-0.50932 h 1.5814901 c 0.2629836,0 0.4766703,0.22798 0.4766703,0.50932 v 1.76286 H 10.99741 c 0.262852,0 0.476539,0.22774 0.476539,0.50922 v 1.69002 z m 7.221633,10.36202 c 0,0.98054 -0.743672,1.77511 -1.662171,1.77511 -0.917553,0 -1.66109,-0.79457 -1.66109,-1.77511 0,-0.57694 0.261763,-1.08456 0.660839,-1.40913 0.278533,-0.22657 0.623133,-0.36652 1.000251,-0.36652 0.314228,0 0.605422,0.0984 0.855733,0.26029 0.481777,0.31103 0.806438,0.87064 0.806438,1.51536 z m 4.890213,-9.91937 c -0.666163,0 -1.204506,-0.57693 -1.204506,-1.28825 0,-0.71014 0.538413,-1.2871 1.204506,-1.2871 0.666095,0 1.204438,0.57696 1.204438,1.2871 -7e-5,0.71132 -0.538343,1.28825 -1.204438,1.28825 z m 1.279797,1.36721 c 0,-0.71131 0.538407,-1.28768 1.20457,-1.28768 0.666166,0 1.204439,0.57637 1.204439,1.28768 0,0.71129 -0.538273,1.28766 -1.204439,1.28766 -0.666163,0 -1.20457,-0.57637 -1.20457,-1.28766 z m 3.68887,-1.36721 c -0.23981,0 -0.449381,-0.0935 -0.636865,-0.22213 -0.334094,-0.22891 -0.567707,-0.61053 -0.567707,-1.06609 0,-0.45502 0.233613,-0.83608 0.567707,-1.06495 0.187473,-0.1286 0.397055,-0.22213 0.636865,-0.22213 0.666163,0 1.204436,0.57693 1.204436,1.28708 0,0.71124 -0.538273,1.28818 -1.204436,1.28818 z" />
      <ellipse
         ry="3.0932801"
         rx="2.8946288"
         style="opacity:1;fill:url(#linearGradient4295);fill-opacity:1;fill-rule:evenodd;stroke:none;stroke-width:6.66562319;stroke-linecap:round;stroke-linejoin:miter;stroke-miterlimit:4;stroke-dasharray:none;stroke-dashoffset:0;stroke-opacity:1"
         id="path4287"
         cx="16.867479"
         cy="286.52557" />
      <ellipse
         ry="3.0932801"
         rx="2.8946288"
         style="opacity:1;fill:url(#linearGradient4295-9);fill-opacity:1;fill-rule:evenodd;stroke:none;stroke-width:6.66562319;stroke-linecap:round;stroke-linejoin:miter;stroke-miterlimit:4;stroke-dasharray:none;stroke-dashoffset:0;stroke-opacity:1"
         id="path4287-2"
         cx="17.012213"
         cy="279.41101" />
      <ellipse
         ry="5.645236"
         rx="5.2826972"
         style="opacity:1;fill:url(#linearGradient4295-3);fill-opacity:1;fill-rule:evenodd;stroke:none;stroke-width:6.66562319;stroke-linecap:round;stroke-linejoin:miter;stroke-miterlimit:4;stroke-dasharray:none;stroke-dashoffset:0;stroke-opacity:1"
         id="path4287-8"
         cx="25.334265"
         cy="275.15778" />
      <ellipse
         ry="5.4132404"
         rx="5.0656009"
         style="opacity:1;fill:url(#linearGradient4295-0);fill-opacity:1;fill-rule:evenodd;stroke:none;stroke-width:6.66562319;stroke-linecap:round;stroke-linejoin:miter;stroke-miterlimit:4;stroke-dasharray:none;stroke-dashoffset:0;stroke-opacity:1"
         id="path4287-3"
         cx="7.7494102"
         cy="275.23511" />
      <path
         d="m 32.24536,273.22178 c -1.070492,-4.78539 -3.009112,-6.04506 -5.150968,-5.83465 h -3.511891 c -0.0293,-3.87098 -2.995437,-4.29069 -6.649629,-4.29069 -3.656416,0 -6.620457,0.41971 -6.649756,4.29069 0,0 -3.372225,0 -4.5425121,0 -1.7396899,0 -3.2248132,1.83217 -4.1192768,5.83465 -1.21183831,5.40811 -0.8567372,13.26359 1.6097829,13.89543 1.522829,0.38899 3.4929639,-2.07116 5.0630104,-5.28114 l 4.0533266,1.6151 c 1.19394,6.2196 2.806884,11.81537 4.585425,11.81537 1.785744,0 3.405961,-5.64997 4.601043,-11.90487 l 4.003027,-1.59498 c 1.576242,3.24462 3.565228,5.7428 5.09857,5.35052 2.466519,-0.63184 2.821691,-8.48732 1.609848,-13.89543 z m -6.175263,-2.04258 c 0.666166,0 1.204439,0.57637 1.204439,1.28766 0,0.71131 -0.538273,1.28769 -1.204439,1.28769 -0.666163,0 -1.20457,-0.57638 -1.20457,-1.28769 0,-0.71129 0.538407,-1.28766 1.20457,-1.28766 z m -7.106485,8.27281 c 0,1.13893 -0.864151,2.06166 -1.930266,2.06166 -1.065236,0 -1.929253,-0.92273 -1.929253,-2.06166 0,-1.13879 0.864017,-2.06222 1.929253,-2.06222 1.066183,7e-5 1.930266,0.92343 1.930266,2.06222 z m -7.489728,-3.48534 c 0,0.28146 -0.213774,0.50922 -0.476539,0.50922 H 9.3476963 v 1.76227 c 0,0.28146 -0.213774,0.50932 -0.4766485,0.50932 H 7.2896232 c -0.2628964,0 -0.476517,-0.22775 -0.476517,-0.50932 v -1.76227 H 5.7406039 5.1634577 c -0.2628303,0 -0.476517,-0.22774 -0.476517,-0.50922 v -1.69002 c 0,-0.28146 0.2135551,-0.50922 0.476517,-0.50922 h 0.5771462 1.0725023 v -1.76286 c 0,-0.28145 0.213774,-0.50932 0.476517,-0.50932 h 1.5814901 c 0.2629836,0 0.4766703,0.22798 0.4766703,0.50932 v 1.76286 H 10.99741 c 0.262852,0 0.476539,0.22774 0.476539,0.50922 v 1.69002 z m 7.221633,10.36202 c 0,0.98054 -0.743672,1.77511 -1.662171,1.77511 -0.917553,0 -1.66109,-0.79457 -1.66109,-1.77511 0,-0.57694 0.261763,-1.08456 0.660839,-1.40913 0.278533,-0.22657 0.623133,-0.36652 1.000251,-0.36652 0.314228,0 0.605422,0.0984 0.855733,0.26029 0.481777,0.31103 0.806438,0.87064 0.806438,1.51536 z m 4.890213,-9.91937 c -0.666163,0 -1.204506,-0.57693 -1.204506,-1.28825 0,-0.71014 0.538413,-1.2871 1.204506,-1.2871 0.666095,0 1.204438,0.57696 1.204438,1.2871 -7e-5,0.71132 -0.538343,1.28825 -1.204438,1.28825 z m 1.279797,1.36721 c 0,-0.71131 0.538407,-1.28768 1.20457,-1.28768 0.666166,0 1.204439,0.57637 1.204439,1.28768 0,0.71129 -0.538273,1.28766 -1.204439,1.28766 -0.666163,0 -1.20457,-0.57637 -1.20457,-1.28766 z m 3.68887,-1.36721 c -0.23981,0 -0.449381,-0.0935 -0.636865,-0.22213 -0.334094,-0.22891 -0.567707,-0.61053 -0.567707,-1.06609 0,-0.45502 0.233613,-0.83608 0.567707,-1.06495 0.187473,-0.1286 0.397055,-0.22213 0.636865,-0.22213 0.666163,0 1.204436,0.57693 1.204436,1.28708 0,0.71124 -0.538273,1.28818 -1.204436,1.28818 z"
         id="path3"
         inkscape:connector-curvature="0"
         style="fill:url(#linearGradient4278);fill-opacity:1;stroke-width:2.22187448" />
    </g>
  </g>
</svg>
