<?xml version="1.0" encoding="UTF-8" standalone="no"?>
<svg
   xmlns:dc="http://purl.org/dc/elements/1.1/"
   xmlns:cc="http://creativecommons.org/ns#"
   xmlns:rdf="http://www.w3.org/1999/02/22-rdf-syntax-ns#"
   xmlns:svg="http://www.w3.org/2000/svg"
   xmlns="http://www.w3.org/2000/svg"
   xmlns:xlink="http://www.w3.org/1999/xlink"
   xmlns:sodipodi="http://sodipodi.sourceforge.net/DTD/sodipodi-0.dtd"
   xmlns:inkscape="http://www.inkscape.org/namespaces/inkscape"
   height="136.53333"
   viewBox="0 0 136.53333 136.53333"
   width="136.53333"
   version="1.1"
   id="svg59"
   sodipodi:docname="application-x-yarock.svg"
   inkscape:version="0.92.3 (2405546, 2018-03-11)">
  <metadata
     id="metadata65">
    <rdf:RDF>
      <cc:Work
         rdf:about="">
        <dc:format>image/svg+xml</dc:format>
        <dc:type
           rdf:resource="http://purl.org/dc/dcmitype/StillImage" />
        <dc:title></dc:title>
      </cc:Work>
    </rdf:RDF>
  </metadata>
  <defs
     id="defs63">
    <linearGradient
       id="linearGradient864"
       inkscape:collect="always">
      <stop
         id="stop853"
         offset="0"
         style="stop-color:#00002b;stop-opacity:1" />
      <stop
         id="stop861"
         offset="1"
         style="stop-color:#7cf1e7;stop-opacity:1" />
    </linearGradient>
    <linearGradient
       inkscape:collect="always"
       xlink:href="#linearGradient864"
       id="linearGradient894"
       x1="37.227966"
       y1="13.254093"
       x2="79.895027"
       y2="133.76006"
       gradientUnits="userSpaceOnUse" />
    <linearGradient
       inkscape:collect="always"
       xlink:href="#linearGradient864"
       id="linearGradient878"
       gradientUnits="userSpaceOnUse"
       gradientTransform="translate(3.1444192e-4,-8.5442391e-4)"
       x1="33.584972"
       y1="27.308105"
       x2="98.141052"
       y2="115.05646" />
    <linearGradient
       inkscape:collect="always"
       xlink:href="#linearGradient864"
       id="linearGradient911"
       x1="45.971329"
       y1="25.060703"
       x2="103.34582"
       y2="110.76364"
       gradientUnits="userSpaceOnUse"
       gradientTransform="translate(-138.47467,1.8408745)" />
    <linearGradient
       inkscape:collect="always"
       xlink:href="#linearGradient864"
       id="linearGradient939"
       gradientUnits="userSpaceOnUse"
       gradientTransform="translate(-138.47467,1.8408745)"
       x1="45.971329"
       y1="25.060703"
       x2="103.34582"
       y2="110.76364" />
    <linearGradient
       inkscape:collect="always"
       xlink:href="#linearGradient864"
       id="linearGradient941"
       gradientUnits="userSpaceOnUse"
       gradientTransform="translate(-138.47467,1.8408745)"
       x1="45.971329"
       y1="25.060703"
       x2="103.34582"
       y2="110.76364" />
    <linearGradient
       inkscape:collect="always"
       xlink:href="#linearGradient864"
       id="linearGradient943"
       gradientUnits="userSpaceOnUse"
       gradientTransform="translate(-138.47467,1.8408745)"
       x1="45.971329"
       y1="25.060703"
       x2="103.34582"
       y2="110.76364" />
    <linearGradient
       inkscape:collect="always"
       xlink:href="#linearGradient864"
       id="linearGradient945"
       gradientUnits="userSpaceOnUse"
       gradientTransform="translate(-138.47467,1.8408745)"
       x1="45.971329"
       y1="25.060703"
       x2="103.34582"
       y2="110.76364" />
    <linearGradient
       inkscape:collect="always"
       xlink:href="#linearGradient864"
       id="linearGradient947"
       gradientUnits="userSpaceOnUse"
       gradientTransform="translate(-138.47467,1.8408745)"
       x1="45.971329"
       y1="25.060703"
       x2="103.34582"
       y2="110.76364" />
  </defs>
  <sodipodi:namedview
     pagecolor="#ffffff"
     bordercolor="#666666"
     borderopacity="1"
     objecttolerance="10"
     gridtolerance="10"
     guidetolerance="10"
     inkscape:pageopacity="0"
     inkscape:pageshadow="2"
     inkscape:window-width="1920"
     inkscape:window-height="1017"
     id="namedview61"
     showgrid="false"
     inkscape:zoom="0.82640875"
     inkscape:cx="-70.361467"
     inkscape:cy="65.447351"
     inkscape:window-x="0"
     inkscape:window-y="30"
     inkscape:window-maximized="1"
     inkscape:current-layer="svg59" />
  <linearGradient
     id="a">
    <stop
       offset="0"
       stop-color="#9760ef"
       id="stop2" />
    <stop
       offset="1"
       stop-color="#c054f2"
       stop-opacity="0"
       id="stop4" />
  </linearGradient>
  <linearGradient
     id="b">
    <stop
       offset="0"
       stop-color="#17c7e7"
       id="stop7" />
    <stop
       offset="1"
       stop-color="#c054f2"
       stop-opacity="0"
       id="stop9" />
  </linearGradient>
  <linearGradient
     id="c"
     gradientUnits="userSpaceOnUse"
     x1="62.04421"
     x2="66.81698"
     y1="5.831234"
     y2="47.148641">
    <stop
       offset="0"
       stop-color="#e83c2b"
       id="stop12" />
    <stop
       offset="1"
       stop-color="#c054f2"
       stop-opacity=".792157"
       id="stop14" />
  </linearGradient>
  <linearGradient
     id="d"
     gradientUnits="userSpaceOnUse"
     x1="88.22553"
     x2="38.18116"
     xlink:href="#b"
     y1="119.556361"
     y2="35.285226"
     gradientTransform="translate(-227.27608,-22.607353)" />
  <linearGradient
     id="e"
     gradientUnits="userSpaceOnUse"
     x1="61.6262"
     x2="95.3216"
     y1="48.640058"
     y2="103.021981">
    <stop
       offset="0"
       stop-color="#f66456"
       id="stop18" />
    <stop
       offset="1"
       stop-color="#d9493e"
       stop-opacity="0"
       id="stop20" />
  </linearGradient>
  <linearGradient
     id="f"
     gradientUnits="userSpaceOnUse"
     x1="32.31499"
     x2="61.76681"
     xlink:href="#a"
     y1="92.483823"
     y2="57.318029" />
  <linearGradient
     id="g"
     gradientUnits="userSpaceOnUse"
     x1="96.53194"
     x2="61.76681"
     xlink:href="#b"
     y1="97.690601"
     y2="59.053621" />
  <linearGradient
     id="h"
     gradientUnits="userSpaceOnUse"
     x1="139.34325"
     x2="61.76681"
     xlink:href="#a"
     y1="-7.023515"
     y2="59.053621" />
  <filter
     id="i"
     color-interpolation-filters="sRGB"
     height="1.108812"
     width="1.139866"
     x="-.069933"
     y="-.054406">
    <feGaussianBlur
       stdDeviation="1.9764485"
       id="feGaussianBlur26" />
  </filter>
  <path
     style="color:#000000;font-style:normal;font-variant:normal;font-weight:normal;font-stretch:normal;font-size:medium;line-height:normal;font-family:sans-serif;font-variant-ligatures:normal;font-variant-position:normal;font-variant-caps:normal;font-variant-numeric:normal;font-variant-alternates:normal;font-feature-settings:normal;text-indent:0;text-align:start;text-decoration:none;text-decoration-line:none;text-decoration-style:solid;text-decoration-color:#000000;letter-spacing:normal;word-spacing:normal;text-transform:none;writing-mode:lr-tb;direction:ltr;text-orientation:mixed;dominant-baseline:auto;baseline-shift:baseline;text-anchor:start;white-space:normal;shape-padding:0;clip-rule:nonzero;display:inline;overflow:visible;visibility:visible;opacity:1;isolation:auto;mix-blend-mode:normal;color-interpolation:sRGB;color-interpolation-filters:linearRGB;solid-color:#000000;solid-opacity:1;vector-effect:none;fill:url(#linearGradient894);fill-opacity:1;fill-rule:nonzero;stroke:none;stroke-width:6;stroke-linecap:butt;stroke-linejoin:miter;stroke-miterlimit:4;stroke-dasharray:none;stroke-dashoffset:0;stroke-opacity:1;color-rendering:auto;image-rendering:auto;shape-rendering:auto;text-rendering:auto;enable-background:accumulate"
     d="m 68.113281,2.2167969 c -36.979431,0 -67.0214841,30.0420531 -67.0214841,67.0214841 0,36.979429 30.0420531,67.021489 67.0214841,67.021489 36.979429,0 67.021489,-30.04206 67.021489,-67.021489 0,-36.979431 -30.04206,-67.0214841 -67.021489,-67.0214841 z"
     id="circle29"
     inkscape:connector-curvature="0"
     sodipodi:nodetypes="sssss" />
  <path
     style="opacity:1;fill:#ffffff;fill-opacity:1;stroke:none;stroke-width:3.79999995;stroke-linecap:round;stroke-linejoin:round;stroke-miterlimit:4;stroke-dasharray:none;stroke-dashoffset:0;stroke-opacity:0.05323193;paint-order:fill markers stroke"
     d="M 68.113281,8.78125 C 34.723662,8.7809529 7.6559529,35.848662 7.65625,69.238281 7.655954,102.6279 34.723662,129.69561 68.113281,129.69531 101.5029,129.69561 128.57061,102.6279 128.57031,69.238281 128.57061,35.848662 101.5029,8.780954 68.113281,8.78125 Z"
     id="path839"
     inkscape:connector-curvature="0"
     sodipodi:nodetypes="ccccc" />
  <g
     id="g937"
     transform="translate(138.47467,-1.840874)">
    <path
       style="opacity:0.047;fill:none;fill-opacity:1;stroke:url(#linearGradient939);stroke-width:1;stroke-linecap:round;stroke-linejoin:round;stroke-miterlimit:4;stroke-dasharray:none;stroke-dashoffset:0;stroke-opacity:1;paint-order:fill markers stroke"
       d="m -38.741932,27.492363 c -0.18436,-0.01537 -0.37443,-0.0043 -0.56836,0.03711 l -42.134766,9 c -1.55143,0.331373 -3.06836,1.890138 -3.06836,3.476563 v 7.363281 l -0.17578,43.832031 c -3.66128,2.81867 -11.94881,1.749215 -16.500002,5.78711 -4.26102,4.888512 -4.33147,12.827482 1.17969,16.060542 7.15682,4.04454 20.656352,0.7443 19.996092,-12.29296 l 0.49609,-44.542973 37.849606,-6.398438 0.0645,31.945313 c -3.774406,2.596773 -11.795446,1.664799 -16.248046,5.615234 -4.26102,4.888503 -4.33148,12.825544 1.17969,16.058594 7.15682,4.04453 20.656349,0.7443 19.996089,-12.292969 l 0.0859,-43.763672 c 0.0849,-0.256453 0.14257,-0.528033 0.14257,-0.826171 V 30.392753 c 0,-1.38812 -1.00443,-2.792812 -2.294913,-2.90039 z"
       id="path903"
       inkscape:connector-curvature="0" />
    <path
       inkscape:connector-curvature="0"
       id="path919"
       d="m -38.741932,27.492363 c -0.18436,-0.01537 -0.37443,-0.0043 -0.56836,0.03711 l -42.134766,9 c -1.55143,0.331373 -3.06836,1.890138 -3.06836,3.476563 v 7.363281 l -0.17578,43.832031 c -3.66128,2.81867 -11.94881,1.749215 -16.500002,5.78711 -4.26102,4.888512 -4.33147,12.827482 1.17969,16.060542 7.15682,4.04454 20.656352,0.7443 19.996092,-12.29296 l 0.49609,-44.542973 37.849606,-6.398438 0.0645,31.945313 c -3.774406,2.596773 -11.795446,1.664799 -16.248046,5.615234 -4.26102,4.888503 -4.33148,12.825544 1.17969,16.058594 7.15682,4.04453 20.656349,0.7443 19.996089,-12.292969 l 0.0859,-43.763672 c 0.0849,-0.256453 0.14257,-0.528033 0.14257,-0.826171 V 30.392753 c 0,-1.38812 -1.00443,-2.792812 -2.294913,-2.90039 z"
       style="opacity:0.047;fill:none;fill-opacity:1;stroke:url(#linearGradient941);stroke-width:2;stroke-linecap:round;stroke-linejoin:round;stroke-miterlimit:4;stroke-dasharray:none;stroke-dashoffset:0;stroke-opacity:1;paint-order:fill markers stroke" />
    <path
       style="opacity:0.047;fill:none;fill-opacity:1;stroke:url(#linearGradient943);stroke-width:3;stroke-linecap:round;stroke-linejoin:round;stroke-miterlimit:4;stroke-dasharray:none;stroke-dashoffset:0;stroke-opacity:1;paint-order:fill markers stroke"
       d="m -38.741932,27.492363 c -0.18436,-0.01537 -0.37443,-0.0043 -0.56836,0.03711 l -42.134766,9 c -1.55143,0.331373 -3.06836,1.890138 -3.06836,3.476563 v 7.363281 l -0.17578,43.832031 c -3.66128,2.81867 -11.94881,1.749215 -16.500002,5.78711 -4.26102,4.888512 -4.33147,12.827482 1.17969,16.060542 7.15682,4.04454 20.656352,0.7443 19.996092,-12.29296 l 0.49609,-44.542973 37.849606,-6.398438 0.0645,31.945313 c -3.774406,2.596773 -11.795446,1.664799 -16.248046,5.615234 -4.26102,4.888503 -4.33148,12.825544 1.17969,16.058594 7.15682,4.04453 20.656349,0.7443 19.996089,-12.292969 l 0.0859,-43.763672 c 0.0849,-0.256453 0.14257,-0.528033 0.14257,-0.826171 V 30.392753 c 0,-1.38812 -1.00443,-2.792812 -2.294913,-2.90039 z"
       id="path921"
       inkscape:connector-curvature="0" />
    <path
       inkscape:connector-curvature="0"
       id="path925"
       d="m -38.741932,27.492363 c -0.18436,-0.01537 -0.37443,-0.0043 -0.56836,0.03711 l -42.134766,9 c -1.55143,0.331373 -3.06836,1.890138 -3.06836,3.476563 v 7.363281 l -0.17578,43.832031 c -3.66128,2.81867 -11.94881,1.749215 -16.500002,5.78711 -4.26102,4.888512 -4.33147,12.827482 1.17969,16.060542 7.15682,4.04454 20.656352,0.7443 19.996092,-12.29296 l 0.49609,-44.542973 37.849606,-6.398438 0.0645,31.945313 c -3.774406,2.596773 -11.795446,1.664799 -16.248046,5.615234 -4.26102,4.888503 -4.33148,12.825544 1.17969,16.058594 7.15682,4.04453 20.656349,0.7443 19.996089,-12.292969 l 0.0859,-43.763672 c 0.0849,-0.256453 0.14257,-0.528033 0.14257,-0.826171 V 30.392753 c 0,-1.38812 -1.00443,-2.792812 -2.294913,-2.90039 z"
       style="opacity:0.047;fill:none;fill-opacity:1;stroke:url(#linearGradient945);stroke-width:4;stroke-linecap:round;stroke-linejoin:round;stroke-miterlimit:4;stroke-dasharray:none;stroke-dashoffset:0;stroke-opacity:1;paint-order:fill markers stroke" />
    <path
       style="opacity:0.047;fill:none;fill-opacity:1;stroke:url(#linearGradient947);stroke-width:5;stroke-linecap:round;stroke-linejoin:round;stroke-miterlimit:4;stroke-dasharray:none;stroke-dashoffset:0;stroke-opacity:1;paint-order:fill markers stroke"
       d="m -38.741932,27.492363 c -0.18436,-0.01537 -0.37443,-0.0043 -0.56836,0.03711 l -42.134766,9 c -1.55143,0.331373 -3.06836,1.890138 -3.06836,3.476563 v 7.363281 l -0.17578,43.832031 c -3.66128,2.81867 -11.94881,1.749215 -16.500002,5.78711 -4.26102,4.888512 -4.33147,12.827482 1.17969,16.060542 7.15682,4.04454 20.656352,0.7443 19.996092,-12.29296 l 0.49609,-44.542973 37.849606,-6.398438 0.0645,31.945313 c -3.774406,2.596773 -11.795446,1.664799 -16.248046,5.615234 -4.26102,4.888503 -4.33148,12.825544 1.17969,16.058594 7.15682,4.04453 20.656349,0.7443 19.996089,-12.292969 l 0.0859,-43.763672 c 0.0849,-0.256453 0.14257,-0.528033 0.14257,-0.826171 V 30.392753 c 0,-1.38812 -1.00443,-2.792812 -2.294913,-2.90039 z"
       id="path927"
       inkscape:connector-curvature="0" />
    <path
       inkscape:connector-curvature="0"
       id="path929"
       d="m -38.741932,27.492363 c -0.18436,-0.01537 -0.37443,-0.0043 -0.56836,0.03711 l -42.134766,9 c -1.55143,0.331373 -3.06836,1.890138 -3.06836,3.476563 v 7.363281 l -0.17578,43.832031 c -3.66128,2.81867 -11.94881,1.749215 -16.500002,5.78711 -4.26102,4.888512 -4.33147,12.827482 1.17969,16.060542 7.15682,4.04454 20.656352,0.7443 19.996092,-12.29296 l 0.49609,-44.542973 37.849606,-6.398438 0.0645,31.945313 c -3.774406,2.596773 -11.795446,1.664799 -16.248046,5.615234 -4.26102,4.888503 -4.33148,12.825544 1.17969,16.058594 7.15682,4.04453 20.656349,0.7443 19.996089,-12.292969 l 0.0859,-43.763672 c 0.0849,-0.256453 0.14257,-0.528033 0.14257,-0.826171 V 30.392753 c 0,-1.38812 -1.00443,-2.792812 -2.294913,-2.90039 z"
       style="opacity:0.047;fill:none;fill-opacity:1;stroke:url(#linearGradient911);stroke-width:6;stroke-linecap:round;stroke-linejoin:round;stroke-miterlimit:4;stroke-dasharray:none;stroke-dashoffset:0;stroke-opacity:1;paint-order:fill markers stroke" />
  </g>
  <path
     style="opacity:1;fill:url(#linearGradient878);fill-opacity:1.0;stroke:none;stroke-width:6;stroke-linecap:round;stroke-linejoin:round;stroke-miterlimit:4;stroke-dasharray:none;stroke-dashoffset:0;stroke-opacity:1;paint-order:fill markers stroke"
     d="m 99.732737,25.651489 c -0.18436,-0.01537 -0.37443,-0.0043 -0.56836,0.03711 l -42.134766,9 c -1.55143,0.331373 -3.06836,1.890138 -3.06836,3.476563 v 7.363281 l -0.17578,43.832031 c -3.66128,2.81867 -11.94881,1.749215 -16.5,5.78711 -4.26102,4.888516 -4.331472,12.827486 1.179688,16.060546 7.15682,4.04454 20.656352,0.7443 19.996092,-12.292963 l 0.49609,-44.542974 37.849606,-6.398438 0.0645,31.945313 c -3.774406,2.596773 -11.795446,1.664799 -16.248046,5.615234 -4.26102,4.888503 -4.33148,12.825545 1.17969,16.058598 7.15682,4.04453 20.656349,0.7443 19.996089,-12.292973 l 0.0859,-43.763672 c 0.0849,-0.256453 0.14257,-0.528033 0.14257,-0.826171 V 28.551879 c 0,-1.38812 -1.00443,-2.792812 -2.294913,-2.90039 z"
     id="rect895"
     inkscape:connector-curvature="0" />
</svg>
