<?xml version="1.0" encoding="UTF-8" standalone="no"?>
<!-- Created with Inkscape (http://www.inkscape.org/) -->

<svg
   xmlns:dc="http://purl.org/dc/elements/1.1/"
   xmlns:cc="http://creativecommons.org/ns#"
   xmlns:rdf="http://www.w3.org/1999/02/22-rdf-syntax-ns#"
   xmlns:svg="http://www.w3.org/2000/svg"
   xmlns="http://www.w3.org/2000/svg"
   xmlns:xlink="http://www.w3.org/1999/xlink"
   xmlns:sodipodi="http://sodipodi.sourceforge.net/DTD/sodipodi-0.dtd"
   xmlns:inkscape="http://www.inkscape.org/namespaces/inkscape"
   version="1.1"
   id="svg2"
   width="128"
   height="128"
   viewBox="0 0 128 128"
   sodipodi:docname="astah_uml.svg"
   inkscape:version="0.92.1 r15371">
  <metadata
     id="metadata8">
    <rdf:RDF>
      <cc:Work
         rdf:about="">
        <dc:format>image/svg+xml</dc:format>
        <dc:type
           rdf:resource="http://purl.org/dc/dcmitype/StillImage" />
        <dc:title></dc:title>
      </cc:Work>
    </rdf:RDF>
  </metadata>
  <defs
     id="defs6">
    <linearGradient
       inkscape:collect="always"
       id="linearGradient833">
      <stop
         style="stop-color:#0089ea;stop-opacity:1"
         offset="0"
         id="stop829" />
      <stop
         style="stop-color:#49ceff;stop-opacity:1"
         offset="1"
         id="stop831" />
    </linearGradient>
    <linearGradient
       inkscape:collect="always"
       id="linearGradient823">
      <stop
         style="stop-color:#0991ed;stop-opacity:1"
         offset="0"
         id="stop819" />
      <stop
         style="stop-color:#49ceff;stop-opacity:1"
         offset="1"
         id="stop821" />
    </linearGradient>
    <linearGradient
       inkscape:collect="always"
       xlink:href="#linearGradient823"
       id="linearGradient825"
       x1="-741.83197"
       y1="959.04749"
       x2="-741.83197"
       y2="93.836403"
       gradientUnits="userSpaceOnUse"
       gradientTransform="matrix(0.13667801,0,0,0.13667801,162.31231,-5.989337)" />
    <linearGradient
       inkscape:collect="always"
       xlink:href="#linearGradient833"
       id="linearGradient835"
       x1="-738.76385"
       y1="931.43433"
       x2="-738.76385"
       y2="152.13077"
       gradientUnits="userSpaceOnUse"
       gradientTransform="matrix(0.13667801,0,0,0.13667801,162.31231,-5.989337)" />
    <linearGradient
       x1="76.523361"
       y1="-9.023138"
       x2="76.523361"
       y2="3.4508991"
       id="linearGradient3149"
       xlink:href="#linearGradient4113"
       gradientUnits="userSpaceOnUse"
       gradientTransform="matrix(0.89553576,0,0,-0.89663265,6.6836208,69.705837)" />
    <linearGradient
       id="linearGradient4113">
      <stop
         id="stop4115"
         style="stop-color:#000000;stop-opacity:1"
         offset="0" />
      <stop
         id="stop4117"
         style="stop-color:#000000;stop-opacity:0"
         offset="1" />
    </linearGradient>
    <linearGradient
       x1="23.99999"
       y1="4.999989"
       x2="23.99999"
       y2="43"
       id="linearGradient3159"
       xlink:href="#linearGradient3924-776"
       gradientUnits="userSpaceOnUse"
       gradientTransform="matrix(2.7297298,0,0,2.7297298,-544.90791,-119.49824)" />
    <linearGradient
       id="linearGradient3924-776">
      <stop
         id="stop3124"
         style="stop-color:#ffffff;stop-opacity:1"
         offset="0" />
      <stop
         id="stop3126"
         style="stop-color:#ffffff;stop-opacity:0.23529412"
         offset="0.06316455" />
      <stop
         id="stop3128"
         style="stop-color:#ffffff;stop-opacity:0.15686275"
         offset="0.95056331" />
      <stop
         id="stop3130"
         style="stop-color:#ffffff;stop-opacity:0.39215687"
         offset="1" />
    </linearGradient>
    <radialGradient
       cx="6.7304144"
       cy="9.9571075"
       r="12.671875"
       fx="6.2001843"
       fy="9.9571075"
       id="radialGradient3395"
       xlink:href="#linearGradient2867-449-88-871-390-598-476-591-434-148-57-177-8-3-3-6-4-8-8-8-5"
       gradientUnits="userSpaceOnUse"
       gradientTransform="matrix(0,25.083279,-30.794253,0,372.81658,-208.0918)" />
    <linearGradient
       id="linearGradient2867-449-88-871-390-598-476-591-434-148-57-177-8-3-3-6-4-8-8-8-5">
      <stop
         id="stop3750-1-0-7-6-6-1-3-9-3"
         style="stop-color:#919caf;stop-opacity:1"
         offset="0" />
      <stop
         id="stop3752-3-7-4-0-32-8-923-0-7"
         style="stop-color:#68758e;stop-opacity:1"
         offset="0.26238" />
      <stop
         id="stop3754-1-8-5-2-7-6-7-1-9"
         style="stop-color:#485a6c;stop-opacity:1"
         offset="0.704952" />
      <stop
         id="stop3756-1-6-2-6-6-1-96-6-0"
         style="stop-color:#444c5c;stop-opacity:1"
         offset="1" />
    </linearGradient>
    <radialGradient
       cx="4.9929786"
       cy="43.5"
       r="2.5"
       fx="4.9929786"
       fy="43.5"
       id="radialGradient2455-1"
       xlink:href="#linearGradient3688-166-749-5"
       gradientUnits="userSpaceOnUse"
       gradientTransform="matrix(2.003784,0,0,1.4,27.98813,-17.4)" />
    <linearGradient
       id="linearGradient3688-166-749-5">
      <stop
         id="stop2883-0"
         style="stop-color:#181818;stop-opacity:1"
         offset="0" />
      <stop
         id="stop2885-5"
         style="stop-color:#181818;stop-opacity:0"
         offset="1" />
    </linearGradient>
    <radialGradient
       cx="4.9929786"
       cy="43.5"
       r="2.5"
       fx="4.9929786"
       fy="43.5"
       id="radialGradient2457-5"
       xlink:href="#linearGradient3688-166-749-5"
       gradientUnits="userSpaceOnUse"
       gradientTransform="matrix(2.003784,0,0,1.4,-20.01187,-104.4)" />
    <linearGradient
       x1="25.058096"
       y1="47.027729"
       x2="25.058096"
       y2="39.999443"
       id="linearGradient2459-7"
       xlink:href="#linearGradient3702-501-757-0"
       gradientUnits="userSpaceOnUse" />
    <linearGradient
       id="linearGradient3702-501-757-0">
      <stop
         id="stop2895-0"
         style="stop-color:#181818;stop-opacity:0"
         offset="0" />
      <stop
         id="stop2897-2"
         style="stop-color:#181818;stop-opacity:1"
         offset="0.5" />
      <stop
         id="stop2899-6"
         style="stop-color:#181818;stop-opacity:0"
         offset="1" />
    </linearGradient>
    <radialGradient
       cx="-4.0287771"
       cy="93.467628"
       r="35.338131"
       fx="-4.0287771"
       fy="93.467628"
       id="radialGradient4377"
       xlink:href="#linearGradient4113"
       gradientUnits="userSpaceOnUse"
       gradientTransform="matrix(1.5563924,0,0,0.16978827,70.270358,102.13029)" />
    <filter
       id="filter3907"
       inkscape:label="Colorize"
       style="color-interpolation-filters:sRGB;">
      <feComposite
         id="feComposite3909"
         result="composite1"
         k2="1"
         k1="0"
         operator="arithmetic"
         in2="SourceGraphic" />
      <feColorMatrix
         id="feColorMatrix3911"
         result="colormatrix1"
         type="saturate"
         values="1"
         in="composite1" />
      <feFlood
         id="feFlood3913"
         result="flood1"
         flood-color="rgb(23,141,46)"
         flood-opacity="0.854902" />
      <feBlend
         id="feBlend3915"
         result="blend1"
         mode="multiply"
         in2="colormatrix1"
         in="flood1" />
      <feBlend
         id="feBlend3917"
         result="blend2"
         mode="screen"
         in2="blend1" />
      <feColorMatrix
         id="feColorMatrix3919"
         result="colormatrix2"
         type="saturate"
         values="1"
         in="blend2" />
      <feComposite
         id="feComposite3921"
         result="composite2"
         k2="1"
         operator="in"
         in2="SourceGraphic"
         in="colormatrix2" />
    </filter>
    <radialGradient
       cx="6.7304144"
       cy="9.9571075"
       r="12.671875"
       fx="6.2001843"
       fy="9.9571075"
       id="radialGradient3395-6"
       xlink:href="#linearGradient2867-449-88-871-390-598-476-591-434-148-57-177-8-3-3-6-4-8-8-8-5-2"
       gradientUnits="userSpaceOnUse"
       gradientTransform="matrix(0,25.083279,-30.794253,0,-170.57782,-329.07655)" />
    <linearGradient
       id="linearGradient2867-449-88-871-390-598-476-591-434-148-57-177-8-3-3-6-4-8-8-8-5-2">
      <stop
         id="stop3750-1-0-7-6-6-1-3-9-3-9"
         style="stop-color:#95a3ab;stop-opacity:1"
         offset="0" />
      <stop
         id="stop3752-3-7-4-0-32-8-923-0-7-1"
         style="stop-color:#8a715e;stop-opacity:1"
         offset="0.26238" />
      <stop
         id="stop3754-1-8-5-2-7-6-7-1-9-2"
         style="stop-color:#715344;stop-opacity:1"
         offset="0.704952" />
      <stop
         id="stop3756-1-6-2-6-6-1-96-6-0-7"
         style="stop-color:#273445;stop-opacity:1"
         offset="1" />
    </linearGradient>
    <radialGradient
       cx="4.9929786"
       cy="43.5"
       r="2.5"
       fx="4.9929786"
       fy="43.5"
       id="radialGradient2455-1-0"
       xlink:href="#linearGradient3688-166-749-5"
       gradientUnits="userSpaceOnUse"
       gradientTransform="matrix(2.003784,0,0,1.4,27.98813,-17.4)" />
    <radialGradient
       cx="4.9929786"
       cy="43.5"
       r="2.5"
       fx="4.9929786"
       fy="43.5"
       id="radialGradient2457-5-6"
       xlink:href="#linearGradient3688-166-749-5"
       gradientUnits="userSpaceOnUse"
       gradientTransform="matrix(2.003784,0,0,1.4,-20.01187,-104.4)" />
    <radialGradient
       cx="-4.0287771"
       cy="93.467628"
       r="35.338131"
       fx="-4.0287771"
       fy="93.467628"
       id="radialGradient4377-6"
       xlink:href="#linearGradient4113"
       gradientUnits="userSpaceOnUse"
       gradientTransform="matrix(1.5563924,0,0,0.16978827,-473.12404,-18.85446)" />
  </defs>
  <sodipodi:namedview
     pagecolor="#ffffff"
     bordercolor="#666666"
     borderopacity="1"
     objecttolerance="10"
     gridtolerance="10"
     guidetolerance="10"
     inkscape:pageopacity="0"
     inkscape:pageshadow="2"
     inkscape:window-width="1920"
     inkscape:window-height="1040"
     id="namedview4"
     showgrid="false"
     inkscape:zoom="2.2274539"
     inkscape:cx="42.324049"
     inkscape:cy="126.16632"
     inkscape:window-x="0"
     inkscape:window-y="0"
     inkscape:window-maximized="1"
     inkscape:current-layer="svg2" />
  <circle
     style="opacity:1;fill:url(#linearGradient825);fill-opacity:1;stroke:none;stroke-width:0.78699166;stroke-linecap:round;stroke-linejoin:round;stroke-miterlimit:4;stroke-dasharray:none;stroke-opacity:1"
     id="path817"
     cx="63.591888"
     cy="64.286316"
     r="61.380009" />
  <circle
     r="55.089832"
     cy="64.286316"
     cx="63.591888"
     id="circle827"
     style="opacity:1;fill:url(#linearGradient835);fill-opacity:1;stroke:none;stroke-width:0.70634133;stroke-linecap:round;stroke-linejoin:round;stroke-miterlimit:4;stroke-dasharray:none;stroke-opacity:1" />
  <g
     id="g4617"
     transform="translate(-171.49623)"
     style="opacity:0.601">
    <path
       style="fill:none;fill-opacity:1;stroke:#000000;stroke-width:0.5;stroke-linecap:round;stroke-linejoin:round;stroke-miterlimit:4;stroke-dasharray:none;stroke-opacity:0.02745098"
       d="m 220.04569,94.394569 c -4.22109,-0.316178 -5.70869,-0.592155 -7.3974,-1.372397 -4.08749,-1.888527 -6.66429,-5.344181 -7.44632,-9.985954 -0.26584,-1.577919 -0.36032,-30.783771 -0.0996,-30.78274 0.10103,4.22e-4 0.91462,0.154849 1.80796,0.343214 3.3463,0.705605 8.12021,1.294024 11.74197,1.44729 1.94957,0.08251 2.07158,0.07222 2.14742,-0.180991 0.14533,-0.485291 0.68462,-3.467205 0.63562,-3.514637 -0.0264,-0.02547 -1.0966,-0.117325 -2.37836,-0.204039 -4.37115,-0.295717 -7.68688,-0.752309 -11.49847,-1.58339 -2.82782,-0.616578 -2.58833,-0.438081 -2.46545,-1.83761 0.40001,-4.555361 2.4889,-8.186483 5.95063,-10.343985 2.01079,-1.253212 3.78645,-1.788273 6.8167,-2.054076 1.5031,-0.131855 10.51844,-0.221815 10.51844,-0.104965 0,0.02544 -0.16104,0.442596 -0.35787,0.926994 -0.73853,1.817549 -0.96714,3.143972 -0.96417,5.594406 0.002,1.837369 0.0629,2.523751 0.32448,3.671522 0.31047,1.362253 1.09469,3.743582 1.23283,3.743582 0.13231,0 5.34438,-0.880908 5.37681,-0.908751 0.0182,-0.01564 -0.19231,-0.562849 -0.4678,-1.216054 -0.27549,-0.653204 -0.6668,-1.792946 -0.86958,-2.53277 -0.32598,-1.189295 -0.36955,-1.615129 -0.37606,-3.675593 -0.008,-2.427341 0.0917,-3.048144 0.7846,-4.900004 l 0.28857,-0.77127 9.83729,0.06137 c 9.29811,0.05801 9.91085,0.07742 11.17908,0.354157 1.7088,0.37287 2.78272,0.750609 3.93554,1.38428 3.08746,1.697081 5.20577,4.402868 6.15881,7.866867 l 0.32846,1.193869 -1.50385,0.09646 c -6.19938,0.397634 -12.42406,1.560897 -17.95146,3.35475 -1.85278,0.601298 -4.67851,1.659873 -5.29986,1.985435 l -0.36243,0.18989 1.58215,1.406932 c 0.87018,0.773815 1.69113,1.485352 1.82433,1.581195 0.20266,0.145824 0.61251,0.02577 2.51178,-0.735649 3.46657,-1.389783 6.89411,-2.405945 10.68327,-3.167263 2.89853,-0.582368 8.59744,-1.279971 8.80031,-1.077246 0.13191,0.131815 0.21816,27.504587 0.0937,29.730372 l -0.0985,1.761118 -0.30179,-0.361148 c -0.16598,-0.198622 -1.00092,-1.212107 -1.85542,-2.252189 -3.01959,-3.675399 -8.10924,-8.609291 -12.03292,-11.664705 -2.92506,-2.277774 -7.39727,-5.207756 -10.09102,-6.611169 l -0.79668,-0.415057 -1.85157,1.74214 c -1.01837,0.958176 -1.85079,1.78124 -1.84985,1.829024 0.001,0.0478 0.49354,0.371156 1.09462,0.718605 7.22118,4.174101 14.3308,10.588739 19.80687,17.87073 1.27885,1.700588 3.70853,5.338985 4.64694,6.958688 l 0.59478,1.026596 -0.27558,0.385802 c -0.47709,0.667912 -2.04503,2.093407 -2.91399,2.649271 -1.94295,1.242899 -3.85649,1.87685 -6.64213,2.200515 -0.97146,0.112892 -6.1745,0.173811 -16.66633,0.195144 -8.38967,0.01714 -15.53995,0.0094 -15.88952,-0.01661 z m 2.37172,-4.795683 c 2.28093,-0.468777 4.37695,-1.699584 5.67616,-3.333093 l 0.63838,-0.802633 0.0394,1.826631 0.0394,1.826631 h 3.25139 3.25138 l -0.0471,-10.063357 c -0.0462,-9.87304 -0.053,-10.084727 -0.35923,-11.193283 -1.04752,-3.791724 -3.37726,-6.084016 -7.20297,-7.087176 -1.89286,-0.496342 -5.33052,-0.614387 -7.58998,-0.260642 -2.54431,0.398347 -4.70247,1.184434 -6.53505,2.380317 -1.14188,0.745158 -2.29043,1.745368 -2.29043,1.994618 0,0.09955 0.83295,0.982106 1.851,1.961218 l 1.85101,1.780203 0.65601,-0.545548 c 2.63616,-2.192273 6.90191,-2.985978 9.93965,-1.849417 2.07444,0.776147 3.2161,2.390438 3.2161,4.547484 v 0.821805 l -2.86011,1.46e-4 c -7.10741,4.21e-4 -11.66236,1.240506 -14.32062,3.898763 -2.75131,2.751303 -3.01364,7.835149 -0.55608,10.776654 1.42957,1.711074 3.86268,3.013714 6.43761,3.446561 0.93984,0.157996 3.90197,0.08209 4.91404,-0.125882 z m -2.15987,-5.236981 c -2.09685,-0.451435 -3.24934,-1.374553 -3.58583,-2.872149 -0.44594,-1.984747 1.06482,-3.602602 4.00955,-4.293775 1.58517,-0.372062 2.95216,-0.499672 5.40244,-0.504333 l 2.29515,-0.004 v 1.312108 c 0,3.53982 -1.56645,5.556815 -4.84085,6.23315 -1.00289,0.207157 -2.62247,0.271022 -3.28046,0.129365 z"
       id="path4593"
       inkscape:connector-curvature="0" />
    <path
       inkscape:connector-curvature="0"
       id="path4595"
       d="m 220.04569,94.394569 c -4.22109,-0.316178 -5.70869,-0.592155 -7.3974,-1.372397 -4.08749,-1.888527 -6.66429,-5.344181 -7.44632,-9.985954 -0.26584,-1.577919 -0.36032,-30.783771 -0.0996,-30.78274 0.10103,4.22e-4 0.91462,0.154849 1.80796,0.343214 3.3463,0.705605 8.12021,1.294024 11.74197,1.44729 1.94957,0.08251 2.07158,0.07222 2.14742,-0.180991 0.14533,-0.485291 0.68462,-3.467205 0.63562,-3.514637 -0.0264,-0.02547 -1.0966,-0.117325 -2.37836,-0.204039 -4.37115,-0.295717 -7.68688,-0.752309 -11.49847,-1.58339 -2.82782,-0.616578 -2.58833,-0.438081 -2.46545,-1.83761 0.40001,-4.555361 2.4889,-8.186483 5.95063,-10.343985 2.01079,-1.253212 3.78645,-1.788273 6.8167,-2.054076 1.5031,-0.131855 10.51844,-0.221815 10.51844,-0.104965 0,0.02544 -0.16104,0.442596 -0.35787,0.926994 -0.73853,1.817549 -0.96714,3.143972 -0.96417,5.594406 0.002,1.837369 0.0629,2.523751 0.32448,3.671522 0.31047,1.362253 1.09469,3.743582 1.23283,3.743582 0.13231,0 5.34438,-0.880908 5.37681,-0.908751 0.0182,-0.01564 -0.19231,-0.562849 -0.4678,-1.216054 -0.27549,-0.653204 -0.6668,-1.792946 -0.86958,-2.53277 -0.32598,-1.189295 -0.36955,-1.615129 -0.37606,-3.675593 -0.008,-2.427341 0.0917,-3.048144 0.7846,-4.900004 l 0.28857,-0.77127 9.83729,0.06137 c 9.29811,0.05801 9.91085,0.07742 11.17908,0.354157 1.7088,0.37287 2.78272,0.750609 3.93554,1.38428 3.08746,1.697081 5.20577,4.402868 6.15881,7.866867 l 0.32846,1.193869 -1.50385,0.09646 c -6.19938,0.397634 -12.42406,1.560897 -17.95146,3.35475 -1.85278,0.601298 -4.67851,1.659873 -5.29986,1.985435 l -0.36243,0.18989 1.58215,1.406932 c 0.87018,0.773815 1.69113,1.485352 1.82433,1.581195 0.20266,0.145824 0.61251,0.02577 2.51178,-0.735649 3.46657,-1.389783 6.89411,-2.405945 10.68327,-3.167263 2.89853,-0.582368 8.59744,-1.279971 8.80031,-1.077246 0.13191,0.131815 0.21816,27.504587 0.0937,29.730372 l -0.0985,1.761118 -0.30179,-0.361148 c -0.16598,-0.198622 -1.00092,-1.212107 -1.85542,-2.252189 -3.01959,-3.675399 -8.10924,-8.609291 -12.03292,-11.664705 -2.92506,-2.277774 -7.39727,-5.207756 -10.09102,-6.611169 l -0.79668,-0.415057 -1.85157,1.74214 c -1.01837,0.958176 -1.85079,1.78124 -1.84985,1.829024 0.001,0.0478 0.49354,0.371156 1.09462,0.718605 7.22118,4.174101 14.3308,10.588739 19.80687,17.87073 1.27885,1.700588 3.70853,5.338985 4.64694,6.958688 l 0.59478,1.026596 -0.27558,0.385802 c -0.47709,0.667912 -2.04503,2.093407 -2.91399,2.649271 -1.94295,1.242899 -3.85649,1.87685 -6.64213,2.200515 -0.97146,0.112892 -6.1745,0.173811 -16.66633,0.195144 -8.38967,0.01714 -15.53995,0.0094 -15.88952,-0.01661 z m 2.37172,-4.795683 c 2.28093,-0.468777 4.37695,-1.699584 5.67616,-3.333093 l 0.63838,-0.802633 0.0394,1.826631 0.0394,1.826631 h 3.25139 3.25138 l -0.0471,-10.063357 c -0.0462,-9.87304 -0.053,-10.084727 -0.35923,-11.193283 -1.04752,-3.791724 -3.37726,-6.084016 -7.20297,-7.087176 -1.89286,-0.496342 -5.33052,-0.614387 -7.58998,-0.260642 -2.54431,0.398347 -4.70247,1.184434 -6.53505,2.380317 -1.14188,0.745158 -2.29043,1.745368 -2.29043,1.994618 0,0.09955 0.83295,0.982106 1.851,1.961218 l 1.85101,1.780203 0.65601,-0.545548 c 2.63616,-2.192273 6.90191,-2.985978 9.93965,-1.849417 2.07444,0.776147 3.2161,2.390438 3.2161,4.547484 v 0.821805 l -2.86011,1.46e-4 c -7.10741,4.21e-4 -11.66236,1.240506 -14.32062,3.898763 -2.75131,2.751303 -3.01364,7.835149 -0.55608,10.776654 1.42957,1.711074 3.86268,3.013714 6.43761,3.446561 0.93984,0.157996 3.90197,0.08209 4.91404,-0.125882 z m -2.15987,-5.236981 c -2.09685,-0.451435 -3.24934,-1.374553 -3.58583,-2.872149 -0.44594,-1.984747 1.06482,-3.602602 4.00955,-4.293775 1.58517,-0.372062 2.95216,-0.499672 5.40244,-0.504333 l 2.29515,-0.004 v 1.312108 c 0,3.53982 -1.56645,5.556815 -4.84085,6.23315 -1.00289,0.207157 -2.62247,0.271022 -3.28046,0.129365 z"
       style="fill:none;fill-opacity:1;stroke:#000000;stroke-width:1;stroke-linecap:round;stroke-linejoin:round;stroke-miterlimit:4;stroke-dasharray:none;stroke-opacity:0.02745098" />
    <path
       style="fill:none;fill-opacity:1;stroke:#000000;stroke-width:1.5;stroke-linecap:round;stroke-linejoin:round;stroke-miterlimit:4;stroke-dasharray:none;stroke-opacity:0.02745098"
       d="m 220.04569,94.394569 c -4.22109,-0.316178 -5.70869,-0.592155 -7.3974,-1.372397 -4.08749,-1.888527 -6.66429,-5.344181 -7.44632,-9.985954 -0.26584,-1.577919 -0.36032,-30.783771 -0.0996,-30.78274 0.10103,4.22e-4 0.91462,0.154849 1.80796,0.343214 3.3463,0.705605 8.12021,1.294024 11.74197,1.44729 1.94957,0.08251 2.07158,0.07222 2.14742,-0.180991 0.14533,-0.485291 0.68462,-3.467205 0.63562,-3.514637 -0.0264,-0.02547 -1.0966,-0.117325 -2.37836,-0.204039 -4.37115,-0.295717 -7.68688,-0.752309 -11.49847,-1.58339 -2.82782,-0.616578 -2.58833,-0.438081 -2.46545,-1.83761 0.40001,-4.555361 2.4889,-8.186483 5.95063,-10.343985 2.01079,-1.253212 3.78645,-1.788273 6.8167,-2.054076 1.5031,-0.131855 10.51844,-0.221815 10.51844,-0.104965 0,0.02544 -0.16104,0.442596 -0.35787,0.926994 -0.73853,1.817549 -0.96714,3.143972 -0.96417,5.594406 0.002,1.837369 0.0629,2.523751 0.32448,3.671522 0.31047,1.362253 1.09469,3.743582 1.23283,3.743582 0.13231,0 5.34438,-0.880908 5.37681,-0.908751 0.0182,-0.01564 -0.19231,-0.562849 -0.4678,-1.216054 -0.27549,-0.653204 -0.6668,-1.792946 -0.86958,-2.53277 -0.32598,-1.189295 -0.36955,-1.615129 -0.37606,-3.675593 -0.008,-2.427341 0.0917,-3.048144 0.7846,-4.900004 l 0.28857,-0.77127 9.83729,0.06137 c 9.29811,0.05801 9.91085,0.07742 11.17908,0.354157 1.7088,0.37287 2.78272,0.750609 3.93554,1.38428 3.08746,1.697081 5.20577,4.402868 6.15881,7.866867 l 0.32846,1.193869 -1.50385,0.09646 c -6.19938,0.397634 -12.42406,1.560897 -17.95146,3.35475 -1.85278,0.601298 -4.67851,1.659873 -5.29986,1.985435 l -0.36243,0.18989 1.58215,1.406932 c 0.87018,0.773815 1.69113,1.485352 1.82433,1.581195 0.20266,0.145824 0.61251,0.02577 2.51178,-0.735649 3.46657,-1.389783 6.89411,-2.405945 10.68327,-3.167263 2.89853,-0.582368 8.59744,-1.279971 8.80031,-1.077246 0.13191,0.131815 0.21816,27.504587 0.0937,29.730372 l -0.0985,1.761118 -0.30179,-0.361148 c -0.16598,-0.198622 -1.00092,-1.212107 -1.85542,-2.252189 -3.01959,-3.675399 -8.10924,-8.609291 -12.03292,-11.664705 -2.92506,-2.277774 -7.39727,-5.207756 -10.09102,-6.611169 l -0.79668,-0.415057 -1.85157,1.74214 c -1.01837,0.958176 -1.85079,1.78124 -1.84985,1.829024 0.001,0.0478 0.49354,0.371156 1.09462,0.718605 7.22118,4.174101 14.3308,10.588739 19.80687,17.87073 1.27885,1.700588 3.70853,5.338985 4.64694,6.958688 l 0.59478,1.026596 -0.27558,0.385802 c -0.47709,0.667912 -2.04503,2.093407 -2.91399,2.649271 -1.94295,1.242899 -3.85649,1.87685 -6.64213,2.200515 -0.97146,0.112892 -6.1745,0.173811 -16.66633,0.195144 -8.38967,0.01714 -15.53995,0.0094 -15.88952,-0.01661 z m 2.37172,-4.795683 c 2.28093,-0.468777 4.37695,-1.699584 5.67616,-3.333093 l 0.63838,-0.802633 0.0394,1.826631 0.0394,1.826631 h 3.25139 3.25138 l -0.0471,-10.063357 c -0.0462,-9.87304 -0.053,-10.084727 -0.35923,-11.193283 -1.04752,-3.791724 -3.37726,-6.084016 -7.20297,-7.087176 -1.89286,-0.496342 -5.33052,-0.614387 -7.58998,-0.260642 -2.54431,0.398347 -4.70247,1.184434 -6.53505,2.380317 -1.14188,0.745158 -2.29043,1.745368 -2.29043,1.994618 0,0.09955 0.83295,0.982106 1.851,1.961218 l 1.85101,1.780203 0.65601,-0.545548 c 2.63616,-2.192273 6.90191,-2.985978 9.93965,-1.849417 2.07444,0.776147 3.2161,2.390438 3.2161,4.547484 v 0.821805 l -2.86011,1.46e-4 c -7.10741,4.21e-4 -11.66236,1.240506 -14.32062,3.898763 -2.75131,2.751303 -3.01364,7.835149 -0.55608,10.776654 1.42957,1.711074 3.86268,3.013714 6.43761,3.446561 0.93984,0.157996 3.90197,0.08209 4.91404,-0.125882 z m -2.15987,-5.236981 c -2.09685,-0.451435 -3.24934,-1.374553 -3.58583,-2.872149 -0.44594,-1.984747 1.06482,-3.602602 4.00955,-4.293775 1.58517,-0.372062 2.95216,-0.499672 5.40244,-0.504333 l 2.29515,-0.004 v 1.312108 c 0,3.53982 -1.56645,5.556815 -4.84085,6.23315 -1.00289,0.207157 -2.62247,0.271022 -3.28046,0.129365 z"
       id="path4597"
       inkscape:connector-curvature="0" />
    <path
       inkscape:connector-curvature="0"
       id="path4599"
       d="m 220.04569,94.394569 c -4.22109,-0.316178 -5.70869,-0.592155 -7.3974,-1.372397 -4.08749,-1.888527 -6.66429,-5.344181 -7.44632,-9.985954 -0.26584,-1.577919 -0.36032,-30.783771 -0.0996,-30.78274 0.10103,4.22e-4 0.91462,0.154849 1.80796,0.343214 3.3463,0.705605 8.12021,1.294024 11.74197,1.44729 1.94957,0.08251 2.07158,0.07222 2.14742,-0.180991 0.14533,-0.485291 0.68462,-3.467205 0.63562,-3.514637 -0.0264,-0.02547 -1.0966,-0.117325 -2.37836,-0.204039 -4.37115,-0.295717 -7.68688,-0.752309 -11.49847,-1.58339 -2.82782,-0.616578 -2.58833,-0.438081 -2.46545,-1.83761 0.40001,-4.555361 2.4889,-8.186483 5.95063,-10.343985 2.01079,-1.253212 3.78645,-1.788273 6.8167,-2.054076 1.5031,-0.131855 10.51844,-0.221815 10.51844,-0.104965 0,0.02544 -0.16104,0.442596 -0.35787,0.926994 -0.73853,1.817549 -0.96714,3.143972 -0.96417,5.594406 0.002,1.837369 0.0629,2.523751 0.32448,3.671522 0.31047,1.362253 1.09469,3.743582 1.23283,3.743582 0.13231,0 5.34438,-0.880908 5.37681,-0.908751 0.0182,-0.01564 -0.19231,-0.562849 -0.4678,-1.216054 -0.27549,-0.653204 -0.6668,-1.792946 -0.86958,-2.53277 -0.32598,-1.189295 -0.36955,-1.615129 -0.37606,-3.675593 -0.008,-2.427341 0.0917,-3.048144 0.7846,-4.900004 l 0.28857,-0.77127 9.83729,0.06137 c 9.29811,0.05801 9.91085,0.07742 11.17908,0.354157 1.7088,0.37287 2.78272,0.750609 3.93554,1.38428 3.08746,1.697081 5.20577,4.402868 6.15881,7.866867 l 0.32846,1.193869 -1.50385,0.09646 c -6.19938,0.397634 -12.42406,1.560897 -17.95146,3.35475 -1.85278,0.601298 -4.67851,1.659873 -5.29986,1.985435 l -0.36243,0.18989 1.58215,1.406932 c 0.87018,0.773815 1.69113,1.485352 1.82433,1.581195 0.20266,0.145824 0.61251,0.02577 2.51178,-0.735649 3.46657,-1.389783 6.89411,-2.405945 10.68327,-3.167263 2.89853,-0.582368 8.59744,-1.279971 8.80031,-1.077246 0.13191,0.131815 0.21816,27.504587 0.0937,29.730372 l -0.0985,1.761118 -0.30179,-0.361148 c -0.16598,-0.198622 -1.00092,-1.212107 -1.85542,-2.252189 -3.01959,-3.675399 -8.10924,-8.609291 -12.03292,-11.664705 -2.92506,-2.277774 -7.39727,-5.207756 -10.09102,-6.611169 l -0.79668,-0.415057 -1.85157,1.74214 c -1.01837,0.958176 -1.85079,1.78124 -1.84985,1.829024 0.001,0.0478 0.49354,0.371156 1.09462,0.718605 7.22118,4.174101 14.3308,10.588739 19.80687,17.87073 1.27885,1.700588 3.70853,5.338985 4.64694,6.958688 l 0.59478,1.026596 -0.27558,0.385802 c -0.47709,0.667912 -2.04503,2.093407 -2.91399,2.649271 -1.94295,1.242899 -3.85649,1.87685 -6.64213,2.200515 -0.97146,0.112892 -6.1745,0.173811 -16.66633,0.195144 -8.38967,0.01714 -15.53995,0.0094 -15.88952,-0.01661 z m 2.37172,-4.795683 c 2.28093,-0.468777 4.37695,-1.699584 5.67616,-3.333093 l 0.63838,-0.802633 0.0394,1.826631 0.0394,1.826631 h 3.25139 3.25138 l -0.0471,-10.063357 c -0.0462,-9.87304 -0.053,-10.084727 -0.35923,-11.193283 -1.04752,-3.791724 -3.37726,-6.084016 -7.20297,-7.087176 -1.89286,-0.496342 -5.33052,-0.614387 -7.58998,-0.260642 -2.54431,0.398347 -4.70247,1.184434 -6.53505,2.380317 -1.14188,0.745158 -2.29043,1.745368 -2.29043,1.994618 0,0.09955 0.83295,0.982106 1.851,1.961218 l 1.85101,1.780203 0.65601,-0.545548 c 2.63616,-2.192273 6.90191,-2.985978 9.93965,-1.849417 2.07444,0.776147 3.2161,2.390438 3.2161,4.547484 v 0.821805 l -2.86011,1.46e-4 c -7.10741,4.21e-4 -11.66236,1.240506 -14.32062,3.898763 -2.75131,2.751303 -3.01364,7.835149 -0.55608,10.776654 1.42957,1.711074 3.86268,3.013714 6.43761,3.446561 0.93984,0.157996 3.90197,0.08209 4.91404,-0.125882 z m -2.15987,-5.236981 c -2.09685,-0.451435 -3.24934,-1.374553 -3.58583,-2.872149 -0.44594,-1.984747 1.06482,-3.602602 4.00955,-4.293775 1.58517,-0.372062 2.95216,-0.499672 5.40244,-0.504333 l 2.29515,-0.004 v 1.312108 c 0,3.53982 -1.56645,5.556815 -4.84085,6.23315 -1.00289,0.207157 -2.62247,0.271022 -3.28046,0.129365 z"
       style="fill:none;fill-opacity:1;stroke:#000000;stroke-width:2;stroke-linecap:round;stroke-linejoin:round;stroke-miterlimit:4;stroke-dasharray:none;stroke-opacity:0.02745098" />
    <path
       style="fill:none;fill-opacity:1;stroke:#000000;stroke-width:3;stroke-linecap:round;stroke-linejoin:round;stroke-miterlimit:4;stroke-dasharray:none;stroke-opacity:0.02745098"
       d="m 220.04569,94.394569 c -4.22109,-0.316178 -5.70869,-0.592155 -7.3974,-1.372397 -4.08749,-1.888527 -6.66429,-5.344181 -7.44632,-9.985954 -0.26584,-1.577919 -0.36032,-30.783771 -0.0996,-30.78274 0.10103,4.22e-4 0.91462,0.154849 1.80796,0.343214 3.3463,0.705605 8.12021,1.294024 11.74197,1.44729 1.94957,0.08251 2.07158,0.07222 2.14742,-0.180991 0.14533,-0.485291 0.68462,-3.467205 0.63562,-3.514637 -0.0264,-0.02547 -1.0966,-0.117325 -2.37836,-0.204039 -4.37115,-0.295717 -7.68688,-0.752309 -11.49847,-1.58339 -2.82782,-0.616578 -2.58833,-0.438081 -2.46545,-1.83761 0.40001,-4.555361 2.4889,-8.186483 5.95063,-10.343985 2.01079,-1.253212 3.78645,-1.788273 6.8167,-2.054076 1.5031,-0.131855 10.51844,-0.221815 10.51844,-0.104965 0,0.02544 -0.16104,0.442596 -0.35787,0.926994 -0.73853,1.817549 -0.96714,3.143972 -0.96417,5.594406 0.002,1.837369 0.0629,2.523751 0.32448,3.671522 0.31047,1.362253 1.09469,3.743582 1.23283,3.743582 0.13231,0 5.34438,-0.880908 5.37681,-0.908751 0.0182,-0.01564 -0.19231,-0.562849 -0.4678,-1.216054 -0.27549,-0.653204 -0.6668,-1.792946 -0.86958,-2.53277 -0.32598,-1.189295 -0.36955,-1.615129 -0.37606,-3.675593 -0.008,-2.427341 0.0917,-3.048144 0.7846,-4.900004 l 0.28857,-0.77127 9.83729,0.06137 c 9.29811,0.05801 9.91085,0.07742 11.17908,0.354157 1.7088,0.37287 2.78272,0.750609 3.93554,1.38428 3.08746,1.697081 5.20577,4.402868 6.15881,7.866867 l 0.32846,1.193869 -1.50385,0.09646 c -6.19938,0.397634 -12.42406,1.560897 -17.95146,3.35475 -1.85278,0.601298 -4.67851,1.659873 -5.29986,1.985435 l -0.36243,0.18989 1.58215,1.406932 c 0.87018,0.773815 1.69113,1.485352 1.82433,1.581195 0.20266,0.145824 0.61251,0.02577 2.51178,-0.735649 3.46657,-1.389783 6.89411,-2.405945 10.68327,-3.167263 2.89853,-0.582368 8.59744,-1.279971 8.80031,-1.077246 0.13191,0.131815 0.21816,27.504587 0.0937,29.730372 l -0.0985,1.761118 -0.30179,-0.361148 c -0.16598,-0.198622 -1.00092,-1.212107 -1.85542,-2.252189 -3.01959,-3.675399 -8.10924,-8.609291 -12.03292,-11.664705 -2.92506,-2.277774 -7.39727,-5.207756 -10.09102,-6.611169 l -0.79668,-0.415057 -1.85157,1.74214 c -1.01837,0.958176 -1.85079,1.78124 -1.84985,1.829024 0.001,0.0478 0.49354,0.371156 1.09462,0.718605 7.22118,4.174101 14.3308,10.588739 19.80687,17.87073 1.27885,1.700588 3.70853,5.338985 4.64694,6.958688 l 0.59478,1.026596 -0.27558,0.385802 c -0.47709,0.667912 -2.04503,2.093407 -2.91399,2.649271 -1.94295,1.242899 -3.85649,1.87685 -6.64213,2.200515 -0.97146,0.112892 -6.1745,0.173811 -16.66633,0.195144 -8.38967,0.01714 -15.53995,0.0094 -15.88952,-0.01661 z m 2.37172,-4.795683 c 2.28093,-0.468777 4.37695,-1.699584 5.67616,-3.333093 l 0.63838,-0.802633 0.0394,1.826631 0.0394,1.826631 h 3.25139 3.25138 l -0.0471,-10.063357 c -0.0462,-9.87304 -0.053,-10.084727 -0.35923,-11.193283 -1.04752,-3.791724 -3.37726,-6.084016 -7.20297,-7.087176 -1.89286,-0.496342 -5.33052,-0.614387 -7.58998,-0.260642 -2.54431,0.398347 -4.70247,1.184434 -6.53505,2.380317 -1.14188,0.745158 -2.29043,1.745368 -2.29043,1.994618 0,0.09955 0.83295,0.982106 1.851,1.961218 l 1.85101,1.780203 0.65601,-0.545548 c 2.63616,-2.192273 6.90191,-2.985978 9.93965,-1.849417 2.07444,0.776147 3.2161,2.390438 3.2161,4.547484 v 0.821805 l -2.86011,1.46e-4 c -7.10741,4.21e-4 -11.66236,1.240506 -14.32062,3.898763 -2.75131,2.751303 -3.01364,7.835149 -0.55608,10.776654 1.42957,1.711074 3.86268,3.013714 6.43761,3.446561 0.93984,0.157996 3.90197,0.08209 4.91404,-0.125882 z m -2.15987,-5.236981 c -2.09685,-0.451435 -3.24934,-1.374553 -3.58583,-2.872149 -0.44594,-1.984747 1.06482,-3.602602 4.00955,-4.293775 1.58517,-0.372062 2.95216,-0.499672 5.40244,-0.504333 l 2.29515,-0.004 v 1.312108 c 0,3.53982 -1.56645,5.556815 -4.84085,6.23315 -1.00289,0.207157 -2.62247,0.271022 -3.28046,0.129365 z"
       id="path4601"
       inkscape:connector-curvature="0" />
    <path
       inkscape:connector-curvature="0"
       id="path4603"
       d="m 220.04569,94.394569 c -4.22109,-0.316178 -5.70869,-0.592155 -7.3974,-1.372397 -4.08749,-1.888527 -6.66429,-5.344181 -7.44632,-9.985954 -0.26584,-1.577919 -0.36032,-30.783771 -0.0996,-30.78274 0.10103,4.22e-4 0.91462,0.154849 1.80796,0.343214 3.3463,0.705605 8.12021,1.294024 11.74197,1.44729 1.94957,0.08251 2.07158,0.07222 2.14742,-0.180991 0.14533,-0.485291 0.68462,-3.467205 0.63562,-3.514637 -0.0264,-0.02547 -1.0966,-0.117325 -2.37836,-0.204039 -4.37115,-0.295717 -7.68688,-0.752309 -11.49847,-1.58339 -2.82782,-0.616578 -2.58833,-0.438081 -2.46545,-1.83761 0.40001,-4.555361 2.4889,-8.186483 5.95063,-10.343985 2.01079,-1.253212 3.78645,-1.788273 6.8167,-2.054076 1.5031,-0.131855 10.51844,-0.221815 10.51844,-0.104965 0,0.02544 -0.16104,0.442596 -0.35787,0.926994 -0.73853,1.817549 -0.96714,3.143972 -0.96417,5.594406 0.002,1.837369 0.0629,2.523751 0.32448,3.671522 0.31047,1.362253 1.09469,3.743582 1.23283,3.743582 0.13231,0 5.34438,-0.880908 5.37681,-0.908751 0.0182,-0.01564 -0.19231,-0.562849 -0.4678,-1.216054 -0.27549,-0.653204 -0.6668,-1.792946 -0.86958,-2.53277 -0.32598,-1.189295 -0.36955,-1.615129 -0.37606,-3.675593 -0.008,-2.427341 0.0917,-3.048144 0.7846,-4.900004 l 0.28857,-0.77127 9.83729,0.06137 c 9.29811,0.05801 9.91085,0.07742 11.17908,0.354157 1.7088,0.37287 2.78272,0.750609 3.93554,1.38428 3.08746,1.697081 5.20577,4.402868 6.15881,7.866867 l 0.32846,1.193869 -1.50385,0.09646 c -6.19938,0.397634 -12.42406,1.560897 -17.95146,3.35475 -1.85278,0.601298 -4.67851,1.659873 -5.29986,1.985435 l -0.36243,0.18989 1.58215,1.406932 c 0.87018,0.773815 1.69113,1.485352 1.82433,1.581195 0.20266,0.145824 0.61251,0.02577 2.51178,-0.735649 3.46657,-1.389783 6.89411,-2.405945 10.68327,-3.167263 2.89853,-0.582368 8.59744,-1.279971 8.80031,-1.077246 0.13191,0.131815 0.21816,27.504587 0.0937,29.730372 l -0.0985,1.761118 -0.30179,-0.361148 c -0.16598,-0.198622 -1.00092,-1.212107 -1.85542,-2.252189 -3.01959,-3.675399 -8.10924,-8.609291 -12.03292,-11.664705 -2.92506,-2.277774 -7.39727,-5.207756 -10.09102,-6.611169 l -0.79668,-0.415057 -1.85157,1.74214 c -1.01837,0.958176 -1.85079,1.78124 -1.84985,1.829024 0.001,0.0478 0.49354,0.371156 1.09462,0.718605 7.22118,4.174101 14.3308,10.588739 19.80687,17.87073 1.27885,1.700588 3.70853,5.338985 4.64694,6.958688 l 0.59478,1.026596 -0.27558,0.385802 c -0.47709,0.667912 -2.04503,2.093407 -2.91399,2.649271 -1.94295,1.242899 -3.85649,1.87685 -6.64213,2.200515 -0.97146,0.112892 -6.1745,0.173811 -16.66633,0.195144 -8.38967,0.01714 -15.53995,0.0094 -15.88952,-0.01661 z m 2.37172,-4.795683 c 2.28093,-0.468777 4.37695,-1.699584 5.67616,-3.333093 l 0.63838,-0.802633 0.0394,1.826631 0.0394,1.826631 h 3.25139 3.25138 l -0.0471,-10.063357 c -0.0462,-9.87304 -0.053,-10.084727 -0.35923,-11.193283 -1.04752,-3.791724 -3.37726,-6.084016 -7.20297,-7.087176 -1.89286,-0.496342 -5.33052,-0.614387 -7.58998,-0.260642 -2.54431,0.398347 -4.70247,1.184434 -6.53505,2.380317 -1.14188,0.745158 -2.29043,1.745368 -2.29043,1.994618 0,0.09955 0.83295,0.982106 1.851,1.961218 l 1.85101,1.780203 0.65601,-0.545548 c 2.63616,-2.192273 6.90191,-2.985978 9.93965,-1.849417 2.07444,0.776147 3.2161,2.390438 3.2161,4.547484 v 0.821805 l -2.86011,1.46e-4 c -7.10741,4.21e-4 -11.66236,1.240506 -14.32062,3.898763 -2.75131,2.751303 -3.01364,7.835149 -0.55608,10.776654 1.42957,1.711074 3.86268,3.013714 6.43761,3.446561 0.93984,0.157996 3.90197,0.08209 4.91404,-0.125882 z m -2.15987,-5.236981 c -2.09685,-0.451435 -3.24934,-1.374553 -3.58583,-2.872149 -0.44594,-1.984747 1.06482,-3.602602 4.00955,-4.293775 1.58517,-0.372062 2.95216,-0.499672 5.40244,-0.504333 l 2.29515,-0.004 v 1.312108 c 0,3.53982 -1.56645,5.556815 -4.84085,6.23315 -1.00289,0.207157 -2.62247,0.271022 -3.28046,0.129365 z"
       style="fill:none;fill-opacity:1;stroke:#000000;stroke-width:4;stroke-linecap:round;stroke-linejoin:round;stroke-miterlimit:4;stroke-dasharray:none;stroke-opacity:0.02745098" />
    <path
       style="fill:none;fill-opacity:1;stroke:#000000;stroke-width:6;stroke-linecap:round;stroke-linejoin:round;stroke-miterlimit:4;stroke-dasharray:none;stroke-opacity:0.02745098"
       d="m 220.04569,94.394569 c -4.22109,-0.316178 -5.70869,-0.592155 -7.3974,-1.372397 -4.08749,-1.888527 -6.66429,-5.344181 -7.44632,-9.985954 -0.26584,-1.577919 -0.36032,-30.783771 -0.0996,-30.78274 0.10103,4.22e-4 0.91462,0.154849 1.80796,0.343214 3.3463,0.705605 8.12021,1.294024 11.74197,1.44729 1.94957,0.08251 2.07158,0.07222 2.14742,-0.180991 0.14533,-0.485291 0.68462,-3.467205 0.63562,-3.514637 -0.0264,-0.02547 -1.0966,-0.117325 -2.37836,-0.204039 -4.37115,-0.295717 -7.68688,-0.752309 -11.49847,-1.58339 -2.82782,-0.616578 -2.58833,-0.438081 -2.46545,-1.83761 0.40001,-4.555361 2.4889,-8.186483 5.95063,-10.343985 2.01079,-1.253212 3.78645,-1.788273 6.8167,-2.054076 1.5031,-0.131855 10.51844,-0.221815 10.51844,-0.104965 0,0.02544 -0.16104,0.442596 -0.35787,0.926994 -0.73853,1.817549 -0.96714,3.143972 -0.96417,5.594406 0.002,1.837369 0.0629,2.523751 0.32448,3.671522 0.31047,1.362253 1.09469,3.743582 1.23283,3.743582 0.13231,0 5.34438,-0.880908 5.37681,-0.908751 0.0182,-0.01564 -0.19231,-0.562849 -0.4678,-1.216054 -0.27549,-0.653204 -0.6668,-1.792946 -0.86958,-2.53277 -0.32598,-1.189295 -0.36955,-1.615129 -0.37606,-3.675593 -0.008,-2.427341 0.0917,-3.048144 0.7846,-4.900004 l 0.28857,-0.77127 9.83729,0.06137 c 9.29811,0.05801 9.91085,0.07742 11.17908,0.354157 1.7088,0.37287 2.78272,0.750609 3.93554,1.38428 3.08746,1.697081 5.20577,4.402868 6.15881,7.866867 l 0.32846,1.193869 -1.50385,0.09646 c -6.19938,0.397634 -12.42406,1.560897 -17.95146,3.35475 -1.85278,0.601298 -4.67851,1.659873 -5.29986,1.985435 l -0.36243,0.18989 1.58215,1.406932 c 0.87018,0.773815 1.69113,1.485352 1.82433,1.581195 0.20266,0.145824 0.61251,0.02577 2.51178,-0.735649 3.46657,-1.389783 6.89411,-2.405945 10.68327,-3.167263 2.89853,-0.582368 8.59744,-1.279971 8.80031,-1.077246 0.13191,0.131815 0.21816,27.504587 0.0937,29.730372 l -0.0985,1.761118 -0.30179,-0.361148 c -0.16598,-0.198622 -1.00092,-1.212107 -1.85542,-2.252189 -3.01959,-3.675399 -8.10924,-8.609291 -12.03292,-11.664705 -2.92506,-2.277774 -7.39727,-5.207756 -10.09102,-6.611169 l -0.79668,-0.415057 -1.85157,1.74214 c -1.01837,0.958176 -1.85079,1.78124 -1.84985,1.829024 0.001,0.0478 0.49354,0.371156 1.09462,0.718605 7.22118,4.174101 14.3308,10.588739 19.80687,17.87073 1.27885,1.700588 3.70853,5.338985 4.64694,6.958688 l 0.59478,1.026596 -0.27558,0.385802 c -0.47709,0.667912 -2.04503,2.093407 -2.91399,2.649271 -1.94295,1.242899 -3.85649,1.87685 -6.64213,2.200515 -0.97146,0.112892 -6.1745,0.173811 -16.66633,0.195144 -8.38967,0.01714 -15.53995,0.0094 -15.88952,-0.01661 z m 2.37172,-4.795683 c 2.28093,-0.468777 4.37695,-1.699584 5.67616,-3.333093 l 0.63838,-0.802633 0.0394,1.826631 0.0394,1.826631 h 3.25139 3.25138 l -0.0471,-10.063357 c -0.0462,-9.87304 -0.053,-10.084727 -0.35923,-11.193283 -1.04752,-3.791724 -3.37726,-6.084016 -7.20297,-7.087176 -1.89286,-0.496342 -5.33052,-0.614387 -7.58998,-0.260642 -2.54431,0.398347 -4.70247,1.184434 -6.53505,2.380317 -1.14188,0.745158 -2.29043,1.745368 -2.29043,1.994618 0,0.09955 0.83295,0.982106 1.851,1.961218 l 1.85101,1.780203 0.65601,-0.545548 c 2.63616,-2.192273 6.90191,-2.985978 9.93965,-1.849417 2.07444,0.776147 3.2161,2.390438 3.2161,4.547484 v 0.821805 l -2.86011,1.46e-4 c -7.10741,4.21e-4 -11.66236,1.240506 -14.32062,3.898763 -2.75131,2.751303 -3.01364,7.835149 -0.55608,10.776654 1.42957,1.711074 3.86268,3.013714 6.43761,3.446561 0.93984,0.157996 3.90197,0.08209 4.91404,-0.125882 z m -2.15987,-5.236981 c -2.09685,-0.451435 -3.24934,-1.374553 -3.58583,-2.872149 -0.44594,-1.984747 1.06482,-3.602602 4.00955,-4.293775 1.58517,-0.372062 2.95216,-0.499672 5.40244,-0.504333 l 2.29515,-0.004 v 1.312108 c 0,3.53982 -1.56645,5.556815 -4.84085,6.23315 -1.00289,0.207157 -2.62247,0.271022 -3.28046,0.129365 z"
       id="path4605"
       inkscape:connector-curvature="0" />
    <path
       inkscape:connector-curvature="0"
       id="path4607"
       d="m 220.04569,94.394569 c -4.22109,-0.316178 -5.70869,-0.592155 -7.3974,-1.372397 -4.08749,-1.888527 -6.66429,-5.344181 -7.44632,-9.985954 -0.26584,-1.577919 -0.36032,-30.783771 -0.0996,-30.78274 0.10103,4.22e-4 0.91462,0.154849 1.80796,0.343214 3.3463,0.705605 8.12021,1.294024 11.74197,1.44729 1.94957,0.08251 2.07158,0.07222 2.14742,-0.180991 0.14533,-0.485291 0.68462,-3.467205 0.63562,-3.514637 -0.0264,-0.02547 -1.0966,-0.117325 -2.37836,-0.204039 -4.37115,-0.295717 -7.68688,-0.752309 -11.49847,-1.58339 -2.82782,-0.616578 -2.58833,-0.438081 -2.46545,-1.83761 0.40001,-4.555361 2.4889,-8.186483 5.95063,-10.343985 2.01079,-1.253212 3.78645,-1.788273 6.8167,-2.054076 1.5031,-0.131855 10.51844,-0.221815 10.51844,-0.104965 0,0.02544 -0.16104,0.442596 -0.35787,0.926994 -0.73853,1.817549 -0.96714,3.143972 -0.96417,5.594406 0.002,1.837369 0.0629,2.523751 0.32448,3.671522 0.31047,1.362253 1.09469,3.743582 1.23283,3.743582 0.13231,0 5.34438,-0.880908 5.37681,-0.908751 0.0182,-0.01564 -0.19231,-0.562849 -0.4678,-1.216054 -0.27549,-0.653204 -0.6668,-1.792946 -0.86958,-2.53277 -0.32598,-1.189295 -0.36955,-1.615129 -0.37606,-3.675593 -0.008,-2.427341 0.0917,-3.048144 0.7846,-4.900004 l 0.28857,-0.77127 9.83729,0.06137 c 9.29811,0.05801 9.91085,0.07742 11.17908,0.354157 1.7088,0.37287 2.78272,0.750609 3.93554,1.38428 3.08746,1.697081 5.20577,4.402868 6.15881,7.866867 l 0.32846,1.193869 -1.50385,0.09646 c -6.19938,0.397634 -12.42406,1.560897 -17.95146,3.35475 -1.85278,0.601298 -4.67851,1.659873 -5.29986,1.985435 l -0.36243,0.18989 1.58215,1.406932 c 0.87018,0.773815 1.69113,1.485352 1.82433,1.581195 0.20266,0.145824 0.61251,0.02577 2.51178,-0.735649 3.46657,-1.389783 6.89411,-2.405945 10.68327,-3.167263 2.89853,-0.582368 8.59744,-1.279971 8.80031,-1.077246 0.13191,0.131815 0.21816,27.504587 0.0937,29.730372 l -0.0985,1.761118 -0.30179,-0.361148 c -0.16598,-0.198622 -1.00092,-1.212107 -1.85542,-2.252189 -3.01959,-3.675399 -8.10924,-8.609291 -12.03292,-11.664705 -2.92506,-2.277774 -7.39727,-5.207756 -10.09102,-6.611169 l -0.79668,-0.415057 -1.85157,1.74214 c -1.01837,0.958176 -1.85079,1.78124 -1.84985,1.829024 0.001,0.0478 0.49354,0.371156 1.09462,0.718605 7.22118,4.174101 14.3308,10.588739 19.80687,17.87073 1.27885,1.700588 3.70853,5.338985 4.64694,6.958688 l 0.59478,1.026596 -0.27558,0.385802 c -0.47709,0.667912 -2.04503,2.093407 -2.91399,2.649271 -1.94295,1.242899 -3.85649,1.87685 -6.64213,2.200515 -0.97146,0.112892 -6.1745,0.173811 -16.66633,0.195144 -8.38967,0.01714 -15.53995,0.0094 -15.88952,-0.01661 z m 2.37172,-4.795683 c 2.28093,-0.468777 4.37695,-1.699584 5.67616,-3.333093 l 0.63838,-0.802633 0.0394,1.826631 0.0394,1.826631 h 3.25139 3.25138 l -0.0471,-10.063357 c -0.0462,-9.87304 -0.053,-10.084727 -0.35923,-11.193283 -1.04752,-3.791724 -3.37726,-6.084016 -7.20297,-7.087176 -1.89286,-0.496342 -5.33052,-0.614387 -7.58998,-0.260642 -2.54431,0.398347 -4.70247,1.184434 -6.53505,2.380317 -1.14188,0.745158 -2.29043,1.745368 -2.29043,1.994618 0,0.09955 0.83295,0.982106 1.851,1.961218 l 1.85101,1.780203 0.65601,-0.545548 c 2.63616,-2.192273 6.90191,-2.985978 9.93965,-1.849417 2.07444,0.776147 3.2161,2.390438 3.2161,4.547484 v 0.821805 l -2.86011,1.46e-4 c -7.10741,4.21e-4 -11.66236,1.240506 -14.32062,3.898763 -2.75131,2.751303 -3.01364,7.835149 -0.55608,10.776654 1.42957,1.711074 3.86268,3.013714 6.43761,3.446561 0.93984,0.157996 3.90197,0.08209 4.91404,-0.125882 z m -2.15987,-5.236981 c -2.09685,-0.451435 -3.24934,-1.374553 -3.58583,-2.872149 -0.44594,-1.984747 1.06482,-3.602602 4.00955,-4.293775 1.58517,-0.372062 2.95216,-0.499672 5.40244,-0.504333 l 2.29515,-0.004 v 1.312108 c 0,3.53982 -1.56645,5.556815 -4.84085,6.23315 -1.00289,0.207157 -2.62247,0.271022 -3.28046,0.129365 z"
       style="fill:none;fill-opacity:1;stroke:#000000;stroke-width:8;stroke-linecap:round;stroke-linejoin:round;stroke-miterlimit:4;stroke-dasharray:none;stroke-opacity:0.02745098" />
  </g>
  <path
     style="fill:#ffffff;fill-opacity:1;stroke-width:0.14124012"
     d="m 48.549433,94.394569 c -4.221089,-0.316178 -5.708684,-0.592155 -7.397395,-1.372397 -4.087493,-1.888527 -6.664294,-5.344181 -7.446321,-9.985954 -0.265836,-1.577919 -0.360321,-30.783771 -0.09958,-30.78274 0.101028,4.22e-4 0.91462,0.154849 1.807963,0.343214 3.346295,0.705605 8.120211,1.294024 11.741964,1.44729 1.949576,0.08251 2.071587,0.07222 2.147418,-0.180991 0.145337,-0.485291 0.684625,-3.467205 0.635628,-3.514637 -0.02635,-0.02547 -1.096608,-0.117325 -2.37836,-0.204039 -4.371158,-0.295717 -7.686887,-0.752309 -11.49847,-1.58339 -2.827821,-0.616578 -2.588338,-0.438081 -2.465449,-1.83761 0.400006,-4.555361 2.488899,-8.186483 5.950626,-10.343985 2.010789,-1.253212 3.786452,-1.788273 6.816695,-2.054076 1.503109,-0.131855 10.518444,-0.221815 10.518444,-0.104965 0,0.02544 -0.16104,0.442596 -0.357869,0.926994 -0.738534,1.817549 -0.967142,3.143972 -0.964166,5.594406 0.0023,1.837369 0.0629,2.523751 0.324479,3.671522 0.310471,1.362253 1.094682,3.743582 1.232827,3.743582 0.13231,0 5.34438,-0.880908 5.376808,-0.908751 0.01821,-0.01564 -0.192308,-0.562849 -0.467797,-1.216054 -0.275488,-0.653204 -0.666797,-1.792946 -0.869577,-2.53277 -0.325984,-1.189295 -0.369552,-1.615129 -0.376064,-3.675593 -0.0076,-2.427341 0.09173,-3.048144 0.784597,-4.900004 l 0.288573,-0.77127 9.837291,0.06137 c 9.29811,0.05801 9.910846,0.07742 11.179082,0.354157 1.708794,0.37287 2.782719,0.750609 3.935538,1.38428 3.087462,1.697081 5.205766,4.402868 6.158806,7.866867 l 0.328467,1.193869 -1.503853,0.09646 c -6.199385,0.397634 -12.424059,1.560897 -17.951458,3.35475 -1.85278,0.601298 -4.678515,1.659873 -5.299866,1.985435 l -0.362424,0.18989 1.58215,1.406932 c 0.87018,0.773815 1.69113,1.485352 1.824327,1.581195 0.202661,0.145824 0.612506,0.02577 2.511777,-0.735649 3.466571,-1.389783 6.894113,-2.405945 10.683277,-3.167263 2.898527,-0.582368 8.597436,-1.279971 8.800302,-1.077246 0.131909,0.131815 0.218165,27.504587 0.09369,29.730372 l -0.0985,1.761118 -0.301785,-0.361148 C 93.105247,79.579118 92.270307,78.565633 91.415805,77.525551 88.396216,73.850152 83.306569,68.91626 79.382885,65.860846 76.457827,63.583072 71.985617,60.65309 69.291865,59.249677 l -0.796679,-0.415057 -1.851572,1.74214 c -1.018363,0.958176 -1.850792,1.78124 -1.849843,1.829024 0.0012,0.0478 0.493531,0.371156 1.094612,0.718605 7.221187,4.174101 14.330807,10.588739 19.806878,17.87073 1.278848,1.700588 3.708525,5.338985 4.646935,6.958688 l 0.594784,1.026596 -0.275582,0.385802 c -0.477091,0.667912 -2.045027,2.093407 -2.913989,2.649271 -1.942957,1.242899 -3.856491,1.87685 -6.642133,2.200515 -0.971464,0.112892 -6.1745,0.173811 -16.666333,0.195144 -8.389662,0.01714 -15.539942,0.0094 -15.889512,-0.01661 z m 2.371725,-4.795683 c 2.280925,-0.468777 4.376951,-1.699584 5.676157,-3.333093 l 0.638381,-0.802633 0.03941,1.826631 0.03941,1.826631 h 3.251388 3.251381 l -0.04708,-10.063357 c -0.04622,-9.87304 -0.053,-10.084727 -0.359233,-11.193283 -1.047518,-3.791724 -3.377257,-6.084016 -7.202961,-7.087176 -1.892861,-0.496342 -5.330528,-0.614387 -7.589989,-0.260642 -2.544308,0.398347 -4.702466,1.184434 -6.535045,2.380317 -1.141885,0.745158 -2.29043,1.745368 -2.29043,1.994618 0,0.09955 0.83295,0.982106 1.851004,1.961218 l 1.851002,1.780203 0.65601,-0.545548 c 2.636163,-2.192273 6.901909,-2.985978 9.939653,-1.849417 2.074438,0.776147 3.216102,2.390438 3.216102,4.547484 v 0.821805 l -2.860108,1.46e-4 c -7.107416,4.21e-4 -11.662367,1.240506 -14.320627,3.898763 -2.751304,2.751303 -3.013632,7.835149 -0.556073,10.776654 1.429563,1.711074 3.862677,3.013714 6.437603,3.446561 0.939839,0.157996 3.901969,0.08209 4.914047,-0.125882 z M 48.76129,84.361905 c -2.096852,-0.451435 -3.249344,-1.374553 -3.58583,-2.872149 -0.445944,-1.984747 1.064819,-3.602602 4.009549,-4.293775 1.585167,-0.372062 2.952156,-0.499672 5.402436,-0.504333 l 2.295151,-0.004 v 1.312108 c 0,3.53982 -1.566449,5.556815 -4.840852,6.23315 -1.002892,0.207157 -2.622471,0.271022 -3.280454,0.129365 z"
     id="path4574-3"
     inkscape:connector-curvature="0" />
</svg>
