<?xml version="1.0" encoding="UTF-8" standalone="no"?>
<svg
   xmlns:dc="http://purl.org/dc/elements/1.1/"
   xmlns:cc="http://creativecommons.org/ns#"
   xmlns:rdf="http://www.w3.org/1999/02/22-rdf-syntax-ns#"
   xmlns:svg="http://www.w3.org/2000/svg"
   xmlns="http://www.w3.org/2000/svg"
   xmlns:xlink="http://www.w3.org/1999/xlink"
   xmlns:sodipodi="http://sodipodi.sourceforge.net/DTD/sodipodi-0.dtd"
   xmlns:inkscape="http://www.inkscape.org/namespaces/inkscape"
   enable-background="new 0 0 1024 1024"
   height="128"
   image-rendering="optimizeSpeed"
   viewBox="0 0 128 128"
   width="128"
   version="1.1"
   id="svg45"
   sodipodi:docname="audacious.svg"
   inkscape:version="0.91 r13725">
  <metadata
     id="metadata51">
    <rdf:RDF>
      <cc:Work
         rdf:about="">
        <dc:format>image/svg+xml</dc:format>
        <dc:type
           rdf:resource="http://purl.org/dc/dcmitype/StillImage" />
        <dc:title></dc:title>
      </cc:Work>
    </rdf:RDF>
  </metadata>
  <defs
     id="defs49" />
  <sodipodi:namedview
     pagecolor="#ffffff"
     bordercolor="#666666"
     borderopacity="1"
     objecttolerance="10"
     gridtolerance="10"
     guidetolerance="10"
     inkscape:pageopacity="0"
     inkscape:pageshadow="2"
     inkscape:window-width="1920"
     inkscape:window-height="1031"
     id="namedview47"
     showgrid="false"
     inkscape:zoom="0.32593203"
     inkscape:cx="-81.980951"
     inkscape:cy="61.570041"
     inkscape:window-x="0"
     inkscape:window-y="26"
     inkscape:window-maximized="1"
     inkscape:current-layer="svg45" />
  <linearGradient
     id="a">
    <stop
       offset="0"
       stop-color="#fff"
       id="stop2" />
    <stop
       offset="1"
       stop-color="#d7d7d7"
       id="stop4" />
  </linearGradient>
  <linearGradient
     gradientUnits="userSpaceOnUse"
     x1="520"
     x2="520"
     y1="4"
     y2="1024"
     id="linearGradient11">
    <stop
       offset="0"
       stop-color="#f9f9f9"
       id="stop7" />
    <stop
       offset="1"
       stop-color="#c8c8c8"
       id="stop9" />
  </linearGradient>
  <linearGradient
     id="b"
     gradientUnits="userSpaceOnUse"
     x1="275.08688"
     x2="846.55078"
     xlink:href="#c"
     y1="94.708557"
     y2="892.4726" />
  <linearGradient
     gradientUnits="userSpaceOnUse"
     x1="520"
     x2="520"
     y1="4"
     y2="1024"
     id="linearGradient18">
    <stop
       offset="0"
       stop-color="#fff"
       id="stop14" />
    <stop
       offset="1"
       stop-color="#e6e6e6"
       id="stop16" />
  </linearGradient>
  <linearGradient
     id="c"
     gradientUnits="userSpaceOnUse"
     x1="216.12634"
     x2="837.51129"
     y1="134.70856"
     y2="863.39441">
    <stop
       offset="0"
       stop-color="#15c4fc"
       id="stop20"
       style="stop-color:#fc1515;stop-opacity:1" />
    <stop
       style="stop-color:#8e29f5;stop-opacity:1"
       id="stop4528"
       stop-color="#15c4fc"
       offset="0.30591029" />
    <stop
       offset="0.56052154"
       stop-color="#15c4fc"
       id="stop4208"
       style="stop-color:#7c6bf3;stop-opacity:1;" />
    <stop
       offset="0.75258732"
       stop-color="#15c4fc"
       id="stop4530"
       style="stop-color:#3790ee;stop-opacity:1" />
  </linearGradient>
  <filter
     id="d"
     color-interpolation-filters="sRGB"
     height="1.076161"
     width="1.06827"
     x="-.034135"
     y="-.03808">
    <feGaussianBlur
       stdDeviation="4.2100112"
       id="feGaussianBlur25" />
  </filter>
  <linearGradient
     id="e"
     gradientUnits="userSpaceOnUse"
     x1="-250.45039"
     x2="-240.58372"
     xlink:href="#a"
     y1="308.69714"
     y2="792.16382" />
  <path
     d="m986.739 315.98644q-9.3288-22.61695-21.0441-44.31186c-4.3932-8.18983-9.0576-16.32543-13.9932-24.29831-21.20678-34.38644-47.07797-66.87458-77.61356-97.41017-99.95933-99.95932-220.69153-149.9661-362.08814-149.9661s-262.07458 50.00678-362.0339 149.9661-149.9661 220.63729-149.9661 362.0339 50.00678 262.12881 149.9661 362.08814c99.95932 99.95932 220.63729 149.91186 362.0339 149.91186s262.12881-49.95254 362.08814-149.91186c55.05084-55.10509 94.96946-116.5017 119.70166-184.1356 20.1221-55.15932 30.2102-114.44068 30.2102-177.95254 0-48.70508-5.9119-94.96949-17.7898-138.79322-1.356-4.93559-2.7661-9.87119-4.2305-14.75254-4.4475-14.42712-9.5458-28.58305-15.2407-42.4678z"
     fill="url(#b)"
     stroke-width="1.084746"
     transform="matrix(.11958582598 0 0 .11958582598 2.00000058 3.54410774)"
     id="path29"
     style="fill-opacity:1;fill:url(#b)" />
  <path
     style="opacity:1;fill:#ffffff;fill-opacity:1;stroke:none;stroke-width:2;stroke-linecap:round;stroke-linejoin:round;stroke-miterlimit:4;stroke-dasharray:none;stroke-dashoffset:0;stroke-opacity:0.03041825;paint-order:fill markers stroke"
     d="M 63.228516 9.1796875 A 55.59322 55.59322 0 0 0 7.6347656 64.771484 A 55.59322 55.59322 0 0 0 63.228516 120.36523 A 55.59322 55.59322 0 0 0 118.82031 64.771484 A 55.59322 55.59322 0 0 0 63.228516 9.1796875 z M 66.474609 31.648438 C 82.188985 32.233834 91.484705 42.695939 92.509766 57.945312 C 93.665245 75.135694 88.531856 79.614009 90.734375 83.068359 C 95.333604 90.281612 88.812108 92.170715 84.488281 95.695312 C 81.798774 97.887605 76.608393 96.88549 74.033203 93.765625 C 66.208415 89.311464 69.223101 97.870903 53.0625 97.908203 C 44.66152 97.569486 36.958849 91.598426 34.783203 83.552734 C 31.446815 71.21414 36.34387 62.108235 49.970703 57.810547 C 53.912366 56.567447 61.719353 57.318686 65.158203 54.84375 C 68.405934 52.506218 67.24196 49.139114 63.253906 48.701172 C 57.534334 48.073032 48.611748 50.628431 43.333984 49.597656 C 39.097523 48.770371 37.809643 40.803765 40.574219 37.378906 C 45.098333 31.774028 56.697843 32.019364 63.253906 31.720703 C 64.357947 31.670513 65.427008 31.609078 66.474609 31.648438 z M 64.373047 68.507812 C 60.733396 68.507813 57.728516 71.17713 57.728516 74.505859 C 57.728516 77.834551 60.733285 80.583984 64.373047 80.583984 C 68.012809 80.583984 70.880859 77.834588 70.880859 74.505859 C 70.880859 71.177277 68.012809 68.507808 64.373047 68.507812 z "
     id="path4165" />
</svg>
