<?xml version="1.0" encoding="UTF-8" standalone="no"?>
<!-- Created with Inkscape (http://www.inkscape.org/) -->

<svg
   xmlns:dc="http://purl.org/dc/elements/1.1/"
   xmlns:cc="http://creativecommons.org/ns#"
   xmlns:rdf="http://www.w3.org/1999/02/22-rdf-syntax-ns#"
   xmlns:svg="http://www.w3.org/2000/svg"
   xmlns="http://www.w3.org/2000/svg"
   xmlns:xlink="http://www.w3.org/1999/xlink"
   xmlns:sodipodi="http://sodipodi.sourceforge.net/DTD/sodipodi-0.dtd"
   xmlns:inkscape="http://www.inkscape.org/namespaces/inkscape"
   version="1.1"
   id="svg2"
   width="128"
   height="128"
   viewBox="0 0 128 128"
   sodipodi:docname="awf.svg"
   inkscape:version="0.92.4 5da689c313, 2019-01-14">
  <metadata
     id="metadata8">
    <rdf:RDF>
      <cc:Work
         rdf:about="">
        <dc:format>image/svg+xml</dc:format>
        <dc:type
           rdf:resource="http://purl.org/dc/dcmitype/StillImage" />
        <dc:title></dc:title>
      </cc:Work>
    </rdf:RDF>
  </metadata>
  <defs
     id="defs6">
    <linearGradient
       inkscape:collect="always"
       id="linearGradient833">
      <stop
         style="stop-color:#3086f8;stop-opacity:1"
         offset="0"
         id="stop829" />
      <stop
         style="stop-color:#22cafe;stop-opacity:1"
         offset="1"
         id="stop831" />
    </linearGradient>
    <linearGradient
       inkscape:collect="always"
       id="linearGradient823">
      <stop
         style="stop-color:#0138f3;stop-opacity:1"
         offset="0"
         id="stop819" />
      <stop
         style="stop-color:#22cafe;stop-opacity:1"
         offset="1"
         id="stop821" />
    </linearGradient>
    <linearGradient
       inkscape:collect="always"
       xlink:href="#linearGradient823"
       id="linearGradient825"
       x1="-741.83197"
       y1="959.04749"
       x2="-741.83197"
       y2="93.836403"
       gradientUnits="userSpaceOnUse"
       gradientTransform="matrix(0.13667801,0,0,0.13667801,162.31231,-5.989337)" />
    <linearGradient
       inkscape:collect="always"
       xlink:href="#linearGradient833"
       id="linearGradient835"
       x1="-738.76385"
       y1="931.43433"
       x2="-738.76385"
       y2="152.13077"
       gradientUnits="userSpaceOnUse"
       gradientTransform="matrix(0.13667801,0,0,0.13667801,162.31231,-5.989337)" />
  </defs>
  <sodipodi:namedview
     pagecolor="#ffffff"
     bordercolor="#666666"
     borderopacity="1"
     objecttolerance="10"
     gridtolerance="10"
     guidetolerance="10"
     inkscape:pageopacity="0"
     inkscape:pageshadow="2"
     inkscape:window-width="1920"
     inkscape:window-height="1028"
     id="namedview4"
     showgrid="false"
     inkscape:zoom="1.3037281"
     inkscape:cx="87.383713"
     inkscape:cy="41.880908"
     inkscape:window-x="0"
     inkscape:window-y="26"
     inkscape:window-maximized="1"
     inkscape:current-layer="svg2" />
  <circle
     style="opacity:1;fill:url(#linearGradient825);fill-opacity:1;stroke:none;stroke-width:0.78699166;stroke-linecap:round;stroke-linejoin:round;stroke-miterlimit:4;stroke-dasharray:none;stroke-opacity:1"
     id="path817"
     cx="63.591888"
     cy="64.286316"
     r="61.380009" />
  <circle
     r="55.089832"
     cy="64.286316"
     cx="63.591888"
     id="circle827"
     style="opacity:1;fill:url(#linearGradient835);fill-opacity:1;stroke:none;stroke-width:0.70634133;stroke-linecap:round;stroke-linejoin:round;stroke-miterlimit:4;stroke-dasharray:none;stroke-opacity:1" />
  <path
     id="path844-6"
     d="m 85.402536,26.198424 c -15.687072,0 -18.627859,23.836759 -9.796875,23.836759 8.822362,0 25.492569,-23.836759 9.796875,-23.836759 z m -24.155848,3.665203 c -0.25009,0 -0.517441,0.0258 -0.793409,0.0431 -8.891355,1.121122 -5.76946,16.170016 -1.034882,16.45461 4.579349,0.267338 9.589899,-16.471858 1.811043,-16.506353 z m -15.419727,5.553864 c -0.543313,-0.03449 -1.13837,0.069 -1.81104,0.34496 -7.149305,2.932163 -1.086628,15.048894 2.914914,14.229614 3.630704,-0.73304 4.148145,-14.238238 -1.103874,-14.574574 z m -11.65966,9.90036 c -0.62093,-0.01711 -1.293602,0.198344 -2.009394,0.733042 -5.717717,4.268884 1.931778,14.583197 5.295141,12.979134 2.940787,-1.397089 1.060755,-13.548321 -3.285747,-13.712176 z m 33.780241,9.848617 c -12.3927,-0.215593 -28.735196,6.071303 -31.529376,18.714099 -3.018402,13.669054 12.427198,32.633253 28.545471,32.633253 7.92546,0 17.075535,-7.244172 18.78309,-16.42874 1.310847,-6.994071 -15.376606,-4.191268 -14.781552,0.439824 0.724418,5.553862 -4.018787,8.296298 -8.658504,4.717334 C 45.516496,83.849921 84.781605,78.166702 82.194404,62.600367 81.383748,57.762294 75.372814,55.29583 67.938918,55.166468 Z m 0,0"
     inkscape:connector-curvature="0"
     style="fill:#ffffff;fill-opacity:1;stroke-width:2.89892626" />
</svg>
