<svg height="136.53333" viewBox="0 0 136.53333 136.53333" width="136.53333" xmlns="http://www.w3.org/2000/svg" xmlns:xlink="http://www.w3.org/1999/xlink"><linearGradient id="a" gradientUnits="userSpaceOnUse" x1="65.280846" x2="67.129555" y1="-10.603566" y2="51.877785"><stop offset="0" stop-color="#3d9ade"/><stop offset="1" stop-color="#2281c7"/></linearGradient><linearGradient id="b" gradientUnits="userSpaceOnUse" x1="35.4865" x2="42.541985" y1="42.621288" y2="116.67326"><stop offset="0" stop-color="#60ace4"/><stop offset="1" stop-color="#3897dd"/></linearGradient><linearGradient id="c" gradientUnits="userSpaceOnUse" x1="35.4865" x2="42.541985" y1="42.621288" y2="116.67326"><stop offset="0" stop-color="#75b5e4"/><stop offset="1" stop-color="#61aae0"/></linearGradient><circle cx="68.953224" cy="68.365921" fill="url(#a)" r="64.021523"/><path d="m16.183594 32.125a64.021523 64.021523 0 0 0 -11.2519534 36.240234 64.021523 64.021523 0 0 0 64.0214844 64.021486 64.021523 64.021523 0 0 0 64.021485-64.021486 64.021523 64.021523 0 0 0 -6.18164-27.289062h-60.26172l-22.5625 38.18164s-17.678433-30.06484-27.785156-47.132812z" fill="url(#b)"/><path d="m66.53125 41.076172 26.033203 40.496094-28.902344 50.580074c1.746668.14305 3.50746.23438 5.291016.23438 35.358085-.00002 64.021465-28.6634 64.021485-64.021486-.02326-9.440873-2.13422-18.759761-6.18164-27.289062z" fill="url(#c)"/><g stroke="#eee"><circle cx="68.953224" cy="68.365921" fill="#2a89e2" r="25.399931" stroke-width="4"/><circle cx="68.953224" cy="68.365921" fill="none" r="64.021523" stroke-width="6"/></g></svg>