<?xml version="1.0" encoding="UTF-8" standalone="no"?>
<!-- Created with Inkscape (http://www.inkscape.org/) -->

<svg
   xmlns:dc="http://purl.org/dc/elements/1.1/"
   xmlns:cc="http://creativecommons.org/ns#"
   xmlns:rdf="http://www.w3.org/1999/02/22-rdf-syntax-ns#"
   xmlns:svg="http://www.w3.org/2000/svg"
   xmlns="http://www.w3.org/2000/svg"
   xmlns:xlink="http://www.w3.org/1999/xlink"
   xmlns:sodipodi="http://sodipodi.sourceforge.net/DTD/sodipodi-0.dtd"
   xmlns:inkscape="http://www.inkscape.org/namespaces/inkscape"
   version="1.1"
   id="svg2"
   width="128"
   height="128"
   viewBox="0 0 128 128"
   sodipodi:docname="clamav.svg"
   inkscape:version="0.92.4 5da689c313, 2019-01-14">
  <metadata
     id="metadata8">
    <rdf:RDF>
      <cc:Work
         rdf:about="">
        <dc:format>image/svg+xml</dc:format>
        <dc:type
           rdf:resource="http://purl.org/dc/dcmitype/StillImage" />
        <dc:title></dc:title>
      </cc:Work>
    </rdf:RDF>
  </metadata>
  <defs
     id="defs6">
    <linearGradient
       inkscape:collect="always"
       id="linearGradient833">
      <stop
         style="stop-color:#ff4777;stop-opacity:1"
         offset="0"
         id="stop829" />
      <stop
         style="stop-color:#f75e67;stop-opacity:1"
         offset="1"
         id="stop831" />
    </linearGradient>
    <linearGradient
       inkscape:collect="always"
       id="linearGradient823">
      <stop
         style="stop-color:#be3467;stop-opacity:1"
         offset="0"
         id="stop819" />
      <stop
         style="stop-color:#ee5f82;stop-opacity:1"
         offset="1"
         id="stop821" />
    </linearGradient>
    <linearGradient
       inkscape:collect="always"
       xlink:href="#linearGradient823"
       id="linearGradient825"
       x1="-741.83197"
       y1="959.04749"
       x2="-741.83197"
       y2="93.836403"
       gradientUnits="userSpaceOnUse"
       gradientTransform="matrix(0.13667801,0,0,0.13667801,162.31231,-5.989337)" />
    <linearGradient
       inkscape:collect="always"
       xlink:href="#linearGradient833"
       id="linearGradient835"
       x1="-738.76385"
       y1="931.43433"
       x2="-738.76385"
       y2="152.13077"
       gradientUnits="userSpaceOnUse"
       gradientTransform="matrix(0.13667801,0,0,0.13667801,162.31231,-5.989337)" />
    <clipPath
       id="clipPath849">
      <rect
         id="rect847"
         height="384"
         width="384" />
    </clipPath>
    <clipPath
       id="clipPath853">
      <rect
         id="rect851"
         height="384"
         width="384" />
    </clipPath>
    <clipPath
       id="clipPath857">
      <rect
         id="rect855"
         height="384"
         width="384" />
    </clipPath>
  </defs>
  <sodipodi:namedview
     pagecolor="#ffffff"
     bordercolor="#666666"
     borderopacity="1"
     objecttolerance="10"
     gridtolerance="10"
     guidetolerance="10"
     inkscape:pageopacity="0"
     inkscape:pageshadow="2"
     inkscape:window-width="1920"
     inkscape:window-height="1028"
     id="namedview4"
     showgrid="false"
     inkscape:zoom="1.84375"
     inkscape:cx="59.097373"
     inkscape:cy="46.362604"
     inkscape:window-x="0"
     inkscape:window-y="26"
     inkscape:window-maximized="1"
     inkscape:current-layer="svg2" />
  <circle
     style="opacity:1;fill:url(#linearGradient825);fill-opacity:1;stroke:none;stroke-width:0.78699166;stroke-linecap:round;stroke-linejoin:round;stroke-miterlimit:4;stroke-dasharray:none;stroke-opacity:1"
     id="path817"
     cx="63.591888"
     cy="64.286316"
     r="61.380009" />
  <circle
     r="55.089832"
     cy="64.286316"
     cx="63.591888"
     id="circle827"
     style="opacity:0.8;fill:url(#linearGradient835);fill-opacity:1;stroke:none;stroke-width:0.70634133;stroke-linecap:round;stroke-linejoin:round;stroke-miterlimit:4;stroke-dasharray:none;stroke-opacity:1" />
  <g
     id="g897"
     transform="matrix(0.22183497,0,0,0.22183497,20.997142,21.693293)">
    <path
       style="fill:#ffffff;stroke:none;stroke-width:0.24443401"
       d="m 224.54883,30.75 c -1.10281,6.794532 -4.44636,12.995735 -9.47071,17.566406 -5.56477,-3.679954 -12.2333,-5.833984 -19.43164,-5.833984 -7.20127,0 -13.8815,2.155102 -19.44531,5.83789 -4.98327,-4.523005 -8.31699,-10.650131 -9.45703,-17.375 -0.27403,1.624142 -0.41822,3.26902 -0.42969,4.916016 0.008,5.876927 1.69197,11.622531 4.84571,16.527344 -6.60168,6.39146 -10.71094,15.334238 -10.71094,25.292969 0,19.500212 15.69705,35.199219 35.19726,35.199219 19.49924,0 35.19922,-15.699007 35.19922,-35.199219 0,-9.955064 -4.11,-18.896383 -10.70703,-25.28711 3.15271,-4.907746 4.83496,-10.655298 4.83985,-16.533203 -9.8e-4,-1.712945 -0.14321,-3.422291 -0.42774,-5.109375 z m -39.23538,51.745471 7.39749,3.984998 c -1.72702,2.790675 -4.49703,4.668605 -7.58513,5.452749 -1.08014,-2.901239 -1.83499,-6.819414 0.18764,-9.437747 z m -0.18764,9.437747 c -2.8881,0.53673 -6.84003,0.320968 -9.59065,-1.161734 -6.01259,-3.237773 -8.07424,-10.411966 -4.60352,-16.023437 l 10.22842,5.510011 c -0.52833,4.230465 1.42088,7.987025 3.96575,11.67516 z m 35.23161,-17.185171 c 3.4717,5.611471 1.412,12.785664 -4.60156,16.023437 -2.97241,1.602256 -6.35327,1.938016 -9.43359,1.195313 2.8321,-3.109972 4.4035,-7.912082 3.83007,-11.71875 -11.65717,6.276805 8.16169,-4.399109 10.20508,-5.5 z m -14.36133,7.736328 c 1.52744,3.124529 1.78364,6.463126 0.21485,9.458984 -3.10701,-0.777143 -5.89725,-2.658412 -7.63282,-5.46289 z"
       transform="matrix(4.0910837,0,0,4.0910837,-608.39917,-101.79974)"
       id="path861"
       inkscape:connector-curvature="0"
       sodipodi:nodetypes="ccsccccssscccccccccccccccccccccc" />
  </g>
</svg>
