<svg height="128" viewBox="0 0 128 128" width="128" xmlns="http://www.w3.org/2000/svg" xmlns:xlink="http://www.w3.org/1999/xlink"><linearGradient id="a" gradientUnits="userSpaceOnUse" x1="64.42871085545" x2="63.70264686264" y1="9.49702762746" y2="114.03049919903"><stop offset="0" stop-color="#a87cff"/><stop offset="1" stop-color="#7838c8"/></linearGradient><linearGradient id="b" gradientUnits="userSpaceOnUse" x1="66.01551341119" x2="64.33359152003" y1="119.34706540717" y2="1.33853303141"><stop offset="0" stop-color="#cccdd1"/><stop offset="1" stop-color="#f7f9f9"/></linearGradient><circle cx="64.333229" cy="64.22612" fill="url(#a)" r="60.565502" stroke="#cccdd1" stroke-width="4.644855"/><path d="m64.333592 1.3385313c-34.704539 0-62.8882778 28.1824517-62.8882778 62.8869837 0 34.704538 28.1837388 62.888275 62.8882778 62.888275 34.704538 0 62.886978-28.183737 62.886978-62.888275 0-34.704532-28.18244-62.8869837-62.886978-62.8869837zm0 4.644855c32.194272 0 58.242128 26.0478627 58.242128 58.2421287 0 32.194272-26.047856 58.243425-58.242128 58.243425-32.194267 0-58.2434228-26.049153-58.2434228-58.243425 0-32.194266 26.0491558-58.2421287 58.2434228-58.2421287z" fill="url(#b)"/><path d="m96.620145 40.010758-16.143601-8.0718-23.742446 23.742445-16.616558-11.634744-8.0718 4.0359 16.143601 16.143601-16.143601 16.143602 8.0718 4.0359 16.616558-11.634745 23.742446 23.742446 16.143601-8.071801zm-16.143601 16.143602v16.143601l-11.529642-8.071801z" fill="#fff"/></svg>