<?xml version="1.0" encoding="UTF-8" standalone="no"?>
<!-- Created with Inkscape (http://www.inkscape.org/) -->

<svg
   xmlns:dc="http://purl.org/dc/elements/1.1/"
   xmlns:cc="http://creativecommons.org/ns#"
   xmlns:rdf="http://www.w3.org/1999/02/22-rdf-syntax-ns#"
   xmlns:svg="http://www.w3.org/2000/svg"
   xmlns="http://www.w3.org/2000/svg"
   xmlns:xlink="http://www.w3.org/1999/xlink"
   xmlns:sodipodi="http://sodipodi.sourceforge.net/DTD/sodipodi-0.dtd"
   xmlns:inkscape="http://www.inkscape.org/namespaces/inkscape"
   width="128"
   height="128"
   viewBox="0 0 33.866666 33.866668"
   version="1.1"
   id="svg8"
   inkscape:version="0.92.1 r15371"
   sodipodi:docname="com.github.panosx2.brightness.svg">
  <defs
     id="defs2">
    <linearGradient
       inkscape:collect="always"
       id="linearGradient4590">
      <stop
         style="stop-color:#ffe2f0;stop-opacity:1"
         offset="0"
         id="stop4586" />
      <stop
         style="stop-color:#c32573;stop-opacity:1"
         offset="1"
         id="stop4588" />
    </linearGradient>
    <linearGradient
       inkscape:collect="always"
       id="linearGradient884">
      <stop
         style="stop-color:#7b4d74;stop-opacity:1"
         offset="0"
         id="stop880" />
      <stop
         style="stop-color:#3c1e2f;stop-opacity:1"
         offset="1"
         id="stop882" />
    </linearGradient>
    <linearGradient
       inkscape:collect="always"
       id="linearGradient856">
      <stop
         style="stop-color:#918a98;stop-opacity:1"
         offset="0"
         id="stop852" />
      <stop
         style="stop-color:#656268;stop-opacity:1"
         offset="1"
         id="stop854" />
    </linearGradient>
    <linearGradient
       inkscape:collect="always"
       id="linearGradient836">
      <stop
         style="stop-color:#e4dee7;stop-opacity:1;"
         offset="0"
         id="stop832" />
      <stop
         id="stop840"
         offset="0.18699762"
         style="stop-color:#dcd5e1;stop-opacity:1" />
      <stop
         style="stop-color:#b3afb9;stop-opacity:1"
         offset="0.43347651"
         id="stop842" />
      <stop
         id="stop844"
         offset="0.54615259"
         style="stop-color:#9d97a4;stop-opacity:1" />
      <stop
         style="stop-color:#9893a0;stop-opacity:1"
         offset="0.69403994"
         id="stop915" />
      <stop
         style="stop-color:#888191;stop-opacity:1"
         offset="0.81846106"
         id="stop846" />
      <stop
         style="stop-color:#736b77;stop-opacity:1"
         offset="1"
         id="stop834" />
    </linearGradient>
    <linearGradient
       inkscape:collect="always"
       xlink:href="#linearGradient836"
       id="linearGradient838"
       x1="-146.65379"
       y1="195.58556"
       x2="-146.65379"
       y2="157.63329"
       gradientUnits="userSpaceOnUse" />
    <linearGradient
       inkscape:collect="always"
       xlink:href="#linearGradient856"
       id="linearGradient858"
       x1="-149.66058"
       y1="195.40411"
       x2="-149.66058"
       y2="197.12238"
       gradientUnits="userSpaceOnUse" />
    <linearGradient
       inkscape:collect="always"
       xlink:href="#linearGradient884"
       id="linearGradient886"
       x1="44.17086"
       y1="13.358005"
       x2="44.17086"
       y2="154.96873"
       gradientUnits="userSpaceOnUse"
       gradientTransform="matrix(0.14034184,0,0,0.14034184,10.57071,268.59775)" />
    <linearGradient
       inkscape:collect="always"
       xlink:href="#linearGradient4590"
       id="linearGradient4592"
       x1="2.1806757"
       y1="280.17783"
       x2="32.438244"
       y2="280.36682"
       gradientUnits="userSpaceOnUse" />
  </defs>
  <sodipodi:namedview
     id="base"
     pagecolor="#ffffff"
     bordercolor="#666666"
     borderopacity="1.0"
     inkscape:pageopacity="0.0"
     inkscape:pageshadow="2"
     inkscape:zoom="0.7"
     inkscape:cx="68.510889"
     inkscape:cy="34.726243"
     inkscape:document-units="mm"
     inkscape:current-layer="layer1"
     showgrid="false"
     units="px"
     inkscape:window-width="1920"
     inkscape:window-height="986"
     inkscape:window-x="0"
     inkscape:window-y="0"
     inkscape:window-maximized="1" />
  <metadata
     id="metadata5">
    <rdf:RDF>
      <cc:Work
         rdf:about="">
        <dc:format>image/svg+xml</dc:format>
        <dc:type
           rdf:resource="http://purl.org/dc/dcmitype/StillImage" />
        <dc:title></dc:title>
      </cc:Work>
    </rdf:RDF>
  </metadata>
  <g
     inkscape:label="Capa 1"
     inkscape:groupmode="layer"
     id="layer1"
     transform="translate(0,-263.13332)">
    <g
       id="g873"
       transform="matrix(0.14034184,0,0,0.14034184,37.771879,268.74779)">
      <path
         inkscape:connector-curvature="0"
         id="path862"
         d="m -181.87823,182.3494 c -3.76849,4.79603 -7.39656,8.43925 -7.33753,10.75852 0.0532,2.09084 2.01803,4.91138 4.10956,4.91138 h 35.53014 4.06693 35.53014 c 2.09152,0 3.72228,-2.88735 3.77548,-4.97819 0.059,-2.31927 -3.56904,-5.96249 -7.33754,-10.75852 z"
         style="opacity:1;fill:#000000;fill-opacity:0.16230367;stroke:none;stroke-width:0.52916664;stroke-linecap:round;stroke-linejoin:round;stroke-miterlimit:4;stroke-dasharray:none;stroke-dashoffset:0;stroke-opacity:0.85098039;paint-order:fill markers stroke"
         sodipodi:nodetypes="ccsccsccc" />
      <path
         sodipodi:nodetypes="ccsccsccc"
         style="opacity:1;fill:url(#linearGradient858);fill-opacity:1;stroke:none;stroke-width:0.52916664;stroke-linecap:round;stroke-linejoin:round;stroke-miterlimit:4;stroke-dasharray:none;stroke-dashoffset:0;stroke-opacity:0.85098039;paint-order:fill markers stroke"
         d="m -181.87823,181.64782 c -3.76849,4.79603 -7.39656,8.43925 -7.33753,10.75852 0.0532,2.09084 2.01803,4.91138 4.10956,4.91138 h 35.53014 4.06693 35.53014 c 2.09152,0 3.72228,-2.88735 3.77548,-4.97819 0.059,-2.31927 -3.56904,-5.96249 -7.33754,-10.75852 z"
         id="path848"
         inkscape:connector-curvature="0" />
      <path
         inkscape:connector-curvature="0"
         id="path866"
         d="m -181.87823,183.62606 c -3.76849,4.79603 -7.39656,8.43925 -7.33753,10.75852 0.0532,2.09084 2.01803,4.91138 4.10956,4.91138 h 35.53014 4.06693 35.53014 c 2.09152,0 3.72228,-2.88735 3.77548,-4.97819 0.059,-2.31927 -3.56904,-5.96249 -7.33754,-10.75852 z"
         style="opacity:1;fill:#000000;fill-opacity:0.03664922;stroke:none;stroke-width:0.52916664;stroke-linecap:round;stroke-linejoin:round;stroke-miterlimit:4;stroke-dasharray:none;stroke-dashoffset:0;stroke-opacity:0.85098039;paint-order:fill markers stroke"
         sodipodi:nodetypes="ccsccsccc" />
      <path
         sodipodi:nodetypes="ccsccsccc"
         style="opacity:1;fill:#000000;fill-opacity:0.0471204;stroke:none;stroke-width:0.52916664;stroke-linecap:round;stroke-linejoin:round;stroke-miterlimit:4;stroke-dasharray:none;stroke-dashoffset:0;stroke-opacity:0.85098039;paint-order:fill markers stroke"
         d="m -181.87823,182.89107 c -3.76849,4.79603 -7.39656,8.43925 -7.33753,10.75852 0.0532,2.09084 2.01803,4.91138 4.10956,4.91138 h 35.53014 4.06693 35.53014 c 2.09152,0 3.72228,-2.88735 3.77548,-4.97819 0.059,-2.31927 -3.56904,-5.96249 -7.33754,-10.75852 z"
         id="path864"
         inkscape:connector-curvature="0" />
      <path
         inkscape:connector-curvature="0"
         id="rect826"
         d="m -148.44487,156.10158 -5.1e-4,0.0155 -21.16408,0.18139 c -2.09145,0.0179 -3.95289,1.69153 -3.77497,3.77548 0.98672,11.55734 -3.81779,15.3799 -8.15971,20.9057 -3.76849,4.79603 -7.39656,8.43925 -7.33753,10.75852 0.0532,2.09084 1.68394,3.77548 3.77547,3.77548 h 35.53014 4.06693 35.53014 c 2.09152,0 3.72228,-1.68464 3.77548,-3.77548 0.059,-2.31927 -3.56904,-5.96249 -7.33754,-10.75852 -4.3419,-5.5258 -9.14643,-9.34836 -8.15971,-20.9057 0.17792,-2.08395 -1.68351,-3.75758 -3.77496,-3.77548 l -21.16409,-0.18139 -5.1e-4,-0.0155 -0.90227,0.008 z"
         style="opacity:1;fill:url(#linearGradient838);fill-opacity:1;stroke:none;stroke-width:0.52916664;stroke-linecap:round;stroke-linejoin:round;stroke-miterlimit:4;stroke-dasharray:none;stroke-dashoffset:0;stroke-opacity:0.85098039;paint-order:fill markers stroke" />
    </g>
    <path
       style="opacity:1;fill:#8c7a93;fill-opacity:1;stroke:none;stroke-width:0.07426422;stroke-linecap:round;stroke-linejoin:round;stroke-miterlimit:4;stroke-dasharray:none;stroke-dashoffset:0;stroke-opacity:0.85098039;paint-order:fill markers stroke"
       d="M 5.4246394,270.20123 H 28.684602 c 2.143016,0 3.093513,1.03027 3.394316,3.39432 l 1.778921,13.98071 c 0.237358,1.86541 -1.513864,3.39432 -3.394316,3.39432 H 3.6210798 c -1.8804516,0 -3.63490702,-1.52932 -3.3943162,-3.39432 l 1.8035596,-13.98071 c 0.2983205,-2.3125 1.0262469,-3.39432 3.3943162,-3.39432 z"
       id="rect875"
       inkscape:connector-curvature="0"
       sodipodi:nodetypes="sssssssss" />
    <path
       sodipodi:nodetypes="sssssssss"
       inkscape:connector-curvature="0"
       id="path878"
       d="M 5.4246394,270.20123 H 28.684603 c 2.143016,0 3.091014,1.03059 3.394316,3.39432 l 1.725875,13.45025 c 0.216663,1.68851 -1.142542,3.39432 -3.34127,3.39432 H 3.6210798 c -2.7806701,0 -3.51956428,-2.46026 -3.3943162,-3.39432 l 1.8035596,-13.45025 c 0.3098818,-2.31098 1.0262469,-3.39432 3.3943162,-3.39432 z"
       style="opacity:1;fill:url(#linearGradient886);fill-opacity:1;stroke:none;stroke-width:0.07426422;stroke-linecap:round;stroke-linejoin:round;stroke-miterlimit:4;stroke-dasharray:none;stroke-dashoffset:0;stroke-opacity:0.85098039;paint-order:fill markers stroke" />
    <path
       style="opacity:1;fill:url(#linearGradient4592);fill-opacity:1;stroke:none;stroke-width:0.07426422;stroke-linecap:round;stroke-linejoin:round;stroke-miterlimit:4;stroke-dasharray:none;stroke-dashoffset:0;stroke-opacity:0.85098039;paint-order:fill markers stroke"
       d="M 5.9808404,270.83778 H 28.073793 c 2.368071,0 3.022757,0.45365 3.394317,3.39432 l 1.538329,12.17495 c 0.308465,2.44131 -0.954997,3.39431 -3.153724,3.39431 H 4.1772807 c -2.78067,0 -3.36341849,-1.56399 -3.131752,-3.39431 L 2.5865242,274.2321 c 0.3049109,-2.40901 0.6886644,-3.39432 3.3943162,-3.39432 z"
       id="path888"
       inkscape:connector-curvature="0"
       sodipodi:nodetypes="sssssssss" />
  </g>
</svg>
