<?xml version="1.0" encoding="UTF-8" standalone="no"?>
<!-- Created with Inkscape (http://www.inkscape.org/) -->

<svg
   xmlns:dc="http://purl.org/dc/elements/1.1/"
   xmlns:cc="http://creativecommons.org/ns#"
   xmlns:rdf="http://www.w3.org/1999/02/22-rdf-syntax-ns#"
   xmlns:svg="http://www.w3.org/2000/svg"
   xmlns="http://www.w3.org/2000/svg"
   xmlns:xlink="http://www.w3.org/1999/xlink"
   xmlns:sodipodi="http://sodipodi.sourceforge.net/DTD/sodipodi-0.dtd"
   xmlns:inkscape="http://www.inkscape.org/namespaces/inkscape"
   version="1.1"
   id="svg2"
   width="128"
   height="128"
   viewBox="0 0 128 128"
   sodipodi:docname="com.github.bbuhler.hostsmanager.svg"
   inkscape:version="0.92.1 r15371">
  <metadata
     id="metadata8">
    <rdf:RDF>
      <cc:Work
         rdf:about="">
        <dc:format>image/svg+xml</dc:format>
        <dc:type
           rdf:resource="http://purl.org/dc/dcmitype/StillImage" />
        <dc:title></dc:title>
      </cc:Work>
    </rdf:RDF>
  </metadata>
  <defs
     id="defs6">
    <linearGradient
       inkscape:collect="always"
       id="linearGradient833">
      <stop
         style="stop-color:#257045;stop-opacity:1"
         offset="0"
         id="stop829" />
      <stop
         style="stop-color:#3eb670;stop-opacity:1"
         offset="1"
         id="stop831" />
    </linearGradient>
    <linearGradient
       inkscape:collect="always"
       id="linearGradient823">
      <stop
         style="stop-color:#1e4f33;stop-opacity:1"
         offset="0"
         id="stop819" />
      <stop
         style="stop-color:#3eb670;stop-opacity:1"
         offset="1"
         id="stop821" />
    </linearGradient>
    <linearGradient
       inkscape:collect="always"
       xlink:href="#linearGradient823"
       id="linearGradient825"
       x1="-741.83197"
       y1="959.04749"
       x2="-741.83197"
       y2="93.836403"
       gradientUnits="userSpaceOnUse"
       gradientTransform="matrix(0.13667801,0,0,0.13667801,162.31231,-5.989337)" />
    <linearGradient
       inkscape:collect="always"
       xlink:href="#linearGradient833"
       id="linearGradient835"
       x1="-738.76385"
       y1="931.43433"
       x2="-738.76385"
       y2="152.13077"
       gradientUnits="userSpaceOnUse"
       gradientTransform="matrix(0.13667801,0,0,0.13667801,162.31231,-5.989337)" />
    <linearGradient
       x1="76.523361"
       y1="-9.023138"
       x2="76.523361"
       y2="3.4508991"
       id="linearGradient3149"
       xlink:href="#linearGradient4113"
       gradientUnits="userSpaceOnUse"
       gradientTransform="matrix(0.89553576,0,0,-0.89663265,6.6836208,69.705837)" />
    <linearGradient
       id="linearGradient4113">
      <stop
         id="stop4115"
         style="stop-color:#000000;stop-opacity:1"
         offset="0" />
      <stop
         id="stop4117"
         style="stop-color:#000000;stop-opacity:0"
         offset="1" />
    </linearGradient>
    <linearGradient
       x1="23.99999"
       y1="4.999989"
       x2="23.99999"
       y2="43"
       id="linearGradient3159"
       xlink:href="#linearGradient3924-776"
       gradientUnits="userSpaceOnUse"
       gradientTransform="matrix(2.7297298,0,0,2.7297298,-1.5135124,1.486514)" />
    <linearGradient
       id="linearGradient3924-776">
      <stop
         id="stop3124"
         style="stop-color:#ffffff;stop-opacity:1"
         offset="0" />
      <stop
         id="stop3126"
         style="stop-color:#ffffff;stop-opacity:0.23529412"
         offset="0.06316455" />
      <stop
         id="stop3128"
         style="stop-color:#ffffff;stop-opacity:0.15686275"
         offset="0.95056331" />
      <stop
         id="stop3130"
         style="stop-color:#ffffff;stop-opacity:0.39215687"
         offset="1" />
    </linearGradient>
    <radialGradient
       cx="6.7304144"
       cy="9.9571075"
       r="12.671875"
       fx="6.2001843"
       fy="9.9571075"
       id="radialGradient3395"
       xlink:href="#linearGradient2867-449-88-871-390-598-476-591-434-148-57-177-8-3-3-6-4-8-8-8-5"
       gradientUnits="userSpaceOnUse"
       gradientTransform="matrix(0,25.083279,-30.794253,0,372.81658,-208.0918)" />
    <linearGradient
       id="linearGradient2867-449-88-871-390-598-476-591-434-148-57-177-8-3-3-6-4-8-8-8-5">
      <stop
         id="stop3750-1-0-7-6-6-1-3-9-3"
         style="stop-color:#919caf;stop-opacity:1"
         offset="0" />
      <stop
         id="stop3752-3-7-4-0-32-8-923-0-7"
         style="stop-color:#68758e;stop-opacity:1"
         offset="0.26238" />
      <stop
         id="stop3754-1-8-5-2-7-6-7-1-9"
         style="stop-color:#485a6c;stop-opacity:1"
         offset="0.704952" />
      <stop
         id="stop3756-1-6-2-6-6-1-96-6-0"
         style="stop-color:#444c5c;stop-opacity:1"
         offset="1" />
    </linearGradient>
    <radialGradient
       cx="4.9929786"
       cy="43.5"
       r="2.5"
       fx="4.9929786"
       fy="43.5"
       id="radialGradient2455-1"
       xlink:href="#linearGradient3688-166-749-5"
       gradientUnits="userSpaceOnUse"
       gradientTransform="matrix(2.003784,0,0,1.4,27.98813,-17.4)" />
    <linearGradient
       id="linearGradient3688-166-749-5">
      <stop
         id="stop2883-0"
         style="stop-color:#181818;stop-opacity:1"
         offset="0" />
      <stop
         id="stop2885-5"
         style="stop-color:#181818;stop-opacity:0"
         offset="1" />
    </linearGradient>
    <radialGradient
       cx="4.9929786"
       cy="43.5"
       r="2.5"
       fx="4.9929786"
       fy="43.5"
       id="radialGradient2457-5"
       xlink:href="#linearGradient3688-166-749-5"
       gradientUnits="userSpaceOnUse"
       gradientTransform="matrix(2.003784,0,0,1.4,-20.01187,-104.4)" />
    <linearGradient
       x1="25.058096"
       y1="47.027729"
       x2="25.058096"
       y2="39.999443"
       id="linearGradient2459-7"
       xlink:href="#linearGradient3702-501-757-0"
       gradientUnits="userSpaceOnUse" />
    <linearGradient
       id="linearGradient3702-501-757-0">
      <stop
         id="stop2895-0"
         style="stop-color:#181818;stop-opacity:0"
         offset="0" />
      <stop
         id="stop2897-2"
         style="stop-color:#181818;stop-opacity:1"
         offset="0.5" />
      <stop
         id="stop2899-6"
         style="stop-color:#181818;stop-opacity:0"
         offset="1" />
    </linearGradient>
    <radialGradient
       cx="-4.0287771"
       cy="93.467628"
       r="35.338131"
       fx="-4.0287771"
       fy="93.467628"
       id="radialGradient4377"
       xlink:href="#linearGradient4113"
       gradientUnits="userSpaceOnUse"
       gradientTransform="matrix(1.5563924,0,0,0.16978827,70.270358,102.13029)" />
    <filter
       id="filter3907"
       inkscape:label="Colorize"
       style="color-interpolation-filters:sRGB;">
      <feComposite
         id="feComposite3909"
         result="composite1"
         k2="1"
         k1="0"
         operator="arithmetic"
         in2="SourceGraphic" />
      <feColorMatrix
         id="feColorMatrix3911"
         result="colormatrix1"
         type="saturate"
         values="1"
         in="composite1" />
      <feFlood
         id="feFlood3913"
         result="flood1"
         flood-color="rgb(23,141,46)"
         flood-opacity="0.854902" />
      <feBlend
         id="feBlend3915"
         result="blend1"
         mode="multiply"
         in2="colormatrix1"
         in="flood1" />
      <feBlend
         id="feBlend3917"
         result="blend2"
         mode="screen"
         in2="blend1" />
      <feColorMatrix
         id="feColorMatrix3919"
         result="colormatrix2"
         type="saturate"
         values="1"
         in="blend2" />
      <feComposite
         id="feComposite3921"
         result="composite2"
         k2="1"
         operator="in"
         in2="SourceGraphic"
         in="colormatrix2" />
    </filter>
  </defs>
  <sodipodi:namedview
     pagecolor="#ffffff"
     bordercolor="#666666"
     borderopacity="1"
     objecttolerance="10"
     gridtolerance="10"
     guidetolerance="10"
     inkscape:pageopacity="0"
     inkscape:pageshadow="2"
     inkscape:window-width="1920"
     inkscape:window-height="986"
     id="namedview4"
     showgrid="false"
     inkscape:zoom="1.3037282"
     inkscape:cx="25.875656"
     inkscape:cy="68.33883"
     inkscape:window-x="0"
     inkscape:window-y="0"
     inkscape:window-maximized="1"
     inkscape:current-layer="svg2" />
  <circle
     style="opacity:1;fill:url(#linearGradient825);fill-opacity:1;stroke:none;stroke-width:0.78699166;stroke-linecap:round;stroke-linejoin:round;stroke-miterlimit:4;stroke-dasharray:none;stroke-opacity:1"
     id="path817"
     cx="63.591888"
     cy="64.286316"
     r="61.380009" />
  <circle
     r="55.089832"
     cy="64.286316"
     cx="63.591888"
     id="circle827"
     style="opacity:1;fill:url(#linearGradient835);fill-opacity:1;stroke:none;stroke-width:0.70634133;stroke-linecap:round;stroke-linejoin:round;stroke-miterlimit:4;stroke-dasharray:none;stroke-opacity:1" />
  <path
     style="fill:#ffffff"
     d="M 37.617725,82.29741 V 79.413268 H 30.40737 23.197013 V 73.591398 67.76953 L 22.25639,67.147143 c -2.940425,-1.945603 -2.375469,-6.551054 0.938657,-7.65183 1.164279,-0.386712 2.345054,-0.297601 3.506458,0.264625 2.854145,1.381668 3.007491,5.7352 0.262127,7.441812 l -0.882477,0.548578 v 4.3894 4.389397 h 5.768285 5.768285 v -2.884142 -2.884142 h 5.047249 5.047249 V 64.217936 57.67503 L 46.7716,57.052645 c -2.940425,-1.945603 -2.375468,-6.551054 0.938658,-7.65183 1.16428,-0.386711 2.345053,-0.297601 3.506458,0.264626 2.854145,1.381668 3.007492,5.735199 0.262126,7.441811 l -0.882477,0.548579 v 6.552506 6.552504 h 5.768285 5.768284 l -0.0046,-9.508657 -0.0046,-9.508657 -0.719768,-0.331914 c -0.395871,-0.182553 -0.930539,-0.608249 -1.188147,-0.945993 -2.380615,-3.121147 -0.02173,-7.447707 3.843085,-7.048823 2.831284,0.292214 4.495179,3.01196 3.546324,5.796698 -0.330034,0.968598 -1.430195,2.188382 -2.132818,2.36473 l -0.455233,0.114256 v 9.53418 9.53418 h 5.768285 5.768284 V 64.217936 57.67503 l -0.940623,-0.622385 c -2.940425,-1.945603 -2.375468,-6.551054 0.938659,-7.65183 1.164279,-0.386711 2.345052,-0.297601 3.506456,0.264626 2.854146,1.381668 3.007492,5.735199 0.262128,7.441811 l -0.882477,0.548579 v 6.552506 6.552504 h 5.047248 5.04725 v 2.884142 2.884142 h 5.768284 5.768289 v -4.486929 -4.486931 l -0.45524,-0.114258 c -1.159599,-0.29104 -2.428909,-2.324165 -2.428909,-3.890522 0,-2.336586 1.989629,-4.326213 4.326209,-4.326213 2.33659,0 4.32622,1.989627 4.32622,4.326213 0,1.566357 -1.26931,3.599482 -2.42892,3.890522 l -0.45523,0.114258 v 5.929001 5.929002 h -7.210349 -7.210354 v 2.884142 2.884142 H 63.575106 37.617825 Z m 49.03042,-4.326213 V 73.644983 H 63.575006 40.501868 v 4.326214 4.326213 h 23.073138 23.073139 z m -42.81968,0.999616 c -0.894121,-0.894118 -0.260551,-2.441688 0.999616,-2.441688 0.351211,0 0.720715,0.163552 0.999617,0.442455 0.278903,0.278902 0.442454,0.648406 0.442454,0.999617 0,0.351211 -0.163551,0.720715 -0.442454,0.999616 -0.278902,0.278904 -0.648406,0.442455 -0.999617,0.442455 -0.351211,0 -0.720715,-0.163551 -0.999616,-0.442455 z m 5.768284,0 c -0.89412,-0.894118 -0.26055,-2.441688 0.999616,-2.441688 0.351211,0 0.720715,0.163552 0.999618,0.442455 0.278903,0.278902 0.442454,0.648406 0.442454,0.999617 0,0.351211 -0.163551,0.720715 -0.442454,0.999616 -0.278903,0.278904 -0.648407,0.442455 -0.999618,0.442455 -0.351211,0 -0.720714,-0.163551 -0.999616,-0.442455 z m 5.768285,0 c -0.89412,-0.894118 -0.26055,-2.441688 0.999616,-2.441688 0.351211,0 0.720715,0.163552 0.999617,0.442455 0.278903,0.278902 0.442454,0.648406 0.442454,0.999617 0,0.351211 -0.163551,0.720715 -0.442454,0.999616 -0.278902,0.278904 -0.648406,0.442455 -0.999617,0.442455 -0.351211,0 -0.720714,-0.163551 -0.999616,-0.442455 z M 25.638701,64.550102 c 0.894119,-0.894118 0.26055,-2.441688 -0.999617,-2.441688 -0.741062,0 -1.442071,0.701009 -1.442071,1.442071 0,0.741063 0.701009,1.442071 1.442071,1.442071 0.351211,0 0.720714,-0.16355 0.999617,-0.442454 z m 77.871839,0 c 0.89412,-0.894118 0.26055,-2.441688 -0.99962,-2.441688 -0.74106,0 -1.44206,0.701009 -1.44206,1.442071 0,0.741063 0.701,1.442071 1.44206,1.442071 0.35122,0 0.72072,-0.16355 0.99962,-0.442454 z M 50.153911,54.455605 c 0.89412,-0.894119 0.26055,-2.441689 -0.999616,-2.441689 -0.351211,0 -0.720715,0.16355 -0.999618,0.442453 -0.278903,0.278904 -0.442454,0.648407 -0.442454,0.999618 0,0.351211 0.163551,0.720715 0.442454,0.999618 0.278903,0.278903 0.648407,0.442453 0.999618,0.442453 0.351211,0 0.720714,-0.16355 0.999616,-0.442453 z m 28.841423,0 c 0.89412,-0.894119 0.26055,-2.441689 -0.999617,-2.441689 -0.741062,0 -1.442071,0.701009 -1.442071,1.442071 0,0.741063 0.701009,1.442071 1.442071,1.442071 0.351211,0 0.720715,-0.16355 0.999617,-0.442453 z M 64.574622,48.68732 c 0.894121,-0.894119 0.260551,-2.441689 -0.999616,-2.441689 -0.351211,0 -0.720715,0.163551 -0.999616,0.442454 -0.894121,0.894119 -0.260551,2.441689 0.999616,2.441689 0.351211,0 0.720715,-0.163551 0.999616,-0.442454 z"
     id="path3398-3"
     inkscape:connector-curvature="0"
     sodipodi:nodetypes="ccccccsssscccccccccccsssscccccccssssscccccccsssscccccccccccssssscccccccccccccccccccssssssssssssssssssssssssssssssssssssssssssssssss" />
</svg>
