<?xml version="1.0" encoding="UTF-8" standalone="no"?>
<svg
   xmlns:dc="http://purl.org/dc/elements/1.1/"
   xmlns:cc="http://creativecommons.org/ns#"
   xmlns:rdf="http://www.w3.org/1999/02/22-rdf-syntax-ns#"
   xmlns:svg="http://www.w3.org/2000/svg"
   xmlns="http://www.w3.org/2000/svg"
   xmlns:xlink="http://www.w3.org/1999/xlink"
   xmlns:sodipodi="http://sodipodi.sourceforge.net/DTD/sodipodi-0.dtd"
   xmlns:inkscape="http://www.inkscape.org/namespaces/inkscape"
   height="128"
   width="128"
   version="1.1"
   id="svg444"
   sodipodi:docname="com.github.bcedu.valasimplehttpserver.svg"
   inkscape:version="0.92.4 5da689c313, 2019-01-14">
  <metadata
     id="metadata450">
    <rdf:RDF>
      <cc:Work
         rdf:about="">
        <dc:format>image/svg+xml</dc:format>
        <dc:type
           rdf:resource="http://purl.org/dc/dcmitype/StillImage" />
        <dc:title></dc:title>
      </cc:Work>
    </rdf:RDF>
  </metadata>
  <defs
     id="defs448">
    <linearGradient
       inkscape:collect="always"
       id="linearGradient1197">
      <stop
         style="stop-color:#bb7dff;stop-opacity:1"
         offset="0"
         id="stop1193" />
      <stop
         style="stop-color:#7c4eea;stop-opacity:1"
         offset="1"
         id="stop1195" />
    </linearGradient>
    <radialGradient
       id="a-3"
       gradientUnits="userSpaceOnUse"
       cy="43.5"
       cx="4.993"
       gradientTransform="matrix(2.0038,0,0,1.4,27.988,-17.4)"
       r="2.5">
      <stop
         stop-color="#181818"
         offset="0"
         id="stop1114" />
      <stop
         stop-color="#181818"
         stop-opacity="0"
         offset="1"
         id="stop1116" />
    </radialGradient>
    <radialGradient
       id="b-6"
       gradientUnits="userSpaceOnUse"
       cy="43.5"
       cx="4.993"
       gradientTransform="matrix(2.0038,0,0,1.4,-20.012,-104.4)"
       r="2.5">
      <stop
         stop-color="#181818"
         offset="0"
         id="stop1119" />
      <stop
         stop-color="#181818"
         stop-opacity="0"
         offset="1"
         id="stop1121" />
    </radialGradient>
    <linearGradient
       id="c-5"
       y2="39.999"
       gradientUnits="userSpaceOnUse"
       x2="25.058"
       y1="47.028"
       x1="25.058">
      <stop
         stop-color="#181818"
         stop-opacity="0"
         offset="0"
         id="stop1124" />
      <stop
         stop-color="#181818"
         offset=".5"
         id="stop1126" />
      <stop
         stop-color="#181818"
         stop-opacity="0"
         offset="1"
         id="stop1128" />
    </linearGradient>
    <linearGradient
       id="e-7"
       y2="43"
       gradientUnits="userSpaceOnUse"
       x2="24"
       gradientTransform="matrix(1.4324,0,0,1.4363,-2.378,-2.47)"
       y1="5"
       x1="24">
      <stop
         stop-color="#fff"
         offset="0"
         id="stop1131" />
      <stop
         stop-color="#fff"
         stop-opacity=".235"
         offset=".063"
         id="stop1133" />
      <stop
         stop-color="#fff"
         stop-opacity=".157"
         offset=".951"
         id="stop1135" />
      <stop
         stop-color="#fff"
         stop-opacity=".392"
         offset="1"
         id="stop1137" />
    </linearGradient>
    <radialGradient
       id="d-7"
       fx="6.2"
       gradientUnits="userSpaceOnUse"
       cy="9.957"
       cx="6.73"
       gradientTransform="matrix(0,13.394,-16.444,0,196.9,-114.89)"
       r="12.672">
      <stop
         stop-color="#bd94e7"
         offset="0"
         id="stop1140" />
      <stop
         stop-color="#7b6ca3"
         offset=".262"
         id="stop1142" />
      <stop
         stop-color="#574a76"
         offset=".705"
         id="stop1144" />
      <stop
         stop-color="#3f3654"
         offset="1"
         id="stop1146" />
    </radialGradient>
    <clipPath
       id="clipPath5025"
       clipPathUnits="userSpaceOnUse">
      <g
         inkscape:label="Clip"
         id="use5027">
        <rect
           y="37.601917"
           x="-2.6091127"
           height="32.53717"
           width="27.779377"
           id="rect5029"
           style="opacity:0.98000004;fill:#685d80;fill-opacity:1;stroke:#f9f9f9;stroke-width:0;stroke-miterlimit:4;stroke-dasharray:none;stroke-opacity:1" />
      </g>
    </clipPath>
    <clipPath
       id="clipPath5494"
       clipPathUnits="userSpaceOnUse">
      <rect
         y="-7.7317243"
         x="-2.7109578"
         height="50.296413"
         width="68.96933"
         id="rect5496"
         style="opacity:0.98000004;fill:#695c89;fill-opacity:1;stroke:#aa0000;stroke-width:0;stroke-miterlimit:4;stroke-dasharray:none;stroke-opacity:1" />
    </clipPath>
    <clipPath
       id="clipPath6207"
       clipPathUnits="userSpaceOnUse">
      <rect
         y="-7.7317243"
         x="-2.7109578"
         height="50.296413"
         width="68.065804"
         id="rect6209"
         style="opacity:0.98000004;fill:#695c89;fill-opacity:1;stroke:#aa0000;stroke-width:0;stroke-miterlimit:4;stroke-dasharray:none;stroke-opacity:1" />
    </clipPath>
    <clipPath
       id="clipPath6207-7"
       clipPathUnits="userSpaceOnUse">
      <rect
         y="-7.7317243"
         x="-2.7109578"
         height="50.296413"
         width="68.065804"
         id="rect6209-0"
         style="opacity:0.98000004;fill:#695c89;fill-opacity:1;stroke:#aa0000;stroke-width:0;stroke-miterlimit:4;stroke-dasharray:none;stroke-opacity:1" />
    </clipPath>
    <linearGradient
       inkscape:collect="always"
       xlink:href="#linearGradient1197"
       id="linearGradient1199"
       x1="30.014154"
       y1="25.305775"
       x2="90.509758"
       y2="102.05154"
       gradientUnits="userSpaceOnUse" />
  </defs>
  <sodipodi:namedview
     pagecolor="#ffffff"
     bordercolor="#666666"
     borderopacity="1"
     objecttolerance="10"
     gridtolerance="10"
     guidetolerance="10"
     inkscape:pageopacity="0"
     inkscape:pageshadow="2"
     inkscape:window-width="1920"
     inkscape:window-height="1031"
     id="namedview446"
     showgrid="false"
     inkscape:zoom="3.6875"
     inkscape:cx="75.974774"
     inkscape:cy="66.327615"
     inkscape:window-x="0"
     inkscape:window-y="26"
     inkscape:window-maximized="1"
     inkscape:current-layer="svg444" />
  <linearGradient
     id="a"
     gradientUnits="userSpaceOnUse"
     x1="23.42582167407"
     x2="23.0660823924"
     xlink:href="#b"
     y1="18.30644666985"
     y2="18.6661837706"
     gradientTransform="matrix(2.7789894,0,0,2.7789894,-3.068558,0.45374287)" />
  <linearGradient
     id="b">
    <stop
       offset="0"
       stop-color="#fff"
       id="stop3" />
    <stop
       offset="1"
       stop-color="#fff"
       stop-opacity="0"
       id="stop5" />
  </linearGradient>
  <linearGradient
     id="c"
     gradientUnits="userSpaceOnUse"
     x1="21.82600389068"
     x2="15.48754689411"
     xlink:href="#b"
     y1="20.09389311534"
     y2="26.83266813693"
     gradientTransform="matrix(2.7789894,0,0,2.7789894,-3.068558,0.45374287)" />
  <linearGradient
     id="d"
     gradientUnits="userSpaceOnUse"
     x1="22.37630489068"
     x2="16.03784789411"
     xlink:href="#b"
     y1="20.50433311534"
     y2="27.24310813693"
     gradientTransform="matrix(2.7789894,0,0,2.7789894,-3.068558,0.45374287)" />
  <linearGradient
     id="e"
     gradientUnits="userSpaceOnUse"
     x1="15.46443376357"
     x2="14.75675512091"
     xlink:href="#b"
     y1="28.2611408071"
     y2="28.07241768174"
     gradientTransform="matrix(2.7789894,0,0,2.7789894,-3.068558,0.45374287)" />
  <linearGradient
     id="f"
     gradientTransform="matrix(0.4551186,-0.90179262,0.90179262,0.4551186,-852.91511,-363.9558)"
     gradientUnits="userSpaceOnUse"
     x1="40.749557"
     x2="30.932852"
     xlink:href="#b"
     y1="1001.4427"
     y2="1010.2888" />
  <linearGradient
     id="g"
     gradientTransform="matrix(0.4551186,-0.90179262,0.90179262,0.4551186,-843.60639,-347.53073)"
     gradientUnits="userSpaceOnUse"
     x1="40.749557"
     x2="30.932852"
     xlink:href="#b"
     y1="1001.4427"
     y2="1010.2888" />
  <filter
     id="h"
     color-interpolation-filters="sRGB"
     height="1.113"
     width="1.127924"
     x="-.063962"
     y="-.0565">
    <feGaussianBlur
       stdDeviation="2.1746765"
       id="feGaussianBlur13" />
  </filter>
  <linearGradient
     id="i"
     gradientUnits="userSpaceOnUse"
     x1="372.06885"
     x2="387.12045"
     y1="947.00079"
     y2="947.00079">
    <stop
       offset="0"
       stop-color="#828398"
       id="stop16" />
    <stop
       offset=".05013223"
       stop-color="#4f4e50"
       id="stop18" />
    <stop
       offset=".14024317"
       stop-color="#e8e5eb"
       id="stop20" />
    <stop
       offset=".23170672"
       stop-color="#e9d3d9"
       stop-opacity=".941176"
       id="stop22" />
    <stop
       offset=".76219523"
       stop-color="#c4c2c7"
       id="stop24" />
    <stop
       offset=".86999255"
       stop-color="#f4f1fa"
       id="stop26" />
    <stop
       offset=".93410021"
       stop-color="#b8b8bf"
       id="stop28" />
    <stop
       offset="1"
       stop-color="#c1bfcc"
       id="stop30" />
  </linearGradient>
  <linearGradient
     id="j"
     gradientUnits="userSpaceOnUse"
     x1="368.21414"
     x2="394.8298"
     y1="1018.9549"
     y2="1018.5878">
    <stop
       offset="0"
       stop-color="#130804"
       id="stop33" />
    <stop
       offset=".16970721"
       stop-color="#0f0704"
       id="stop35" />
    <stop
       offset=".23766069"
       stop-color="#323033"
       id="stop37" />
    <stop
       offset=".71842611"
       stop-color="#323033"
       id="stop39" />
    <stop
       offset=".84821641"
       stop-color="#141215"
       id="stop41" />
    <stop
       offset="1"
       stop-color="#00010e"
       id="stop43" />
  </linearGradient>
  <linearGradient
     id="k"
     gradientUnits="userSpaceOnUse"
     x1="367.84705"
     x2="372.25238"
     y1="904.78284"
     y2="917.9989">
    <stop
       offset="0"
       stop-color="#2d2d39"
       id="stop46" />
    <stop
       offset="1"
       stop-color="#acabb0"
       id="stop48" />
  </linearGradient>
  <linearGradient
     id="l"
     gradientUnits="userSpaceOnUse"
     x1="389.50668"
     x2="414.05841"
     y1="902.21301"
     y2="908.79163">
    <stop
       offset="0"
       stop-color="#59585d"
       id="stop51" />
    <stop
       offset=".19257796"
       stop-color="#010103"
       id="stop53" />
    <stop
       offset=".54332471"
       stop-color="#5b5b5d"
       id="stop55" />
    <stop
       offset="1"
       stop-color="#171719"
       id="stop57" />
  </linearGradient>
  <linearGradient
     id="m"
     gradientUnits="userSpaceOnUse"
     x1="-353.81839"
     x2="-353.81839"
     y1="903.40106"
     y2="883.11084">
    <stop
       offset="0"
       stop-color="#202024"
       id="stop60" />
    <stop
       offset=".3368493"
       stop-color="#919095"
       id="stop62" />
    <stop
       offset=".53881687"
       stop-color="#4e4d51"
       id="stop64" />
    <stop
       offset=".69465232"
       stop-color="#cfcfd1"
       id="stop66" />
    <stop
       offset="1"
       stop-color="#69696b"
       id="stop68" />
  </linearGradient>
  <linearGradient
     id="n"
     gradientUnits="userSpaceOnUse"
     x1="338.84512"
     x2="338.84512"
     y1="903.66016"
     y2="883.85742">
    <stop
       offset="0"
       stop-color="#181820"
       id="stop71" />
    <stop
       offset=".03511503"
       stop-color="#86858a"
       id="stop73" />
    <stop
       offset=".14091089"
       stop-color="#7a797e"
       id="stop75" />
    <stop
       offset=".19626147"
       stop-color="#2f2e33"
       id="stop77" />
    <stop
       offset=".33304867"
       stop-color="#414045"
       id="stop79" />
    <stop
       offset=".43142435"
       stop-color="#545358"
       id="stop81" />
    <stop
       offset=".56074804"
       stop-color="#ebeaf0"
       id="stop83" />
    <stop
       offset=".69158942"
       stop-color="#abaaaf"
       id="stop85" />
    <stop
       offset=".85981399"
       stop-color="#d7d6dc"
       id="stop87" />
    <stop
       offset="1"
       stop-color="#66656a"
       id="stop89" />
  </linearGradient>
  <linearGradient
     id="o"
     gradientUnits="userSpaceOnUse"
     x1="367.84705"
     x2="415.57172"
     y1="-67.365196"
     y2="-50.845123">
    <stop
       offset="0"
       stop-color="#c7c6cb"
       id="stop92" />
    <stop
       offset=".54332471"
       stop-color="#fcfcfd"
       id="stop94" />
    <stop
       offset="1"
       stop-color="#d8d8da"
       id="stop96" />
  </linearGradient>
  <filter
     id="p"
     color-interpolation-filters="sRGB"
     height="1.272905"
     width="1.039886"
     x="-.019943"
     y="-.136453">
    <feGaussianBlur
       stdDeviation=".19828681"
       id="feGaussianBlur99" />
  </filter>
  <radialGradient
     id="q"
     cx="23.896"
     cy="3.99"
     gradientTransform="matrix(0,8.3696538,-11.047885,0,106.37671,-200.07712)"
     gradientUnits="userSpaceOnUse"
     r="20.396999">
    <stop
       offset="0"
       stop-color="#fff"
       id="stop102" />
    <stop
       offset=".26238"
       stop-color="#ddd"
       id="stop104" />
    <stop
       offset=".66094"
       stop-color="#abacae"
       id="stop106" />
    <stop
       offset="1"
       stop-color="#89898b"
       id="stop108" />
  </radialGradient>
  <filter
     id="r"
     color-interpolation-filters="sRGB"
     height="1.072"
     width="1.072"
     x="-.036"
     y="-.036">
    <feGaussianBlur
       stdDeviation=".60996385"
       id="feGaussianBlur111" />
  </filter>
  <path
     inkscape:connector-curvature="0"
     id="path114"
     style="fill:none;stroke:#292929;stroke-width:1.98107898;stroke-linecap:round;stroke-linejoin:round;stroke-opacity:0.15969603;filter:url(#r)"
     d="m 43.853058,23.462015 c 0,11.229591 -9.102537,20.332129 -20.332128,20.332129 -11.229591,0 -20.3321284,-9.102538 -20.3321284,-20.332129 0,-11.22959 9.1025374,-20.3321277 20.3321284,-20.3321277 11.229591,0 20.332128,9.1025377 20.332128,20.3321277 z"
     transform="matrix(2.7789894,0,0,2.7789894,-3.068558,-4.640677)" />
  <path
     inkscape:connector-curvature="0"
     style="fill:url(#q);stroke-width:2.89757729"
     id="path116"
     d="m 62.295857,1.1596689 c -32.774503,0 -59.4003469,26.6258421 -59.4003469,59.4003451 0,32.774503 26.6258439,59.400346 59.4003469,59.400346 32.774504,0 59.400343,-26.625843 59.400343,-59.400346 0,-32.774503 -26.625839,-59.4003451 -59.400343,-59.4003451 z" />
  <path
     style="fill:url(#linearGradient1199);stroke-width:2.89757729;fill-opacity:1"
     inkscape:connector-curvature="0"
     id="path118"
     d="m 62.295857,1.1596689 c -32.774503,0 -59.4003469,26.6258421 -59.4003469,59.4003451 0,32.774503 26.6258439,59.400346 59.4003469,59.400346 32.774504,0 59.400343,-26.625843 59.400343,-59.400346 0,-32.774503 -26.625839,-59.4003451 -59.400343,-59.4003451 z" />
  <path
     style="fill:none;stroke:#ffffff;stroke-width:5.50539732;stroke-linecap:round;stroke-linejoin:round"
     inkscape:connector-curvature="0"
     id="path120"
     d="m 118.79863,60.560014 c 0,31.206914 -25.295858,56.502766 -56.502773,56.502766 -31.206914,0 -56.5027692,-25.295852 -56.5027692,-56.502766 0,-31.206912 25.2958552,-56.5027674 56.5027692,-56.5027674 31.206915,0 56.502773,25.2958554 56.502773,56.5027674 z" />
  <path
     style="fill:none;stroke:#fbfbfb;stroke-width:0.57951653;stroke-linecap:round;stroke-linejoin:round"
     inkscape:connector-curvature="0"
     id="path122"
     d="m 62.295857,1.1599587 c -32.774503,0 -59.4003469,26.6252633 -59.4003469,59.4003443 0,32.775084 26.6252629,59.400347 59.4003469,59.400347 32.775084,0 59.400343,-26.625263 59.400343,-59.400347 0,-32.775081 -26.625839,-59.4003443 -59.400343,-59.4003443 z" />
  <g
     id="svgg"
     transform="matrix(0.19681449,0,0,0.19681449,22.956838,31.056788)"
     style="fill:#ffffff;fill-opacity:1">
    <path
       d="m 227.2,0.377 c -0.189,0.189 -0.343,0.485 -0.343,0.658 0.001,0.207 -1.135,0.283 -3.3,0.222 -2.044,-0.058 -3.302,0.019 -3.302,0.203 0,0.932 -0.974,1.241 -3.912,1.241 -2.661,0 -3.002,0.062 -3.29,0.6 -0.261,0.488 -0.628,0.6 -1.961,0.6 -1.549,0 -1.64,0.041 -1.64,0.75 0,0.724 -0.069,0.75 -1.96,0.75 -1.465,0 -2.003,0.114 -2.132,0.45 -0.12,0.314 -0.609,0.451 -1.604,0.451 -1.441,0 -2.356,0.553 -1.964,1.187 0.161,0.26 -1.614,0.5 -2.606,0.352 -0.118,-0.017 -0.153,0.135 -0.079,0.34 0.288,0.784 -0.284,1.135 -1.254,0.769 -1.065,-0.403 -2.338,-0.109 -1.596,0.368 0.388,0.25 0.387,0.32 -0.008,0.573 -0.327,0.211 -0.505,0.15 -0.654,-0.225 -0.19,-0.479 -0.205,-0.479 -0.225,0.011 -0.014,0.357 -0.266,0.526 -0.785,0.526 -0.436,0 -0.742,0.16 -0.714,0.375 0.097,0.751 -0.032,1.025 -0.486,1.025 -0.298,0 -0.398,-0.169 -0.282,-0.475 0.145,-0.381 0.106,-0.401 -0.197,-0.1 -0.208,0.206 -0.627,0.375 -0.931,0.375 -0.304,0 -0.532,0.169 -0.505,0.375 0.104,0.796 -0.04,1.125 -0.49,1.125 -0.257,0 -0.384,-0.135 -0.282,-0.3 0.372,-0.602 -0.41,-0.278 -1.267,0.525 -0.535,0.501 -1.137,0.788 -1.533,0.73 -0.665,-0.098 -1.551,0.544 -1.551,1.124 0,0.177 -0.33,0.322 -0.733,0.322 -0.403,0 -0.811,0.126 -0.906,0.281 -0.098,0.159 0.158,0.221 0.589,0.143 l 0.764,-0.138 -0.607,0.607 c -0.379,0.378 -1.004,0.607 -1.658,0.607 -0.698,0 -1.05,0.141 -1.05,0.418 0,0.413 -0.499,0.741 -1.016,0.669 -0.146,-0.02 -0.384,0.281 -0.527,0.67 -0.144,0.389 -0.43,0.643 -0.635,0.565 -0.59,-0.225 -1.723,0.314 -1.723,0.819 0,0.253 -0.18,0.46 -0.4,0.46 -0.219,0 -0.58,0.338 -0.801,0.75 -0.22,0.413 -0.581,0.75 -0.8,0.75 -0.22,0 -0.4,0.203 -0.4,0.451 0,0.311 -0.313,0.45 -1.013,0.45 -0.906,0 -1.892,0.595 -1.551,0.936 0.072,0.072 -0.267,0.397 -0.752,0.723 -0.486,0.325 -0.884,0.76 -0.884,0.966 -0.001,0.207 -0.203,0.375 -0.451,0.375 -0.248,0 -0.45,0.203 -0.45,0.451 0,0.247 -0.18,0.45 -0.4,0.45 -0.219,0 -0.58,0.337 -0.8,0.75 -0.221,0.412 -0.582,0.75 -0.801,0.75 -0.22,0 -0.4,0.109 -0.4,0.241 0,0.385 -1.996,2.46 -2.366,2.46 -0.184,0 -0.334,0.202 -0.334,0.45 0,0.247 -0.13,0.45 -0.287,0.45 -0.757,0 -3.614,3.321 -3.614,4.201 0,0.6 -0.15,0.9 -0.451,0.9 -0.247,0 -0.45,0.102 -0.45,0.225 0,0.353 -2.296,2.776 -2.631,2.776 -0.165,0 -0.37,0.27 -0.456,0.6 -0.087,0.33 -0.035,0.6 0.115,0.6 0.484,0 0.287,0.829 -0.253,1.066 -0.289,0.126 -0.627,0.208 -0.751,0.182 -0.123,-0.026 -0.225,0.155 -0.225,0.403 0,0.247 -0.138,0.45 -0.307,0.45 -0.169,0 -0.436,0.337 -0.593,0.75 -0.157,0.413 -0.431,0.75 -0.61,0.75 -0.179,0 -0.242,0.135 -0.14,0.3 0.102,0.165 0.054,0.3 -0.107,0.3 -0.161,0 -0.367,-0.168 -0.456,-0.375 -0.09,-0.206 -0.09,0.03 -0.001,0.525 0.125,0.691 0.088,0.796 -0.157,0.45 -0.268,-0.376 -0.321,-0.345 -0.325,0.189 -0.002,0.351 -0.205,0.805 -0.451,1.009 -0.246,0.204 -0.373,0.491 -0.283,0.637 0.091,0.146 0.022,0.266 -0.153,0.266 -0.175,0 -0.318,0.396 -0.318,0.88 0,0.616 -0.179,0.937 -0.6,1.07 -0.33,0.105 -0.6,0.452 -0.6,0.771 0,0.319 -0.135,0.58 -0.3,0.58 -0.165,0 -0.311,0.236 -0.324,0.525 -0.014,0.317 -0.084,0.376 -0.175,0.148 -0.2,-0.495 -0.701,-0.174 -0.701,0.449 0,1.371 -1.56,3.839 -1.887,2.986 -0.083,-0.217 -0.706,-0.56 -1.383,-0.763 -1.212,-0.363 -1.801,-1.164 -0.631,-0.858 0.33,0.087 0.525,0.035 0.433,-0.115 -0.093,-0.149 -0.701,-0.272 -1.351,-0.272 -0.961,0 -1.183,-0.106 -1.183,-0.568 0,-0.622 -0.556,-0.932 -1.675,-0.932 -0.441,0 -0.725,-0.174 -0.725,-0.444 0,-0.56 -1.569,-1.002 -1.739,-0.491 -0.185,0.553 -0.962,-0.206 -0.962,-0.94 0,-0.506 -0.141,-0.573 -0.889,-0.423 -0.878,0.176 -1.991,-0.47 -1.68,-0.974 0.115,-0.186 -0.885,-0.309 -3.358,-0.413 -0.206,-0.009 -0.312,-0.079 -0.235,-0.155 0.562,-0.563 -0.583,-1.261 -2.069,-1.261 -1.152,0 -1.656,-0.128 -1.78,-0.45 -0.137,-0.358 -0.778,-0.451 -3.129,-0.451 -2.779,0 -2.995,-0.044 -3.608,-0.75 -0.702,-0.807 -1.53,-0.946 -2.513,-0.42 -0.394,0.211 -0.547,0.218 -0.425,0.02 0.128,-0.207 -0.912,-0.309 -3.117,-0.305 -1.929,0.003 -3.237,0.12 -3.138,0.28 0.093,0.151 0.027,0.275 -0.148,0.275 -0.175,0 -0.318,-0.105 -0.318,-0.234 0,-0.333 -1.437,-0.411 -1.636,-0.089 -0.091,0.147 0.139,0.202 0.511,0.123 0.623,-0.133 0.635,-0.111 0.155,0.283 -0.287,0.235 -0.433,0.515 -0.325,0.622 0.107,0.108 -1.591,0.195 -3.774,0.195 -2.373,0 -3.899,0.113 -3.796,0.28 0.328,0.531 -0.551,0.72 -3.264,0.702 -2.32,-0.015 -2.605,0.034 -1.923,0.331 1.581,0.688 0.56,1.395 -1.71,1.183 -1.934,-0.181 -2.142,-0.086 -1.97,0.903 0.023,0.136 -0.096,0.161 -0.265,0.057 -0.169,-0.105 -0.307,-0.056 -0.307,0.109 0,0.171 -0.557,0.246 -1.305,0.176 -0.875,-0.082 -1.493,0.028 -1.876,0.336 -0.544,0.437 -0.541,0.443 0.085,0.141 0.949,-0.458 1.295,-0.392 1.295,0.249 0,0.595 -1.079,1.074 -1.367,0.607 -0.093,-0.15 -0.667,-0.254 -1.276,-0.231 -0.698,0.025 -0.858,0.089 -0.433,0.17 0.427,0.083 0.676,0.347 0.676,0.719 0,0.749 -0.741,1.039 -1.623,0.637 -0.622,-0.283 -0.672,-0.246 -0.546,0.413 0.26,1.36 -1.011,2.095 -2.03,1.173 -0.417,-0.378 -0.581,-0.385 -1.044,-0.046 -0.43,0.314 -0.464,0.455 -0.158,0.644 0.276,0.17 0.32,0.126 0.149,-0.15 -0.17,-0.277 -0.126,-0.321 0.149,-0.151 0.315,0.195 0.304,0.307 -0.06,0.573 -0.248,0.181 -0.544,0.621 -0.657,0.977 -0.261,0.824 -1.882,2.062 -2.965,2.265 -0.708,0.133 -0.806,0.072 -0.655,-0.404 0.26,-0.82 0.127,-0.736 -1.963,1.241 -1.047,0.99 -1.797,1.8 -1.666,1.8 0.132,0 0.072,0.201 -0.132,0.447 -0.204,0.246 -0.5,0.367 -0.657,0.27 -0.157,-0.097 -0.357,0.094 -0.444,0.426 -0.087,0.331 -0.425,0.672 -0.752,0.758 -0.327,0.085 -0.668,0.435 -0.758,0.778 -0.089,0.342 -0.349,0.622 -0.577,0.622 -0.229,0 -0.405,0.236 -0.392,0.525 0.014,0.317 0.084,0.376 0.176,0.148 0.299,-0.742 0.623,-0.064 0.427,0.894 -0.247,1.206 -1.548,2.036 -1.88,1.199 -0.191,-0.482 -0.206,-0.481 -0.226,0.01 -0.011,0.288 -0.14,0.525 -0.286,0.525 -0.592,0 -1.292,1.521 -0.911,1.98 0.424,0.511 -0.475,1.41 -1.165,1.166 -0.215,-0.076 -0.318,-0.02 -0.228,0.124 0.089,0.145 -0.038,0.428 -0.282,0.631 -0.244,0.202 -0.351,0.521 -0.239,0.709 0.113,0.188 -0.036,0.146 -0.33,-0.093 -0.466,-0.379 -0.526,-0.379 -0.472,0 0.178,1.238 -0.043,2.023 -0.609,2.171 -0.45,0.118 -0.6,0.41 -0.6,1.165 0,0.756 -0.168,1.08 -0.675,1.303 -0.603,0.265 -0.672,0.499 -0.645,2.195 0.027,1.708 -0.026,1.884 -0.525,1.753 -0.483,-0.126 -0.556,0.041 -0.556,1.261 0,1.356 -0.828,2.711 -1.343,2.196 -0.106,-0.106 -0.186,0.681 -0.178,1.75 0.023,2.91 -0.003,3.048 -0.509,2.628 -0.354,-0.294 -0.418,-0.228 -0.367,0.38 0.144,1.69 -0.071,2.636 -0.303,1.336 -0.121,-0.674 -0.234,1.718 -0.258,5.459 -0.027,4.292 0.067,6.727 0.267,6.85 0.801,0.495 -1.042,1.635 -2.653,1.64 -0.876,0.003 -1.524,0.116 -1.441,0.252 0.329,0.531 -1.048,1.253 -2.388,1.253 -0.834,0 -1.293,0.117 -1.179,0.3 0.102,0.165 0.042,0.3 -0.133,0.3 -0.174,0 -0.328,-0.168 -0.341,-0.375 -0.013,-0.206 -0.151,-0.03 -0.305,0.39 -0.231,0.627 -0.478,0.766 -1.362,0.766 -0.671,0 -1.222,0.193 -1.454,0.51 -0.246,0.337 -0.792,0.51 -1.611,0.51 -1.221,0 -2.575,0.75 -2.263,1.254 0.084,0.135 -0.409,0.246 -1.094,0.246 -0.994,0 -1.278,0.122 -1.403,0.6 -0.119,0.454 -0.409,0.601 -1.19,0.601 -0.568,0 -0.955,0.126 -0.859,0.281 0.243,0.393 -0.708,0.871 -1.381,0.695 -0.307,-0.081 -0.558,0.005 -0.558,0.189 0,0.184 -0.194,0.335 -0.432,0.335 -0.238,0 -0.515,0.133 -0.616,0.297 -0.105,0.17 0.016,0.22 0.286,0.116 0.329,-0.126 0.418,-0.046 0.297,0.267 -0.094,0.246 -0.398,0.43 -0.675,0.409 -0.277,-0.021 -0.639,0.265 -0.803,0.636 -0.222,0.501 -0.552,0.676 -1.279,0.676 -0.723,0 -0.985,0.137 -1.003,0.525 -0.013,0.294 -0.088,0.365 -0.171,0.161 -0.094,-0.232 -0.495,-0.015 -1.109,0.6 -0.63,0.632 -1.193,0.931 -1.631,0.868 -0.398,-0.057 -0.741,0.094 -0.849,0.373 -0.099,0.259 -0.334,0.377 -0.523,0.264 -0.189,-0.113 -0.159,0.023 0.068,0.302 0.352,0.434 0.347,0.507 -0.038,0.507 -0.635,0 -2.625,1.893 -2.625,2.497 0,0.304 -0.238,0.504 -0.6,0.504 -0.333,0 -0.6,0.2 -0.6,0.45 0,0.3 -0.3,0.45 -0.9,0.45 -0.495,0 -0.9,0.143 -0.9,0.318 0,0.175 0.135,0.235 0.3,0.133 0.165,-0.102 0.3,0.01 0.3,0.25 0,0.239 -0.237,0.526 -0.525,0.637 -0.58,0.223 -0.867,0.138 -0.748,-0.221 0.043,-0.129 -0.261,-0.012 -0.675,0.259 -0.911,0.597 -0.946,0.719 -0.148,0.511 0.464,-0.122 0.561,-0.046 0.419,0.326 -0.127,0.329 -0.404,0.429 -0.866,0.313 -0.497,-0.124 -0.842,0.037 -1.287,0.603 -0.334,0.425 -0.734,0.772 -0.889,0.772 -0.498,0 -1.191,1.579 -0.758,1.725 0.69,0.231 0.404,0.976 -0.375,0.976 -0.6,0 -0.75,0.15 -0.75,0.75 0,0.55 -0.16,0.75 -0.6,0.75 -0.333,0 -0.6,0.201 -0.6,0.451 0,0.247 -0.13,0.45 -0.289,0.45 -0.159,0 -0.8,0.521 -1.425,1.158 -0.626,0.638 -1.391,1.294 -1.701,1.459 -0.374,0.2 -0.45,0.371 -0.225,0.51 0.187,0.115 0.339,0.058 0.339,-0.127 0,-0.184 0.142,-0.248 0.315,-0.141 0.215,0.134 0.204,0.327 -0.034,0.615 -0.192,0.231 -0.469,0.346 -0.615,0.256 -0.146,-0.091 -0.266,0.181 -0.266,0.603 0,0.483 -0.167,0.768 -0.45,0.768 -0.248,0 -0.45,0.203 -0.45,0.45 0,0.248 -0.186,0.45 -0.414,0.45 -0.602,0 -1.162,0.791 -1.162,1.642 0,0.449 -0.282,0.924 -0.721,1.212 -0.56,0.367 -0.706,0.701 -0.652,1.499 0.083,1.229 -0.175,1.57 -0.795,1.055 -0.39,-0.324 -0.457,-0.263 -0.457,0.414 0,0.572 -0.211,0.875 -0.751,1.08 -0.563,0.214 -0.75,0.503 -0.75,1.161 0,0.501 -0.192,0.949 -0.45,1.048 -0.282,0.108 -0.45,0.567 -0.45,1.232 0,0.625 -0.148,1.06 -0.36,1.06 -0.28,0 -0.28,0.08 0,0.36 0.482,0.483 0.455,0.84 -0.065,0.84 -0.234,0 -0.493,0.169 -0.577,0.375 -0.083,0.207 -0.185,0.038 -0.226,-0.375 -0.042,-0.412 -0.154,0.128 -0.249,1.201 -0.099,1.11 -0.309,1.926 -0.489,1.895 -0.173,-0.03 -0.348,0.438 -0.389,1.041 -0.04,0.603 -0.217,1.185 -0.394,1.294 -0.209,0.13 -0.179,0.249 0.089,0.345 0.265,0.095 0.11,0.288 -0.441,0.546 -0.77,0.362 -0.841,0.522 -0.748,1.69 0.079,0.994 -0.002,1.292 -0.35,1.295 -0.4,0.004 -0.401,0.037 -0.004,0.289 0.385,0.243 0.364,0.345 -0.146,0.718 -0.328,0.24 -0.698,0.372 -0.824,0.295 -0.126,-0.078 -0.228,0.145 -0.228,0.494 0,0.35 0.12,0.561 0.267,0.47 0.154,-0.095 0.15,0.358 -0.009,1.067 -0.152,0.678 -0.2,1.476 -0.105,1.773 0.094,0.297 0.008,0.642 -0.192,0.765 -0.253,0.156 -0.303,0.066 -0.163,-0.297 0.148,-0.387 0.066,-0.495 -0.321,-0.42 -0.286,0.055 -0.567,0.338 -0.623,0.629 -0.056,0.292 0.03,0.493 0.192,0.447 0.161,-0.045 0.307,0.018 0.323,0.142 0.088,0.656 -0.018,0.79 -0.495,0.626 -0.434,-0.15 -0.421,-0.092 0.075,0.331 0.33,0.282 0.432,0.428 0.225,0.323 -0.558,-0.283 -0.484,2.101 0.094,2.982 0.585,0.894 0.329,2.532 -0.578,3.687 l -0.641,0.818 -0.185,-1.045 c -0.102,-0.575 -0.193,3.816 -0.202,9.758 -0.009,5.941 0.052,10.6 0.135,10.352 0.082,-0.247 0.206,-0.629 0.275,-0.847 0.099,-0.314 0.225,-0.298 0.597,0.074 0.995,0.995 1.408,4.248 0.58,4.566 -0.305,0.117 -0.443,0.573 -0.429,1.416 0.017,0.969 0.078,1.111 0.279,0.643 0.142,-0.33 0.268,-0.417 0.279,-0.194 0.012,0.224 0.359,0.673 0.772,0.997 0.866,0.682 0.925,1.139 0.301,2.346 -0.33,0.636 -0.372,1.073 -0.158,1.635 0.189,0.498 0.189,0.767 -10e-4,0.767 -0.161,0 -0.274,0.439 -0.252,0.975 0.03,0.706 0.077,0.789 0.171,0.3 0.135,-0.696 0.813,-0.872 1.555,-0.402 0.574,0.363 0.183,1.82 -0.497,1.851 -0.313,0.015 -0.37,0.084 -0.144,0.175 0.206,0.084 0.375,0.469 0.375,0.857 0,0.546 0.186,0.727 0.825,0.8 0.787,0.091 0.821,0.163 0.735,1.524 -0.068,1.073 0.025,1.473 0.375,1.608 0.344,0.132 0.467,0.621 0.47,1.872 0.003,0.931 0.104,1.543 0.225,1.36 0.715,-1.079 2.102,0.179 1.631,1.48 -0.401,1.11 -0.468,1.733 -0.13,1.216 0.298,-0.457 1.57,0.034 1.57,0.607 0,0.241 -0.23,0.668 -0.511,0.949 -0.481,0.482 -0.463,0.549 0.312,1.167 0.516,0.412 0.756,0.83 0.644,1.122 -0.105,0.273 0.015,0.54 0.288,0.645 0.257,0.099 0.468,0.327 0.468,0.507 0,0.18 -0.169,0.241 -0.375,0.137 -0.207,-0.105 -0.072,0.077 0.3,0.405 0.371,0.328 0.675,0.886 0.675,1.241 0,0.355 0.133,0.562 0.296,0.461 0.17,-0.104 0.221,0.015 0.119,0.28 -0.108,0.283 0.03,0.543 0.356,0.668 1.055,0.405 2.23,1.964 2.23,2.958 0,0.593 1.489,2.244 2.024,2.244 0.207,0 0.376,0.202 0.376,0.45 0,0.248 0.203,0.45 0.45,0.45 0.3,0 0.45,0.3 0.45,0.9 0,0.518 0.16,0.902 0.376,0.905 0.25,0.003 0.225,0.102 -0.075,0.296 -0.348,0.224 -0.251,0.292 0.425,0.295 0.481,0.003 0.79,0.09 0.685,0.194 -0.296,0.297 0.361,1.311 0.851,1.311 0.241,0 0.439,0.205 0.439,0.457 0,0.251 0.338,0.61 0.75,0.798 0.413,0.188 0.75,0.493 0.75,0.677 0,0.467 1.101,1.364 1.374,1.119 0.122,-0.11 0.129,-0.036 0.013,0.165 -0.121,0.21 0.05,0.527 0.402,0.747 0.337,0.211 0.612,0.553 0.612,0.76 0,0.208 0.188,0.378 0.418,0.378 0.23,0 0.496,0.203 0.591,0.45 0.095,0.248 0.358,0.451 0.584,0.451 0.226,0 0.565,0.337 0.753,0.75 0.205,0.45 0.591,0.75 0.966,0.75 0.344,0 0.541,0.135 0.439,0.3 -0.102,0.165 -0.042,0.3 0.132,0.3 0.175,0 0.284,0.169 0.243,0.375 -0.042,0.211 0.286,0.417 0.75,0.47 0.77,0.089 0.951,0.327 0.86,1.129 -0.022,0.193 0.327,0.27 0.864,0.191 0.496,-0.073 0.902,-0.003 0.902,0.155 0,0.158 0.673,0.989 1.496,1.847 0.823,0.858 1.409,1.334 1.302,1.056 -0.135,-0.352 -0.066,-0.459 0.23,-0.355 0.233,0.081 0.404,0.37 0.381,0.641 -0.031,0.37 0.217,0.493 0.993,0.493 0.569,0 0.958,0.124 0.864,0.276 -0.094,0.151 0.147,0.525 0.534,0.83 0.388,0.305 0.784,0.755 0.88,0.999 0.129,0.33 0.18,0.296 0.198,-0.13 0.025,-0.6 0.473,-0.388 0.475,0.225 10e-4,0.202 0.34,0.311 0.802,0.257 0.642,-0.075 0.82,0.044 0.899,0.6 0.079,0.559 0.311,0.711 1.193,0.785 0.786,0.065 1.137,0.256 1.247,0.675 0.12,0.458 0.416,0.584 1.381,0.584 0.892,0 1.228,0.123 1.228,0.45 0,0.248 0.211,0.45 0.468,0.45 0.258,0 0.385,0.135 0.283,0.3 -0.106,0.17 0.147,0.3 0.582,0.3 0.422,0 1.048,0.28 1.39,0.622 0.481,0.481 0.931,0.602 1.995,0.537 1.184,-0.073 1.408,0.007 1.619,0.579 0.213,0.574 0.467,0.663 1.899,0.663 1.432,0 1.719,0.1 2.145,0.75 0.402,0.614 0.733,0.75 1.828,0.75 0.789,0 1.522,0.185 1.788,0.45 0.319,0.32 1.098,0.45 2.679,0.45 2.05,0 2.229,0.05 2.229,0.618 0,0.34 0.135,0.535 0.3,0.433 0.165,-0.102 0.3,-0.059 0.3,0.095 0,0.154 1.351,0.304 3.001,0.333 1.692,0.029 3.001,-0.071 3.001,-0.229 0,-0.533 1.283,-0.611 2.439,-0.149 1.159,0.464 1.55,1 0.729,1 -0.237,0 -0.516,0.135 -0.618,0.3 -0.123,0.199 12.102,0.3 36.448,0.3 h 36.632 l -0.18,-0.718 c -0.14,-0.556 0.003,-0.843 0.632,-1.275 4.023,-2.763 4.016,-7.922 -0.013,-10.34 l -1.2,-0.72 -36.61,-0.158 c -36.27,-0.157 -36.638,-0.165 -39.76,-0.819 -4.963,-1.041 -8.437,-1.911 -9.902,-2.477 -0.743,-0.288 -2.363,-0.908 -3.601,-1.379 -23.707,-9.018 -41.259,-32.397 -43.232,-57.583 -0.496,-6.326 -0.056,-15.887 0.939,-20.405 0.534,-2.424 2.27,-8.266 2.988,-10.052 0.365,-0.908 0.864,-2.216 1.109,-2.907 4.093,-11.547 16.94,-25.603 30.244,-33.091 6.224,-3.503 17.567,-7.513 21.252,-7.513 1.178,0 2.356,-0.544 3.455,-1.594 2.035,-1.946 2.146,-2.653 1.35,-8.604 -2.531,-18.918 9.87,-38.729 27.957,-44.663 15.62,-5.125 30.321,-1.995 42.215,8.986 4.231,3.907 4.422,4.014 7.133,4.014 3.458,0 4.34,-0.787 6.22,-5.551 6.362,-16.121 18.873,-31.106 34.454,-41.264 3.415,-2.227 10.328,-5.793 13.654,-7.044 1.402,-0.528 2.955,-1.128 3.45,-1.334 0.496,-0.207 2.183,-0.743 3.751,-1.193 1.568,-0.45 3.459,-1.006 4.201,-1.235 0.743,-0.23 2.228,-0.562 3.301,-0.738 1.073,-0.175 2.828,-0.507 3.901,-0.738 4.572,-0.983 12.453,-1.475 17.555,-1.096 8.445,0.627 10.785,0.862 11.552,1.158 0.413,0.159 1.426,0.383 2.251,0.498 3.561,0.495 9.736,2.336 15.904,4.741 2.608,1.017 10.946,5.319 13.131,6.777 0.667,0.444 1.425,0.943 1.686,1.108 7.218,4.577 16.566,13.495 22.646,21.605 1.479,1.973 4.698,6.91 4.698,7.207 0,0.074 0.506,0.987 1.125,2.029 0.619,1.042 1.515,2.698 1.993,3.681 0.477,0.983 0.986,2.027 1.132,2.32 3.265,6.559 6.523,18.431 7.182,26.174 0.748,8.782 0.809,10.567 0.475,13.953 -0.74,7.518 0.441,10.053 5.029,10.8 2.847,0.463 9.184,2.403 13.2,4.041 5.259,2.145 9.657,4.723 16.075,9.423 4.58,3.353 12.219,11.567 14.841,15.958 0.637,1.066 1.332,2.144 1.544,2.394 0.921,1.087 5.184,9.996 6.028,12.598 3.604,11.108 4.382,17.026 3.707,28.207 -0.311,5.157 -0.607,7.13 -1.71,11.403 -0.234,0.907 -0.56,2.19 -0.724,2.85 -4.272,17.186 -20.847,36.099 -38.09,43.463 -2.17,0.928 -4.049,1.7 -5.851,2.405 -1.445,0.565 -6.043,1.722 -10.353,2.603 -2.54,0.52 -4.573,0.673 -10.502,0.788 -6.693,0.131 -7.46,0.2 -8.552,0.767 -4.787,2.484 -4.932,7.937 -0.282,10.619 0.371,0.214 0.547,0.609 0.504,1.131 l -0.067,0.802 6.743,-0.024 c 4.593,-0.016 6.807,-0.13 6.948,-0.357 0.131,-0.213 0.033,-0.267 -0.272,-0.15 -0.262,0.101 -0.626,0.004 -0.807,-0.214 -0.257,-0.31 -0.147,-0.444 0.495,-0.605 0.455,-0.114 0.863,-0.096 0.908,0.04 0.12,0.363 8.243,0.124 8.7,-0.256 0.277,-0.23 0.385,-0.22 0.385,0.035 0,0.195 0.15,0.262 0.333,0.149 0.231,-0.143 0.209,-0.281 -0.073,-0.455 -0.322,-0.2 -0.329,-0.326 -0.032,-0.623 0.297,-0.297 0.373,-0.287 0.373,0.047 0,0.327 0.08,0.341 0.36,0.061 0.211,-0.211 1.223,-0.361 2.442,-0.361 1.623,0 2.166,-0.113 2.46,-0.516 0.275,-0.376 0.717,-0.491 1.627,-0.425 1.023,0.073 1.378,-0.05 1.967,-0.685 0.572,-0.617 0.999,-0.774 2.103,-0.774 1.317,0 2.244,-0.476 2.244,-1.151 0,-0.161 0.268,-0.223 0.595,-0.138 0.958,0.251 2.045,-0.146 1.998,-0.728 -0.035,-0.43 0.219,-0.522 1.458,-0.528 1.265,-0.005 1.547,-0.112 1.797,-0.681 0.235,-0.537 0.541,-0.676 1.5,-0.68 0.888,-0.003 1.086,-0.081 0.754,-0.295 -0.327,-0.212 -0.343,-0.292 -0.057,-0.296 0.216,-0.002 0.309,-0.139 0.207,-0.304 -0.11,-0.179 0.247,-0.3 0.883,-0.3 0.587,0 1.046,-0.102 1.02,-0.226 -0.085,-0.4 0.403,-1.275 0.712,-1.275 0.165,0 0.218,0.236 0.117,0.525 -0.174,0.5 -0.163,0.5 0.226,0 0.225,-0.289 0.563,-0.525 0.751,-0.525 0.188,0 0.342,-0.255 0.342,-0.568 0,-0.312 0.203,-0.646 0.45,-0.741 0.248,-0.095 0.45,-0.042 0.45,0.118 0,0.16 0.212,0.291 0.472,0.291 0.539,0 1.329,-0.701 1.329,-1.179 0,-0.177 0.144,-0.321 0.321,-0.321 0.177,0 0.524,-0.203 0.772,-0.451 0.247,-0.247 0.744,-0.454 1.104,-0.459 0.7,-0.01 1.698,-0.635 1.713,-1.074 0.017,-0.47 1.446,-1.917 1.893,-1.917 0.238,0 0.413,-0.237 0.39,-0.526 -0.031,-0.388 0.223,-0.55 0.977,-0.622 1.028,-0.098 1.832,-0.639 1.832,-1.232 0,-0.176 0.202,-0.321 0.45,-0.321 0.248,0 0.45,-0.18 0.45,-0.399 0,-0.22 0.338,-0.581 0.75,-0.801 0.413,-0.221 0.751,-0.582 0.751,-0.801 0,-0.22 0.202,-0.4 0.45,-0.4 0.247,0 0.45,-0.202 0.45,-0.45 0,-0.247 0.139,-0.45 0.31,-0.45 0.408,0 2.218,-1.819 2.474,-2.485 0.11,-0.287 0.367,-0.486 0.572,-0.443 0.205,0.042 0.507,-0.218 0.672,-0.579 0.165,-0.362 0.54,-0.72 0.835,-0.797 0.652,-0.171 1.179,-1.411 0.8,-1.883 -0.169,-0.21 -0.1,-0.476 0.185,-0.712 0.249,-0.207 0.453,-0.301 0.453,-0.209 0,0.189 2.627,-2.366 3.269,-3.179 0.368,-0.468 0.356,-0.506 -0.106,-0.329 -0.891,0.342 -0.415,-0.879 0.517,-1.326 0.452,-0.217 0.821,-0.589 0.821,-0.827 0,-0.239 0.203,-0.434 0.451,-0.434 0.475,0 0.547,-0.244 0.459,-1.576 -0.03,-0.453 0.096,-0.825 0.281,-0.825 0.184,0 0.498,-0.136 0.698,-0.303 0.199,-0.167 0.746,-0.592 1.215,-0.944 0.683,-0.513 0.827,-0.819 0.721,-1.537 -0.101,-0.687 -0.002,-0.931 0.423,-1.042 0.374,-0.098 0.554,-0.421 0.554,-0.995 0,-0.495 0.32,-1.195 0.768,-1.679 0.423,-0.456 0.713,-1.041 0.646,-1.299 -0.068,-0.259 0.059,-0.641 0.281,-0.849 0.223,-0.208 0.415,-0.271 0.426,-0.141 0.071,0.789 0.541,-1.208 0.558,-2.368 0.017,-1.148 0.135,-1.442 0.643,-1.603 0.374,-0.119 0.557,-0.366 0.46,-0.62 -0.09,-0.233 -0.044,-0.423 0.1,-0.423 0.144,0 0.192,-0.27 0.106,-0.6 -0.101,-0.383 -0.009,-0.602 0.253,-0.605 0.343,-0.004 0.344,-0.046 0.004,-0.262 -0.498,-0.316 0.054,-1.571 0.64,-1.456 0.254,0.05 0.364,-0.445 0.36,-1.612 -0.004,-1.405 0.095,-1.729 0.601,-1.951 0.516,-0.227 0.618,-0.596 0.695,-2.513 0.058,-1.445 0.228,-2.324 0.478,-2.464 0.277,-0.155 0.406,-1.229 0.453,-3.752 0.05,-2.741 0.163,-3.591 0.503,-3.781 0.242,-0.135 0.362,-0.371 0.267,-0.524 -0.094,-0.153 0.038,-0.198 0.294,-0.1 0.415,0.159 0.465,-0.791 0.461,-8.63 -0.003,-5.799 -0.104,-8.656 -0.295,-8.359 -0.249,0.384 -0.292,0.373 -0.296,-0.075 -0.002,-0.289 -0.155,-0.526 -0.339,-0.526 -0.188,0 -0.266,-0.264 -0.179,-0.599 0.087,-0.33 0.029,-0.68 -0.128,-0.777 -0.157,-0.097 -0.261,-1.211 -0.231,-2.476 0.064,-2.744 -0.016,-3.133 -0.703,-3.415 -0.288,-0.118 -0.525,-0.43 -0.525,-0.693 0,-0.262 0.102,-0.414 0.225,-0.337 0.124,0.077 0.181,-0.948 0.126,-2.279 -0.096,-2.333 -0.438,-3.227 -1.235,-3.227 -0.2,0 -0.254,-0.294 -0.139,-0.752 0.294,-1.169 -0.106,-2.787 -0.677,-2.739 -0.267,0.022 -0.552,-0.147 -0.632,-0.377 -0.08,-0.229 -0.015,-0.335 0.146,-0.236 0.187,0.115 0.208,-0.358 0.057,-1.308 -0.274,-1.736 -0.45,-2.09 -1.039,-2.09 -0.405,0 -0.474,-0.2 -0.552,-1.598 -0.017,-0.301 -0.297,-0.743 -0.623,-0.982 -0.432,-0.317 -0.567,-0.716 -0.502,-1.478 0.05,-0.583 -0.048,-1.043 -0.224,-1.043 -0.173,0 -0.225,-0.235 -0.116,-0.525 0.168,-0.45 0.127,-0.469 -0.283,-0.136 -0.358,0.291 -0.534,0.302 -0.695,0.042 -0.118,-0.192 -0.029,-0.466 0.198,-0.61 0.3,-0.19 0.31,-0.264 0.039,-0.267 -0.231,-0.003 -0.379,-0.437 -0.385,-1.13 -0.009,-1.082 -0.028,-1.102 -0.49,-0.525 -0.379,0.472 -0.443,0.49 -0.304,0.084 0.098,-0.284 -0.012,-0.707 -0.245,-0.94 -0.233,-0.232 -0.34,-0.506 -0.237,-0.609 0.102,-0.102 -0.094,-0.185 -0.435,-0.185 -0.515,0 -0.62,-0.189 -0.62,-1.107 0,-0.847 -0.184,-1.241 -0.78,-1.676 -0.554,-0.403 -0.782,-0.844 -0.785,-1.518 -0.003,-0.724 -0.074,-0.843 -0.295,-0.501 -0.16,0.248 -0.31,0.349 -0.333,0.225 -0.108,-0.574 -0.162,-0.717 -0.514,-1.35 -0.206,-0.371 -0.512,-0.675 -0.679,-0.675 -0.525,0 -1.757,-1.628 -1.608,-2.126 0.149,-0.5 -4.831,-5.892 -5.312,-5.751 -0.237,0.069 -0.377,-0.362 -0.292,-0.9 0.019,-0.124 -0.175,-0.225 -0.432,-0.225 -0.258,0 -0.392,-0.124 -0.299,-0.275 0.094,-0.151 0,-0.343 -0.207,-0.426 -0.27,-0.109 -0.275,-0.159 -0.02,-0.176 0.197,-0.013 0.441,0.112 0.543,0.277 0.102,0.165 0.347,0.298 0.543,0.295 0.197,-0.003 -0.061,-0.374 -0.572,-0.825 -0.512,-0.452 -0.925,-0.956 -0.918,-1.121 0.007,-0.165 -0.373,-0.367 -0.845,-0.45 -0.473,-0.082 -0.926,-0.353 -1.007,-0.6 -0.132,-0.4 -0.085,-0.4 0.425,0 0.533,0.418 0.544,0.412 0.151,-0.088 -0.255,-0.325 -0.53,-0.429 -0.696,-0.263 -0.299,0.299 -1.726,-0.23 -1.729,-0.642 -0.002,-0.134 0.166,-0.141 0.372,-0.017 0.255,0.153 0.243,0.062 -0.036,-0.283 -0.227,-0.279 -0.584,-0.508 -0.794,-0.508 -0.209,0 -0.459,-0.202 -0.554,-0.45 -0.095,-0.247 -0.379,-0.45 -0.632,-0.45 -0.253,0 -0.459,-0.128 -0.459,-0.286 0,-0.448 -2.94,-3.273 -3.181,-3.057 -0.119,0.106 -0.11,0.009 0.02,-0.216 0.286,-0.493 -0.311,-0.931 -1.278,-0.937 -0.378,-0.003 -0.973,-0.27 -1.321,-0.595 -0.348,-0.324 -0.751,-0.517 -0.895,-0.427 -0.144,0.089 -0.243,0.05 -0.219,-0.086 0.133,-0.767 -0.115,-0.997 -1.078,-0.997 -0.734,0 -1.051,-0.136 -1.051,-0.451 0,-0.247 -0.188,-0.45 -0.418,-0.45 -0.23,0 -0.494,-0.2 -0.588,-0.445 -0.098,-0.253 -0.37,-0.368 -0.633,-0.268 -0.42,0.162 -0.611,-0.184 -0.489,-0.884 0.023,-0.136 -0.096,-0.162 -0.265,-0.058 -0.169,0.105 -0.307,0.047 -0.307,-0.127 0,-0.175 -0.212,-0.318 -0.472,-0.318 -0.259,0 -0.674,-0.203 -0.921,-0.45 -0.248,-0.248 -0.846,-0.45 -1.329,-0.45 -0.596,0 -0.879,-0.151 -0.879,-0.468 0,-0.258 -0.135,-0.385 -0.3,-0.283 -0.165,0.102 -0.3,0.043 -0.3,-0.132 0,-0.175 -0.396,-0.318 -0.879,-0.318 -0.579,0 -1.079,-0.255 -1.468,-0.75 -0.325,-0.412 -0.894,-0.75 -1.264,-0.75 -0.371,0 -0.828,-0.21 -1.016,-0.467 -0.195,-0.267 -1.083,-0.568 -2.07,-0.702 -0.95,-0.129 -1.892,-0.411 -2.092,-0.627 -0.289,-0.312 -0.277,-0.343 0.058,-0.152 0.282,0.161 0.351,0.126 0.207,-0.106 -0.119,-0.194 -0.938,-0.347 -1.853,-0.347 -1.457,0 -1.677,-0.083 -1.981,-0.75 -0.302,-0.664 -0.526,-0.75 -1.944,-0.75 h -1.602 v -7.184 c 0,-4.41 -0.115,-7.255 -0.297,-7.368 -0.175,-0.108 -0.217,0.024 -0.102,0.324 0.135,0.353 0.066,0.463 -0.229,0.364 -0.338,-0.114 -0.423,-1.022 -0.423,-4.524 0,-3.363 -0.097,-4.473 -0.419,-4.775 -0.346,-0.324 -0.379,-0.323 -0.193,0.004 0.186,0.329 0.117,0.33 -0.406,0.003 -0.661,-0.412 -0.862,-1.15 -0.314,-1.15 0.175,0 0.245,-0.117 0.156,-0.261 -0.088,-0.143 -0.187,-1.291 -0.22,-2.551 -0.032,-1.259 -0.178,-2.289 -0.324,-2.289 -0.146,0 -0.182,-0.135 -0.08,-0.3 0.102,-0.166 -0.025,-0.301 -0.282,-0.301 -0.356,0 -0.468,-0.329 -0.468,-1.368 0,-1.014 -0.097,-1.309 -0.375,-1.142 -0.298,0.179 -0.299,0.131 -0.007,-0.23 0.408,-0.504 -0.004,-1.161 -0.728,-1.161 -0.277,0 -0.391,-0.523 -0.391,-1.8 0,-1.619 -0.11,-1.866 -0.791,-1.775 -0.425,0.057 -0.7,-0.86 -0.704,-2.351 -0.004,-1.198 -0.113,-1.575 -0.455,-1.575 -0.313,0 -0.45,-0.315 -0.45,-1.034 0,-0.691 -0.198,-1.171 -0.598,-1.451 -0.341,-0.239 -0.645,-0.857 -0.709,-1.443 -0.07,-0.648 -0.292,-1.059 -0.602,-1.121 -0.288,-0.056 -0.492,-0.388 -0.492,-0.8 0,-1.098 -0.313,-1.653 -0.932,-1.653 -0.428,0 -0.568,-0.217 -0.568,-0.876 0,-1.178 -0.277,-1.825 -0.782,-1.825 -0.279,0 -0.418,-0.354 -0.418,-1.06 0,-0.735 -0.161,-1.119 -0.526,-1.253 -0.713,-0.263 -1.016,-0.777 -0.608,-1.029 0.539,-0.333 -0.594,-1.851 -1.205,-1.617 -0.272,0.104 -0.401,0.097 -0.289,-0.016 0.284,-0.284 -0.312,-1.326 -0.759,-1.327 -0.215,-0.001 -0.375,-0.454 -0.389,-1.109 -0.014,-0.609 -0.193,-1.164 -0.398,-1.232 -0.588,-0.196 -2.389,-2.099 -2.182,-2.306 0.103,-0.102 -0.012,-0.312 -0.255,-0.466 -0.299,-0.189 -0.32,-0.28 -0.066,-0.283 0.206,-0.003 0.375,-0.14 0.375,-0.305 0,-0.165 -0.248,-0.3 -0.552,-0.3 -0.304,0 -0.706,-0.338 -0.894,-0.75 -0.188,-0.413 -0.547,-0.75 -0.798,-0.75 -0.251,0 -0.457,-0.256 -0.457,-0.568 0,-0.313 -0.202,-0.646 -0.45,-0.741 -0.267,-0.103 -0.458,-0.573 -0.469,-1.158 -0.017,-0.866 -0.051,-0.906 -0.282,-0.332 -0.363,0.901 -1.499,0.608 -1.499,-0.387 0,-0.787 0.287,-0.908 0.84,-0.355 0.198,0.198 0.36,0.23 0.36,0.072 0,-0.371 -1.258,-1.187 -1.65,-1.071 -0.166,0.049 -0.21,-0.002 -0.1,-0.112 0.287,-0.287 -0.699,-1.355 -1.051,-1.138 -0.163,0.101 -0.197,0.026 -0.077,-0.168 0.12,-0.195 0.009,-0.427 -0.254,-0.528 -0.258,-0.099 -0.469,-0.368 -0.469,-0.598 0,-0.23 -0.132,-0.418 -0.294,-0.418 -0.161,0 -1.042,-0.749 -1.957,-1.664 -0.915,-0.915 -1.796,-1.582 -1.957,-1.483 -0.161,0.1 -0.293,-0.076 -0.293,-0.39 0,-0.617 -0.878,-1.565 -1.449,-1.565 -0.193,0 -0.352,-0.202 -0.352,-0.45 0,-0.247 -0.143,-0.45 -0.317,-0.45 -0.175,0 -0.227,0.148 -0.115,0.329 0.127,0.206 -0.006,0.284 -0.357,0.207 -0.309,-0.067 -0.527,-0.282 -0.486,-0.479 0.041,-0.196 -0.195,-0.357 -0.525,-0.357 -0.33,0 -0.861,-0.236 -1.179,-0.525 -1.117,-1.014 -1.513,-1.287 -2.297,-1.585 -0.663,-0.252 -0.77,-0.447 -0.66,-1.196 0.089,-0.609 0.004,-0.895 -0.267,-0.895 -0.219,0 -0.398,-0.207 -0.398,-0.459 0,-0.62 -0.722,-0.858 -1.439,-0.474 -0.457,0.244 -0.694,0.194 -1.074,-0.225 -0.584,-0.645 -0.625,-1.137 -0.113,-1.344 0.206,-0.083 0.078,-0.162 -0.285,-0.175 -0.363,-0.013 -0.768,-0.203 -0.9,-0.421 -0.304,-0.504 -1.29,-0.881 -1.29,-0.493 0,0.159 -0.338,0.29 -0.751,0.29 -0.6,0 -0.75,-0.15 -0.75,-0.75 0,-1.298 -1.366,-2.3 -2.475,-1.816 -0.87,0.38 -1.513,-0.046 -1.35,-0.895 0.079,-0.415 0.006,-0.839 -0.162,-0.943 -0.185,-0.115 -0.22,-0.023 -0.088,0.232 0.12,0.232 0.006,0.159 -0.254,-0.161 -0.259,-0.321 -0.472,-0.422 -0.472,-0.225 0,0.196 -0.28,0.357 -0.622,0.357 -0.434,0 -0.59,-0.159 -0.514,-0.525 0.065,-0.316 0.324,-0.487 0.652,-0.43 0.325,0.057 0.465,-0.034 0.346,-0.225 -0.276,-0.447 -2.183,-0.402 -2.349,0.055 -0.188,0.516 -1.228,-0.106 -1.368,-0.818 -0.057,-0.291 0.017,-0.454 0.165,-0.363 0.147,0.092 0.464,0.029 0.704,-0.138 0.307,-0.215 -0.074,-0.26 -1.29,-0.152 -1.663,0.147 -1.726,0.126 -1.726,-0.567 0,-0.547 0.126,-0.68 0.526,-0.556 0.492,0.153 0.491,0.142 -0.006,-0.177 -0.632,-0.406 -1.715,-0.301 -2.266,0.22 -0.564,0.534 -0.884,0.468 -1.275,-0.263 -0.266,-0.498 -0.252,-0.695 0.065,-0.896 0.314,-0.198 0.284,-0.258 -0.13,-0.261 -0.295,-0.003 -0.859,0.207 -1.255,0.466 -0.559,0.366 -0.858,0.398 -1.34,0.14 -0.75,-0.402 -0.811,-1.374 -0.111,-1.766 0.394,-0.221 0.258,-0.285 -0.6,-0.285 -0.61,0 -1.109,0.121 -1.109,0.27 0,0.695 -1.792,0.259 -1.978,-0.48 -0.173,-0.69 -0.325,-0.751 -1.884,-0.751 -1.399,0 -1.765,-0.11 -2.09,-0.631 -0.217,-0.348 -0.277,-0.559 -0.133,-0.47 0.144,0.089 0.458,0.037 0.698,-0.114 0.286,-0.182 -0.359,-0.277 -1.89,-0.28 -1.434,-0.003 -2.326,-0.127 -2.326,-0.323 0,-0.175 0.135,-0.234 0.3,-0.132 0.165,0.102 0.3,0.057 0.3,-0.1 0,-0.499 -0.873,-0.65 -3.74,-0.65 -2.584,0 -2.804,-0.047 -2.956,-0.631 -0.091,-0.347 -0.309,-0.541 -0.485,-0.432 -0.176,0.109 -0.321,0.055 -0.321,-0.12 0,-0.428 -6.196,-0.431 -6.46,-0.003 -0.133,0.215 -0.33,0.202 -0.621,-0.04 -0.365,-0.302 -0.35,-0.413 0.101,-0.765 0.497,-0.386 0.494,-0.399 -0.046,-0.21 -0.366,0.129 -0.503,0.088 -0.379,-0.113 0.288,-0.466 -22.693,-0.476 -23.159,-0.01 m 75.876,22.579 c 0,0.247 0.219,0.45 0.487,0.45 0.398,0 0.419,-0.082 0.113,-0.45 -0.206,-0.248 -0.425,-0.45 -0.487,-0.45 -0.062,0 -0.113,0.202 -0.113,0.45 M 122.359,45.861 c -0.741,0.126 -0.953,-0.093 -0.708,-0.731 0.179,-0.467 0.239,-0.462 0.741,0.062 0.529,0.551 0.528,0.573 -0.033,0.669 m 60.837,22.756 c -9.71,2.015 -15.001,6.864 -17.135,15.704 -0.326,1.352 -0.4,17.669 -0.409,90.275 -0.011,88.163 -0.014,88.629 -0.611,89.388 -0.619,0.788 -0.98,21.087 -0.375,21.087 0.124,0 0.205,-0.54 0.181,-1.2 -0.052,-1.407 -0.02,-1.423 0.998,-0.48 0.744,0.691 0.851,2.597 0.12,2.145 -0.144,-0.089 -0.154,0.307 -0.023,0.888 0.13,0.576 0.162,1.048 0.072,1.048 -0.09,0 0.126,0.252 0.482,0.56 0.355,0.308 0.646,0.871 0.646,1.251 0,0.379 0.085,0.604 0.189,0.5 0.104,-0.104 0.476,-0.034 0.825,0.157 0.631,0.343 0.63,0.347 -0.114,0.559 -0.713,0.203 -0.717,0.215 -0.075,0.244 0.371,0.016 0.675,0.146 0.675,0.288 0,0.142 0.319,0.198 0.708,0.123 0.784,-0.149 4.393,3.125 4.393,3.985 0,0.326 0.202,0.396 0.746,0.259 0.625,-0.157 0.797,-0.048 1.059,0.67 0.64,1.747 0.677,1.805 0.808,1.263 0.211,-0.87 1.567,-0.895 1.784,-0.034 0.203,0.812 -0.427,1.467 -0.928,0.965 -0.469,-0.468 -0.874,-0.327 -0.468,0.163 0.485,0.583 4.682,0.648 4.883,0.075 0.094,-0.271 0.308,-0.218 0.768,0.19 0.35,0.311 0.564,0.682 0.476,0.825 -0.09,0.146 20.161,0.26 46.255,0.26 40.604,0 46.371,-0.055 46.054,-0.437 -0.705,-0.849 1.175,-2.101 2.859,-1.904 0.803,0.093 1.051,-0.015 1.305,-0.572 0.24,-0.528 0.559,-0.688 1.37,-0.688 0.709,0 1.056,-0.139 1.056,-0.423 0,-0.494 2.29,-1.677 3.246,-1.677 0.36,0 0.655,0.146 0.655,0.325 0,0.178 0.169,0.269 0.374,0.2 0.206,-0.068 0.375,-0.384 0.375,-0.7 10e-4,-0.317 0.17,-0.542 0.377,-0.501 0.206,0.042 0.375,-0.068 0.375,-0.242 0,-0.175 0.125,-0.241 0.279,-0.146 0.421,0.261 0.693,-0.365 0.79,-1.82 0.129,-1.922 0.365,-2.436 1.221,-2.651 0.648,-0.163 0.739,-0.314 0.577,-0.959 -0.344,-1.37 1.225,-2.26 1.91,-1.083 0.29,0.497 0.306,0.497 0.315,-0.01 0.005,-0.294 -0.205,-0.616 -0.466,-0.717 -1.217,-0.467 -0.951,-2.781 0.577,-5.017 l 0.798,-1.167 v -7.516 c 0,-7.205 -0.026,-7.543 -0.626,-8.181 l -0.626,-0.667 -0.065,-88.925 -0.065,-88.926 -0.626,-2.1 c -2.17,-7.289 -6.472,-11.579 -14.196,-14.154 -1.546,-0.515 -91.39,-0.994 -93.773,-0.5 m 91.709,12.294 c 1.96,0.907 3.689,2.574 4.412,4.254 l 0.619,1.44 0.053,96.907 c 0.047,85.405 0,97.035 -0.395,97.98 -0.725,1.732 -2.218,3.177 -4.36,4.221 l -2.004,0.976 -44.567,-0.006 -44.567,-0.006 -1.5,-0.667 c -2.247,-0.998 -4.241,-3.105 -4.818,-5.092 -0.75,-2.58 -0.716,-193.449 0.035,-195.247 1.12,-2.682 3.504,-4.701 6.177,-5.23 0.718,-0.143 21.156,-0.239 45.417,-0.215 l 44.111,0.044 1.387,0.641 m -34.571,11.782 c -5.126,1.048 -6.194,8.155 -1.616,10.748 1.695,0.96 23.455,1.061 25.498,0.118 4.194,-1.936 4.418,-7.495 0.409,-10.149 l -1.264,-0.837 -10.975,-0.05 c -6.037,-0.028 -11.46,0.049 -12.052,0.17 m 109.553,14.874 c 0,0.268 -0.176,0.374 -0.448,0.269 -0.247,-0.095 -0.374,-0.293 -0.282,-0.441 0.262,-0.423 0.73,-0.313 0.73,0.172 m 34.119,26.669 c -0.096,0.25 0.02,0.615 0.258,0.813 0.5,0.414 0.613,-0.165 0.169,-0.866 -0.206,-0.325 -0.286,-0.315 -0.427,0.053 m -188.657,17.653 c -4.126,1.165 -5.099,6.784 -1.692,9.775 1.674,1.469 0.607,1.427 35.648,1.427 h 32.905 l 1.134,-0.918 c 3.886,-3.146 3.176,-9.108 -1.228,-10.305 -1.584,-0.431 -65.24,-0.411 -66.767,0.021 m 0.702,32.189 c -5.573,1.735 -5.894,9.67 -0.454,11.196 1.897,0.532 66.155,0.259 67.149,-0.285 4.202,-2.302 4.218,-8.281 0.027,-10.521 l -1.258,-0.672 -32.108,-0.053 c -25.564,-0.043 -32.362,0.026 -33.356,0.335 m 0.089,32.327 c -4.923,0.705 -6.218,7.228 -2.036,10.257 l 1.304,0.945 h 33.376 33.375 l 1.277,-0.845 c 3.723,-2.464 2.829,-9.51 -1.304,-10.272 -1.323,-0.243 -64.316,-0.325 -65.992,-0.085 m -0.554,32.354 c -5.131,1.546 -5.377,8.419 -0.387,10.816 1.964,0.944 65.165,0.908 67.364,-0.038 4.278,-1.84 4.395,-8.324 0.189,-10.425 l -1.302,-0.65 -32.526,0.026 c -17.889,0.014 -32.891,0.136 -33.338,0.271 m 83.484,49.81 c 0,0.168 0.427,0.306 0.95,0.306 1.093,0 1.053,-0.131 -0.125,-0.414 -0.49,-0.117 -0.825,-0.074 -0.825,0.108"
       id="path0"
       inkscape:connector-curvature="0"
       style="fill:#ffffff;fill-opacity:1;fill-rule:evenodd;stroke:none" />
  </g>
</svg>
