<?xml version="1.0" encoding="UTF-8" standalone="no"?>
<!-- Created with Inkscape (http://www.inkscape.org/) -->

<svg
   xmlns:dc="http://purl.org/dc/elements/1.1/"
   xmlns:cc="http://creativecommons.org/ns#"
   xmlns:rdf="http://www.w3.org/1999/02/22-rdf-syntax-ns#"
   xmlns:svg="http://www.w3.org/2000/svg"
   xmlns="http://www.w3.org/2000/svg"
   xmlns:xlink="http://www.w3.org/1999/xlink"
   xmlns:sodipodi="http://sodipodi.sourceforge.net/DTD/sodipodi-0.dtd"
   xmlns:inkscape="http://www.inkscape.org/namespaces/inkscape"
   version="1.1"
   id="svg2"
   width="128"
   height="128"
   viewBox="0 0 128 128"
   sodipodi:docname="com.github.treagod.spectator.svg"
   inkscape:version="0.92.4 5da689c313, 2019-01-14">
  <metadata
     id="metadata8">
    <rdf:RDF>
      <cc:Work
         rdf:about="">
        <dc:format>image/svg+xml</dc:format>
        <dc:type
           rdf:resource="http://purl.org/dc/dcmitype/StillImage" />
        <dc:title></dc:title>
      </cc:Work>
    </rdf:RDF>
  </metadata>
  <defs
     id="defs6">
    <linearGradient
       inkscape:collect="always"
       id="linearGradient833">
      <stop
         style="stop-color:#84d232;stop-opacity:1"
         offset="0"
         id="stop829" />
      <stop
         style="stop-color:#b8ff43;stop-opacity:0.64313728"
         offset="1"
         id="stop831" />
    </linearGradient>
    <linearGradient
       inkscape:collect="always"
       id="linearGradient823">
      <stop
         style="stop-color:#5e9c00;stop-opacity:1"
         offset="0"
         id="stop819" />
      <stop
         style="stop-color:#b8ff43;stop-opacity:0.64313728"
         offset="1"
         id="stop821" />
    </linearGradient>
    <linearGradient
       inkscape:collect="always"
       xlink:href="#linearGradient823"
       id="linearGradient825"
       x1="-741.83197"
       y1="959.04749"
       x2="-741.83197"
       y2="93.836403"
       gradientUnits="userSpaceOnUse"
       gradientTransform="matrix(0.13667801,0,0,0.13667801,162.31231,-5.989337)" />
    <linearGradient
       inkscape:collect="always"
       xlink:href="#linearGradient833"
       id="linearGradient835"
       x1="-738.76385"
       y1="931.43433"
       x2="-738.76385"
       y2="152.13077"
       gradientUnits="userSpaceOnUse"
       gradientTransform="matrix(0.13667801,0,0,0.13667801,162.31231,-5.989337)" />
    <linearGradient
       gradientUnits="userSpaceOnUse"
       y2="125.206"
       x2="64.5"
       y1="3.79414"
       x1="64.5"
       id="paint0_linear"
       gradientTransform="translate(-270.83137,5.2056363)">
      <stop
         id="stop861"
         stop-color="#B9E968" />
      <stop
         id="stop863"
         stop-opacity="0"
         stop-color="white"
         offset="1" />
    </linearGradient>
    <linearGradient
       gradientUnits="userSpaceOnUse"
       y2="113.836"
       x2="64.7353"
       y1="11.6933"
       x1="64.7353"
       id="paint1_linear">
      <stop
         id="stop866"
         stop-color="#B9E968" />
      <stop
         id="stop868"
         stop-opacity="0"
         stop-color="white"
         offset="1" />
    </linearGradient>
  </defs>
  <sodipodi:namedview
     pagecolor="#ffffff"
     bordercolor="#666666"
     borderopacity="1"
     objecttolerance="10"
     gridtolerance="10"
     guidetolerance="10"
     inkscape:pageopacity="0"
     inkscape:pageshadow="2"
     inkscape:window-width="1920"
     inkscape:window-height="1028"
     id="namedview4"
     showgrid="false"
     inkscape:zoom="1.3037281"
     inkscape:cx="75.096922"
     inkscape:cy="61.469148"
     inkscape:window-x="0"
     inkscape:window-y="26"
     inkscape:window-maximized="1"
     inkscape:current-layer="svg2" />
  <circle
     style="opacity:1;fill:url(#linearGradient825);fill-opacity:1;stroke:none;stroke-width:0.78699166;stroke-linecap:round;stroke-linejoin:round;stroke-miterlimit:4;stroke-dasharray:none;stroke-opacity:1"
     id="path817"
     cx="63.591888"
     cy="64.286316"
     r="61.380009" />
  <circle
     r="55.089832"
     cy="64.286316"
     cx="63.591888"
     id="circle827"
     style="opacity:1;fill:url(#linearGradient835);fill-opacity:1;stroke:none;stroke-width:0.70634133;stroke-linecap:round;stroke-linejoin:round;stroke-miterlimit:4;stroke-dasharray:none;stroke-opacity:1" />
  <g
     id="g1016"
     transform="translate(-125.15388,31.201572)"
     style="opacity:0.381">
    <path
       style="fill:none;stroke:#000000;stroke-width:0.1;stroke-miterlimit:4;stroke-dasharray:none;stroke-opacity:0.00784314"
       d="M 188.74482,-0.13341534 A 47.981191,33.217805 0 0 0 140.76483,33.083792 47.981191,33.217805 0 0 0 188.74482,66.302903 47.981191,33.217805 0 0 0 236.72671,33.083792 47.981191,33.217805 0 0 0 188.74482,-0.13341534 Z m 0.2299,11.07303534 c 16.43366,0 29.75546,9.158871 29.75546,20.456997 0,11.298223 -13.3218,20.456996 -29.75546,20.456996 -16.43366,0 -29.75546,-9.158773 -29.75546,-20.456996 0,-11.298126 13.3218,-20.456997 29.75546,-20.456997 z m -0.2299,11.073036 a 11.072634,9.2271528 0 0 0 -11.07303,9.226263 11.072634,9.2271528 0 0 0 11.07303,9.226263 11.072634,9.2271528 0 0 0 11.07304,-9.226263 11.072634,9.2271528 0 0 0 -11.07304,-9.226263 z"
       id="ellipse853-0"
       inkscape:connector-curvature="0" />
    <path
       inkscape:connector-curvature="0"
       id="path937"
       d="M 188.74482,-0.13341534 A 47.981191,33.217805 0 0 0 140.76483,33.083792 47.981191,33.217805 0 0 0 188.74482,66.302903 47.981191,33.217805 0 0 0 236.72671,33.083792 47.981191,33.217805 0 0 0 188.74482,-0.13341534 Z m 0.2299,11.07303534 c 16.43366,0 29.75546,9.158871 29.75546,20.456997 0,11.298223 -13.3218,20.456996 -29.75546,20.456996 -16.43366,0 -29.75546,-9.158773 -29.75546,-20.456996 0,-11.298126 13.3218,-20.456997 29.75546,-20.456997 z m -0.2299,11.073036 a 11.072634,9.2271528 0 0 0 -11.07303,9.226263 11.072634,9.2271528 0 0 0 11.07303,9.226263 11.072634,9.2271528 0 0 0 11.07304,-9.226263 11.072634,9.2271528 0 0 0 -11.07304,-9.226263 z"
       style="fill:none;stroke:#000000;stroke-width:0.2;stroke-miterlimit:4;stroke-dasharray:none;stroke-opacity:0.00784314" />
    <path
       style="fill:none;stroke:#000000;stroke-width:0.30000001;stroke-miterlimit:4;stroke-dasharray:none;stroke-opacity:0.00784314"
       d="M 188.74482,-0.13341534 A 47.981191,33.217805 0 0 0 140.76483,33.083792 47.981191,33.217805 0 0 0 188.74482,66.302903 47.981191,33.217805 0 0 0 236.72671,33.083792 47.981191,33.217805 0 0 0 188.74482,-0.13341534 Z m 0.2299,11.07303534 c 16.43366,0 29.75546,9.158871 29.75546,20.456997 0,11.298223 -13.3218,20.456996 -29.75546,20.456996 -16.43366,0 -29.75546,-9.158773 -29.75546,-20.456996 0,-11.298126 13.3218,-20.456997 29.75546,-20.456997 z m -0.2299,11.073036 a 11.072634,9.2271528 0 0 0 -11.07303,9.226263 11.072634,9.2271528 0 0 0 11.07303,9.226263 11.072634,9.2271528 0 0 0 11.07304,-9.226263 11.072634,9.2271528 0 0 0 -11.07304,-9.226263 z"
       id="path939"
       inkscape:connector-curvature="0" />
    <path
       inkscape:connector-curvature="0"
       id="path941"
       d="M 188.74482,-0.13341534 A 47.981191,33.217805 0 0 0 140.76483,33.083792 47.981191,33.217805 0 0 0 188.74482,66.302903 47.981191,33.217805 0 0 0 236.72671,33.083792 47.981191,33.217805 0 0 0 188.74482,-0.13341534 Z m 0.2299,11.07303534 c 16.43366,0 29.75546,9.158871 29.75546,20.456997 0,11.298223 -13.3218,20.456996 -29.75546,20.456996 -16.43366,0 -29.75546,-9.158773 -29.75546,-20.456996 0,-11.298126 13.3218,-20.456997 29.75546,-20.456997 z m -0.2299,11.073036 a 11.072634,9.2271528 0 0 0 -11.07303,9.226263 11.072634,9.2271528 0 0 0 11.07303,9.226263 11.072634,9.2271528 0 0 0 11.07304,-9.226263 11.072634,9.2271528 0 0 0 -11.07304,-9.226263 z"
       style="fill:none;stroke:#000000;stroke-width:0.40000001;stroke-miterlimit:4;stroke-dasharray:none;stroke-opacity:0.00784314" />
    <path
       style="fill:none;stroke:#000000;stroke-width:0.60000002;stroke-miterlimit:4;stroke-dasharray:none;stroke-opacity:0.00784314"
       d="M 188.74482,-0.13341534 A 47.981191,33.217805 0 0 0 140.76483,33.083792 47.981191,33.217805 0 0 0 188.74482,66.302903 47.981191,33.217805 0 0 0 236.72671,33.083792 47.981191,33.217805 0 0 0 188.74482,-0.13341534 Z m 0.2299,11.07303534 c 16.43366,0 29.75546,9.158871 29.75546,20.456997 0,11.298223 -13.3218,20.456996 -29.75546,20.456996 -16.43366,0 -29.75546,-9.158773 -29.75546,-20.456996 0,-11.298126 13.3218,-20.456997 29.75546,-20.456997 z m -0.2299,11.073036 a 11.072634,9.2271528 0 0 0 -11.07303,9.226263 11.072634,9.2271528 0 0 0 11.07303,9.226263 11.072634,9.2271528 0 0 0 11.07304,-9.226263 11.072634,9.2271528 0 0 0 -11.07304,-9.226263 z"
       id="path943"
       inkscape:connector-curvature="0" />
    <path
       inkscape:connector-curvature="0"
       id="path945"
       d="M 188.74482,-0.13341534 A 47.981191,33.217805 0 0 0 140.76483,33.083792 47.981191,33.217805 0 0 0 188.74482,66.302903 47.981191,33.217805 0 0 0 236.72671,33.083792 47.981191,33.217805 0 0 0 188.74482,-0.13341534 Z m 0.2299,11.07303534 c 16.43366,0 29.75546,9.158871 29.75546,20.456997 0,11.298223 -13.3218,20.456996 -29.75546,20.456996 -16.43366,0 -29.75546,-9.158773 -29.75546,-20.456996 0,-11.298126 13.3218,-20.456997 29.75546,-20.456997 z m -0.2299,11.073036 a 11.072634,9.2271528 0 0 0 -11.07303,9.226263 11.072634,9.2271528 0 0 0 11.07303,9.226263 11.072634,9.2271528 0 0 0 11.07304,-9.226263 11.072634,9.2271528 0 0 0 -11.07304,-9.226263 z"
       style="fill:none;stroke:#000000;stroke-width:0.80000001;stroke-miterlimit:4;stroke-dasharray:none;stroke-opacity:0.00784314" />
    <path
       style="fill:none;stroke:#000000;stroke-width:1;stroke-miterlimit:4;stroke-dasharray:none;stroke-opacity:0.00784314"
       d="M 188.74482,-0.13341534 A 47.981191,33.217805 0 0 0 140.76483,33.083792 47.981191,33.217805 0 0 0 188.74482,66.302903 47.981191,33.217805 0 0 0 236.72671,33.083792 47.981191,33.217805 0 0 0 188.74482,-0.13341534 Z m 0.2299,11.07303534 c 16.43366,0 29.75546,9.158871 29.75546,20.456997 0,11.298223 -13.3218,20.456996 -29.75546,20.456996 -16.43366,0 -29.75546,-9.158773 -29.75546,-20.456996 0,-11.298126 13.3218,-20.456997 29.75546,-20.456997 z m -0.2299,11.073036 a 11.072634,9.2271528 0 0 0 -11.07303,9.226263 11.072634,9.2271528 0 0 0 11.07303,9.226263 11.072634,9.2271528 0 0 0 11.07304,-9.226263 11.072634,9.2271528 0 0 0 -11.07304,-9.226263 z"
       id="path947"
       inkscape:connector-curvature="0" />
    <path
       inkscape:connector-curvature="0"
       id="path949"
       d="M 188.74482,-0.13341534 A 47.981191,33.217805 0 0 0 140.76483,33.083792 47.981191,33.217805 0 0 0 188.74482,66.302903 47.981191,33.217805 0 0 0 236.72671,33.083792 47.981191,33.217805 0 0 0 188.74482,-0.13341534 Z m 0.2299,11.07303534 c 16.43366,0 29.75546,9.158871 29.75546,20.456997 0,11.298223 -13.3218,20.456996 -29.75546,20.456996 -16.43366,0 -29.75546,-9.158773 -29.75546,-20.456996 0,-11.298126 13.3218,-20.456997 29.75546,-20.456997 z m -0.2299,11.073036 a 11.072634,9.2271528 0 0 0 -11.07303,9.226263 11.072634,9.2271528 0 0 0 11.07303,9.226263 11.072634,9.2271528 0 0 0 11.07304,-9.226263 11.072634,9.2271528 0 0 0 -11.07304,-9.226263 z"
       style="fill:none;stroke:#000000;stroke-width:1.20000005;stroke-miterlimit:4;stroke-dasharray:none;stroke-opacity:0.00784314" />
    <path
       style="fill:none;stroke:#000000;stroke-width:1.39999998;stroke-miterlimit:4;stroke-dasharray:none;stroke-opacity:0.00784314"
       d="M 188.74482,-0.13341534 A 47.981191,33.217805 0 0 0 140.76483,33.083792 47.981191,33.217805 0 0 0 188.74482,66.302903 47.981191,33.217805 0 0 0 236.72671,33.083792 47.981191,33.217805 0 0 0 188.74482,-0.13341534 Z m 0.2299,11.07303534 c 16.43366,0 29.75546,9.158871 29.75546,20.456997 0,11.298223 -13.3218,20.456996 -29.75546,20.456996 -16.43366,0 -29.75546,-9.158773 -29.75546,-20.456996 0,-11.298126 13.3218,-20.456997 29.75546,-20.456997 z m -0.2299,11.073036 a 11.072634,9.2271528 0 0 0 -11.07303,9.226263 11.072634,9.2271528 0 0 0 11.07303,9.226263 11.072634,9.2271528 0 0 0 11.07304,-9.226263 11.072634,9.2271528 0 0 0 -11.07304,-9.226263 z"
       id="path951"
       inkscape:connector-curvature="0" />
    <path
       inkscape:connector-curvature="0"
       id="path953"
       d="M 188.74482,-0.13341534 A 47.981191,33.217805 0 0 0 140.76483,33.083792 47.981191,33.217805 0 0 0 188.74482,66.302903 47.981191,33.217805 0 0 0 236.72671,33.083792 47.981191,33.217805 0 0 0 188.74482,-0.13341534 Z m 0.2299,11.07303534 c 16.43366,0 29.75546,9.158871 29.75546,20.456997 0,11.298223 -13.3218,20.456996 -29.75546,20.456996 -16.43366,0 -29.75546,-9.158773 -29.75546,-20.456996 0,-11.298126 13.3218,-20.456997 29.75546,-20.456997 z m -0.2299,11.073036 a 11.072634,9.2271528 0 0 0 -11.07303,9.226263 11.072634,9.2271528 0 0 0 11.07303,9.226263 11.072634,9.2271528 0 0 0 11.07304,-9.226263 11.072634,9.2271528 0 0 0 -11.07304,-9.226263 z"
       style="fill:none;stroke:#000000;stroke-width:1.70000005;stroke-miterlimit:4;stroke-dasharray:none;stroke-opacity:0.00784314" />
    <path
       style="fill:none;stroke:#000000;stroke-width:2;stroke-miterlimit:4;stroke-dasharray:none;stroke-opacity:0.00784314"
       d="M 188.74482,-0.13341534 A 47.981191,33.217805 0 0 0 140.76483,33.083792 47.981191,33.217805 0 0 0 188.74482,66.302903 47.981191,33.217805 0 0 0 236.72671,33.083792 47.981191,33.217805 0 0 0 188.74482,-0.13341534 Z m 0.2299,11.07303534 c 16.43366,0 29.75546,9.158871 29.75546,20.456997 0,11.298223 -13.3218,20.456996 -29.75546,20.456996 -16.43366,0 -29.75546,-9.158773 -29.75546,-20.456996 0,-11.298126 13.3218,-20.456997 29.75546,-20.456997 z m -0.2299,11.073036 a 11.072634,9.2271528 0 0 0 -11.07303,9.226263 11.072634,9.2271528 0 0 0 11.07303,9.226263 11.072634,9.2271528 0 0 0 11.07304,-9.226263 11.072634,9.2271528 0 0 0 -11.07304,-9.226263 z"
       id="path955"
       inkscape:connector-curvature="0" />
    <path
       inkscape:connector-curvature="0"
       id="path957"
       d="M 188.74482,-0.13341534 A 47.981191,33.217805 0 0 0 140.76483,33.083792 47.981191,33.217805 0 0 0 188.74482,66.302903 47.981191,33.217805 0 0 0 236.72671,33.083792 47.981191,33.217805 0 0 0 188.74482,-0.13341534 Z m 0.2299,11.07303534 c 16.43366,0 29.75546,9.158871 29.75546,20.456997 0,11.298223 -13.3218,20.456996 -29.75546,20.456996 -16.43366,0 -29.75546,-9.158773 -29.75546,-20.456996 0,-11.298126 13.3218,-20.456997 29.75546,-20.456997 z m -0.2299,11.073036 a 11.072634,9.2271528 0 0 0 -11.07303,9.226263 11.072634,9.2271528 0 0 0 11.07303,9.226263 11.072634,9.2271528 0 0 0 11.07304,-9.226263 11.072634,9.2271528 0 0 0 -11.07304,-9.226263 z"
       style="fill:none;stroke:#000000;stroke-width:2.29999995;stroke-miterlimit:4;stroke-dasharray:none;stroke-opacity:0.00784314" />
    <path
       style="fill:none;stroke:#000000;stroke-width:2.5999999;stroke-miterlimit:4;stroke-dasharray:none;stroke-opacity:0.00784314"
       d="M 188.74482,-0.13341534 A 47.981191,33.217805 0 0 0 140.76483,33.083792 47.981191,33.217805 0 0 0 188.74482,66.302903 47.981191,33.217805 0 0 0 236.72671,33.083792 47.981191,33.217805 0 0 0 188.74482,-0.13341534 Z m 0.2299,11.07303534 c 16.43366,0 29.75546,9.158871 29.75546,20.456997 0,11.298223 -13.3218,20.456996 -29.75546,20.456996 -16.43366,0 -29.75546,-9.158773 -29.75546,-20.456996 0,-11.298126 13.3218,-20.456997 29.75546,-20.456997 z m -0.2299,11.073036 a 11.072634,9.2271528 0 0 0 -11.07303,9.226263 11.072634,9.2271528 0 0 0 11.07303,9.226263 11.072634,9.2271528 0 0 0 11.07304,-9.226263 11.072634,9.2271528 0 0 0 -11.07304,-9.226263 z"
       id="path959"
       inkscape:connector-curvature="0" />
    <path
       inkscape:connector-curvature="0"
       id="path961"
       d="M 188.74482,-0.13341534 A 47.981191,33.217805 0 0 0 140.76483,33.083792 47.981191,33.217805 0 0 0 188.74482,66.302903 47.981191,33.217805 0 0 0 236.72671,33.083792 47.981191,33.217805 0 0 0 188.74482,-0.13341534 Z m 0.2299,11.07303534 c 16.43366,0 29.75546,9.158871 29.75546,20.456997 0,11.298223 -13.3218,20.456996 -29.75546,20.456996 -16.43366,0 -29.75546,-9.158773 -29.75546,-20.456996 0,-11.298126 13.3218,-20.456997 29.75546,-20.456997 z m -0.2299,11.073036 a 11.072634,9.2271528 0 0 0 -11.07303,9.226263 11.072634,9.2271528 0 0 0 11.07303,9.226263 11.072634,9.2271528 0 0 0 11.07304,-9.226263 11.072634,9.2271528 0 0 0 -11.07304,-9.226263 z"
       style="fill:none;stroke:#000000;stroke-width:2.9000001;stroke-miterlimit:4;stroke-dasharray:none;stroke-opacity:0.00784314" />
    <path
       style="fill:none;stroke:#000000;stroke-width:3.20000005;stroke-miterlimit:4;stroke-dasharray:none;stroke-opacity:0.00784314"
       d="M 188.74482,-0.13341534 A 47.981191,33.217805 0 0 0 140.76483,33.083792 47.981191,33.217805 0 0 0 188.74482,66.302903 47.981191,33.217805 0 0 0 236.72671,33.083792 47.981191,33.217805 0 0 0 188.74482,-0.13341534 Z m 0.2299,11.07303534 c 16.43366,0 29.75546,9.158871 29.75546,20.456997 0,11.298223 -13.3218,20.456996 -29.75546,20.456996 -16.43366,0 -29.75546,-9.158773 -29.75546,-20.456996 0,-11.298126 13.3218,-20.456997 29.75546,-20.456997 z m -0.2299,11.073036 a 11.072634,9.2271528 0 0 0 -11.07303,9.226263 11.072634,9.2271528 0 0 0 11.07303,9.226263 11.072634,9.2271528 0 0 0 11.07304,-9.226263 11.072634,9.2271528 0 0 0 -11.07304,-9.226263 z"
       id="path963"
       inkscape:connector-curvature="0" />
    <path
       inkscape:connector-curvature="0"
       id="path965"
       d="M 188.74482,-0.13341534 A 47.981191,33.217805 0 0 0 140.76483,33.083792 47.981191,33.217805 0 0 0 188.74482,66.302903 47.981191,33.217805 0 0 0 236.72671,33.083792 47.981191,33.217805 0 0 0 188.74482,-0.13341534 Z m 0.2299,11.07303534 c 16.43366,0 29.75546,9.158871 29.75546,20.456997 0,11.298223 -13.3218,20.456996 -29.75546,20.456996 -16.43366,0 -29.75546,-9.158773 -29.75546,-20.456996 0,-11.298126 13.3218,-20.456997 29.75546,-20.456997 z m -0.2299,11.073036 a 11.072634,9.2271528 0 0 0 -11.07303,9.226263 11.072634,9.2271528 0 0 0 11.07303,9.226263 11.072634,9.2271528 0 0 0 11.07304,-9.226263 11.072634,9.2271528 0 0 0 -11.07304,-9.226263 z"
       style="fill:none;stroke:#000000;stroke-width:3.5;stroke-miterlimit:4;stroke-dasharray:none;stroke-opacity:0.00784314" />
    <path
       style="fill:none;stroke:#000000;stroke-width:3.79999995;stroke-miterlimit:4;stroke-dasharray:none;stroke-opacity:0.00784314"
       d="M 188.74482,-0.13341534 A 47.981191,33.217805 0 0 0 140.76483,33.083792 47.981191,33.217805 0 0 0 188.74482,66.302903 47.981191,33.217805 0 0 0 236.72671,33.083792 47.981191,33.217805 0 0 0 188.74482,-0.13341534 Z m 0.2299,11.07303534 c 16.43366,0 29.75546,9.158871 29.75546,20.456997 0,11.298223 -13.3218,20.456996 -29.75546,20.456996 -16.43366,0 -29.75546,-9.158773 -29.75546,-20.456996 0,-11.298126 13.3218,-20.456997 29.75546,-20.456997 z m -0.2299,11.073036 a 11.072634,9.2271528 0 0 0 -11.07303,9.226263 11.072634,9.2271528 0 0 0 11.07303,9.226263 11.072634,9.2271528 0 0 0 11.07304,-9.226263 11.072634,9.2271528 0 0 0 -11.07304,-9.226263 z"
       id="path967"
       inkscape:connector-curvature="0" />
    <path
       inkscape:connector-curvature="0"
       id="path969"
       d="M 188.74482,-0.13341534 A 47.981191,33.217805 0 0 0 140.76483,33.083792 47.981191,33.217805 0 0 0 188.74482,66.302903 47.981191,33.217805 0 0 0 236.72671,33.083792 47.981191,33.217805 0 0 0 188.74482,-0.13341534 Z m 0.2299,11.07303534 c 16.43366,0 29.75546,9.158871 29.75546,20.456997 0,11.298223 -13.3218,20.456996 -29.75546,20.456996 -16.43366,0 -29.75546,-9.158773 -29.75546,-20.456996 0,-11.298126 13.3218,-20.456997 29.75546,-20.456997 z m -0.2299,11.073036 a 11.072634,9.2271528 0 0 0 -11.07303,9.226263 11.072634,9.2271528 0 0 0 11.07303,9.226263 11.072634,9.2271528 0 0 0 11.07304,-9.226263 11.072634,9.2271528 0 0 0 -11.07304,-9.226263 z"
       style="fill:none;stroke:#000000;stroke-width:4.0999999;stroke-miterlimit:4;stroke-dasharray:none;stroke-opacity:0.00784314" />
    <path
       style="fill:none;stroke:#000000;stroke-width:4.5;stroke-miterlimit:4;stroke-dasharray:none;stroke-opacity:0.00784314"
       d="M 188.74482,-0.13341534 A 47.981191,33.217805 0 0 0 140.76483,33.083792 47.981191,33.217805 0 0 0 188.74482,66.302903 47.981191,33.217805 0 0 0 236.72671,33.083792 47.981191,33.217805 0 0 0 188.74482,-0.13341534 Z m 0.2299,11.07303534 c 16.43366,0 29.75546,9.158871 29.75546,20.456997 0,11.298223 -13.3218,20.456996 -29.75546,20.456996 -16.43366,0 -29.75546,-9.158773 -29.75546,-20.456996 0,-11.298126 13.3218,-20.456997 29.75546,-20.456997 z m -0.2299,11.073036 a 11.072634,9.2271528 0 0 0 -11.07303,9.226263 11.072634,9.2271528 0 0 0 11.07303,9.226263 11.072634,9.2271528 0 0 0 11.07304,-9.226263 11.072634,9.2271528 0 0 0 -11.07304,-9.226263 z"
       id="path971"
       inkscape:connector-curvature="0" />
    <path
       inkscape:connector-curvature="0"
       id="path973"
       d="M 188.74482,-0.13341534 A 47.981191,33.217805 0 0 0 140.76483,33.083792 47.981191,33.217805 0 0 0 188.74482,66.302903 47.981191,33.217805 0 0 0 236.72671,33.083792 47.981191,33.217805 0 0 0 188.74482,-0.13341534 Z m 0.2299,11.07303534 c 16.43366,0 29.75546,9.158871 29.75546,20.456997 0,11.298223 -13.3218,20.456996 -29.75546,20.456996 -16.43366,0 -29.75546,-9.158773 -29.75546,-20.456996 0,-11.298126 13.3218,-20.456997 29.75546,-20.456997 z m -0.2299,11.073036 a 11.072634,9.2271528 0 0 0 -11.07303,9.226263 11.072634,9.2271528 0 0 0 11.07303,9.226263 11.072634,9.2271528 0 0 0 11.07304,-9.226263 11.072634,9.2271528 0 0 0 -11.07304,-9.226263 z"
       style="fill:none;stroke:#000000;stroke-width:5;stroke-miterlimit:4;stroke-dasharray:none;stroke-opacity:0.00784314" />
    <path
       style="fill:none;stroke:#000000;stroke-width:6;stroke-miterlimit:4;stroke-dasharray:none;stroke-opacity:0.00784314"
       d="M 188.74482,-0.13341534 A 47.981191,33.217805 0 0 0 140.76483,33.083792 47.981191,33.217805 0 0 0 188.74482,66.302903 47.981191,33.217805 0 0 0 236.72671,33.083792 47.981191,33.217805 0 0 0 188.74482,-0.13341534 Z m 0.2299,11.07303534 c 16.43366,0 29.75546,9.158871 29.75546,20.456997 0,11.298223 -13.3218,20.456996 -29.75546,20.456996 -16.43366,0 -29.75546,-9.158773 -29.75546,-20.456996 0,-11.298126 13.3218,-20.456997 29.75546,-20.456997 z m -0.2299,11.073036 a 11.072634,9.2271528 0 0 0 -11.07303,9.226263 11.072634,9.2271528 0 0 0 11.07303,9.226263 11.072634,9.2271528 0 0 0 11.07304,-9.226263 11.072634,9.2271528 0 0 0 -11.07304,-9.226263 z"
       id="path975"
       inkscape:connector-curvature="0" />
    <path
       inkscape:connector-curvature="0"
       id="path977"
       d="M 188.74482,-0.13341534 A 47.981191,33.217805 0 0 0 140.76483,33.083792 47.981191,33.217805 0 0 0 188.74482,66.302903 47.981191,33.217805 0 0 0 236.72671,33.083792 47.981191,33.217805 0 0 0 188.74482,-0.13341534 Z m 0.2299,11.07303534 c 16.43366,0 29.75546,9.158871 29.75546,20.456997 0,11.298223 -13.3218,20.456996 -29.75546,20.456996 -16.43366,0 -29.75546,-9.158773 -29.75546,-20.456996 0,-11.298126 13.3218,-20.456997 29.75546,-20.456997 z m -0.2299,11.073036 a 11.072634,9.2271528 0 0 0 -11.07303,9.226263 11.072634,9.2271528 0 0 0 11.07303,9.226263 11.072634,9.2271528 0 0 0 11.07304,-9.226263 11.072634,9.2271528 0 0 0 -11.07304,-9.226263 z"
       style="fill:none;stroke:#000000;stroke-width:7;stroke-miterlimit:4;stroke-dasharray:none;stroke-opacity:0.00784314" />
    <path
       style="fill:none;stroke:#000000;stroke-width:8;stroke-miterlimit:4;stroke-dasharray:none;stroke-opacity:0.00784314"
       d="M 188.74482,-0.13341534 A 47.981191,33.217805 0 0 0 140.76483,33.083792 47.981191,33.217805 0 0 0 188.74482,66.302903 47.981191,33.217805 0 0 0 236.72671,33.083792 47.981191,33.217805 0 0 0 188.74482,-0.13341534 Z m 0.2299,11.07303534 c 16.43366,0 29.75546,9.158871 29.75546,20.456997 0,11.298223 -13.3218,20.456996 -29.75546,20.456996 -16.43366,0 -29.75546,-9.158773 -29.75546,-20.456996 0,-11.298126 13.3218,-20.456997 29.75546,-20.456997 z m -0.2299,11.073036 a 11.072634,9.2271528 0 0 0 -11.07303,9.226263 11.072634,9.2271528 0 0 0 11.07303,9.226263 11.072634,9.2271528 0 0 0 11.07304,-9.226263 11.072634,9.2271528 0 0 0 -11.07304,-9.226263 z"
       id="path979"
       inkscape:connector-curvature="0" />
    <path
       inkscape:connector-curvature="0"
       id="path981"
       d="M 188.74482,-0.13341534 A 47.981191,33.217805 0 0 0 140.76483,33.083792 47.981191,33.217805 0 0 0 188.74482,66.302903 47.981191,33.217805 0 0 0 236.72671,33.083792 47.981191,33.217805 0 0 0 188.74482,-0.13341534 Z m 0.2299,11.07303534 c 16.43366,0 29.75546,9.158871 29.75546,20.456997 0,11.298223 -13.3218,20.456996 -29.75546,20.456996 -16.43366,0 -29.75546,-9.158773 -29.75546,-20.456996 0,-11.298126 13.3218,-20.456997 29.75546,-20.456997 z m -0.2299,11.073036 a 11.072634,9.2271528 0 0 0 -11.07303,9.226263 11.072634,9.2271528 0 0 0 11.07303,9.226263 11.072634,9.2271528 0 0 0 11.07304,-9.226263 11.072634,9.2271528 0 0 0 -11.07304,-9.226263 z"
       style="fill:none;stroke:#000000;stroke-width:9;stroke-miterlimit:4;stroke-dasharray:none;stroke-opacity:0.00784314" />
    <path
       style="fill:none;stroke:#000000;stroke-width:10;stroke-miterlimit:4;stroke-dasharray:none;stroke-opacity:0.00784314"
       d="M 188.74482,-0.13341534 A 47.981191,33.217805 0 0 0 140.76483,33.083792 47.981191,33.217805 0 0 0 188.74482,66.302903 47.981191,33.217805 0 0 0 236.72671,33.083792 47.981191,33.217805 0 0 0 188.74482,-0.13341534 Z m 0.2299,11.07303534 c 16.43366,0 29.75546,9.158871 29.75546,20.456997 0,11.298223 -13.3218,20.456996 -29.75546,20.456996 -16.43366,0 -29.75546,-9.158773 -29.75546,-20.456996 0,-11.298126 13.3218,-20.456997 29.75546,-20.456997 z m -0.2299,11.073036 a 11.072634,9.2271528 0 0 0 -11.07303,9.226263 11.072634,9.2271528 0 0 0 11.07303,9.226263 11.072634,9.2271528 0 0 0 11.07304,-9.226263 11.072634,9.2271528 0 0 0 -11.07304,-9.226263 z"
       id="path983"
       inkscape:connector-curvature="0" />
    <path
       inkscape:connector-curvature="0"
       id="path985"
       d="M 188.74482,-0.13341534 A 47.981191,33.217805 0 0 0 140.76483,33.083792 47.981191,33.217805 0 0 0 188.74482,66.302903 47.981191,33.217805 0 0 0 236.72671,33.083792 47.981191,33.217805 0 0 0 188.74482,-0.13341534 Z m 0.2299,11.07303534 c 16.43366,0 29.75546,9.158871 29.75546,20.456997 0,11.298223 -13.3218,20.456996 -29.75546,20.456996 -16.43366,0 -29.75546,-9.158773 -29.75546,-20.456996 0,-11.298126 13.3218,-20.456997 29.75546,-20.456997 z m -0.2299,11.073036 a 11.072634,9.2271528 0 0 0 -11.07303,9.226263 11.072634,9.2271528 0 0 0 11.07303,9.226263 11.072634,9.2271528 0 0 0 11.07304,-9.226263 11.072634,9.2271528 0 0 0 -11.07304,-9.226263 z"
       style="fill:none;stroke:#000000;stroke-width:12;stroke-miterlimit:4;stroke-dasharray:none;stroke-opacity:0.00784314" />
    <path
       style="fill:none;stroke:#000000;stroke-width:14;stroke-miterlimit:4;stroke-dasharray:none;stroke-opacity:0.00784314"
       d="M 188.74482,-0.13341534 A 47.981191,33.217805 0 0 0 140.76483,33.083792 47.981191,33.217805 0 0 0 188.74482,66.302903 47.981191,33.217805 0 0 0 236.72671,33.083792 47.981191,33.217805 0 0 0 188.74482,-0.13341534 Z m 0.2299,11.07303534 c 16.43366,0 29.75546,9.158871 29.75546,20.456997 0,11.298223 -13.3218,20.456996 -29.75546,20.456996 -16.43366,0 -29.75546,-9.158773 -29.75546,-20.456996 0,-11.298126 13.3218,-20.456997 29.75546,-20.456997 z m -0.2299,11.073036 a 11.072634,9.2271528 0 0 0 -11.07303,9.226263 11.072634,9.2271528 0 0 0 11.07303,9.226263 11.072634,9.2271528 0 0 0 11.07304,-9.226263 11.072634,9.2271528 0 0 0 -11.07304,-9.226263 z"
       id="path987"
       inkscape:connector-curvature="0" />
  </g>
  <path
     inkscape:connector-curvature="0"
     id="ellipse853"
     d="M 63.59094,31.068157 A 47.981191,33.217805 0 0 0 15.61095,64.285364 47.981191,33.217805 0 0 0 63.59094,97.504475 47.981191,33.217805 0 0 0 111.57283,64.285364 47.981191,33.217805 0 0 0 63.59094,31.068157 Z m 0.2299,11.073035 c 16.43366,0 29.75546,9.158871 29.75546,20.456997 0,11.298223 -13.3218,20.456996 -29.75546,20.456996 -16.43366,0 -29.75546,-9.158773 -29.75546,-20.456996 0,-11.298126 13.3218,-20.456997 29.75546,-20.456997 z m -0.2299,11.073036 a 11.072634,9.2271528 0 0 0 -11.07303,9.226263 11.072634,9.2271528 0 0 0 11.07303,9.226263 11.072634,9.2271528 0 0 0 11.07304,-9.226263 11.072634,9.2271528 0 0 0 -11.07304,-9.226263 z"
     style="fill:#ffffff;stroke-width:0.97278553" />
</svg>
