<?xml version="1.0" encoding="UTF-8" standalone="no"?>
<svg
   xmlns:dc="http://purl.org/dc/elements/1.1/"
   xmlns:cc="http://creativecommons.org/ns#"
   xmlns:rdf="http://www.w3.org/1999/02/22-rdf-syntax-ns#"
   xmlns:svg="http://www.w3.org/2000/svg"
   xmlns="http://www.w3.org/2000/svg"
   xmlns:sodipodi="http://sodipodi.sourceforge.net/DTD/sodipodi-0.dtd"
   xmlns:inkscape="http://www.inkscape.org/namespaces/inkscape"
   id="svg2385"
   style="enable-background:new"
   viewBox="0 0 128 128"
   version="1.0"
   sodipodi:docname="com.github.mirkobrombin.football.svg"
   width="128"
   height="128"
   inkscape:version="0.92.1 r15371">
  <sodipodi:namedview
     pagecolor="#ffffff"
     bordercolor="#666666"
     borderopacity="1"
     objecttolerance="10"
     gridtolerance="10"
     guidetolerance="10"
     inkscape:pageopacity="0"
     inkscape:pageshadow="2"
     inkscape:window-width="1920"
     inkscape:window-height="1040"
     id="namedview50"
     showgrid="false"
     inkscape:zoom="2.7914055"
     inkscape:cx="110.08917"
     inkscape:cy="88.309923"
     inkscape:window-x="0"
     inkscape:window-y="0"
     inkscape:window-maximized="1"
     inkscape:current-layer="svg2385" />
  <defs
     id="defs2387">
    <radialGradient
       id="radialGradient3172"
       gradientUnits="userSpaceOnUse"
       cy="470.03"
       cx="253.14"
       gradientTransform="matrix(1,0,0,0.19711,0,377.38)"
       r="114.36">
      <stop
         id="stop3102"
         stop-color="#333"
         offset="0" />
      <stop
         id="stop3104"
         stop-color="#333"
         stop-opacity="0"
         offset="1" />
    </radialGradient>
    <linearGradient
       id="linearGradient3239"
       y2="1026.6"
       gradientUnits="userSpaceOnUse"
       x2="125.48"
       gradientTransform="matrix(0.9748,0,0,0.9748,173.34,-492.31)"
       y1="1070.5"
       x1="237.35001">
      <stop
         id="stop3530"
         offset="0" />
      <stop
         id="stop3532"
         stop-opacity="0"
         offset="1" />
    </linearGradient>
    <linearGradient
       id="linearGradient3242"
       y2="1143.9"
       gradientUnits="userSpaceOnUse"
       x2="468.48001"
       gradientTransform="matrix(0.9741,0,0,0.9741,179.47,-490.16)"
       y1="1122"
       x1="350.87">
      <stop
         id="stop3522"
         offset="0" />
      <stop
         id="stop3524"
         stop-opacity="0"
         offset="1" />
    </linearGradient>
    <radialGradient
       id="radialGradient3245"
       gradientUnits="userSpaceOnUse"
       cy="1062.9"
       cx="311.42999"
       gradientTransform="matrix(1,0,0,1.0001,167.18,-512.7)"
       r="225.06">
      <stop
         id="stop3415"
         stop-color="#fff"
         offset="0" />
      <stop
         id="stop3512"
         stop-color="#fff"
         offset=".4702" />
      <stop
         id="stop3417"
         stop-color="#d6d6d6"
         offset="1" />
    </radialGradient>
    <radialGradient
       id="radialGradient3248"
       gradientUnits="userSpaceOnUse"
       cy="207.49001"
       cx="317.60999"
       gradientTransform="matrix(0.83833,0,0,0.83833,211.22,370.35)"
       r="245.83">
      <stop
         id="stop3425"
         stop-color="#6a6a6a"
         offset="0" />
      <stop
         id="stop3427"
         offset="1" />
    </radialGradient>
    <linearGradient
       id="linearGradient3250"
       y2="882.13"
       gradientUnits="userSpaceOnUse"
       x2="320.48001"
       gradientTransform="matrix(0.87835,0,0,0.87835,218.72,-432.34)"
       y1="952.46002"
       x1="299.17001">
      <stop
         id="stop3538"
         stop-color="#333"
         offset="0" />
      <stop
         id="stop3540"
         stop-opacity="0"
         offset="1" />
    </linearGradient>
  </defs>
  <g
     id="g4552"
     transform="matrix(0.26524948,0,0,0.26524948,4.2989097,97.411165)">
    <g
       transform="translate(-236.97,-716.74001)"
       id="layer1">
      <path
         inkscape:connector-curvature="0"
         style="fill:url(#radialGradient3248);fill-rule:evenodd;enable-background:accumulate"
         d="m 687.14,591.56 c 0,124.25 -100.84,225.09 -225.08,225.09 -124.25,0 -225.09,-100.84 -225.09,-225.09 0,-124.24 100.84,-225.08 225.09,-225.08 124.24,0 225.08,100.84 225.08,225.08 z"
         id="path3382" />
      <path
         inkscape:connector-curvature="0"
         style="fill:url(#radialGradient3245);fill-rule:evenodd;enable-background:accumulate"
         d="m 462.05,366.48 c -49.13,0 -94.58,15.79 -131.6,42.53 -16.11,19.49 -27.4,39 -27.4,39 l -20.56,7.88 c -28.56,37.73 -45.5,84.75 -45.5,135.69 0,4.75 0.14,9.47 0.43,14.15 5.12,9.14 8.94,14.97 8.94,14.97 l -2.62,25.69 c 14.7,58.68 52.45,108.24 103.06,138.5 3.61,2.34 6.63,3.75 9.95,5.63 -1.76,-1.66 -2.3,-2.11 -3.45,-3.16 -13.25,-13.71 -24.41,-29.72 -24.41,-29.72 l 32.03,-29.47 c 0,0 20.6,15.56 43.72,23.62 23.13,8.06 48.78,8.63 48.78,8.63 l 15.88,40.75 c 0,0 -14.03,7.19 -33.94,10.72 -3.56,0.63 -7.33,1.14 -11.09,1.56 12.29,2.08 24.9,3.19 37.78,3.19 52.04,0 99.99,-17.69 138.12,-47.38 11.93,-15.98 19.75,-29.72 19.75,-29.72 l 17.38,-6.81 c 30.83,-38.22 49.43,-86.72 49.81,-139.53 -6.12,-18.16 -12.81,-28.81 -12.81,-28.81 0,0 1.71,-16.58 -0.69,-34.85 -0.38,-2.87 1.55,-1.85 3.87,-3.4 -0.69,-2.6 -3.19,-10.31 -4.45,-13.99 -4.96,-14.5 -9.84,-21.41 -13.04,-27.82 6.24,3.48 -0.03,-0.02 -0.04,-0.04 C 621.82,414.13 547.47,366.48 462.05,366.48 Z m 27.22,8.56 c 18.7,0.26 38.22,6.32 38.22,6.32 0,0 22.17,8.52 38,20.56 15.82,12.04 25.31,27.59 25.31,27.59 l -40.25,27.82 c 0,0 -21.67,-14.85 -44.31,-22.85 -22.65,-8 -46.29,-9.15 -46.29,-9.15 l -11.4,-41.54 c 0,0 17.26,-8.11 37,-8.71 1.23,-0.04 2.47,-0.05 3.72,-0.04 z M 357.74,486.23 c 13.82,0.07 25.31,1.72 25.31,1.72 l 20.81,88.44 -66.81,63.62 c 0,0 -20.86,-13.23 -35.91,-26.18 -15.04,-12.96 -24.28,-25.63 -24.28,-25.63 0,0 2.72,-25.65 8.84,-47.72 6.13,-22.06 15.69,-40.53 15.69,-40.53 0,0 16.52,-9.51 36.94,-12.5 6.38,-0.94 13.12,-1.25 19.41,-1.22 z m 216.53,63.16 c 0,0 18.83,8.25 34.03,20.4 15.19,12.16 26.75,28.22 26.75,28.22 0,0 -1.08,22 -8.35,44.88 -7.26,22.87 -20.71,46.62 -20.71,46.62 0,0 -18.78,6.89 -38.6,8.75 -19.81,1.86 -40.69,-1.31 -40.69,-1.31 l -10.34,-43.28 -10.66,-44.5 c 0,0 14.15,-17.05 31.29,-32 17.14,-14.95 37.28,-27.78 37.28,-27.78 z"
         id="path3400" />
      <path
         inkscape:connector-curvature="0"
         d="m 633.37,598.68 c 0,0 -1.05,21.44 -8.13,43.72 -7.08,22.28 -20.18,45.4 -20.18,45.4 0,0 -18.29,6.73 -37.6,8.54 -19.3,1.81 -39.61,-1.29 -39.61,-1.29 L 517.76,652.9 507.39,609.57 c 0,0 13.77,-16.64 30.47,-31.2 16.69,-14.56 36.31,-27.05 36.31,-27.05 0,0 18.35,8.06 33.15,19.89 14.8,11.84 26.05,27.47 26.05,27.47 z"
         style="fill:none;stroke:url(#linearGradient3242);stroke-width:4.87050009;stroke-linejoin:round;enable-background:accumulate"
         id="path3514" />
      <path
         inkscape:connector-curvature="0"
         d="m 337.13,638.06 c 0,0 -20.33,-12.9 -35,-25.53 -14.66,-12.62 -23.65,-24.97 -23.65,-24.97 0,0 2.63,-24.99 8.61,-46.5 5.97,-21.51 15.28,-39.53 15.28,-39.53 0,0 16.1,-9.26 36,-12.17 19.91,-2.92 43.62,0.5 43.62,0.5 l 20.28,86.21 z"
         style="fill:none;stroke:url(#linearGradient3239);stroke-width:4.87400007;stroke-linejoin:round;enable-background:accumulate"
         id="path3516" />
      <path
         inkscape:connector-curvature="0"
         d="m 526.54,385.59 c 0,0 19.47,7.5 33.37,18.08 13.9,10.57 22.24,24.23 22.24,24.23 l -35.36,24.43 c 0,0 -19.03,-13.05 -38.92,-20.08 -19.89,-7.03 -47.71,-9.8 -47.71,-9.8 l -9.32,-36.84 c 0,0 19.39,-6.77 36.73,-7.3 17.33,-0.54 38.97,7.28 38.97,7.28 z"
         style="fill:none;stroke:url(#linearGradient3250);stroke-width:5.0158;enable-background:accumulate"
         id="path3518" />
      <path
         style="fill:none;stroke:#666666;stroke-width:1px"
         inkscape:connector-curvature="0"
         d="m 382.01,489.15 c 0,0 36.18,-48.08 78.43,-64.33"
         id="path3479" />
      <path
         style="fill:none;stroke:#ececec;stroke-width:3"
         inkscape:connector-curvature="0"
         d="m 552.78,456.1 c 0,0 26.98,42.93 23.48,91.93"
         id="path3506" />
      <path
         style="fill:none;stroke:#666666;stroke-width:1px"
         inkscape:connector-curvature="0"
         d="m 550.37,456.61 c 0,0 27.58,44.38 24.08,93.38"
         id="path3481" />
      <path
         style="fill:none;stroke:#666666;stroke-width:1px"
         inkscape:connector-curvature="0"
         d="m 587.8,429.25 c 0,0 59.78,23.6 86.03,98.35"
         id="path3483" />
      <path
         style="fill:none;stroke:#666666;stroke-width:1px"
         inkscape:connector-curvature="0"
         d="m 635.42,597.89 c 0,0 21.04,-1.64 39.43,-32.75"
         id="path3485" />
      <path
         style="fill:none;stroke:#666666;stroke-width:1px"
         inkscape:connector-curvature="0"
         d="m 620.39,739.32 c 0,0 2.92,-18.13 -14.52,-50.95"
         id="path3487" />
      <path
         style="fill:none;stroke:#666666;stroke-width:1px"
         inkscape:connector-curvature="0"
         d="m 453.67,760.93 c 0,0 32.35,-8.57 73.36,-65.14"
         id="path3489" />
      <path
         style="fill:none;stroke:#666666;stroke-width:1px"
         inkscape:connector-curvature="0"
         d="m 336.82,639.22 c 0,0 -1.95,50.38 23.16,89.98"
         id="path3491" />
      <path
         style="fill:none;stroke:#666666;stroke-width:1px"
         inkscape:connector-curvature="0"
         d="m 328.88,757.9 c 0,0 -7.43,0.1 -35.55,-16.85"
         id="path3493" />
      <path
         style="fill:none;stroke:#666666;stroke-width:1px"
         inkscape:connector-curvature="0"
         d="m 277.33,588.13 c 0,0 -20.15,8.47 -31,31.92"
         id="path3495" />
      <path
         style="fill:none;stroke:#666666;stroke-width:1px"
         inkscape:connector-curvature="0"
         d="m 302.7,448.25 c 0,0 -7.23,27.91 -0.95,51.36"
         id="path3497" />
      <path
         style="fill:none;stroke:#666666;stroke-width:1px"
         inkscape:connector-curvature="0"
         d="m 326.92,412.6 c 0,0 60.05,-50.9 121.22,-28.27"
         id="path3499" />
      <path
         style="fill:none;stroke:#666666;stroke-width:1px"
         inkscape:connector-curvature="0"
         d="m 469.15,801.22 c 0,0 52.39,13.45 133.19,-34.24"
         id="path3501" />
      <path
         style="fill:none;stroke:#f2f2f2;stroke-width:3;stroke-linecap:square"
         inkscape:connector-curvature="0"
         d="m 382.2,485.55 c 0,0 30.09,-41.45 74.34,-61.32"
         id="path3504" />
      <path
         style="fill:none;stroke:#ffffff;stroke-width:3"
         inkscape:connector-curvature="0"
         d="m 454.49,762.67 c 0,0 30.82,-5.95 71.83,-62.52"
         id="path3508" />
      <path
         style="fill:none;stroke:#ffffff;stroke-width:3"
         inkscape:connector-curvature="0"
         d="m 334.79,640.34 c 0,0 -1.94,50.4 23.16,90"
         id="path3510" />
      <path
         inkscape:connector-curvature="0"
         d="m 404.35,576.56 c 0,0 26.34,6.18 101.29,32.7"
         style="fill:none;stroke:#999999;stroke-width:1px;enable-background:accumulate"
         id="path2453" />
      <path
         inkscape:connector-curvature="0"
         d="m 404.35,575.28 c 0,0 26.34,6.19 101.29,32.7"
         style="fill:none;stroke:#ececec;stroke-width:1px;enable-background:accumulate"
         id="path3260" />
    </g>
  </g>
  <metadata
     id="metadata47">
    <rdf:RDF>
      <cc:Work>
        <dc:format>image/svg+xml</dc:format>
        <dc:type
           rdf:resource="http://purl.org/dc/dcmitype/StillImage" />
        <cc:license
           rdf:resource="http://creativecommons.org/publicdomain/zero/1.0/" />
        <dc:publisher>
          <cc:Agent
             rdf:about="http://openclipart.org/">
            <dc:title>Openclipart</dc:title>
          </cc:Agent>
        </dc:publisher>
        <dc:title></dc:title>
        <dc:date>2007-12-08T19:23:30</dc:date>
        <dc:description>This is a simple football, the ball used to play soccer with.</dc:description>
        <dc:source>http://openclipart.org/detail/9618/football-(soccer)-by-flomar</dc:source>
        <dc:creator>
          <cc:Agent>
            <dc:title>flomar</dc:title>
          </cc:Agent>
        </dc:creator>
        <dc:subject>
          <rdf:Bag>
            <rdf:li>ball</rdf:li>
            <rdf:li>clip art</rdf:li>
            <rdf:li>clipart</rdf:li>
            <rdf:li>football</rdf:li>
            <rdf:li>game</rdf:li>
            <rdf:li>image</rdf:li>
            <rdf:li>media</rdf:li>
            <rdf:li>png</rdf:li>
            <rdf:li>public domain</rdf:li>
            <rdf:li>soccer</rdf:li>
            <rdf:li>sport</rdf:li>
            <rdf:li>svg</rdf:li>
          </rdf:Bag>
        </dc:subject>
      </cc:Work>
      <cc:License
         rdf:about="http://creativecommons.org/publicdomain/zero/1.0/">
        <cc:permits
           rdf:resource="http://creativecommons.org/ns#Reproduction" />
        <cc:permits
           rdf:resource="http://creativecommons.org/ns#Distribution" />
        <cc:permits
           rdf:resource="http://creativecommons.org/ns#DerivativeWorks" />
      </cc:License>
    </rdf:RDF>
  </metadata>
</svg>
