<?xml version="1.0" encoding="UTF-8" standalone="no"?>
<!-- Created with Inkscape (http://www.inkscape.org/) -->

<svg
   xmlns:osb="http://www.openswatchbook.org/uri/2009/osb"
   xmlns:dc="http://purl.org/dc/elements/1.1/"
   xmlns:cc="http://creativecommons.org/ns#"
   xmlns:rdf="http://www.w3.org/1999/02/22-rdf-syntax-ns#"
   xmlns:svg="http://www.w3.org/2000/svg"
   xmlns="http://www.w3.org/2000/svg"
   xmlns:xlink="http://www.w3.org/1999/xlink"
   xmlns:sodipodi="http://sodipodi.sourceforge.net/DTD/sodipodi-0.dtd"
   xmlns:inkscape="http://www.inkscape.org/namespaces/inkscape"
   width="128"
   height="128"
   viewBox="0 0 33.866666 33.866668"
   version="1.1"
   id="svg8"
   inkscape:version="0.92.1 r15371"
   sodipodi:docname="com.github.fleury08.prettifier.svg">
  <defs
     id="defs2">
    <linearGradient
       inkscape:collect="always"
       id="linearGradient4938">
      <stop
         style="stop-color:#1185ff;stop-opacity:1"
         offset="0"
         id="stop4934" />
      <stop
         style="stop-color:#11bfff;stop-opacity:1"
         offset="1"
         id="stop4936" />
    </linearGradient>
    <linearGradient
       inkscape:collect="always"
       id="linearGradient4599">
      <stop
         style="stop-color:#d3d3d3;stop-opacity:1;"
         offset="0"
         id="stop4595" />
      <stop
         style="stop-color:#e0e0e0;stop-opacity:1"
         offset="1"
         id="stop4597" />
    </linearGradient>
    <linearGradient
       id="linearGradient3361"
       inkscape:collect="always">
      <stop
         id="stop3363"
         offset="0"
         style="stop-color:#0068e0;stop-opacity:1;" />
      <stop
         id="stop3365"
         offset="1"
         style="stop-color:#00acf4;stop-opacity:1" />
    </linearGradient>
    <linearGradient
       xlink:href="#linearGradient3361"
       x1="71.204002"
       y1="15.369"
       gradientTransform="matrix(1.5564685,0,0,1.58743,-88.730662,-20.236087)"
       x2="71.204002"
       gradientUnits="userSpaceOnUse"
       y2="40.495998"
       id="linearGradient3026">
      <stop
         offset="0"
         stop-color="#fff"
         id="stop4808-4" />
      <stop
         offset=".42448"
         stop-opacity=".23529"
         stop-color="#fff"
         id="stop4810-0" />
      <stop
         offset=".82090"
         stop-opacity=".15686"
         stop-color="#fff"
         id="stop4812-8" />
      <stop
         offset="1"
         stop-opacity=".39216"
         stop-color="#fff"
         id="stop4814-0" />
    </linearGradient>
    <radialGradient
       r="20"
       gradientTransform="matrix(-3.4973e-8,1.8855,-1.7764,-5.4723e-8,39.14,-7.9932)"
       cx="15.026"
       cy="8.6258001"
       gradientUnits="userSpaceOnUse"
       fy="8.5088997"
       fx="4.4590001"
       id="radialGradient3029">
      <stop
         offset="0"
         stop-color="#c24251"
         id="stop4170" />
      <stop
         offset=".26238"
         stop-color="#c24251"
         id="stop4172" />
      <stop
         offset=".66094"
         stop-color="#a63643"
         id="stop4174" />
      <stop
         offset="1"
         stop-color="#a63643"
         id="stop4176" />
    </radialGradient>
    <radialGradient
       r="20.396999"
       gradientTransform="matrix(0,2.835678,-3.67007,0,38.250987,-64.305184)"
       cx="23.896"
       cy="3.99"
       gradientUnits="userSpaceOnUse"
       id="radialGradient3032">
      <stop
         offset="0"
         stop-color="#fff"
         id="stop3244-9-33-7-0-9" />
      <stop
         offset=".26238"
         stop-color="#ddd"
         id="stop3246-3-5-0-8-5" />
      <stop
         offset=".66094"
         stop-color="#abacae"
         id="stop3248-1-7-8-8-1" />
      <stop
         offset="1"
         stop-color="#89898b"
         id="stop3250-9-3-0-5-1" />
    </radialGradient>
    <radialGradient
       r="62.769001"
       gradientTransform="matrix(0.27083,0,0,0.087623,-2.8550999,26.187422)"
       cx="99.156998"
       cy="186.17"
       gradientUnits="userSpaceOnUse"
       id="radialGradient3035">
      <stop
         offset="0"
         stop-color="#3d3d3d"
         id="stop3822-2-6-3" />
      <stop
         offset=".5"
         stop-opacity=".49804"
         stop-color="#686868"
         id="stop3864-8-7-7" />
      <stop
         offset="1"
         stop-opacity="0"
         stop-color="#686868"
         id="stop3824-1-2-5" />
    </radialGradient>
    <linearGradient
       x1="22.759001"
       y1="13.035"
       gradientTransform="matrix(1,0,0,1.0521,0,-0.90547)"
       x2="23.077999"
       gradientUnits="userSpaceOnUse"
       y2="25.611"
       id="linearGradient4433">
      <stop
         offset="0"
         stop-color="#fff"
         id="stop6305-1-0-2" />
      <stop
         offset="1"
         stop-opacity="0"
         stop-color="#fff"
         id="stop6307-5-0-6" />
    </linearGradient>
    <linearGradient
       id="linearGradient4829">
      <stop
         id="stop4831"
         offset="0"
         style="stop-color:#f4fbfc;stop-opacity:1;" />
      <stop
         id="stop4833"
         offset="1"
         style="stop-color:#d6d6d6;stop-opacity:1;" />
    </linearGradient>
    <radialGradient
       gradientUnits="userSpaceOnUse"
       r="127.0051"
       cy="186.51421"
       cx="224.50391"
       id="SVGID_4_">
      <stop
         id="stop27"
         style="stop-color:#FFFFFF"
         offset="0" />
      <stop
         id="stop29"
         style="stop-color:#FDFEFF"
         offset="0.3984" />
      <stop
         id="stop31"
         style="stop-color:#F5FAFF"
         offset="0.6131" />
      <stop
         id="stop33"
         style="stop-color:#E7F3FF"
         offset="0.7841" />
      <stop
         id="stop35"
         style="stop-color:#D4EAFF"
         offset="0.9311" />
      <stop
         id="stop37"
         style="stop-color:#C8E4FF"
         offset="1" />
    </radialGradient>
    <radialGradient
       id="SVGID_5_"
       cx="324.69339"
       cy="286.66409"
       r="26.769501"
       gradientUnits="userSpaceOnUse">
      <stop
         offset="0"
         style="stop-color:#FFFFFF"
         id="stop50" />
      <stop
         offset="0.3984"
         style="stop-color:#FDFEFF"
         id="stop52" />
      <stop
         offset="0.6131"
         style="stop-color:#F5FAFF"
         id="stop54" />
      <stop
         offset="0.7841"
         style="stop-color:#E7F3FF"
         id="stop56" />
      <stop
         offset="0.9311"
         style="stop-color:#D4EAFF"
         id="stop58" />
      <stop
         offset="1"
         style="stop-color:#C8E4FF"
         id="stop60" />
    </radialGradient>
    <radialGradient
       id="SVGID_6_"
       cx="325"
       cy="392.77249"
       r="46.444901"
       gradientUnits="userSpaceOnUse">
      <stop
         offset="0"
         style="stop-color:#FFFFFF"
         id="stop73" />
      <stop
         offset="0.3984"
         style="stop-color:#FDFEFF"
         id="stop75" />
      <stop
         offset="0.6131"
         style="stop-color:#F5FAFF"
         id="stop77" />
      <stop
         offset="0.7841"
         style="stop-color:#E7F3FF"
         id="stop79" />
      <stop
         offset="0.9311"
         style="stop-color:#D4EAFF"
         id="stop81" />
      <stop
         offset="1"
         style="stop-color:#C8E4FF"
         id="stop83" />
    </radialGradient>
    <clipPath
       id="clipPath-349538100">
      <g
         transform="translate(0,-1004.4)"
         id="g17">
        <path
           transform="matrix(15.333,0,0,11.5,415,878.86)"
           d="m -24,13 c 0,1.105 -0.672,2 -1.5,2 -0.828,0 -1.5,-0.895 -1.5,-2 0,-1.105 0.672,-2 1.5,-2 0.828,0 1.5,0.895 1.5,2 z"
           id="path19"
           inkscape:connector-curvature="0"
           style="fill:#1890d0" />
      </g>
    </clipPath>
    <clipPath
       id="clipPath3914">
      <g
         transform="translate(0,-1004.4)"
         id="g3912">
        <path
           transform="matrix(15.333,0,0,11.5,415,878.86)"
           d="m -24,13 c 0,1.105 -0.672,2 -1.5,2 -0.828,0 -1.5,-0.895 -1.5,-2 0,-1.105 0.672,-2 1.5,-2 0.828,0 1.5,0.895 1.5,2 z"
           id="path3910"
           inkscape:connector-curvature="0"
           style="fill:#1890d0" />
      </g>
    </clipPath>
    <clipPath
       id="clipPath3920">
      <g
         transform="translate(0,-1004.4)"
         id="g3918">
        <path
           transform="matrix(15.333,0,0,11.5,415,878.86)"
           d="m -24,13 c 0,1.105 -0.672,2 -1.5,2 -0.828,0 -1.5,-0.895 -1.5,-2 0,-1.105 0.672,-2 1.5,-2 0.828,0 1.5,0.895 1.5,2 z"
           id="path3916"
           inkscape:connector-curvature="0"
           style="fill:#1890d0" />
      </g>
    </clipPath>
    <linearGradient
       osb:paint="solid"
       id="linearGradient6987">
      <stop
         id="stop6985"
         offset="0"
         style="stop-color:#77d2fb;stop-opacity:1;" />
    </linearGradient>
    <linearGradient
       inkscape:collect="always"
       xlink:href="#linearGradient4599"
       id="linearGradient4601"
       x1="-23.370707"
       y1="265.05884"
       x2="-23.368494"
       y2="258.2641"
       gradientUnits="userSpaceOnUse"
       gradientTransform="matrix(0.97501991,-0.15031322,0.15031322,0.97501991,1.7893226,9.4995078)" />
    <filter
       id="alpha"
       width="100%"
       height="100%"
       x="0%"
       y="0%">
      <feColorMatrix
         in="SourceGraphic"
         values="0 0 0 0 1 0 0 0 0 1 0 0 0 0 1 0 0 0 1 0"
         id="feColorMatrix929" />
    </filter>
    <mask
       id="mask0">
      <g
         filter="url(#alpha)"
         id="g934">
        <rect
           width="384"
           height="384"
           style="fill-opacity:.2;fill:rgb(0%,0%,0%)"
           id="rect932" />
      </g>
    </mask>
    <clipPath
       id="clip1">
      <rect
         width="384"
         height="384"
         id="rect937" />
    </clipPath>
    <g
       id="surface5"
       clip-path="url(#clip1)">
      <path
         d="m162.49219 24.035156c-13.507813 0.222656-27.109376 3.160156-37.09375 8.109375-9.898438 4.90625-18.738282 14.425781-27.078126 29.167969-2.140624 3.78125-4.636718 7.363281-5.554687 7.96875s-4.285156 1.453125-7.464844 1.882812c-11.070312-0.371093-23.210937-2.757812-34.96875-5.140624 0 0-7.496093-1.949219-8.332031 6.152343 0.035156 1.367188 0.257812 2.65625 0.46875 3.953125 1.8125-5.617187 7.863281-4.105468 7.863281-4.105468 11.757813 2.382812 23.898438 4.769531 34.96875 5.140624 3.179688-0.429687 6.546875-1.277343 7.464844-1.882812s3.414063-4.199219 5.554687-7.980469c8.339844-14.738281 17.179688-24.25 27.078126-29.15625 11.414062-5.65625 27.554687-8.683593 42.871093-8.039062 18.414063 0.777343 34.054688 7.144531 46.832031 19.066406 8.777344 8.195313 14.589844 10.25 22.941407 8.097656 2.28125-0.589843 3.175781-0.746093 4.058593-0.855469 1.191407-1.652343 1.953126-3.363281 1.953126-4.816406 0-1.84375-0.136719-1.84375-6.011719-0.328125-8.351563 2.152344-14.164063 0.097657-22.941407-8.097656-12.777343-11.921875-28.417968-18.289063-46.832031-19.066406-1.914062-0.082031-3.84375-0.101563-5.777343-0.070313zm77.929687 40.328125c-0.410156 0.402344-0.800781 0.816407-1.269531 1.191407l-2.726563 2.203124 0.855469 0.503907c0.253906-0.042969 0.460938-0.101563 0.726562-0.136719 3.835938-0.554688 4.546876-1.980469 2.414063-3.761719zm-8.214844 11.644531c-0.457031 0.335938-0.785156 0.683594-0.785156 1.019532 0 0.398437 0.542969 3.835937 1.203125 7.636718 0.582031 3.355469 0.792969 7.929688 0.835938 12.710938 0.238281-6.9375-0.007813-13.949219-0.835938-18.710938-0.226562-1.316406-0.234375-1.535156-0.417969-2.65625zm-170.49609 34.195313c-5.027344 3.300781-7.902344 8.210937-13.792969 12.808594-0.917969 1.726562-0.429688 3.367187 1.171875 4.921875 6.414062-5.457032 9.296875-11.167969 16.910156-13.921875-1.464844-1.246094-2.851562-2.539063-4.289062-3.808594zm256.28906 45.820313c-5.183594 0-8.507812 3.1875-14.089844 10.699218-6.519531 8.789063-15.25 15.429688-21.347656 18.539063-9.554688 4.871093-16.882812 4.003906-34.152344-4.042969-18.273437-8.519531-30.953125-11.582031-49.15625-13.195312-1.289062-0.113282-2.777344-0.066407-4.242187-0.082032-3.976563 2.703125-8.339844 5.644532-9.011719 6.070313 0.847656 0 8.28125-0.433594 13.253906 0.011719 18.203125 1.613281 30.882813 4.675781 49.15625 13.195312 17.269532 8.046875 24.597656 8.914062 34.152344 4.042969 6.097656-3.109375 14.828125-9.75 21.347656-18.539063 5.582032-7.511718 8.90625-10.699218 14.089844-10.699218 5.074219 0 8.71875 3.347656 12.5625 9.210937 5.445312 8.304687 8.414062 14.230469 10.527344 28.699219 0.597656 4.132812 0.8125 10.640625 0.824218 17.445312 0.195313-8.976562-0.046874-18.070312-0.824218-23.445312-2.113282-14.46875-5.082032-20.394532-10.527344-28.699219-3.84375-5.863281-7.488281-9.210937-12.5625-9.210937zm-216 3.371093c-0.253906 5.238281-1.375 10.058594-4.625 16.363281-3.75 7.273438-7.84375 13.054688-15.941406 21.960938-14.582032 16.054688-24.941406 33.121094-29.496094 48.597656-1.648438 5.597656-2.285156 11.917969-2.039062 18.570313 0.222656-4.449219 0.894531-8.679688 2.039062-12.570313 4.554688-15.476562 14.914062-32.542968 29.496094-48.597656 8.097656-8.90625 12.191406-14.6875 15.941406-21.960938 4.433594-8.605468 4.96875-14.449218 4.625-22.363281z"
         style="fill:rgb(100%,100%,100%)"
         id="path940" />
    </g>
    <mask
       id="mask1">
      <g
         filter="url(#alpha)"
         id="g945">
        <rect
           width="384"
           height="384"
           style="fill-opacity:.2;fill:rgb(0%,0%,0%)"
           id="rect943" />
      </g>
    </mask>
    <clipPath
       id="clip2">
      <rect
         width="384"
         height="384"
         id="rect948" />
    </clipPath>
    <g
       id="surface8"
       clip-path="url(#clip2)">
      <path
         d="m243.25781 56.179688c-0.171874-0.011719-0.917968 0.210937-1.171874 0.246093-0.796876 1.09375-1.75 2.175781-2.929688 3.128907l-2.730469 2.203124 2.753907 1.640626c0.574218 0.339843 0.863281 0.640624 1.242187 0.960937 2.210937-2.1875 3.632813-4.71875 3.632813-6.761719 0-0.921875-0.027344-1.375-0.796876-1.417968zm-5.988281 12.082031c-3.363281 0.589843-5.847656 1.722656-5.847656 2.765625 0 0.257812 0.441406 2.878906 0.785156 4.980468 1.066407-0.785156 3.167969-1.507812 5.800781-1.886718 4.515626-0.652344 4.96875-2.46875 1.171876-4.722656zm-194.80078 7.859375c-0.199219 0.617187-0.386719 1.253906-0.46875 2.050781 0.355469 13.265625 9.480469 22.996094 19.710938 32.027344 1.269531-0.832031 2.652343-1.601563 4.289062-2.1875-10.800781-9.210938-21.386719-18.847657-23.53125-31.890625zm190.99219 21.246094c-0.230469 6.667968-0.914063 13.25-1.992188 17.625-3.410156 13.835937-8.582031 23.582031-17.402344 32.835937-6.867187 6.238281-26.257812 19.042969-28.070312 20.183594 0.632812 0 4.851562-0.136719 9.035156-0.082031 6.734375-4.582032 14.722656-10.179688 19.03125-14.097657 8.820312-9.25 13.996094-18.996093 17.402344-32.835937 1.414062-5.71875 2.066406-15.097656 1.992187-23.625zm-184.37109 30.574218c-0.414063 0.355469-0.71875 0.714844-1.171875 1.066406-1.417969 2.675782 0.214843 5.175782 4.804687 7.394532 5.921875 2.855468 11.992188 3.625 24.390625 3.035156 12.695313-0.609375 14.386719 1.269531 18.492188 4.664062 4.328125 3.601563 6.027343 7 6.394531 14.894532 0.007812 0.140625-0.003906 0.261718 0 0.398437 0.101562-2.035156 0.109375-4.132812 0-6.410156-0.367188-7.894531-2.066406-11.28125-6.394531-14.882813-4.105469-3.394531-5.796875-5.285156-18.492188-4.675781-12.398437 0.589844-18.46875-0.167969-24.390625-3.023437-1.621094-0.785156-2.753906-1.605469-3.632812-2.460938zm292.82422 89.4375c-0.175781 8.300782-0.71875 16.507813-1.617187 21.457032-11.171875 61.597656-50.480469 103.0625-110.49609 116.56641-16.195312 3.644531-22.71875 4.300781-45.160156 4.535156-11.644531 0.125-22.519531 0.085938-24.15625-0.082031v-0.011719c-37.652344-3.851562-63.890625-14.621094-83.273437-34.191406-7.828126-7.910156-13.144532-15.179688-17.5625-24.023438-5.847657-11.691406-9.1875-24.296875-9.75-35.90625-0.496094 13.167969 2.875 28.160156 9.75 41.90625 4.417968 8.84375 9.734374 16.117188 17.566406 24.023438 19.378906 19.570312 45.613281 30.355468 83.273437 34.207031 1.632813 0.167969 12.507813 0.203125 24.152344 0.082031 22.445313-0.234375 28.964844-0.890625 45.164063-4.535156 60.011718-13.5 99.324218-54.96875 110.49609-116.56641 1.121094-6.183594 1.640625-17.246094 1.617188-27.457032z"
         style="fill:rgb(0%,0%,0%)"
         id="path951" />
    </g>
    <linearGradient
       id="linearGradient1117"
       x1="-248.932"
       x2="249.882"
       y1="515.328"
       y2="249.017"
       gradientUnits="userSpaceOnUse">
      <stop
         style="stop-color:#4aaee6"
         offset="0"
         id="stop954" />
      <stop
         style="stop-color:#357af0"
         offset="1"
         id="stop956" />
    </linearGradient>
    <linearGradient
       gradientUnits="userSpaceOnUse"
       gradientTransform="scale(0.69850138,1.4316364)"
       x1="0"
       y1="116.54461"
       x2="186.14996"
       y2="116.54461"
       id="linearGradient-1">
      <stop
         stop-color="#FFFFFF"
         offset="0%"
         id="stop4511" />
      <stop
         stop-color="#FFFFFF"
         stop-opacity="0.9576"
         offset="14.13%"
         id="stop4513" />
      <stop
         stop-color="#FFFFFF"
         stop-opacity="0.7"
         offset="100%"
         id="stop4515" />
    </linearGradient>
    <linearGradient
       gradientUnits="userSpaceOnUse"
       gradientTransform="scale(0.68561406,1.4585465)"
       x1="187.35059"
       y1="112.26521"
       x2="373.38791"
       y2="112.26521"
       id="linearGradient-2">
      <stop
         stop-color="#F1F1F2"
         offset="0%"
         id="stop4518" />
      <stop
         stop-color="#E4E5E6"
         offset="9.191442%"
         id="stop4520" />
      <stop
         stop-color="#D9DADB"
         offset="23.57%"
         id="stop4522" />
      <stop
         stop-color="#D2D4D5"
         offset="43.8%"
         id="stop4524" />
      <stop
         stop-color="#D0D2D3"
         offset="100%"
         id="stop4526" />
    </linearGradient>
    <linearGradient
       y2="71.020111"
       x2="84.091423"
       y1="117.04197"
       x1="122.34071"
       gradientUnits="userSpaceOnUse"
       id="linearGradient948"
       xlink:href="#linearGradient944"
       inkscape:collect="always"
       gradientTransform="matrix(0.26458333,0,0,0.26458333,-73.214422,269.22893)" />
    <linearGradient
       id="linearGradient944"
       inkscape:collect="always">
      <stop
         id="stop940"
         offset="0"
         style="stop-color:#d5dada;stop-opacity:1" />
      <stop
         id="stop942"
         offset="1"
         style="stop-color:#f1f1f1;stop-opacity:1" />
    </linearGradient>
    <filter
       y="-0.082800001"
       x="-0.082800001"
       width="1.1655999"
       height="1.1655999"
       id="c"
       style="color-interpolation-filters:sRGB">
      <feGaussianBlur
         id="feGaussianBlur10"
         stdDeviation="2.1101835" />
    </filter>
    <filter
       y="-0.015513"
       x="-0.015688"
       width="1.031376"
       height="1.031026"
       id="a"
       style="color-interpolation-filters:sRGB">
      <feGaussianBlur
         id="feGaussianBlur2"
         stdDeviation=".7986332" />
    </filter>
    <filter
       style="color-interpolation-filters:sRGB"
       id="h"
       height="1.113"
       width="1.127924"
       x="-0.063961998"
       y="-0.056499999">
      <feGaussianBlur
         stdDeviation="2.1746765"
         id="feGaussianBlur13" />
    </filter>
    <linearGradient
       id="i"
       gradientUnits="userSpaceOnUse"
       x1="372.06885"
       x2="387.12045"
       y1="947.00079"
       y2="947.00079">
      <stop
         offset="0"
         stop-color="#828398"
         id="stop16" />
      <stop
         offset=".05013223"
         stop-color="#4f4e50"
         id="stop18" />
      <stop
         offset=".14024317"
         stop-color="#e8e5eb"
         id="stop20" />
      <stop
         offset=".23170672"
         stop-color="#e9d3d9"
         stop-opacity=".941176"
         id="stop22" />
      <stop
         offset=".76219523"
         stop-color="#c4c2c7"
         id="stop24" />
      <stop
         offset=".86999255"
         stop-color="#f4f1fa"
         id="stop26" />
      <stop
         offset=".93410021"
         stop-color="#b8b8bf"
         id="stop28" />
      <stop
         offset="1"
         stop-color="#c1bfcc"
         id="stop30" />
    </linearGradient>
    <linearGradient
       id="j"
       gradientUnits="userSpaceOnUse"
       x1="368.21414"
       x2="394.8298"
       y1="1018.9549"
       y2="1018.5878">
      <stop
         offset="0"
         stop-color="#130804"
         id="stop33-0" />
      <stop
         offset=".16970721"
         stop-color="#0f0704"
         id="stop35-9" />
      <stop
         offset=".23766069"
         stop-color="#323033"
         id="stop37-3" />
      <stop
         offset=".71842611"
         stop-color="#323033"
         id="stop39" />
      <stop
         offset=".84821641"
         stop-color="#141215"
         id="stop41" />
      <stop
         offset="1"
         stop-color="#00010e"
         id="stop43" />
    </linearGradient>
    <linearGradient
       id="k"
       gradientUnits="userSpaceOnUse"
       x1="367.84705"
       x2="372.25238"
       y1="904.78284"
       y2="917.9989">
      <stop
         offset="0"
         stop-color="#2d2d39"
         id="stop46" />
      <stop
         offset="1"
         stop-color="#acabb0"
         id="stop48" />
    </linearGradient>
    <linearGradient
       id="l"
       gradientUnits="userSpaceOnUse"
       x1="389.50668"
       x2="414.05841"
       y1="902.21301"
       y2="908.79163">
      <stop
         offset="0"
         stop-color="#59585d"
         id="stop51" />
      <stop
         offset=".19257796"
         stop-color="#010103"
         id="stop53" />
      <stop
         offset=".54332471"
         stop-color="#5b5b5d"
         id="stop55" />
      <stop
         offset="1"
         stop-color="#171719"
         id="stop57" />
    </linearGradient>
    <linearGradient
       id="m"
       gradientUnits="userSpaceOnUse"
       x1="-353.81839"
       x2="-353.81839"
       y1="903.40106"
       y2="883.11084">
      <stop
         offset="0"
         stop-color="#202024"
         id="stop60-6" />
      <stop
         offset=".3368493"
         stop-color="#919095"
         id="stop62" />
      <stop
         offset=".53881687"
         stop-color="#4e4d51"
         id="stop64" />
      <stop
         offset=".69465232"
         stop-color="#cfcfd1"
         id="stop66" />
      <stop
         offset="1"
         stop-color="#69696b"
         id="stop68" />
    </linearGradient>
    <linearGradient
       id="n"
       gradientUnits="userSpaceOnUse"
       x1="338.84512"
       x2="338.84512"
       y1="903.66016"
       y2="883.85742">
      <stop
         offset="0"
         stop-color="#181820"
         id="stop71" />
      <stop
         offset=".03511503"
         stop-color="#86858a"
         id="stop73-0" />
      <stop
         offset=".14091089"
         stop-color="#7a797e"
         id="stop75-6" />
      <stop
         offset=".19626147"
         stop-color="#2f2e33"
         id="stop77-2" />
      <stop
         offset=".33304867"
         stop-color="#414045"
         id="stop79-6" />
      <stop
         offset=".43142435"
         stop-color="#545358"
         id="stop81-1" />
      <stop
         offset=".56074804"
         stop-color="#ebeaf0"
         id="stop83-8" />
      <stop
         offset=".69158942"
         stop-color="#abaaaf"
         id="stop85" />
      <stop
         offset=".85981399"
         stop-color="#d7d6dc"
         id="stop87" />
      <stop
         offset="1"
         stop-color="#66656a"
         id="stop89" />
    </linearGradient>
    <linearGradient
       id="o"
       gradientUnits="userSpaceOnUse"
       x1="367.84705"
       x2="415.57172"
       y1="-67.365196"
       y2="-50.845123">
      <stop
         offset="0"
         stop-color="#c7c6cb"
         id="stop92" />
      <stop
         offset=".54332471"
         stop-color="#fcfcfd"
         id="stop94" />
      <stop
         offset="1"
         stop-color="#d8d8da"
         id="stop96" />
    </linearGradient>
    <filter
       style="color-interpolation-filters:sRGB"
       id="p"
       height="1.272905"
       width="1.039886"
       x="-0.019943001"
       y="-0.136453">
      <feGaussianBlur
         stdDeviation=".19828681"
         id="feGaussianBlur99" />
    </filter>
    <linearGradient
       inkscape:collect="always"
       xlink:href="#linearGradient4938"
       id="linearGradient4940"
       x1="-30.145456"
       y1="290.81143"
       x2="-25.074585"
       y2="269.00232"
       gradientUnits="userSpaceOnUse" />
  </defs>
  <sodipodi:namedview
     id="base"
     pagecolor="#ffffff"
     bordercolor="#666666"
     borderopacity="1.0"
     inkscape:pageopacity="0.0"
     inkscape:pageshadow="2"
     inkscape:zoom="3.4309129"
     inkscape:cx="98.536274"
     inkscape:cy="91.158229"
     inkscape:document-units="mm"
     inkscape:current-layer="layer1"
     showgrid="false"
     units="px"
     inkscape:window-width="1920"
     inkscape:window-height="1040"
     inkscape:window-x="0"
     inkscape:window-y="0"
     inkscape:window-maximized="1"
     showguides="true" />
  <metadata
     id="metadata5">
    <rdf:RDF>
      <cc:Work
         rdf:about="">
        <dc:format>image/svg+xml</dc:format>
        <dc:type
           rdf:resource="http://purl.org/dc/dcmitype/StillImage" />
        <dc:title></dc:title>
      </cc:Work>
    </rdf:RDF>
  </metadata>
  <g
     inkscape:label="Capa 1"
     inkscape:groupmode="layer"
     id="layer1"
     transform="translate(0,-263.13332)">
    <path
       inkscape:connector-curvature="0"
       d=""
       style="opacity:1;fill:url(#linearGradient948);fill-opacity:1;stroke:none;stroke-width:0.57240593;stroke-linecap:round;stroke-linejoin:round;stroke-miterlimit:4;stroke-dasharray:none;stroke-dashoffset:0;stroke-opacity:0.03831416;paint-order:fill markers stroke"
       id="path864"
       r="28.431282"
       cy="97.610519"
       cx="103.31834" />
    <g
       id="g4866"
       transform="matrix(0.97506879,-0.14999582,0.14999582,0.97506879,22.550405,10.714557)"
       style="opacity:0.38900003">
      <rect
         style="opacity:1;fill:none;fill-opacity:1;stroke:#000000;stroke-width:0.15000001;stroke-linecap:round;stroke-linejoin:round;stroke-miterlimit:4;stroke-dasharray:none;stroke-dashoffset:0;stroke-opacity:0.03921569;paint-order:fill markers stroke"
         id="rect4848"
         width="25.830492"
         height="29.56739"
         x="-61.94516"
         y="253.76543"
         rx="1.4423118"
         ry="1.4423118"
         transform="rotate(-0.01865124)" />
      <rect
         transform="rotate(-0.01865124)"
         ry="1.4423118"
         rx="1.4423118"
         y="253.76543"
         x="-61.94516"
         height="29.56739"
         width="25.830492"
         id="rect4850"
         style="opacity:1;fill:none;fill-opacity:1;stroke:#000000;stroke-width:0.30000001;stroke-linecap:round;stroke-linejoin:round;stroke-miterlimit:4;stroke-dasharray:none;stroke-dashoffset:0;stroke-opacity:0.03921569;paint-order:fill markers stroke" />
      <rect
         style="opacity:1;fill:none;fill-opacity:1;stroke:#000000;stroke-width:0.44999999;stroke-linecap:round;stroke-linejoin:round;stroke-miterlimit:4;stroke-dasharray:none;stroke-dashoffset:0;stroke-opacity:0.03921569;paint-order:fill markers stroke"
         id="rect4852"
         width="25.830492"
         height="29.56739"
         x="-61.94516"
         y="253.76543"
         rx="1.4423118"
         ry="1.4423118"
         transform="rotate(-0.01865124)" />
      <rect
         transform="rotate(-0.01865124)"
         ry="1.4423118"
         rx="1.4423118"
         y="253.76543"
         x="-61.94516"
         height="29.56739"
         width="25.830492"
         id="rect4854"
         style="opacity:1;fill:none;fill-opacity:1;stroke:#000000;stroke-width:0.60000002;stroke-linecap:round;stroke-linejoin:round;stroke-miterlimit:4;stroke-dasharray:none;stroke-dashoffset:0;stroke-opacity:0.03921569;paint-order:fill markers stroke" />
      <rect
         style="opacity:1;fill:none;fill-opacity:1;stroke:#000000;stroke-width:0.85000002;stroke-linecap:round;stroke-linejoin:round;stroke-miterlimit:4;stroke-dasharray:none;stroke-dashoffset:0;stroke-opacity:0.03921569;paint-order:fill markers stroke"
         id="rect4856"
         width="25.830492"
         height="29.56739"
         x="-61.94516"
         y="253.76543"
         rx="1.4423118"
         ry="1.4423118"
         transform="rotate(-0.01865124)" />
      <rect
         transform="rotate(-0.01865124)"
         ry="1.4423118"
         rx="1.4423118"
         y="253.76543"
         x="-61.94516"
         height="29.56739"
         width="25.830492"
         id="rect4858"
         style="opacity:1;fill:none;fill-opacity:1;stroke:#000000;stroke-width:1;stroke-linecap:round;stroke-linejoin:round;stroke-miterlimit:4;stroke-dasharray:none;stroke-dashoffset:0;stroke-opacity:0.03921569;paint-order:fill markers stroke" />
    </g>
    <rect
       style="opacity:1;fill:url(#linearGradient4940);fill-opacity:1;stroke:none;stroke-width:0.362988;stroke-linecap:round;stroke-linejoin:round;stroke-miterlimit:4;stroke-dasharray:none;stroke-dashoffset:0;stroke-opacity:0.14828898;paint-order:fill markers stroke"
       id="rect4587"
       width="25.482771"
       height="29.169365"
       x="-40.456676"
       y="264.37466"
       rx="1.4228958"
       ry="1.4228958"
       transform="rotate(-8.763966)" />
    <path
       style="fill:none;stroke:#ffffff;stroke-width:1.47025824;stroke-linecap:round;stroke-linejoin:round;stroke-miterlimit:4;stroke-dasharray:none;stroke-opacity:1"
       d="m 17.538954,279.19479 -2.879713,8.52541"
       id="path4921"
       inkscape:connector-curvature="0"
       sodipodi:nodetypes="cc" />
    <path
       style="opacity:1;fill:url(#linearGradient4601);fill-opacity:1;stroke:none;stroke-width:0.362988;stroke-linecap:round;stroke-linejoin:round;stroke-miterlimit:4;stroke-dasharray:none;stroke-dashoffset:0;stroke-opacity:0.14828898;paint-order:fill markers stroke"
       d="M 1.7032208,267.23528 24.0759,263.78621 c 0.779081,-0.1201 1.502975,0.41041 1.623081,1.18949 l 0.780313,5.06099 -25.1866199,3.87489 -0.77887539,-5.05282 c -0.12009262,-0.77908 0.41040377,-1.50297 1.18948369,-1.62308 z"
       id="rect4592"
       inkscape:connector-curvature="0"
       sodipodi:nodetypes="sssccss" />
    <g
       id="g4654"
       transform="matrix(0.89651188,-0.13791133,0.13791133,0.89651188,1.9045534,30.378795)">
      <circle
         r="1.3359921"
         cy="261.90976"
         cx="-38.525646"
         id="path4603"
         style="opacity:1;fill:#ff2911;fill-opacity:1;stroke:none;stroke-width:0.89999998;stroke-linecap:round;stroke-linejoin:round;stroke-miterlimit:4;stroke-dasharray:none;stroke-dashoffset:0;stroke-opacity:1;paint-order:fill markers stroke" />
      <circle
         style="opacity:1;fill:#f89c22;fill-opacity:1;stroke:none;stroke-width:0.89999998;stroke-linecap:round;stroke-linejoin:round;stroke-miterlimit:4;stroke-dasharray:none;stroke-dashoffset:0;stroke-opacity:1;paint-order:fill markers stroke"
         id="circle4605"
         cx="-34.572197"
         cy="261.90976"
         r="1.3359921" />
      <circle
         r="1.3359921"
         cy="261.90976"
         cx="-30.618753"
         id="circle4607"
         style="opacity:1;fill:#2ecc3f;fill-opacity:1;stroke:none;stroke-width:0.89999998;stroke-linecap:round;stroke-linejoin:round;stroke-miterlimit:4;stroke-dasharray:none;stroke-dashoffset:0;stroke-opacity:1;paint-order:fill markers stroke" />
      <path
         id="circle4609"
         transform="matrix(0.26458333,0,0,0.26458333,0,263.13332)"
         d="m -150.60742,-5.2949219 a 5.049419,5.049419 0 0 0 -0.0508,0.6699219 5.049419,5.049419 0 0 0 5.04882,5.05078125 5.049419,5.049419 0 0 0 5.05079,-5.05078125 5.049419,5.049419 0 0 0 -0.0508,-0.6660156 5.049419,5.049419 0 0 1 -5,4.3769531 5.049419,5.049419 0 0 1 -4.99804,-4.3808594 z"
         style="opacity:1;fill:#e61700;fill-opacity:0.80303034;stroke:none;stroke-width:3.40157461;stroke-linecap:round;stroke-linejoin:round;stroke-miterlimit:4;stroke-dasharray:none;stroke-dashoffset:0;stroke-opacity:1;paint-order:fill markers stroke"
         inkscape:connector-curvature="0" />
      <path
         id="circle4614"
         transform="matrix(0.26458333,0,0,0.26458333,0,263.13332)"
         d="m -145.60938,-9.6738281 a 5.049419,5.049419 0 0 0 -5.04882,5.0488281 5.049419,5.049419 0 0 0 0.0586,0.7265625 5.049419,5.049419 0 0 1 4.99023,-4.3320313 5.049419,5.049419 0 0 1 4.99219,4.3242188 5.049419,5.049419 0 0 0 0.0586,-0.71875 5.049419,5.049419 0 0 0 -5.05079,-5.0488281 z"
         style="opacity:1;fill:#ff6b5b;fill-opacity:0.39772728;stroke:none;stroke-width:3.40157461;stroke-linecap:round;stroke-linejoin:round;stroke-miterlimit:4;stroke-dasharray:none;stroke-dashoffset:0;stroke-opacity:1;paint-order:fill markers stroke"
         inkscape:connector-curvature="0" />
      <path
         id="circle4621"
         transform="matrix(0.26458333,0,0,0.26458333,0,263.13332)"
         d="m -125.67188,-5.3183594 a 5.049419,5.049419 0 0 1 -4.99414,4.35937502 5.049419,5.049419 0 0 1 -4.99609,-4.35742182 5.049419,5.049419 0 0 0 -0.0547,0.6914062 5.049419,5.049419 0 0 0 5.05078,5.05078125 5.049419,5.049419 0 0 0 5.04883,-5.05078125 5.049419,5.049419 0 0 0 -0.0547,-0.6933594 z"
         style="opacity:1;fill:#ec8a07;fill-opacity:1;stroke:none;stroke-width:3.40157461;stroke-linecap:round;stroke-linejoin:round;stroke-miterlimit:4;stroke-dasharray:none;stroke-dashoffset:0;stroke-opacity:1;paint-order:fill markers stroke"
         inkscape:connector-curvature="0" />
      <path
         id="circle4627"
         transform="matrix(0.26458333,0,0,0.26458333,0,263.13332)"
         d="m -130.66602,-9.6738281 a 5.049419,5.049419 0 0 0 -5.05078,5.0488281 5.049419,5.049419 0 0 0 0.0449,0.6113281 5.049419,5.049419 0 0 1 5.00586,-4.421875 5.049419,5.049419 0 0 1 5.00586,4.4355469 5.049419,5.049419 0 0 0 0.043,-0.625 5.049419,5.049419 0 0 0 -5.04883,-5.0488281 z"
         style="opacity:1;fill:#f9aa42;fill-opacity:0.85144923;stroke:none;stroke-width:3.40157461;stroke-linecap:round;stroke-linejoin:round;stroke-miterlimit:4;stroke-dasharray:none;stroke-dashoffset:0;stroke-opacity:1;paint-order:fill markers stroke"
         inkscape:connector-curvature="0" />
      <path
         id="circle4632"
         transform="matrix(0.26458333,0,0,0.26458333,0,263.13332)"
         d="m -110.72461,-5.296875 a 5.049419,5.049419 0 0 1 -5,4.3828125 5.049419,5.049419 0 0 1 -5,-4.3789063 5.049419,5.049419 0 0 0 -0.0488,0.6679688 5.049419,5.049419 0 0 0 5.04883,5.05078125 5.049419,5.049419 0 0 0 5.04883,-5.05078125 5.049419,5.049419 0 0 0 -0.0488,-0.671875 z"
         style="opacity:1;fill:#27ae36;fill-opacity:1;stroke:none;stroke-width:3.40157461;stroke-linecap:round;stroke-linejoin:round;stroke-miterlimit:4;stroke-dasharray:none;stroke-dashoffset:0;stroke-opacity:1;paint-order:fill markers stroke"
         inkscape:connector-curvature="0" />
      <path
         id="circle4638"
         transform="matrix(0.26458333,0,0,0.26458333,0,263.13332)"
         d="m -115.72461,-9.6738281 a 5.049419,5.049419 0 0 0 -5.04883,5.0488281 5.049419,5.049419 0 0 0 0.0488,0.671875 5.049419,5.049419 0 0 1 5,-4.3808594 5.049419,5.049419 0 0 1 5,4.3769532 5.049419,5.049419 0 0 0 0.0488,-0.6679688 5.049419,5.049419 0 0 0 -5.04883,-5.0488281 z"
         style="opacity:1;fill:#50d85f;fill-opacity:0.77536232;stroke:none;stroke-width:3.40157461;stroke-linecap:round;stroke-linejoin:round;stroke-miterlimit:4;stroke-dasharray:none;stroke-dashoffset:0;stroke-opacity:1;paint-order:fill markers stroke"
         inkscape:connector-curvature="0" />
    </g>
    <g
       id="g4665"
       transform="matrix(0.97506879,-0.14999582,0.14999582,0.97506879,1.7893226,9.4995078)">
      <rect
         style="opacity:1;fill:none;fill-opacity:0.85144923;stroke:#000000;stroke-width:0.1;stroke-linecap:round;stroke-linejoin:round;stroke-miterlimit:4;stroke-dasharray:none;stroke-dashoffset:0;stroke-opacity:0.06439394;paint-order:fill markers stroke"
         id="rect4656"
         width="10.469816"
         height="2.6029928"
         x="-27.810446"
         y="260.42462"
         rx="1.3014964"
         ry="1.3014964" />
      <rect
         ry="1.3014964"
         rx="1.3014964"
         y="260.42462"
         x="-27.810446"
         height="2.6029928"
         width="10.469816"
         id="rect4658"
         style="opacity:1;fill:none;fill-opacity:0.85144923;stroke:#000000;stroke-width:0.2;stroke-linecap:round;stroke-linejoin:round;stroke-miterlimit:4;stroke-dasharray:none;stroke-dashoffset:0;stroke-opacity:0.06439394;paint-order:fill markers stroke" />
      <rect
         style="opacity:1;fill:none;fill-opacity:0.85144923;stroke:#000000;stroke-width:0.30000001;stroke-linecap:round;stroke-linejoin:round;stroke-miterlimit:4;stroke-dasharray:none;stroke-dashoffset:0;stroke-opacity:0.06439394;paint-order:fill markers stroke"
         id="rect4660"
         width="10.469816"
         height="2.6029928"
         x="-27.810446"
         y="260.42462"
         rx="1.3014964"
         ry="1.3014964" />
    </g>
    <rect
       style="opacity:1;fill:#ffffff;fill-opacity:0.85144923;stroke:none;stroke-width:0.94184434;stroke-linecap:round;stroke-linejoin:round;stroke-miterlimit:4;stroke-dasharray:none;stroke-dashoffset:0;stroke-opacity:1;paint-order:fill markers stroke"
       id="rect4643"
       width="10.328876"
       height="2.5679522"
       x="-27.111881"
       y="266.57999"
       rx="1.2839761"
       ry="1.2839761"
       transform="rotate(-8.7453148)" />
    <path
       style="opacity:1;fill:#cccccc;fill-opacity:0.85144923;stroke:none;stroke-width:0.94184434;stroke-linecap:round;stroke-linejoin:round;stroke-miterlimit:4;stroke-dasharray:none;stroke-dashoffset:0;stroke-opacity:1;paint-order:fill markers stroke"
       d="m 23.906126,268.25672 c -0.09705,0.13233 -0.219446,0.24607 -0.361521,0.33349 -0.142074,0.0874 -0.303833,0.14851 -0.479596,0.17555 l -7.670693,1.17999 c -0.175763,0.027 -0.348405,0.0174 -0.510183,-0.0233 -0.161784,-0.0407 -0.312707,-0.11237 -0.445039,-0.20942 0.391567,0.008 0.816075,0.0476 1.250481,-0.0198 l 6.963841,-1.08024 c 0.463076,-0.0718 0.875752,-0.23577 1.252751,-0.356 z"
       id="rect4667"
       inkscape:connector-curvature="0"
       sodipodi:nodetypes="csssscssc" />
    <rect
       style="opacity:1;fill:#000000;fill-opacity:0.15530306;stroke:none;stroke-width:0.2959615;stroke-linecap:round;stroke-linejoin:round;stroke-miterlimit:4;stroke-dasharray:none;stroke-dashoffset:0;stroke-opacity:0.06439394;paint-order:fill markers stroke"
       id="rect4670"
       width="25.482946"
       height="0.43379739"
       x="-40.368576"
       y="270.92322"
       rx="0"
       ry="0"
       transform="rotate(-8.7453148)" />
    <rect
       ry="0"
       rx="0"
       y="270.6777"
       x="-40.368576"
       height="0.24552155"
       width="25.482946"
       id="rect4672"
       style="opacity:1;fill:#ffffff;fill-opacity:0.15530306;stroke:none;stroke-width:0.2959615;stroke-linecap:round;stroke-linejoin:round;stroke-miterlimit:4;stroke-dasharray:none;stroke-dashoffset:0;stroke-opacity:0.06439394;paint-order:fill markers stroke"
       transform="rotate(-8.7453148)" />
    <path
       style="fill:none;stroke:#ffffff;stroke-width:1.47025824;stroke-linecap:round;stroke-linejoin:round;stroke-miterlimit:4;stroke-dasharray:none;stroke-opacity:1"
       d="m 10.322914,280.12809 -4.6054954,4.98395 6.4999104,3.0466"
       id="path4919"
       inkscape:connector-curvature="0"
       sodipodi:nodetypes="ccc" />
    <path
       sodipodi:nodetypes="ccc"
       inkscape:connector-curvature="0"
       id="path4932"
       d="m 19.791539,278.4763 6.020998,3.13016 -5.084411,5.06748"
       style="fill:none;stroke:#ffffff;stroke-width:1.47025824;stroke-linecap:round;stroke-linejoin:round;stroke-miterlimit:4;stroke-dasharray:none;stroke-opacity:1" />
    <g
       id="g440"
       transform="matrix(0.29926804,0,0,0.29071694,3.279888,-11.471092)">
      <path
         style="opacity:0.3;fill-rule:evenodd;filter:url(#h)"
         inkscape:connector-curvature="0"
         id="path404"
         d="m 53.505859,964.14734 c -8.581472,0.005 -14.724789,2.81747 -22.666015,7.40234 -2.316875,6.03406 -5.057496,7.02371 -11.128906,7.00977 l -5.310547,3.0664 c 1.583969,4.45698 2.176422,5.69428 5.90625,10.22852 l 5.310547,-3.06641 c 2.282091,-3.83675 5.283909,-7.81154 11.714843,-5.03125 l -0.0039,-0.01 c 5.714028,0.059 7.194103,5.10965 7.203125,5.14062 v 0.006 h 0.002 c 8e-6,0 0.0019,0.002 0.002,0.002 0.0061,0.002 0.515917,0.17507 0.759766,0.25977 l 8.929687,15.4667 -0.0078,0.012 c -0.30448,0.5273 -0.09534,1.1335 0.109375,1.6289 l 10.621094,21.502 14.140625,24.8145 c 0,0 0.993705,2.4668 1.550781,3.4316 0.557106,0.9653 2.565782,0.3223 3.851562,0.033 l 10.81836,-6.7421 c 0,0 1.275791,-1.2156 0.359375,-2.8027 -0.916416,-1.5873 -2.390625,-3.0704 -2.390625,-3.0704 l -11.671875,-17.8634 -7.445313,-10.5391 -11.173828,-14.7499 c -0.178199,-0.1782 -0.444531,-0.2861 -0.757812,-0.334 l 0.03125,-0.01 -9.796875,-14.9414 0.05273,-0.71875 -0.335937,-0.50586 -0.02539,-0.004 c -0.02547,-0.033 -1.94617,-2.52362 -2.648438,-4.69726 -0.706955,-2.1881 0.360454,-3.97894 4.16211,-6.17383 3.801655,-2.19488 13.324898,-1.75826 19.849609,0.65625 0.408978,0.16568 0.693728,0.19037 0.859375,0.10547 l 0.0039,0.0215 c 0.532958,-0.30771 0.367626,-0.96926 0.04297,-1.68945 l 0.0098,-0.0469 -0.03906,-0.0234 c -0.0024,-0.005 -0.0034,-0.0104 -0.0059,-0.0156 l -0.002,0.008 -2.261719,-1.42579 c 0.377522,0.11882 0.755063,0.23601 1.134766,0.3711 0.399057,0.17221 0.642,0.20036 0.785156,0.13476 l 0.0039,0.01 c 0.0078,-0.005 0.01202,-0.0127 0.01953,-0.0176 0.02382,-0.0136 0.04143,-0.0328 0.05859,-0.0527 0.450137,-0.38741 0.242225,-1.34489 -0.123047,-2.13868 l 0.002,-0.004 -0.0039,-0.002 c -0.0023,-0.005 -0.0035,-0.0106 -0.0059,-0.0156 l -0.0039,0.01 c -2.127146,-1.36207 -4.899676,-2.2578 -6.875,-2.80079 -5.306624,-1.25549 -9.710659,-1.83239 -13.611329,-1.83007 z m 2.507813,0.52929 c 0.169964,0.002 0.354972,0.0157 0.527344,0.0195 -0.311025,-0.007 -0.620542,-0.0119 -0.923828,-0.0117 0.134876,-9e-5 0.260101,-0.009 0.396484,-0.008 z m -1.761719,0.0371 c -0.26905,0.01 -0.541256,0.0155 -0.804687,0.0312 0.26308,-0.0157 0.536002,-0.0213 0.804687,-0.0312 z m 3.710938,0.0391 c 0.321608,0.0175 0.646208,0.0358 0.976562,0.0605 -0.33062,-0.0248 -0.654701,-0.043 -0.976562,-0.0605 z m -6.003907,0.11914 c -0.184488,0.0193 -0.374616,0.0324 -0.55664,0.0547 0.181868,-0.0222 0.372312,-0.0354 0.55664,-0.0547 z m 8.490235,0.0801 c 0.347832,0.0361 0.692904,0.0696 1.050781,0.11329 -0.358231,-0.0438 -0.702613,-0.0772 -1.050781,-0.11329 z m 2.736328,0.34766 c 0.352139,0.0524 0.694603,0.0969 1.056641,0.15625 -0.36271,-0.0595 -0.703864,-0.10379 -1.056641,-0.15625 z m -15.646485,0.34961 c -0.194057,0.0495 -0.383898,0.10904 -0.576171,0.16211 0.192259,-0.0531 0.382128,-0.11259 0.576171,-0.16211 z m 11.884766,0.51562 c 0.07634,0.002 0.15046,0.009 0.226563,0.0117 -0.45044,-0.0148 -0.905804,-0.0164 -1.363282,-0.01 0.380509,-0.006 0.761205,-0.0112 1.136719,-0.002 z m -1.507812,0.002 c 0.04331,-10e-4 0.08565,10e-4 0.128906,0 -0.549319,0.0128 -1.102649,0.0399 -1.658203,0.0879 -1.700047,0.14701 -3.108592,0.50161 -4.267578,1.00586 -0.614025,0.26715 -1.138923,0.58718 -1.619141,0.92969 0.480511,-0.34284 1.004621,-0.66233 1.619141,-0.92969 1.159008,-0.50426 2.56753,-0.85885 4.267578,-1.00586 0.512213,-0.0443 1.022747,-0.0735 1.529297,-0.0879 z m -12.236328,0.0215 c -0.212235,0.0683 -0.421973,0.14422 -0.632813,0.2168 0.210429,-0.0724 0.420995,-0.14861 0.632813,-0.2168 z m 14.357421,0.006 c 0.4069,0.0184 0.810324,0.0427 1.208985,0.0762 -0.39843,-0.0338 -0.802607,-0.0575 -1.208985,-0.0762 z m 1.603516,0.11328 c 0.391176,0.0377 0.777103,0.0807 1.158203,0.13086 -0.380745,-0.0503 -0.767668,-0.0929 -1.158203,-0.13086 z m 1.486328,0.17578 c 0.450092,0.0636 0.891372,0.13326 1.324219,0.21094 -0.431612,-0.0776 -0.875847,-0.14736 -1.324219,-0.21094 z m 1.367188,0.21875 c 0.351143,0.0635 0.683298,0.13418 1.021484,0.20508 -0.336492,-0.0706 -0.672438,-0.1419 -1.021484,-0.20508 z m -20.582032,0.11329 c -0.241864,0.0927 -0.483491,0.18899 -0.724609,0.2871 0.240735,-0.0979 0.48313,-0.19459 0.724609,-0.2871 z m 22.511719,0.30273 c 0.661712,0.15557 1.288659,0.31221 1.882813,0.48242 -0.590329,-0.16863 -1.227372,-0.32832 -1.882813,-0.48242 z m -24.310547,0.43945 c -0.2348,0.10336 -0.469929,0.20617 -0.705078,0.31446 0.234705,-0.10808 0.470721,-0.21129 0.705078,-0.31446 z m 26.789063,0.2168 c 0.60039,0.1818 1.1469,0.35777 1.654297,0.53516 -0.503524,-0.17512 -1.062282,-0.35631 -1.654297,-0.53516 z m -28.685547,0.66602 c -0.182813,0.0899 -0.365168,0.17686 -0.548828,0.26953 0.183439,-0.0926 0.366234,-0.17976 0.548828,-0.26953 z m 30.757812,0.0137 c 0.513391,0.18568 0.95358,0.35323 1.339844,0.50976 -0.3848,-0.15474 -0.837033,-0.3287 -1.339844,-0.50976 z m -11.291015,0.33398 c 0.323701,-0.008 0.724489,0.003 1.089844,0.004 -0.451045,-10e-4 -0.911836,-0.005 -1.298829,0.006 0.0781,-0.002 0.128124,-0.008 0.208985,-0.01 z m -9.931641,0.006 c -0.134675,0.12365 -0.280405,0.24162 -0.402344,0.37109 0.121954,-0.12954 0.267646,-0.24738 0.402344,-0.37109 z m 11.730469,0 c 0.461655,0.009 0.96688,0.0399 1.476562,0.0684 -0.505456,-0.0286 -1.018244,-0.0585 -1.476562,-0.0684 z m -2.433594,0.0234 c -0.382385,0.0157 -0.766427,0.0318 -1.0625,0.0527 0.307336,-0.0227 0.657176,-0.0356 1.0625,-0.0527 z m 4.816406,0.0976 c 0.78084,0.0612 1.589186,0.1452 2.445313,0.26563 0.449375,0.0632 0.905542,0.13607 1.371094,0.21875 -0.464859,-0.0828 -0.922341,-0.15535 -1.371094,-0.21875 -0.853583,-0.12059 -1.66643,-0.20386 -2.445313,-0.26563 z m 8.671875,0.13672 c 0.485124,0.20024 0.886831,0.37515 1.101563,0.47461 l -0.0039,0.008 c -0.156599,-0.0749 -0.426634,-0.20635 -1.097657,-0.48243 z m -33.572265,0.0254 c -0.930089,0.48324 -1.871469,0.99216 -2.84375,1.54102 0.971782,-0.5486 1.914147,-1.05796 2.84375,-1.54102 z m 17.236328,0.12305 c -0.210838,0.0943 -0.455055,0.20638 -0.669922,0.33008 0.242394,-0.13954 0.444682,-0.23125 0.669922,-0.33008 z m 11.535156,0.20899 c 0.459697,0.0823 0.924209,0.17585 1.396484,0.27929 -0.471845,-0.1035 -0.937177,-0.19682 -1.396484,-0.27929 z m 1.427734,0.28515 c 0.477272,0.10497 0.958367,0.22288 1.445313,0.35156 -0.486017,-0.1285 -0.96892,-0.24662 -1.445313,-0.35156 z m -13.974609,0.0762 c -0.028,0.0244 -0.05751,0.0488 -0.07813,0.0723 0.02069,-0.0237 0.04994,-0.0477 0.07813,-0.0723 z m -0.115234,0.12305 c -0.0213,0.0335 -0.02951,0.0638 -0.0293,0.0937 4.8e-5,-0.0298 0.0081,-0.0605 0.0293,-0.0937 z m 5.769531,0.004 c 0.03411,4.4e-4 0.06934,0.003 0.103516,0.004 -0.361147,-0.007 -0.71512,-5e-5 -1.066407,0.0117 0.317967,-0.0108 0.637032,-0.0199 0.962891,-0.0156 z m 0.166016,0.006 c 0.409415,0.008 0.823626,0.0258 1.240234,0.0547 -0.416966,-0.0292 -0.830891,-0.0461 -1.240234,-0.0547 z m -1.394532,0.0137 c 0.01151,-5.6e-4 0.02363,5.3e-4 0.03516,0 -0.414206,0.019 -0.820992,0.0508 -1.214844,0.0996 0.383601,-0.0476 0.77736,-0.0801 1.179687,-0.0996 z m 2.808594,0.0566 c 0.36097,0.0273 0.721653,0.0613 1.083984,0.10156 -0.362402,-0.0405 -0.723234,-0.074 -1.083984,-0.10156 z m -7.376953,0.0547 c 0.01656,0.0398 0.05106,0.0766 0.125,0.10546 0.06996,0.0273 0.183083,0.0459 0.314453,0.0606 -0.131154,-0.0147 -0.244564,-0.0332 -0.314453,-0.0606 -0.07488,-0.0293 -0.108877,-0.065 -0.125,-0.10546 z m 15.595703,0.0254 c 0.481642,0.12778 0.965114,0.26682 1.453125,0.41992 -0.487393,-0.15288 -0.972077,-0.29223 -1.453125,-0.41992 z m -6.4375,0.12109 c 0.674123,0.0889 1.340734,0.18255 1.996094,0.30273 -0.653011,-0.1197 -1.325564,-0.21396 -1.996094,-0.30273 z m -7.488281,0.008 c -0.107246,0.007 -0.217437,0.0153 -0.3125,0.0195 0.09454,-0.004 0.205942,-0.0126 0.3125,-0.0195 z m 9.927734,0.38477 c 0.713202,0.13828 1.402807,0.2828 2.060547,0.43945 -0.655043,-0.15551 -1.352512,-0.30224 -2.060547,-0.43945 z m 2.398438,0.52344 c 0.654445,0.16053 1.269056,0.31755 1.832031,0.47656 -0.560754,-0.15747 -1.184563,-0.31824 -1.832031,-0.47656 z m 2.259765,0.60156 c 0.467259,0.13637 0.895944,0.26387 1.265625,0.38281 -0.369791,-0.11792 -0.805414,-0.24923 -1.265625,-0.38281 z m 1.955078,0.61328 c 0.125236,0.0431 0.259545,0.0863 0.361329,0.12305 -0.102635,-0.0367 -0.237128,-0.0806 -0.361329,-0.12305 z m 0.896485,0.32812 c 0.0067,0.003 0.03336,0.0129 0.03906,0.0156 v 0.002 c -0.0088,-0.004 -0.028,-0.0126 -0.03906,-0.0176 z m -38.064453,6.37891 c 0.0399,0.0133 0.08712,0.0342 0.128906,0.0488 0.09595,0.0334 0.195407,0.0691 0.300781,0.10937 -0.07103,-0.023 -0.145152,-0.0506 -0.214843,-0.0723 -0.06549,-0.0233 -0.15379,-0.0655 -0.214844,-0.0859 z m 1.320312,0.48047 c 0.119364,0.0474 0.243336,0.10548 0.365235,0.1582 -0.121521,-0.0528 -0.246257,-0.11078 -0.365235,-0.1582 z m 1.222656,0.56836 c 0.310734,0.16457 0.626553,0.34425 0.947266,0.55469 -0.321298,-0.21155 -0.636021,-0.38918 -0.947266,-0.55469 z m 1.908204,1.25781 c 0.05239,0.0422 0.10373,0.0871 0.15625,0.13086 -0.05228,-0.0436 -0.104092,-0.0887 -0.15625,-0.13086 z m 2.164062,2.19531 c 0.05915,0.0734 0.116696,0.14481 0.175781,0.22071 -0.05911,-0.076 -0.116608,-0.14721 -0.175781,-0.22071 z m 1.125,1.5586 c 0.06433,0.0991 0.127287,0.20422 0.191406,0.30664 -0.06404,-0.1023 -0.12714,-0.20769 -0.191406,-0.30664 z" />
      <g
         id="g438"
         transform="matrix(0.50514902,-0.29164792,0.29164792,0.50514902,-411.28622,626.244)">
        <path
           style="fill-rule:evenodd"
           inkscape:connector-curvature="0"
           id="path406"
           d="m 372.13767,921.50941 c -0.0918,-0.11473 -1.10134,-1.26195 -1.10134,-1.26195 l 1.23901,-2.34035 12.8234,-0.0115 1.68732,1.29794 0.0649,1.03835 -1.10324,1.62243 z" />
        <path
           inkscape:connector-curvature="0"
           style="fill:url(#i)"
           id="path408"
           d="m 371.94827,920.17293 0.88494,-1.39528 h 12.06135 l 1.15757,0.60674 1.84392,32.45214 -3.57388,-1.11318 -9.87845,0.1142 -2.49545,1.11255 z" />
        <g
           style="fill-rule:evenodd"
           id="g422">
          <path
             inkscape:connector-curvature="0"
             style="fill:url(#j)"
             id="path410"
             d="m 367.75525,1044.4233 0.27534,-48.96361 2.66102,-41.02707 c 0.12062,-0.91085 0.32891,-1.99276 1.23304,-2.51476 l 2.40119,-1.08702 9.72005,-0.15891 c 2.35837,0 4.29906,1.04146 4.6348,2.29446 l 3.94646,31.47992 2.01912,22.02679 2.01912,36.5277 c 0,0 0.91778,3.4658 0.91778,6.608 0,3.1422 -2.9369,3.8547 -2.9369,3.8547 l -21.84321,0.7342 c -2.15679,-0.673 -5.69025,-1.4397 -5.69025,-3.3499 0,-1.9101 0.64244,-6.4245 0.64244,-6.4245 z" />
          <path
             inkscape:connector-curvature="0"
             style="fill:url(#k)"
             id="path412"
             d="m 371.04042,920.25625 c 0,0 2.18217,-8.85033 -6.31934,-13.8474 l 0.97346,-9.34517 c 0,0 8.35548,6.76552 6.60326,20.84816 z" />
          <path
             style="fill:#5b5c60"
             inkscape:connector-curvature="0"
             id="path414"
             d="m 373.28899,917.91591 c 0.56284,-12.76748 -4.46653,-17.71271 -7.59445,-20.85223 0,0 8.35548,6.76552 6.60326,20.84816 z" />
          <path
             inkscape:connector-curvature="0"
             style="fill:url(#l)"
             id="path416"
             d="m 386.75335,919.19201 c 0,0 -0.73423,-5.41492 0.0918,-9.2696 0.82601,-3.85469 3.94647,-5.59847 11.47228,-5.59847 7.52581,0 21.29254,8.81071 28.91013,17.98853 1.09673,1.40642 1.86897,1.15797 1.92735,-0.55067 0.0453,-0.22669 -11.12154,-13.31773 -21.29255,-17.62142 -10.24822,-4.33636 -1.74378,-3.02868 -1.74378,-3.02868 0,0 13.0325,5.23136 23.03633,16.97897 1.32201,1.77634 1.73546,0.66477 2.01912,-1.19312 0,0 -8.99427,-13.49139 -23.12811,-20.09942 -14.13384,-6.60803 -21.01721,2.66156 -22.57744,9.26959 -1.56023,6.60803 -0.55067,11.93117 -0.55067,11.93117 z" />
          <path
             inkscape:connector-curvature="0"
             id="path418"
             d="m 430.81867,916.46788 -0.61653,2.51476 c 1.13029,-0.0162 1.69273,-1.76844 1.83334,-3.35842 z" />
          <path
             inkscape:connector-curvature="0"
             id="path420"
             d="m 428.99344,921.56229 -0.59219,1.67921 c 1.09784,0 1.40759,-1.20809 1.53319,-2.62833 z" />
        </g>
        <path
           inkscape:connector-curvature="0"
           style="fill:url(#m)"
           id="path424"
           transform="scale(-1,1)"
           d="m -365.57721,882.75811 c 8.61383,6.97502 13.52853,6.0975 22.53174,0.87189 v 20.24786 c -6.6771,-3.74026 -14.54092,-7.07073 -21.70573,2.56979 l -0.95666,-9.19482 z" />
        <path
           inkscape:connector-curvature="0"
           style="fill:url(#n)"
           id="path426"
           d="m 332.53217,883.63 h 10.51331 v 20.24786 h -10.51331 z" />
        <path
           style="fill:#3b3b3d;fill-rule:evenodd"
           inkscape:connector-curvature="0"
           id="path428"
           d="m 365.57733,882.76177 c 22.86627,0 36.86892,2.30213 58.63722,22.82331 -22.53022,-19.79437 -35.19609,-19.86005 -58.63487,-19.66614 z" />
        <path
           inkscape:connector-curvature="0"
           style="fill:url(#o)"
           id="path430"
           transform="translate(0,956.36218)"
           d="m 373.9043,-70.466797 c -2.6335,-0.0219 -5.39437,-8.03e-4 -8.32422,0.02344 l -0.0566,12.789062 0.17187,-1.644531 c 0,0 0.12917,0.104469 0.35157,0.314453 0.003,0.0024 9e-4,0.0014 0.004,0.0039 0.22223,0.209985 0.53579,0.523071 0.9082,0.94336 0.006,0.0066 0.008,0.009 0.0137,0.01563 0.0478,0.05401 0.10279,0.124178 0.15234,0.18164 0.11446,0.132614 0.23077,0.270829 0.35352,0.421875 0.009,0.0095 0.0168,0.01977 0.0254,0.0293 2.93354,3.265464 6.24805,8.442989 5.78515,18.94336 l -0.90234,-0.0059 0.10937,0.435547 12.54493,-0.238281 0.004,-0.02734 -0.12695,-0.08203 c 0,0 -1.00945,-5.323611 0.55078,-11.931641 1.56023,-6.60803 8.44428,-15.877561 22.57813,-9.269531 12.77532,5.972882 21.27795,17.470435 22.80859,19.644531 l 1.16406,-0.80664 c -1.99064,-3.845652 -5.33735,-7.551362 -7.80469,-10.050782 -19.71394,-17.320073 -31.87606,-19.536184 -50.31054,-19.689453 z m 30.06445,15.03125 c -1.59081,-0.002 -2.51061,0.502666 3.89453,3.212891 9.76464,4.13174 20.33877,16.244669 21.13672,17.416015 l 0.92383,-0.93164 -2.14063,-4.064453 C 418.00016,-50.464658 406.11914,-55.25 406.11914,-55.25 c 0,0 -1.1959,-0.184356 -2.15039,-0.185547 z m -32.46484,5.794922 c 0.17309,0.588758 0.33077,1.203983 0.46679,1.847656 -0.13621,-0.643235 -0.29354,-1.259307 -0.46679,-1.847656 z m 0.46679,1.849609 c 0.11913,0.563956 0.21642,1.159335 0.30078,1.765625 -0.0847,-0.60728 -0.18123,-1.200841 -0.30078,-1.765625 z m 0.34571,2.044922 c 0.0769,0.60149 0.12521,1.232552 0.16211,1.875 -0.037,-0.642378 -0.0851,-1.273592 -0.16211,-1.875 z m 0.1875,2.189453 c 0.0338,0.739919 0.0407,1.505456 0.0137,2.298829 0.0271,-0.794329 0.0203,-1.558104 -0.0137,-2.298829 z m 0.0117,2.353516 c -0.0282,0.784148 -0.0899,1.595197 -0.18554,2.431641 0.0956,-0.836473 0.1574,-1.647487 0.18554,-2.431641 z m 59.51563,0.492187 c -3e-4,0.0033 -0.002,0.0065 -0.002,0.0098 l 0.006,-0.0039 z m -2.10156,4.988282 c -0.004,0.04525 -0.0131,0.08414 -0.0176,0.128906 l 0.0547,-0.06055 z" />
        <path
           style="fill:#5b5a60"
           inkscape:connector-curvature="0"
           id="path432"
           transform="scale(-1,1)"
           d="m -332.53217,883.63 c 1.46878,7.9751 1.65097,10.31862 0,20.24786 z" />
        <rect
           style="fill:#323033;filter:url(#p)"
           id="rect434"
           y="1049.2417"
           x="370.9675"
           width="23.862333"
           transform="matrix(1.0416015,0,0,1.1875727,-15.929152,-197.13614)"
           rx="1.743786"
           height="3.487572" />
        <rect
           style="fill:#060509"
           id="rect436"
           y="1049.2417"
           x="370.9675"
           width="23.862333"
           rx="1.743786"
           height="3.487572" />
      </g>
    </g>
  </g>
</svg>
