<?xml version="1.0" encoding="UTF-8" standalone="no"?>
<!-- Created with Inkscape (http://www.inkscape.org/) -->

<svg
   xmlns:dc="http://purl.org/dc/elements/1.1/"
   xmlns:cc="http://creativecommons.org/ns#"
   xmlns:rdf="http://www.w3.org/1999/02/22-rdf-syntax-ns#"
   xmlns:svg="http://www.w3.org/2000/svg"
   xmlns="http://www.w3.org/2000/svg"
   xmlns:xlink="http://www.w3.org/1999/xlink"
   xmlns:sodipodi="http://sodipodi.sourceforge.net/DTD/sodipodi-0.dtd"
   xmlns:inkscape="http://www.inkscape.org/namespaces/inkscape"
   width="128"
   height="128"
   viewBox="0 0 33.866667 33.866668"
   version="1.1"
   id="svg1274"
   inkscape:version="0.92.4 5da689c313, 2019-01-14"
   sodipodi:docname="com.github.cassidyjames.ideogram.svg">
  <defs
     id="defs1268">
    <linearGradient
       inkscape:collect="always"
       id="linearGradient1876">
      <stop
         style="stop-color:#dbe1e1;stop-opacity:1"
         offset="0"
         id="stop1872" />
      <stop
         style="stop-color:#c2c6c6;stop-opacity:1"
         offset="1"
         id="stop1874" />
    </linearGradient>
    <linearGradient
       inkscape:collect="always"
       xlink:href="#linearGradient1876"
       id="linearGradient1878"
       x1="5.1501737"
       y1="7.0988107"
       x2="28.199434"
       y2="28.948095"
       gradientUnits="userSpaceOnUse"
       gradientTransform="translate(0.93836429,262.48054)" />
    <linearGradient
       id="linearGradient1153">
      <stop
         id="stop1149"
         style="stop-color:#ffffff;stop-opacity:1"
         offset="0" />
      <stop
         id="stop1151"
         style="stop-color:#eeeeee;stop-opacity:1"
         offset="1" />
    </linearGradient>
    <linearGradient
       id="linearGradient3462">
      <stop
         offset="0"
         style="stop-color:#ffffff;stop-opacity:1"
         id="stop3464" />
      <stop
         offset="0.03457849"
         style="stop-color:#ffffff;stop-opacity:0.23529412"
         id="stop3466" />
      <stop
         offset="0.96375686"
         style="stop-color:#ffffff;stop-opacity:0.15686275"
         id="stop3468" />
      <stop
         offset="1"
         style="stop-color:#ffffff;stop-opacity:0.39215687"
         id="stop3470" />
    </linearGradient>
    <linearGradient
       y2="42.703293"
       x2="8.915328"
       y1="5.2966995"
       x1="8.915328"
       gradientTransform="matrix(3.1081078,0,0,2.4594594,36.290198,11.973044)"
       gradientUnits="userSpaceOnUse"
       id="linearGradient3133"
       xlink:href="#linearGradient3462" />
    <linearGradient
       id="linearGradient3811">
      <stop
         id="stop3813"
         style="stop-color:#000000;stop-opacity:1"
         offset="0" />
      <stop
         id="stop3815"
         style="stop-color:#000000;stop-opacity:0"
         offset="1" />
    </linearGradient>
    <linearGradient
       id="linearGradient3702-501-757-0">
      <stop
         id="stop2895-0"
         style="stop-color:#181818;stop-opacity:0"
         offset="0" />
      <stop
         id="stop2897-2"
         style="stop-color:#181818;stop-opacity:1"
         offset="0.5" />
      <stop
         id="stop2899-6"
         style="stop-color:#181818;stop-opacity:0"
         offset="1" />
    </linearGradient>
    <linearGradient
       x1="25.058096"
       y1="47.027729"
       x2="25.058096"
       y2="39.999443"
       id="linearGradient4097"
       xlink:href="#linearGradient3702-501-757-0"
       gradientUnits="userSpaceOnUse" />
    <linearGradient
       id="linearGradient3688-464-309-8">
      <stop
         id="stop2889-9"
         style="stop-color:#181818;stop-opacity:1"
         offset="0" />
      <stop
         id="stop2891-4"
         style="stop-color:#181818;stop-opacity:0"
         offset="1" />
    </linearGradient>
    <radialGradient
       cx="4.9929786"
       cy="43.5"
       r="2.5"
       fx="4.9929786"
       fy="43.5"
       id="radialGradient4095"
       xlink:href="#linearGradient3688-464-309-8"
       gradientUnits="userSpaceOnUse"
       gradientTransform="matrix(2.003784,0,0,1.4,-20.01187,-104.4)" />
    <radialGradient
       cx="4.9929786"
       cy="43.5"
       r="2.5"
       fx="4.9929786"
       fy="43.5"
       id="radialGradient4093"
       xlink:href="#linearGradient3688-464-309-8"
       gradientUnits="userSpaceOnUse"
       gradientTransform="matrix(2.003784,0,0,1.4,27.98813,-17.4)" />
    <radialGradient
       r="35.338131"
       fy="93.467628"
       fx="-4.0287771"
       cy="93.467628"
       cx="-4.0287771"
       gradientTransform="matrix(1.7403296,0,0,0.16978827,71.011392,101.13029)"
       gradientUnits="userSpaceOnUse"
       id="radialGradient5448"
       xlink:href="#linearGradient3811" />
    <radialGradient
       gradientTransform="matrix(0,25.083279,-30.794253,0,360.31658,-223.5918)"
       gradientUnits="userSpaceOnUse"
       xlink:href="#linearGradient2867-449-88-871-390-598-476-591-434-148-57-177-8-3-3-6-4-8-8-8-5"
       id="radialGradient3395"
       fy="9.9571075"
       fx="6.2001843"
       r="12.671875"
       cy="9.9571075"
       cx="6.7304144" />
    <linearGradient
       id="linearGradient2867-449-88-871-390-598-476-591-434-148-57-177-8-3-3-6-4-8-8-8-5">
      <stop
         offset="0"
         style="stop-color:#ffffff;stop-opacity:1"
         id="stop3750-1-0-7-6-6-1-3-9-3" />
      <stop
         offset="1"
         style="stop-color:#abacae;stop-opacity:1"
         id="stop3756-1-6-2-6-6-1-96-6-0" />
    </linearGradient>
    <linearGradient
       y2="48.17823"
       x2="23.99999"
       y1="14.475261"
       x1="23.99999"
       gradientTransform="matrix(0.722241,0,0,0.722241,-60.86379,250.72802)"
       gradientUnits="userSpaceOnUse"
       id="linearGradient3965"
       xlink:href="#linearGradient3924" />
    <linearGradient
       id="linearGradient3924">
      <stop
         offset="0"
         style="stop-color:#ffffff;stop-opacity:1"
         id="stop3926" />
      <stop
         offset="0.06316455"
         style="stop-color:#ffffff;stop-opacity:0.23529412"
         id="stop3928" />
      <stop
         offset="0.95056331"
         style="stop-color:#ffffff;stop-opacity:0.15686275"
         id="stop3930" />
      <stop
         offset="1"
         style="stop-color:#ffffff;stop-opacity:0.39215687"
         id="stop3932" />
    </linearGradient>
  </defs>
  <sodipodi:namedview
     id="base"
     pagecolor="#ffffff"
     bordercolor="#666666"
     borderopacity="1.0"
     inkscape:pageopacity="0.0"
     inkscape:pageshadow="2"
     inkscape:zoom="1.4"
     inkscape:cx="68.343678"
     inkscape:cy="57.330895"
     inkscape:document-units="mm"
     inkscape:current-layer="layer1"
     showgrid="false"
     units="px"
     inkscape:window-width="1920"
     inkscape:window-height="1030"
     inkscape:window-x="0"
     inkscape:window-y="26"
     inkscape:window-maximized="1" />
  <metadata
     id="metadata1271">
    <rdf:RDF>
      <cc:Work
         rdf:about="">
        <dc:format>image/svg+xml</dc:format>
        <dc:type
           rdf:resource="http://purl.org/dc/dcmitype/StillImage" />
        <dc:title></dc:title>
      </cc:Work>
    </rdf:RDF>
  </metadata>
  <g
     inkscape:label="Capa 1"
     inkscape:groupmode="layer"
     id="layer1"
     transform="translate(0,-263.13332)">
    <g
       transform="translate(41.328296,277.47953)"
       id="g20">
      <path
         style="fill-opacity:0.24083802;stroke-width:1.00532198"
         inkscape:connector-curvature="0"
         d="m -35.99518,-11.365027 c -1.598761,0 -2.909936,1.311172 -2.909936,2.9099353 V 14.476856 c 0,1.598754 1.311179,2.909935 2.909936,2.909935 h 23.363919 c 1.598756,0 2.9099363,-1.311181 2.9099363,-2.909935 V -8.4550917 c 0,-1.5987633 -1.3111763,-2.9099353 -2.9099363,-2.9099353 z"
         id="path10" />
      <path
         style="fill-opacity:0.19895301;stroke-width:1.01241803"
         inkscape:connector-curvature="0"
         d="m -36.077637,-11.466499 c -1.610046,0 -2.930476,1.320427 -2.930476,2.9304753 V 14.557788 c 0,1.610039 1.320434,2.930475 2.930476,2.930475 h 23.528832 c 1.610041,0 2.9304768,-1.320436 2.9304768,-2.930475 V -8.5360237 c 0,-1.6100483 -1.3204318,-2.9304753 -2.9304768,-2.9304753 z"
         id="path12" />
      <path
         style="fill-opacity:0.10994801;stroke-width:1.01951396"
         inkscape:connector-curvature="0"
         d="m -36.160093,-11.567971 c -1.621331,0 -2.951016,1.329682 -2.951016,2.9510153 V 14.63872 c 0,1.621324 1.329689,2.951015 2.951016,2.951015 h 23.693745 c 1.621326,0 2.9510163,-1.329691 2.9510163,-2.951015 V -8.6169557 c 0,-1.6213333 -1.3296863,-2.9510153 -2.9510163,-2.9510153 z"
         id="path14" />
      <path
         style="fill-opacity:0.06282702;stroke-width:1.02749705"
         inkscape:connector-curvature="0"
         d="m -36.252857,-11.682127 c -1.634026,0 -2.974123,1.340094 -2.974123,2.9741228 V 14.729769 c 0,1.634019 1.340101,2.974122 2.974123,2.974122 h 23.879273 c 1.634021,0 2.9741233,-1.340103 2.9741233,-2.974122 V -8.7080042 c 0,-1.6340288 -1.3400983,-2.9741228 -2.9741233,-2.9741228 z"
         id="path16" />
      <path
         style="fill-opacity:0.03141402;stroke-width:1.03636706"
         inkscape:connector-curvature="0"
         d="m -36.355928,-11.808967 c -1.648132,0 -2.999798,1.351663 -2.999798,2.9997978 V 14.830934 c 0,1.648125 1.35167,2.999797 2.999798,2.999797 h 24.085414 c 1.648127,0 2.9997988,-1.351672 2.9997988,-2.999797 V -8.8091692 c 0,-1.6481348 -1.3516678,-2.9997978 -2.9997988,-2.9997978 z"
         id="path18" />
    </g>
    <path
       style="fill:#ffffff"
       inkscape:connector-curvature="0"
       d="m 5.3582862,266.12066 c -1.5902969,0 -2.8945313,1.30423 -2.8945313,2.89453 v 22.81055 c 0,1.59029 1.3042386,2.89453 2.8945313,2.89453 H 28.59852 c 1.590293,0 2.894532,-1.30424 2.894532,-2.89453 v -22.81055 c 0,-1.5903 -1.304235,-2.89453 -2.894532,-2.89453 z"
       id="path24" />
    <path
       style="opacity:1;fill:url(#linearGradient1878);fill-opacity:1;stroke:none;stroke-width:0.5291667;stroke-linecap:round;stroke-linejoin:round;stroke-miterlimit:4;stroke-dasharray:none;stroke-dashoffset:0;stroke-opacity:1;paint-order:fill markers stroke"
       d="m 6.0275519,267.50661 h 11.6536631 10.24804 c 1.187769,0 2.143987,0.95622 2.143987,2.14399 v 21.3727 c 0,1.18777 -0.956218,2.14398 -2.143987,2.14398 H 17.376799 6.0275519 c -1.1877691,0 -2.1439876,-0.95621 -2.1439876,-2.14398 v -21.3727 c 0,-1.18777 0.9562185,-2.14399 2.1439876,-2.14399 z"
       id="rect866"
       inkscape:connector-curvature="0"
       sodipodi:nodetypes="scsssscssss" />
    <g
       style="fill:none"
       transform="translate(0.93836429,-0.65277906)"
       id="g46">
      <path
         inkscape:connector-curvature="0"
         d="m 0.133635,263.32404 h 33.675961 v 33.80959 H 0.133635 Z"
         id="path42" />
      <rect
         height="27.067537"
         ry="2.1414189"
         width="27.495825"
         x="2.2755449"
         y="267.52325"
         id="rect44" />
    </g>
    <g
       id="g1001"
       transform="translate(-0.26059335,-0.960955)">
      <rect
         id="rect22"
         y="274.69836"
         x="12.56459"
         width="9.2207994"
         ry="2.1439869"
         height="10.289877"
         style="opacity:0.82399998;fill:none;filter:url(#a)" />
      <path
         inkscape:connector-curvature="0"
         id="path964"
         d="m 17.238738,274.6828 a 6.6149211,6.6149211 0 0 0 -6.614583,6.6151 6.6149211,6.6149211 0 0 0 6.614583,6.6151 6.6149211,6.6149211 0 0 0 6.6151,-6.6151 6.6149211,6.6149211 0 0 0 -6.6151,-6.6151 z m -2.220536,3.26595 a 1.0032885,1.182447 0 0 1 1.003556,1.18287 1.0032885,1.182447 0 0 1 -1.003556,1.18236 1.0032885,1.182447 0 0 1 -1.00304,-1.18236 1.0032885,1.182447 0 0 1 1.00304,-1.18287 z m 4.44159,0 a 1.0032885,1.182447 0 0 1 1.003039,1.18287 1.0032885,1.182447 0 0 1 -1.003039,1.18236 1.0032885,1.182447 0 0 1 -1.003557,-1.18236 1.0032885,1.182447 0 0 1 1.003557,-1.18287 z m -5.694227,3.82509 c 0.06213,-0.004 0.125772,-0.002 0.189653,0.01 a 0.40003999,0.40003999 0 0 1 0.0021,0 c 2.175949,0.39291 4.372707,0.4839 6.636804,0.0331 0.232228,-0.0583 0.452069,-0.0106 0.638721,0.13487 0.167213,0.1303 0.276261,0.4116 0.220658,0.65785 a 0.40003999,0.40003999 0 0 1 -0.0217,0.0765 c -7.91e-4,0.002 -0.0012,0.004 -0.0021,0.006 -2.61e-4,10e-4 2.63e-4,10e-4 0,0.002 a 0.40003999,0.40003999 0 0 1 -0.01757,0.0367 c -1.076456,2.00134 -2.579564,3.04982 -4.136698,3.02152 -1.557135,-0.0283 -3.049506,-1.11547 -4.14445,-3.04478 a 0.40003999,0.40003999 0 0 1 -0.03514,-0.0822 c -0.127413,-0.42479 0.234811,-0.82048 0.669726,-0.85163 z m 0.301274,0.82269 c 0.966566,1.52221 2.118299,2.33686 3.224609,2.35696 1.110581,0.0202 2.242832,-0.75221 3.193087,-2.33009 -2.199073,0.39938 -4.33364,0.32748 -6.417696,-0.0269 z"
         style="opacity:1;fill:#878787;fill-opacity:1;stroke:none;stroke-width:1;stroke-linecap:round;stroke-linejoin:round;stroke-miterlimit:4;stroke-dasharray:none;stroke-opacity:1" />
      <path
         sodipodi:nodetypes="ccccc"
         inkscape:connector-curvature="0"
         style="opacity:1;fill:none;fill-opacity:1;stroke:#636363;stroke-width:1;stroke-linecap:round;stroke-linejoin:round;stroke-miterlimit:4;stroke-dasharray:none;stroke-opacity:1"
         d="m 17.238738,274.6828 c -3.653258,1.8e-4 -6.614682,2.96184 -6.614583,6.6151 -9.9e-5,3.65326 2.961325,6.61491 6.614583,6.6151 3.65346,10e-5 6.615199,-2.96164 6.6151,-6.6151 9.9e-5,-3.65346 -2.96164,-6.6152 -6.6151,-6.6151 z"
         id="path972" />
    </g>
  </g>
</svg>
