<?xml version="1.0" encoding="UTF-8" standalone="no"?>
<svg
   xmlns:dc="http://purl.org/dc/elements/1.1/"
   xmlns:cc="http://creativecommons.org/ns#"
   xmlns:rdf="http://www.w3.org/1999/02/22-rdf-syntax-ns#"
   xmlns:svg="http://www.w3.org/2000/svg"
   xmlns="http://www.w3.org/2000/svg"
   xmlns:xlink="http://www.w3.org/1999/xlink"
   xmlns:sodipodi="http://sodipodi.sourceforge.net/DTD/sodipodi-0.dtd"
   xmlns:inkscape="http://www.inkscape.org/namespaces/inkscape"
   height="128"
   width="128"
   version="1.1"
   id="svg444"
   sodipodi:docname="com.github.bartzaalberg.vala-tester.svg"
   inkscape:version="0.92.4 5da689c313, 2019-01-14">
  <metadata
     id="metadata450">
    <rdf:RDF>
      <cc:Work
         rdf:about="">
        <dc:format>image/svg+xml</dc:format>
        <dc:type
           rdf:resource="http://purl.org/dc/dcmitype/StillImage" />
        <dc:title></dc:title>
      </cc:Work>
    </rdf:RDF>
  </metadata>
  <defs
     id="defs448">
    <radialGradient
       id="a-3"
       gradientUnits="userSpaceOnUse"
       cy="43.5"
       cx="4.993"
       gradientTransform="matrix(2.0038,0,0,1.4,27.988,-17.4)"
       r="2.5">
      <stop
         stop-color="#181818"
         offset="0"
         id="stop1114" />
      <stop
         stop-color="#181818"
         stop-opacity="0"
         offset="1"
         id="stop1116" />
    </radialGradient>
    <radialGradient
       id="b-6"
       gradientUnits="userSpaceOnUse"
       cy="43.5"
       cx="4.993"
       gradientTransform="matrix(2.0038,0,0,1.4,-20.012,-104.4)"
       r="2.5">
      <stop
         stop-color="#181818"
         offset="0"
         id="stop1119" />
      <stop
         stop-color="#181818"
         stop-opacity="0"
         offset="1"
         id="stop1121" />
    </radialGradient>
    <linearGradient
       id="c-5"
       y2="39.999"
       gradientUnits="userSpaceOnUse"
       x2="25.058"
       y1="47.028"
       x1="25.058">
      <stop
         stop-color="#181818"
         stop-opacity="0"
         offset="0"
         id="stop1124" />
      <stop
         stop-color="#181818"
         offset=".5"
         id="stop1126" />
      <stop
         stop-color="#181818"
         stop-opacity="0"
         offset="1"
         id="stop1128" />
    </linearGradient>
    <linearGradient
       id="e-7"
       y2="43"
       gradientUnits="userSpaceOnUse"
       x2="24"
       gradientTransform="matrix(1.4324,0,0,1.4363,-2.378,-2.47)"
       y1="5"
       x1="24">
      <stop
         stop-color="#fff"
         offset="0"
         id="stop1131" />
      <stop
         stop-color="#fff"
         stop-opacity=".235"
         offset=".063"
         id="stop1133" />
      <stop
         stop-color="#fff"
         stop-opacity=".157"
         offset=".951"
         id="stop1135" />
      <stop
         stop-color="#fff"
         stop-opacity=".392"
         offset="1"
         id="stop1137" />
    </linearGradient>
    <radialGradient
       id="d-7"
       fx="6.2"
       gradientUnits="userSpaceOnUse"
       cy="9.957"
       cx="6.73"
       gradientTransform="matrix(0,13.394,-16.444,0,196.9,-114.89)"
       r="12.672">
      <stop
         stop-color="#bd94e7"
         offset="0"
         id="stop1140" />
      <stop
         stop-color="#7b6ca3"
         offset=".262"
         id="stop1142" />
      <stop
         stop-color="#574a76"
         offset=".705"
         id="stop1144" />
      <stop
         stop-color="#3f3654"
         offset="1"
         id="stop1146" />
    </radialGradient>
    <clipPath
       id="clipPath5025"
       clipPathUnits="userSpaceOnUse">
      <g
         inkscape:label="Clip"
         id="use5027">
        <rect
           y="37.601917"
           x="-2.6091127"
           height="32.53717"
           width="27.779377"
           id="rect5029"
           style="opacity:0.98000004;fill:#685d80;fill-opacity:1;stroke:#f9f9f9;stroke-width:0;stroke-miterlimit:4;stroke-dasharray:none;stroke-opacity:1" />
      </g>
    </clipPath>
    <clipPath
       id="clipPath5494"
       clipPathUnits="userSpaceOnUse">
      <rect
         y="-7.7317243"
         x="-2.7109578"
         height="50.296413"
         width="68.96933"
         id="rect5496"
         style="opacity:0.98000004;fill:#695c89;fill-opacity:1;stroke:#aa0000;stroke-width:0;stroke-miterlimit:4;stroke-dasharray:none;stroke-opacity:1" />
    </clipPath>
    <clipPath
       id="clipPath6207"
       clipPathUnits="userSpaceOnUse">
      <rect
         y="-7.7317243"
         x="-2.7109578"
         height="50.296413"
         width="68.065804"
         id="rect6209"
         style="opacity:0.98000004;fill:#695c89;fill-opacity:1;stroke:#aa0000;stroke-width:0;stroke-miterlimit:4;stroke-dasharray:none;stroke-opacity:1" />
    </clipPath>
    <clipPath
       id="clipPath6207-7"
       clipPathUnits="userSpaceOnUse">
      <rect
         y="-7.7317243"
         x="-2.7109578"
         height="50.296413"
         width="68.065804"
         id="rect6209-0"
         style="opacity:0.98000004;fill:#695c89;fill-opacity:1;stroke:#aa0000;stroke-width:0;stroke-miterlimit:4;stroke-dasharray:none;stroke-opacity:1" />
    </clipPath>
  </defs>
  <sodipodi:namedview
     pagecolor="#ffffff"
     bordercolor="#666666"
     borderopacity="1"
     objecttolerance="10"
     gridtolerance="10"
     guidetolerance="10"
     inkscape:pageopacity="0"
     inkscape:pageshadow="2"
     inkscape:window-width="1920"
     inkscape:window-height="1031"
     id="namedview446"
     showgrid="false"
     inkscape:zoom="7.375"
     inkscape:cx="75.974774"
     inkscape:cy="66.327615"
     inkscape:window-x="0"
     inkscape:window-y="26"
     inkscape:window-maximized="1"
     inkscape:current-layer="svg444" />
  <linearGradient
     id="a"
     gradientUnits="userSpaceOnUse"
     x1="23.42582167407"
     x2="23.0660823924"
     xlink:href="#b"
     y1="18.30644666985"
     y2="18.6661837706"
     gradientTransform="matrix(2.7789894,0,0,2.7789894,-3.068558,0.45374287)" />
  <linearGradient
     id="b">
    <stop
       offset="0"
       stop-color="#fff"
       id="stop3" />
    <stop
       offset="1"
       stop-color="#fff"
       stop-opacity="0"
       id="stop5" />
  </linearGradient>
  <linearGradient
     id="c"
     gradientUnits="userSpaceOnUse"
     x1="21.82600389068"
     x2="15.48754689411"
     xlink:href="#b"
     y1="20.09389311534"
     y2="26.83266813693"
     gradientTransform="matrix(2.7789894,0,0,2.7789894,-3.068558,0.45374287)" />
  <linearGradient
     id="d"
     gradientUnits="userSpaceOnUse"
     x1="22.37630489068"
     x2="16.03784789411"
     xlink:href="#b"
     y1="20.50433311534"
     y2="27.24310813693"
     gradientTransform="matrix(2.7789894,0,0,2.7789894,-3.068558,0.45374287)" />
  <linearGradient
     id="e"
     gradientUnits="userSpaceOnUse"
     x1="15.46443376357"
     x2="14.75675512091"
     xlink:href="#b"
     y1="28.2611408071"
     y2="28.07241768174"
     gradientTransform="matrix(2.7789894,0,0,2.7789894,-3.068558,0.45374287)" />
  <linearGradient
     id="f"
     gradientTransform="matrix(0.4551186,-0.90179262,0.90179262,0.4551186,-852.91511,-363.9558)"
     gradientUnits="userSpaceOnUse"
     x1="40.749557"
     x2="30.932852"
     xlink:href="#b"
     y1="1001.4427"
     y2="1010.2888" />
  <linearGradient
     id="g"
     gradientTransform="matrix(0.4551186,-0.90179262,0.90179262,0.4551186,-843.60639,-347.53073)"
     gradientUnits="userSpaceOnUse"
     x1="40.749557"
     x2="30.932852"
     xlink:href="#b"
     y1="1001.4427"
     y2="1010.2888" />
  <filter
     id="h"
     color-interpolation-filters="sRGB"
     height="1.113"
     width="1.127924"
     x="-.063962"
     y="-.0565">
    <feGaussianBlur
       stdDeviation="2.1746765"
       id="feGaussianBlur13" />
  </filter>
  <linearGradient
     id="i"
     gradientUnits="userSpaceOnUse"
     x1="372.06885"
     x2="387.12045"
     y1="947.00079"
     y2="947.00079">
    <stop
       offset="0"
       stop-color="#828398"
       id="stop16" />
    <stop
       offset=".05013223"
       stop-color="#4f4e50"
       id="stop18" />
    <stop
       offset=".14024317"
       stop-color="#e8e5eb"
       id="stop20" />
    <stop
       offset=".23170672"
       stop-color="#e9d3d9"
       stop-opacity=".941176"
       id="stop22" />
    <stop
       offset=".76219523"
       stop-color="#c4c2c7"
       id="stop24" />
    <stop
       offset=".86999255"
       stop-color="#f4f1fa"
       id="stop26" />
    <stop
       offset=".93410021"
       stop-color="#b8b8bf"
       id="stop28" />
    <stop
       offset="1"
       stop-color="#c1bfcc"
       id="stop30" />
  </linearGradient>
  <linearGradient
     id="j"
     gradientUnits="userSpaceOnUse"
     x1="368.21414"
     x2="394.8298"
     y1="1018.9549"
     y2="1018.5878">
    <stop
       offset="0"
       stop-color="#130804"
       id="stop33" />
    <stop
       offset=".16970721"
       stop-color="#0f0704"
       id="stop35" />
    <stop
       offset=".23766069"
       stop-color="#323033"
       id="stop37" />
    <stop
       offset=".71842611"
       stop-color="#323033"
       id="stop39" />
    <stop
       offset=".84821641"
       stop-color="#141215"
       id="stop41" />
    <stop
       offset="1"
       stop-color="#00010e"
       id="stop43" />
  </linearGradient>
  <linearGradient
     id="k"
     gradientUnits="userSpaceOnUse"
     x1="367.84705"
     x2="372.25238"
     y1="904.78284"
     y2="917.9989">
    <stop
       offset="0"
       stop-color="#2d2d39"
       id="stop46" />
    <stop
       offset="1"
       stop-color="#acabb0"
       id="stop48" />
  </linearGradient>
  <linearGradient
     id="l"
     gradientUnits="userSpaceOnUse"
     x1="389.50668"
     x2="414.05841"
     y1="902.21301"
     y2="908.79163">
    <stop
       offset="0"
       stop-color="#59585d"
       id="stop51" />
    <stop
       offset=".19257796"
       stop-color="#010103"
       id="stop53" />
    <stop
       offset=".54332471"
       stop-color="#5b5b5d"
       id="stop55" />
    <stop
       offset="1"
       stop-color="#171719"
       id="stop57" />
  </linearGradient>
  <linearGradient
     id="m"
     gradientUnits="userSpaceOnUse"
     x1="-353.81839"
     x2="-353.81839"
     y1="903.40106"
     y2="883.11084">
    <stop
       offset="0"
       stop-color="#202024"
       id="stop60" />
    <stop
       offset=".3368493"
       stop-color="#919095"
       id="stop62" />
    <stop
       offset=".53881687"
       stop-color="#4e4d51"
       id="stop64" />
    <stop
       offset=".69465232"
       stop-color="#cfcfd1"
       id="stop66" />
    <stop
       offset="1"
       stop-color="#69696b"
       id="stop68" />
  </linearGradient>
  <linearGradient
     id="n"
     gradientUnits="userSpaceOnUse"
     x1="338.84512"
     x2="338.84512"
     y1="903.66016"
     y2="883.85742">
    <stop
       offset="0"
       stop-color="#181820"
       id="stop71" />
    <stop
       offset=".03511503"
       stop-color="#86858a"
       id="stop73" />
    <stop
       offset=".14091089"
       stop-color="#7a797e"
       id="stop75" />
    <stop
       offset=".19626147"
       stop-color="#2f2e33"
       id="stop77" />
    <stop
       offset=".33304867"
       stop-color="#414045"
       id="stop79" />
    <stop
       offset=".43142435"
       stop-color="#545358"
       id="stop81" />
    <stop
       offset=".56074804"
       stop-color="#ebeaf0"
       id="stop83" />
    <stop
       offset=".69158942"
       stop-color="#abaaaf"
       id="stop85" />
    <stop
       offset=".85981399"
       stop-color="#d7d6dc"
       id="stop87" />
    <stop
       offset="1"
       stop-color="#66656a"
       id="stop89" />
  </linearGradient>
  <linearGradient
     id="o"
     gradientUnits="userSpaceOnUse"
     x1="367.84705"
     x2="415.57172"
     y1="-67.365196"
     y2="-50.845123">
    <stop
       offset="0"
       stop-color="#c7c6cb"
       id="stop92" />
    <stop
       offset=".54332471"
       stop-color="#fcfcfd"
       id="stop94" />
    <stop
       offset="1"
       stop-color="#d8d8da"
       id="stop96" />
  </linearGradient>
  <filter
     id="p"
     color-interpolation-filters="sRGB"
     height="1.272905"
     width="1.039886"
     x="-.019943"
     y="-.136453">
    <feGaussianBlur
       stdDeviation=".19828681"
       id="feGaussianBlur99" />
  </filter>
  <radialGradient
     id="q"
     cx="23.896"
     cy="3.99"
     gradientTransform="matrix(0,8.3696538,-11.047885,0,106.37671,-200.07712)"
     gradientUnits="userSpaceOnUse"
     r="20.396999">
    <stop
       offset="0"
       stop-color="#fff"
       id="stop102" />
    <stop
       offset=".26238"
       stop-color="#ddd"
       id="stop104" />
    <stop
       offset=".66094"
       stop-color="#abacae"
       id="stop106" />
    <stop
       offset="1"
       stop-color="#89898b"
       id="stop108" />
  </radialGradient>
  <filter
     id="r"
     color-interpolation-filters="sRGB"
     height="1.072"
     width="1.072"
     x="-.036"
     y="-.036">
    <feGaussianBlur
       stdDeviation=".60996385"
       id="feGaussianBlur111" />
  </filter>
  <path
     inkscape:connector-curvature="0"
     id="path114"
     style="fill:none;stroke:#292929;stroke-width:1.98107898;stroke-linecap:round;stroke-linejoin:round;stroke-opacity:0.15969603;filter:url(#r)"
     d="m 43.853058,23.462015 c 0,11.229591 -9.102537,20.332129 -20.332128,20.332129 -11.229591,0 -20.3321284,-9.102538 -20.3321284,-20.332129 0,-11.22959 9.1025374,-20.3321277 20.3321284,-20.3321277 11.229591,0 20.332128,9.1025377 20.332128,20.3321277 z"
     transform="matrix(2.7789894,0,0,2.7789894,-3.068558,-4.640677)" />
  <path
     inkscape:connector-curvature="0"
     style="fill:url(#q);stroke-width:2.89757729"
     id="path116"
     d="m 62.295857,1.1596689 c -32.774503,0 -59.4003469,26.6258421 -59.4003469,59.4003451 0,32.774503 26.6258439,59.400346 59.4003469,59.400346 32.774504,0 59.400343,-26.625843 59.400343,-59.400346 0,-32.774503 -26.625839,-59.4003451 -59.400343,-59.4003451 z" />
  <path
     style="fill:#a98bf1;stroke-width:2.89757729;fill-opacity:1"
     inkscape:connector-curvature="0"
     id="path118"
     d="m 62.295857,1.1596689 c -32.774503,0 -59.4003469,26.6258421 -59.4003469,59.4003451 0,32.774503 26.6258439,59.400346 59.4003469,59.400346 32.774504,0 59.400343,-26.625843 59.400343,-59.400346 0,-32.774503 -26.625839,-59.4003451 -59.400343,-59.4003451 z" />
  <path
     style="fill:none;stroke:#ffffff;stroke-width:5.50539732;stroke-linecap:round;stroke-linejoin:round"
     inkscape:connector-curvature="0"
     id="path120"
     d="m 118.79863,60.560014 c 0,31.206914 -25.295858,56.502766 -56.502773,56.502766 -31.206914,0 -56.5027692,-25.295852 -56.5027692,-56.502766 0,-31.206912 25.2958552,-56.5027674 56.5027692,-56.5027674 31.206915,0 56.502773,25.2958554 56.502773,56.5027674 z" />
  <path
     style="fill:none;stroke:#fbfbfb;stroke-width:0.57951653;stroke-linecap:round;stroke-linejoin:round"
     inkscape:connector-curvature="0"
     id="path122"
     d="m 62.295857,1.1599587 c -32.774503,0 -59.4003469,26.6252633 -59.4003469,59.4003443 0,32.775084 26.6252629,59.400347 59.4003469,59.400347 32.775084,0 59.400343,-26.625263 59.400343,-59.400347 0,-32.775081 -26.625839,-59.4003443 -59.400343,-59.4003443 z" />
  <g
     id="g1112"
     style="opacity:0.272"
     transform="translate(134.61395)"
     clip-path="none">
    <path
       clip-path="url(#clipPath6207-7)"
       id="path1079"
       overflow="visible"
       d="M 13.422,0 11.678,0.078 C 10.603,0.126 9.523,0.263 8.862,0.437 5.669,1.275 2.541,3.375 1.052,5.677 0.257,6.91 -0.008,7.764 0,9.084 c 0.007,1.232 0.308,2.018 0.973,2.542 0.431,0.339 2.4570322,1.280606 2.203,0.703 H 3.618 L 3.434,11.811 C 3.182,11.107 3.191,8.742 3.449,7.647 3.7617183,6.3572408 4.4288326,5.180612 5.375,4.25 6.167,3.462 7.362,2.657 8.035,2.459 8.33,2.372 8.345,2.405 8.345,3.102 8.34,4.638 8.765,22.556 8.844,24.168 l 0.082,1.692 h 2.457 c 2.211,0 2.466,-0.024 2.552,-0.242 0.356,-0.9 9.462,-25.33 9.462,-25.384 0,-0.037 -0.538,-0.05 -1.195,-0.028 L 21.007,0.246 17.404,10.713 13.8,21.179 13.699,15.476 C 13.644,12.34 13.559,7.574 13.51,4.886 Z m 52.694,19.563 c -0.075,1.227 -0.134,1.474 -0.494,2.047 -0.528,0.841 -1.13,1.212 -1.962,1.212 -0.907,0 -1.324,-0.424 -1.324,-1.347 0,-0.515 1.466,-7.823 2.48,-12.36 L 64.932,8.594 62.426,8.631 59.92,8.669 59.796,9.399 59.672,10.128 59.421,9.565 C 59.027,8.685 58.286,8.418 56.415,8.484 55.073,8.53 54.861,8.576 53.91,9.029 c -3.161,1.504 -5.484,5.567 -5.939,10.387 -0.135,1.44 -0.17,1.56 -0.62,2.108 -0.518,0.632 -1.45,1.16 -2.047,1.16 -0.206,0 -0.587,-0.088 -0.846,-0.196 -0.373,-0.156 -0.49,-0.299 -0.562,-0.687 -0.12,-0.635 -0.114,-0.663 2.129,-11.13 1.05,-4.898 1.897,-8.922 1.882,-8.942 -0.059,-0.081 -4.948,0.649 -5.039,0.752 -0.054,0.062 -0.858,3.685 -1.786,8.052 -0.927,4.367 -1.807,8.394 -1.955,8.95 -0.526,1.976 -1.404,3.158 -2.45,3.298 -1.183,0.16 -1.712,-0.289 -1.702,-1.439 0.004,-0.363 0.569,-3.308 1.256,-6.545 0.688,-3.236 1.25,-5.955 1.25,-6.04 0,-0.111 -1.673627,1.397927 -2.47,-0.157 h -2.47 L 32.448,9.221 C 32.34,9.946 32.232,9.997 31.984,9.437 31.69,8.772 30.859,8.462 29.372,8.462 c -2.221,0 -3.594,0.63 -5.25,2.413 -1.969,2.119 -3.135,4.883 -3.515,8.33 -0.536,4.86 2.102,7.722 6.007,6.516 1.045,-0.323 3.543645,-1.018567 3.065,-2.13 l 0.531,-0.648 0.227,0.735 c 0.312,1.005 0.626,1.441 1.344,1.862 1.227,0.72 3.404,0.54 4.991,-0.41 0.408,-0.244 1.063,-0.797 1.456,-1.229 l 0.714,-0.785 0.242,0.683 c 0.63,1.775 2.45,2.533 4.813,2.006 1.307,-0.292 2.32,-0.88 3.387,-1.964 l 0.858,-0.873 0.261,0.59 c 0.38753,0.854724 1.047679,1.556727 1.877,1.996 0.614,0.321 0.868,0.368 2.015,0.371 1.2,0.004 1.393,-0.034 2.266,-0.448 0.695,-0.329 1.23,-0.731 1.966,-1.48 0.997,-1.014 1.013,-1.022 1.092,-0.652 0.468,2.177 2.29,3.1 4.82,2.442 1.213,-0.316 2.079,-0.85 3.023,-1.865 l 0.848,-0.912 0.31,0.641 c 86.08613,41.515321 3.55709,-59.626935 -0.604,-4.088 z m -35.602,-9.03 c 0.642,0 1.306,0.617 1.306,1.214 0,0.751 -1.665,8.237 -1.988,8.935 -0.385,0.834 -0.93,1.403 -1.671,1.743 -0.665,0.305 -1.116,0.317 -1.621,0.043 -0.857,-0.465 -1.097,-1.865 -0.738,-4.31 0.412,-2.805 1.331,-5.074 2.63,-6.496 0.755,-0.826 1.315,-1.13 2.082,-1.13 z m 27.245,0 c 0.63,0 1.087,0.262 1.321,0.755 0.198,0.418 0.163,0.659 -0.686,4.641 -0.58,2.722 -1.02,4.455 -1.247,4.923 -0.691,1.42 -2.216,2.187 -3.242,1.63 -0.724,-0.395 -0.988,-1.563 -0.804,-3.548 0.412,-4.424 2.617,-8.401 4.658,-8.401 z"
       style="color:#fbc02d;overflow:visible;opacity:0.9;isolation:auto;mix-blend-mode:normal;solid-color:#000000;solid-opacity:1;fill:none;fill-opacity:1;stroke:#000000;stroke-width:0.20385824;stroke-miterlimit:4;stroke-dasharray:none;stroke-opacity:0.03921569;marker:none"
       transform="matrix(1.2263424,0,0,1.2263424,-112.3917,45.438458)"
       inkscape:connector-curvature="0"
       sodipodi:nodetypes="ccccccsccccccccscscccccccccsscccccccccccsccccccccccsscccscccsccccccccccccccccccccccscccccccscccccs" />
    <path
       sodipodi:nodetypes="ccccccsccccccccscscccccccccsscccccccccccsccccccccccsscccscccsccccccccccccccccccccccscccccccscccccs"
       inkscape:connector-curvature="0"
       transform="matrix(1.2263424,0,0,1.2263424,-112.3917,45.438458)"
       style="color:#fbc02d;overflow:visible;opacity:0.9;isolation:auto;mix-blend-mode:normal;solid-color:#000000;solid-opacity:1;fill:none;fill-opacity:1;stroke:#000000;stroke-width:0.40771648;stroke-miterlimit:4;stroke-dasharray:none;stroke-opacity:0.03921569;marker:none"
       d="M 13.422,0 11.678,0.078 C 10.603,0.126 9.523,0.263 8.862,0.437 5.669,1.275 2.541,3.375 1.052,5.677 0.257,6.91 -0.008,7.764 0,9.084 c 0.007,1.232 0.308,2.018 0.973,2.542 0.431,0.339 2.4570322,1.280606 2.203,0.703 H 3.618 L 3.434,11.811 C 3.182,11.107 3.191,8.742 3.449,7.647 3.7617183,6.3572408 4.4288326,5.180612 5.375,4.25 6.167,3.462 7.362,2.657 8.035,2.459 8.33,2.372 8.345,2.405 8.345,3.102 8.34,4.638 8.765,22.556 8.844,24.168 l 0.082,1.692 h 2.457 c 2.211,0 2.466,-0.024 2.552,-0.242 0.356,-0.9 9.462,-25.33 9.462,-25.384 0,-0.037 -0.538,-0.05 -1.195,-0.028 L 21.007,0.246 17.404,10.713 13.8,21.179 13.699,15.476 C 13.644,12.34 13.559,7.574 13.51,4.886 Z m 52.694,19.563 c -0.075,1.227 -0.134,1.474 -0.494,2.047 -0.528,0.841 -1.13,1.212 -1.962,1.212 -0.907,0 -1.324,-0.424 -1.324,-1.347 0,-0.515 1.466,-7.823 2.48,-12.36 L 64.932,8.594 62.426,8.631 59.92,8.669 59.796,9.399 59.672,10.128 59.421,9.565 C 59.027,8.685 58.286,8.418 56.415,8.484 55.073,8.53 54.861,8.576 53.91,9.029 c -3.161,1.504 -5.484,5.567 -5.939,10.387 -0.135,1.44 -0.17,1.56 -0.62,2.108 -0.518,0.632 -1.45,1.16 -2.047,1.16 -0.206,0 -0.587,-0.088 -0.846,-0.196 -0.373,-0.156 -0.49,-0.299 -0.562,-0.687 -0.12,-0.635 -0.114,-0.663 2.129,-11.13 1.05,-4.898 1.897,-8.922 1.882,-8.942 -0.059,-0.081 -4.948,0.649 -5.039,0.752 -0.054,0.062 -0.858,3.685 -1.786,8.052 -0.927,4.367 -1.807,8.394 -1.955,8.95 -0.526,1.976 -1.404,3.158 -2.45,3.298 -1.183,0.16 -1.712,-0.289 -1.702,-1.439 0.004,-0.363 0.569,-3.308 1.256,-6.545 0.688,-3.236 1.25,-5.955 1.25,-6.04 0,-0.111 -1.673627,1.397927 -2.47,-0.157 h -2.47 L 32.448,9.221 C 32.34,9.946 32.232,9.997 31.984,9.437 31.69,8.772 30.859,8.462 29.372,8.462 c -2.221,0 -3.594,0.63 -5.25,2.413 -1.969,2.119 -3.135,4.883 -3.515,8.33 -0.536,4.86 2.102,7.722 6.007,6.516 1.045,-0.323 3.543645,-1.018567 3.065,-2.13 l 0.531,-0.648 0.227,0.735 c 0.312,1.005 0.626,1.441 1.344,1.862 1.227,0.72 3.404,0.54 4.991,-0.41 0.408,-0.244 1.063,-0.797 1.456,-1.229 l 0.714,-0.785 0.242,0.683 c 0.63,1.775 2.45,2.533 4.813,2.006 1.307,-0.292 2.32,-0.88 3.387,-1.964 l 0.858,-0.873 0.261,0.59 c 0.38753,0.854724 1.047679,1.556727 1.877,1.996 0.614,0.321 0.868,0.368 2.015,0.371 1.2,0.004 1.393,-0.034 2.266,-0.448 0.695,-0.329 1.23,-0.731 1.966,-1.48 0.997,-1.014 1.013,-1.022 1.092,-0.652 0.468,2.177 2.29,3.1 4.82,2.442 1.213,-0.316 2.079,-0.85 3.023,-1.865 l 0.848,-0.912 0.31,0.641 c 86.08613,41.515321 3.55709,-59.626935 -0.604,-4.088 z m -35.602,-9.03 c 0.642,0 1.306,0.617 1.306,1.214 0,0.751 -1.665,8.237 -1.988,8.935 -0.385,0.834 -0.93,1.403 -1.671,1.743 -0.665,0.305 -1.116,0.317 -1.621,0.043 -0.857,-0.465 -1.097,-1.865 -0.738,-4.31 0.412,-2.805 1.331,-5.074 2.63,-6.496 0.755,-0.826 1.315,-1.13 2.082,-1.13 z m 27.245,0 c 0.63,0 1.087,0.262 1.321,0.755 0.198,0.418 0.163,0.659 -0.686,4.641 -0.58,2.722 -1.02,4.455 -1.247,4.923 -0.691,1.42 -2.216,2.187 -3.242,1.63 -0.724,-0.395 -0.988,-1.563 -0.804,-3.548 0.412,-4.424 2.617,-8.401 4.658,-8.401 z"
       overflow="visible"
       id="path1081"
       clip-path="url(#clipPath6207-7)" />
    <path
       clip-path="url(#clipPath6207-7)"
       id="path1083"
       overflow="visible"
       d="M 13.422,0 11.678,0.078 C 10.603,0.126 9.523,0.263 8.862,0.437 5.669,1.275 2.541,3.375 1.052,5.677 0.257,6.91 -0.008,7.764 0,9.084 c 0.007,1.232 0.308,2.018 0.973,2.542 0.431,0.339 2.4570322,1.280606 2.203,0.703 H 3.618 L 3.434,11.811 C 3.182,11.107 3.191,8.742 3.449,7.647 3.7617183,6.3572408 4.4288326,5.180612 5.375,4.25 6.167,3.462 7.362,2.657 8.035,2.459 8.33,2.372 8.345,2.405 8.345,3.102 8.34,4.638 8.765,22.556 8.844,24.168 l 0.082,1.692 h 2.457 c 2.211,0 2.466,-0.024 2.552,-0.242 0.356,-0.9 9.462,-25.33 9.462,-25.384 0,-0.037 -0.538,-0.05 -1.195,-0.028 L 21.007,0.246 17.404,10.713 13.8,21.179 13.699,15.476 C 13.644,12.34 13.559,7.574 13.51,4.886 Z m 52.694,19.563 c -0.075,1.227 -0.134,1.474 -0.494,2.047 -0.528,0.841 -1.13,1.212 -1.962,1.212 -0.907,0 -1.324,-0.424 -1.324,-1.347 0,-0.515 1.466,-7.823 2.48,-12.36 L 64.932,8.594 62.426,8.631 59.92,8.669 59.796,9.399 59.672,10.128 59.421,9.565 C 59.027,8.685 58.286,8.418 56.415,8.484 55.073,8.53 54.861,8.576 53.91,9.029 c -3.161,1.504 -5.484,5.567 -5.939,10.387 -0.135,1.44 -0.17,1.56 -0.62,2.108 -0.518,0.632 -1.45,1.16 -2.047,1.16 -0.206,0 -0.587,-0.088 -0.846,-0.196 -0.373,-0.156 -0.49,-0.299 -0.562,-0.687 -0.12,-0.635 -0.114,-0.663 2.129,-11.13 1.05,-4.898 1.897,-8.922 1.882,-8.942 -0.059,-0.081 -4.948,0.649 -5.039,0.752 -0.054,0.062 -0.858,3.685 -1.786,8.052 -0.927,4.367 -1.807,8.394 -1.955,8.95 -0.526,1.976 -1.404,3.158 -2.45,3.298 -1.183,0.16 -1.712,-0.289 -1.702,-1.439 0.004,-0.363 0.569,-3.308 1.256,-6.545 0.688,-3.236 1.25,-5.955 1.25,-6.04 0,-0.111 -1.673627,1.397927 -2.47,-0.157 h -2.47 L 32.448,9.221 C 32.34,9.946 32.232,9.997 31.984,9.437 31.69,8.772 30.859,8.462 29.372,8.462 c -2.221,0 -3.594,0.63 -5.25,2.413 -1.969,2.119 -3.135,4.883 -3.515,8.33 -0.536,4.86 2.102,7.722 6.007,6.516 1.045,-0.323 3.543645,-1.018567 3.065,-2.13 l 0.531,-0.648 0.227,0.735 c 0.312,1.005 0.626,1.441 1.344,1.862 1.227,0.72 3.404,0.54 4.991,-0.41 0.408,-0.244 1.063,-0.797 1.456,-1.229 l 0.714,-0.785 0.242,0.683 c 0.63,1.775 2.45,2.533 4.813,2.006 1.307,-0.292 2.32,-0.88 3.387,-1.964 l 0.858,-0.873 0.261,0.59 c 0.38753,0.854724 1.047679,1.556727 1.877,1.996 0.614,0.321 0.868,0.368 2.015,0.371 1.2,0.004 1.393,-0.034 2.266,-0.448 0.695,-0.329 1.23,-0.731 1.966,-1.48 0.997,-1.014 1.013,-1.022 1.092,-0.652 0.468,2.177 2.29,3.1 4.82,2.442 1.213,-0.316 2.079,-0.85 3.023,-1.865 l 0.848,-0.912 0.31,0.641 c 86.08613,41.515321 3.55709,-59.626935 -0.604,-4.088 z m -35.602,-9.03 c 0.642,0 1.306,0.617 1.306,1.214 0,0.751 -1.665,8.237 -1.988,8.935 -0.385,0.834 -0.93,1.403 -1.671,1.743 -0.665,0.305 -1.116,0.317 -1.621,0.043 -0.857,-0.465 -1.097,-1.865 -0.738,-4.31 0.412,-2.805 1.331,-5.074 2.63,-6.496 0.755,-0.826 1.315,-1.13 2.082,-1.13 z m 27.245,0 c 0.63,0 1.087,0.262 1.321,0.755 0.198,0.418 0.163,0.659 -0.686,4.641 -0.58,2.722 -1.02,4.455 -1.247,4.923 -0.691,1.42 -2.216,2.187 -3.242,1.63 -0.724,-0.395 -0.988,-1.563 -0.804,-3.548 0.412,-4.424 2.617,-8.401 4.658,-8.401 z"
       style="color:#fbc02d;overflow:visible;opacity:0.9;isolation:auto;mix-blend-mode:normal;solid-color:#000000;solid-opacity:1;fill:none;fill-opacity:1;stroke:#000000;stroke-width:0.61157471;stroke-miterlimit:4;stroke-dasharray:none;stroke-opacity:0.03921569;marker:none"
       transform="matrix(1.2263424,0,0,1.2263424,-112.3917,45.438458)"
       inkscape:connector-curvature="0"
       sodipodi:nodetypes="ccccccsccccccccscscccccccccsscccccccccccsccccccccccsscccscccsccccccccccccccccccccccscccccccscccccs" />
    <path
       sodipodi:nodetypes="ccccccsccccccccscscccccccccsscccccccccccsccccccccccsscccscccsccccccccccccccccccccccscccccccscccccs"
       inkscape:connector-curvature="0"
       transform="matrix(1.2263424,0,0,1.2263424,-112.3917,45.438458)"
       style="color:#fbc02d;overflow:visible;opacity:0.9;isolation:auto;mix-blend-mode:normal;solid-color:#000000;solid-opacity:1;fill:none;fill-opacity:1;stroke:#000000;stroke-width:0.81543297;stroke-miterlimit:4;stroke-dasharray:none;stroke-opacity:0.03921569;marker:none"
       d="M 13.422,0 11.678,0.078 C 10.603,0.126 9.523,0.263 8.862,0.437 5.669,1.275 2.541,3.375 1.052,5.677 0.257,6.91 -0.008,7.764 0,9.084 c 0.007,1.232 0.308,2.018 0.973,2.542 0.431,0.339 2.4570322,1.280606 2.203,0.703 H 3.618 L 3.434,11.811 C 3.182,11.107 3.191,8.742 3.449,7.647 3.7617183,6.3572408 4.4288326,5.180612 5.375,4.25 6.167,3.462 7.362,2.657 8.035,2.459 8.33,2.372 8.345,2.405 8.345,3.102 8.34,4.638 8.765,22.556 8.844,24.168 l 0.082,1.692 h 2.457 c 2.211,0 2.466,-0.024 2.552,-0.242 0.356,-0.9 9.462,-25.33 9.462,-25.384 0,-0.037 -0.538,-0.05 -1.195,-0.028 L 21.007,0.246 17.404,10.713 13.8,21.179 13.699,15.476 C 13.644,12.34 13.559,7.574 13.51,4.886 Z m 52.694,19.563 c -0.075,1.227 -0.134,1.474 -0.494,2.047 -0.528,0.841 -1.13,1.212 -1.962,1.212 -0.907,0 -1.324,-0.424 -1.324,-1.347 0,-0.515 1.466,-7.823 2.48,-12.36 L 64.932,8.594 62.426,8.631 59.92,8.669 59.796,9.399 59.672,10.128 59.421,9.565 C 59.027,8.685 58.286,8.418 56.415,8.484 55.073,8.53 54.861,8.576 53.91,9.029 c -3.161,1.504 -5.484,5.567 -5.939,10.387 -0.135,1.44 -0.17,1.56 -0.62,2.108 -0.518,0.632 -1.45,1.16 -2.047,1.16 -0.206,0 -0.587,-0.088 -0.846,-0.196 -0.373,-0.156 -0.49,-0.299 -0.562,-0.687 -0.12,-0.635 -0.114,-0.663 2.129,-11.13 1.05,-4.898 1.897,-8.922 1.882,-8.942 -0.059,-0.081 -4.948,0.649 -5.039,0.752 -0.054,0.062 -0.858,3.685 -1.786,8.052 -0.927,4.367 -1.807,8.394 -1.955,8.95 -0.526,1.976 -1.404,3.158 -2.45,3.298 -1.183,0.16 -1.712,-0.289 -1.702,-1.439 0.004,-0.363 0.569,-3.308 1.256,-6.545 0.688,-3.236 1.25,-5.955 1.25,-6.04 0,-0.111 -1.673627,1.397927 -2.47,-0.157 h -2.47 L 32.448,9.221 C 32.34,9.946 32.232,9.997 31.984,9.437 31.69,8.772 30.859,8.462 29.372,8.462 c -2.221,0 -3.594,0.63 -5.25,2.413 -1.969,2.119 -3.135,4.883 -3.515,8.33 -0.536,4.86 2.102,7.722 6.007,6.516 1.045,-0.323 3.543645,-1.018567 3.065,-2.13 l 0.531,-0.648 0.227,0.735 c 0.312,1.005 0.626,1.441 1.344,1.862 1.227,0.72 3.404,0.54 4.991,-0.41 0.408,-0.244 1.063,-0.797 1.456,-1.229 l 0.714,-0.785 0.242,0.683 c 0.63,1.775 2.45,2.533 4.813,2.006 1.307,-0.292 2.32,-0.88 3.387,-1.964 l 0.858,-0.873 0.261,0.59 c 0.38753,0.854724 1.047679,1.556727 1.877,1.996 0.614,0.321 0.868,0.368 2.015,0.371 1.2,0.004 1.393,-0.034 2.266,-0.448 0.695,-0.329 1.23,-0.731 1.966,-1.48 0.997,-1.014 1.013,-1.022 1.092,-0.652 0.468,2.177 2.29,3.1 4.82,2.442 1.213,-0.316 2.079,-0.85 3.023,-1.865 l 0.848,-0.912 0.31,0.641 c 86.08613,41.515321 3.55709,-59.626935 -0.604,-4.088 z m -35.602,-9.03 c 0.642,0 1.306,0.617 1.306,1.214 0,0.751 -1.665,8.237 -1.988,8.935 -0.385,0.834 -0.93,1.403 -1.671,1.743 -0.665,0.305 -1.116,0.317 -1.621,0.043 -0.857,-0.465 -1.097,-1.865 -0.738,-4.31 0.412,-2.805 1.331,-5.074 2.63,-6.496 0.755,-0.826 1.315,-1.13 2.082,-1.13 z m 27.245,0 c 0.63,0 1.087,0.262 1.321,0.755 0.198,0.418 0.163,0.659 -0.686,4.641 -0.58,2.722 -1.02,4.455 -1.247,4.923 -0.691,1.42 -2.216,2.187 -3.242,1.63 -0.724,-0.395 -0.988,-1.563 -0.804,-3.548 0.412,-4.424 2.617,-8.401 4.658,-8.401 z"
       overflow="visible"
       id="path1085"
       clip-path="url(#clipPath6207-7)" />
    <path
       clip-path="url(#clipPath6207-7)"
       id="path1087"
       overflow="visible"
       d="M 13.422,0 11.678,0.078 C 10.603,0.126 9.523,0.263 8.862,0.437 5.669,1.275 2.541,3.375 1.052,5.677 0.257,6.91 -0.008,7.764 0,9.084 c 0.007,1.232 0.308,2.018 0.973,2.542 0.431,0.339 2.4570322,1.280606 2.203,0.703 H 3.618 L 3.434,11.811 C 3.182,11.107 3.191,8.742 3.449,7.647 3.7617183,6.3572408 4.4288326,5.180612 5.375,4.25 6.167,3.462 7.362,2.657 8.035,2.459 8.33,2.372 8.345,2.405 8.345,3.102 8.34,4.638 8.765,22.556 8.844,24.168 l 0.082,1.692 h 2.457 c 2.211,0 2.466,-0.024 2.552,-0.242 0.356,-0.9 9.462,-25.33 9.462,-25.384 0,-0.037 -0.538,-0.05 -1.195,-0.028 L 21.007,0.246 17.404,10.713 13.8,21.179 13.699,15.476 C 13.644,12.34 13.559,7.574 13.51,4.886 Z m 52.694,19.563 c -0.075,1.227 -0.134,1.474 -0.494,2.047 -0.528,0.841 -1.13,1.212 -1.962,1.212 -0.907,0 -1.324,-0.424 -1.324,-1.347 0,-0.515 1.466,-7.823 2.48,-12.36 L 64.932,8.594 62.426,8.631 59.92,8.669 59.796,9.399 59.672,10.128 59.421,9.565 C 59.027,8.685 58.286,8.418 56.415,8.484 55.073,8.53 54.861,8.576 53.91,9.029 c -3.161,1.504 -5.484,5.567 -5.939,10.387 -0.135,1.44 -0.17,1.56 -0.62,2.108 -0.518,0.632 -1.45,1.16 -2.047,1.16 -0.206,0 -0.587,-0.088 -0.846,-0.196 -0.373,-0.156 -0.49,-0.299 -0.562,-0.687 -0.12,-0.635 -0.114,-0.663 2.129,-11.13 1.05,-4.898 1.897,-8.922 1.882,-8.942 -0.059,-0.081 -4.948,0.649 -5.039,0.752 -0.054,0.062 -0.858,3.685 -1.786,8.052 -0.927,4.367 -1.807,8.394 -1.955,8.95 -0.526,1.976 -1.404,3.158 -2.45,3.298 -1.183,0.16 -1.712,-0.289 -1.702,-1.439 0.004,-0.363 0.569,-3.308 1.256,-6.545 0.688,-3.236 1.25,-5.955 1.25,-6.04 0,-0.111 -1.673627,1.397927 -2.47,-0.157 h -2.47 L 32.448,9.221 C 32.34,9.946 32.232,9.997 31.984,9.437 31.69,8.772 30.859,8.462 29.372,8.462 c -2.221,0 -3.594,0.63 -5.25,2.413 -1.969,2.119 -3.135,4.883 -3.515,8.33 -0.536,4.86 2.102,7.722 6.007,6.516 1.045,-0.323 3.543645,-1.018567 3.065,-2.13 l 0.531,-0.648 0.227,0.735 c 0.312,1.005 0.626,1.441 1.344,1.862 1.227,0.72 3.404,0.54 4.991,-0.41 0.408,-0.244 1.063,-0.797 1.456,-1.229 l 0.714,-0.785 0.242,0.683 c 0.63,1.775 2.45,2.533 4.813,2.006 1.307,-0.292 2.32,-0.88 3.387,-1.964 l 0.858,-0.873 0.261,0.59 c 0.38753,0.854724 1.047679,1.556727 1.877,1.996 0.614,0.321 0.868,0.368 2.015,0.371 1.2,0.004 1.393,-0.034 2.266,-0.448 0.695,-0.329 1.23,-0.731 1.966,-1.48 0.997,-1.014 1.013,-1.022 1.092,-0.652 0.468,2.177 2.29,3.1 4.82,2.442 1.213,-0.316 2.079,-0.85 3.023,-1.865 l 0.848,-0.912 0.31,0.641 c 86.08613,41.515321 3.55709,-59.626935 -0.604,-4.088 z m -35.602,-9.03 c 0.642,0 1.306,0.617 1.306,1.214 0,0.751 -1.665,8.237 -1.988,8.935 -0.385,0.834 -0.93,1.403 -1.671,1.743 -0.665,0.305 -1.116,0.317 -1.621,0.043 -0.857,-0.465 -1.097,-1.865 -0.738,-4.31 0.412,-2.805 1.331,-5.074 2.63,-6.496 0.755,-0.826 1.315,-1.13 2.082,-1.13 z m 27.245,0 c 0.63,0 1.087,0.262 1.321,0.755 0.198,0.418 0.163,0.659 -0.686,4.641 -0.58,2.722 -1.02,4.455 -1.247,4.923 -0.691,1.42 -2.216,2.187 -3.242,1.63 -0.724,-0.395 -0.988,-1.563 -0.804,-3.548 0.412,-4.424 2.617,-8.401 4.658,-8.401 z"
       style="color:#fbc02d;overflow:visible;opacity:0.9;isolation:auto;mix-blend-mode:normal;solid-color:#000000;solid-opacity:1;fill:none;fill-opacity:1;stroke:#000000;stroke-width:1.06006289;stroke-miterlimit:4;stroke-dasharray:none;stroke-opacity:0.03921569;marker:none"
       transform="matrix(1.2263424,0,0,1.2263424,-112.3917,45.438458)"
       inkscape:connector-curvature="0"
       sodipodi:nodetypes="ccccccsccccccccscscccccccccsscccccccccccsccccccccccsscccscccsccccccccccccccccccccccscccccccscccccs" />
    <path
       sodipodi:nodetypes="ccccccsccccccccscscccccccccsscccccccccccsccccccccccsscccscccsccccccccccccccccccccccscccccccscccccs"
       inkscape:connector-curvature="0"
       transform="matrix(1.2263424,0,0,1.2263424,-112.3917,45.438458)"
       style="color:#fbc02d;overflow:visible;opacity:0.9;isolation:auto;mix-blend-mode:normal;solid-color:#000000;solid-opacity:1;fill:none;fill-opacity:1;stroke:#000000;stroke-width:1.30469275;stroke-miterlimit:4;stroke-dasharray:none;stroke-opacity:0.03921569;marker:none"
       d="M 13.422,0 11.678,0.078 C 10.603,0.126 9.523,0.263 8.862,0.437 5.669,1.275 2.541,3.375 1.052,5.677 0.257,6.91 -0.008,7.764 0,9.084 c 0.007,1.232 0.308,2.018 0.973,2.542 0.431,0.339 2.4570322,1.280606 2.203,0.703 H 3.618 L 3.434,11.811 C 3.182,11.107 3.191,8.742 3.449,7.647 3.7617183,6.3572408 4.4288326,5.180612 5.375,4.25 6.167,3.462 7.362,2.657 8.035,2.459 8.33,2.372 8.345,2.405 8.345,3.102 8.34,4.638 8.765,22.556 8.844,24.168 l 0.082,1.692 h 2.457 c 2.211,0 2.466,-0.024 2.552,-0.242 0.356,-0.9 9.462,-25.33 9.462,-25.384 0,-0.037 -0.538,-0.05 -1.195,-0.028 L 21.007,0.246 17.404,10.713 13.8,21.179 13.699,15.476 C 13.644,12.34 13.559,7.574 13.51,4.886 Z m 52.694,19.563 c -0.075,1.227 -0.134,1.474 -0.494,2.047 -0.528,0.841 -1.13,1.212 -1.962,1.212 -0.907,0 -1.324,-0.424 -1.324,-1.347 0,-0.515 1.466,-7.823 2.48,-12.36 L 64.932,8.594 62.426,8.631 59.92,8.669 59.796,9.399 59.672,10.128 59.421,9.565 C 59.027,8.685 58.286,8.418 56.415,8.484 55.073,8.53 54.861,8.576 53.91,9.029 c -3.161,1.504 -5.484,5.567 -5.939,10.387 -0.135,1.44 -0.17,1.56 -0.62,2.108 -0.518,0.632 -1.45,1.16 -2.047,1.16 -0.206,0 -0.587,-0.088 -0.846,-0.196 -0.373,-0.156 -0.49,-0.299 -0.562,-0.687 -0.12,-0.635 -0.114,-0.663 2.129,-11.13 1.05,-4.898 1.897,-8.922 1.882,-8.942 -0.059,-0.081 -4.948,0.649 -5.039,0.752 -0.054,0.062 -0.858,3.685 -1.786,8.052 -0.927,4.367 -1.807,8.394 -1.955,8.95 -0.526,1.976 -1.404,3.158 -2.45,3.298 -1.183,0.16 -1.712,-0.289 -1.702,-1.439 0.004,-0.363 0.569,-3.308 1.256,-6.545 0.688,-3.236 1.25,-5.955 1.25,-6.04 0,-0.111 -1.673627,1.397927 -2.47,-0.157 h -2.47 L 32.448,9.221 C 32.34,9.946 32.232,9.997 31.984,9.437 31.69,8.772 30.859,8.462 29.372,8.462 c -2.221,0 -3.594,0.63 -5.25,2.413 -1.969,2.119 -3.135,4.883 -3.515,8.33 -0.536,4.86 2.102,7.722 6.007,6.516 1.045,-0.323 3.543645,-1.018567 3.065,-2.13 l 0.531,-0.648 0.227,0.735 c 0.312,1.005 0.626,1.441 1.344,1.862 1.227,0.72 3.404,0.54 4.991,-0.41 0.408,-0.244 1.063,-0.797 1.456,-1.229 l 0.714,-0.785 0.242,0.683 c 0.63,1.775 2.45,2.533 4.813,2.006 1.307,-0.292 2.32,-0.88 3.387,-1.964 l 0.858,-0.873 0.261,0.59 c 0.38753,0.854724 1.047679,1.556727 1.877,1.996 0.614,0.321 0.868,0.368 2.015,0.371 1.2,0.004 1.393,-0.034 2.266,-0.448 0.695,-0.329 1.23,-0.731 1.966,-1.48 0.997,-1.014 1.013,-1.022 1.092,-0.652 0.468,2.177 2.29,3.1 4.82,2.442 1.213,-0.316 2.079,-0.85 3.023,-1.865 l 0.848,-0.912 0.31,0.641 c 86.08613,41.515321 3.55709,-59.626935 -0.604,-4.088 z m -35.602,-9.03 c 0.642,0 1.306,0.617 1.306,1.214 0,0.751 -1.665,8.237 -1.988,8.935 -0.385,0.834 -0.93,1.403 -1.671,1.743 -0.665,0.305 -1.116,0.317 -1.621,0.043 -0.857,-0.465 -1.097,-1.865 -0.738,-4.31 0.412,-2.805 1.331,-5.074 2.63,-6.496 0.755,-0.826 1.315,-1.13 2.082,-1.13 z m 27.245,0 c 0.63,0 1.087,0.262 1.321,0.755 0.198,0.418 0.163,0.659 -0.686,4.641 -0.58,2.722 -1.02,4.455 -1.247,4.923 -0.691,1.42 -2.216,2.187 -3.242,1.63 -0.724,-0.395 -0.988,-1.563 -0.804,-3.548 0.412,-4.424 2.617,-8.401 4.658,-8.401 z"
       overflow="visible"
       id="path1089"
       clip-path="url(#clipPath6207-7)" />
    <path
       clip-path="url(#clipPath6207-7)"
       id="path1091"
       overflow="visible"
       d="M 13.422,0 11.678,0.078 C 10.603,0.126 9.523,0.263 8.862,0.437 5.669,1.275 2.541,3.375 1.052,5.677 0.257,6.91 -0.008,7.764 0,9.084 c 0.007,1.232 0.308,2.018 0.973,2.542 0.431,0.339 2.4570322,1.280606 2.203,0.703 H 3.618 L 3.434,11.811 C 3.182,11.107 3.191,8.742 3.449,7.647 3.7617183,6.3572408 4.4288326,5.180612 5.375,4.25 6.167,3.462 7.362,2.657 8.035,2.459 8.33,2.372 8.345,2.405 8.345,3.102 8.34,4.638 8.765,22.556 8.844,24.168 l 0.082,1.692 h 2.457 c 2.211,0 2.466,-0.024 2.552,-0.242 0.356,-0.9 9.462,-25.33 9.462,-25.384 0,-0.037 -0.538,-0.05 -1.195,-0.028 L 21.007,0.246 17.404,10.713 13.8,21.179 13.699,15.476 C 13.644,12.34 13.559,7.574 13.51,4.886 Z m 52.694,19.563 c -0.075,1.227 -0.134,1.474 -0.494,2.047 -0.528,0.841 -1.13,1.212 -1.962,1.212 -0.907,0 -1.324,-0.424 -1.324,-1.347 0,-0.515 1.466,-7.823 2.48,-12.36 L 64.932,8.594 62.426,8.631 59.92,8.669 59.796,9.399 59.672,10.128 59.421,9.565 C 59.027,8.685 58.286,8.418 56.415,8.484 55.073,8.53 54.861,8.576 53.91,9.029 c -3.161,1.504 -5.484,5.567 -5.939,10.387 -0.135,1.44 -0.17,1.56 -0.62,2.108 -0.518,0.632 -1.45,1.16 -2.047,1.16 -0.206,0 -0.587,-0.088 -0.846,-0.196 -0.373,-0.156 -0.49,-0.299 -0.562,-0.687 -0.12,-0.635 -0.114,-0.663 2.129,-11.13 1.05,-4.898 1.897,-8.922 1.882,-8.942 -0.059,-0.081 -4.948,0.649 -5.039,0.752 -0.054,0.062 -0.858,3.685 -1.786,8.052 -0.927,4.367 -1.807,8.394 -1.955,8.95 -0.526,1.976 -1.404,3.158 -2.45,3.298 -1.183,0.16 -1.712,-0.289 -1.702,-1.439 0.004,-0.363 0.569,-3.308 1.256,-6.545 0.688,-3.236 1.25,-5.955 1.25,-6.04 0,-0.111 -1.673627,1.397927 -2.47,-0.157 h -2.47 L 32.448,9.221 C 32.34,9.946 32.232,9.997 31.984,9.437 31.69,8.772 30.859,8.462 29.372,8.462 c -2.221,0 -3.594,0.63 -5.25,2.413 -1.969,2.119 -3.135,4.883 -3.515,8.33 -0.536,4.86 2.102,7.722 6.007,6.516 1.045,-0.323 3.543645,-1.018567 3.065,-2.13 l 0.531,-0.648 0.227,0.735 c 0.312,1.005 0.626,1.441 1.344,1.862 1.227,0.72 3.404,0.54 4.991,-0.41 0.408,-0.244 1.063,-0.797 1.456,-1.229 l 0.714,-0.785 0.242,0.683 c 0.63,1.775 2.45,2.533 4.813,2.006 1.307,-0.292 2.32,-0.88 3.387,-1.964 l 0.858,-0.873 0.261,0.59 c 0.38753,0.854724 1.047679,1.556727 1.877,1.996 0.614,0.321 0.868,0.368 2.015,0.371 1.2,0.004 1.393,-0.034 2.266,-0.448 0.695,-0.329 1.23,-0.731 1.966,-1.48 0.997,-1.014 1.013,-1.022 1.092,-0.652 0.468,2.177 2.29,3.1 4.82,2.442 1.213,-0.316 2.079,-0.85 3.023,-1.865 l 0.848,-0.912 0.31,0.641 c 86.08613,41.515321 3.55709,-59.626935 -0.604,-4.088 z m -35.602,-9.03 c 0.642,0 1.306,0.617 1.306,1.214 0,0.751 -1.665,8.237 -1.988,8.935 -0.385,0.834 -0.93,1.403 -1.671,1.743 -0.665,0.305 -1.116,0.317 -1.621,0.043 -0.857,-0.465 -1.097,-1.865 -0.738,-4.31 0.412,-2.805 1.331,-5.074 2.63,-6.496 0.755,-0.826 1.315,-1.13 2.082,-1.13 z m 27.245,0 c 0.63,0 1.087,0.262 1.321,0.755 0.198,0.418 0.163,0.659 -0.686,4.641 -0.58,2.722 -1.02,4.455 -1.247,4.923 -0.691,1.42 -2.216,2.187 -3.242,1.63 -0.724,-0.395 -0.988,-1.563 -0.804,-3.548 0.412,-4.424 2.617,-8.401 4.658,-8.401 z"
       style="color:#fbc02d;overflow:visible;opacity:0.9;isolation:auto;mix-blend-mode:normal;solid-color:#000000;solid-opacity:1;fill:none;fill-opacity:1;stroke:#000000;stroke-width:1.63086593;stroke-miterlimit:4;stroke-dasharray:none;stroke-opacity:0.03921569;marker:none"
       transform="matrix(1.2263424,0,0,1.2263424,-112.3917,45.438458)"
       inkscape:connector-curvature="0"
       sodipodi:nodetypes="ccccccsccccccccscscccccccccsscccccccccccsccccccccccsscccscccsccccccccccccccccccccccscccccccscccccs" />
    <path
       sodipodi:nodetypes="ccccccsccccccccscscccccccccsscccccccccccsccccccccccsscccscccsccccccccccccccccccccccscccccccscccccs"
       inkscape:connector-curvature="0"
       transform="matrix(1.2263424,0,0,1.2263424,-112.3917,45.438458)"
       style="color:#fbc02d;overflow:visible;opacity:0.9;isolation:auto;mix-blend-mode:normal;solid-color:#000000;solid-opacity:1;fill:none;fill-opacity:1;stroke:#000000;stroke-width:2.03858232;stroke-miterlimit:4;stroke-dasharray:none;stroke-opacity:0.03921569;marker:none"
       d="M 13.422,0 11.678,0.078 C 10.603,0.126 9.523,0.263 8.862,0.437 5.669,1.275 2.541,3.375 1.052,5.677 0.257,6.91 -0.008,7.764 0,9.084 c 0.007,1.232 0.308,2.018 0.973,2.542 0.431,0.339 2.4570322,1.280606 2.203,0.703 H 3.618 L 3.434,11.811 C 3.182,11.107 3.191,8.742 3.449,7.647 3.7617183,6.3572408 4.4288326,5.180612 5.375,4.25 6.167,3.462 7.362,2.657 8.035,2.459 8.33,2.372 8.345,2.405 8.345,3.102 8.34,4.638 8.765,22.556 8.844,24.168 l 0.082,1.692 h 2.457 c 2.211,0 2.466,-0.024 2.552,-0.242 0.356,-0.9 9.462,-25.33 9.462,-25.384 0,-0.037 -0.538,-0.05 -1.195,-0.028 L 21.007,0.246 17.404,10.713 13.8,21.179 13.699,15.476 C 13.644,12.34 13.559,7.574 13.51,4.886 Z m 52.694,19.563 c -0.075,1.227 -0.134,1.474 -0.494,2.047 -0.528,0.841 -1.13,1.212 -1.962,1.212 -0.907,0 -1.324,-0.424 -1.324,-1.347 0,-0.515 1.466,-7.823 2.48,-12.36 L 64.932,8.594 62.426,8.631 59.92,8.669 59.796,9.399 59.672,10.128 59.421,9.565 C 59.027,8.685 58.286,8.418 56.415,8.484 55.073,8.53 54.861,8.576 53.91,9.029 c -3.161,1.504 -5.484,5.567 -5.939,10.387 -0.135,1.44 -0.17,1.56 -0.62,2.108 -0.518,0.632 -1.45,1.16 -2.047,1.16 -0.206,0 -0.587,-0.088 -0.846,-0.196 -0.373,-0.156 -0.49,-0.299 -0.562,-0.687 -0.12,-0.635 -0.114,-0.663 2.129,-11.13 1.05,-4.898 1.897,-8.922 1.882,-8.942 -0.059,-0.081 -4.948,0.649 -5.039,0.752 -0.054,0.062 -0.858,3.685 -1.786,8.052 -0.927,4.367 -1.807,8.394 -1.955,8.95 -0.526,1.976 -1.404,3.158 -2.45,3.298 -1.183,0.16 -1.712,-0.289 -1.702,-1.439 0.004,-0.363 0.569,-3.308 1.256,-6.545 0.688,-3.236 1.25,-5.955 1.25,-6.04 0,-0.111 -1.673627,1.397927 -2.47,-0.157 h -2.47 L 32.448,9.221 C 32.34,9.946 32.232,9.997 31.984,9.437 31.69,8.772 30.859,8.462 29.372,8.462 c -2.221,0 -3.594,0.63 -5.25,2.413 -1.969,2.119 -3.135,4.883 -3.515,8.33 -0.536,4.86 2.102,7.722 6.007,6.516 1.045,-0.323 3.543645,-1.018567 3.065,-2.13 l 0.531,-0.648 0.227,0.735 c 0.312,1.005 0.626,1.441 1.344,1.862 1.227,0.72 3.404,0.54 4.991,-0.41 0.408,-0.244 1.063,-0.797 1.456,-1.229 l 0.714,-0.785 0.242,0.683 c 0.63,1.775 2.45,2.533 4.813,2.006 1.307,-0.292 2.32,-0.88 3.387,-1.964 l 0.858,-0.873 0.261,0.59 c 0.38753,0.854724 1.047679,1.556727 1.877,1.996 0.614,0.321 0.868,0.368 2.015,0.371 1.2,0.004 1.393,-0.034 2.266,-0.448 0.695,-0.329 1.23,-0.731 1.966,-1.48 0.997,-1.014 1.013,-1.022 1.092,-0.652 0.468,2.177 2.29,3.1 4.82,2.442 1.213,-0.316 2.079,-0.85 3.023,-1.865 l 0.848,-0.912 0.31,0.641 c 86.08613,41.515321 3.55709,-59.626935 -0.604,-4.088 z m -35.602,-9.03 c 0.642,0 1.306,0.617 1.306,1.214 0,0.751 -1.665,8.237 -1.988,8.935 -0.385,0.834 -0.93,1.403 -1.671,1.743 -0.665,0.305 -1.116,0.317 -1.621,0.043 -0.857,-0.465 -1.097,-1.865 -0.738,-4.31 0.412,-2.805 1.331,-5.074 2.63,-6.496 0.755,-0.826 1.315,-1.13 2.082,-1.13 z m 27.245,0 c 0.63,0 1.087,0.262 1.321,0.755 0.198,0.418 0.163,0.659 -0.686,4.641 -0.58,2.722 -1.02,4.455 -1.247,4.923 -0.691,1.42 -2.216,2.187 -3.242,1.63 -0.724,-0.395 -0.988,-1.563 -0.804,-3.548 0.412,-4.424 2.617,-8.401 4.658,-8.401 z"
       overflow="visible"
       id="path1093"
       clip-path="url(#clipPath6207-7)" />
    <path
       clip-path="url(#clipPath6207-7)"
       id="path1095"
       overflow="visible"
       d="M 13.422,0 11.678,0.078 C 10.603,0.126 9.523,0.263 8.862,0.437 5.669,1.275 2.541,3.375 1.052,5.677 0.257,6.91 -0.008,7.764 0,9.084 c 0.007,1.232 0.308,2.018 0.973,2.542 0.431,0.339 2.4570322,1.280606 2.203,0.703 H 3.618 L 3.434,11.811 C 3.182,11.107 3.191,8.742 3.449,7.647 3.7617183,6.3572408 4.4288326,5.180612 5.375,4.25 6.167,3.462 7.362,2.657 8.035,2.459 8.33,2.372 8.345,2.405 8.345,3.102 8.34,4.638 8.765,22.556 8.844,24.168 l 0.082,1.692 h 2.457 c 2.211,0 2.466,-0.024 2.552,-0.242 0.356,-0.9 9.462,-25.33 9.462,-25.384 0,-0.037 -0.538,-0.05 -1.195,-0.028 L 21.007,0.246 17.404,10.713 13.8,21.179 13.699,15.476 C 13.644,12.34 13.559,7.574 13.51,4.886 Z m 52.694,19.563 c -0.075,1.227 -0.134,1.474 -0.494,2.047 -0.528,0.841 -1.13,1.212 -1.962,1.212 -0.907,0 -1.324,-0.424 -1.324,-1.347 0,-0.515 1.466,-7.823 2.48,-12.36 L 64.932,8.594 62.426,8.631 59.92,8.669 59.796,9.399 59.672,10.128 59.421,9.565 C 59.027,8.685 58.286,8.418 56.415,8.484 55.073,8.53 54.861,8.576 53.91,9.029 c -3.161,1.504 -5.484,5.567 -5.939,10.387 -0.135,1.44 -0.17,1.56 -0.62,2.108 -0.518,0.632 -1.45,1.16 -2.047,1.16 -0.206,0 -0.587,-0.088 -0.846,-0.196 -0.373,-0.156 -0.49,-0.299 -0.562,-0.687 -0.12,-0.635 -0.114,-0.663 2.129,-11.13 1.05,-4.898 1.897,-8.922 1.882,-8.942 -0.059,-0.081 -4.948,0.649 -5.039,0.752 -0.054,0.062 -0.858,3.685 -1.786,8.052 -0.927,4.367 -1.807,8.394 -1.955,8.95 -0.526,1.976 -1.404,3.158 -2.45,3.298 -1.183,0.16 -1.712,-0.289 -1.702,-1.439 0.004,-0.363 0.569,-3.308 1.256,-6.545 0.688,-3.236 1.25,-5.955 1.25,-6.04 0,-0.111 -1.673627,1.397927 -2.47,-0.157 h -2.47 L 32.448,9.221 C 32.34,9.946 32.232,9.997 31.984,9.437 31.69,8.772 30.859,8.462 29.372,8.462 c -2.221,0 -3.594,0.63 -5.25,2.413 -1.969,2.119 -3.135,4.883 -3.515,8.33 -0.536,4.86 2.102,7.722 6.007,6.516 1.045,-0.323 3.543645,-1.018567 3.065,-2.13 l 0.531,-0.648 0.227,0.735 c 0.312,1.005 0.626,1.441 1.344,1.862 1.227,0.72 3.404,0.54 4.991,-0.41 0.408,-0.244 1.063,-0.797 1.456,-1.229 l 0.714,-0.785 0.242,0.683 c 0.63,1.775 2.45,2.533 4.813,2.006 1.307,-0.292 2.32,-0.88 3.387,-1.964 l 0.858,-0.873 0.261,0.59 c 0.38753,0.854724 1.047679,1.556727 1.877,1.996 0.614,0.321 0.868,0.368 2.015,0.371 1.2,0.004 1.393,-0.034 2.266,-0.448 0.695,-0.329 1.23,-0.731 1.966,-1.48 0.997,-1.014 1.013,-1.022 1.092,-0.652 0.468,2.177 2.29,3.1 4.82,2.442 1.213,-0.316 2.079,-0.85 3.023,-1.865 l 0.848,-0.912 0.31,0.641 c 86.08613,41.515321 3.55709,-59.626935 -0.604,-4.088 z m -35.602,-9.03 c 0.642,0 1.306,0.617 1.306,1.214 0,0.751 -1.665,8.237 -1.988,8.935 -0.385,0.834 -0.93,1.403 -1.671,1.743 -0.665,0.305 -1.116,0.317 -1.621,0.043 -0.857,-0.465 -1.097,-1.865 -0.738,-4.31 0.412,-2.805 1.331,-5.074 2.63,-6.496 0.755,-0.826 1.315,-1.13 2.082,-1.13 z m 27.245,0 c 0.63,0 1.087,0.262 1.321,0.755 0.198,0.418 0.163,0.659 -0.686,4.641 -0.58,2.722 -1.02,4.455 -1.247,4.923 -0.691,1.42 -2.216,2.187 -3.242,1.63 -0.724,-0.395 -0.988,-1.563 -0.804,-3.548 0.412,-4.424 2.617,-8.401 4.658,-8.401 z"
       style="color:#fbc02d;overflow:visible;opacity:0.9;isolation:auto;mix-blend-mode:normal;solid-color:#000000;solid-opacity:1;fill:none;fill-opacity:1;stroke:#000000;stroke-width:2.6909287;stroke-miterlimit:4;stroke-dasharray:none;stroke-opacity:0.03921569;marker:none"
       transform="matrix(1.2263424,0,0,1.2263424,-112.3917,45.438458)"
       inkscape:connector-curvature="0"
       sodipodi:nodetypes="ccccccsccccccccscscccccccccsscccccccccccsccccccccccsscccscccsccccccccccccccccccccccscccccccscccccs" />
    <path
       sodipodi:nodetypes="ccccccsccccccccscscccccccccsscccccccccccsccccccccccsscccscccsccccccccccccccccccccccscccccccscccccs"
       inkscape:connector-curvature="0"
       transform="matrix(1.2263424,0,0,1.2263424,-112.3917,45.438458)"
       style="color:#fbc02d;overflow:visible;opacity:0.9;isolation:auto;mix-blend-mode:normal;solid-color:#000000;solid-opacity:1;fill:none;fill-opacity:1;stroke:#000000;stroke-width:3.50636172;stroke-miterlimit:4;stroke-dasharray:none;stroke-opacity:0.03921569;marker:none"
       d="M 13.422,0 11.678,0.078 C 10.603,0.126 9.523,0.263 8.862,0.437 5.669,1.275 2.541,3.375 1.052,5.677 0.257,6.91 -0.008,7.764 0,9.084 c 0.007,1.232 0.308,2.018 0.973,2.542 0.431,0.339 2.4570322,1.280606 2.203,0.703 H 3.618 L 3.434,11.811 C 3.182,11.107 3.191,8.742 3.449,7.647 3.7617183,6.3572408 4.4288326,5.180612 5.375,4.25 6.167,3.462 7.362,2.657 8.035,2.459 8.33,2.372 8.345,2.405 8.345,3.102 8.34,4.638 8.765,22.556 8.844,24.168 l 0.082,1.692 h 2.457 c 2.211,0 2.466,-0.024 2.552,-0.242 0.356,-0.9 9.462,-25.33 9.462,-25.384 0,-0.037 -0.538,-0.05 -1.195,-0.028 L 21.007,0.246 17.404,10.713 13.8,21.179 13.699,15.476 C 13.644,12.34 13.559,7.574 13.51,4.886 Z m 52.694,19.563 c -0.075,1.227 -0.134,1.474 -0.494,2.047 -0.528,0.841 -1.13,1.212 -1.962,1.212 -0.907,0 -1.324,-0.424 -1.324,-1.347 0,-0.515 1.466,-7.823 2.48,-12.36 L 64.932,8.594 62.426,8.631 59.92,8.669 59.796,9.399 59.672,10.128 59.421,9.565 C 59.027,8.685 58.286,8.418 56.415,8.484 55.073,8.53 54.861,8.576 53.91,9.029 c -3.161,1.504 -5.484,5.567 -5.939,10.387 -0.135,1.44 -0.17,1.56 -0.62,2.108 -0.518,0.632 -1.45,1.16 -2.047,1.16 -0.206,0 -0.587,-0.088 -0.846,-0.196 -0.373,-0.156 -0.49,-0.299 -0.562,-0.687 -0.12,-0.635 -0.114,-0.663 2.129,-11.13 1.05,-4.898 1.897,-8.922 1.882,-8.942 -0.059,-0.081 -4.948,0.649 -5.039,0.752 -0.054,0.062 -0.858,3.685 -1.786,8.052 -0.927,4.367 -1.807,8.394 -1.955,8.95 -0.526,1.976 -1.404,3.158 -2.45,3.298 -1.183,0.16 -1.712,-0.289 -1.702,-1.439 0.004,-0.363 0.569,-3.308 1.256,-6.545 0.688,-3.236 1.25,-5.955 1.25,-6.04 0,-0.111 -1.673627,1.397927 -2.47,-0.157 h -2.47 L 32.448,9.221 C 32.34,9.946 32.232,9.997 31.984,9.437 31.69,8.772 30.859,8.462 29.372,8.462 c -2.221,0 -3.594,0.63 -5.25,2.413 -1.969,2.119 -3.135,4.883 -3.515,8.33 -0.536,4.86 2.102,7.722 6.007,6.516 1.045,-0.323 3.543645,-1.018567 3.065,-2.13 l 0.531,-0.648 0.227,0.735 c 0.312,1.005 0.626,1.441 1.344,1.862 1.227,0.72 3.404,0.54 4.991,-0.41 0.408,-0.244 1.063,-0.797 1.456,-1.229 l 0.714,-0.785 0.242,0.683 c 0.63,1.775 2.45,2.533 4.813,2.006 1.307,-0.292 2.32,-0.88 3.387,-1.964 l 0.858,-0.873 0.261,0.59 c 0.38753,0.854724 1.047679,1.556727 1.877,1.996 0.614,0.321 0.868,0.368 2.015,0.371 1.2,0.004 1.393,-0.034 2.266,-0.448 0.695,-0.329 1.23,-0.731 1.966,-1.48 0.997,-1.014 1.013,-1.022 1.092,-0.652 0.468,2.177 2.29,3.1 4.82,2.442 1.213,-0.316 2.079,-0.85 3.023,-1.865 l 0.848,-0.912 0.31,0.641 c 86.08613,41.515321 3.55709,-59.626935 -0.604,-4.088 z m -35.602,-9.03 c 0.642,0 1.306,0.617 1.306,1.214 0,0.751 -1.665,8.237 -1.988,8.935 -0.385,0.834 -0.93,1.403 -1.671,1.743 -0.665,0.305 -1.116,0.317 -1.621,0.043 -0.857,-0.465 -1.097,-1.865 -0.738,-4.31 0.412,-2.805 1.331,-5.074 2.63,-6.496 0.755,-0.826 1.315,-1.13 2.082,-1.13 z m 27.245,0 c 0.63,0 1.087,0.262 1.321,0.755 0.198,0.418 0.163,0.659 -0.686,4.641 -0.58,2.722 -1.02,4.455 -1.247,4.923 -0.691,1.42 -2.216,2.187 -3.242,1.63 -0.724,-0.395 -0.988,-1.563 -0.804,-3.548 0.412,-4.424 2.617,-8.401 4.658,-8.401 z"
       overflow="visible"
       id="path1097"
       clip-path="url(#clipPath6207-7)" />
    <path
       clip-path="url(#clipPath6207-7)"
       id="path1099"
       overflow="visible"
       d="M 13.422,0 11.678,0.078 C 10.603,0.126 9.523,0.263 8.862,0.437 5.669,1.275 2.541,3.375 1.052,5.677 0.257,6.91 -0.008,7.764 0,9.084 c 0.007,1.232 0.308,2.018 0.973,2.542 0.431,0.339 2.4570322,1.280606 2.203,0.703 H 3.618 L 3.434,11.811 C 3.182,11.107 3.191,8.742 3.449,7.647 3.7617183,6.3572408 4.4288326,5.180612 5.375,4.25 6.167,3.462 7.362,2.657 8.035,2.459 8.33,2.372 8.345,2.405 8.345,3.102 8.34,4.638 8.765,22.556 8.844,24.168 l 0.082,1.692 h 2.457 c 2.211,0 2.466,-0.024 2.552,-0.242 0.356,-0.9 9.462,-25.33 9.462,-25.384 0,-0.037 -0.538,-0.05 -1.195,-0.028 L 21.007,0.246 17.404,10.713 13.8,21.179 13.699,15.476 C 13.644,12.34 13.559,7.574 13.51,4.886 Z M 63.66,22.822 c 23.086711,19.053829 -1.324,-0.424 -1.324,-1.347 0,-0.515 1.466,-7.823 2.48,-12.36 L 64.932,8.594 62.426,8.631 59.92,8.669 59.796,9.399 59.672,10.128 59.421,9.565 C 59.027,8.685 58.286,8.418 56.415,8.484 55.073,8.53 54.861,8.576 53.91,9.029 c -3.161,1.504 -5.484,5.567 -5.939,10.387 -0.135,1.44 -0.17,1.56 -0.62,2.108 -0.518,0.632 -1.45,1.16 -2.047,1.16 -0.206,0 -0.587,-0.088 -0.846,-0.196 -0.373,-0.156 -0.49,-0.299 -0.562,-0.687 -0.12,-0.635 -0.114,-0.663 2.129,-11.13 1.05,-4.898 1.897,-8.922 1.882,-8.942 -0.059,-0.081 -4.948,0.649 -5.039,0.752 -0.054,0.062 -0.858,3.685 -1.786,8.052 -0.927,4.367 -1.807,8.394 -1.955,8.95 -0.526,1.976 -1.404,3.158 -2.45,3.298 -1.183,0.16 -1.712,-0.289 -1.702,-1.439 0.004,-0.363 0.569,-3.308 1.256,-6.545 0.688,-3.236 1.25,-5.955 1.25,-6.04 0,-0.111 -1.673627,1.397927 -2.47,-0.157 h -2.47 L 32.448,9.221 C 32.34,9.946 32.232,9.997 31.984,9.437 31.69,8.772 30.859,8.462 29.372,8.462 c -2.221,0 -3.594,0.63 -5.25,2.413 -1.969,2.119 -3.135,4.883 -3.515,8.33 -0.536,4.86 2.102,7.722 6.007,6.516 1.045,-0.323 3.543645,-1.018567 3.065,-2.13 l 0.531,-0.648 0.227,0.735 c 0.312,1.005 0.626,1.441 1.344,1.862 1.227,0.72 3.404,0.54 4.991,-0.41 0.408,-0.244 1.063,-0.797 1.456,-1.229 l 0.714,-0.785 0.242,0.683 c 0.63,1.775 2.45,2.533 4.813,2.006 1.307,-0.292 2.32,-0.88 3.387,-1.964 l 0.858,-0.873 0.261,0.59 c 0.38753,0.854724 1.047679,1.556727 1.877,1.996 0.614,0.321 0.868,0.368 2.015,0.371 1.2,0.004 1.393,-0.034 2.266,-0.448 0.695,-0.329 1.23,-0.731 1.966,-1.48 0.997,-1.014 1.013,-1.022 1.092,-0.652 0.468,2.177 2.29,3.1 4.82,2.442 1.213,-0.316 2.079,-0.85 3.023,-1.865 z M 30.514,10.533 c 0.642,0 1.306,0.617 1.306,1.214 0,0.751 -1.665,8.237 -1.988,8.935 -0.385,0.834 -0.93,1.403 -1.671,1.743 -0.665,0.305 -1.116,0.317 -1.621,0.043 -0.857,-0.465 -1.097,-1.865 -0.738,-4.31 0.412,-2.805 1.331,-5.074 2.63,-6.496 0.755,-0.826 1.315,-1.13 2.082,-1.13 z m 27.245,0 c 0.63,0 1.087,0.262 1.321,0.755 0.198,0.418 0.163,0.659 -0.686,4.641 -0.58,2.722 -1.02,4.455 -1.247,4.923 -0.691,1.42 -2.216,2.187 -3.242,1.63 -0.724,-0.395 -0.988,-1.563 -0.804,-3.548 0.412,-4.424 2.617,-8.401 4.658,-8.401 z"
       style="color:#fbc02d;overflow:visible;opacity:0.9;isolation:auto;mix-blend-mode:normal;solid-color:#000000;solid-opacity:1;fill:none;fill-opacity:1;stroke:#000000;stroke-width:4.4848814;stroke-miterlimit:4;stroke-dasharray:none;stroke-opacity:0.03921569;marker:none"
       transform="matrix(1.2263424,0,0,1.2263424,-112.3917,45.438458)"
       inkscape:connector-curvature="0"
       sodipodi:nodetypes="ccccccsccccccccscsccccccccscccccccccccsccccccccccsscccscccsccccccccccccccccccccscccccccscccccs" />
  </g>
  <path
     clip-path="none"
     id="path2-3-4-1"
     overflow="visible"
     d="M 13.422,0 11.678,0.078 C 10.603,0.126 9.523,0.263 8.862,0.437 5.669,1.275 2.541,3.375 1.052,5.677 0.257,6.91 -0.008,7.764 0,9.084 c 0.007,1.232 0.308,2.018 0.973,2.542 0.431,0.339 2.4570322,1.280606 2.203,0.703 H 3.618 L 3.434,11.811 C 3.182,11.107 3.191,8.742 3.449,7.647 3.7617183,6.3572408 4.4288326,5.180612 5.375,4.25 6.167,3.462 7.362,2.657 8.035,2.459 8.33,2.372 8.345,2.405 8.345,3.102 8.34,4.638 8.765,22.556 8.844,24.168 l 0.082,1.692 h 2.457 c 2.211,0 2.466,-0.024 2.552,-0.242 0.356,-0.9 9.462,-25.33 9.462,-25.384 0,-0.037 -0.538,-0.05 -1.195,-0.028 L 21.007,0.246 17.404,10.713 13.8,21.179 13.699,15.476 C 13.644,12.34 13.559,7.574 13.51,4.886 Z m 52.2,21.61 c -0.528,0.841 -1.13,1.212 -1.962,1.212 -0.907,0 -1.324,-0.424 -1.324,-1.347 0,-0.515 1.466,-7.823 2.48,-12.36 L 64.932,8.594 62.426,8.631 59.92,8.669 59.796,9.399 59.672,10.128 59.421,9.565 C 59.027,8.685 58.286,8.418 56.415,8.484 55.073,8.53 54.861,8.576 53.91,9.029 c -3.161,1.504 -5.484,5.567 -5.939,10.387 -0.135,1.44 -0.17,1.56 -0.62,2.108 -0.518,0.632 -1.45,1.16 -2.047,1.16 -0.206,0 -0.587,-0.088 -0.846,-0.196 -0.373,-0.156 -0.49,-0.299 -0.562,-0.687 -0.12,-0.635 -0.114,-0.663 2.129,-11.13 1.05,-4.898 1.897,-8.922 1.882,-8.942 -0.059,-0.081 -4.948,0.649 -5.039,0.752 -0.054,0.062 -0.858,3.685 -1.786,8.052 -0.927,4.367 -1.807,8.394 -1.955,8.95 -0.526,1.976 -1.404,3.158 -2.45,3.298 -1.183,0.16 -1.712,-0.289 -1.702,-1.439 0.004,-0.363 0.569,-3.308 1.256,-6.545 0.688,-3.236 1.25,-5.955 1.25,-6.04 0,-0.111 -1.673627,1.397927 -2.47,-0.157 h -2.47 L 32.448,9.221 C 32.34,9.946 32.232,9.997 31.984,9.437 31.69,8.772 30.859,8.462 29.372,8.462 c -2.221,0 -3.594,0.63 -5.25,2.413 -1.969,2.119 -3.135,4.883 -3.515,8.33 -0.536,4.86 2.102,7.722 6.007,6.516 1.045,-0.323 3.543645,-1.018567 3.065,-2.13 l 0.531,-0.648 0.227,0.735 c 0.312,1.005 0.626,1.441 1.344,1.862 1.227,0.72 3.404,0.54 4.991,-0.41 0.408,-0.244 1.063,-0.797 1.456,-1.229 l 0.714,-0.785 0.242,0.683 c 0.63,1.775 2.45,2.533 4.813,2.006 1.307,-0.292 2.32,-0.88 3.387,-1.964 l 0.858,-0.873 0.261,0.59 c 0.38753,0.854724 1.047679,1.556727 1.877,1.996 0.614,0.321 0.868,0.368 2.015,0.371 1.2,0.004 1.393,-0.034 2.266,-0.448 0.695,-0.329 1.23,-0.731 1.966,-1.48 0.997,-1.014 1.013,-1.022 1.092,-0.652 0.468,2.177 2.29,3.1 4.82,2.442 1.213,-0.316 2.079,-0.85 3.023,-1.865 0.636264,-0.435311 0.392177,-3.007691 0.06,-2.312 z M 30.514,10.533 c 0.642,0 1.306,0.617 1.306,1.214 0,0.751 -1.665,8.237 -1.988,8.935 -0.385,0.834 -0.93,1.403 -1.671,1.743 -0.665,0.305 -1.116,0.317 -1.621,0.043 -0.857,-0.465 -1.097,-1.865 -0.738,-4.31 0.412,-2.805 1.331,-5.074 2.63,-6.496 0.755,-0.826 1.315,-1.13 2.082,-1.13 z m 27.245,0 c 0.63,0 1.087,0.262 1.321,0.755 0.198,0.418 0.163,0.659 -0.686,4.641 -0.58,2.722 -1.02,4.455 -1.247,4.923 -0.691,1.42 -2.216,2.187 -3.242,1.63 -0.724,-0.395 -0.988,-1.563 -0.804,-3.548 0.412,-4.424 2.617,-8.401 4.658,-8.401 z"
     style="color:#fbc02d;overflow:visible;opacity:0.9;isolation:auto;mix-blend-mode:normal;solid-color:#000000;solid-opacity:1;fill:#ffffff;marker:none"
     transform="matrix(1.2263424,0,0,1.2263424,22.22225,45.438458)"
     inkscape:connector-curvature="0"
     sodipodi:nodetypes="ccccccsccccccccscsccccccccsscccccccccccsccccccccccsscccscccsccccccccccccccccccccscccccccscccccs" />
</svg>
