<?xml version="1.0" encoding="UTF-8" standalone="no"?>
<!-- Created with Inkscape (http://www.inkscape.org/) -->

<svg
   xmlns:dc="http://purl.org/dc/elements/1.1/"
   xmlns:cc="http://creativecommons.org/ns#"
   xmlns:rdf="http://www.w3.org/1999/02/22-rdf-syntax-ns#"
   xmlns:svg="http://www.w3.org/2000/svg"
   xmlns="http://www.w3.org/2000/svg"
   xmlns:xlink="http://www.w3.org/1999/xlink"
   xmlns:sodipodi="http://sodipodi.sourceforge.net/DTD/sodipodi-0.dtd"
   xmlns:inkscape="http://www.inkscape.org/namespaces/inkscape"
   version="1.1"
   id="svg2"
   width="128"
   height="128"
   viewBox="0 0 128 128"
   sodipodi:docname="com.github.danrabbit.nimbus.svg"
   inkscape:version="0.92.4 (5da689c313, 2019-01-14)">
  <metadata
     id="metadata8">
    <rdf:RDF>
      <cc:Work
         rdf:about="">
        <dc:format>image/svg+xml</dc:format>
        <dc:type
           rdf:resource="http://purl.org/dc/dcmitype/StillImage" />
        <dc:title></dc:title>
      </cc:Work>
    </rdf:RDF>
  </metadata>
  <defs
     id="defs6">
    <linearGradient
       inkscape:collect="always"
       id="linearGradient833">
      <stop
         style="stop-color:#0bacff;stop-opacity:1"
         offset="0"
         id="stop829" />
      <stop
         style="stop-color:#5cd2f9;stop-opacity:1"
         offset="1"
         id="stop831" />
    </linearGradient>
    <linearGradient
       inkscape:collect="always"
       id="linearGradient823">
      <stop
         style="stop-color:#0d7cb4;stop-opacity:1"
         offset="0"
         id="stop819" />
      <stop
         style="stop-color:#59d1f9;stop-opacity:1"
         offset="1"
         id="stop821" />
    </linearGradient>
    <linearGradient
       inkscape:collect="always"
       xlink:href="#linearGradient823"
       id="linearGradient825"
       x1="-741.83197"
       y1="959.04749"
       x2="-741.83197"
       y2="93.836403"
       gradientUnits="userSpaceOnUse"
       gradientTransform="matrix(0.13667801,0,0,0.13667801,162.31231,-5.989337)" />
    <linearGradient
       inkscape:collect="always"
       xlink:href="#linearGradient833"
       id="linearGradient835"
       x1="-738.76385"
       y1="931.43433"
       x2="-738.76385"
       y2="152.13077"
       gradientUnits="userSpaceOnUse"
       gradientTransform="matrix(0.13667801,0,0,0.13667801,162.31231,-5.989337)" />
    <linearGradient
       id="linearGradient3820-7-2-8-6">
      <stop
         offset="0"
         style="stop-color:#3d3d3d;stop-opacity:1"
         id="stop3822-2-6-5-0" />
      <stop
         offset="0.5"
         style="stop-color:#686868;stop-opacity:0.49803922"
         id="stop3864-8-7-4-1" />
      <stop
         offset="1"
         style="stop-color:#686868;stop-opacity:0"
         id="stop3824-1-2-6-7" />
    </linearGradient>
    <linearGradient
       id="linearGradient4806">
      <stop
         id="stop4808"
         style="stop-color:#ffffff;stop-opacity:1"
         offset="0" />
      <stop
         id="stop4810"
         style="stop-color:#ffffff;stop-opacity:0.23529412"
         offset="0.42447853" />
      <stop
         id="stop4812"
         style="stop-color:#ffffff;stop-opacity:0.15686275"
         offset="0.82089913" />
      <stop
         id="stop4814"
         style="stop-color:#ffffff;stop-opacity:0.39215687"
         offset="1" />
    </linearGradient>
    <linearGradient
       y2="40.495617"
       x2="71.204407"
       y1="15.369057"
       x1="71.204407"
       gradientTransform="matrix(4.16388,0,0,4.16388,-236.03265,-50.036246)"
       gradientUnits="userSpaceOnUse"
       id="linearGradient3118"
       xlink:href="#linearGradient4806" />
    <radialGradient
       r="62.769119"
       fy="186.17059"
       fx="99.157013"
       cy="186.17059"
       cx="99.157013"
       gradientTransform="matrix(0.6869404,0,0,0.21461693,-4.02174,68.573331)"
       gradientUnits="userSpaceOnUse"
       id="radialGradient3163"
       xlink:href="#linearGradient3820-7-2-8-6" />
    <radialGradient
       gradientTransform="matrix(0,46.861858,-92.320077,0,985.84907,-380.50601)"
       gradientUnits="userSpaceOnUse"
       xlink:href="#linearGradient2867-449-88-871-390-598-476-591-434-148-57-177-3-8-8-9"
       id="radialGradient5521-1"
       fy="9.9571075"
       fx="6.9303164"
       r="12.671875"
       cy="9.9571075"
       cx="7.4605465" />
    <linearGradient
       id="linearGradient2867-449-88-871-390-598-476-591-434-148-57-177-3-8-8-9">
      <stop
         id="stop3750-8-9-0"
         style="stop-color:#90dbec;stop-opacity:1"
         offset="0" />
      <stop
         id="stop3752-3-2-2"
         style="stop-color:#42baea;stop-opacity:1"
         offset="0.26238" />
      <stop
         id="stop3754-7-2-2"
         style="stop-color:#3689e6;stop-opacity:1"
         offset="0.704952" />
      <stop
         id="stop3756-9-3-05"
         style="stop-color:#2b63a0;stop-opacity:1"
         offset="1" />
    </linearGradient>
  </defs>
  <sodipodi:namedview
     pagecolor="#ffffff"
     bordercolor="#666666"
     borderopacity="1"
     objecttolerance="10"
     gridtolerance="10"
     guidetolerance="10"
     inkscape:pageopacity="0"
     inkscape:pageshadow="2"
     inkscape:window-width="1920"
     inkscape:window-height="1022"
     id="namedview4"
     showgrid="false"
     inkscape:zoom="0.46093749"
     inkscape:cx="89.025972"
     inkscape:cy="33.916649"
     inkscape:window-x="0"
     inkscape:window-y="30"
     inkscape:window-maximized="1"
     inkscape:current-layer="svg2" />
  <circle
     style="opacity:1;fill:url(#linearGradient825);fill-opacity:1;stroke:none;stroke-width:0.78699166;stroke-linecap:round;stroke-linejoin:round;stroke-miterlimit:4;stroke-dasharray:none;stroke-opacity:1"
     id="path817"
     cx="63.591888"
     cy="64.286316"
     r="61.380009" />
  <circle
     r="55.089832"
     cy="64.286316"
     cx="63.591888"
     id="circle827"
     style="opacity:1;fill:url(#linearGradient835);fill-opacity:1;stroke:none;stroke-width:0.70634133;stroke-linecap:round;stroke-linejoin:round;stroke-miterlimit:4;stroke-dasharray:none;stroke-opacity:1" />
  <g
     id="g1243"
     transform="translate(-142.66779)"
     style="opacity:0.68">
    <path
       d="m 211.36606,40.786316 c -5.68343,0 -10.60547,3.238631 -13.04521,7.939224 -1.58129,-0.999813 -3.45316,-1.587817 -5.46542,-1.587817 -5.64034,0 -10.21276,4.549652 -10.21276,10.162148 0,0.892303 0.14188,1.755573 0.35903,2.580178 -4.07365,2.733955 -6.74203,7.385058 -6.74203,12.662966 0,8.444751 6.83235,15.243301 15.31913,15.243301 h 29.36173 c 8.4868,0 15.31914,-6.79855 15.31914,-15.243301 0,-6.743473 -4.37509,-12.428854 -10.45216,-14.449314 0.16483,-0.876411 0.23939,-1.775173 0.23939,-2.699227 0,-8.067916 -6.57281,-14.608158 -14.68082,-14.608158 z"
       id="path1156"
       style="color:#000000;display:inline;overflow:visible;visibility:visible;fill:none;fill-opacity:1;fill-rule:nonzero;stroke:#000000;stroke-width:0.1;stroke-linecap:butt;stroke-linejoin:miter;stroke-miterlimit:4;stroke-dasharray:none;stroke-dashoffset:0;stroke-opacity:0.00784314;marker:none;enable-background:accumulate"
       inkscape:connector-curvature="0" />
    <path
       inkscape:connector-curvature="0"
       style="color:#000000;display:inline;overflow:visible;visibility:visible;fill:none;fill-opacity:1;fill-rule:nonzero;stroke:#000000;stroke-width:0.2;stroke-linecap:butt;stroke-linejoin:miter;stroke-miterlimit:4;stroke-dasharray:none;stroke-dashoffset:0;stroke-opacity:0.00784314;marker:none;enable-background:accumulate"
       id="path1158"
       d="m 211.36606,40.786316 c -5.68343,0 -10.60547,3.238631 -13.04521,7.939224 -1.58129,-0.999813 -3.45316,-1.587817 -5.46542,-1.587817 -5.64034,0 -10.21276,4.549652 -10.21276,10.162148 0,0.892303 0.14188,1.755573 0.35903,2.580178 -4.07365,2.733955 -6.74203,7.385058 -6.74203,12.662966 0,8.444751 6.83235,15.243301 15.31913,15.243301 h 29.36173 c 8.4868,0 15.31914,-6.79855 15.31914,-15.243301 0,-6.743473 -4.37509,-12.428854 -10.45216,-14.449314 0.16483,-0.876411 0.23939,-1.775173 0.23939,-2.699227 0,-8.067916 -6.57281,-14.608158 -14.68082,-14.608158 z" />
    <path
       d="m 211.36606,40.786316 c -5.68343,0 -10.60547,3.238631 -13.04521,7.939224 -1.58129,-0.999813 -3.45316,-1.587817 -5.46542,-1.587817 -5.64034,0 -10.21276,4.549652 -10.21276,10.162148 0,0.892303 0.14188,1.755573 0.35903,2.580178 -4.07365,2.733955 -6.74203,7.385058 -6.74203,12.662966 0,8.444751 6.83235,15.243301 15.31913,15.243301 h 29.36173 c 8.4868,0 15.31914,-6.79855 15.31914,-15.243301 0,-6.743473 -4.37509,-12.428854 -10.45216,-14.449314 0.16483,-0.876411 0.23939,-1.775173 0.23939,-2.699227 0,-8.067916 -6.57281,-14.608158 -14.68082,-14.608158 z"
       id="path1160"
       style="color:#000000;display:inline;overflow:visible;visibility:visible;fill:none;fill-opacity:1;fill-rule:nonzero;stroke:#000000;stroke-width:0.30000001;stroke-linecap:butt;stroke-linejoin:miter;stroke-miterlimit:4;stroke-dasharray:none;stroke-dashoffset:0;stroke-opacity:0.00784314;marker:none;enable-background:accumulate"
       inkscape:connector-curvature="0" />
    <path
       inkscape:connector-curvature="0"
       style="color:#000000;display:inline;overflow:visible;visibility:visible;fill:none;fill-opacity:1;fill-rule:nonzero;stroke:#000000;stroke-width:0.40000001;stroke-linecap:butt;stroke-linejoin:miter;stroke-miterlimit:4;stroke-dasharray:none;stroke-dashoffset:0;stroke-opacity:0.00784314;marker:none;enable-background:accumulate"
       id="path1162"
       d="m 211.36606,40.786316 c -5.68343,0 -10.60547,3.238631 -13.04521,7.939224 -1.58129,-0.999813 -3.45316,-1.587817 -5.46542,-1.587817 -5.64034,0 -10.21276,4.549652 -10.21276,10.162148 0,0.892303 0.14188,1.755573 0.35903,2.580178 -4.07365,2.733955 -6.74203,7.385058 -6.74203,12.662966 0,8.444751 6.83235,15.243301 15.31913,15.243301 h 29.36173 c 8.4868,0 15.31914,-6.79855 15.31914,-15.243301 0,-6.743473 -4.37509,-12.428854 -10.45216,-14.449314 0.16483,-0.876411 0.23939,-1.775173 0.23939,-2.699227 0,-8.067916 -6.57281,-14.608158 -14.68082,-14.608158 z" />
    <path
       d="m 211.36606,40.786316 c -5.68343,0 -10.60547,3.238631 -13.04521,7.939224 -1.58129,-0.999813 -3.45316,-1.587817 -5.46542,-1.587817 -5.64034,0 -10.21276,4.549652 -10.21276,10.162148 0,0.892303 0.14188,1.755573 0.35903,2.580178 -4.07365,2.733955 -6.74203,7.385058 -6.74203,12.662966 0,8.444751 6.83235,15.243301 15.31913,15.243301 h 29.36173 c 8.4868,0 15.31914,-6.79855 15.31914,-15.243301 0,-6.743473 -4.37509,-12.428854 -10.45216,-14.449314 0.16483,-0.876411 0.23939,-1.775173 0.23939,-2.699227 0,-8.067916 -6.57281,-14.608158 -14.68082,-14.608158 z"
       id="path1164"
       style="color:#000000;display:inline;overflow:visible;visibility:visible;fill:none;fill-opacity:1;fill-rule:nonzero;stroke:#000000;stroke-width:0.60000002;stroke-linecap:butt;stroke-linejoin:miter;stroke-miterlimit:4;stroke-dasharray:none;stroke-dashoffset:0;stroke-opacity:0.00784314;marker:none;enable-background:accumulate"
       inkscape:connector-curvature="0" />
    <path
       inkscape:connector-curvature="0"
       style="color:#000000;display:inline;overflow:visible;visibility:visible;fill:none;fill-opacity:1;fill-rule:nonzero;stroke:#000000;stroke-width:0.69999999;stroke-linecap:butt;stroke-linejoin:miter;stroke-miterlimit:4;stroke-dasharray:none;stroke-dashoffset:0;stroke-opacity:0.00784314;marker:none;enable-background:accumulate"
       id="path1166"
       d="m 211.36606,40.786316 c -5.68343,0 -10.60547,3.238631 -13.04521,7.939224 -1.58129,-0.999813 -3.45316,-1.587817 -5.46542,-1.587817 -5.64034,0 -10.21276,4.549652 -10.21276,10.162148 0,0.892303 0.14188,1.755573 0.35903,2.580178 -4.07365,2.733955 -6.74203,7.385058 -6.74203,12.662966 0,8.444751 6.83235,15.243301 15.31913,15.243301 h 29.36173 c 8.4868,0 15.31914,-6.79855 15.31914,-15.243301 0,-6.743473 -4.37509,-12.428854 -10.45216,-14.449314 0.16483,-0.876411 0.23939,-1.775173 0.23939,-2.699227 0,-8.067916 -6.57281,-14.608158 -14.68082,-14.608158 z" />
    <path
       d="m 211.36606,40.786316 c -5.68343,0 -10.60547,3.238631 -13.04521,7.939224 -1.58129,-0.999813 -3.45316,-1.587817 -5.46542,-1.587817 -5.64034,0 -10.21276,4.549652 -10.21276,10.162148 0,0.892303 0.14188,1.755573 0.35903,2.580178 -4.07365,2.733955 -6.74203,7.385058 -6.74203,12.662966 0,8.444751 6.83235,15.243301 15.31913,15.243301 h 29.36173 c 8.4868,0 15.31914,-6.79855 15.31914,-15.243301 0,-6.743473 -4.37509,-12.428854 -10.45216,-14.449314 0.16483,-0.876411 0.23939,-1.775173 0.23939,-2.699227 0,-8.067916 -6.57281,-14.608158 -14.68082,-14.608158 z"
       id="path1168"
       style="color:#000000;display:inline;overflow:visible;visibility:visible;fill:none;fill-opacity:1;fill-rule:nonzero;stroke:#000000;stroke-width:0.80000001;stroke-linecap:butt;stroke-linejoin:miter;stroke-miterlimit:4;stroke-dasharray:none;stroke-dashoffset:0;stroke-opacity:0.00784314;marker:none;enable-background:accumulate"
       inkscape:connector-curvature="0" />
    <path
       inkscape:connector-curvature="0"
       style="color:#000000;display:inline;overflow:visible;visibility:visible;fill:none;fill-opacity:1;fill-rule:nonzero;stroke:#000000;stroke-width:0.89999998;stroke-linecap:butt;stroke-linejoin:miter;stroke-miterlimit:4;stroke-dasharray:none;stroke-dashoffset:0;stroke-opacity:0.00784314;marker:none;enable-background:accumulate"
       id="path1170"
       d="m 211.36606,40.786316 c -5.68343,0 -10.60547,3.238631 -13.04521,7.939224 -1.58129,-0.999813 -3.45316,-1.587817 -5.46542,-1.587817 -5.64034,0 -10.21276,4.549652 -10.21276,10.162148 0,0.892303 0.14188,1.755573 0.35903,2.580178 -4.07365,2.733955 -6.74203,7.385058 -6.74203,12.662966 0,8.444751 6.83235,15.243301 15.31913,15.243301 h 29.36173 c 8.4868,0 15.31914,-6.79855 15.31914,-15.243301 0,-6.743473 -4.37509,-12.428854 -10.45216,-14.449314 0.16483,-0.876411 0.23939,-1.775173 0.23939,-2.699227 0,-8.067916 -6.57281,-14.608158 -14.68082,-14.608158 z" />
    <path
       d="m 211.36606,40.786316 c -5.68343,0 -10.60547,3.238631 -13.04521,7.939224 -1.58129,-0.999813 -3.45316,-1.587817 -5.46542,-1.587817 -5.64034,0 -10.21276,4.549652 -10.21276,10.162148 0,0.892303 0.14188,1.755573 0.35903,2.580178 -4.07365,2.733955 -6.74203,7.385058 -6.74203,12.662966 0,8.444751 6.83235,15.243301 15.31913,15.243301 h 29.36173 c 8.4868,0 15.31914,-6.79855 15.31914,-15.243301 0,-6.743473 -4.37509,-12.428854 -10.45216,-14.449314 0.16483,-0.876411 0.23939,-1.775173 0.23939,-2.699227 0,-8.067916 -6.57281,-14.608158 -14.68082,-14.608158 z"
       id="path1172"
       style="color:#000000;display:inline;overflow:visible;visibility:visible;fill:none;fill-opacity:1;fill-rule:nonzero;stroke:#000000;stroke-width:1;stroke-linecap:butt;stroke-linejoin:miter;stroke-miterlimit:4;stroke-dasharray:none;stroke-dashoffset:0;stroke-opacity:0.00784314;marker:none;enable-background:accumulate"
       inkscape:connector-curvature="0" />
    <path
       inkscape:connector-curvature="0"
       style="color:#000000;display:inline;overflow:visible;visibility:visible;fill:none;fill-opacity:1;fill-rule:nonzero;stroke:#000000;stroke-width:1.20000005;stroke-linecap:butt;stroke-linejoin:miter;stroke-miterlimit:4;stroke-dasharray:none;stroke-dashoffset:0;stroke-opacity:0.00784314;marker:none;enable-background:accumulate"
       id="path1174"
       d="m 211.36606,40.786316 c -5.68343,0 -10.60547,3.238631 -13.04521,7.939224 -1.58129,-0.999813 -3.45316,-1.587817 -5.46542,-1.587817 -5.64034,0 -10.21276,4.549652 -10.21276,10.162148 0,0.892303 0.14188,1.755573 0.35903,2.580178 -4.07365,2.733955 -6.74203,7.385058 -6.74203,12.662966 0,8.444751 6.83235,15.243301 15.31913,15.243301 h 29.36173 c 8.4868,0 15.31914,-6.79855 15.31914,-15.243301 0,-6.743473 -4.37509,-12.428854 -10.45216,-14.449314 0.16483,-0.876411 0.23939,-1.775173 0.23939,-2.699227 0,-8.067916 -6.57281,-14.608158 -14.68082,-14.608158 z" />
    <path
       d="m 211.36606,40.786316 c -5.68343,0 -10.60547,3.238631 -13.04521,7.939224 -1.58129,-0.999813 -3.45316,-1.587817 -5.46542,-1.587817 -5.64034,0 -10.21276,4.549652 -10.21276,10.162148 0,0.892303 0.14188,1.755573 0.35903,2.580178 -4.07365,2.733955 -6.74203,7.385058 -6.74203,12.662966 0,8.444751 6.83235,15.243301 15.31913,15.243301 h 29.36173 c 8.4868,0 15.31914,-6.79855 15.31914,-15.243301 0,-6.743473 -4.37509,-12.428854 -10.45216,-14.449314 0.16483,-0.876411 0.23939,-1.775173 0.23939,-2.699227 0,-8.067916 -6.57281,-14.608158 -14.68082,-14.608158 z"
       id="path1176"
       style="color:#000000;display:inline;overflow:visible;visibility:visible;fill:none;fill-opacity:1;fill-rule:nonzero;stroke:#000000;stroke-width:1.39999998;stroke-linecap:butt;stroke-linejoin:miter;stroke-miterlimit:4;stroke-dasharray:none;stroke-dashoffset:0;stroke-opacity:0.00784314;marker:none;enable-background:accumulate"
       inkscape:connector-curvature="0" />
    <path
       inkscape:connector-curvature="0"
       style="color:#000000;display:inline;overflow:visible;visibility:visible;fill:none;fill-opacity:1;fill-rule:nonzero;stroke:#000000;stroke-width:1.60000002;stroke-linecap:butt;stroke-linejoin:miter;stroke-miterlimit:4;stroke-dasharray:none;stroke-dashoffset:0;stroke-opacity:0.00784314;marker:none;enable-background:accumulate"
       id="path1178"
       d="m 211.36606,40.786316 c -5.68343,0 -10.60547,3.238631 -13.04521,7.939224 -1.58129,-0.999813 -3.45316,-1.587817 -5.46542,-1.587817 -5.64034,0 -10.21276,4.549652 -10.21276,10.162148 0,0.892303 0.14188,1.755573 0.35903,2.580178 -4.07365,2.733955 -6.74203,7.385058 -6.74203,12.662966 0,8.444751 6.83235,15.243301 15.31913,15.243301 h 29.36173 c 8.4868,0 15.31914,-6.79855 15.31914,-15.243301 0,-6.743473 -4.37509,-12.428854 -10.45216,-14.449314 0.16483,-0.876411 0.23939,-1.775173 0.23939,-2.699227 0,-8.067916 -6.57281,-14.608158 -14.68082,-14.608158 z" />
    <path
       d="m 211.36606,40.786316 c -5.68343,0 -10.60547,3.238631 -13.04521,7.939224 -1.58129,-0.999813 -3.45316,-1.587817 -5.46542,-1.587817 -5.64034,0 -10.21276,4.549652 -10.21276,10.162148 0,0.892303 0.14188,1.755573 0.35903,2.580178 -4.07365,2.733955 -6.74203,7.385058 -6.74203,12.662966 0,8.444751 6.83235,15.243301 15.31913,15.243301 h 29.36173 c 8.4868,0 15.31914,-6.79855 15.31914,-15.243301 0,-6.743473 -4.37509,-12.428854 -10.45216,-14.449314 0.16483,-0.876411 0.23939,-1.775173 0.23939,-2.699227 0,-8.067916 -6.57281,-14.608158 -14.68082,-14.608158 z"
       id="path1180"
       style="color:#000000;display:inline;overflow:visible;visibility:visible;fill:none;fill-opacity:1;fill-rule:nonzero;stroke:#000000;stroke-width:1.79999995;stroke-linecap:butt;stroke-linejoin:miter;stroke-miterlimit:4;stroke-dasharray:none;stroke-dashoffset:0;stroke-opacity:0.00784314;marker:none;enable-background:accumulate"
       inkscape:connector-curvature="0" />
    <path
       inkscape:connector-curvature="0"
       style="color:#000000;display:inline;overflow:visible;visibility:visible;fill:none;fill-opacity:1;fill-rule:nonzero;stroke:#000000;stroke-width:2;stroke-linecap:butt;stroke-linejoin:miter;stroke-miterlimit:4;stroke-dasharray:none;stroke-dashoffset:0;stroke-opacity:0.00784314;marker:none;enable-background:accumulate"
       id="path1182"
       d="m 211.36606,40.786316 c -5.68343,0 -10.60547,3.238631 -13.04521,7.939224 -1.58129,-0.999813 -3.45316,-1.587817 -5.46542,-1.587817 -5.64034,0 -10.21276,4.549652 -10.21276,10.162148 0,0.892303 0.14188,1.755573 0.35903,2.580178 -4.07365,2.733955 -6.74203,7.385058 -6.74203,12.662966 0,8.444751 6.83235,15.243301 15.31913,15.243301 h 29.36173 c 8.4868,0 15.31914,-6.79855 15.31914,-15.243301 0,-6.743473 -4.37509,-12.428854 -10.45216,-14.449314 0.16483,-0.876411 0.23939,-1.775173 0.23939,-2.699227 0,-8.067916 -6.57281,-14.608158 -14.68082,-14.608158 z" />
    <path
       d="m 211.36606,40.786316 c -5.68343,0 -10.60547,3.238631 -13.04521,7.939224 -1.58129,-0.999813 -3.45316,-1.587817 -5.46542,-1.587817 -5.64034,0 -10.21276,4.549652 -10.21276,10.162148 0,0.892303 0.14188,1.755573 0.35903,2.580178 -4.07365,2.733955 -6.74203,7.385058 -6.74203,12.662966 0,8.444751 6.83235,15.243301 15.31913,15.243301 h 29.36173 c 8.4868,0 15.31914,-6.79855 15.31914,-15.243301 0,-6.743473 -4.37509,-12.428854 -10.45216,-14.449314 0.16483,-0.876411 0.23939,-1.775173 0.23939,-2.699227 0,-8.067916 -6.57281,-14.608158 -14.68082,-14.608158 z"
       id="path1184"
       style="color:#000000;display:inline;overflow:visible;visibility:visible;fill:none;fill-opacity:1;fill-rule:nonzero;stroke:#000000;stroke-width:2.20000005;stroke-linecap:butt;stroke-linejoin:miter;stroke-miterlimit:4;stroke-dasharray:none;stroke-dashoffset:0;stroke-opacity:0.00784314;marker:none;enable-background:accumulate"
       inkscape:connector-curvature="0" />
    <path
       inkscape:connector-curvature="0"
       style="color:#000000;display:inline;overflow:visible;visibility:visible;fill:none;fill-opacity:1;fill-rule:nonzero;stroke:#000000;stroke-width:2.4000001;stroke-linecap:butt;stroke-linejoin:miter;stroke-miterlimit:4;stroke-dasharray:none;stroke-dashoffset:0;stroke-opacity:0.00784314;marker:none;enable-background:accumulate"
       id="path1186"
       d="m 211.36606,40.786316 c -5.68343,0 -10.60547,3.238631 -13.04521,7.939224 -1.58129,-0.999813 -3.45316,-1.587817 -5.46542,-1.587817 -5.64034,0 -10.21276,4.549652 -10.21276,10.162148 0,0.892303 0.14188,1.755573 0.35903,2.580178 -4.07365,2.733955 -6.74203,7.385058 -6.74203,12.662966 0,8.444751 6.83235,15.243301 15.31913,15.243301 h 29.36173 c 8.4868,0 15.31914,-6.79855 15.31914,-15.243301 0,-6.743473 -4.37509,-12.428854 -10.45216,-14.449314 0.16483,-0.876411 0.23939,-1.775173 0.23939,-2.699227 0,-8.067916 -6.57281,-14.608158 -14.68082,-14.608158 z" />
    <path
       d="m 211.36606,40.786316 c -5.68343,0 -10.60547,3.238631 -13.04521,7.939224 -1.58129,-0.999813 -3.45316,-1.587817 -5.46542,-1.587817 -5.64034,0 -10.21276,4.549652 -10.21276,10.162148 0,0.892303 0.14188,1.755573 0.35903,2.580178 -4.07365,2.733955 -6.74203,7.385058 -6.74203,12.662966 0,8.444751 6.83235,15.243301 15.31913,15.243301 h 29.36173 c 8.4868,0 15.31914,-6.79855 15.31914,-15.243301 0,-6.743473 -4.37509,-12.428854 -10.45216,-14.449314 0.16483,-0.876411 0.23939,-1.775173 0.23939,-2.699227 0,-8.067916 -6.57281,-14.608158 -14.68082,-14.608158 z"
       id="path1188"
       style="color:#000000;display:inline;overflow:visible;visibility:visible;fill:none;fill-opacity:1;fill-rule:nonzero;stroke:#000000;stroke-width:2.5999999;stroke-linecap:butt;stroke-linejoin:miter;stroke-miterlimit:4;stroke-dasharray:none;stroke-dashoffset:0;stroke-opacity:0.00784314;marker:none;enable-background:accumulate"
       inkscape:connector-curvature="0" />
    <path
       inkscape:connector-curvature="0"
       style="color:#000000;display:inline;overflow:visible;visibility:visible;fill:none;fill-opacity:1;fill-rule:nonzero;stroke:#000000;stroke-width:3;stroke-linecap:butt;stroke-linejoin:miter;stroke-miterlimit:4;stroke-dasharray:none;stroke-dashoffset:0;stroke-opacity:0.00784314;marker:none;enable-background:accumulate"
       id="path1190"
       d="m 211.36606,40.786316 c -5.68343,0 -10.60547,3.238631 -13.04521,7.939224 -1.58129,-0.999813 -3.45316,-1.587817 -5.46542,-1.587817 -5.64034,0 -10.21276,4.549652 -10.21276,10.162148 0,0.892303 0.14188,1.755573 0.35903,2.580178 -4.07365,2.733955 -6.74203,7.385058 -6.74203,12.662966 0,8.444751 6.83235,15.243301 15.31913,15.243301 h 29.36173 c 8.4868,0 15.31914,-6.79855 15.31914,-15.243301 0,-6.743473 -4.37509,-12.428854 -10.45216,-14.449314 0.16483,-0.876411 0.23939,-1.775173 0.23939,-2.699227 0,-8.067916 -6.57281,-14.608158 -14.68082,-14.608158 z" />
    <path
       d="m 211.36606,40.786316 c -5.68343,0 -10.60547,3.238631 -13.04521,7.939224 -1.58129,-0.999813 -3.45316,-1.587817 -5.46542,-1.587817 -5.64034,0 -10.21276,4.549652 -10.21276,10.162148 0,0.892303 0.14188,1.755573 0.35903,2.580178 -4.07365,2.733955 -6.74203,7.385058 -6.74203,12.662966 0,8.444751 6.83235,15.243301 15.31913,15.243301 h 29.36173 c 8.4868,0 15.31914,-6.79855 15.31914,-15.243301 0,-6.743473 -4.37509,-12.428854 -10.45216,-14.449314 0.16483,-0.876411 0.23939,-1.775173 0.23939,-2.699227 0,-8.067916 -6.57281,-14.608158 -14.68082,-14.608158 z"
       id="path1192"
       style="color:#000000;display:inline;overflow:visible;visibility:visible;fill:none;fill-opacity:1;fill-rule:nonzero;stroke:#000000;stroke-width:3.4000001;stroke-linecap:butt;stroke-linejoin:miter;stroke-miterlimit:4;stroke-dasharray:none;stroke-dashoffset:0;stroke-opacity:0.00784314;marker:none;enable-background:accumulate"
       inkscape:connector-curvature="0" />
    <path
       inkscape:connector-curvature="0"
       style="color:#000000;display:inline;overflow:visible;visibility:visible;fill:none;fill-opacity:1;fill-rule:nonzero;stroke:#000000;stroke-width:3.79999995;stroke-linecap:butt;stroke-linejoin:miter;stroke-miterlimit:4;stroke-dasharray:none;stroke-dashoffset:0;stroke-opacity:0.00784314;marker:none;enable-background:accumulate"
       id="path1194"
       d="m 211.36606,40.786316 c -5.68343,0 -10.60547,3.238631 -13.04521,7.939224 -1.58129,-0.999813 -3.45316,-1.587817 -5.46542,-1.587817 -5.64034,0 -10.21276,4.549652 -10.21276,10.162148 0,0.892303 0.14188,1.755573 0.35903,2.580178 -4.07365,2.733955 -6.74203,7.385058 -6.74203,12.662966 0,8.444751 6.83235,15.243301 15.31913,15.243301 h 29.36173 c 8.4868,0 15.31914,-6.79855 15.31914,-15.243301 0,-6.743473 -4.37509,-12.428854 -10.45216,-14.449314 0.16483,-0.876411 0.23939,-1.775173 0.23939,-2.699227 0,-8.067916 -6.57281,-14.608158 -14.68082,-14.608158 z" />
    <path
       d="m 211.36606,40.786316 c -5.68343,0 -10.60547,3.238631 -13.04521,7.939224 -1.58129,-0.999813 -3.45316,-1.587817 -5.46542,-1.587817 -5.64034,0 -10.21276,4.549652 -10.21276,10.162148 0,0.892303 0.14188,1.755573 0.35903,2.580178 -4.07365,2.733955 -6.74203,7.385058 -6.74203,12.662966 0,8.444751 6.83235,15.243301 15.31913,15.243301 h 29.36173 c 8.4868,0 15.31914,-6.79855 15.31914,-15.243301 0,-6.743473 -4.37509,-12.428854 -10.45216,-14.449314 0.16483,-0.876411 0.23939,-1.775173 0.23939,-2.699227 0,-8.067916 -6.57281,-14.608158 -14.68082,-14.608158 z"
       id="path1196"
       style="color:#000000;display:inline;overflow:visible;visibility:visible;fill:none;fill-opacity:1;fill-rule:nonzero;stroke:#000000;stroke-width:4.19999981;stroke-linecap:butt;stroke-linejoin:miter;stroke-miterlimit:4;stroke-dasharray:none;stroke-dashoffset:0;stroke-opacity:0.00784314;marker:none;enable-background:accumulate"
       inkscape:connector-curvature="0" />
    <path
       inkscape:connector-curvature="0"
       style="color:#000000;display:inline;overflow:visible;visibility:visible;fill:none;fill-opacity:1;fill-rule:nonzero;stroke:#000000;stroke-width:4.5999999;stroke-linecap:butt;stroke-linejoin:miter;stroke-miterlimit:4;stroke-dasharray:none;stroke-dashoffset:0;stroke-opacity:0.00784314;marker:none;enable-background:accumulate"
       id="path1198"
       d="m 211.36606,40.786316 c -5.68343,0 -10.60547,3.238631 -13.04521,7.939224 -1.58129,-0.999813 -3.45316,-1.587817 -5.46542,-1.587817 -5.64034,0 -10.21276,4.549652 -10.21276,10.162148 0,0.892303 0.14188,1.755573 0.35903,2.580178 -4.07365,2.733955 -6.74203,7.385058 -6.74203,12.662966 0,8.444751 6.83235,15.243301 15.31913,15.243301 h 29.36173 c 8.4868,0 15.31914,-6.79855 15.31914,-15.243301 0,-6.743473 -4.37509,-12.428854 -10.45216,-14.449314 0.16483,-0.876411 0.23939,-1.775173 0.23939,-2.699227 0,-8.067916 -6.57281,-14.608158 -14.68082,-14.608158 z" />
    <path
       d="m 211.36606,40.786316 c -5.68343,0 -10.60547,3.238631 -13.04521,7.939224 -1.58129,-0.999813 -3.45316,-1.587817 -5.46542,-1.587817 -5.64034,0 -10.21276,4.549652 -10.21276,10.162148 0,0.892303 0.14188,1.755573 0.35903,2.580178 -4.07365,2.733955 -6.74203,7.385058 -6.74203,12.662966 0,8.444751 6.83235,15.243301 15.31913,15.243301 h 29.36173 c 8.4868,0 15.31914,-6.79855 15.31914,-15.243301 0,-6.743473 -4.37509,-12.428854 -10.45216,-14.449314 0.16483,-0.876411 0.23939,-1.775173 0.23939,-2.699227 0,-8.067916 -6.57281,-14.608158 -14.68082,-14.608158 z"
       id="path1200"
       style="color:#000000;display:inline;overflow:visible;visibility:visible;fill:none;fill-opacity:1;fill-rule:nonzero;stroke:#000000;stroke-width:5;stroke-linecap:butt;stroke-linejoin:miter;stroke-miterlimit:4;stroke-dasharray:none;stroke-dashoffset:0;stroke-opacity:0.00784314;marker:none;enable-background:accumulate"
       inkscape:connector-curvature="0" />
    <path
       inkscape:connector-curvature="0"
       style="color:#000000;display:inline;overflow:visible;visibility:visible;fill:none;fill-opacity:1;fill-rule:nonzero;stroke:#000000;stroke-width:5.4000001;stroke-linecap:butt;stroke-linejoin:miter;stroke-miterlimit:4;stroke-dasharray:none;stroke-dashoffset:0;stroke-opacity:0.00784314;marker:none;enable-background:accumulate"
       id="path1202"
       d="m 211.36606,40.786316 c -5.68343,0 -10.60547,3.238631 -13.04521,7.939224 -1.58129,-0.999813 -3.45316,-1.587817 -5.46542,-1.587817 -5.64034,0 -10.21276,4.549652 -10.21276,10.162148 0,0.892303 0.14188,1.755573 0.35903,2.580178 -4.07365,2.733955 -6.74203,7.385058 -6.74203,12.662966 0,8.444751 6.83235,15.243301 15.31913,15.243301 h 29.36173 c 8.4868,0 15.31914,-6.79855 15.31914,-15.243301 0,-6.743473 -4.37509,-12.428854 -10.45216,-14.449314 0.16483,-0.876411 0.23939,-1.775173 0.23939,-2.699227 0,-8.067916 -6.57281,-14.608158 -14.68082,-14.608158 z" />
    <path
       d="m 211.36606,40.786316 c -5.68343,0 -10.60547,3.238631 -13.04521,7.939224 -1.58129,-0.999813 -3.45316,-1.587817 -5.46542,-1.587817 -5.64034,0 -10.21276,4.549652 -10.21276,10.162148 0,0.892303 0.14188,1.755573 0.35903,2.580178 -4.07365,2.733955 -6.74203,7.385058 -6.74203,12.662966 0,8.444751 6.83235,15.243301 15.31913,15.243301 h 29.36173 c 8.4868,0 15.31914,-6.79855 15.31914,-15.243301 0,-6.743473 -4.37509,-12.428854 -10.45216,-14.449314 0.16483,-0.876411 0.23939,-1.775173 0.23939,-2.699227 0,-8.067916 -6.57281,-14.608158 -14.68082,-14.608158 z"
       id="path1204"
       style="color:#000000;display:inline;overflow:visible;visibility:visible;fill:none;fill-opacity:1;fill-rule:nonzero;stroke:#000000;stroke-width:6;stroke-linecap:butt;stroke-linejoin:miter;stroke-miterlimit:4;stroke-dasharray:none;stroke-dashoffset:0;stroke-opacity:0.00784314;marker:none;enable-background:accumulate"
       inkscape:connector-curvature="0" />
    <path
       inkscape:connector-curvature="0"
       style="color:#000000;display:inline;overflow:visible;visibility:visible;fill:none;fill-opacity:1;fill-rule:nonzero;stroke:#000000;stroke-width:7;stroke-linecap:butt;stroke-linejoin:miter;stroke-miterlimit:4;stroke-dasharray:none;stroke-dashoffset:0;stroke-opacity:0.00784314;marker:none;enable-background:accumulate"
       id="path1206"
       d="m 211.36606,40.786316 c -5.68343,0 -10.60547,3.238631 -13.04521,7.939224 -1.58129,-0.999813 -3.45316,-1.587817 -5.46542,-1.587817 -5.64034,0 -10.21276,4.549652 -10.21276,10.162148 0,0.892303 0.14188,1.755573 0.35903,2.580178 -4.07365,2.733955 -6.74203,7.385058 -6.74203,12.662966 0,8.444751 6.83235,15.243301 15.31913,15.243301 h 29.36173 c 8.4868,0 15.31914,-6.79855 15.31914,-15.243301 0,-6.743473 -4.37509,-12.428854 -10.45216,-14.449314 0.16483,-0.876411 0.23939,-1.775173 0.23939,-2.699227 0,-8.067916 -6.57281,-14.608158 -14.68082,-14.608158 z" />
    <path
       d="m 211.36606,40.786316 c -5.68343,0 -10.60547,3.238631 -13.04521,7.939224 -1.58129,-0.999813 -3.45316,-1.587817 -5.46542,-1.587817 -5.64034,0 -10.21276,4.549652 -10.21276,10.162148 0,0.892303 0.14188,1.755573 0.35903,2.580178 -4.07365,2.733955 -6.74203,7.385058 -6.74203,12.662966 0,8.444751 6.83235,15.243301 15.31913,15.243301 h 29.36173 c 8.4868,0 15.31914,-6.79855 15.31914,-15.243301 0,-6.743473 -4.37509,-12.428854 -10.45216,-14.449314 0.16483,-0.876411 0.23939,-1.775173 0.23939,-2.699227 0,-8.067916 -6.57281,-14.608158 -14.68082,-14.608158 z"
       id="path1208"
       style="color:#000000;display:inline;overflow:visible;visibility:visible;fill:none;fill-opacity:1;fill-rule:nonzero;stroke:#000000;stroke-width:8;stroke-linecap:butt;stroke-linejoin:miter;stroke-miterlimit:4;stroke-dasharray:none;stroke-dashoffset:0;stroke-opacity:0.00784314;marker:none;enable-background:accumulate"
       inkscape:connector-curvature="0" />
    <path
       inkscape:connector-curvature="0"
       style="color:#000000;display:inline;overflow:visible;visibility:visible;fill:none;fill-opacity:1;fill-rule:nonzero;stroke:#000000;stroke-width:9;stroke-linecap:butt;stroke-linejoin:miter;stroke-miterlimit:4;stroke-dasharray:none;stroke-dashoffset:0;stroke-opacity:0.00784314;marker:none;enable-background:accumulate"
       id="path1210"
       d="m 211.36606,40.786316 c -5.68343,0 -10.60547,3.238631 -13.04521,7.939224 -1.58129,-0.999813 -3.45316,-1.587817 -5.46542,-1.587817 -5.64034,0 -10.21276,4.549652 -10.21276,10.162148 0,0.892303 0.14188,1.755573 0.35903,2.580178 -4.07365,2.733955 -6.74203,7.385058 -6.74203,12.662966 0,8.444751 6.83235,15.243301 15.31913,15.243301 h 29.36173 c 8.4868,0 15.31914,-6.79855 15.31914,-15.243301 0,-6.743473 -4.37509,-12.428854 -10.45216,-14.449314 0.16483,-0.876411 0.23939,-1.775173 0.23939,-2.699227 0,-8.067916 -6.57281,-14.608158 -14.68082,-14.608158 z" />
    <path
       d="m 211.36606,40.786316 c -5.68343,0 -10.60547,3.238631 -13.04521,7.939224 -1.58129,-0.999813 -3.45316,-1.587817 -5.46542,-1.587817 -5.64034,0 -10.21276,4.549652 -10.21276,10.162148 0,0.892303 0.14188,1.755573 0.35903,2.580178 -4.07365,2.733955 -6.74203,7.385058 -6.74203,12.662966 0,8.444751 6.83235,15.243301 15.31913,15.243301 h 29.36173 c 8.4868,0 15.31914,-6.79855 15.31914,-15.243301 0,-6.743473 -4.37509,-12.428854 -10.45216,-14.449314 0.16483,-0.876411 0.23939,-1.775173 0.23939,-2.699227 0,-8.067916 -6.57281,-14.608158 -14.68082,-14.608158 z"
       id="path1212"
       style="color:#000000;display:inline;overflow:visible;visibility:visible;fill:none;fill-opacity:1;fill-rule:nonzero;stroke:#000000;stroke-width:10;stroke-linecap:butt;stroke-linejoin:miter;stroke-miterlimit:4;stroke-dasharray:none;stroke-dashoffset:0;stroke-opacity:0.00784314;marker:none;enable-background:accumulate"
       inkscape:connector-curvature="0" />
  </g>
  <path
     d="m 68.698275,40.786316 c -5.683429,0 -10.605474,3.238631 -13.045215,7.939224 -1.581283,-0.999813 -3.453159,-1.587817 -5.465418,-1.587817 -5.640335,0 -10.212759,4.549652 -10.212759,10.162148 0,0.892303 0.141883,1.755573 0.359029,2.580178 -4.073648,2.733955 -6.742024,7.385058 -6.742024,12.662966 0,8.444751 6.832342,15.243301 15.319131,15.243301 H 78.27274 c 8.486807,0 15.319148,-6.79855 15.319148,-15.243301 0,-6.743473 -4.375095,-12.428854 -10.452159,-14.449314 0.164824,-0.876411 0.239382,-1.775173 0.239382,-2.699227 0,-8.067916 -6.572806,-14.608158 -14.680818,-14.608158 z"
     id="rect4519-3"
     style="color:#000000;display:inline;overflow:visible;visibility:visible;fill:#ffffff;fill-opacity:1;fill-rule:nonzero;stroke:none;stroke-width:1;stroke-linecap:butt;stroke-linejoin:miter;stroke-miterlimit:4;stroke-dasharray:none;stroke-dashoffset:0;stroke-opacity:1;marker:none;enable-background:accumulate"
     inkscape:connector-curvature="0" />
</svg>
