<?xml version="1.0" encoding="UTF-8" standalone="no"?>
<!-- Created with Inkscape (http://www.inkscape.org/) -->

<svg
   xmlns:dc="http://purl.org/dc/elements/1.1/"
   xmlns:cc="http://creativecommons.org/ns#"
   xmlns:rdf="http://www.w3.org/1999/02/22-rdf-syntax-ns#"
   xmlns:svg="http://www.w3.org/2000/svg"
   xmlns="http://www.w3.org/2000/svg"
   xmlns:xlink="http://www.w3.org/1999/xlink"
   xmlns:sodipodi="http://sodipodi.sourceforge.net/DTD/sodipodi-0.dtd"
   xmlns:inkscape="http://www.inkscape.org/namespaces/inkscape"
   version="1.1"
   id="svg2"
   width="128"
   height="128"
   viewBox="0 0 128 128"
   sodipodi:docname="com.github.bcedu.shutdownscheduler.svg"
   inkscape:version="0.92.1 r15371">
  <metadata
     id="metadata8">
    <rdf:RDF>
      <cc:Work
         rdf:about="">
        <dc:format>image/svg+xml</dc:format>
        <dc:type
           rdf:resource="http://purl.org/dc/dcmitype/StillImage" />
        <dc:title></dc:title>
      </cc:Work>
    </rdf:RDF>
  </metadata>
  <defs
     id="defs6">
    <linearGradient
       inkscape:collect="always"
       id="linearGradient833">
      <stop
         style="stop-color:#ff406e;stop-opacity:1"
         offset="0"
         id="stop829" />
      <stop
         style="stop-color:#ff5455;stop-opacity:1"
         offset="1"
         id="stop831" />
    </linearGradient>
    <linearGradient
       inkscape:collect="always"
       id="linearGradient823">
      <stop
         style="stop-color:#db3b5f;stop-opacity:1"
         offset="0"
         id="stop819" />
      <stop
         style="stop-color:#ff5455;stop-opacity:1"
         offset="1"
         id="stop821" />
    </linearGradient>
    <linearGradient
       inkscape:collect="always"
       xlink:href="#linearGradient823"
       id="linearGradient825"
       x1="-741.83197"
       y1="959.04749"
       x2="-741.83197"
       y2="93.836403"
       gradientUnits="userSpaceOnUse"
       gradientTransform="matrix(0.13667801,0,0,0.13667801,162.31231,-5.989337)" />
    <linearGradient
       inkscape:collect="always"
       xlink:href="#linearGradient833"
       id="linearGradient835"
       x1="-738.76385"
       y1="931.43433"
       x2="-738.76385"
       y2="152.13077"
       gradientUnits="userSpaceOnUse"
       gradientTransform="matrix(0.13667801,0,0,0.13667801,162.31231,-5.989337)" />
    <linearGradient
       x1="76.523361"
       y1="-9.023138"
       x2="76.523361"
       y2="3.4508991"
       id="linearGradient3149"
       xlink:href="#linearGradient4113"
       gradientUnits="userSpaceOnUse"
       gradientTransform="matrix(0.89553576,0,0,-0.89663265,6.6836208,69.705837)" />
    <linearGradient
       id="linearGradient4113">
      <stop
         id="stop4115"
         style="stop-color:#000000;stop-opacity:1"
         offset="0" />
      <stop
         id="stop4117"
         style="stop-color:#000000;stop-opacity:0"
         offset="1" />
    </linearGradient>
    <linearGradient
       x1="23.99999"
       y1="4.999989"
       x2="23.99999"
       y2="43"
       id="linearGradient3159"
       xlink:href="#linearGradient3924-776"
       gradientUnits="userSpaceOnUse"
       gradientTransform="matrix(2.7297298,0,0,2.7297298,-544.90791,-119.49824)" />
    <linearGradient
       id="linearGradient3924-776">
      <stop
         id="stop3124"
         style="stop-color:#ffffff;stop-opacity:1"
         offset="0" />
      <stop
         id="stop3126"
         style="stop-color:#ffffff;stop-opacity:0.23529412"
         offset="0.06316455" />
      <stop
         id="stop3128"
         style="stop-color:#ffffff;stop-opacity:0.15686275"
         offset="0.95056331" />
      <stop
         id="stop3130"
         style="stop-color:#ffffff;stop-opacity:0.39215687"
         offset="1" />
    </linearGradient>
    <radialGradient
       cx="6.7304144"
       cy="9.9571075"
       r="12.671875"
       fx="6.2001843"
       fy="9.9571075"
       id="radialGradient3395"
       xlink:href="#linearGradient2867-449-88-871-390-598-476-591-434-148-57-177-8-3-3-6-4-8-8-8-5"
       gradientUnits="userSpaceOnUse"
       gradientTransform="matrix(0,25.083279,-30.794253,0,372.81658,-208.0918)" />
    <linearGradient
       id="linearGradient2867-449-88-871-390-598-476-591-434-148-57-177-8-3-3-6-4-8-8-8-5">
      <stop
         id="stop3750-1-0-7-6-6-1-3-9-3"
         style="stop-color:#919caf;stop-opacity:1"
         offset="0" />
      <stop
         id="stop3752-3-7-4-0-32-8-923-0-7"
         style="stop-color:#68758e;stop-opacity:1"
         offset="0.26238" />
      <stop
         id="stop3754-1-8-5-2-7-6-7-1-9"
         style="stop-color:#485a6c;stop-opacity:1"
         offset="0.704952" />
      <stop
         id="stop3756-1-6-2-6-6-1-96-6-0"
         style="stop-color:#444c5c;stop-opacity:1"
         offset="1" />
    </linearGradient>
    <radialGradient
       cx="4.9929786"
       cy="43.5"
       r="2.5"
       fx="4.9929786"
       fy="43.5"
       id="radialGradient2455-1"
       xlink:href="#linearGradient3688-166-749-5"
       gradientUnits="userSpaceOnUse"
       gradientTransform="matrix(2.003784,0,0,1.4,27.98813,-17.4)" />
    <linearGradient
       id="linearGradient3688-166-749-5">
      <stop
         id="stop2883-0"
         style="stop-color:#181818;stop-opacity:1"
         offset="0" />
      <stop
         id="stop2885-5"
         style="stop-color:#181818;stop-opacity:0"
         offset="1" />
    </linearGradient>
    <radialGradient
       cx="4.9929786"
       cy="43.5"
       r="2.5"
       fx="4.9929786"
       fy="43.5"
       id="radialGradient2457-5"
       xlink:href="#linearGradient3688-166-749-5"
       gradientUnits="userSpaceOnUse"
       gradientTransform="matrix(2.003784,0,0,1.4,-20.01187,-104.4)" />
    <linearGradient
       x1="25.058096"
       y1="47.027729"
       x2="25.058096"
       y2="39.999443"
       id="linearGradient2459-7"
       xlink:href="#linearGradient3702-501-757-0"
       gradientUnits="userSpaceOnUse" />
    <linearGradient
       id="linearGradient3702-501-757-0">
      <stop
         id="stop2895-0"
         style="stop-color:#181818;stop-opacity:0"
         offset="0" />
      <stop
         id="stop2897-2"
         style="stop-color:#181818;stop-opacity:1"
         offset="0.5" />
      <stop
         id="stop2899-6"
         style="stop-color:#181818;stop-opacity:0"
         offset="1" />
    </linearGradient>
    <radialGradient
       cx="-4.0287771"
       cy="93.467628"
       r="35.338131"
       fx="-4.0287771"
       fy="93.467628"
       id="radialGradient4377"
       xlink:href="#linearGradient4113"
       gradientUnits="userSpaceOnUse"
       gradientTransform="matrix(1.5563924,0,0,0.16978827,70.270358,102.13029)" />
    <filter
       id="filter3907"
       inkscape:label="Colorize"
       style="color-interpolation-filters:sRGB;">
      <feComposite
         id="feComposite3909"
         result="composite1"
         k2="1"
         k1="0"
         operator="arithmetic"
         in2="SourceGraphic" />
      <feColorMatrix
         id="feColorMatrix3911"
         result="colormatrix1"
         type="saturate"
         values="1"
         in="composite1" />
      <feFlood
         id="feFlood3913"
         result="flood1"
         flood-color="rgb(23,141,46)"
         flood-opacity="0.854902" />
      <feBlend
         id="feBlend3915"
         result="blend1"
         mode="multiply"
         in2="colormatrix1"
         in="flood1" />
      <feBlend
         id="feBlend3917"
         result="blend2"
         mode="screen"
         in2="blend1" />
      <feColorMatrix
         id="feColorMatrix3919"
         result="colormatrix2"
         type="saturate"
         values="1"
         in="blend2" />
      <feComposite
         id="feComposite3921"
         result="composite2"
         k2="1"
         operator="in"
         in2="SourceGraphic"
         in="colormatrix2" />
    </filter>
    <radialGradient
       cx="6.7304144"
       cy="9.9571075"
       r="12.671875"
       fx="6.2001843"
       fy="9.9571075"
       id="radialGradient3395-6"
       xlink:href="#linearGradient2867-449-88-871-390-598-476-591-434-148-57-177-8-3-3-6-4-8-8-8-5-2"
       gradientUnits="userSpaceOnUse"
       gradientTransform="matrix(0,25.083279,-30.794253,0,-170.57782,-329.07655)" />
    <linearGradient
       id="linearGradient2867-449-88-871-390-598-476-591-434-148-57-177-8-3-3-6-4-8-8-8-5-2">
      <stop
         id="stop3750-1-0-7-6-6-1-3-9-3-9"
         style="stop-color:#95a3ab;stop-opacity:1"
         offset="0" />
      <stop
         id="stop3752-3-7-4-0-32-8-923-0-7-1"
         style="stop-color:#8a715e;stop-opacity:1"
         offset="0.26238" />
      <stop
         id="stop3754-1-8-5-2-7-6-7-1-9-2"
         style="stop-color:#715344;stop-opacity:1"
         offset="0.704952" />
      <stop
         id="stop3756-1-6-2-6-6-1-96-6-0-7"
         style="stop-color:#273445;stop-opacity:1"
         offset="1" />
    </linearGradient>
    <radialGradient
       cx="4.9929786"
       cy="43.5"
       r="2.5"
       fx="4.9929786"
       fy="43.5"
       id="radialGradient2455-1-0"
       xlink:href="#linearGradient3688-166-749-5"
       gradientUnits="userSpaceOnUse"
       gradientTransform="matrix(2.003784,0,0,1.4,27.98813,-17.4)" />
    <radialGradient
       cx="4.9929786"
       cy="43.5"
       r="2.5"
       fx="4.9929786"
       fy="43.5"
       id="radialGradient2457-5-6"
       xlink:href="#linearGradient3688-166-749-5"
       gradientUnits="userSpaceOnUse"
       gradientTransform="matrix(2.003784,0,0,1.4,-20.01187,-104.4)" />
    <radialGradient
       cx="-4.0287771"
       cy="93.467628"
       r="35.338131"
       fx="-4.0287771"
       fy="93.467628"
       id="radialGradient4377-6"
       xlink:href="#linearGradient4113"
       gradientUnits="userSpaceOnUse"
       gradientTransform="matrix(1.5563924,0,0,0.16978827,-473.12404,-18.85446)" />
  </defs>
  <sodipodi:namedview
     pagecolor="#ffffff"
     bordercolor="#666666"
     borderopacity="1"
     objecttolerance="10"
     gridtolerance="10"
     guidetolerance="10"
     inkscape:pageopacity="0"
     inkscape:pageshadow="2"
     inkscape:window-width="1920"
     inkscape:window-height="1040"
     id="namedview4"
     showgrid="false"
     inkscape:zoom="3.1500955"
     inkscape:cx="-18.804626"
     inkscape:cy="54.943562"
     inkscape:window-x="0"
     inkscape:window-y="0"
     inkscape:window-maximized="1"
     inkscape:current-layer="svg2"
     showguides="true">
    <sodipodi:guide
       position="103.17147,204.39856"
       orientation="1,0"
       id="guide4675"
       inkscape:locked="false" />
  </sodipodi:namedview>
  <circle
     style="opacity:1;fill:url(#linearGradient825);fill-opacity:1;stroke:none;stroke-width:0.78699166;stroke-linecap:round;stroke-linejoin:round;stroke-miterlimit:4;stroke-dasharray:none;stroke-opacity:1"
     id="path817"
     cx="63.591888"
     cy="64.286316"
     r="61.380009" />
  <circle
     r="55.089832"
     cy="64.286316"
     cx="63.591888"
     id="circle827"
     style="opacity:1;fill:url(#linearGradient835);fill-opacity:1;stroke:none;stroke-width:0.70634133;stroke-linecap:round;stroke-linejoin:round;stroke-miterlimit:4;stroke-dasharray:none;stroke-opacity:1" />
  <g
     id="g4573"
     transform="translate(156.50319,-12.380577)"
     style="opacity:0.336">
    <path
       style="opacity:1;fill:none;fill-opacity:1;stroke:#000000;stroke-width:1.21800005;stroke-miterlimit:4;stroke-dasharray:none;stroke-opacity:0.03921569"
       d="m -92.910197,42.564964 a 34.102079,34.102079 0 0 0 -34.103023,34.100817 34.102079,34.102079 0 0 0 34.103023,34.103039 34.102079,34.102079 0 0 0 34.100814,-34.103039 34.102079,34.102079 0 0 0 -34.100814,-34.100817 z m -0.04863,6.005445 a 3.2082434,3.2082434 0 0 1 3.258011,3.249198 v 21.429052 a 3.2082796,3.2082796 0 0 1 -6.416559,0 V 51.819607 a 3.2082434,3.2082434 0 0 1 3.15855,-3.249198 z m -14.711893,10.834994 a 3.2082434,3.2082434 0 0 1 2.33189,5.512537 c -3.18344,3.183414 -5.14562,7.55299 -5.14562,12.4242 0,9.742461 7.83401,17.567653 17.576461,17.567653 9.742445,0 17.567626,-7.825192 17.567626,-17.567653 0,-4.87121 -1.962189,-9.240786 -5.145629,-12.4242 a 3.2105351,3.2105351 0 0 1 4.53558,-4.544428 c 4.337222,4.337196 7.026603,10.363728 7.026603,16.968628 0,13.20984 -10.77436,23.98418 -23.98418,23.98418 -13.209821,0 -23.993021,-10.77434 -23.993021,-23.98418 0,-6.6049 2.68938,-12.631432 7.0266,-16.968628 a 3.2082434,3.2082434 0 0 1 2.20369,-0.968109 z"
       id="path4549"
       inkscape:connector-curvature="0" />
    <path
       inkscape:connector-curvature="0"
       id="path4551"
       d="m -92.910197,42.564964 a 34.102079,34.102079 0 0 0 -34.103023,34.100817 34.102079,34.102079 0 0 0 34.103023,34.103039 34.102079,34.102079 0 0 0 34.100814,-34.103039 34.102079,34.102079 0 0 0 -34.100814,-34.100817 z m -0.04863,6.005445 a 3.2082434,3.2082434 0 0 1 3.258011,3.249198 v 21.429052 a 3.2082796,3.2082796 0 0 1 -6.416559,0 V 51.819607 a 3.2082434,3.2082434 0 0 1 3.15855,-3.249198 z m -14.711893,10.834994 a 3.2082434,3.2082434 0 0 1 2.33189,5.512537 c -3.18344,3.183414 -5.14562,7.55299 -5.14562,12.4242 0,9.742461 7.83401,17.567653 17.576461,17.567653 9.742445,0 17.567626,-7.825192 17.567626,-17.567653 0,-4.87121 -1.962189,-9.240786 -5.145629,-12.4242 a 3.2105351,3.2105351 0 0 1 4.53558,-4.544428 c 4.337222,4.337196 7.026603,10.363728 7.026603,16.968628 0,13.20984 -10.77436,23.98418 -23.98418,23.98418 -13.209821,0 -23.993021,-10.77434 -23.993021,-23.98418 0,-6.6049 2.68938,-12.631432 7.0266,-16.968628 a 3.2082434,3.2082434 0 0 1 2.20369,-0.968109 z"
       style="opacity:1;fill:none;fill-opacity:1;stroke:#000000;stroke-width:2;stroke-miterlimit:4;stroke-dasharray:none;stroke-opacity:0.03921569" />
    <path
       style="opacity:1;fill:none;fill-opacity:1;stroke:#000000;stroke-width:3;stroke-miterlimit:4;stroke-dasharray:none;stroke-opacity:0.03921569"
       d="m -92.910197,42.564964 a 34.102079,34.102079 0 0 0 -34.103023,34.100817 34.102079,34.102079 0 0 0 34.103023,34.103039 34.102079,34.102079 0 0 0 34.100814,-34.103039 34.102079,34.102079 0 0 0 -34.100814,-34.100817 z m -0.04863,6.005445 a 3.2082434,3.2082434 0 0 1 3.258011,3.249198 v 21.429052 a 3.2082796,3.2082796 0 0 1 -6.416559,0 V 51.819607 a 3.2082434,3.2082434 0 0 1 3.15855,-3.249198 z m -14.711893,10.834994 a 3.2082434,3.2082434 0 0 1 2.33189,5.512537 c -3.18344,3.183414 -5.14562,7.55299 -5.14562,12.4242 0,9.742461 7.83401,17.567653 17.576461,17.567653 9.742445,0 17.567626,-7.825192 17.567626,-17.567653 0,-4.87121 -1.962189,-9.240786 -5.145629,-12.4242 a 3.2105351,3.2105351 0 0 1 4.53558,-4.544428 c 4.337222,4.337196 7.026603,10.363728 7.026603,16.968628 0,13.20984 -10.77436,23.98418 -23.98418,23.98418 -13.209821,0 -23.993021,-10.77434 -23.993021,-23.98418 0,-6.6049 2.68938,-12.631432 7.0266,-16.968628 a 3.2082434,3.2082434 0 0 1 2.20369,-0.968109 z"
       id="path4553"
       inkscape:connector-curvature="0" />
    <path
       inkscape:connector-curvature="0"
       id="path4555"
       d="m -92.910197,42.564964 a 34.102079,34.102079 0 0 0 -34.103023,34.100817 34.102079,34.102079 0 0 0 34.103023,34.103039 34.102079,34.102079 0 0 0 34.100814,-34.103039 34.102079,34.102079 0 0 0 -34.100814,-34.100817 z m -0.04863,6.005445 a 3.2082434,3.2082434 0 0 1 3.258011,3.249198 v 21.429052 a 3.2082796,3.2082796 0 0 1 -6.416559,0 V 51.819607 a 3.2082434,3.2082434 0 0 1 3.15855,-3.249198 z m -14.711893,10.834994 a 3.2082434,3.2082434 0 0 1 2.33189,5.512537 c -3.18344,3.183414 -5.14562,7.55299 -5.14562,12.4242 0,9.742461 7.83401,17.567653 17.576461,17.567653 9.742445,0 17.567626,-7.825192 17.567626,-17.567653 0,-4.87121 -1.962189,-9.240786 -5.145629,-12.4242 a 3.2105351,3.2105351 0 0 1 4.53558,-4.544428 c 4.337222,4.337196 7.026603,10.363728 7.026603,16.968628 0,13.20984 -10.77436,23.98418 -23.98418,23.98418 -13.209821,0 -23.993021,-10.77434 -23.993021,-23.98418 0,-6.6049 2.68938,-12.631432 7.0266,-16.968628 a 3.2082434,3.2082434 0 0 1 2.20369,-0.968109 z"
       style="opacity:1;fill:none;fill-opacity:1;stroke:#000000;stroke-width:4;stroke-miterlimit:4;stroke-dasharray:none;stroke-opacity:0.03921569" />
    <path
       style="opacity:1;fill:none;fill-opacity:1;stroke:#000000;stroke-width:5;stroke-miterlimit:4;stroke-dasharray:none;stroke-opacity:0.03921569"
       d="m -92.910197,42.564964 a 34.102079,34.102079 0 0 0 -34.103023,34.100817 34.102079,34.102079 0 0 0 34.103023,34.103039 34.102079,34.102079 0 0 0 34.100814,-34.103039 34.102079,34.102079 0 0 0 -34.100814,-34.100817 z m -0.04863,6.005445 a 3.2082434,3.2082434 0 0 1 3.258011,3.249198 v 21.429052 a 3.2082796,3.2082796 0 0 1 -6.416559,0 V 51.819607 a 3.2082434,3.2082434 0 0 1 3.15855,-3.249198 z m -14.711893,10.834994 a 3.2082434,3.2082434 0 0 1 2.33189,5.512537 c -3.18344,3.183414 -5.14562,7.55299 -5.14562,12.4242 0,9.742461 7.83401,17.567653 17.576461,17.567653 9.742445,0 17.567626,-7.825192 17.567626,-17.567653 0,-4.87121 -1.962189,-9.240786 -5.145629,-12.4242 a 3.2105351,3.2105351 0 0 1 4.53558,-4.544428 c 4.337222,4.337196 7.026603,10.363728 7.026603,16.968628 0,13.20984 -10.77436,23.98418 -23.98418,23.98418 -13.209821,0 -23.993021,-10.77434 -23.993021,-23.98418 0,-6.6049 2.68938,-12.631432 7.0266,-16.968628 a 3.2082434,3.2082434 0 0 1 2.20369,-0.968109 z"
       id="path4557"
       inkscape:connector-curvature="0" />
    <path
       inkscape:connector-curvature="0"
       id="path4559"
       d="m -92.910197,42.564964 a 34.102079,34.102079 0 0 0 -34.103023,34.100817 34.102079,34.102079 0 0 0 34.103023,34.103039 34.102079,34.102079 0 0 0 34.100814,-34.103039 34.102079,34.102079 0 0 0 -34.100814,-34.100817 z m -0.04863,6.005445 a 3.2082434,3.2082434 0 0 1 3.258011,3.249198 v 21.429052 a 3.2082796,3.2082796 0 0 1 -6.416559,0 V 51.819607 a 3.2082434,3.2082434 0 0 1 3.15855,-3.249198 z m -14.711893,10.834994 a 3.2082434,3.2082434 0 0 1 2.33189,5.512537 c -3.18344,3.183414 -5.14562,7.55299 -5.14562,12.4242 0,9.742461 7.83401,17.567653 17.576461,17.567653 9.742445,0 17.567626,-7.825192 17.567626,-17.567653 0,-4.87121 -1.962189,-9.240786 -5.145629,-12.4242 a 3.2105351,3.2105351 0 0 1 4.53558,-4.544428 c 4.337222,4.337196 7.026603,10.363728 7.026603,16.968628 0,13.20984 -10.77436,23.98418 -23.98418,23.98418 -13.209821,0 -23.993021,-10.77434 -23.993021,-23.98418 0,-6.6049 2.68938,-12.631432 7.0266,-16.968628 a 3.2082434,3.2082434 0 0 1 2.20369,-0.968109 z"
       style="opacity:1;fill:none;fill-opacity:1;stroke:#000000;stroke-width:6;stroke-miterlimit:4;stroke-dasharray:none;stroke-opacity:0.03921569" />
    <path
       style="opacity:1;fill:none;fill-opacity:1;stroke:#000000;stroke-width:7;stroke-miterlimit:4;stroke-dasharray:none;stroke-opacity:0.03921569"
       d="m -92.910197,42.564964 a 34.102079,34.102079 0 0 0 -34.103023,34.100817 34.102079,34.102079 0 0 0 34.103023,34.103039 34.102079,34.102079 0 0 0 34.100814,-34.103039 34.102079,34.102079 0 0 0 -34.100814,-34.100817 z m -0.04863,6.005445 a 3.2082434,3.2082434 0 0 1 3.258011,3.249198 v 21.429052 a 3.2082796,3.2082796 0 0 1 -6.416559,0 V 51.819607 a 3.2082434,3.2082434 0 0 1 3.15855,-3.249198 z m -14.711893,10.834994 a 3.2082434,3.2082434 0 0 1 2.33189,5.512537 c -3.18344,3.183414 -5.14562,7.55299 -5.14562,12.4242 0,9.742461 7.83401,17.567653 17.576461,17.567653 9.742445,0 17.567626,-7.825192 17.567626,-17.567653 0,-4.87121 -1.962189,-9.240786 -5.145629,-12.4242 a 3.2105351,3.2105351 0 0 1 4.53558,-4.544428 c 4.337222,4.337196 7.026603,10.363728 7.026603,16.968628 0,13.20984 -10.77436,23.98418 -23.98418,23.98418 -13.209821,0 -23.993021,-10.77434 -23.993021,-23.98418 0,-6.6049 2.68938,-12.631432 7.0266,-16.968628 a 3.2082434,3.2082434 0 0 1 2.20369,-0.968109 z"
       id="path4561"
       inkscape:connector-curvature="0" />
    <path
       inkscape:connector-curvature="0"
       id="path4563"
       d="m -92.910197,42.564964 a 34.102079,34.102079 0 0 0 -34.103023,34.100817 34.102079,34.102079 0 0 0 34.103023,34.103039 34.102079,34.102079 0 0 0 34.100814,-34.103039 34.102079,34.102079 0 0 0 -34.100814,-34.100817 z m -0.04863,6.005445 a 3.2082434,3.2082434 0 0 1 3.258011,3.249198 v 21.429052 a 3.2082796,3.2082796 0 0 1 -6.416559,0 V 51.819607 a 3.2082434,3.2082434 0 0 1 3.15855,-3.249198 z m -14.711893,10.834994 a 3.2082434,3.2082434 0 0 1 2.33189,5.512537 c -3.18344,3.183414 -5.14562,7.55299 -5.14562,12.4242 0,9.742461 7.83401,17.567653 17.576461,17.567653 9.742445,0 17.567626,-7.825192 17.567626,-17.567653 0,-4.87121 -1.962189,-9.240786 -5.145629,-12.4242 a 3.2105351,3.2105351 0 0 1 4.53558,-4.544428 c 4.337222,4.337196 7.026603,10.363728 7.026603,16.968628 0,13.20984 -10.77436,23.98418 -23.98418,23.98418 -13.209821,0 -23.993021,-10.77434 -23.993021,-23.98418 0,-6.6049 2.68938,-12.631432 7.0266,-16.968628 a 3.2082434,3.2082434 0 0 1 2.20369,-0.968109 z"
       style="opacity:1;fill:none;fill-opacity:1;stroke:#000000;stroke-width:8;stroke-miterlimit:4;stroke-dasharray:none;stroke-opacity:0.03921569" />
  </g>
  <path
     style="opacity:1;fill:#ffffff;fill-opacity:1;stroke-width:1.21831977"
     d="M 63.592995,30.184387 A 34.102079,34.102079 0 0 0 29.489968,64.285204 34.102079,34.102079 0 0 0 63.592995,98.388245 34.102079,34.102079 0 0 0 97.693809,64.285204 34.102079,34.102079 0 0 0 63.592995,30.184387 Z m -0.04863,6.005445 a 3.2082434,3.2082434 0 0 1 3.258011,3.249198 v 21.429052 a 3.2082796,3.2082796 0 0 1 -6.416559,0 V 39.43903 a 3.2082434,3.2082434 0 0 1 3.15855,-3.249198 z m -14.71189,10.834994 a 3.2082434,3.2082434 0 0 1 2.331888,5.512537 c -3.183437,3.183414 -5.145625,7.55299 -5.145625,12.4242 -10e-7,9.742461 7.834015,17.567653 17.576465,17.567653 9.742445,0 17.567626,-7.825192 17.567626,-17.567653 0,-4.87121 -1.962189,-9.240786 -5.145629,-12.4242 a 3.2105351,3.2105351 0 0 1 4.53558,-4.544428 c 4.337222,4.337196 7.026603,10.363728 7.026603,16.968628 0,13.20984 -10.77436,23.984183 -23.98418,23.984183 -13.209824,0 -23.993026,-10.774343 -23.993024,-23.984183 0,-6.6049 2.689385,-12.631432 7.026607,-16.968628 a 3.2082434,3.2082434 0 0 1 2.203689,-0.968109 z"
     id="path815"
     inkscape:connector-curvature="0" />
</svg>
