<?xml version="1.0" encoding="UTF-8" standalone="no"?>
<svg
   xmlns:dc="http://purl.org/dc/elements/1.1/"
   xmlns:cc="http://creativecommons.org/ns#"
   xmlns:rdf="http://www.w3.org/1999/02/22-rdf-syntax-ns#"
   xmlns:svg="http://www.w3.org/2000/svg"
   xmlns="http://www.w3.org/2000/svg"
   xmlns:xlink="http://www.w3.org/1999/xlink"
   xmlns:sodipodi="http://sodipodi.sourceforge.net/DTD/sodipodi-0.dtd"
   xmlns:inkscape="http://www.inkscape.org/namespaces/inkscape"
   height="128"
   viewBox="0 0 128 128"
   width="128"
   version="1.1"
   id="svg13"
   sodipodi:docname="com.github.bartzaalberg.bookmark-manager.svg"
   inkscape:version="0.92.4 (5da689c313, 2019-01-14)">
  <metadata
     id="metadata19">
    <rdf:RDF>
      <cc:Work
         rdf:about="">
        <dc:format>image/svg+xml</dc:format>
        <dc:type
           rdf:resource="http://purl.org/dc/dcmitype/StillImage" />
        <dc:title></dc:title>
      </cc:Work>
    </rdf:RDF>
  </metadata>
  <defs
     id="defs17">
    <linearGradient
       inkscape:collect="always"
       id="linearGradient834">
      <stop
         style="stop-color:#ec1146;stop-opacity:1"
         offset="0"
         id="stop830" />
      <stop
         style="stop-color:#f13a66;stop-opacity:1"
         offset="1"
         id="stop832" />
    </linearGradient>
    <linearGradient
       inkscape:collect="always"
       xlink:href="#linearGradient834"
       id="linearGradient836"
       x1="91.900314"
       y1="55.932201"
       x2="90.101761"
       y2="10.915253"
       gradientUnits="userSpaceOnUse" />
  </defs>
  <sodipodi:namedview
     pagecolor="#ffffff"
     bordercolor="#666666"
     borderopacity="1"
     objecttolerance="10"
     gridtolerance="10"
     guidetolerance="10"
     inkscape:pageopacity="0"
     inkscape:pageshadow="2"
     inkscape:window-width="1920"
     inkscape:window-height="1022"
     id="namedview15"
     showgrid="false"
     inkscape:zoom="0.921875"
     inkscape:cx="79.119319"
     inkscape:cy="100.07833"
     inkscape:window-x="0"
     inkscape:window-y="30"
     inkscape:window-maximized="1"
     inkscape:current-layer="svg13" />
  <filter
     id="a"
     color-interpolation-filters="sRGB"
     height="1.091462"
     width="1.059367"
     x="-.029684"
     y="-.045731">
    <feGaussianBlur
       stdDeviation=".44564704"
       id="feGaussianBlur2" />
  </filter>
  <rect
     fill="#1a1a1a"
     height="105.1398"
     ry="5.959825"
     stroke="#3a3a3a"
     stroke-width="1.648264"
     width="119.64789"
     x="4.1029"
     y="12.379148"
     id="rect5" />
  <path
     d="m12.376953 19.681641v88.499999h49.5625 4.121094 49.564453v-88.499999h-49.564453-4.121094z"
     fill="#333"
     id="path7" />
  <path
     d="m19.962648 26.846403v4.635742l11.798613 4.214019-11.798613 5.055858v4.846604l18.647603-7.795453v-4.214018zm18.121247 18.121246v5.26672h17.910392v-4.846605z"
     filter="url(#a)"
     id="path9" />
  <path
     d="m19.962648 26.846403v4.635742l11.798613 4.214019-11.798613 5.055858v4.846604l18.647603-7.795453v-4.214018zm18.121247 18.121246v5.26672h17.910392v-4.846605z"
     fill="#fff"
     id="path11" />
  <path
     sodipodi:nodetypes="csccccc"
     inkscape:connector-curvature="0"
     id="path828"
     d="m 76.160853,11.525424 c -0.263501,7.682691 -0.197356,15.101664 0.06798,22.361286 0.313436,8.575666 0.90483,19.99709 1.559139,28.300058 3.755689,-7.032937 8.822835,-15.013268 14.745795,-20.601359 3.078682,7.694021 8.828343,11.804511 14.745793,17.014612 -1.38233,-15.35555 -2.05086,-30.996618 -1.62712,-47.074597 z"
     style="fill:#000000;fill-opacity:0.31999999;stroke:none;stroke-width:1px;stroke-linecap:butt;stroke-linejoin:miter;stroke-opacity:1" />
  <path
     style="fill:url(#linearGradient836);fill-opacity:1;stroke:none;stroke-width:1px;stroke-linecap:butt;stroke-linejoin:miter;stroke-opacity:1"
     d="m 77.694915,11.525424 c -0.263501,7.682691 -0.197356,15.101664 0.06798,22.361286 0.313436,8.575666 0.90483,16.928966 1.559139,25.231934 3.755689,-7.032937 8.822835,-13.19157 14.745795,-18.779661 3.078682,7.694021 8.828341,13.050937 14.745791,18.261038 -1.38233,-15.35555 -2.05086,-30.996618 -1.62712,-47.074597 z"
     id="path826"
     inkscape:connector-curvature="0"
     sodipodi:nodetypes="csccccc" />
</svg>
