<?xml version="1.0" encoding="UTF-8" standalone="no"?>
<svg
   xmlns:dc="http://purl.org/dc/elements/1.1/"
   xmlns:cc="http://creativecommons.org/ns#"
   xmlns:rdf="http://www.w3.org/1999/02/22-rdf-syntax-ns#"
   xmlns:svg="http://www.w3.org/2000/svg"
   xmlns="http://www.w3.org/2000/svg"
   xmlns:sodipodi="http://sodipodi.sourceforge.net/DTD/sodipodi-0.dtd"
   xmlns:inkscape="http://www.inkscape.org/namespaces/inkscape"
   height="128"
   viewBox="0 0 127.99999 128"
   width="128"
   version="1.1"
   id="svg81"
   sodipodi:docname="applications-development-translation.svg"
   inkscape:version="0.92.3 (2405546, 2018-03-11)">
  <metadata
     id="metadata87">
    <rdf:RDF>
      <cc:Work
         rdf:about="">
        <dc:format>image/svg+xml</dc:format>
        <dc:type
           rdf:resource="http://purl.org/dc/dcmitype/StillImage" />
      </cc:Work>
    </rdf:RDF>
  </metadata>
  <defs
     id="defs85" />
  <sodipodi:namedview
     pagecolor="#ffffff"
     bordercolor="#666666"
     borderopacity="1"
     objecttolerance="10"
     gridtolerance="10"
     guidetolerance="10"
     inkscape:pageopacity="0"
     inkscape:pageshadow="2"
     inkscape:window-width="1920"
     inkscape:window-height="1026"
     id="namedview83"
     showgrid="false"
     inkscape:zoom="3.6875"
     inkscape:cx="69.405591"
     inkscape:cy="58.846655"
     inkscape:window-x="0"
     inkscape:window-y="28"
     inkscape:window-maximized="1"
     inkscape:current-layer="svg81" />
  <linearGradient
     id="a"
     gradientUnits="userSpaceOnUse"
     x1="74.51730605507"
     x2="74.99917203964"
     y1="32.14880619175"
     y2="102.00432061673">
    <stop
       offset="0"
       stop-color="#48bef0"
       id="stop2" />
    <stop
       offset="1"
       stop-color="#1532b9"
       stop-opacity=".929412"
       id="stop4" />
  </linearGradient>
  <path
     d="m13.698495 100.03384c31.925992-14.610474 65.784337 21.74941 108.995175-2.467251l-.48176-75.636678c-20.60702 24.304455-75.394093-8.799199-107.91476 3.854086z"
     fill="url(#a)"
     id="path7" />
  <path
     d="m7.6500321 24.930823v96.836937h6.8217539v-96.836937z"
     fill="#d1d1d1"
     id="path9" />
  <path
     d="m7.6500321 24.930823v96.836937h1.7118965v-96.836937z"
     fill="#7e7e7e"
     id="path11" />
  <path
     d="m12.75989 24.930823v96.836937h1.711896v-96.836937z"
     fill="#7e7e7e"
     id="path13" />
  <g
     fill="#fff"
     transform="matrix(.16410076331 0 0 .16410076331 -5.356388169 14.29864432605)"
     id="g79">
    <g
       id="g45">
      <path
         d="m569.38574 394.10937c-10.77441 2.88526-22.27148 3.81299-32.73535 7.38135 17.72266-15.1958 16.71094-38.70849 28.53516-56.60595 3.7666-5.06739 6.87988-10.37891 11.2705-15.1875-7.19238 14.42773-4.07324 33.14648-12.33593 47.14746-3.18067 5.56152-7.72949 10.95703-12.75977 15.32519 1.64356-.0615 3.08203-1.48437 4.52735-2.43457 13.42089-13.39258 30.9541-17.13769 45.47168-28.01855 5.81542-4.63379 11.1416-10.70606 13.69824-17.27344-2.74707 22.21973-24.85254 43.0459-45.67188 49.66601z"
         id="path15" />
      <path
         d="m617.73535 304.14551c-6.5664 9.34375-14.50976 18.04199-20.57617 27.53808.67676-7.51855 1.56738-16.76367-1.36133-23.88574-5.07519-15.33691-9.53418-30.90918-10.97265-47.74121l.19824-6.43652c3.81933 17.18945 20.70508 29.00586 19.63965 48.28711.38671 4.67285-1.0586 8.6455-1.9336 12.75488l.29004.30371.76074-.85254c2.50391-9.45801 3.76758-19.40332 7.66114-28.22754 5.5332-12.69824 12.44238-25.51367 9.62695-40.8457 8.41601 18.07617 5.86621 42.22754-3.33301 59.10547z"
         id="path17" />
      <path
         d="m607.37109 206.75781c11.07227 15.00537 13.49903 38.91797 5.43457 56.12989-3.00586 7.29394-5.1289 15.0664-6.30957 23.13964-.56347-1.39257-.69238-3.26464-1.19531-4.8164-4.4043-16.84766-20.33789-28.85449-26.89062-44.73877-2.07813-5.19434-3.84961-10.56153-4.83204-16.2002 7.00196 12.9502 24.25782 19.63916 28.96094 33.91065 1.92676 3.60937 1.81836 8.11914 3.01367 12 .25098 0 .50196-.18653.50196-.44141-2.07032-14.70117-1.43848-30.0874.55664-44.60596-.11524-7.86425-.88281-15.49267-5.25196-21.58007 2.80176 1.63232 4.06348 4.76757 6.01172 7.20263z"
         id="path19" />
      <path
         d="m599.56445 203.87744c2.90821 13.14893-1.33984 25.95459 1.33203 39.22998l-.0996.11426c-7.15333-14.06641-22.33985-20.70508-32.78907-31.96338-6.05566-6.68066-8.68847-14.82275-10.20312-23.44385 5.9873 14.43457 22.14355 17.61524 31.41894 29.77881 3.10352 2.8042 4.11621 6.68897 6.11719 9.86914l.32715-.31592c-5.33399-11.38671-7.1211-24.20117-10.84277-36.34521-1.86329-5.26221-5.56153-10.43262-10.52344-13.75049 12.17578 2.48828 22.72851 15.19971 25.26269 26.82666z"
         id="path21" />
      <path
         d="m567.01172 173.72168c9.16992 8.20703 13.31738 18.8335 15.99512 29.84375l1.51464 3.49658c-13.30957-9.57226-25.40039-22.43994-33.89941-36.02978l-10.37988-10.50098c9.125 3.86914 18.96289 6.17871 26.76953 13.19043z"
         id="path23" />
      <path
         d="m356.80566 162.27393c-9.20019 8.06543-15.58105 18.26562-22.40625 27.77734-6.11816 7.57519-13.94433 12.57031-20.87988 19.08447 3.74414-7.76172 3.88086-17.0332 9.19141-24.16308 7.55664-13.1836 21.56933-17.82178 34.09472-22.69873z"
         id="path25" />
      <path
         d="m306.49219 190.35986c4.47461-5.5625 10.14746-9.42822 16.53125-11.06054-12.39551 8.51513-11.58887 23.7749-15.51856 36.46045-1.25293 4.69091-3.42871 9.01269-4.51269 13.82128l.31543.25098c2.0625-5.43603 5.6875-10.57226 10.21191-15.00781 8.80371-8.12695 21.82715-13.1919 26.1416-25.21387-.19726 16.70606-14.13379 29.83985-27.46875 39.22901-5.49902 4.82421-10.80175 10.32226-13.83008 16.52392-.29687-4.21484.62305-8.44678.32325-12.96191-1.4502-14.5835-2.50391-31.22901 7.80664-42.04151z"
         id="path27" />
      <path
         d="m281.41211 240.22754c-.37305-14.77832 5.76074-26.8418 14.4043-37.85303.25097-.12549.42968-.37646.75293-.31592-9.51465 14.4585-1.64356 32.67041-2.07715 49.11036l-1.25489 16.83203c.18653.12207.18653.62793.62793.43359.5625-1.87598.68457-3.88086 1.06055-5.81055 2.24121-13.57714 14.03223-23.21093 24.33106-32.59375 2.19921-2.4541 4.14355-4.9458 5.27343-7.82568-.84082 6.76025-2.95996 13.57861-5.76464 19.83057-8.01563 15.63183-22.82325 28.458-25.52833 46.35449-1.3125-17.15039-12.98925-29.97266-11.82519-48.16211z"
         id="path29" />
      <path
         d="m274.21387 261.24316c1.06543-4.62207 1.87988-9.40527 3.8916-13.64648-3.81152 19.53711 9.3291 33.61426 13.63965 50.54883 1.80371 6.33398 2.24511 13.13672 4.82422 19.08008.24023.12988.44921-.1211.59765-.31153-6.41797-17.98926 2.84668-34.70605 12.15625-48.79101 2.26367-3.81641 3.56836-8.06641 4.69434-12.45313.98926 8.1416-1.06934 17.51758-2.25195 25.9707-2.26368 10.75586-5.64258 20.95606-8.58399 31.39258-1.93555 6.52149-1.42676 13.87891-.43262 20.71192l-.93261-.74512c-6.8252-12.58594-20.33985-22.40234-24.35352-36.15234-3.30273-10.96192-5.49805-23.66016-3.24902-35.6045z"
         id="path31" />
      <path
         d="m273.59766 299.40137c1.50293 20.708 23.77148 31.65039 34.09375 48.79394 2.44238 3.50781 4.56152 7.38867 7.82519 10.3252-.50976-2.20606-2.56836-4.0625-3.32422-6.32227-3.61133-7.19043-4.92773-15.75879-4.05957-24.44922 1-10.57714 5.43653-20.39257 3.74317-31.51757 9.07031 19.55664 6.31543 43.96679 11.38672 65.1582 1.32812 4.63476 4.01074 8.77344 5.76855 13.20312-18.63574-12.69238-44.04687-24.76855-52.31445-48.03027-3.48438-8.02051-3.87305-17.9502-3.11914-27.16113z"
         id="path33" />
      <path
         d="m284.72949 346.95508c10.39063 23.50586 36.41406 25.45312 53.86231 39.7666 3.21093 2.8457 6.57519 5.26562 10.20019 6.9541l.18653-.18945c-4.00586-3.62207-8.63965-7.74707-11.44434-12.44141-10.21191-14.19922-6.62012-34.08984-14.27148-49.36133 6.95214 8.31641 13.27441 16.96094 17.47167 26.39551 6.24317 15.40137 8.62891 32.79688 23.0752 44.43897-15.63379-5.15235-33.94922-3.71289-47.74805-13.33936-15.0664-9.25976-28.51269-24.96582-31.33203-42.22363z"
         id="path35" />
      <path
         d="m311.43457 390.80664c16.66016 18.94775 43.88281 12.62549 66.0752 17.58447 3.13476.42774 6.0039 1.6836 9.32617 1.17383-2.64551-1.67383-6.31641-1.49219-9.2041-3.01367-17.39551-6.11133-19.94727-24.94385-29.39063-37.64307 12.06445 8.01172 22.20703 18.81739 33.33692 29.2876 8 7.00781 17.62988 10.24219 27.77636 12.30469-2.43847.89062-5.63476.64648-8.25195 1.33203-18.22852 4.48242-38.48047 11.80859-57.81152 5.25-12.56739-3.95703-25.53321-13.89453-31.85645-26.27588z"
         id="path37" />
      <path
         d="m537.55664 434.97314c-18.77344 7.00586-38.36621-.32031-53.0293-11.43945-5.93652-3.77344-11.16992-9.20703-18.84863-8.72656-2.78516-.0527-5.4707.084-7.83789.76758 14.24512 6.6289 27.47754 15.76758 39.57617 27.45508-2.03906 2.32812-4.67969 4.50585-7.16699 6.51367-11.65918-12.5625-24.57129-24.6543-39.02832-31.7168-2.83105.36719-5.52441 2.07031-8.07715 3.44141-11.76953 7.4414-23.40723 17.01367-32.15723 28.73242l-7.51855-6.20899c12-12.13867 25.27344-21.58789 39.79395-28.33789-14.26856-4.51953-23.58204 7.4336-34.41309 13.51368-12.62109 8.8125-30.77246 12.95117-46.02539 6.87109-8.20313-3.11133-16.15039-7.69336-22.08984-15.14063 12.0039 8.26954 29.88183 9.13672 43.5332 3.76563 18.31836-7.94531 37.35351-18.01758 59.43652-13.20117 3.44629.0605 6.79492 3.49218 10.05078.57031 16.41309-4.26172 34.99512-1.33203 49.12598 6.16992l14.56445 5.83789c13.53711 5.00586 31.03907 3.6211 42.64258-4.62695-5.96582 7.42578-14.11523 12.74609-22.53125 15.75976z"
         id="path39" />
      <path
         d="m557.6748 415.57471c-21.07812 7.95898-42.2832-1.81055-62.47949-5.07422l-3.88867-.49414v-.12305c9.65723-2.19141 19.03125-5.06641 26.71777-12.00586 11.32129-10.88232 21.39551-22.08349 33.96778-30.65869-9.32324 11.9541-10.31153 28.96924-25.71289 36.65479-3.81153 2.49414-8.62207 2.93554-12.55567 4.82421 5.60938.1211 10.74512-1.88867 16.29981-2.45117 20.65234-3.24219 44.27832.084 58.7666-17.50928-5.37891 12.25928-18.84961 22.52491-31.11524 26.83741z"
         id="path41" />
      <path
         d="m595.97266 356.26855c-8.32422 5.44825-16.76172 10.50098-24.76075 16.69532v-.76075c12.25196-20.3623 6.2627-48.33496 13.81153-70.74414l2.81543-7.50683c-1.5752 13.95996 4.48828 25.78515 4.0625 39.79297-.42578 8.46191-3.1875 15.96484-7.63086 22.72168h.75293c6.00293-7.88379 10.69043-16.26856 17.70605-23.77832 10.88965-10.50098 21.96094-21.26856 23.39063-35.84082 3.69824 24.32714-9.95215 45.64843-30.14746 59.42089z"
         id="path43" />
    </g>
    <g
       id="g77">
      <g
         fill-rule="evenodd"
         id="g73">
        <path
           d="m448.11182 398.07471v-94.82227h3.77685v94.82227z"
           id="path47" />
        <path
           d="m360.50781 360.93652 67.10157-66.99707 2.66796 2.67139-67.10156 66.99902z"
           id="path49" />
        <path
           d="m326.37109 274.07227 94.82422.11377-.00586 3.77636-94.82226-.11328z"
           id="path51" />
        <path
           d="m363.15674 188.83838 67.04101 67.05957-2.67187 2.66943-67.04053-67.05957z"
           id="path53" />
        <path
           d="m451.93408 153.28662-.08691 94.82324-3.77686-.00293.08692-94.82422z"
           id="path55" />
        <path
           d="m537.96484 190.19482-67.14013 66.96045-2.66797-2.67382 67.14014-66.95997z"
           id="path57" />
        <path
           d="m572.97168 278.14014-94.82422.11914-.00391-3.77637 94.82129-.11914z"
           id="path59" />
        <path
           d="m534.30566 364.55225-67.10644-66.99317 2.66797-2.67383 67.10644 66.99366z"
           id="path61" />
        <path
           d="m485.36328 181.18359c52.22656 19.52198 78.76856 77.75 59.2461 129.97364-19.52247 52.22363-77.75049 78.76611-129.97217 59.24365-52.22559-19.521-78.76416-77.74805-59.24561-129.97266 19.52295-52.22461 77.75-78.76513 129.97168-59.24463zm-1.52832 4.09473c49.96289 18.67676 75.35547 74.38477 56.68066 124.34814-18.67578 49.96485-74.3872 75.35645-124.3496 56.67969-49.9629-18.6748-75.3545-74.38379-56.67969-124.34765 18.67676-49.96338 74.38574-75.35596 124.34863-56.68018z"
           id="path63" />
        <path
           d="m477.26172 202.86133c40.26074 15.04883 60.71777 59.93506 45.67187 100.19385-15.0498 40.2583-59.93847 60.71777-100.19433 45.66992-40.25635-15.04785-60.71778-59.93604-45.66992-100.19434 15.04785-40.25781 59.93603-60.71777 100.19238-45.66943zm-1.53613 4.11816c37.98242 14.19824 57.28906 56.55225 43.09082 94.5376-14.19825 37.98584-56.55518 57.29102-94.53711 43.09082-37.98584-14.19824-57.29297-56.55273-43.09278-94.5376 14.2002-37.98584 56.55274-57.29101 94.53907-43.09082z"
           id="path65" />
        <path
           d="m469.40186 223.88623c28.65478 10.71045 43.2163 42.65723 32.50732 71.30957-10.71387 28.65186-42.66016 43.21533-71.31055 32.50391-28.65381-10.71094-43.21533-42.65723-32.5039-71.30908 10.71093-28.65186 42.65722-43.21436 71.30713-32.5044zm-1.40772 3.76856c26.57324 9.9331 40.0791 39.56054 30.14551 66.1333-9.93457 26.57226-39.56055 40.07617-66.1333 30.14306-26.57227-9.93164-40.07617-39.56006-30.14453-66.13281 9.9331-26.57129 39.55957-40.07617 66.13232-30.14355z"
           id="path67" />
        <path
           d="m460.56201 247.53662c15.59815 5.83057 23.52588 23.2207 17.69483 38.81934-5.83106 15.59619-23.21973 23.52441-38.81836 17.69287-15.59815-5.82959-23.52442-23.21973-17.69483-38.81836 5.83155-15.59717 23.22364-23.52442 38.81836-17.69385zm-1.5249 4.07666c13.35059 4.98926 20.13184 19.87158 15.14453 33.21924-4.9917 13.34717-19.87109 20.12988-33.21777 15.14062-13.34912-4.98925-20.13184-19.8706-15.14453-33.21875 4.99121-13.34765 19.87451-20.13085 33.21777-15.14111z"
           id="path69" />
        <path
           d="m508.91309 166.20703c61.08496 33.61572 84.2705 109.99317 51.74902 170.48242-32.51758 60.4917-108.48975 82.3042-169.57422 48.68897-61.08398-33.61475-84.27002-109.99317-51.74853-170.4834 32.51953-60.49121 108.48876-82.30322 169.57373-48.68799zm-2.1377 3.97998c58.86719 32.39453 81.20898 105.99707 49.86816 164.29248-31.33691 58.29346-104.55078 79.31494-163.41552 46.91992-58.86865-32.39648-81.21045-105.99902-49.87012-164.29345 31.33691-58.29444 104.5498-79.31446 163.41748-46.91895z"
           id="path71" />
      </g>
      <path
         d="m 523.73633,334.3999 c 2.24394,8.36943 9.72843,-6.15981 3.56445,-9.51709 -0.90923,-7.88311 -6.86518,10.24674 -3.56445,9.51709 z m -64.47998,-8.1416 c 1.04303,3.54059 3.85833,-1.36194 0,0 z m 0.97265,-1.92627 c -1.34781,1.43592 0.89986,2.17389 0,0 z M 444.56982,312.8623 c -8.14895,6.71769 7.44383,1.62362 0,0 z m 37.6001,-4.03027 c -1.73339,5.52973 8.79472,-2.78811 3.67771,3.74268 -4.88311,2.6318 -10.43256,11.55704 -8.03711,0.85107 3.38225,-0.16133 3.48666,-1.137 3.25024,-3.14838 l 1.10913,-1.44537 z m -34.85644,3.91455 c 1.80949,2.89831 -1.85231,5.3709 0.80673,5.31477 9.16728,1.04601 0.31282,-4.19361 1.56592,-6.98747 -0.32094,-1.23073 -5.28808,-1.42795 -2.37265,1.6727 z m -0.76807,-16.87744 c -2.08541,3.12356 4.00979,3.78908 0,0 z m -107.03369,8.28955 c 0.16859,5.4725 4.52585,11.74636 1.62109,2.87598 -1.15431,-0.11731 -0.31749,-3.23521 -1.62109,-2.87598 z M 518.94531,282.5415 c -3.48603,4.18817 4.03478,1.80233 0,0 z m -122.77685,-0.28418 c -0.77466,2.29269 1.35154,2.52426 0,0 z m 38.36035,0.63233 c 6.94857,-2.01462 3.325,-12.70449 -1.86377,-3.90528 -5.04373,0.64522 -7.48539,7.39719 -0.75147,5.18996 1.02743,1.7535 2.76222,0.16438 2.61524,-1.28468 z m 0.75488,-10.05274 c 0.18896,0.34385 -0.376,-0.11386 0,0 z m 1.15039,0.94776 c 7.59416,5.60183 -1.10574,-4.78146 0,0 z m -5.43213,-1.74512 c 5.84572,2.10269 -6.91495,2.19172 -1.67627,4.84625 0.65406,2.0203 12.14052,-6.58417 1.67627,-4.84625 z m 6.00147,-0.27539 c -1.94896,1.23665 2.16775,-1.60513 0,0 z m -40.90869,2.48682 c -1.66916,4.38606 1.29053,9.62789 1.39489,1.84601 -0.33842,-2.10826 -1.43238,1.27422 -1.39489,-1.84601 z m 42.2539,-3.39698 c 2.80352,-2.40322 -2.46088,-1.56342 2.8e-4,0 z m -3.85986,-1.75488 c 4.23193,3.34711 3.13558,-6.89477 0,0 z m 3.3623,-0.43359 c 2.80099,-1.12281 -0.93468,-4.00672 0,0 z m -41.74902,3.2207 c 1.81726,-2.80406 -0.26652,-2.97398 0,0 z m 4.60156,-8.42676 c -1.04275,4.8433 -5.63609,14.9723 -0.36724,5.58374 0.6732,-1.43244 2.14726,-4.46237 0.36724,-5.58374 z m 118.26416,3.4458 c 0.85839,-2.97836 5.34935,-14.97198 0.36072,-13.4165 -0.10659,4.40063 -1.11784,8.9995 -0.36072,13.4165 z m -21.03222,-22.41748 c 0.98946,3.15706 3.55072,-1.25054 0,0 z m 19.42773,-2.26904 c 0.30965,2.30623 5.47732,15.63142 3.21551,6.21712 -0.97873,-2.09903 -1.57843,-4.50091 -3.21551,-6.21712 z m -7.17871,-2.11426 c -4.79168,0.84214 4.47796,10.78492 6.63379,9.25733 0.82136,-3.84266 -2.48408,-8.83294 -6.63379,-9.25733 z m -36.13184,1.79639 c -3.45154,2.58574 -2.37377,8.19553 0.96143,1.01441 1.07866,-1.26957 -0.47397,-0.78746 -0.96143,-1.01441 z m 40.25293,-4.92578 c 0.83976,3.02488 4.7586,5.35112 0,0 z m -54.45898,6.98828 c 0.31439,5.32506 -10.76743,2.15944 -9.49822,7.67786 -3.04285,5.54037 2.37891,7.87096 4.32535,7.63214 4.11898,1.47 3.11562,8.8886 7.96928,7.03662 2.13801,0.0817 -2.90408,4.4657 0.67382,6.2456 -0.34587,1.78998 -10.34445,4.95442 -5.26754,4.67626 2.79538,1.60351 10.61157,1.3764 9.63816,4.25928 3.54059,-0.62588 -5.12152,0.55224 1.37976,0.94343 5.68661,0.0937 8.76833,3.21335 0.86793,0.35092 -9.33706,-1.83639 2.66604,2.88459 1.49074,2.6952 -2.76466,0.82062 -7.15982,4.04854 -6.42152,4.00069 3.09482,1.9628 4.35999,9.16936 0.29932,5.22998 -4.44579,-0.40482 5.48462,-2.44353 -1.33984,-3.95264 -3.68952,0.33039 -6.64709,-2.24605 -6.10736,0.54682 -0.17977,5.90489 -3.33112,12.08893 -3.30429,17.15031 1.50331,2.2347 4.46781,-1.68954 6.06645,3.62266 4.4574,-1.78613 -2.67333,-16.13126 1.88819,-12.91308 -1.46,4.76113 2.52663,6.87596 5.61572,3.4375 -4.13796,3.37845 0.22901,8.27396 -6.32715,10.68506 -4.01053,1.80114 -5.02537,-7.22237 -4.09546,0.50518 -3.36605,3.75938 -7.11968,5.72819 -10.33614,6.59748 9.27577,6.57778 -10.90318,0.25689 -4.74267,8.62487 6.7361,4.34803 10.09473,-4.46389 15.92817,-5.05931 2.35697,-0.44573 12.3968,1.80432 6.37207,3.76434 6.70674,-1.77176 3.10206,-4.31917 -2.0586,-5.72755 3.55147,-2.16908 11.05069,4.94381 11.62158,1.9795 3.77508,-1.31079 -2.98138,-1.96385 2.72754,-3.92432 1.12829,6.87459 13.67069,-9.10917 9.45239,2.3873 -6.04004,3.99233 -12.52617,7.51012 -18.46117,8.96399 -4.76795,0.80017 -4.64541,-0.0201 -6.06656,-2.59247 -5.82195,0.46291 -11.77381,3.07688 -17.495,1.78412 -5.63329,4.95993 -15.78799,2.82045 -17.46214,11.1245 2.53717,6.57518 10.23105,11.19434 17.63697,10.73768 5.89536,0.83825 11.70879,-1.19383 17.44365,0.27765 6.16497,-2.00429 1.16631,6.60317 9.22252,5.19102 6.18002,2.6364 -3.11547,9.73117 6.14631,9.90893 4.79401,3.01342 11.75363,6.95961 17.24385,3.39515 7.17458,-3.639 14.5954,-7.93957 17.18193,-16.20424 -0.12175,-4.07718 3.69066,-6.8337 0.58622,-8.96147 6.88602,-6.44421 2.98722,-10.39753 -2.04602,-12.19721 0.8705,-6.36716 6.50922,-15.06487 1.94417,-20.66257 -2.54796,4.7334 -4.44875,9.61708 -9.893,10.50222 -3.23555,3.01337 -18.85097,0.74545 -10.98321,-2.38388 4.0413,-0.98035 9.60226,1.28421 11.9464,-2.58753 1.68505,-4.52629 4.94694,-10.5726 2.32915,-14.92169 -2.89843,1.33092 -5.91716,10.51481 -8.06083,6.28943 6.59402,-2.34163 6.85485,-10.14716 10.89715,-14.84505 -0.37238,-3.57036 12.57634,-4.44106 8.25946,-10.96471 -4.40259,-2.92594 -8.67581,-12.23865 -3.34125,-16.3873 -2.47872,-4.02252 8.9668,-7.07786 3.72247,-11.46652 -0.31976,3.73997 -3.91783,9.4564 -3.68489,2.00617 1.2317,-6.2633 -5.53314,-6.93495 -5.72839,-1.44056 -2.34264,-3.12687 0.84147,-3.1911 -3.96876,-5.80196 -3.64293,-8.86177 -11.74534,-1.8086 -12.07727,-1.31463 1.56749,4.90262 -4.4155,-2.69081 -2.07027,-5.85694 -3.18261,-1.3549 -3.70894,4.53631 -7.99219,0.0596 -4.47118,-1.81773 -12.00786,2.53492 -6.90625,6.53224 -5.9423,2.39705 -11.32412,-3.62607 -15.07223,-1.14444 -7.79702,2.37998 10.99863,-7.44662 2.76983,-7.93408 -0.6959,1.21151 -2.80752,0.66867 -2.83833,2.4225 z m 13.78223,-4.7832 c 3.17812,5.21601 8.32432,-0.9981 0,0 z m 4.39746,0.65673 c 3.47433,-2.43106 14.53279,3.95525 9.40365,0.56806 -1.90496,-1.71517 -8.78635,-6.68906 -9.40365,-0.56806 z m 27.44336,-5.74755 c 3.24945,6.08775 9.70453,4.73359 4.28711,-0.38379 -3.12818,2.17017 1.79433,5.57957 -3.31263,0.57623 z m 5.63476,-1.29297 c 2.38445,4.60163 3.46153,2.20424 0,0 z m -96.14941,9.54638 c 4.48925,0.13214 9.74755,2.79604 1.88428,1.6699 -6.55781,-1.05837 -13.80068,0.26565 -16.47266,7.78417 -3.52109,5.61149 -12.99454,8.83047 -11.50928,16.14112 -5.91856,3.52948 -6.47484,-7.36732 -8.96118,-6.5036 -3.1815,-0.0782 -8.85011,6.168 -10.65207,10.14647 0.0613,7.92335 -6.30458,9.37901 -11.9678,5.10272 -4.57101,0.28238 -6.68001,-8.64822 -11.39258,-5.94144 2.67547,5.04797 -3.27383,2.50415 -2.96246,-1.8424 -1.38811,-1.71964 -7.81009,-1.02053 -8.68237,4.4944 -1.51247,6.12767 -2.26824,12.35718 -0.6487,18.53395 1.2407,5.73098 0.67349,-11.51502 3.39788,-7.87437 2.57844,-1.15519 5.64594,14.20525 6.24133,3.4809 2.81423,4.91553 5.13828,10.57393 6.15518,5.82908 -0.20423,5.40187 4.69641,6.72907 4.75128,12.41957 1.64022,9.63498 5.66693,1.28086 4.99634,2.78943 0.74554,7.0713 7.32197,13.63314 13.68909,15.55475 5.58776,-0.14569 7.8274,8.94333 13.30745,10.53009 5.78303,-0.0177 9.51526,-1.10437 15.17079,1.70852 2.24625,-4.34466 -5.06548,-10.02368 -7.4871,-14.73968 0.47928,-3.32087 -7.70232,-11.05986 -2.37066,-6.49362 -0.73185,-3.64878 -5.24375,-5.43366 -0.76115,-4.17764 0.83254,-7.06814 -2.50216,-14.51154 -0.97741,-22.00798 -1.48321,-3.91705 0.58772,-9.52126 -1.41254,-11.66697 3.47778,0.72542 -1.48167,-7.81172 1.59089,-10.89427 0.70679,-5.90833 7.94683,-1.59244 8.12763,-8.46649 6.5446,9.92459 1.37671,-14.29852 10.63379,-4.76318 3.96122,5.26084 -3.64872,13.51873 -5.40187,15.60932 6.23447,-1.23661 9.33438,6.65571 13.5982,10.78635 3.16785,0.20963 2.54417,-4.0653 3.70269,2.07986 3.61401,1.83277 7.81953,-7.39189 7.02449,-8.56276 -5.3414,-0.37842 -6.82298,-1.53226 -1.30556,-4.25029 6.10685,-4.15397 1.19445,6.70361 6.64618,2.65489 7.41798,-0.0892 -0.44226,0.0604 1.63083,-4.35009 4.63163,-2.67498 9.6832,-5.014 11.87622,-9.2109 0.24689,-1.60989 0.54836,-4.33091 0.43383,-5.55663 1.08576,-2.12126 -6.24645,8.18413 -10.67993,2.2572 -5.10874,-3.00282 -4.62769,-12.26119 -12.61366,-11.41614 -2.07266,-0.6744 -7.09637,-3.33284 -8.59939,-0.85424 z m 92.82715,-13.58398 c 2.02894,3.14798 6.90483,4.27091 1.54529,0.94519 z m -10.39942,-5.24121 c -0.11676,0.14168 6.87845,6.74546 2.29395,0.58251 -4.1582,-3.05743 -1.16021,-6.02907 -5.94922,-7.74317 -3.76845,3.08871 1.72508,5.2981 3.65527,7.16066 z m 33.67578,-0.26319 c -2.72292,-6.63483 -9.07474,-10.85536 -14.49316,-15.25293 -4.21578,-3.18896 -8.51961,-7.83199 -10.54065,-11.14062 -3.6902,-4.63821 -10.18411,-9.09098 -16.32519,-8.8152 -13.03905,0.70068 0.95794,8.77517 2.71887,13.84578 0.4728,4.21886 12.67056,1.75753 8.21924,6.75116 4.44897,4.22874 9.18037,5.43158 13.45764,9.46655 5.65228,0.12419 13.99562,16.10307 15.59314,4.61154 l 0.72497,0.16468 0.64514,0.36901 z M 499.3584,189.44482 c -2.77343,-6.27084 -8.95929,-2.46844 0,0 z M 448.479,178.5083 c 5.33613,0.17394 8.01278,3.89666 7.16337,-0.57713 -1.44719,-2.35827 -5.72541,-1.7726 -7.16337,0.57713 z m 7.875,-3.59668 c -4.6722,4.71281 20.66146,-0.78175 8.47083,-1.56536 -2.91447,0.33798 -5.4497,1.84006 -8.47083,1.56536 z m -27.58691,222.66113 c -5.40366,-1.14807 -18.06437,-3.86699 -5.28661,-1.14292 1.76225,0.38074 3.52868,0.74234 5.28661,1.14292 z"
         id="path75"
         inkscape:connector-curvature="0" />
    </g>
  </g>
</svg>
