<svg height="128" viewBox="0 0 127.99999 128" width="128" xmlns="http://www.w3.org/2000/svg" xmlns:xlink="http://www.w3.org/1999/xlink"><linearGradient id="a" gradientUnits="userSpaceOnUse" x1="74.51730605507" x2="74.99917203964" y1="32.14880619175" y2="102.00432061673"><stop offset="0" stop-color="#48bef0"/><stop offset="1" stop-color="#1532b9" stop-opacity=".929412"/></linearGradient><path d="m13.698495 100.03384c31.925992-14.610474 65.784337 21.74941 108.995175-2.467251l-.48176-75.636678c-20.60702 24.304455-75.394093-8.799199-107.91476 3.854086z" fill="url(#a)"/><path d="m7.6500321 24.930823v96.836937h6.8217539v-96.836937z" fill="#d1d1d1"/><path d="m7.6500321 24.930823v96.836937h1.7118965v-96.836937z" fill="#7e7e7e"/><path d="m12.75989 24.930823v96.836937h1.711896v-96.836937z" fill="#7e7e7e"/><g fill="#fff" transform="matrix(.16410076331 0 0 .16410076331 -5.356388169 14.29864432605)"><g><path d="m569.38574 394.10937c-10.77441 2.88526-22.27148 3.81299-32.73535 7.38135 17.72266-15.1958 16.71094-38.70849 28.53516-56.60595 3.7666-5.06739 6.87988-10.37891 11.2705-15.1875-7.19238 14.42773-4.07324 33.14648-12.33593 47.14746-3.18067 5.56152-7.72949 10.95703-12.75977 15.32519 1.64356-.0615 3.08203-1.48437 4.52735-2.43457 13.42089-13.39258 30.9541-17.13769 45.47168-28.01855 5.81542-4.63379 11.1416-10.70606 13.69824-17.27344-2.74707 22.21973-24.85254 43.0459-45.67188 49.66601z"/><path d="m617.73535 304.14551c-6.5664 9.34375-14.50976 18.04199-20.57617 27.53808.67676-7.51855 1.56738-16.76367-1.36133-23.88574-5.07519-15.33691-9.53418-30.90918-10.97265-47.74121l.19824-6.43652c3.81933 17.18945 20.70508 29.00586 19.63965 48.28711.38671 4.67285-1.0586 8.6455-1.9336 12.75488l.29004.30371.76074-.85254c2.50391-9.45801 3.76758-19.40332 7.66114-28.22754 5.5332-12.69824 12.44238-25.51367 9.62695-40.8457 8.41601 18.07617 5.86621 42.22754-3.33301 59.10547z"/><path d="m607.37109 206.75781c11.07227 15.00537 13.49903 38.91797 5.43457 56.12989-3.00586 7.29394-5.1289 15.0664-6.30957 23.13964-.56347-1.39257-.69238-3.26464-1.19531-4.8164-4.4043-16.84766-20.33789-28.85449-26.89062-44.73877-2.07813-5.19434-3.84961-10.56153-4.83204-16.2002 7.00196 12.9502 24.25782 19.63916 28.96094 33.91065 1.92676 3.60937 1.81836 8.11914 3.01367 12 .25098 0 .50196-.18653.50196-.44141-2.07032-14.70117-1.43848-30.0874.55664-44.60596-.11524-7.86425-.88281-15.49267-5.25196-21.58007 2.80176 1.63232 4.06348 4.76757 6.01172 7.20263z"/><path d="m599.56445 203.87744c2.90821 13.14893-1.33984 25.95459 1.33203 39.22998l-.0996.11426c-7.15333-14.06641-22.33985-20.70508-32.78907-31.96338-6.05566-6.68066-8.68847-14.82275-10.20312-23.44385 5.9873 14.43457 22.14355 17.61524 31.41894 29.77881 3.10352 2.8042 4.11621 6.68897 6.11719 9.86914l.32715-.31592c-5.33399-11.38671-7.1211-24.20117-10.84277-36.34521-1.86329-5.26221-5.56153-10.43262-10.52344-13.75049 12.17578 2.48828 22.72851 15.19971 25.26269 26.82666z"/><path d="m567.01172 173.72168c9.16992 8.20703 13.31738 18.8335 15.99512 29.84375l1.51464 3.49658c-13.30957-9.57226-25.40039-22.43994-33.89941-36.02978l-10.37988-10.50098c9.125 3.86914 18.96289 6.17871 26.76953 13.19043z"/><path d="m356.80566 162.27393c-9.20019 8.06543-15.58105 18.26562-22.40625 27.77734-6.11816 7.57519-13.94433 12.57031-20.87988 19.08447 3.74414-7.76172 3.88086-17.0332 9.19141-24.16308 7.55664-13.1836 21.56933-17.82178 34.09472-22.69873z"/><path d="m306.49219 190.35986c4.47461-5.5625 10.14746-9.42822 16.53125-11.06054-12.39551 8.51513-11.58887 23.7749-15.51856 36.46045-1.25293 4.69091-3.42871 9.01269-4.51269 13.82128l.31543.25098c2.0625-5.43603 5.6875-10.57226 10.21191-15.00781 8.80371-8.12695 21.82715-13.1919 26.1416-25.21387-.19726 16.70606-14.13379 29.83985-27.46875 39.22901-5.49902 4.82421-10.80175 10.32226-13.83008 16.52392-.29687-4.21484.62305-8.44678.32325-12.96191-1.4502-14.5835-2.50391-31.22901 7.80664-42.04151z"/><path d="m281.41211 240.22754c-.37305-14.77832 5.76074-26.8418 14.4043-37.85303.25097-.12549.42968-.37646.75293-.31592-9.51465 14.4585-1.64356 32.67041-2.07715 49.11036l-1.25489 16.83203c.18653.12207.18653.62793.62793.43359.5625-1.87598.68457-3.88086 1.06055-5.81055 2.24121-13.57714 14.03223-23.21093 24.33106-32.59375 2.19921-2.4541 4.14355-4.9458 5.27343-7.82568-.84082 6.76025-2.95996 13.57861-5.76464 19.83057-8.01563 15.63183-22.82325 28.458-25.52833 46.35449-1.3125-17.15039-12.98925-29.97266-11.82519-48.16211z"/><path d="m274.21387 261.24316c1.06543-4.62207 1.87988-9.40527 3.8916-13.64648-3.81152 19.53711 9.3291 33.61426 13.63965 50.54883 1.80371 6.33398 2.24511 13.13672 4.82422 19.08008.24023.12988.44921-.1211.59765-.31153-6.41797-17.98926 2.84668-34.70605 12.15625-48.79101 2.26367-3.81641 3.56836-8.06641 4.69434-12.45313.98926 8.1416-1.06934 17.51758-2.25195 25.9707-2.26368 10.75586-5.64258 20.95606-8.58399 31.39258-1.93555 6.52149-1.42676 13.87891-.43262 20.71192l-.93261-.74512c-6.8252-12.58594-20.33985-22.40234-24.35352-36.15234-3.30273-10.96192-5.49805-23.66016-3.24902-35.6045z"/><path d="m273.59766 299.40137c1.50293 20.708 23.77148 31.65039 34.09375 48.79394 2.44238 3.50781 4.56152 7.38867 7.82519 10.3252-.50976-2.20606-2.56836-4.0625-3.32422-6.32227-3.61133-7.19043-4.92773-15.75879-4.05957-24.44922 1-10.57714 5.43653-20.39257 3.74317-31.51757 9.07031 19.55664 6.31543 43.96679 11.38672 65.1582 1.32812 4.63476 4.01074 8.77344 5.76855 13.20312-18.63574-12.69238-44.04687-24.76855-52.31445-48.03027-3.48438-8.02051-3.87305-17.9502-3.11914-27.16113z"/><path d="m284.72949 346.95508c10.39063 23.50586 36.41406 25.45312 53.86231 39.7666 3.21093 2.8457 6.57519 5.26562 10.20019 6.9541l.18653-.18945c-4.00586-3.62207-8.63965-7.74707-11.44434-12.44141-10.21191-14.19922-6.62012-34.08984-14.27148-49.36133 6.95214 8.31641 13.27441 16.96094 17.47167 26.39551 6.24317 15.40137 8.62891 32.79688 23.0752 44.43897-15.63379-5.15235-33.94922-3.71289-47.74805-13.33936-15.0664-9.25976-28.51269-24.96582-31.33203-42.22363z"/><path d="m311.43457 390.80664c16.66016 18.94775 43.88281 12.62549 66.0752 17.58447 3.13476.42774 6.0039 1.6836 9.32617 1.17383-2.64551-1.67383-6.31641-1.49219-9.2041-3.01367-17.39551-6.11133-19.94727-24.94385-29.39063-37.64307 12.06445 8.01172 22.20703 18.81739 33.33692 29.2876 8 7.00781 17.62988 10.24219 27.77636 12.30469-2.43847.89062-5.63476.64648-8.25195 1.33203-18.22852 4.48242-38.48047 11.80859-57.81152 5.25-12.56739-3.95703-25.53321-13.89453-31.85645-26.27588z"/><path d="m537.55664 434.97314c-18.77344 7.00586-38.36621-.32031-53.0293-11.43945-5.93652-3.77344-11.16992-9.20703-18.84863-8.72656-2.78516-.0527-5.4707.084-7.83789.76758 14.24512 6.6289 27.47754 15.76758 39.57617 27.45508-2.03906 2.32812-4.67969 4.50585-7.16699 6.51367-11.65918-12.5625-24.57129-24.6543-39.02832-31.7168-2.83105.36719-5.52441 2.07031-8.07715 3.44141-11.76953 7.4414-23.40723 17.01367-32.15723 28.73242l-7.51855-6.20899c12-12.13867 25.27344-21.58789 39.79395-28.33789-14.26856-4.51953-23.58204 7.4336-34.41309 13.51368-12.62109 8.8125-30.77246 12.95117-46.02539 6.87109-8.20313-3.11133-16.15039-7.69336-22.08984-15.14063 12.0039 8.26954 29.88183 9.13672 43.5332 3.76563 18.31836-7.94531 37.35351-18.01758 59.43652-13.20117 3.44629.0605 6.79492 3.49218 10.05078.57031 16.41309-4.26172 34.99512-1.33203 49.12598 6.16992l14.56445 5.83789c13.53711 5.00586 31.03907 3.6211 42.64258-4.62695-5.96582 7.42578-14.11523 12.74609-22.53125 15.75976z"/><path d="m557.6748 415.57471c-21.07812 7.95898-42.2832-1.81055-62.47949-5.07422l-3.88867-.49414v-.12305c9.65723-2.19141 19.03125-5.06641 26.71777-12.00586 11.32129-10.88232 21.39551-22.08349 33.96778-30.65869-9.32324 11.9541-10.31153 28.96924-25.71289 36.65479-3.81153 2.49414-8.62207 2.93554-12.55567 4.82421 5.60938.1211 10.74512-1.88867 16.29981-2.45117 20.65234-3.24219 44.27832.084 58.7666-17.50928-5.37891 12.25928-18.84961 22.52491-31.11524 26.83741z"/><path d="m595.97266 356.26855c-8.32422 5.44825-16.76172 10.50098-24.76075 16.69532v-.76075c12.25196-20.3623 6.2627-48.33496 13.81153-70.74414l2.81543-7.50683c-1.5752 13.95996 4.48828 25.78515 4.0625 39.79297-.42578 8.46191-3.1875 15.96484-7.63086 22.72168h.75293c6.00293-7.88379 10.69043-16.26856 17.70605-23.77832 10.88965-10.50098 21.96094-21.26856 23.39063-35.84082 3.69824 24.32714-9.95215 45.64843-30.14746 59.42089z"/></g><g><g fill-rule="evenodd"><path d="m448.11182 398.07471v-94.82227h3.77685v94.82227z"/><path d="m360.50781 360.93652 67.10157-66.99707 2.66796 2.67139-67.10156 66.99902z"/><path d="m326.37109 274.07227 94.82422.11377-.00586 3.77636-94.82226-.11328z"/><path d="m363.15674 188.83838 67.04101 67.05957-2.67187 2.66943-67.04053-67.05957z"/><path d="m451.93408 153.28662-.08691 94.82324-3.77686-.00293.08692-94.82422z"/><path d="m537.96484 190.19482-67.14013 66.96045-2.66797-2.67382 67.14014-66.95997z"/><path d="m572.97168 278.14014-94.82422.11914-.00391-3.77637 94.82129-.11914z"/><path d="m534.30566 364.55225-67.10644-66.99317 2.66797-2.67383 67.10644 66.99366z"/><path d="m485.36328 181.18359c52.22656 19.52198 78.76856 77.75 59.2461 129.97364-19.52247 52.22363-77.75049 78.76611-129.97217 59.24365-52.22559-19.521-78.76416-77.74805-59.24561-129.97266 19.52295-52.22461 77.75-78.76513 129.97168-59.24463zm-1.52832 4.09473c49.96289 18.67676 75.35547 74.38477 56.68066 124.34814-18.67578 49.96485-74.3872 75.35645-124.3496 56.67969-49.9629-18.6748-75.3545-74.38379-56.67969-124.34765 18.67676-49.96338 74.38574-75.35596 124.34863-56.68018z"/><path d="m477.26172 202.86133c40.26074 15.04883 60.71777 59.93506 45.67187 100.19385-15.0498 40.2583-59.93847 60.71777-100.19433 45.66992-40.25635-15.04785-60.71778-59.93604-45.66992-100.19434 15.04785-40.25781 59.93603-60.71777 100.19238-45.66943zm-1.53613 4.11816c37.98242 14.19824 57.28906 56.55225 43.09082 94.5376-14.19825 37.98584-56.55518 57.29102-94.53711 43.09082-37.98584-14.19824-57.29297-56.55273-43.09278-94.5376 14.2002-37.98584 56.55274-57.29101 94.53907-43.09082z"/><path d="m469.40186 223.88623c28.65478 10.71045 43.2163 42.65723 32.50732 71.30957-10.71387 28.65186-42.66016 43.21533-71.31055 32.50391-28.65381-10.71094-43.21533-42.65723-32.5039-71.30908 10.71093-28.65186 42.65722-43.21436 71.30713-32.5044zm-1.40772 3.76856c26.57324 9.9331 40.0791 39.56054 30.14551 66.1333-9.93457 26.57226-39.56055 40.07617-66.1333 30.14306-26.57227-9.93164-40.07617-39.56006-30.14453-66.13281 9.9331-26.57129 39.55957-40.07617 66.13232-30.14355z"/><path d="m460.56201 247.53662c15.59815 5.83057 23.52588 23.2207 17.69483 38.81934-5.83106 15.59619-23.21973 23.52441-38.81836 17.69287-15.59815-5.82959-23.52442-23.21973-17.69483-38.81836 5.83155-15.59717 23.22364-23.52442 38.81836-17.69385zm-1.5249 4.07666c13.35059 4.98926 20.13184 19.87158 15.14453 33.21924-4.9917 13.34717-19.87109 20.12988-33.21777 15.14062-13.34912-4.98925-20.13184-19.8706-15.14453-33.21875 4.99121-13.34765 19.87451-20.13085 33.21777-15.14111z"/><path d="m508.91309 166.20703c61.08496 33.61572 84.2705 109.99317 51.74902 170.48242-32.51758 60.4917-108.48975 82.3042-169.57422 48.68897-61.08398-33.61475-84.27002-109.99317-51.74853-170.4834 32.51953-60.49121 108.48876-82.30322 169.57373-48.68799zm-2.1377 3.97998c58.86719 32.39453 81.20898 105.99707 49.86816 164.29248-31.33691 58.29346-104.55078 79.31494-163.41552 46.91992-58.86865-32.39648-81.21045-105.99902-49.87012-164.29345 31.33691-58.29444 104.5498-79.31446 163.41748-46.91895z"/></g><path d="m523.73633 334.3999c.0713.64893-.15137 2.2461.15137 2.6128.31347.49755 1.48339.3916 1.99023.21582 1.38477-.52051 2.76269-2.3501 3.40234-3.72168.4502-.69629.75293-1.51172.6543-2.42383l-.96875-2.93457c-.24219-1.0293-.56738-2.83838-1.66504-3.26563.10254-.27246.4502-.69824.40918-1.08838-.25391-1.15966-2.19141-.85498-2.88379-.003-.34863.42578-.25 1.33544-.32519 1.86718-.0195 1.0542-.31446 3.18262-.73438 4.14014-.41992.95557-1.59668 2.24414-1.6123 3.29785.083.7793.91992 1.22998 1.58203 1.30371zm-64.47998-8.1416.34424.75684c.0151.13037.17041.37841.30273.36718.87793.8418 2.10791-1.10888.63965-1.37011-.13233.0112-.40479-.0967-.52197.0454-.25733.0244-.51856.0474-.76465.20068zm.97265-1.92627c-.59423.57715-.81005.9917.15528 1.43018zm-15.65918-11.46973c-.95361.87207-.88134.34229-1.36962.64893-.36329.29297-.0605.66016-.39356 1.21631-.10254.27246-.48047.4375-.45019.69824-.0874.40137.3291.62647.73388.72119.53369.083 2.09278-.0552 2.58057-.36133.48096-.4375.2915-.94628.51123-1.36084.11719-.1416.34814-.42529.46533-.56738.0566-.66211-1.33984-1.45703-2.07764-.99512zm37.6001-4.03027.13965 1.29981-.15137 1.06543c1.41504-.25928 2.28614-.73047 3.542-1.2378.375-.16455 1.12402-.4956 1.41503-.25879.417.22705.19727.63916.0947.91162-.2041.54297-1.01367 1.53663-1.3623 1.96241-1.05567 1.14453-2.61426 1.28466-3.93164 2.4541-.70801.7207-.89649 1.39404-1.6084 2.11523-.70703.71875-1.21485.89698-1.57813 1.1919-.34765.42578-.0566.66211-.79394 1.12207l.41992-.95557c-.40137-.0967-.92383-.0493-1.22656-.41797-.16993-.37646-.21192-.76855-.125-1.16943.17871-.8042.34082-2.92139.80664-3.48926.11718-.1416 1.12793-.4956 1.50195-.66016l-.17383.8042c.38965-.0342 1.03711-.0928 1.28223-.24609.63672-.18896 1.27539-1.56103 1.6084-2.11523l-1.7627.6831c.30664-.81543 1.17676-2.46924 1.90332-3.05957zm-34.85644 3.91455c-.26465 1.20752.47314.74561.91943 1.23194.2876.23632.32959.62646.37109 1.01806l-1.02539.22315-.45068.69629-.5791.70947 1.75976.49951c-.88134.34082-1.41504.25732-1.979 1.09766l2.20605-.19873c1.4419.002 2.52442.29882 3.88282-.48096l-.2876-.23633.39355-1.21826-.97998-.56787-.34472-.75684-1.64991-1.95459-.54834-.21387c.46534-.56738 1.40381-1.57226.064-1.84472l-.66211-.0718.5791-.70947c-.79492-.0586-1.45703-.13086-2.05127.44824-.69629.84961-.71533 1.90186.38233 2.3291zm-.76807-16.87744-.0303.92139-.30274-.3667.0376 1.57226c.23096.90039 1.24121.54688 1.47217.2627.24609-.15283.31787-.68652.2915-.9458-.0264-.25928-.18555-.50879-.3291-.62647-.27637-.10791-.40527-.0962-.66602-.0737l-.0835-.77929-.38965.0356zm-107.03369 8.28955c-.0513 1.9751.46875 1.92774.90967 3.59668.229.89893-.13233 1.19385.583 2.96875.34424.75879.55616 1.52686 1.37745 1.84668-.23633-2.21191-.50733-3.50049-1.24903-5.53613-.52978-1.26612-.93457-1.36035-1.3623-2.90088zm179.43359-21.61719c-.62011.31787-.83984.73194-.76855 1.38086-.0605.66407.51465 1.13721 1.15039.94825.88183-.34082 1.0332-2.58838-.38184-2.32911zm-122.77685-.28418c-.31983.68702-.38037 1.34913.32519 1.81104-.0698-.64893.11914-1.32471-.32519-1.81104zm38.36035.63233.4331.35547c.95362-.87403 1.15821-1.41895 1.8545-2.26856.57861-.70947.96875-.74365 1.33007-1.03857.23047-.28418.20215-.54492.28907-.94629.20459-.54492.58105-.70947.48437-1.61963.0459-.79248-.4707-1.92822-1.36572-1.7168l-.20068-.63867c-.38965.0347-1.0254.22315-1.38672.51758-.36133.2959-.17627.80469-.65284 1.2417-.5791.70801-1.58935 1.06152-1.83544 1.21484-.37647.16651-.20411.54492-.81348.99365-.85156.60157-1.41358.25733-1.91895.43506-.63574.1875-1.57763 1.1919-2.05468 1.62891-.69629.84961-.89844 1.39453-1.18995 2.34082-.10205.27051-.31982.68457-.16259.93457.15674.24805.54687.21191.79443.0586.50537-.17578 1.61768-.80029 2.02295-.70556.3877-.0361.54639.21338.8208.31982.40332.0942.6626.0718.93652.17774.27246.10791.5752.47461.8628.71142.69092.33106 1.3872-.51855 1.59131-1.06152.10205-.27246.20263-.54492.16113-.93457zm.75488-10.05274.0151.13038-.146-.11817.13086-.0122zm1.15039.94776c.34424.75781 1.61182 1.56299 2.33106 2.15625.2456-.15332.36132-.29541.46338-.5669.31982-.68603.17968-1.98779-.5127-2.31982-.41602-.2251-.92334-.0478-1.29785.1167-.0151-.12988-.18555-.5083-.3291-.62744-1.02198-.95899-2.30078 1.7832-.65479 1.24121zm-5.43213-1.74512c.87598.84082.89112.97022 2.06055.86524-.17822.80419-1.21875 2.08056-2.07031 1.50048-.56006-.34423-.6167-.86474-.88916-.97168-.41797-.22509-.4502.69727-.68116.98047-.55273.96924-1.47558.92139-1.5664 2.50586l.4917-.30859c.49951 1.00683 1.42676-.12647 2.04931-.44531-.11572.14209-.34814.42675-.44873.69726-.0908.40283.34278.75879.71924.59229.37451-.16504.82471-.8628 1.18457-1.15821.36328-.29394.4917-.30566.86817-.47216.36132-.29395.83838-.73096 1.20166-1.02637 1.08593-.88526 1.14062-.36524 1.52099-1.71338-.0303-.25977.0869-.40186.0586-.66211-.51661-1.13623-2.37793-.18066-2.52393-.29785l-.8081-.19141c-.27247-.10693-.7793.0703-1.167.10547zm6.00147-.27539-.64893.0576.17237.37842c.76611-.19971 1.28466-.24707 1.31689-1.16944-.64941.0586-.77979.0698-.84033.7334zm-40.90869 2.48682-.60205 2.94531.26904 1.28857.54101 2.57862c.33301-.5542.93067-2.31592.99122-2.97803l.14794-1.06543c.0454-.7915.14747-1.06299-.19677-1.8208l-.84033.73193-.0513-1.70263-.25879.0225zm42.2539-3.39698c-.083-.78076.0605-.66162.72266-.59033l-.009-1.31299c-.37646.16504-.89502.21241-1.2583.50684-.5791.7085-.50684 1.36035.54492 1.39648zm-3.85986-1.75488.44482.48535c.89502-.21191 1.18262.0244 1.99024.21533l-.31592-.49755.33301-.55518c.77978-.0688.84033-.73242.51123-1.35937-.14404-.11866-.41846-.2251-.56201-.34424-1.39844-.79297-1.53077.40088-1.86377.95605zm3.3623-.43359c.25928-.0234.52051-.0464.76612-.19922.47705-.4375.20849-1.72754-.21192-1.95215-.40283-.0952-.62011.31787-.59179.57813l-.0889.40332.0698.6499.0566.52002zm-41.74902 3.2207c.46338-.56689.62451-1.50146.68506-2.16406-.8667.47314-.7832 1.25293-.68506 2.16406zm4.60156-8.42676c.125 1.17139-.0225 2.23535-.43115 3.32276-.52246 1.22998-1.78271 2.91943-2.04736 4.12451l-.30078-.36719c-.56592.83936-.63037 2.68506-.27051 3.57178.70752-.72022.87012-1.65479 1.30517-2.48194.85743-1.78418 2.00196-3.33154 2.44092-5.34228.0757-.53223.18164-1.98731-.13623-2.48389-.15722-.24902-.2876-.23681-.56006-.34375zm118.26416 3.4458c.68164-.98144.86328-2.96679 1.12403-4.17431.61718-2.81348 1.91894-4.11231 1.54004-7.62598-.083-.78027-.38184-2.33008-1.31641-2.50977-1.45703-.13134-.85938 1.78516-.94629 2.18702.042.39111-.0606.66259-.16309.93506-.63867 1.3706-.33984 2.92041-.31738 4.36328l-.27637 4.75439zm-21.03222-22.41748c.0264.25977.16992.37891.3291.62696.14355.11914.28808.2373.43164.35595.83594.4502 1.27148-.37646.95312-.87451-.15429-.24853-.68847-.33203-.94921-.3081-.25782.0234-.51856.0464-.76465.1997zm19.42773-2.26904c.125 1.17139.59473 3.10059 1.09766 4.10596l1.14648 2.13037 1.35449 4.08252c.69629-.85059.32618-1.86865.0986-2.76758-.58594-1.78662-1.43067-3.55029-2.13379-5.19434-.48828-.87597-.84375-1.76464-1.56348-2.35693zm-7.17871-2.11426-.10547 1.4541-1.77539-.62939c-.0293.92383.38281 2.33154 1.11719 3.05322l1.42578 1.05469c1.15039.94824 2.31641 2.02637 3.34961 3.11523.9082 1.10157.94922 1.49219 1.26367 1.98877.28809.23633.5752.47412.9502.3086.24609-.15332.30664-.81543.4082-1.08789l.43555-.82715c.18945-.67334-.31055-1.6792-.63965-2.30713l-.85938-1.89307c-.35937-.88769-.57519-1.65674-1.17675-2.39062-1.02149-.95947-1.80079-.88965-2.87989-1.1875zm-36.13184 1.79639c-.0762.53271-.12109 1.32568-.75683 1.51367-.12891.0117-.66211-.0718-.80664-.19092l-.49512 1.49024c-.21973.41308-.62842 1.50097-.58301 1.89209-.0605.66113.84766.57959 1.30957.0132.48047-.43701.54102-1.09961.87403-1.65478.53711-1.09913 1.53222-1.5835 1.65332-2.90723l-1.19532-.15625zm40.25293-4.92578c.38672 1.14844.65821 1.25537 1.29102 2.24951.3291.62744.24219 1.0293 1.00586.82959-.45703-.61572-1.73242-2.73486-2.29688-3.0791zm-54.45898 6.98828c-1.45703-.13135-.49561 1.49023-.68506 2.16357-.31787.68604-1.77832 1.73682-2.48584 1.27442-.375.16552-.76465.20068-1.16943.10498-.40137-.0957-.68897-.33203-1.07862-.29688l-2.06982 1.49951c-.36328.29493-.85156.60157-1.37354.64795-.38623.0352-.9082.0811-1.13916.36621-.36328.29395-.019 1.05176.15528 1.43018l.6167.86475c-1.27149.37646-1.17334 1.28662-1.04834 2.45898.0718.6499.32177 2.99219.50732 3.50098.2002.63965 1.05176 1.21972 1.72559 1.4209.41992.22656 1.08203.29736 1.47168.26318l.0908-1.58545.39013-.0342.40088 1.27832c.12891-.0127.38965-.0352.51856-.0474l1.61572.38135c.14404.11816.14404.11816.2876.23632.17041.37842-.14746 1.06446-.10596 1.45508.22705.89844 1.16553 1.07764 1.94531 1.00733-.019 1.05224.083.78076.0225 1.44287.0718.65088-.31787.68603.48438 2.05859.15918.24805.48828.87598.87793.84082.38965-.0347 1.19971-1.02734 2.06641-1.49902.20019.63818.21533.76904.77539 1.11328l-.18897.67334 1.47559-.92041c-.43897 2.00976-1.2749 1.55908-2.18701 2.82324-.32178.68652-.1211 1.3252-.31055 1.99902l.14404.11817.4917-.30664.375-.16455c1.15381-.23584.25733 1.15869.28369 1.41894.0415.39112.31787.49658.59033.60449l-.60937.44776.35937.88818-2.33837.20996c-1.1543.23487-2.11182 1.10889-3.08057 1.85254l.0303.26026.40137.0952-2.24023 1.12109c.67724.20069 1.55908-.14013 2.20996-.19873.63574-.18896.51855-.0454 1.28662-.24756l.41601.22706-.0757.53173 2.85351.9253c.67725.20215 1.16944-.1045 1.58936.12109.56006.34424.37061 1.01758 1.30908 1.19531 1.07862.29737 1.93408-.3042 2.82715-.51611l-1.05615 1.14648.48828.87598 1.27148-.37646c-.94238 1.00293-.89697.21191-2.71337.37451.4165.2251 1.6538.77002 1.93017.87793.67725.20263 1.03662-.0947 1.99024.21582.80615.18896 1.78613.75879 2.04736-.44873.15869.25.31787.49804.46142.61718.417.2251.67774.20215 1.08301.29688.53321.0835 1.79688.88916 1.74024 1.55176-.11719.1416-.23438.28369-.34766.42578-.1748-.38037-.34473-.75684-.64746-1.12402-.74512-.85352-1.88867-.48829-2.82666-.66797l-1.88867-.48633-1.45655-.13233c-.79101-.0605-1.23779-.54492-2.01709-.47509-.26123.023-.63574.1875-.60546.44824.0264.25928.31396.49805.458.61523.83594.4502.53321.083 1.80127.88916.70362.46192.94971.3086 1.62696.51075l.69238.333c.53369.0835.63574-.18896 1.16943-.10595.25733-.0225.79102.0605 1.0669.16845l-2.25489.98975-1.72949-.23828c.34424.75683.48828.87598-.0908 1.58349l-.31787-.4956c-.34814.42383-.31787.68506-.66601 1.11035l-.57911.70801c-.10205.27246-.45019.69824-.71142.7207-.38965.0361-.83252-.45019-1.12403-.68652-.56005-.34473-.8208-.32178-1.45654-.13281.47656.7456.72266.59228 1.41113.92334.56397.34423 2.00196 1.5288 2.44873 2.01513-.13281.0112-.26123.0229-.36328.29541-.23095.28369.0225 1.44336.3252 1.8086.2876.23828.56396.34423.94971.31054l-1.54737 1.45313c.67725.20019.92334.0474 1.49854.52197l-1.29834.11524-1.71387-1.29004-1.78613-.76075c.66601.0718 1.71777.10987 2.33838-.20996 1.11279-.62451.583-1.89013-.27979-2.60156-.56006-.34473-.95019-.30859-1.6123-.38037-.53369-.0835-1.3545-.40479-1.87696-.35791l-1.41504.25928.0908-.40284c-.40527-.0947-.54882-.21386-.9121.0815-.43165-.35596-.44288-.48438-.97657-.56787l.0684.64892-.59033-.60351-.0566.66211c-.31787-.49756-.33301-.62598-.87793-.83985l.43897 1.66699-.21583.41407c-.72265.59033-.71533 1.90381-.62841 2.68506.1665 1.56103-.18164 1.98681-.31397 3.18066-.0342.92139.26856 1.28857.019 2.62598-.0718.53173-.56787 2.02099-.7871 2.43554l-.57911.70752-.43505.82666c-.21973.41455-.57911.70948-.79834 1.12403-.20459.54297.083.78125.24218 1.02929.21533.76807-.333.5542.57129 1.65723l-.46191.56592.51855-.0474c-.2915.94629.29883 1.55176 1.1919 1.33985.63574-.18945 1.33203-1.03906 1.52148-1.71436l.26123-.0229 1.74805 2.86475c.30273.36719.37451 1.01807.9082 1.10107.53369.0835.73438-.45947.95362-.87402.23095-.28369.47705-.43701.70751-.7207.32178-.68506-.31005-1.68018-.24951-2.34278.0718-.53125.43506-.82666.49561-1.48877-.0981-.91015-.77588-1.11279-1.22217-1.59912-.44678-.48437-.49951-1.00439-.57129-1.65527-.15527-1.43262.58252-1.89209.71875-3.08594.0454-.79297-.40088-1.27734-.45801-1.79931-.0415-.39014.0454-.79102.43555-.82715.89649-.21192 1.00635.83056 1.07813 1.47998l-.1211 1.32422c-.0718.53369-.29101.94629-.21924 1.59668.18555.50927.48828.87646.65821 1.25488.30273.3667.34472.75879.63232.99512.27246.10595.41602.22314.67725.20068.27246.10791.54492.21338.80615.19092.63574-.18945 1.29004-1.43067 1.89551-1.87695.36328-.29688.89697-.21192 1.28662-.24805-.21924.41455-.79834 1.12402-1.0293 1.40625-.4917.30615-1.38867.51806-1.43408 1.31103-.27637 1.07666 1.15039.94776 1.12012 1.86914-.0605.6626-1.0669-.1665-1.37354.64893-.43506.82715.14014 1.30225.34033 1.94141.042.39013-.17382.80224-.26465 1.20556-.54882.96875-1.01025.35352-1.74853.81348-.62061.31982-1.30176 1.2998-1.9375 1.48926-.50293.17578-.93848-.18018-1.32813-.146-.51855.0474-.95361.87598-1.8164.16455-.87793-.8418.12109-1.32422-.0947-2.09424l-.52978-1.26611c-.7378.45996-1.46045 1.05225-1.21827 2.08154.35938.88526 1.22217 1.59668.77198 2.29297-.36328.29541-1.14307.36524-1.74854.81397-.73779.46142-1.50586 1.84277-1.75195 1.99804-.36328.29493-.75293.32911-1.11231.62403l-1.30566 1.2998c-.11377.14209-.11377.14209-.23096.28418l-1.62695-.51123.0981.91016c-.65087.0586-.65087.0586-1.18457-.0244-.40087-.0967-1.1958-.15527-1.3999.3877-.21972.41455.8628.71142 1.13916.81738 1.65332.77197 1.97901 2.58106 1.27149 3.30371-.47705.43506-1.29834.11524-1.83155.0322-1.1997-.15527-3.08789-.64356-4.26855-.66797-1.55957.13818-1.05957 1.14453-1.36231 1.96045-.0762.5332-.56787.83984-.65478 1.24121-.11768.1416-.10205.27246-.0874.40283-.0147-.13037.42773 1.53809.41259 1.40772.18555.50879 1.09766.42773 1.63135.51074.67334.20068.84766.58105 1.40723.92529.54883.21192.79492.0586 1.30176-.11719 1.16601-.10595 2.27832.45215 4.01172-.49218.37451-.16455.73779-.45948.83984-.73194.34814-.42382.17432-.8042.65088-1.24121.59424-.5791 1.74853-.81396 2.35742-1.2622.47705-.43702.13281-1.19385 1.01416-1.53614.63574-.1875 1.33984.27442 2.22168-.0684.76416-.20068 1.58936-1.06152 2.35742-1.26172.7793-.0703 1.26367.80567 2.34619 1.10303l4.29493.92676c.13232-.0112.40478.0967.54882.21582 1.15039.94629-.50732 1.3584-1.14306 1.54785-.50684.17578-.63575.18701-1.15772.23438.14746.11767.15869.24804.30274.36718.54882.21387 1.87304.35791 2.35351-.0796.23096-.28369.20459-.54492.16309-.93457.50293-.17578.74902-.3291.95361-.87402-.042-.38965-.21582-.76807.14746-1.06348.23096-.28369.74903-.33105 1.14258-.36718-.60547-.73194-1.09717-.42578-1.89209-.48633-.40088-.0942-.56006-.34424-.96484-.43848-.38965.0356-.74903.33106-1.29785.11719-.40479-.0967-.83643-.45215-1.23731-.54688-.42041-.22509-1.4873-.3916-1.42676-1.0542.10205-.27246.21924-.41406.47657-.43701.11767-.1416.24609-.15332.37841-.1665l.18555.51123c1.38525-.51855.93457.17773 2.13428.33301 1.07861.29687 2.3501-.0796 3.44726.34814.67774.2002.45801.61475 1.04834 1.21826.71924.59424 1.74463.36914 2.65235.2876-.11328.14209-.24512.15527-.23047.28369-.21973.41455.0684.65088.34472.75684.97559.56982 2.42579-.61084 1.18457-1.15576l1.99415-.9668c-.96485-.43896-1.44239-.002-2.70997-.80811.65137-.0586.7793-.0698 1.25684-.50732l.0752-.5332 2.11132-1.10889c-.66894 1.11084.084.78125.33692 1.94141.65136-.0586 1.45703.13037 2.1084.0737.50683-.17774 1.8916-.69629 2.25488-.9917.35937-.29492.45019-.69629.80957-.99121l1.50293-.66065c.60937-.44824 1.07129-1.01562 1.53613-1.58349.23047-.28369.46192-.56739.86719-.47119.54492.21386.68457 1.51562.74121 2.03613.17383.37842.35938.88525.40137 1.27685-.0801 1.71436-1.88086 2.00782-2.9668 2.89307-.72266.59033-1.27539 1.55908-2.02832 1.89014-.96875.74365-3.74316 1.78076-5.01465 2.15722l-2.69824.50489c-.62012.31982-1.34277.91015-1.54688 1.45312-.20507.54492.12403 1.17139-.49609 1.48926-.62109.31982-3.20508.68115-3.86767.61133-1.0669-.16846-.70752-.46387-2.26661-.32373-1.42675.1289-2.9707.39941-4.44238.13623.23047-.28369.69629-.85157.7832-1.25244.10205-.27247-.0415-.39161-.0718-.65088-.0117-.12891-.042-.38965-.18555-.50879-.30273-.36719-1.33984-.27442-1.72949-.23877-.89698.21191-.7378.45996-2.16455.58838l-4.79444.56201c-2.33496.20849-4.20068 1.16553-5.10888 1.24707-.65088.0586-2.10791-.0737-2.78516-.27637-.54834-.21387-1.12354-.68847-1.74463-.36865-.63574.18896-.83984.73193-1.58887 1.06103-.75341.33155-2.17968.45997-3.03515 1.06153-.85156.60205-.40674 1.08789-1.40381 1.5708-.50537.17773-2.20654.19824-2.85693.25683-1.4419-.001-2.16504.58887-3.42286 1.09571l-1.3872.51855c-.50489.17578-1.53076.39942-1.74805.81348-.21777.4126.0981.91016.14014 1.30176.0415.38965-.0459.79101-.13477 1.19384-.6792.98047-2.4292 1.79395-2.14355 3.21485.22705.89892.76074.98193 1.76709 1.81055 1.32275 1.32666 2.31201 3.20898 3.73681 4.26318 1.84131 1.28076 4.50537 2.88135 6.78321 3.3335l3.95459.17041c2.11914.20263 3.74658.71533 5.97168.6455l4.88916-.83252c1.04052-.0928 2.58447-.36328 3.6665-.0664 1.08252.29687 1.29443 1.06689 3.24316.89111l2.71338-.37451c.63574-.1875 1.14258-.36524 1.83155-.0322 1.67236.90088-1.16163 2.59961.13232 3.66699.71924.59229 3.09912.77198 4.05273 1.08008.6626.0723 2.75098 1.19776 3.19825 1.68408.28711.23633.31347.49756.61621.86475.29882.36719.98047.56787 1.02148.95947.042.38965-.79785 1.12207-1.0293 1.40577-.71093.7207-2.08837 2.55224-1.3125 3.66503.30274.3667 1.12403.68653 1.54395.91163l3.78809 1.10498c1.6416.6416 1.78222 1.94336 2.77734 2.6416.7041.46338 1.87305.35742 2.79687.40674l3.90528.96289c1.3584.40527.79101 1.24316 1.85742 1.40966 2.25195.19336 5.70801-1.82568 7.54297-3.04052l3.72754-1.91114c1.49121-.79052 2.83398-1.70068 4.17773-2.60888 2.54688-1.93555 4.63184-4.48828 5.89551-7.36035.43555-.82666 1.66895-2.77784 1.74512-3.30909.17383-.8042-.66309-1.25488-.34082-1.93945.41992-.95947 2.11523-2.29346 2.5205-3.37939.33692-.55616.23829-1.46631-.32617-1.81055-.54492-.21387-.9082.0811-1.99023-.21582.81738-2.17432 2.29687-4.27832 3.52734-6.229.56738-.8379 1.58106-2.37452 1.60059-3.42627.004-1.18262-1.05274-1.22071-1.49512-1.70508-.43164-.35547-.33301-.62793-.60547-.73584-.54492-.21192-1.41504.25928-1.94824.17578-.39063.0342-.67773-.20215-.9502-.30811-.41992-.22509-.92382-.0493-1.31347-.0151-.58594-1.78614.63574-5.04834 1.23437-6.80957 1.16504-3.78272 2.72461-7.60254 2.16016-11.62354l-.59766-3.09912c-.16992-.38037-.48437-.87598-.99121-.70019-.76465.20068-1.43847 2.49414-1.75586 3.17871l-1.75586 3.18066c-.45019.69629-.74218 1.64258-1.33593 2.22119-.47754.4375-1.23047.7666-1.85059 1.08447-.20117-.63769-.5752-.47314-1.08203-.29541l-2.35449 1.26221c-.49121.30664-1.45996 1.05029-2.11133 1.10889-.51856.0474-.82129-.31983-1.58496-.1211-.51856.0474-1.40039.38965-1.80567.29297-.5332-.083-1.1084-.55615-1.64258-.63916-.40039-.0967-1.16894.10401-1.54394.26856-1.29883.11718-3.33106-.49024-4.67383-.7627.2461-.15332.50684-.17578.48047-.43701.18945-.67334-.84766-1.76318.42383-2.14014.1289-.0112.38965-.0356.51855-.0469l2.22071-.0684 1.28808-.24609c.66211.0723.83594.45068 1.74414.36914l3.19043-.81153c1.30176-.11767 1.82715 1.15039 3.17481.24024 1.09765-.75489 2.13086-3.34522 2.52441-4.56201l1.13477-2.86084.43945-2.00928c.49512-1.49121.94531-2.1875.76367-3.87891l-.26465-2.47314c-.11328-1.04053-.32519-1.81055-1.39648-.79444-.82813.8628-1.12012 1.8086-2.44434 1.66504-.35156 1.6084-.1289 3.68946-1.7334 4.62256-.60937.44824-1.28613.24561-1.91796.43506-.37891.16455-.8711.47314-1.14356.36523-.38965.0337-.67676-.20263-.71875-.59228.0723-.53174.9541-.87402 1.33203-1.03906 1.25684-.50684 1.89258-.69629 2.81934-1.82959.56348-.83985.62402-1.50244 1.07422-2.19873.46191-.56739.86718-.47266 1.3291-1.03858.34766-.42578.9873-1.79736 1.32031-2.35205l1.58887-4.74121c.76855-1.3833 2.05566-1.62939 2.39258-3.36816l.20019.63964c1.37403-.64892 1.36231-1.96191 1.09375-3.25048.7793-.0703 2.36524.0493 3.00098-.13819l2.94726-1.84082c.73829-.46191 1.95313-1.35888 2.12696-2.16308.2041-.54297-.63965-2.30616-.94239-2.67334-.15527-.24805-.29882-.36719-.57519-.47315-.67774-.20215-1.57031.01-2.05859-.8667-.60547-.73388-1.2754-3.30127-1.77442-4.3081-1.07519-2.66211-1.14648-2.13037-1.65039-3.13623-.3291-.62696-.26855-1.28955-.34082-1.94043-.18457-.50782-.4873-.875-.51367-1.13623-.0576-.52002.30566-.81543.6543-1.24024.54882-.96972.46484-1.75 1.05957-2.3291.47656-.43701.89648-.21094 1.1123-.625.79883-1.12207-1.13086-2-.48047-3.24121.33301-.55566 1.27539-1.55908 1.92578-1.61816.50391-.17579.92383.0483 1.42676-.12745.49219-.30761.52637-1.22998.73047-1.77392.50684-1.35938 1.30176-1.29883 1.49512-3.15479.0605-.66259.0908-1.58593-.22364-2.08252-.60547-.73486-1.45703-.13232-1.66113.41163-.45019.69628-.35156 1.60839-.26855 2.38867-.0459.79199-.19336 1.85595-.64356 2.55322-.54883.96973-1.67285.28223-1.99023-.21436-.15528-.24902-.0527-.5205-.083-.78173.0186-1.05274-.28418-1.41895-.0195-2.625.0723-.53272.56738-2.02198.41308-2.27051-.0459-.39063-1.23828-1.72754-1.53711-2.0957-.58984-.60352-1.65332-1.95362-2.63671-1.33936-.86719.47119-.68555 2.16357-.84766 3.09717-.0879.40185-.26563 1.20605-.65527 1.24121-.24219.15332-.67676-.20264-.96094-.43897-.73438-.72265-1.18067-1.208-1.30567-2.37939.40137.0947 1.4834.39258 1.5586-.14014-.0566-.52002-.67285-1.38476-1.19531-1.3374-.53321-.0835-.60547.44824-1.31348-.0132-.5752-.47412-1.85059-2.59327-2.45606-3.32764-.75976-.98291-1.8955-1.80029-3.00781-2.35742-.67383-.20117-2.86523-1.05664-3.47363-.60742-.24609.15332-.20508.54296-.30664.81445-.14356-.11719-.28809-.23633-.54492-.21338-.93848-.17822-1.21485.89746-1.27539 1.56006.0264.25976.083.78125-.292.9458-.37793.16455-.66601-.0718-.9541-.30908-.7041-.46192-.71875-.59229-1.66894-.90088.18554.50879.37109 1.01807.68554 1.51465.76368.98291 1.28223.93554 1.16114 2.26123-1.09375-.42774-2.33106-.97266-3.08008-1.82617l1.01074-.35352-.0273-.25928c-.41602-.22607-1.84278-1.28027-1.89942-1.80029-.042-.39063.47657-.43799.43555-.82813.0908-.40185-.3291-.62695-.125-1.17089.34766-.42578 1.10059-.75586 1.04395-1.27637-.0303-.26025-.31739-.49658-.58985-.60352-.56055-.34423-1.55566-1.04248-2.14941-.46435-.47657.43701-.11719 1.32422-.38184 2.53027-.40527-.0942-1.09765-.42724-1.49902-.52197-.53321-.0835-1.1543.23437-1.84668-.0967-.95313-.30908-1.29395-1.0669-2.11524-1.3877-1.51367-.65185-2.78515-.27441-4.20019-.0161-.64746.0576-1.68848.15137-2.3086.46924-.49218.30762-.71191.7207-.92773 1.13428-.57812.70947-1.72168 1.07373-1.60742 2.11425.22656.89991 1.02148.96045 1.30859 1.1958l.8291 1.63477c-.89355.21094-1.31347-.0132-2.08886.0562l-3.07666.66944c-1.57422.0107-2.0625-.86524-3.02735-1.3042-.54492-.21387-.93457-.1792-1.35449-.4043-.43164-.35449-.47314-.74512-.61719-.86475-.30273-.36572-1.62695-.51074-2.0166-.47558.0264.26123.0415.39062-.18945.67334-.21924.41455-1.33203 1.04004-1.85059 1.08642-.2456.15332-.65088.0586-.92334-.0483l.0723-.53271c.0606-.66113-.32959-.62647-.83252-.4502-.76856.2002-1.22998.76709-1.83936 1.21582.21973-.41357.42383-.95752.77198-1.38232.47705-.43701 1.11279-.62646 1.73339-.94434l1.96387-1.22705c.4917-.30664 1.24512-.63769 1.60449-.93261 1.08594-.88575 1.31299-3.66407 1.0293-5.08399-2.00928.83594-1.47607.91944-2.83447 1.69873-.4917.30664-.75293.33057-1.12744.49512-.35987.2959-.45069.69824-.5376 1.09912zm13.78223-4.7832 1.27929.93652.97559 1.75098c.75-.33008.85156-.60157 1.35937-.77832.24512-.15332 1.86133.22705 1.48633-.79004-.14355-.11914-.28711-.23731-.43066-.35547l-.0869.40185c-.43164-.35547-1.00683-.82959-1.55566-1.04345-.54883-.21289-2.38086-.17969-3.02734-.12207zm4.39746.65673c1.8164-.16259 1.50195-.66064 2.54297-.75341.50293-.17774 1.30859.0137 1.84277.0967l-.0723.53173c1.09375.42774 1.02539-.22314 1.83204-.0332.82128.3208 1.32421 1.32764 2.67871 1.73047.54492.21484.82129.3208 1.31347.0142.31348.49756.44629.48633.96485.43896.0605-.6621.43457-.82763.26074-1.20605-.16992-.37939-1.54004-.91309-1.65723.41211-.46191-.6167-.21582-.77002-.38574-1.14746-.46191-.6167-1.38477-.66504-2.02148-.47656-.26856-1.28955-.0977-.91114-1.89551-1.8003-.56348-.34375-1.80078-.88965-2.4668-.96142-.79101-.0605-.99512.4834-1.61621.80224-.34766.42578-.75293.33008-1.1123.62549-.34864.42481-.26465 1.20606-.20801 1.72656zm27.44336-5.74755 1.64257 1.82421c.61719.86377 1.2334 1.72852 1.96778 2.4502.57519.47412 1.39648.79492 2.16113.59521.50684-.17724 2.03906-1.75976.78711-2.43603-.41699-.22461-1.04102.0937-1.42676.12842.0303-.92237-.0264-1.44287-.2539-2.34229-.0264-.26025-.083-.78027-.59082-.60351-.62012.31884.11035 2.22314-.87012 1.65429l-.41602-.22509-.43164-.35547c-.46484.5664.083.78027.53028 1.26562.57519.4751 1.01757.96045 1.10449 1.74072-1.41113-.92529-1.49414-1.70459-2.40235-2.80566-.58691-.60449-1.01855-.96045-1.80175-.89062zm5.63476-1.29297c.35547.8872 1.74805 2.86474 2.70215 3.17285-.64746-1.12403-1.47949-2.75781-2.70215-3.17285zm-96.14941 9.54638c.38965-.0347.91015-.0815 1.16894-.10498l3.38721 1.00977c.93848.17871 1.86182.22754 2.47852 1.09131-1.68799.15234-1.32813-.14356-2.66797-.417-1.1958-.15527-1.55908.14014-2.48242.0908-.5337-.0835-.80616-.18995-1.21094-.28467l-3.47754.57422c-.92334-.0483-1.12402-.68702-1.67285-.90088-.56006-.34424-1.0669-.16748-1.55908.14013-.87793.3418-1.73292.94336-2.58643 1.5459-1.59131 1.06153-3.42627 2.27783-4.57129 3.82569-.79639 1.12207-.59766 1.76171-1.39453 2.88378-.80957.99219-2.67529 1.94776-3.93555 3.63819-.91357 1.26416-.83056 2.04443-1.17676 2.47021-.23291.28272-1.8374 1.21582-2.21386 1.38037-.37451.16456-.76416.19971-1.01026.35401-.36133.29492-.5791.70849-.79834 1.12256l-1.28662 1.42871c-.33301.55517-1.68408 2.64697-1.75781 3.17969-.0322.92236 1.45508 1.31494.66992 2.56738-.11572.14111-.23096.2832-.34668.42578-.85303.60156-1.08203-.29785-1.74414-.36963-.8081-.19043-2.00928.83691-2.72851.24463-.44629-.48535-.25538-1.15869-.31006-1.67969-.20069-.63867-.48828-.87549-.67383-1.38428-.33106-.62841-.0679-1.83447-.98779-3.06543-.47266-.74511-1.01954-.95898-1.44141-.00048l-.30664.81445c-.51465-1.13525-.22363-2.08154-1.16211-2.26123-1.19531-.1543-1.56055 1.32373-2.25684 2.17383-1.7373 2.12695-2.02636 1.89013-3.35693 2.92822l-1.76514 1.8667-1.10107.75586c-.59229.57861-.98584 1.79639-1.29053 2.61181l-1.27344 5.23829c-.27832 1.0747-.7456 2.82666-1.88623 3.18994-.375.16455-1.55908.14013-1.9624.0454-.41797-.2251-.71875-.5918-1.12207-.68848-.38965.0361-1.43017.12842-2.39502-.31055-.57519-.47265-1.33594-1.45654-1.88476-1.66845-.54688-.21582-1.0669-.16846-1.58545-.1211-.65088.0566-1.55908.13965-2.09278.0566-1.35449-.4038-2.229-2.42773-2.74365-3.56396-.18506-.50879-.52978-1.2666-.94775-1.4917-.5752-.47412-1.26953.37646-1.94678.1748-.53369-.084-1.71436-1.29101-2.40479-1.62402-.14404-.11865-.57714-.47314-.82128-.31982-.25928.0225-.33497.55615-.43555.82666-.0186 1.05322.271 1.28955.87256 2.02441.14355.11768.59033.60401.22705.89893-.60547.44824-1.47949-1.5752-2.16065-.59424-.10254.27246-.0874.40234-.20459.54297l-.25927.0239-.62793-2.17675-.0967-.91114-.87403-2.02343-1.0708 1.01562-.25586-1.15967-.35742-.8872c-.20068-.63868-.71875-.59229-1.21094-.28614-.96875.74463-1.63867 1.85547-2.24414 2.30371-.73779.46094-1.2998.1167-1.80468.29346-.62061.31885-1.05616 1.14551-1.24707 1.82031l-.99903 5.34424c-.86474 4.15088-1.41699 5.11963-.94043 9.54346l.52588 2.44873.49414 3.37158.44092 1.66846.26074-.0244c-.18164-1.6914-.12842-4.84961.35205-6.46875.46924-1.74853 1.21875-2.07959 1.25635-4.18554l.31055 1.68213c.70947-.72315.65429-1.24317 1.6499-1.72559.33105.62598.47461.74561.68848 1.51562.20068.63721.25537 1.15772.58642 1.78614.32959.62597.60205.73388.91797 1.23144.30274.36524.50147 1.00489.68652 1.51367.35987.8877.64356 2.3086 1.72364 2.60547.42236-.95752.29736-2.12841.3125-3.18213.10205-.27246.14941-1.06347.39355-1.21679.63574-.18946.89307.9707.93457 1.36035.3711 1.01807.6416 2.30859 1.2583 3.1709.64502 1.12597 1.15235.94824 1.9961 2.71142l.19092-.67334c.35791.88721-.0923 1.58545.88769 2.15332-.0566-.5205-.1626-2.74365.0527-3.1582.10254-.27246.49219-.30664.75342-.3291l.60547 4.41211c.0547.52051.25342 1.16016.55615 1.52734.73389.72266 1.58741.11914 1.91651.74707l.51269 2.31787c.44092 1.66895 1.05616 3.71631 1.74073 5.22998.5166 1.13672 1.20361 2.65235 2.08154 3.49268.30273.36719.74756.85352 1.25244.67529.50732-.17578.30664-.81543.39356-1.21631.0757-.53173.31982-.68505.40869-1.08789.0605-.66259-.15528-1.43261.17773-1.98681-.17383.8042.0986.91015.18359 1.6914.11182 1.04053.36719 2.20069.73975 3.2168.55664 1.52881.9707 2.93457 1.90381 4.29688.61865.86474 2.04346 1.91845 2.90625 2.62988 1.18066 1.20703 2.34424 2.28564 3.76904 3.33935l1.69922 1.16211 1.41113.9253c1.25293.67529 1.38526-.52051 2.16455-.58887.40479.0947 1.82764 1.14844 2.25928 1.50439 2.1875 2.0376 1.46826 1.4458 2.97803 3.28077l3.40576 3.63476c.87793.84033 1.96777 2.45215 3.16553 2.60547l1.19775.15723c1.33985.27441 2.83838.79638 4.23828.40674.52051-.0474.88184-.34083 1.11426-.62452.34668-.42578.55078-.96875 1.07129-1.01611.5332.0835 1.77295.62842 2.31934.84375 1.3833.6626 3.34179 1.80127 4.81201 2.0625 1.47168.26318 2.52783-.8833 2.28564-1.9126-.37109-1.01806-1.92627-2.06054-2.75683-3.69336-.8042-1.37207-1.36035-2.89892-2.28028-4.13086l-2.11132-2.56933-1.26416-1.98877-.6167-.86426c-.1587-.24805-.38575-1.14697-.42774-1.53857l-1.44531-3.68018c-.65869-1.25439-1.96045-1.13721-2.8042-2.90039.60351.73389 1.75586 1.68213 2.57519 2.00195-.3706-1.01806-1.20166-2.65088-1.82031-3.51562l-1.32226-1.32617c.71875.59179 1.29394 1.06689 2.23242 1.24462l.27637-1.07666c.40869-1.08789.7832-1.25244.77392-2.56543-.10791-2.22314-2.16113-5.45507-2.4541-8.18701-.12695-1.17138.13623-2.37646.27051-3.57031l.0361-2.10596c-.042-.39013.18897-.67578.26465-1.20556l-.0244-1.44336c.17579-.8042.27784-1.07666.19483-1.8584l-.62842-2.17578-.0376-1.57422-.22509-2.08106c-.16846-1.56103.67138-2.29345.81933-3.35693.0757-.5332-.59814-1.91846-.88769-2.15478-.41797-.2251-1.31104-.0132-.99317-.69825.31983-.68506 1.49854.52198 1.80127.88916.37842-1.34716.0908-1.58545-.16455-2.74463l-.49414-3.37158c-.22705-.89941-.80225-1.37256-.8457-1.76318.0889-.40234.47851-.4375.94043-1.00391.46533-.56738.65478-1.24121.71533-1.90332l.0225-2.23584c.146-1.06396 1.04443-2.45849 2.1875-2.82373 1.1543-.23437 2.33301.97266 2.98193.91504.65088-.0591.96875-.74365 1.18799-1.1582l1.49854-4.33838.26123-.0239c.64502 1.12598 1.32275 1.32715 2.19873 2.16846l.74902.85254c.14404.11816.39014-.0352.63574-.18848.46192-.56689 1.01807-2.71875.68897-3.34619-.18555-.50879-.76074-.98291-.96143-1.62158-.0415-.39063.17627-.8042.39356-1.21729.30664-.8164.46777-1.75048 1.05957-2.3291 1.17334-1.28759 3.51172-1.49804 4.93652-.44287.72119.59229.63037.99414.93311 1.36133.44629.48535 1.09521.42773 1.30908 1.19678.0283.26025-.0303.92236-.11914 1.32422.085.78076.24023 1.02929-.0645 1.84472-.43505.82715-1.15771 1.41748-1.45117 2.36328-.40674 1.08789.25733 1.16016.0947 2.09375-.2915.94629-1.00098 1.667-1.29248 2.6128-.33496.55566-.27783 1.07568-.8833 1.52441-.49219.30615-1.28662.24658-1.80518.29297-.76611.19971-1.37353.64893-1.99414.96728.0264.26075.0547.52002.21192.76905.21533.76904.86474.71045 1.49853.52197 1.02539-.22217 2.38379-1.00195 3.39258-.17285.87598.8418 1.14258 3.31396 1.89014 4.16601.71875.59229 1.23925.5459 2.04687.73633.54688.21387.96533.43897 1.39648.79444 1.00684.82861.68897 1.51464 1.14649 2.12988.43164.35449.8081.19189 1.25293.67627l1.90869 3.1123 1.31543-1.16894c.44629.48584.9668.43847 1.02539-.22363-.0415-.38965-.25342-1.15772-.42773-1.53809.87793.8418.94824 1.49268.94433 2.67529.0283.25928-.0737.53174.085.78174.0552.51807.68701 1.51367 1.11817 1.86914.56201.34229.93652.17774 1.42871-.12891.45019-.69628.71338-1.90332 1.40771-2.75292.58106-.70948 1.73487-.94385 2.77783-2.2212-.27246-.10595-1.09375-.42578-1.00683-.82861.2041-.54297.98389-.61328 1.47558-.92041.72315-.59033 1.2754-1.56006 1.43653-2.49316l-1.58789-.1211-.93653-.17871-1.2998.11768-1.27881-.93701-1.84668-.0972c.31787-.68506.53711-1.09961 1.3169-1.16944.38964-.0351.93652.17969 1.18261.0264.50489-.17773.44825-.69824.81153-.99316.69433-.85059 1.71777-1.07373 1.86767-2.13819 1.0669.16651 1.29981-.11621 1.83155-.0332 1.09521.42676 1.43603 2.36719 1.9375 3.37354-1.35499-.40381-1.09961.75537-1.13184 1.67773.49219-.30664 1.07129-1.01514 1.57617-1.19238l1.70313-.0215c.38964-.0351.50488-.17627.88183-.34179.89453-.21094 1.48487.39257 1.95801 1.13818.49219-.30664.46387-.56738.14746-1.06445l.64941-.0586-.37109-1.0166c-.64892.0576-.79492-.0606-.98389.61279-.56005-.34326-.56005-.34326-1.22412-.41552l.47852-.43604-.0303-.26123c-1.1084-.55713.16308-.93359.35205-1.60791.0889-.40234-.0679-.6499-.22705-.89892l1.63281-.67237c.69433-.84961 1.28467-.24609 1.57617-1.19238 1.33984.27441.89893-1.39404 1.91113-1.74805.24414-.15332.64698-.0576.90821-.0815.37451-.16455.74902-.3291 1.12744-.49463.51855-.0464.77978-.0688 1.28271-.24707.49219-.30615.94238-1.00342 1.29053-1.42822.23096-.28516.70752-.72119.81006-.99366.0869-.40185-.0835-.77929-.15137-1.43115.5332.083.92334.0483 1.26758-.37646.36328-.29541.30664-.81592-.24219-1.0293-.1289.0122-.51855.0474-.64697.0586l1.79346-1.60644.35205-1.6084-.50733.17676.17822-.8042-1.43066.12891c.23096-.2837.92725-1.13428 1.1582-1.41797.60938-.44873 1.27149-.37647 1.57813-1.19336-1.2832.24707-2.86084 1.43945-3.6709 2.43164l-1.26416 1.68945.0762-.53174c-1.27148.37744-1.18847 1.15821-1.68066 1.46485l-.24561.15283c.38965-.0347-2.22119.0684-1.8164.16406-.66407-.0723-1.3833-.66406-1.9585-1.13916-.43311-.35498-.73242-.72168-1.22412-.41455l-2.43311-1.8833c.23047-.28369.34815-.42578.0605-.66309-.2876-.23681-.96484-.43896-1.52685-.78271-1.00879-.82861-.96143-1.62158-1.08838-2.79248-.10938-1.04053-.24219-1.0293-.59766-1.91699-.17236-.3794-.20068-.63916-.50342-1.00635-.30078-.36719-1.00635-.82861-1.43799-1.18457-.57519-.47315-1.29394-1.06592-1.958-1.13819-.93653-.17773-1.65967.4126-2.46924.22168-.67725-.20166-1.55371-1.04248-2.37451-1.36328-.5337-.0835-1.18262-.0249-1.70313.0215-.0283-.26026-.085-.78028-.35742-.88721-.41651-.2251-1.16943.10498-1.68799.15137-.52002.0464-.69238-.33203-1.09521-.42774-.40332-.0947-2.23682-.0615-2.46924.22168-.2461.15381-.0723.53223-.0454.79248zm92.82715-13.58398c1.06347 1.34961 2.96289 3.1499 4.56347 3.40088-.47265-.74658-.87793-.84082-1.45312-1.31494-.84766-.58106-2.28906-1.76563-3.11035-2.08594zm-10.39942-5.24121-.3291-.62744c.54883.21289 1.09766.42675 1.41211.92431.16992.37842.2002.63867.24219 1.0293.083.78076 1.44922 2.49756 2.24023 2.55713.27539.10693.26074-.0225.52149-.0464l-.66993-2.56738c-.30273-.36719-.67675-.20166-1.12304-.68701l-2.70215-3.17383c-.15918-.24902-.76074-.98291-.67383-1.38428.23047-.28369.88184-.34228 1.14258-.36474l-2.47461-2.27442c-.28809-.2373-.73438-.72265-1.24121-.5459-.50391.17676-.69336.85059-.91309 1.26368-.21582.41455-.56347.83935-.52246 1.22998.18555.50927.77637 1.11279 1.07617 1.47949l2.30469 1.89502c.58985.60449.88867.97168 1.70996 1.29248zm33.67578-.26319c-.34082-1.94043-1.58984-3.79834-3.05371-5.24316l-2.30468-1.89551c-.88965-.9707-1.85059-2.59228-3.16016-3.78906-1.4375-1.18457-2.51953-1.48145-3.79883-2.41797l-2.17578-1.90723-3.88281-3.19873c-1.00684-.82861-2.20215-2.16748-2.96289-3.14941-.77637-1.11328-.55664-1.52686-1.00293-2.01221-.30274-.36718-1.39649-.79492-1.92969-.87793l.2041-.54394-.96484-.43897c.53711-1.09912-.21582-.76904-.97657-1.75097-.30273-.36719-.35546-.88868-.83203-1.63379-.74609-.85254-1.74121-1.55176-2.71777-2.12012l-4.7373-2.59717c-1.5293-.78222-3.61915-1.90918-5.33301-2.01758-1.31348-.0137-2.15332.71875-3.44043.96485-1.15332.23535-3.64746.19678-4.44629 1.31885-.80957.99218 1.21875 2.78125 1.95312 3.5039l2.05469 2.04834c.59082.60449.76074.98291 1.36231 1.7168.5791.47412 1.69921 1.16211 2.16113 1.77685.45801.61573-.30664.81641.30957 1.68018.47363.74561 1.62793 1.69336 1.97266 2.45117.18554.50879.26855 1.28955.70019 1.64551.41602.2251.9082-.0825 1.29785-.11768.63574-.18798 2.50196-1.14355 3.06153-.79931.56054.34326 2.4746 2.27344 2.92187 2.75976.28711.23633.87402.83985.78711 1.24317.0713.6499-1.97559-.0864-1.4873.78955.1582.24902 1.41113.92431 1.84277 1.28027l1.59668 1.43311 1.85449 1.40966c.43164.35596.9043 1.10108 1.32422 1.32667.82129.32031 1.24121-.63672 1.94922-.1753 1.38086.66406 2.37207 2.54688 3.81055 3.73096.97656.56885 1.22167.41553 2.04296.73633.69239.33203 1.13965.81738 1.84278 1.27978 1.10937.55713 1.20019.15528 2.49414 1.22168 1.72558 1.4209 3.19433 2.86621 4.67383 4.44141.58984.60351 2.04296 1.91846 2.7207 2.12012.12891-.0112.25684-.0225.38965-.0347l1.4873-.79004s.13281-.0127.11719-.14209c.0869-.40186.0303-.92236.11719-1.32471.0908-.40185.33691-.55517.40918-1.08789.0869-.40088.004-1.18262.37793-1.34717.3789-.16552 1.09765.42676 1.37011.53369zm-31.70019-33.80957c-.0566-.5205-.2002-.63867-.38574-1.14746-.77637-1.11279-1.63868-1.82324-2.86524-2.23974-.40039-.0942-1.61133-.38037-1.83105.0332-.33301.55518 1.07812 1.48047 1.49414 1.70557.43164.35498.98047.56884 1.41211.9248.83593.4502 1.2373.54541 2.17578.72363zm-50.8794-10.93652c1.71827.10791 2.36524.0503 4.00733.69043 1.49853.52246 2.37646 1.36328 4.09472 1.47217l-1.92626-2.06055 1.09765-.75488c-.57519-.47412-.83252-.45117-1.39648-.79443-.2876-.23682-.31397-.49756-.60157-.73438-.26123.0239-.9121.0815-1.16943.10498-.76807.19971-1.40039.38916-2.28174.73047-.76855.19971-1.79004.42285-1.82422 1.34619zm7.875-3.59668c-.18945.67334-.82519.86182-1.43408 1.31006.14356.11816.15869.24902.30274.36719.41992.22509 2.5542.55908 3.08789.64306 1.31299.0137 1.3584-.77832 2.90234-1.04882l1.93359-.30469c1.81641-.16358 4.29883-.2544 5.91846-1.05664-.6167-.86377-1.00635-.83008-1.95654-1.13819-1.48682-.39257-3.07276-.51269-4.58985.0171-1.40039.38868-1.34375.90918-3.16357 1.07276l-3.00098.13818zm-27.58691 222.66113c-30.33398-6.47656 6.17041 1.28516 0 0z"/></g></g></svg>