<svg height="128" viewBox="0 0 33.866666 33.866668" width="128" xmlns="http://www.w3.org/2000/svg" xmlns:xlink="http://www.w3.org/1999/xlink"><filter id="a" color-interpolation-filters="sRGB" height="1.1704" width="1.1704" x="-.0852" y="-.0852"><feGaussianBlur stdDeviation=".38830921"/></filter><filter id="b" color-interpolation-filters="sRGB" height="3.275325" width="3.539131" x="-1.269565" y="-1.137662"><feGaussianBlur stdDeviation="4.8776689"/></filter><linearGradient id="c" gradientUnits="userSpaceOnUse" x1="13.18360435112" x2="13.18360435112" y1="267.23458404545" y2="293.13395110254"><stop offset="0" stop-color="#d1d1d1"/><stop offset="1" stop-color="#a4a4a4"/></linearGradient><filter id="d" color-interpolation-filters="sRGB" height="1.038688" width="1.038116" x="-.019058" y="-.019344"><feGaussianBlur stdDeviation=".23051563"/></filter><g transform="translate(0 -263.13332)"><path d="m4.4199219 266.77344c-1.5902969 0-2.8945313 1.30423-2.8945313 2.89453v22.81055c0 1.59029 1.3042386 2.89453 2.8945313 2.89453h23.2402341c1.590293 0 2.894532-1.30424 2.894532-2.89453v-22.81055c0-1.5903-1.304235-2.89453-2.894532-2.89453z" fill-opacity=".455959" filter="url(#d)"/><rect fill="none" filter="url(#b)" height="10.289877" opacity=".824" ry="2.143987" width="9.220799" x="11.626225" y="275.35114"/><path d="m4.4199219 266.77344c-1.5902969 0-2.8945313 1.30423-2.8945313 2.89453v22.81055c0 1.59029 1.3042386 2.89453 2.8945313 2.89453h23.2402341c1.590293 0 2.894532-1.30424 2.894532-2.89453v-22.81055c0-1.5903-1.304235-2.89453-2.894532-2.89453z" fill="#fff"/><rect fill="url(#c)" height="25.660671" ry="2.143988" width="26.189678" x="2.9452" y="268.15939"/><circle cx="26.975153" cy="270.26169" fill="#0e0302" fill-opacity=".253886" filter="url(#a)" r="5.469144"/><circle cx="27.242422" cy="269.59351" fill="#df4b41" r="5.469144" stroke="#b73329" stroke-width=".373408"/><g fill="none"><path d="m.133635 263.32404h33.675961v33.809593h-33.675961z"/><rect height="27.067537" ry="2.141419" width="27.495825" x="2.275545" y="267.52325"/></g></g></svg>