<svg height="128" viewBox="0 0 33.866666 33.866668" width="128" xmlns="http://www.w3.org/2000/svg" xmlns:xlink="http://www.w3.org/1999/xlink"><filter id="a" color-interpolation-filters="sRGB" height="3.275325" width="3.539131" x="-1.269565" y="-1.137662"><feGaussianBlur stdDeviation="4.8776689"/></filter><linearGradient id="b" gradientUnits="userSpaceOnUse" x1="13.183604" x2="13.183604" y1="4.101264" y2="30.000631"><stop offset="0" stop-color="#d1d1d1"/><stop offset="1" stop-color="#a4a4a4"/></linearGradient><g transform="translate(40.389932 14.998992)"><path d="m-35.99518-11.365027c-1.598761 0-2.909936 1.311172-2.909936 2.9099353v22.9319477c0 1.598754 1.311179 2.909935 2.909936 2.909935h23.363919c1.598756 0 2.9099363-1.311181 2.9099363-2.909935v-22.9319477c0-1.5987633-1.3111763-2.9099353-2.9099363-2.9099353z" fill-opacity=".240838" stroke-width="1.005322"/><path d="m-36.077637-11.466499c-1.610046 0-2.930476 1.320427-2.930476 2.9304753v23.0938117c0 1.610039 1.320434 2.930475 2.930476 2.930475h23.528832c1.610041 0 2.9304768-1.320436 2.9304768-2.930475v-23.0938117c0-1.6100483-1.3204318-2.9304753-2.9304768-2.9304753z" fill-opacity=".198953" stroke-width="1.012418"/><path d="m-36.160093-11.567971c-1.621331 0-2.951016 1.329682-2.951016 2.9510153v23.2556757c0 1.621324 1.329689 2.951015 2.951016 2.951015h23.693745c1.621326 0 2.9510163-1.329691 2.9510163-2.951015v-23.2556757c0-1.6213333-1.3296863-2.9510153-2.9510163-2.9510153z" fill-opacity=".109948" stroke-width="1.019514"/><path d="m-36.252857-11.682127c-1.634026 0-2.974123 1.340094-2.974123 2.9741228v23.4377732c0 1.634019 1.340101 2.974122 2.974123 2.974122h23.879273c1.634021 0 2.9741233-1.340103 2.9741233-2.974122v-23.4377732c0-1.6340288-1.3400983-2.9741228-2.9741233-2.9741228z" fill-opacity=".062827" stroke-width="1.027497"/><path d="m-36.355928-11.808967c-1.648132 0-2.999798 1.351663-2.999798 2.9997978v23.6401032c0 1.648125 1.35167 2.999797 2.999798 2.999797h24.085414c1.648127 0 2.9997988-1.351672 2.9997988-2.999797v-23.6401032c0-1.6481348-1.3516678-2.9997978-2.9997988-2.9997978z" fill-opacity=".031414" stroke-width="1.036367"/></g><rect fill="none" filter="url(#a)" height="10.289877" opacity=".824" ry="2.143987" width="9.220799" x="11.626225" y="12.217815"/><path d="m4.4199219 3.64012c-1.5902969 0-2.8945313 1.30423-2.8945313 2.89453v22.81055c0 1.59029 1.3042386 2.89453 2.8945313 2.89453h23.2402341c1.590293 0 2.894532-1.30424 2.894532-2.89453v-22.81055c0-1.5903-1.304235-2.89453-2.894532-2.89453z" fill="#fff"/><rect fill="url(#b)" height="25.660671" ry="2.143988" width="26.189678" x="2.9452" y="5.026074"/><g transform="scale(.26458334)"><path d="m81.601562 13.757812a23.949692 23.949692 0 0 0 -2.613281 10.81836 23.949692 23.949692 0 0 0 23.951169 23.951172 23.949692 23.949692 0 0 0 12.54297-3.570313v-20.259765c0-6.010583-4.92888-10.939453-10.93945-10.939454z" fill-opacity=".026178"/><path d="m83.957031 13.757812a22.026712 22.026712 0 0 0 -2.613281 10.386719 22.026712 22.026712 0 0 0 22.02734 22.027344 22.026712 22.026712 0 0 0 12.11133-3.642578v-17.832031c0-6.010583-4.92888-10.939453-10.93945-10.939454z" fill-opacity=".282723"/><path d="m83.205078 13.757812a22.704678 22.704678 0 0 0 -2.539062 10.386719 22.704678 22.704678 0 0 0 22.705074 22.705078 22.704678 22.704678 0 0 0 12.11133-3.511718v-18.640625c0-6.010583-4.92888-10.939453-10.93945-10.939454z" fill-opacity=".157068"/><path d="m82.300781 13.757812a23.518237 23.518237 0 0 0 -2.449219 10.386719 23.518237 23.518237 0 0 0 23.519528 23.519531 23.518237 23.518237 0 0 0 12.11133-3.386718v-19.580078c0-6.010583-4.92888-10.939453-10.93945-10.939454z" fill-opacity=".089005"/><path d="m82.300781 13.757812a23.518237 23.518237 0 0 0 -2.449219 10.386719 23.518237 23.518237 0 0 0 23.519528 23.519531 23.518237 23.518237 0 0 0 12.11133-3.386718v-19.580078c0-6.010583-4.92888-10.939453-10.93945-10.939454z" fill-opacity=".052356"/></g><circle cx="27.242422" cy="6.460186" fill="#df4b41" r="5.469144" stroke="#b73329" stroke-width=".373408"/><g fill="none" transform="translate(0 -263.13332)"><path d="m.133635 263.32404h33.675961v33.80959h-33.675961z"/><rect height="27.067537" ry="2.141419" width="27.495825" x="2.275545" y="267.52325"/></g></svg>