<?xml version="1.0" encoding="UTF-8" standalone="no"?>
<svg
   xmlns:dc="http://purl.org/dc/elements/1.1/"
   xmlns:cc="http://creativecommons.org/ns#"
   xmlns:rdf="http://www.w3.org/1999/02/22-rdf-syntax-ns#"
   xmlns:svg="http://www.w3.org/2000/svg"
   xmlns="http://www.w3.org/2000/svg"
   xmlns:xlink="http://www.w3.org/1999/xlink"
   xmlns:sodipodi="http://sodipodi.sourceforge.net/DTD/sodipodi-0.dtd"
   xmlns:inkscape="http://www.inkscape.org/namespaces/inkscape"
   height="128"
   viewBox="0 0 33.866666 33.866668"
   width="128"
   version="1.1"
   id="svg48"
   sodipodi:docname="notification-daemon.svg"
   inkscape:version="0.92.3 (2405546, 2018-03-11)">
  <metadata
     id="metadata54">
    <rdf:RDF>
      <cc:Work
         rdf:about="">
        <dc:format>image/svg+xml</dc:format>
        <dc:type
           rdf:resource="http://purl.org/dc/dcmitype/StillImage" />
      </cc:Work>
    </rdf:RDF>
  </metadata>
  <defs
     id="defs52">
    <linearGradient
       inkscape:collect="always"
       xlink:href="#b"
       id="linearGradient874"
       x1="-16.131502"
       y1="8.6224737"
       x2="3.8176594"
       y2="28.206535"
       gradientUnits="userSpaceOnUse"
       gradientTransform="translate(21.765705)" />
  </defs>
  <sodipodi:namedview
     pagecolor="#ffffff"
     bordercolor="#666666"
     borderopacity="1"
     objecttolerance="10"
     gridtolerance="10"
     guidetolerance="10"
     inkscape:pageopacity="0"
     inkscape:pageshadow="2"
     inkscape:window-width="1920"
     inkscape:window-height="1026"
     id="namedview50"
     showgrid="false"
     inkscape:zoom="5.2149125"
     inkscape:cx="9.8598773"
     inkscape:cy="69.331475"
     inkscape:window-x="0"
     inkscape:window-y="28"
     inkscape:window-maximized="1"
     inkscape:current-layer="svg48" />
  <filter
     id="a"
     color-interpolation-filters="sRGB"
     height="3.275325"
     width="3.539131"
     x="-1.269565"
     y="-1.137662">
    <feGaussianBlur
       stdDeviation="4.8776689"
       id="feGaussianBlur2" />
  </filter>
  <linearGradient
     id="b"
     gradientUnits="userSpaceOnUse"
     x1="13.183604"
     x2="13.183604"
     y1="4.101264"
     y2="30.000631">
    <stop
       offset="0"
       stop-color="#d1d1d1"
       id="stop5" />
    <stop
       offset="1"
       stop-color="#a4a4a4"
       id="stop7" />
  </linearGradient>
  <g
     transform="translate(40.389932 14.998992)"
     id="g20">
    <path
       d="m-35.99518-11.365027c-1.598761 0-2.909936 1.311172-2.909936 2.9099353v22.9319477c0 1.598754 1.311179 2.909935 2.909936 2.909935h23.363919c1.598756 0 2.9099363-1.311181 2.9099363-2.909935v-22.9319477c0-1.5987633-1.3111763-2.9099353-2.9099363-2.9099353z"
       fill-opacity=".240838"
       stroke-width="1.005322"
       id="path10" />
    <path
       d="m-36.077637-11.466499c-1.610046 0-2.930476 1.320427-2.930476 2.9304753v23.0938117c0 1.610039 1.320434 2.930475 2.930476 2.930475h23.528832c1.610041 0 2.9304768-1.320436 2.9304768-2.930475v-23.0938117c0-1.6100483-1.3204318-2.9304753-2.9304768-2.9304753z"
       fill-opacity=".198953"
       stroke-width="1.012418"
       id="path12" />
    <path
       d="m-36.160093-11.567971c-1.621331 0-2.951016 1.329682-2.951016 2.9510153v23.2556757c0 1.621324 1.329689 2.951015 2.951016 2.951015h23.693745c1.621326 0 2.9510163-1.329691 2.9510163-2.951015v-23.2556757c0-1.6213333-1.3296863-2.9510153-2.9510163-2.9510153z"
       fill-opacity=".109948"
       stroke-width="1.019514"
       id="path14" />
    <path
       d="m-36.252857-11.682127c-1.634026 0-2.974123 1.340094-2.974123 2.9741228v23.4377732c0 1.634019 1.340101 2.974122 2.974123 2.974122h23.879273c1.634021 0 2.9741233-1.340103 2.9741233-2.974122v-23.4377732c0-1.6340288-1.3400983-2.9741228-2.9741233-2.9741228z"
       fill-opacity=".062827"
       stroke-width="1.027497"
       id="path16" />
    <path
       d="m-36.355928-11.808967c-1.648132 0-2.999798 1.351663-2.999798 2.9997978v23.6401032c0 1.648125 1.35167 2.999797 2.999798 2.999797h24.085414c1.648127 0 2.9997988-1.351672 2.9997988-2.999797v-23.6401032c0-1.6481348-1.3516678-2.9997978-2.9997988-2.9997978z"
       fill-opacity=".031414"
       stroke-width="1.036367"
       id="path18" />
  </g>
  <rect
     fill="none"
     filter="url(#a)"
     height="10.289877"
     opacity=".824"
     ry="2.143987"
     width="9.220799"
     x="11.626225"
     y="12.217815"
     id="rect22" />
  <path
     d="m4.4199219 3.64012c-1.5902969 0-2.8945313 1.30423-2.8945313 2.89453v22.81055c0 1.59029 1.3042386 2.89453 2.8945313 2.89453h23.2402341c1.590293 0 2.894532-1.30424 2.894532-2.89453v-22.81055c0-1.5903-1.304235-2.89453-2.894532-2.89453z"
     fill="#fff"
     id="path24" />
  <path
     style="opacity:1;fill:url(#linearGradient874);fill-opacity:1;stroke:none;stroke-width:0.5291667;stroke-linecap:round;stroke-linejoin:round;stroke-miterlimit:4;stroke-dasharray:none;stroke-dashoffset:0;stroke-opacity:1;paint-order:fill markers stroke"
     d="M 5.0891876,5.0260739 H 26.990891 c 1.187769,0 2.143987,0.9562185 2.143987,2.1439877 V 28.542758 c 0,1.187769 -0.956218,2.143987 -2.143987,2.143987 H 5.0891876 C 3.9014185,30.686745 2.9452,29.730527 2.9452,28.542758 V 7.1700616 c 0,-1.1877692 0.9562185,-2.1439877 2.1439876,-2.1439877 z"
     id="rect866" />
  <g
     transform="scale(.26458334)"
     id="g38">
    <path
       d="m81.601562 13.757812a23.949692 23.949692 0 0 0 -2.613281 10.81836 23.949692 23.949692 0 0 0 23.951169 23.951172 23.949692 23.949692 0 0 0 12.54297-3.570313v-20.259765c0-6.010583-4.92888-10.939453-10.93945-10.939454z"
       fill-opacity=".026178"
       id="path28" />
    <path
       d="m83.957031 13.757812a22.026712 22.026712 0 0 0 -2.613281 10.386719 22.026712 22.026712 0 0 0 22.02734 22.027344 22.026712 22.026712 0 0 0 12.11133-3.642578v-17.832031c0-6.010583-4.92888-10.939453-10.93945-10.939454z"
       fill-opacity=".282723"
       id="path30" />
    <path
       d="m83.205078 13.757812a22.704678 22.704678 0 0 0 -2.539062 10.386719 22.704678 22.704678 0 0 0 22.705074 22.705078 22.704678 22.704678 0 0 0 12.11133-3.511718v-18.640625c0-6.010583-4.92888-10.939453-10.93945-10.939454z"
       fill-opacity=".157068"
       id="path32" />
    <path
       d="m82.300781 13.757812a23.518237 23.518237 0 0 0 -2.449219 10.386719 23.518237 23.518237 0 0 0 23.519528 23.519531 23.518237 23.518237 0 0 0 12.11133-3.386718v-19.580078c0-6.010583-4.92888-10.939453-10.93945-10.939454z"
       fill-opacity=".089005"
       id="path34" />
    <path
       d="m82.300781 13.757812a23.518237 23.518237 0 0 0 -2.449219 10.386719 23.518237 23.518237 0 0 0 23.519528 23.519531 23.518237 23.518237 0 0 0 12.11133-3.386718v-19.580078c0-6.010583-4.92888-10.939453-10.93945-10.939454z"
       fill-opacity=".052356"
       id="path36" />
  </g>
  <circle
     cx="27.242422"
     cy="6.460186"
     fill="#df4b41"
     r="5.469144"
     stroke="#b73329"
     stroke-width=".373408"
     id="circle40" />
  <g
     fill="none"
     transform="translate(0 -263.13332)"
     id="g46">
    <path
       d="m.133635 263.32404h33.675961v33.80959h-33.675961z"
       id="path42" />
    <rect
       height="27.067537"
       ry="2.141419"
       width="27.495825"
       x="2.275545"
       y="267.52325"
       id="rect44" />
  </g>
</svg>
