<?xml version="1.0" encoding="UTF-8" standalone="no"?>
<svg
   xmlns:dc="http://purl.org/dc/elements/1.1/"
   xmlns:cc="http://creativecommons.org/ns#"
   xmlns:rdf="http://www.w3.org/1999/02/22-rdf-syntax-ns#"
   xmlns:svg="http://www.w3.org/2000/svg"
   xmlns="http://www.w3.org/2000/svg"
   xmlns:xlink="http://www.w3.org/1999/xlink"
   xmlns:sodipodi="http://sodipodi.sourceforge.net/DTD/sodipodi-0.dtd"
   xmlns:inkscape="http://www.inkscape.org/namespaces/inkscape"
   height="128"
   viewBox="0 0 128 128"
   width="128"
   version="1.1"
   id="svg18"
   sodipodi:docname="deepin-launcher.svg"
   inkscape:version="0.92.3 (2405546, 2018-03-11)">
  <metadata
     id="metadata24">
    <rdf:RDF>
      <cc:Work
         rdf:about="">
        <dc:format>image/svg+xml</dc:format>
        <dc:type
           rdf:resource="http://purl.org/dc/dcmitype/StillImage" />
      </cc:Work>
    </rdf:RDF>
  </metadata>
  <defs
     id="defs22">
    <linearGradient
       inkscape:collect="always"
       id="linearGradient840">
      <stop
         style="stop-color:#f6f8f8;stop-opacity:1;"
         offset="0"
         id="stop836" />
      <stop
         style="stop-color:#d2d3d6;stop-opacity:1"
         offset="1"
         id="stop838" />
    </linearGradient>
    <linearGradient
       inkscape:collect="always"
       xlink:href="#linearGradient840"
       id="linearGradient842"
       x1="201.22032"
       y1="17.898308"
       x2="201.22032"
       y2="139.11865"
       gradientUnits="userSpaceOnUse"
       gradientTransform="translate(-133.16699,-11.932203)" />
  </defs>
  <sodipodi:namedview
     pagecolor="#ffffff"
     bordercolor="#666666"
     borderopacity="1"
     objecttolerance="10"
     gridtolerance="10"
     guidetolerance="10"
     inkscape:pageopacity="0"
     inkscape:pageshadow="2"
     inkscape:window-width="1920"
     inkscape:window-height="1023"
     id="namedview20"
     showgrid="false"
     inkscape:zoom="3.6875"
     inkscape:cx="76.05228"
     inkscape:cy="53.551789"
     inkscape:window-x="0"
     inkscape:window-y="25"
     inkscape:window-maximized="1"
     inkscape:current-layer="svg18" />
  <linearGradient
     id="a"
     gradientUnits="userSpaceOnUse"
     x1="64.42871085545"
     x2="63.70264686264"
     y1="9.49702762746"
     y2="114.03049919903"
     gradientTransform="matrix(0.9664182,0,0,0.9664182,5.3381821,3.0154567)">
    <stop
       offset="0"
       stop-color="#cde2e9"
       id="stop2" />
    <stop
       offset="1"
       stop-color="#797979"
       id="stop4" />
  </linearGradient>
  <linearGradient
     id="b"
     gradientUnits="userSpaceOnUse"
     x1="66.01551341119"
     x2="64.33359152003"
     y1="119.34706540717"
     y2="1.33853303141">
    <stop
       offset="0"
       stop-color="#cccdd1"
       id="stop7" />
    <stop
       offset="1"
       stop-color="#f7f9f9"
       id="stop9" />
  </linearGradient>
  <g
     id="g847"
     transform="translate(-3.5254237,-0.81355932)">
    <circle
       r="62.64407"
       cy="65.084747"
       cx="67.510986"
       id="path834"
       style="fill:url(#linearGradient842);fill-opacity:1;stroke-width:1.163728" />
    <circle
       style="fill:url(#a);stroke:none;stroke-width:4.48887253"
       id="circle12"
       r="58.531601"
       cy="65.084747"
       cx="67.510986" />
    <path
       style="fill:#333333;stroke-width:0.96895564"
       inkscape:connector-curvature="0"
       id="path16"
       d="M 105.26379,26.470891 C 81.733137,27.798935 68.422675,38.934228 57.554695,53.224355 46.909173,52.47878 36.022976,57.02381 27.457049,67.270365 35.60546,65.55492 43.088743,65.568246 49.751235,67.716183 l -1.115091,8.137001 c 2.995757,2.633757 5.989682,5.277788 8.695094,9.363267 l 8.471636,-3.231901 c 1.203149,8.252444 0.241859,15.963345 -0.891635,23.63163 C 71.497911,97.171039 78.350647,90.848065 79.414073,74.980257 96.9024,60.834908 105.28306,42.433405 105.26379,26.470891 Z m -22.516542,16.05274 a 7.5800857,7.5800857 0 0 1 7.580001,7.580001 7.5800857,7.5800857 0 0 1 -7.580001,7.580001 7.5800857,7.5800857 0 0 1 -7.580003,-7.580001 7.5800857,7.5800857 0 0 1 7.580003,-7.580001 z M 46.407054,80.423638 c -13.340845,3.571255 -4.196966,10.239714 -11.815823,16.943265 7.484066,-1.805241 17.462948,-2.229906 17.612551,-10.254898 0,0 -6.538964,2.994592 -8.24928,0.891627 -1.710311,-2.102948 2.452552,-7.579994 2.452552,-7.579994 z" />
  </g>
</svg>
