<svg height="128" viewBox="0 0 128 128" width="128" xmlns="http://www.w3.org/2000/svg" xmlns:xlink="http://www.w3.org/1999/xlink"><linearGradient id="a" gradientTransform="matrix(1.3222977 0 0 1.2077114 -2.902742 -14.813081)" gradientUnits="userSpaceOnUse" x1="102.85234" x2="24.422873" y1="17.047232" y2="101.41263"><stop offset="0" stop-color="#0ba2ff"/><stop offset="1" stop-color="#0067ff"/></linearGradient><linearGradient id="b" gradientTransform="matrix(1.3222977 0 0 1.2077114 -2.902742 -14.813081)" gradientUnits="userSpaceOnUse" x1="85.906982" x2="59.507905" y1="13.079558" y2="111.96102"><stop offset="0" stop-color="#4bb4ff"/><stop offset="1" stop-color="#005ddb"/></linearGradient><linearGradient id="c" gradientTransform="matrix(.73404659 0 0 2.1755487 -2.902742 -14.813081)" gradientUnits="userSpaceOnUse" x1="65.983175" x2="17.254018" y1="31.662854" y2="34.900067"><stop offset="0" stop-color="#2bb8ff"/><stop offset="1" stop-color="#537cff"/></linearGradient><linearGradient id="d" gradientTransform="matrix(.73404659 0 0 2.1755487 -2.902742 -14.813081)" gradientUnits="userSpaceOnUse" x1="70.132023" x2="21.743687" y1="48.832634" y2="54.212532"><stop offset="0" stop-color="#5bcbff"/><stop offset="1" stop-color="#0056cb" stop-opacity=".469203"/></linearGradient><linearGradient id="e" gradientTransform="matrix(1.202729 0 0 1.3277755 -2.902742 -14.813081)" gradientUnits="userSpaceOnUse" x1="69.750282" x2="69.750282" y1="41.753223" y2="71.981059"><stop offset="0" stop-color="#fff"/><stop offset="1" stop-color="#effafd"/></linearGradient><circle cx="64.614243" cy="64.171577" fill="#bce5fa" r="59.876759" stroke="#fff" stroke-width="5.611559"/><path d="m64.613281 4.2949219a59.876759 59.876759 0 0 0 -18.501953 3.0078125h8.09375v12.6367186h-13.964844v-10.376953a59.876759 59.876759 0 0 0 -26.988281 23.972656l6.087891 69.708984a59.876759 59.876759 0 0 0 24.921875 17.16016h40.767578a59.876759 59.876759 0 0 0 14.363281-7.58399h-10.914062v-12.63672h13.962894v10.35743a59.876759 59.876759 0 0 0 22.04882-46.369145 59.876759 59.876759 0 0 0 -22.04882-46.363281v2.130859h-13.962894v-10.6542968a59.876759 59.876759 0 0 0 -23.865235-4.9902343zm-.253906 3.0078125h13.964844v12.6367186h-13.964844zm0 92.8808556h13.964844v12.63672h-13.964844z" fill="url(#a)" fill-rule="evenodd"/><path d="m14.369141 31.710938a59.876759 59.876759 0 0 0 -1.117188 1.824218l6.087891 69.708984a59.876759 59.876759 0 0 0 1.410156 1.60547zm26.552734 87.429682a59.876759 59.876759 0 0 0 3.339844 1.26368h40.767578a59.876759 59.876759 0 0 0 3.154297-1.26368z" fill="url(#b)"/><path d="m64.359609 107.1346v6.95038h13.963671v-6.95038 5.68668h-13.963671zm24.119068 0v6.95038h13.963673v-6.95038 5.68668h-13.963673zm24.119063 0v6.95038h13.96367v-6.95038 5.68668h-13.96367zm-72.357199-92.882431v6.950385h13.963671v-6.950385 5.686679h-13.963671zm24.119068 0v6.950385h13.963671v-6.950385 5.686679h-13.963671zm24.119068 0v6.950385h13.963673v-6.950385 5.686679h-13.963673zm24.119063 0v6.950385h13.96367v-6.950385 5.686679h-13.96367z" fill="#fff" fill-opacity=".1" fill-rule="evenodd"/><path d="m46.111328 7.3027344a59.876759 59.876759 0 0 0 -3.646484 1.2636718h10.476562v10.7402348h-11.4375v-10.3105472a59.876759 59.876759 0 0 0 -1.263672.5664062v11.007812h13.964844v-13.2675776zm18.248047 0v13.2675776h13.964844v-13.2675776zm1.263672 1.2636718h11.4375v10.7402348h-11.4375zm22.855469.71875v11.2851558h13.962894v-2.761718a59.876759 59.876759 0 0 0 -1.26368-.960938v2.458985h-11.435542v-9.4101566a59.876759 59.876759 0 0 0 -1.263672-.6113282z" fill="#1b78ff"/><path d="m64.359375 100.18359v13.26953h13.964844v-13.26953zm24.119141 0v13.26953h10.029296a59.876759 59.876759 0 0 0 1.767578-1.26367h-10.533202v-10.74218h11.435542v10.0957a59.876759 59.876759 0 0 0 1.26368-1.00195v-10.35743zm-22.855469 1.26368h11.4375v10.74218h-11.4375z" fill="#005bfc"/><path d="m30.441406 15.087891a59.876759 59.876759 0 0 0 -23.2031248 32.072265l1.2070313 37.621094a59.876759 59.876759 0 0 0 43.4277345 37.85742l-1.871094-34.333982c-.031563-.744739.099803-2.841088-2.4375-2.929688-4.440281-.155058-13.742764-4.936699-14.681641-21.787109-.473054-8.482016-1.553853-30.342942-2.441406-48.5z" fill="url(#c)" fill-rule="evenodd"/><path d="m30.441406 15.087891a59.876759 59.876759 0 0 0 -1.220703.875c.93031 18.988256 2.000031 40.51673 2.400391 47.695312.809512 14.528659 8.196922 22.709505 15.90039 22.978516.770085.026893 1.003949.225512 1.126954.691406.06119.231747.074196.401928.091796 1.029297l1.84961 33.955078a59.876759 59.876759 0 0 0 1.283203.32617l-1.871094-34.333982c-.031563-.744739.099803-2.841088-2.4375-2.929688-4.440281-.155058-13.742764-4.936699-14.681641-21.787109-.473054-8.482016-1.553853-30.342942-2.441406-48.5zm-22.0468748 28.699218a59.876759 59.876759 0 0 0 -1.15625 3.373047l1.2070313 37.621094a59.876759 59.876759 0 0 0 1.3710937 3.341797z" fill="url(#d)"/><g fill-rule="evenodd"><path d="m62.809996 77.391131v-33.39542c0-1.861135 1.508748-3.369883 3.369885-3.369883.579873 0 1.149937.149633 1.655056.434427l29.61553 16.69771c1.621208.914063 2.194463 2.969306 1.2804 4.590514-.301991.535621-.744778.978407-1.2804 1.280399l-29.61553 16.697709c-1.621208.914063-3.67645.340809-4.590513-1.280399-.284795-.50512-.434428-1.075183-.434428-1.655057z" fill="url(#e)"/><path d="m62.809996 61.325275v-17.329564c0-1.861135 1.508748-3.369883 3.369885-3.369883.579873 0 1.149937.149633 1.655056.434427l29.61553 16.69771c1.294237.729711 1.920604 2.186707 1.655563 3.569557-.179354-.940527-.756209-1.798782-1.655563-2.30585l-29.61553-16.697711c-.505119-.284793-1.075183-.434426-1.655056-.434426-1.861137 0-3.369885 1.508748-3.369885 3.369883z" fill="#fff"/><path d="m62.809996 61.325275v17.329562c0 .579875.149633 1.149938.434428 1.655058.914063 1.621207 2.969305 2.194461 4.590513 1.280398l29.61553-16.697709c.535622-.301991.978409-.744778 1.2804-1.280399.406993-.721855.51912-1.529759.375163-2.284663-.06696.349359-.190812.693986-.375163 1.020957-.301991.535621-.744778.978407-1.2804 1.280399l-29.61553 16.697709c-1.621208.914063-3.67645.340809-4.590513-1.280399-.284795-.50512-.434428-1.075183-.434428-1.655057z" fill="#0766f8"/></g><circle cx="64.614243" cy="64.171577" fill="none" r="59.876759" stroke="#ddf0fe" stroke-width="5.611559"/></svg>