<?xml version="1.0" encoding="UTF-8" standalone="no"?>
<svg
   xmlns:dc="http://purl.org/dc/elements/1.1/"
   xmlns:cc="http://creativecommons.org/ns#"
   xmlns:rdf="http://www.w3.org/1999/02/22-rdf-syntax-ns#"
   xmlns:svg="http://www.w3.org/2000/svg"
   xmlns="http://www.w3.org/2000/svg"
   xmlns:xlink="http://www.w3.org/1999/xlink"
   xmlns:sodipodi="http://sodipodi.sourceforge.net/DTD/sodipodi-0.dtd"
   xmlns:inkscape="http://www.inkscape.org/namespaces/inkscape"
   height="128"
   viewBox="0 0 128 128"
   width="128"
   version="1.1"
   id="svg25"
   sodipodi:docname="desktop-environment-gnome.svg"
   inkscape:version="0.92.3 (2405546, 2018-03-11)">
  <metadata
     id="metadata31">
    <rdf:RDF>
      <cc:Work
         rdf:about="">
        <dc:format>image/svg+xml</dc:format>
        <dc:type
           rdf:resource="http://purl.org/dc/dcmitype/StillImage" />
        <dc:title></dc:title>
      </cc:Work>
    </rdf:RDF>
  </metadata>
  <defs
     id="defs29">
    <linearGradient
       inkscape:collect="always"
       id="linearGradient847">
      <stop
         style="stop-color:#46bde7;stop-opacity:1"
         offset="0"
         id="stop843" />
      <stop
         style="stop-color:#226ad8;stop-opacity:0.88973385"
         offset="1"
         id="stop845" />
    </linearGradient>
    <linearGradient
       inkscape:collect="always"
       xlink:href="#linearGradient847"
       id="linearGradient849"
       x1="60.021572"
       y1="9.4464588"
       x2="62.678787"
       y2="119.00578"
       gradientUnits="userSpaceOnUse" />
  </defs>
  <sodipodi:namedview
     pagecolor="#ffffff"
     bordercolor="#666666"
     borderopacity="1"
     objecttolerance="10"
     gridtolerance="10"
     guidetolerance="10"
     inkscape:pageopacity="0"
     inkscape:pageshadow="2"
     inkscape:window-width="1920"
     inkscape:window-height="1017"
     id="namedview27"
     showgrid="false"
     inkscape:zoom="2.6074563"
     inkscape:cx="39.043197"
     inkscape:cy="39.07149"
     inkscape:window-x="0"
     inkscape:window-y="30"
     inkscape:window-maximized="1"
     inkscape:current-layer="svg25" />
  <linearGradient
     id="a"
     gradientUnits="userSpaceOnUse"
     x1="64.42871085545"
     x2="63.70264686264"
     y1="9.49702762746"
     y2="114.03049919903">
    <stop
       offset="0"
       stop-color="#7ffff3"
       id="stop2"
       style="stop-color:#54d6ee;stop-opacity:1" />
    <stop
       offset="1"
       stop-color="#00b2e0"
       id="stop4"
       style="stop-color:#0068e0;stop-opacity:1" />
  </linearGradient>
  <linearGradient
     id="b"
     gradientUnits="userSpaceOnUse"
     x1="66.01551341119"
     x2="64.33359152003"
     y1="119.34706540717"
     y2="1.33853303141">
    <stop
       offset="0"
       stop-color="#cccdd1"
       id="stop7" />
    <stop
       offset="1"
       stop-color="#f7f9f9"
       id="stop9" />
  </linearGradient>
  <filter
     id="c"
     color-interpolation-filters="sRGB"
     height="1.25877"
     width="1.211567"
     x="-.105784"
     y="-.129385">
    <feGaussianBlur
       stdDeviation="1.2811285"
       id="feGaussianBlur12" />
  </filter>
  <circle
     cx="64.333229"
     cy="64.22612"
     fill="url(#a)"
     r="60.565502"
     stroke="#cccdd1"
     stroke-width="4.644855"
     id="circle15"
     style="fill:url(#linearGradient849);fill-opacity:1" />
  <path
     d="m64.333592 1.3385313c-34.704539 0-62.8882778 28.1824517-62.8882778 62.8869837 0 34.704538 28.1837388 62.888275 62.8882778 62.888275 34.704538 0 62.886978-28.183737 62.886978-62.888275 0-34.704532-28.18244-62.8869837-62.886978-62.8869837zm0 4.644855c32.194272 0 58.242128 26.0478627 58.242128 58.2421287 0 32.194272-26.047856 58.243425-58.242128 58.243425-32.194267 0-58.2434228-26.049153-58.2434228-58.243425 0-32.194266 26.0491558-58.2421287 58.2434228-58.2421287z"
     fill="url(#b)"
     id="path17" />
  <path
     inkscape:connector-curvature="0"
     style="fill:#fffbfb;stroke-width:2.06588912"
     d="m 81.732207,35.608201 c -11.179227,0 -13.274947,16.987016 -6.98164,16.987016 6.287164,0 18.167011,-16.987016 6.98164,-16.987016 z m -17.21441,2.611968 c -0.178224,0 -0.368749,0.01839 -0.565415,0.03072 -6.336331,0.798956 -4.111546,11.523391 -0.737498,11.726204 3.263425,0.190516 6.834141,-11.738496 1.290621,-11.763078 z M 53.52909,42.178072 c -0.387186,-0.02458 -0.811247,0.04917 -1.290618,0.245832 -5.094878,2.089575 -0.774374,10.724436 2.077282,10.140585 2.587384,-0.522393 2.956133,-10.146731 -0.786664,-10.386417 z m -8.309134,7.055387 c -0.442499,-0.01219 -0.921872,0.141349 -1.431973,0.522396 -4.074671,3.042174 1.376661,10.392561 3.773526,9.249442 2.095721,-0.99562 0.755936,-9.655067 -2.341553,-9.771838 z m 24.073133,7.018514 c -8.831527,-0.15364 -20.477835,4.32665 -22.469077,13.336405 -2.151033,9.741108 8.856111,23.255742 20.342629,23.255742 5.647996,0 12.168701,-5.162479 13.385571,-11.707766 0.934162,-4.984251 -10.957976,-2.986863 -10.533917,0.313437 0.516249,3.957901 -2.863946,5.912269 -6.170392,3.361757 C 53.30784,76.692934 81.289708,72.642847 79.445966,61.549663 78.868261,58.101861 74.584631,56.344161 69.286943,56.251973 Z m 0,0"
     id="path4" />
</svg>
