<svg height="170.66667" viewBox="0 0 170.66667 170.66667" width="170.66667" xmlns="http://www.w3.org/2000/svg" xmlns:xlink="http://www.w3.org/1999/xlink"><linearGradient id="a" gradientTransform="matrix(1.0340058 -.16481214 .16481214 1.0340058 153.31432 62.744898)" gradientUnits="userSpaceOnUse" x1="-46.022003" x2="-45.049538" y1="67.844688" y2="-61.016541"><stop offset="0" stop-color="#984845"/><stop offset="1" stop-color="#b04d4d"/></linearGradient><linearGradient id="b" gradientTransform="matrix(1.0340058 -.16481214 .16481214 1.0340058 119.42915 -12.746515)" gradientUnits="userSpaceOnUse" x1="-104.67171" x2="-98.618813" y1="80.727516" y2="80.727516"><stop offset="0" stop-color="#8c4040"/><stop offset=".50000024" stop-color="#bd6e6c"/><stop offset="1" stop-color="#a84e4c"/></linearGradient><linearGradient id="c" gradientTransform="matrix(1.0340058 -.16481214 .16481214 1.0340058 119.42915 -12.746515)" gradientUnits="userSpaceOnUse" x1="-38.632729" x2="-39.055714" y1="144.23842" y2="158.81201"><stop offset="0" stop-color="#954848"/><stop offset="1" stop-color="#432222"/></linearGradient><linearGradient id="d" gradientTransform="matrix(1.0340058 -.16481214 .16481214 1.0340058 119.42915 -12.746515)" gradientUnits="userSpaceOnUse" x1="-40.917969" x2="-40.917969" y1="154.91374" y2="143.8855"><stop offset="0" stop-color="#857562"/><stop offset=".17814124" stop-color="#82786f"/><stop offset=".7846989" stop-color="#aea8a3"/><stop offset="1" stop-color="#f8f7f6"/></linearGradient><path d="m123.14959 3.9653127c-.69602-.029778-1.40511.010311-2.12098.1244156l-58.38446 9.3054917c-.0276.0044-.05351.01318-.08097.01777l-47.254199 7.532077c-1.130652.180217-1.898337 1.235215-1.718118 2.36587l20.107917 126.137603c-.000236.00022-.03163.006-.0316.006.933964 5.85955 1.587723 18.16068 6.191152 17.13577l102.348548-16.31427c3.83275-.6109 11.23053-2.79232 9.23637-14.69682l-.69514-4.36641c.48413-1.5141.63753-3.16136.3693-4.8443l-18.10543-113.589444c-.79872-5.0111251-4.99032-8.6053045-9.86239-8.8137533z" fill-opacity=".239544"/><path d="m123.72209 2.8149001c-.70586-.0302-1.42497.010457-2.15098.1261753l-59.210219 9.4371056c-.02799.0044-.05427.01336-.08211.01802l-47.922544 7.638608c-1.146643.182765-1.925186 1.252685-1.742419 2.399332l20.392311 127.921649c-.00024.00022-.03207.006-.03204.006.947174 5.94243 1.610179 18.41754 6.278718 17.37813l103.796113-16.54493c3.88697-.61954 11.38937-2.83181 9.36701-14.90468l-.70497-4.42817c.49098-1.53552.64654-3.20608.37453-4.91282l-18.36151-115.196008c-.81002-5.0820008-5.0609-8.7270149-10.00189-8.9384119z" fill-opacity=".239544"/><path d="m37.428334 147.79807 109.055656-17.38259c1.84788-.29454 3.33806-.51573 3.34121-.49598l.75281 4.723c1.97222 11.77356-5.34398 13.93183-9.13456 14.53601l-101.223425 16.1342c-4.55279 1.01363-5.197843-11.15223-6.121532-16.94732-.0031-.0197 1.481958-.27279 3.329841-.56732z" fill="url(#c)"/><path d="m36.470263 154.45815c-1.274874.88333 1.721684 9.90309 4.058209 9.22509l101.549278-16.18613c7.18381-1.32726 7.29519-9.9613 6.34749-15.17539-2.16172 4.97701-5.83529 4.90653-20.81512 7.29419-1.42731.15944-86.795809 13.83455-86.795809 13.83455z" fill="url(#d)"/><path d="m62.755319 13.803109c-.0273.0044-.05295.01236-.08011.0169l-46.734239 7.449059c-1.118215.178235-1.876206 1.221206-1.697971 2.339423l20.519751 128.737759c.178234 1.11822 1.222909 1.87386 2.341124 1.69563l46.613064-7.42975c.0681-.01.135397-.011.2036-.0219l57.742772-9.20373c5.664-.90279 9.49627-6.18837 8.59348-11.85238l-17.9063-112.341271c-.90279-5.6639998-6.18838-9.4962684-11.85237-8.5934737z" fill="url(#a)"/><path d="m15.036456 21.662804c-.584466.439833-.917361 1.169492-.793794 1.94473l20.519756 128.737766c.178234 1.11821 1.222909 1.87386 2.341124 1.69562l46.613064-7.42974c.0681-.01.135677-.009.20388-.0201l57.742764-9.20372c3.90528-.62247 6.9389-3.33059 8.1509-6.80766-1.50282 2.60892-4.12694 4.53858-7.34568 5.05162l-57.742754 9.20373c-.06824.0109-.135511.0121-.20361.0219l-46.613054 7.42974c-1.118215.17823-2.16289-.57741-2.341124-1.69562l-20.519714-128.737552c-.01025-.06434-.0076-.127019-.01174-.190717z" fill="#8b3e3b"/><path d="m20.444516 20.551243-4.50355.717829c-1.118215.178235-1.876206 1.221206-1.697971 2.339423l20.519755 128.737755c.178234 1.11822 1.222909 1.87386 2.341124 1.69563l4.503551-.71783z" fill="url(#b)"/><path d="m21.436858 21.073412 21.037858 131.988258" fill="none" stroke="#862d2d" stroke-width="1.884705"/><path d="m62.755005 13.802139c-.0273.0044-.05295.01237-.08011.01691l-46.734229 7.449057c-.818292.130429-1.440684.726849-1.647453 1.474038.186449-.09473.385117-.16907.603262-.20384l46.734229-7.449057c.02716-.0045.05281-.01256.08011-.01691l57.742756-9.2037262c5.664-.9027947 10.94958 2.929474 11.85238 8.5934732l17.90626 112.341096c.43931 2.75615-.24839 5.41853-1.71696 7.53407 2.16944-2.25604 3.29435-5.45906 2.76147-8.80225l-17.90658-112.343115c-.9028-5.6639997-6.18838-9.4962685-11.85238-8.5934737z" fill="#d6736f"/><path d="m26.771776 47.974139 107.070464-17.066165" fill="none" stroke="#935454" stroke-width="3.141175"/><path d="m26.771776 47.974139 107.070464-17.066165" fill="none" stroke="#ae6363" stroke-width="2.094116"/><path d="m52.494412 24.122394c-.239444.03737-.428563.145551-.568525.330837-.13884.185345-.194998.387867-.161989.607729.03396.219711.146907.396164.334176.524502.188292.130431.402379.179429.641823.142059.236081-.03519.422971-.146377.567142-.326475.142003-.181134.19799-.38213.164981-.601993-.0348-.224956-.146855-.401826-.33748-.532259-.191616-.130467-.40407-.179733-.640128-.1444zm16.798162-2.576022c-.240535.03731-.430254.147909-.570219.333178-.139875.183245-.193606.38349-.160606.603367.03396.219697.145152.396465.332471.526844.189408.130446.401273.179411.641833.142057.234995-.03502.426999-.147114.571186-.327119.140806-.179062.193973-.382515.160927-.601347-.03392-.226109-.145409-.402065-.335775-.534601-.191616-.130467-.404852-.177721-.639817-.142379zm-30.855211 5.056817.04493.295183c.6304-.05706 1.049067-.01405 1.255888.122874.2046.136889.351004.49298.437562 1.069225l1.072493 7.027329c.09149.593972.05387.975866-.111014 1.14838-.162792.176694-.544005.341324-1.146963.495515l.04286.295513 4.669651-.715317c1.252521-.193598 2.286409-.507154 3.099773-.93724.444668-.229099.862468-.53457 1.252781-.909985.615245-.594962 1.037893-1.271132 1.272187-2.035479.233055-.760218.293835-1.535281.17278-2.319971-.33267-2.186235-1.519112-3.558368-3.553151-4.115851-.563305-.156732-1.175557-.242979-1.83924-.261827-.663669-.01883-1.377541.0298-2.140675.146546zm4.241075-.06509c.378888-.05795.741859-.09037 1.090025-.09919 1.044513-.02632 1.951214.169422 2.721822.589164 1.195107.65134 1.918122 1.790645 2.167246 3.411081.276309 1.817335-.179431 3.200872-1.365203 4.15429-.773755.618852-1.816582 1.02593-3.130079 1.227848-.421258.06612-.703711.06841-.850317.0051-.146662-.0613-.239981-.220968-.279349-.479399l-1.22702-8.036054c-.04078-.262524.0014-.444262.122849-.541436.122549-.09817.372074-.172941.750047-.231378zm22.42237-2.681407c-.499468.874177-.817166 1.417336-.95458 1.624527-.139624.207167-.376871.489681-.708966.839872-.116829.124278-.183176.201268-.20304.233236-.02099.03193-.02678.07215-.01969.123247.0033.026.01452.04451.03014.0594.01713.01367.03891.02793.06832.03881l.894993-.140535.712291 4.676344c.07777.521167.205134.917125.376184 1.190834.311777.504369.789902.708483 1.434995.609968.296004-.04699.592185-.169096.88582-.366915.294763-.198851.556481-.500322.785747-.903882l.145061-.259198-.236755-.134144c-.158738.218357-.303417.382304-.435174.491817-.131755.109523-.295012.179328-.492369.211014-.382361.05851-.668724-.07861-.853043-.414879-.100287-.187489-.182599-.481728-.242658-.872496l-.658395-4.442645 1.671453-.258146-.08439-.556034-1.657308.255891-.290487-1.900299c-.0098-.0667-.02256-.101636-.03622-.110194-.01616-.0083-.05976-.007-.131827.0044zm-11.256976 3.651824c-.04542.0077-.137211.055-.282388.138198-.355749.208439-.987859.528362-1.899735.969616l-.336684.161349.03624.240654c.261995-.114007.421668-.180292.477495-.200359.05453-.01707.115903-.0309.175783-.04045.262723-.04119.451614.03785.565846.237003.06851.120493.128452.348231.179391.68378l.561338 3.677404c.09174.602192.07016.984298-.06223 1.142674-.131363.160479-.488256.311451-1.065277.449362l.03477.21811 3.986409-.610548-.0327-.218441c-.537164.03967-.892131-.0012-1.066225-.128255-.171922-.126044-.304351-.482266-.39387-1.067905l-.845605-5.539348c-.006-.04065-.01675-.07846-.03251-.112856zm5.7909-.904383c-1.095125.167238-1.939719.690952-2.541755 1.566882-.597604.874936-.815865 1.846304-.654061 2.912326.165485 1.084793.62247 1.892986 1.376412 2.425088.75287.532092 1.555413.731448 2.411069.601419.868019-.13475 1.582031-.597189 2.137057-1.39055.290123-.410029.543671-.951741.761207-1.616484l-.251156-.09457c-.249748.484399-.484539.848307-.704666 1.087689-.389648.4191-.867719.673053-1.43629.75907-.804702.123492-1.492666-.08734-2.059852-.632551-.568338-.544186-.90942-1.206142-1.028527-1.983532-.129187-.850415-.01855-1.564623.33155-2.142336.352301-.578704.841356-.916338 1.464304-1.012037.294869-.0434.540548-.02735.737274.05229.192066.08685.344046.261869.458249.523364l.153507.352426c.103316.229112.235218.392441.399294.491345.16279.104078.34025.139341.533126.109684.262724-.04119.445242-.144148.549202-.30912.101753-.165047.140827-.331993.114841-.500813-.06048-.392774-.362355-.718584-.908942-.973381-.409123-.191078-.85492-.281905-1.341578-.270743-.162237.004-.329276.01825-.500264.04454zm11.006952-1.673658c-.04542.0077-.139251.05532-.284415.138521-.354644.208455-.98754.530371-1.899413.971636l-.336996.159328.03863.242345c.262024-.115093.421667-.180294.477495-.20036.05577-.01727.113604-.03248.173445-.04214.262722-.0412.450469.03892.565836.237005.06851.120505.126386.348573.177427.684092l.563302 3.677091c.09071.60237.06909.984264-.06223 1.142675-.132437.160458-.485824.311083-1.062929.451058l.0327.218439 3.988092-.612894-.03444-.216092c-.537133.03966-.892318-.0015-1.064198-.128578-.174122-.12608-.304665-.484297-.394192-1.069924l-.845283-5.537329c-.006-.04162-.01705-.08037-.03284-.114875zm5.754611-.859252c-1.08742.168555-1.926202.657884-2.509472 1.470619-.583279.812735-.799031 1.730999-.643552 2.757408.168025 1.094073.67103 1.948854 1.510245 2.563211.838223.612258 1.783498.837741 2.833161.67703 1.095124-.16851 1.927896-.681183 2.501915-1.543965.573914-.859655.782424-1.806194.627922-2.829467-.170713-1.110939-.661337-1.944515-1.476029-2.504468-.608588-.419142-1.295703-.635757-2.058063-.647332-.254119-.0039-.514831.01541-.786126.05697zm6.895269-1.082478-.733477.36127c-.796366.385597-1.302721.625208-1.516717.722191l.03835.267238c.07347-.02136.138654-.0399.188641-.05077.05014-.01403.102625-.02261.152505-.03056.322497-.05013.550757.01222.684531.189093.0849.124876.151856.350044.200979.676197l.599644 3.91773c.07253.474978.04206.790733-.09483.951139-.133599.161489-.393993.294788-.774775.400987l.03412.214072 3.584189-.548516-.0327-.21844c-.377602.04806-.664198.02189-.859151-.07636-.193806-.0993-.318981-.332317-.375255-.704331l-.659669-4.320262c.251568-.317986.461351-.548035.628596-.694527.300089-.255974.610269-.407928.929493-.456711.470045-.07248.812263.02213 1.031157.285016.219918.264991.361399.617268.429571 1.058073l.502464 3.295398c.08054.525224.05251.87756-.0818 1.058817-.135405.181218-.39922.329641-.791201.440881l.0327.21844 3.506812-.540317-.03444-.216092c-.369936.05059-.64641.0078-.828836-.132959-.181324-.140734-.303065-.397168-.358326-.767088l-.551393-3.602369c-.151476-1.003552-.550276-1.655972-1.202219-1.955848-.251659-.113836-.513514-.168971-.784536-.166941l-.0021.00033c-.09003.0013-.182007.0073-.27415.02092-.458945.07188-.880431.264817-1.267617.583085-.258699.207659-.605278.569222-1.041578 1.091689l-.172313-1.134281c-.0072-.04685-.01854-.08303-.02916-.105108-.01249-.02514-.03758-.0369-.07749-.03114zm9.478048-1.508603c-.912292.139368-1.577832.443863-1.990084.909467-.413336.465583-.592951.881642-.537319 1.241178.02848.185331.1195.343948.274673.476003.155175.132067.353738.176732.599825.138399.159538-.02416.290665-.07869.396217-.164622.185861-.143115.25515-.359044.211361-.648732-.0053-.03847-.03385-.132556-.08278-.272583-.05017-.143123-.08111-.244135-.09-.304565-.03658-.2428.0594-.454495.290595-.632369.23098-.17163.485471-.277641.764796-.320704.586377-.08986.998536.02514 1.236537.339256.140984.188047.250068.544679.329651 1.067787l.102549.65668c-1.423676.76098-2.364152 1.332911-2.819874 1.718897-.717594.620635-1.018809 1.306447-.90516 2.051529.07097.478518.305909.847051.70022 1.106051.389951.25791.820744.350592 1.290766.27677.449914-.06694.901159-.278393 1.354718-.634242.273093-.209556.590601-.514298.953275-.91816.06507.311803.195845.567489.39937.764684.198976.202321.486805.274603.859147.219246.316944-.04925.615421-.194738.893052-.438478.180858-.157743.343949-.351986.487578-.578861l-.06209-.402202c-.181308.170213-.30929.276472-.384921.326422-.0756.04788-.177071.08498-.302317.104095-.225045.03545-.388112-.04395-.490571-.232435-.06145-.106831-.114485-.308899-.1611-.608002l-.470294-3.09344c-.103727-.677373-.282376-1.180619-.540049-1.504334-.357997-.443887-.879699-.673537-1.566201-.692597-.228855-.0062-.476232.0093-.741695.04988zm6.339776-.929748c-.267186.166992-.5318.319312-.790321.459378-.119179.06603-.330283.176899-.640175.336045-.312051.158043-.61677.311197-.912055.462214l.04056.254462c.09618-.03716.185842-.06667.275013-.09353.08806-.02694.158902-.04505.21319-.05262.26817-.04147.469207.03774.604133.243325.134047.200404.241321.558849.319227 1.067377l.529761 3.479495c.0635.411663.02195.690674-.12231.843694-.144212.149913-.466755.287231-.96477.404349l.0386.254776 4.045289-.617867-.0389-.256795c-.5058.08794-.88001.0622-1.12643-.07724-.24429-.137402-.40325-.427528-.47024-.871427l-.529431-3.477475c-.04687-.307335.04988-.631801.283201-.964598.23554-.331713.4454-.513158.63828-.542827.11971-.01814.29781.04639.53622.194094.23727.148747.46114.204387.66951.17285.20165-.0297.3604-.129989.47311-.292848.11165-.164911.151-.351833.11762-.561312-.0359-.238565-.15295-.422293-.35111-.552863-.10083-.06582-.21144-.107949-.33126-.129434l-.002.000313c-.11982-.02154-.24762-.02194-.38731-.000387-.35024.05222-.67145.237144-.95904.544253-.286441.306081-.571741.715108-.852247 1.227179l-.189053-1.26415c-.01357-.08335-.02544-.13763-.03852-.16367-.01215-.02303-.03961-.03157-.07849-.02477zm3.263462-.313084.0325.216405c.27915-.0066.49635.03998.65596.139805.15741.09985.35751.327764.60307.678375l3.38784 4.858712c.0292.04721.0542.105658.0805.16733.0253.06483.0433.119223.0493.166101.0351.224068-.0631.707859-.29141 1.458769-.22936.748822-.49383 1.146695-.79755 1.193609-.11865.01924-.32315-.000159-.61555-.05513-.2935-.05489-.50949-.07163-.6502-.05168-.24379.03759-.4359.135852-.57261.292142-.14118.157233-.19588.334504-.16454.539798.0489.31358.21734.521491.50795.627268.28975.09851.58825.128188.89307.0813.63065-.09575 1.10959-.425727 1.44361-.98596.33518-.562311.64303-1.433192.91955-2.610882l1.60506-6.832856c.0468-.22922.1209-.413719.21406-.553903.0931-.137085.24974-.239121.47012-.298584l-.0344-.216143-2.25606.345105.032.214401.25938-.0227c.1547-.01042.28624.0046.39366.05322.10852.0482.1698.139453.19135.278057.008.05312.007.155925-.007.307583-.0129.154764-.026.250952-.0354.297632l-.96932 4.130535-2.48886-3.571044c-.0932-.140577-.15744-.245098-.19779-.318448-.0394-.07223-.0657-.144764-.0765-.21975-.0315-.20009.0759-.355369.31562-.462406.1245-.06074.32229-.11379.59524-.163212l-.0325-.216405zm-26.140817 4.336444c.100069-.01543.198073-.02372.294033-.02616.67194-.01556 1.24446.291517 1.718888.922974.542167.722707.880977 1.528258 1.017043 2.418172.130504.858672.07289 1.578189-.178005 2.157207-.2499.582162-.684543.919857-1.298566 1.012542-.784812.121488-1.455511-.182241-2.018574-.90627-.560816-.725028-.912761-1.544208-1.052395-2.458096-.174548-1.148306-.02484-1.996528.451096-2.548638.276921-.31765.634233-.50677 1.06648-.571733zm18.100795-.224077.373689 2.448237c.04456.292858-.08303.559426-.385924.800807-.301764.241406-.634339.390021-.995643.444474-.261553.04042-.508312.0052-.743628-.105123-.363263-.171239-.581617-.492603-.652162-.960468-.08828-.58048.225205-1.159893.94463-1.738909.37218-.299727.861118-.596452 1.459069-.889023zm-30.175381 38.216671-9.585917 34.286704c-1.437395 5.140328-2.519147 8.315498-3.248413 9.528038-.730114 1.21254-1.975776 2.05078-3.734626 2.51495l.186615 1.2107 13.774044-2.11264-.184866-1.21304c-1.645794.12338-2.781787.10148-3.408388-.0635-1.014605-.27669-1.604538-.96401-1.772657-2.06579-.08333-.54941-.024-1.32531.183204-2.31957.207232-.99506.887271-3.769349 2.038575-8.322553l18.318157-2.81001 3.744199 5.860118c.543325.825033.988177 1.623089 1.338306 2.393885.348532.76757.547501 1.31222.595301 1.63013.146455.9521-.05675 1.59463-.607757 1.92957-.550949.33335-1.829149.74114-3.835067 1.22219l.184866 1.21304 17.674971-2.7137-.184545-1.21102c-1.661588.0376-2.8813-.18161-3.660377-.65701-.779066-.4754-1.932449-1.851863-3.459934-4.12864l-22.973315-34.385979zm.279398 9.392332 10.710471 16.773109-15.967179 2.449784zm43.266285-2.000803c-3.77838.580984-6.52321 1.832338-8.232862 3.759997-1.708733 1.92606-2.448126 3.635165-2.22102 5.125252.116801.76605.494325 1.421821 1.133229 1.964773.638832.544566 1.466939.738607 2.484833.583451.65659-.101898 1.20158-.327592 1.63405-.674626.76483-.596903 1.05911-1.492009.87703-2.682794-.0249-.169201-.14102-.549464-.34698-1.137505-.20591-.590461-.33155-1.012423-.36961-1.266432-.15313-1.000628.25007-1.866078 1.20289-2.600131.95635-.713014 2.01084-1.158852 3.16649-1.337194 2.42138-.371338 4.12369.09718 5.1112 1.405268.58001.780321 1.03892 2.255265 1.37029 4.426504l.41349 2.711105c-5.88884 3.145877-9.77505 5.516681-11.66209 7.112591-2.964625 2.567287-4.214637 5.389661-3.743576 8.474211.302263 1.979499 1.264689 3.501367 2.886256 4.570053 1.62243 1.06872 3.40578 1.45408 5.35302 1.1555 1.85433-.28443 3.72453-1.15989 5.60777-2.625064 1.1184-.86669 2.4289-2.134333 3.93336-3.801566.26613 1.287136.81499 2.345042 1.64914 3.174751.83157.829707 2.01955 1.125227 3.55886.890625 1.31049-.202519 2.53927-.800996 3.68219-1.804573.7568-.659979 1.43059-1.461221 2.02958-2.402628l-.25184-1.657957c-.75058.702833-1.28421 1.155456-1.60021 1.354682-.31689.200833-.73428.341209-1.25403.421463-.92941.142945-1.60426-.176814-2.02322-.961441-.2548-.441754-.47192-1.278822-.65932-2.512465l-1.9545-12.794884c-.42791-2.807036-1.17406-4.882008-2.23408-6.220926-1.47828-1.830081-3.63791-2.783767-6.4763-2.863002-.94613-.02642-1.96673.04473-3.06404.212962zm6.46692 11.872696 1.54414 10.116412c.18361 1.211841-.34781 2.315801-1.59661 3.313134-1.24884.997327-2.61887 1.60909-4.11177 1.837837-1.08597.166945-2.1163.01992-3.08934-.439466-1.49665-.705358-2.39411-2.027666-2.69017-3.963483-.36591-2.403407.93521-4.802287 3.90395-7.195138 1.54836-1.239568 3.56144-2.461502 6.0398-3.669296z" fill="#fff"/></svg>