<?xml version="1.0" encoding="UTF-8" standalone="no"?>
<!-- Created with Inkscape (http://www.inkscape.org/) -->

<svg
   xmlns:dc="http://purl.org/dc/elements/1.1/"
   xmlns:cc="http://creativecommons.org/ns#"
   xmlns:rdf="http://www.w3.org/1999/02/22-rdf-syntax-ns#"
   xmlns:svg="http://www.w3.org/2000/svg"
   xmlns="http://www.w3.org/2000/svg"
   xmlns:xlink="http://www.w3.org/1999/xlink"
   xmlns:sodipodi="http://sodipodi.sourceforge.net/DTD/sodipodi-0.dtd"
   xmlns:inkscape="http://www.inkscape.org/namespaces/inkscape"
   version="1.1"
   id="svg2"
   width="128"
   height="128"
   viewBox="0 0 128 128"
   sodipodi:docname="electron5.svg"
   inkscape:version="0.92.1 r15371">
  <metadata
     id="metadata8">
    <rdf:RDF>
      <cc:Work
         rdf:about="">
        <dc:format>image/svg+xml</dc:format>
        <dc:type
           rdf:resource="http://purl.org/dc/dcmitype/StillImage" />
        <dc:title></dc:title>
      </cc:Work>
    </rdf:RDF>
  </metadata>
  <defs
     id="defs6">
    <linearGradient
       inkscape:collect="always"
       id="linearGradient833">
      <stop
         style="stop-color:#dfe3e8;stop-opacity:1"
         offset="0"
         id="stop829" />
      <stop
         style="stop-color:#fefeff;stop-opacity:1"
         offset="1"
         id="stop831" />
    </linearGradient>
    <linearGradient
       inkscape:collect="always"
       id="linearGradient823">
      <stop
         style="stop-color:#ccd4da;stop-opacity:1"
         offset="0"
         id="stop819" />
      <stop
         style="stop-color:#ffffff;stop-opacity:1"
         offset="1"
         id="stop821" />
    </linearGradient>
    <linearGradient
       inkscape:collect="always"
       xlink:href="#linearGradient823"
       id="linearGradient825"
       x1="-741.83197"
       y1="959.04749"
       x2="-741.83197"
       y2="93.836403"
       gradientUnits="userSpaceOnUse"
       gradientTransform="matrix(0.13667801,0,0,0.13667801,162.31231,-5.989337)" />
    <linearGradient
       inkscape:collect="always"
       xlink:href="#linearGradient833"
       id="linearGradient835"
       x1="-738.76385"
       y1="931.43433"
       x2="-738.76385"
       y2="152.13077"
       gradientUnits="userSpaceOnUse"
       gradientTransform="matrix(0.13667801,0,0,0.13667801,162.31231,-5.989337)" />
    <linearGradient
       id="linearGradient866">
      <stop
         style="stop-color:#ffffff;stop-opacity:1"
         offset="0"
         id="stop862" />
      <stop
         style="stop-color:#d7d7d7;stop-opacity:1"
         offset="1"
         id="stop864" />
    </linearGradient>
    <linearGradient
       id="linearGradient854">
      <stop
         style="stop-color:#4bea95;stop-opacity:1"
         offset="0"
         id="stop850" />
      <stop
         style="stop-color:#389070;stop-opacity:1"
         offset="1"
         id="stop852" />
    </linearGradient>
    <linearGradient
       id="linearGradient3790">
      <stop
         id="stop3792"
         offset="0"
         style="stop-color:#66595c;stop-opacity:1;" />
      <stop
         id="stop3794"
         offset="1"
         style="stop-color:#88777b;stop-opacity:1;" />
    </linearGradient>
    <linearGradient
       id="linearGradient4829">
      <stop
         id="stop4831"
         offset="0"
         style="stop-color:#f4fbfc;stop-opacity:1;" />
      <stop
         id="stop4833"
         offset="1"
         style="stop-color:#d6d6d6;stop-opacity:1;" />
    </linearGradient>
    <clipPath
       id="clipPath4282"
       clipPathUnits="userSpaceOnUse">
      <rect
         rx="17"
         ry="17"
         y="1646.1122"
         x="462.5"
         height="234.375"
         width="246.875"
         id="rect4284"
         style="color:#000000;display:inline;overflow:visible;visibility:visible;fill:#4d4d4d;fill-opacity:1;fill-rule:nonzero;stroke:none;stroke-width:9.13434315;marker:none;enable-background:accumulate" />
    </clipPath>
    <linearGradient
       gradientUnits="userSpaceOnUse"
       y2="562.04968"
       x2="408.66196"
       y1="44.604382"
       x1="408.66196"
       id="linearGradient5429"
       xlink:href="#linearGradient5423"
       inkscape:collect="always" />
    <linearGradient
       id="linearGradient5423">
      <stop
         id="stop5425"
         offset="0"
         style="stop-color:#6acb97;stop-opacity:1;" />
      <stop
         id="stop5427"
         offset="1"
         style="stop-color:#3e9e7b;stop-opacity:1;" />
    </linearGradient>
    <linearGradient
       gradientTransform="matrix(0.21296761,0,0,0.21296761,66.391049,912.96738)"
       inkscape:collect="always"
       xlink:href="#linearGradient4829"
       id="linearGradient5448"
       gradientUnits="userSpaceOnUse"
       x1="173.1449"
       y1="-284.57474"
       x2="173.1449"
       y2="654.53522" />
    <clipPath
       id="clipPath-440877745">
      <g
         id="g17"
         transform="translate(0,-1004.3622)">
        <path
           id="path19"
           transform="matrix(15.333333,0,0,11.5,414.99999,878.8622)"
           d="m -24,13 c 0,1.105 -0.672,2 -1.5,2 -0.828,0 -1.5,-0.895 -1.5,-2 0,-1.105 0.672,-2 1.5,-2 0.828,0 1.5,0.895 1.5,2 z"
           inkscape:connector-curvature="0"
           style="fill:#1890d0" />
      </g>
    </clipPath>
  </defs>
  <sodipodi:namedview
     pagecolor="#ffffff"
     bordercolor="#666666"
     borderopacity="1"
     objecttolerance="10"
     gridtolerance="10"
     guidetolerance="10"
     inkscape:pageopacity="0"
     inkscape:pageshadow="2"
     inkscape:window-width="1920"
     inkscape:window-height="1040"
     id="namedview4"
     showgrid="false"
     inkscape:zoom="3.6874999"
     inkscape:cx="-42.834069"
     inkscape:cy="69.382465"
     inkscape:window-x="0"
     inkscape:window-y="0"
     inkscape:window-maximized="1"
     inkscape:current-layer="svg2" />
  <circle
     style="opacity:1;fill:url(#linearGradient825);fill-opacity:1;stroke:none;stroke-width:0.78699166;stroke-linecap:round;stroke-linejoin:round;stroke-miterlimit:4;stroke-dasharray:none;stroke-opacity:1"
     id="path817"
     cx="63.591888"
     cy="64.286316"
     r="61.380009" />
  <circle
     r="55.089832"
     cy="64.286316"
     cx="63.591888"
     id="circle827"
     style="opacity:1;fill:url(#linearGradient835);fill-opacity:1;stroke:none;stroke-width:0.70634133;stroke-linecap:round;stroke-linejoin:round;stroke-miterlimit:4;stroke-dasharray:none;stroke-opacity:1" />
  <g
     id="g4526"
     transform="translate(-1.3618699,-2.4175586)">
    <path
       id="path6"
       d="m 65.160721,29.716019 c -4.74375,0 -9.06457,4.05702 -12.16637,11.42355 -0.36499,0.86687 -0.70871,1.76949 -1.03166,2.70392 -0.97091,-0.1876 -1.92493,-0.34119 -2.8584,-0.45855 -7.93012,-0.99693 -13.60389,0.71747 -15.9766,4.82501 -2.37088,4.10754 -1.0173,9.87779 3.81153,16.24887 0.56815,0.74929 1.17747,1.49833 1.82511,2.24506 -0.64764,0.74672 -1.25728,1.49576 -1.82544,2.24505 -4.82882,6.37108 -6.1824,12.14133 -3.81152,16.24887 h 3.3e-4 c 2.37287,4.10738 8.04648,5.82178 15.9766,4.82501 0.93346,-0.11739 1.88749,-0.27093 2.8584,-0.45855 0.32287,0.93445 0.66668,1.8371 1.03166,2.70393 3.10179,7.36652 7.42262,11.423541 12.16637,11.423541 4.74392,0 9.06458,-4.056851 12.16637,-11.423541 0.36498,-0.86683 0.70879,-1.76948 1.03166,-2.70393 0.97092,0.18762 1.92491,0.34116 2.8584,0.45855 7.93012,0.99694 13.6039,-0.71747 15.9766,-4.82501 2.37088,-4.10754 1.0173,-9.87779 -3.81152,-16.24887 -0.56816,-0.74929 -1.17748,-1.49833 -1.82512,-2.24505 0.64764,-0.74673 1.25696,-1.49577 1.82512,-2.24505 4.82882,-6.37108 6.1824,-12.14134 3.81152,-16.24888 -2.3727,-4.10754 -8.04631,-5.82178 -15.9766,-4.82501 -0.93334,0.11737 -1.88729,0.27064 -2.85807,0.45823 -0.32294,-0.93434 -0.66701,-1.83681 -1.03199,-2.7036 -3.1018,-7.36653 -7.42263,-11.42355 -12.16638,-11.42355 z m 0,3.69892 c 3.11443,0 6.3063,3.33855 8.75726,9.15999 0.2859,0.67899 0.55747,1.38368 0.81585,2.10908 -3.09793,0.83029 -6.31943,1.97111 -9.57311,3.39289 -3.25368,-1.42168 -6.47517,-2.5626 -9.57311,-3.39289 0.25842,-0.7255 0.52992,-1.43 0.81586,-2.10908 2.45096,-5.82127 5.64299,-9.15999 8.75725,-9.15999 z m -20.3622,13.39145 c 1.18856,-0.005 2.47424,0.0772 3.84527,0.24956 0.72992,0.0918 1.47542,0.21021 2.23175,0.34886 -0.82961,3.09663 -1.45027,6.45817 -1.84654,9.98493 -2.85675,2.10704 -5.45801,4.32601 -7.72527,6.59333 -0.49893,-0.58628 -0.97348,-1.17332 -1.4185,-1.76021 -3.81543,-5.0322 -5.11009,-9.46708 -3.55287,-12.16345 1.21657,-2.10655 4.2213,-3.23554 8.46616,-3.25302 z m 40.72441,0 c 4.24486,0.0175 7.24959,1.14648 8.46616,3.25302 1.55704,2.69637 0.26239,7.13125 -3.55288,12.16345 -0.44505,0.58695 -0.9192,1.17419 -1.41817,1.76054 -2.26726,-2.26734 -4.86847,-4.48626 -7.72527,-6.59334 -0.39626,-3.52697 -1.01718,-6.88843 -1.84686,-9.98525 0.75632,-0.13865 1.50183,-0.25708 2.23174,-0.34886 1.37103,-0.17232 2.65672,-0.25447 3.84528,-0.24956 z m -31.03642,1.40875 c 2.00078,0.52921 4.0629,1.20129 6.15717,2.00393 -1.27221,0.65121 -2.54269,1.34057 -3.80535,2.07046 -1.26301,0.729 -2.49616,1.48402 -3.69632,2.25998 0.35238,-2.21522 0.80234,-4.3365 1.3445,-6.33437 z m 21.34843,0 c 0.54218,1.99791 0.9921,4.1191 1.3445,6.33437 -1.20025,-0.77601 -2.43354,-1.53092 -3.69664,-2.25998 -1.26259,-0.72989 -2.53284,-1.41925 -3.80504,-2.07046 2.09428,-0.80264 4.15639,-1.47472 6.15718,-2.00393 z m -10.67454,3.9157 c 2.15654,0.99494 4.32388,2.12104 6.47294,3.36206 2.14959,1.241 4.20697,2.55636 6.14906,3.92446 0.21366,2.36563 0.32388,4.8048 0.32388,7.28684 0,2.48204 -0.11022,4.92088 -0.32388,7.28652 -1.94205,1.36804 -3.99918,2.68322 -6.14874,3.92413 -2.14906,1.24086 -4.31657,2.36712 -6.47294,3.36206 -2.15637,-0.99494 -4.32372,-2.1212 -6.47261,-3.36206 -2.14959,-1.24099 -4.20697,-2.55636 -6.14907,-3.92446 -0.21364,-2.36556 -0.32387,-4.80455 -0.32387,-7.28651 0,-2.48208 0.11021,-4.92118 0.32387,-7.28685 1.94206,-1.36804 3.99918,-2.68322 6.14874,-3.92413 2.14898,-1.2408 4.31633,-2.36715 6.47262,-3.36206 z m 3.3e-4,5.32607 c -5.1068,0 -9.24696,4.14 -9.24696,9.24697 0,5.10696 4.13999,9.24696 9.24696,9.24696 5.1068,0 9.24696,-4.14 9.24696,-9.24696 0,-5.10697 -4.13999,-9.24697 -9.24696,-9.24697 z m -16.53543,4.91588 c -0.072,1.42732 -0.10904,2.87282 -0.10904,4.33109 0,1.45815 0.0371,2.90354 0.10904,4.33076 -1.74198,-1.41263 -3.35362,-2.86282 -4.81268,-4.33109 1.45895,-1.46816 3.07083,-2.91823 4.81268,-4.33076 z m 33.07086,3.3e-4 c 1.74198,1.41263 3.35362,2.86282 4.81268,4.33109 -1.45895,1.46816 -3.07083,2.91823 -4.81268,4.33076 0.072,-1.42732 0.10904,-2.87283 0.10904,-4.33109 0,-1.45815 -0.0371,-2.90355 -0.10904,-4.33076 z m -40.39275,7.05124 c 2.26734,2.26744 4.86871,4.48651 7.7256,6.59366 0.39635,3.52747 1.01928,6.88719 1.84881,9.98461 -0.75711,0.13885 -1.50337,0.25761 -2.23402,0.34951 -6.26757,0.78774 -10.75422,-0.30709 -12.31144,-3.00346 v -3.4e-4 c -1.55704,-2.69637 -0.26239,-7.13125 3.55288,-12.16345 0.44505,-0.58695 0.9192,-1.17419 1.41817,-1.76054 z m 47.71432,3.3e-4 c 0.49892,0.58629 0.97347,1.17333 1.41849,1.76022 3.81543,5.03219 5.11009,9.46707 3.55288,12.16345 -1.55722,2.69638 -6.04387,3.79105 -12.31144,3.00314 -0.73064,-0.0919 -1.47692,-0.21003 -2.23402,-0.34886 0.82953,-3.09742 1.45246,-6.45714 1.84881,-9.98461 2.85676,-2.10704 5.45801,-4.32601 7.72528,-6.59334 z m -35.87571,9.43357 c 1.20016,0.77595 2.43331,1.53098 3.69631,2.25998 1.2626,0.72989 2.53312,1.4193 3.80536,2.07046 -2.09438,0.80269 -4.15662,1.47501 -6.1575,2.00425 -0.54191,-1.99796 -0.9918,-4.11957 -1.34417,-6.33469 z m 24.03775,0 c -0.35235,2.21507 -0.80222,4.33644 -1.34417,6.33436 -2.00086,-0.5292 -4.06314,-1.20126 -6.15751,-2.00392 1.27218,-0.65112 2.5426,-1.34062 3.80504,-2.07046 1.26308,-0.72904 2.4964,-1.48397 3.69664,-2.25998 z m -12.01904,6.4726 c 3.25379,1.42182 6.47542,2.56259 9.57343,3.39289 -0.25843,0.72574 -0.53016,1.43014 -0.81617,2.1094 -2.45097,5.82127 -5.643,9.15999 -8.75726,9.15999 v -3.3e-4 c -3.11426,0 -6.30613,-3.33872 -8.75726,-9.16 -0.28596,-0.67915 -0.55779,-1.38345 -0.81617,-2.10907 3.09802,-0.8303 6.31965,-1.97107 9.57343,-3.39289 z"
       style="fill:#4d4d4d;stroke-width:0.16615586"
       inkscape:connector-curvature="0" />
    <path
       id="circle30"
       d="m 72.871505,33.414939 a 3.6987956,3.6987956 0 0 0 -3.69891,3.69859 3.6987956,3.6987956 0 0 0 3.69891,3.69892 3.6987956,3.6987956 0 0 0 3.69892,-3.69892 3.6987956,3.6987956 0 0 0 -3.69892,-3.69859 z m -37.59892,37.47236 a 3.6987956,3.6987956 0 0 0 -3.69892,3.69859 3.6987956,3.6987956 0 0 0 3.69892,3.69892 3.6987956,3.6987956 0 0 0 3.69891,-3.69892 3.6987956,3.6987956 0 0 0 -3.69891,-3.69859 z m 51.25096,13.82599 a 3.6987956,3.6987956 0 0 0 -3.69859,3.69859 3.6987956,3.6987956 0 0 0 3.69859,3.69892 3.6987956,3.6987956 0 0 0 3.69892,-3.69892 3.6987956,3.6987956 0 0 0 -3.69892,-3.69859 z"
       style="fill:#ffe000;fill-opacity:1;stroke-width:0.16615586"
       inkscape:connector-curvature="0" />
  </g>
</svg>
