<?xml version="1.0" encoding="UTF-8" standalone="no"?>
<!-- Created with Inkscape (http://www.inkscape.org/) -->

<svg
   xmlns:dc="http://purl.org/dc/elements/1.1/"
   xmlns:cc="http://creativecommons.org/ns#"
   xmlns:rdf="http://www.w3.org/1999/02/22-rdf-syntax-ns#"
   xmlns:svg="http://www.w3.org/2000/svg"
   xmlns="http://www.w3.org/2000/svg"
   xmlns:xlink="http://www.w3.org/1999/xlink"
   xmlns:sodipodi="http://sodipodi.sourceforge.net/DTD/sodipodi-0.dtd"
   xmlns:inkscape="http://www.inkscape.org/namespaces/inkscape"
   version="1.1"
   id="svg2"
   width="128"
   height="128"
   viewBox="0 0 128 128"
   sodipodi:docname="emerald.svg"
   inkscape:version="0.92.1 r15371">
  <metadata
     id="metadata8">
    <rdf:RDF>
      <cc:Work
         rdf:about="">
        <dc:format>image/svg+xml</dc:format>
        <dc:type
           rdf:resource="http://purl.org/dc/dcmitype/StillImage" />
        <dc:title></dc:title>
      </cc:Work>
    </rdf:RDF>
  </metadata>
  <defs
     id="defs6">
    <linearGradient
       inkscape:collect="always"
       id="linearGradient4760">
      <stop
         style="stop-color:#0ec49f;stop-opacity:1;"
         offset="0"
         id="stop4756" />
      <stop
         style="stop-color:#0db990;stop-opacity:1"
         offset="1"
         id="stop4758" />
    </linearGradient>
    <linearGradient
       inkscape:collect="always"
       id="linearGradient833">
      <stop
         style="stop-color:#dfe3e8;stop-opacity:1"
         offset="0"
         id="stop829" />
      <stop
         style="stop-color:#fefeff;stop-opacity:1"
         offset="1"
         id="stop831" />
    </linearGradient>
    <linearGradient
       inkscape:collect="always"
       id="linearGradient823">
      <stop
         style="stop-color:#ccd4da;stop-opacity:1"
         offset="0"
         id="stop819" />
      <stop
         style="stop-color:#ffffff;stop-opacity:1"
         offset="1"
         id="stop821" />
    </linearGradient>
    <linearGradient
       inkscape:collect="always"
       xlink:href="#linearGradient823"
       id="linearGradient825"
       x1="-741.83197"
       y1="959.04749"
       x2="-741.83197"
       y2="93.836403"
       gradientUnits="userSpaceOnUse"
       gradientTransform="matrix(0.13667801,0,0,0.13667801,162.31231,-5.989337)" />
    <linearGradient
       inkscape:collect="always"
       xlink:href="#linearGradient833"
       id="linearGradient835"
       x1="-738.76385"
       y1="931.43433"
       x2="-738.76385"
       y2="152.13077"
       gradientUnits="userSpaceOnUse"
       gradientTransform="matrix(0.13667801,0,0,0.13667801,162.31231,-5.989337)" />
    <linearGradient
       y2="1015.36"
       x2="0"
       y1="1061.36"
       gradientUnits="userSpaceOnUse"
       id="0">
      <stop
         id="stop4544"
         stop-color="#ec396c" />
      <stop
         id="stop4546"
         stop-color="#ff709a"
         offset="1" />
    </linearGradient>
    <linearGradient
       inkscape:collect="always"
       xlink:href="#linearGradient4760"
       id="linearGradient4762"
       x1="63.086845"
       y1="46.574429"
       x2="67.69487"
       y2="85.497505"
       gradientUnits="userSpaceOnUse"
       gradientTransform="translate(2e-6)" />
  </defs>
  <sodipodi:namedview
     pagecolor="#ffffff"
     bordercolor="#666666"
     borderopacity="1"
     objecttolerance="10"
     gridtolerance="10"
     guidetolerance="10"
     inkscape:pageopacity="0"
     inkscape:pageshadow="2"
     inkscape:window-width="1920"
     inkscape:window-height="1040"
     id="namedview4"
     showgrid="false"
     inkscape:zoom="3.057312"
     inkscape:cx="79.123374"
     inkscape:cy="46.553744"
     inkscape:window-x="0"
     inkscape:window-y="0"
     inkscape:window-maximized="1"
     inkscape:current-layer="svg2" />
  <circle
     style="opacity:1;fill:url(#linearGradient825);fill-opacity:1;stroke:none;stroke-width:0.78699166;stroke-linecap:round;stroke-linejoin:round;stroke-miterlimit:4;stroke-dasharray:none;stroke-opacity:1"
     id="path817"
     cx="63.591888"
     cy="64.286316"
     r="61.380009" />
  <circle
     r="55.089832"
     cy="64.286316"
     cx="63.591888"
     id="circle827"
     style="opacity:1;fill:url(#linearGradient835);fill-opacity:1;stroke:none;stroke-width:0.70634133;stroke-linecap:round;stroke-linejoin:round;stroke-miterlimit:4;stroke-dasharray:none;stroke-opacity:1" />
  <g
     id="g4858"
     style="opacity:0.454">
    <path
       id="path4592"
       d="M 82.66348,43.290863 74.265,55.986591 65.58435,43.290863 H 82.66348 M 72.93167,58.890194 H 54.2995 l 9.31393,35.429135 9.31609,-35.429135 M 54.91985,56.809424 H 72.3027 L 63.60051,44.094308 54.89831,56.809424 M 52.94247,55.986591 61.62313,43.290863 H 44.54615 l 8.39847,12.695728 M 61.62528,94.995688 52.13472,58.898811 H 31.68671 L 61.62528,94.995688 M 31.71687,56.818037 H 51.00171 L 42.60107,44.120158 31.72333,56.818037 M 84.59132,44.141698 76.20577,56.818037 H 95.4583 L 84.60209,44.141698 M 75.08137,58.896658 65.59081,94.99138 95.49707,58.896658 H 75.08353"
       inkscape:connector-curvature="0"
       style="fill:none;fill-opacity:1;stroke:#00ac8f;stroke-width:0.05;stroke-linecap:round;stroke-linejoin:round;stroke-miterlimit:4;stroke-dasharray:none;stroke-opacity:0.02000002" />
    <path
       style="fill:none;fill-opacity:1;stroke:#00ac8f;stroke-width:0.1;stroke-linecap:round;stroke-linejoin:round;stroke-miterlimit:4;stroke-dasharray:none;stroke-opacity:0.02000002"
       inkscape:connector-curvature="0"
       d="M 82.66348,43.290863 74.265,55.986591 65.58435,43.290863 H 82.66348 M 72.93167,58.890194 H 54.2995 l 9.31393,35.429135 9.31609,-35.429135 M 54.91985,56.809424 H 72.3027 L 63.60051,44.094308 54.89831,56.809424 M 52.94247,55.986591 61.62313,43.290863 H 44.54615 l 8.39847,12.695728 M 61.62528,94.995688 52.13472,58.898811 H 31.68671 L 61.62528,94.995688 M 31.71687,56.818037 H 51.00171 L 42.60107,44.120158 31.72333,56.818037 M 84.59132,44.141698 76.20577,56.818037 H 95.4583 L 84.60209,44.141698 M 75.08137,58.896658 65.59081,94.99138 95.49707,58.896658 H 75.08353"
       id="path4596" />
    <path
       id="path4598"
       d="M 82.66348,43.290863 74.265,55.986591 65.58435,43.290863 H 82.66348 M 72.93167,58.890194 H 54.2995 l 9.31393,35.429135 9.31609,-35.429135 M 54.91985,56.809424 H 72.3027 L 63.60051,44.094308 54.89831,56.809424 M 52.94247,55.986591 61.62313,43.290863 H 44.54615 l 8.39847,12.695728 M 61.62528,94.995688 52.13472,58.898811 H 31.68671 L 61.62528,94.995688 M 31.71687,56.818037 H 51.00171 L 42.60107,44.120158 31.72333,56.818037 M 84.59132,44.141698 76.20577,56.818037 H 95.4583 L 84.60209,44.141698 M 75.08137,58.896658 65.59081,94.99138 95.49707,58.896658 H 75.08353"
       inkscape:connector-curvature="0"
       style="fill:none;fill-opacity:1;stroke:#00ac8f;stroke-width:0.2;stroke-linecap:round;stroke-linejoin:round;stroke-miterlimit:4;stroke-dasharray:none;stroke-opacity:0.02000002" />
    <path
       style="fill:none;fill-opacity:1;stroke:#00ac8f;stroke-width:0.25;stroke-linecap:round;stroke-linejoin:round;stroke-miterlimit:4;stroke-dasharray:none;stroke-opacity:0.02000002"
       inkscape:connector-curvature="0"
       d="M 82.66348,43.290863 74.265,55.986591 65.58435,43.290863 H 82.66348 M 72.93167,58.890194 H 54.2995 l 9.31393,35.429135 9.31609,-35.429135 M 54.91985,56.809424 H 72.3027 L 63.60051,44.094308 54.89831,56.809424 M 52.94247,55.986591 61.62313,43.290863 H 44.54615 l 8.39847,12.695728 M 61.62528,94.995688 52.13472,58.898811 H 31.68671 L 61.62528,94.995688 M 31.71687,56.818037 H 51.00171 L 42.60107,44.120158 31.72333,56.818037 M 84.59132,44.141698 76.20577,56.818037 H 95.4583 L 84.60209,44.141698 M 75.08137,58.896658 65.59081,94.99138 95.49707,58.896658 H 75.08353"
       id="path4600" />
    <path
       id="path4602"
       d="M 82.66348,43.290863 74.265,55.986591 65.58435,43.290863 H 82.66348 M 72.93167,58.890194 H 54.2995 l 9.31393,35.429135 9.31609,-35.429135 M 54.91985,56.809424 H 72.3027 L 63.60051,44.094308 54.89831,56.809424 M 52.94247,55.986591 61.62313,43.290863 H 44.54615 l 8.39847,12.695728 M 61.62528,94.995688 52.13472,58.898811 H 31.68671 L 61.62528,94.995688 M 31.71687,56.818037 H 51.00171 L 42.60107,44.120158 31.72333,56.818037 M 84.59132,44.141698 76.20577,56.818037 H 95.4583 L 84.60209,44.141698 M 75.08137,58.896658 65.59081,94.99138 95.49707,58.896658 H 75.08353"
       inkscape:connector-curvature="0"
       style="fill:none;fill-opacity:1;stroke:#00ac8f;stroke-width:0.30000001;stroke-linecap:round;stroke-linejoin:round;stroke-miterlimit:4;stroke-dasharray:none;stroke-opacity:0.02000002" />
    <path
       style="fill:none;fill-opacity:1;stroke:#00ac8f;stroke-width:0.34999999;stroke-linecap:round;stroke-linejoin:round;stroke-miterlimit:4;stroke-dasharray:none;stroke-opacity:0.02000002"
       inkscape:connector-curvature="0"
       d="M 82.66348,43.290863 74.265,55.986591 65.58435,43.290863 H 82.66348 M 72.93167,58.890194 H 54.2995 l 9.31393,35.429135 9.31609,-35.429135 M 54.91985,56.809424 H 72.3027 L 63.60051,44.094308 54.89831,56.809424 M 52.94247,55.986591 61.62313,43.290863 H 44.54615 l 8.39847,12.695728 M 61.62528,94.995688 52.13472,58.898811 H 31.68671 L 61.62528,94.995688 M 31.71687,56.818037 H 51.00171 L 42.60107,44.120158 31.72333,56.818037 M 84.59132,44.141698 76.20577,56.818037 H 95.4583 L 84.60209,44.141698 M 75.08137,58.896658 65.59081,94.99138 95.49707,58.896658 H 75.08353"
       id="path4604" />
    <path
       id="path4606"
       d="M 82.66348,43.290863 74.265,55.986591 65.58435,43.290863 H 82.66348 M 72.93167,58.890194 H 54.2995 l 9.31393,35.429135 9.31609,-35.429135 M 54.91985,56.809424 H 72.3027 L 63.60051,44.094308 54.89831,56.809424 M 52.94247,55.986591 61.62313,43.290863 H 44.54615 l 8.39847,12.695728 M 61.62528,94.995688 52.13472,58.898811 H 31.68671 L 61.62528,94.995688 M 31.71687,56.818037 H 51.00171 L 42.60107,44.120158 31.72333,56.818037 M 84.59132,44.141698 76.20577,56.818037 H 95.4583 L 84.60209,44.141698 M 75.08137,58.896658 65.59081,94.99138 95.49707,58.896658 H 75.08353"
       inkscape:connector-curvature="0"
       style="fill:none;fill-opacity:1;stroke:#00ac8f;stroke-width:0.40000001;stroke-linecap:round;stroke-linejoin:round;stroke-miterlimit:4;stroke-dasharray:none;stroke-opacity:0.02000002" />
    <path
       style="fill:none;fill-opacity:1;stroke:#00ac8f;stroke-width:0.44999999;stroke-linecap:round;stroke-linejoin:round;stroke-miterlimit:4;stroke-dasharray:none;stroke-opacity:0.02000002"
       inkscape:connector-curvature="0"
       d="M 82.66348,43.290863 74.265,55.986591 65.58435,43.290863 H 82.66348 M 72.93167,58.890194 H 54.2995 l 9.31393,35.429135 9.31609,-35.429135 M 54.91985,56.809424 H 72.3027 L 63.60051,44.094308 54.89831,56.809424 M 52.94247,55.986591 61.62313,43.290863 H 44.54615 l 8.39847,12.695728 M 61.62528,94.995688 52.13472,58.898811 H 31.68671 L 61.62528,94.995688 M 31.71687,56.818037 H 51.00171 L 42.60107,44.120158 31.72333,56.818037 M 84.59132,44.141698 76.20577,56.818037 H 95.4583 L 84.60209,44.141698 M 75.08137,58.896658 65.59081,94.99138 95.49707,58.896658 H 75.08353"
       id="path4608" />
    <path
       id="path4610"
       d="M 82.66348,43.290863 74.265,55.986591 65.58435,43.290863 H 82.66348 M 72.93167,58.890194 H 54.2995 l 9.31393,35.429135 9.31609,-35.429135 M 54.91985,56.809424 H 72.3027 L 63.60051,44.094308 54.89831,56.809424 M 52.94247,55.986591 61.62313,43.290863 H 44.54615 l 8.39847,12.695728 M 61.62528,94.995688 52.13472,58.898811 H 31.68671 L 61.62528,94.995688 M 31.71687,56.818037 H 51.00171 L 42.60107,44.120158 31.72333,56.818037 M 84.59132,44.141698 76.20577,56.818037 H 95.4583 L 84.60209,44.141698 M 75.08137,58.896658 65.59081,94.99138 95.49707,58.896658 H 75.08353"
       inkscape:connector-curvature="0"
       style="fill:none;fill-opacity:1;stroke:#00ac8f;stroke-width:0.5;stroke-linecap:round;stroke-linejoin:round;stroke-miterlimit:4;stroke-dasharray:none;stroke-opacity:0.02000002" />
    <path
       style="fill:none;fill-opacity:1;stroke:#00ac8f;stroke-width:0.55000001;stroke-linecap:round;stroke-linejoin:round;stroke-miterlimit:4;stroke-dasharray:none;stroke-opacity:0.02000002"
       inkscape:connector-curvature="0"
       d="M 82.66348,43.290863 74.265,55.986591 65.58435,43.290863 H 82.66348 M 72.93167,58.890194 H 54.2995 l 9.31393,35.429135 9.31609,-35.429135 M 54.91985,56.809424 H 72.3027 L 63.60051,44.094308 54.89831,56.809424 M 52.94247,55.986591 61.62313,43.290863 H 44.54615 l 8.39847,12.695728 M 61.62528,94.995688 52.13472,58.898811 H 31.68671 L 61.62528,94.995688 M 31.71687,56.818037 H 51.00171 L 42.60107,44.120158 31.72333,56.818037 M 84.59132,44.141698 76.20577,56.818037 H 95.4583 L 84.60209,44.141698 M 75.08137,58.896658 65.59081,94.99138 95.49707,58.896658 H 75.08353"
       id="path4612" />
    <path
       id="path4614"
       d="M 82.66348,43.290863 74.265,55.986591 65.58435,43.290863 H 82.66348 M 72.93167,58.890194 H 54.2995 l 9.31393,35.429135 9.31609,-35.429135 M 54.91985,56.809424 H 72.3027 L 63.60051,44.094308 54.89831,56.809424 M 52.94247,55.986591 61.62313,43.290863 H 44.54615 l 8.39847,12.695728 M 61.62528,94.995688 52.13472,58.898811 H 31.68671 L 61.62528,94.995688 M 31.71687,56.818037 H 51.00171 L 42.60107,44.120158 31.72333,56.818037 M 84.59132,44.141698 76.20577,56.818037 H 95.4583 L 84.60209,44.141698 M 75.08137,58.896658 65.59081,94.99138 95.49707,58.896658 H 75.08353"
       inkscape:connector-curvature="0"
       style="fill:none;fill-opacity:1;stroke:#00ac8f;stroke-width:0.60000002;stroke-linecap:round;stroke-linejoin:round;stroke-miterlimit:4;stroke-dasharray:none;stroke-opacity:0.02000002" />
    <path
       style="fill:none;fill-opacity:1;stroke:#00ac8f;stroke-width:0.64999998;stroke-linecap:round;stroke-linejoin:round;stroke-miterlimit:4;stroke-dasharray:none;stroke-opacity:0.02000002"
       inkscape:connector-curvature="0"
       d="M 82.66348,43.290863 74.265,55.986591 65.58435,43.290863 H 82.66348 M 72.93167,58.890194 H 54.2995 l 9.31393,35.429135 9.31609,-35.429135 M 54.91985,56.809424 H 72.3027 L 63.60051,44.094308 54.89831,56.809424 M 52.94247,55.986591 61.62313,43.290863 H 44.54615 l 8.39847,12.695728 M 61.62528,94.995688 52.13472,58.898811 H 31.68671 L 61.62528,94.995688 M 31.71687,56.818037 H 51.00171 L 42.60107,44.120158 31.72333,56.818037 M 84.59132,44.141698 76.20577,56.818037 H 95.4583 L 84.60209,44.141698 M 75.08137,58.896658 65.59081,94.99138 95.49707,58.896658 H 75.08353"
       id="path4616" />
    <path
       id="path4618"
       d="M 82.66348,43.290863 74.265,55.986591 65.58435,43.290863 H 82.66348 M 72.93167,58.890194 H 54.2995 l 9.31393,35.429135 9.31609,-35.429135 M 54.91985,56.809424 H 72.3027 L 63.60051,44.094308 54.89831,56.809424 M 52.94247,55.986591 61.62313,43.290863 H 44.54615 l 8.39847,12.695728 M 61.62528,94.995688 52.13472,58.898811 H 31.68671 L 61.62528,94.995688 M 31.71687,56.818037 H 51.00171 L 42.60107,44.120158 31.72333,56.818037 M 84.59132,44.141698 76.20577,56.818037 H 95.4583 L 84.60209,44.141698 M 75.08137,58.896658 65.59081,94.99138 95.49707,58.896658 H 75.08353"
       inkscape:connector-curvature="0"
       style="fill:none;fill-opacity:1;stroke:#00ac8f;stroke-width:0.69999999;stroke-linecap:round;stroke-linejoin:round;stroke-miterlimit:4;stroke-dasharray:none;stroke-opacity:0.02000002" />
    <path
       style="fill:none;fill-opacity:1;stroke:#00ac8f;stroke-width:0.75;stroke-linecap:round;stroke-linejoin:round;stroke-miterlimit:4;stroke-dasharray:none;stroke-opacity:0.02000002"
       inkscape:connector-curvature="0"
       d="M 82.66348,43.290863 74.265,55.986591 65.58435,43.290863 H 82.66348 M 72.93167,58.890194 H 54.2995 l 9.31393,35.429135 9.31609,-35.429135 M 54.91985,56.809424 H 72.3027 L 63.60051,44.094308 54.89831,56.809424 M 52.94247,55.986591 61.62313,43.290863 H 44.54615 l 8.39847,12.695728 M 61.62528,94.995688 52.13472,58.898811 H 31.68671 L 61.62528,94.995688 M 31.71687,56.818037 H 51.00171 L 42.60107,44.120158 31.72333,56.818037 M 84.59132,44.141698 76.20577,56.818037 H 95.4583 L 84.60209,44.141698 M 75.08137,58.896658 65.59081,94.99138 95.49707,58.896658 H 75.08353"
       id="path4620" />
    <path
       id="path4622"
       d="M 82.66348,43.290863 74.265,55.986591 65.58435,43.290863 H 82.66348 M 72.93167,58.890194 H 54.2995 l 9.31393,35.429135 9.31609,-35.429135 M 54.91985,56.809424 H 72.3027 L 63.60051,44.094308 54.89831,56.809424 M 52.94247,55.986591 61.62313,43.290863 H 44.54615 l 8.39847,12.695728 M 61.62528,94.995688 52.13472,58.898811 H 31.68671 L 61.62528,94.995688 M 31.71687,56.818037 H 51.00171 L 42.60107,44.120158 31.72333,56.818037 M 84.59132,44.141698 76.20577,56.818037 H 95.4583 L 84.60209,44.141698 M 75.08137,58.896658 65.59081,94.99138 95.49707,58.896658 H 75.08353"
       inkscape:connector-curvature="0"
       style="fill:none;fill-opacity:1;stroke:#00ac8f;stroke-width:0.80000001;stroke-linecap:round;stroke-linejoin:round;stroke-miterlimit:4;stroke-dasharray:none;stroke-opacity:0.02000002" />
    <path
       style="fill:none;fill-opacity:1;stroke:#00ac8f;stroke-width:0.85000002;stroke-linecap:round;stroke-linejoin:round;stroke-miterlimit:4;stroke-dasharray:none;stroke-opacity:0.02000002"
       inkscape:connector-curvature="0"
       d="M 82.66348,43.290863 74.265,55.986591 65.58435,43.290863 H 82.66348 M 72.93167,58.890194 H 54.2995 l 9.31393,35.429135 9.31609,-35.429135 M 54.91985,56.809424 H 72.3027 L 63.60051,44.094308 54.89831,56.809424 M 52.94247,55.986591 61.62313,43.290863 H 44.54615 l 8.39847,12.695728 M 61.62528,94.995688 52.13472,58.898811 H 31.68671 L 61.62528,94.995688 M 31.71687,56.818037 H 51.00171 L 42.60107,44.120158 31.72333,56.818037 M 84.59132,44.141698 76.20577,56.818037 H 95.4583 L 84.60209,44.141698 M 75.08137,58.896658 65.59081,94.99138 95.49707,58.896658 H 75.08353"
       id="path4624" />
    <path
       id="path4626"
       d="M 82.66348,43.290863 74.265,55.986591 65.58435,43.290863 H 82.66348 M 72.93167,58.890194 H 54.2995 l 9.31393,35.429135 9.31609,-35.429135 M 54.91985,56.809424 H 72.3027 L 63.60051,44.094308 54.89831,56.809424 M 52.94247,55.986591 61.62313,43.290863 H 44.54615 l 8.39847,12.695728 M 61.62528,94.995688 52.13472,58.898811 H 31.68671 L 61.62528,94.995688 M 31.71687,56.818037 H 51.00171 L 42.60107,44.120158 31.72333,56.818037 M 84.59132,44.141698 76.20577,56.818037 H 95.4583 L 84.60209,44.141698 M 75.08137,58.896658 65.59081,94.99138 95.49707,58.896658 H 75.08353"
       inkscape:connector-curvature="0"
       style="fill:none;fill-opacity:1;stroke:#00ac8f;stroke-width:0.89999998;stroke-linecap:round;stroke-linejoin:round;stroke-miterlimit:4;stroke-dasharray:none;stroke-opacity:0.02000002" />
    <path
       style="fill:none;fill-opacity:1;stroke:#00ac8f;stroke-width:0.94999999;stroke-linecap:round;stroke-linejoin:round;stroke-miterlimit:4;stroke-dasharray:none;stroke-opacity:0.02000002"
       inkscape:connector-curvature="0"
       d="M 82.66348,43.290863 74.265,55.986591 65.58435,43.290863 H 82.66348 M 72.93167,58.890194 H 54.2995 l 9.31393,35.429135 9.31609,-35.429135 M 54.91985,56.809424 H 72.3027 L 63.60051,44.094308 54.89831,56.809424 M 52.94247,55.986591 61.62313,43.290863 H 44.54615 l 8.39847,12.695728 M 61.62528,94.995688 52.13472,58.898811 H 31.68671 L 61.62528,94.995688 M 31.71687,56.818037 H 51.00171 L 42.60107,44.120158 31.72333,56.818037 M 84.59132,44.141698 76.20577,56.818037 H 95.4583 L 84.60209,44.141698 M 75.08137,58.896658 65.59081,94.99138 95.49707,58.896658 H 75.08353"
       id="path4628" />
    <path
       id="path4630"
       d="M 82.66348,43.290863 74.265,55.986591 65.58435,43.290863 H 82.66348 M 72.93167,58.890194 H 54.2995 l 9.31393,35.429135 9.31609,-35.429135 M 54.91985,56.809424 H 72.3027 L 63.60051,44.094308 54.89831,56.809424 M 52.94247,55.986591 61.62313,43.290863 H 44.54615 l 8.39847,12.695728 M 61.62528,94.995688 52.13472,58.898811 H 31.68671 L 61.62528,94.995688 M 31.71687,56.818037 H 51.00171 L 42.60107,44.120158 31.72333,56.818037 M 84.59132,44.141698 76.20577,56.818037 H 95.4583 L 84.60209,44.141698 M 75.08137,58.896658 65.59081,94.99138 95.49707,58.896658 H 75.08353"
       inkscape:connector-curvature="0"
       style="fill:none;fill-opacity:1;stroke:#00ac8f;stroke-width:1;stroke-linecap:round;stroke-linejoin:round;stroke-miterlimit:4;stroke-dasharray:none;stroke-opacity:0.02000002" />
    <path
       style="fill:none;fill-opacity:1;stroke:#00ac8f;stroke-width:1.10000002;stroke-linecap:round;stroke-linejoin:round;stroke-miterlimit:4;stroke-dasharray:none;stroke-opacity:0.02000002"
       inkscape:connector-curvature="0"
       d="M 82.66348,43.290863 74.265,55.986591 65.58435,43.290863 H 82.66348 M 72.93167,58.890194 H 54.2995 l 9.31393,35.429135 9.31609,-35.429135 M 54.91985,56.809424 H 72.3027 L 63.60051,44.094308 54.89831,56.809424 M 52.94247,55.986591 61.62313,43.290863 H 44.54615 l 8.39847,12.695728 M 61.62528,94.995688 52.13472,58.898811 H 31.68671 L 61.62528,94.995688 M 31.71687,56.818037 H 51.00171 L 42.60107,44.120158 31.72333,56.818037 M 84.59132,44.141698 76.20577,56.818037 H 95.4583 L 84.60209,44.141698 M 75.08137,58.896658 65.59081,94.99138 95.49707,58.896658 H 75.08353"
       id="path4632" />
    <path
       id="path4634"
       d="M 82.66348,43.290863 74.265,55.986591 65.58435,43.290863 H 82.66348 M 72.93167,58.890194 H 54.2995 l 9.31393,35.429135 9.31609,-35.429135 M 54.91985,56.809424 H 72.3027 L 63.60051,44.094308 54.89831,56.809424 M 52.94247,55.986591 61.62313,43.290863 H 44.54615 l 8.39847,12.695728 M 61.62528,94.995688 52.13472,58.898811 H 31.68671 L 61.62528,94.995688 M 31.71687,56.818037 H 51.00171 L 42.60107,44.120158 31.72333,56.818037 M 84.59132,44.141698 76.20577,56.818037 H 95.4583 L 84.60209,44.141698 M 75.08137,58.896658 65.59081,94.99138 95.49707,58.896658 H 75.08353"
       inkscape:connector-curvature="0"
       style="fill:none;fill-opacity:1;stroke:#00ac8f;stroke-width:1.20000005;stroke-linecap:round;stroke-linejoin:round;stroke-miterlimit:4;stroke-dasharray:none;stroke-opacity:0.02000002" />
    <path
       style="fill:none;fill-opacity:1;stroke:#00ac8f;stroke-width:1.29999995;stroke-linecap:round;stroke-linejoin:round;stroke-miterlimit:4;stroke-dasharray:none;stroke-opacity:0.02000002"
       inkscape:connector-curvature="0"
       d="M 82.66348,43.290863 74.265,55.986591 65.58435,43.290863 H 82.66348 M 72.93167,58.890194 H 54.2995 l 9.31393,35.429135 9.31609,-35.429135 M 54.91985,56.809424 H 72.3027 L 63.60051,44.094308 54.89831,56.809424 M 52.94247,55.986591 61.62313,43.290863 H 44.54615 l 8.39847,12.695728 M 61.62528,94.995688 52.13472,58.898811 H 31.68671 L 61.62528,94.995688 M 31.71687,56.818037 H 51.00171 L 42.60107,44.120158 31.72333,56.818037 M 84.59132,44.141698 76.20577,56.818037 H 95.4583 L 84.60209,44.141698 M 75.08137,58.896658 65.59081,94.99138 95.49707,58.896658 H 75.08353"
       id="path4636" />
    <path
       id="path4638"
       d="M 82.66348,43.290863 74.265,55.986591 65.58435,43.290863 H 82.66348 M 72.93167,58.890194 H 54.2995 l 9.31393,35.429135 9.31609,-35.429135 M 54.91985,56.809424 H 72.3027 L 63.60051,44.094308 54.89831,56.809424 M 52.94247,55.986591 61.62313,43.290863 H 44.54615 l 8.39847,12.695728 M 61.62528,94.995688 52.13472,58.898811 H 31.68671 L 61.62528,94.995688 M 31.71687,56.818037 H 51.00171 L 42.60107,44.120158 31.72333,56.818037 M 84.59132,44.141698 76.20577,56.818037 H 95.4583 L 84.60209,44.141698 M 75.08137,58.896658 65.59081,94.99138 95.49707,58.896658 H 75.08353"
       inkscape:connector-curvature="0"
       style="fill:none;fill-opacity:1;stroke:#00ac8f;stroke-width:1.39999998;stroke-linecap:round;stroke-linejoin:round;stroke-miterlimit:4;stroke-dasharray:none;stroke-opacity:0.02000002" />
    <path
       style="fill:none;fill-opacity:1;stroke:#00ac8f;stroke-width:1.5;stroke-linecap:round;stroke-linejoin:round;stroke-miterlimit:4;stroke-dasharray:none;stroke-opacity:0.02000002"
       inkscape:connector-curvature="0"
       d="M 82.66348,43.290863 74.265,55.986591 65.58435,43.290863 H 82.66348 M 72.93167,58.890194 H 54.2995 l 9.31393,35.429135 9.31609,-35.429135 M 54.91985,56.809424 H 72.3027 L 63.60051,44.094308 54.89831,56.809424 M 52.94247,55.986591 61.62313,43.290863 H 44.54615 l 8.39847,12.695728 M 61.62528,94.995688 52.13472,58.898811 H 31.68671 L 61.62528,94.995688 M 31.71687,56.818037 H 51.00171 L 42.60107,44.120158 31.72333,56.818037 M 84.59132,44.141698 76.20577,56.818037 H 95.4583 L 84.60209,44.141698 M 75.08137,58.896658 65.59081,94.99138 95.49707,58.896658 H 75.08353"
       id="path4640" />
    <path
       id="path4642"
       d="M 82.66348,43.290863 74.265,55.986591 65.58435,43.290863 H 82.66348 M 72.93167,58.890194 H 54.2995 l 9.31393,35.429135 9.31609,-35.429135 M 54.91985,56.809424 H 72.3027 L 63.60051,44.094308 54.89831,56.809424 M 52.94247,55.986591 61.62313,43.290863 H 44.54615 l 8.39847,12.695728 M 61.62528,94.995688 52.13472,58.898811 H 31.68671 L 61.62528,94.995688 M 31.71687,56.818037 H 51.00171 L 42.60107,44.120158 31.72333,56.818037 M 84.59132,44.141698 76.20577,56.818037 H 95.4583 L 84.60209,44.141698 M 75.08137,58.896658 65.59081,94.99138 95.49707,58.896658 H 75.08353"
       inkscape:connector-curvature="0"
       style="fill:none;fill-opacity:1;stroke:#00ac8f;stroke-width:1.60000002;stroke-linecap:round;stroke-linejoin:round;stroke-miterlimit:4;stroke-dasharray:none;stroke-opacity:0.02000002" />
    <path
       style="fill:none;fill-opacity:1;stroke:#00ac8f;stroke-width:1.79999995;stroke-linecap:round;stroke-linejoin:round;stroke-miterlimit:4;stroke-dasharray:none;stroke-opacity:0.02000002"
       inkscape:connector-curvature="0"
       d="M 82.66348,43.290863 74.265,55.986591 65.58435,43.290863 H 82.66348 M 72.93167,58.890194 H 54.2995 l 9.31393,35.429135 9.31609,-35.429135 M 54.91985,56.809424 H 72.3027 L 63.60051,44.094308 54.89831,56.809424 M 52.94247,55.986591 61.62313,43.290863 H 44.54615 l 8.39847,12.695728 M 61.62528,94.995688 52.13472,58.898811 H 31.68671 L 61.62528,94.995688 M 31.71687,56.818037 H 51.00171 L 42.60107,44.120158 31.72333,56.818037 M 84.59132,44.141698 76.20577,56.818037 H 95.4583 L 84.60209,44.141698 M 75.08137,58.896658 65.59081,94.99138 95.49707,58.896658 H 75.08353"
       id="path4644" />
    <path
       id="path4646"
       d="M 82.66348,43.290863 74.265,55.986591 65.58435,43.290863 H 82.66348 M 72.93167,58.890194 H 54.2995 l 9.31393,35.429135 9.31609,-35.429135 M 54.91985,56.809424 H 72.3027 L 63.60051,44.094308 54.89831,56.809424 M 52.94247,55.986591 61.62313,43.290863 H 44.54615 l 8.39847,12.695728 M 61.62528,94.995688 52.13472,58.898811 H 31.68671 L 61.62528,94.995688 M 31.71687,56.818037 H 51.00171 L 42.60107,44.120158 31.72333,56.818037 M 84.59132,44.141698 76.20577,56.818037 H 95.4583 L 84.60209,44.141698 M 75.08137,58.896658 65.59081,94.99138 95.49707,58.896658 H 75.08353"
       inkscape:connector-curvature="0"
       style="fill:none;fill-opacity:1;stroke:#00ac8f;stroke-width:1.89999998;stroke-linecap:round;stroke-linejoin:round;stroke-miterlimit:4;stroke-dasharray:none;stroke-opacity:0.02000002" />
    <path
       style="fill:none;fill-opacity:1;stroke:#00ac8f;stroke-width:2;stroke-linecap:round;stroke-linejoin:round;stroke-miterlimit:4;stroke-dasharray:none;stroke-opacity:0.02000002"
       inkscape:connector-curvature="0"
       d="M 82.66348,43.290863 74.265,55.986591 65.58435,43.290863 H 82.66348 M 72.93167,58.890194 H 54.2995 l 9.31393,35.429135 9.31609,-35.429135 M 54.91985,56.809424 H 72.3027 L 63.60051,44.094308 54.89831,56.809424 M 52.94247,55.986591 61.62313,43.290863 H 44.54615 l 8.39847,12.695728 M 61.62528,94.995688 52.13472,58.898811 H 31.68671 L 61.62528,94.995688 M 31.71687,56.818037 H 51.00171 L 42.60107,44.120158 31.72333,56.818037 M 84.59132,44.141698 76.20577,56.818037 H 95.4583 L 84.60209,44.141698 M 75.08137,58.896658 65.59081,94.99138 95.49707,58.896658 H 75.08353"
       id="path4648" />
    <path
       id="path4650"
       d="M 82.66348,43.290863 74.265,55.986591 65.58435,43.290863 H 82.66348 M 72.93167,58.890194 H 54.2995 l 9.31393,35.429135 9.31609,-35.429135 M 54.91985,56.809424 H 72.3027 L 63.60051,44.094308 54.89831,56.809424 M 52.94247,55.986591 61.62313,43.290863 H 44.54615 l 8.39847,12.695728 M 61.62528,94.995688 52.13472,58.898811 H 31.68671 L 61.62528,94.995688 M 31.71687,56.818037 H 51.00171 L 42.60107,44.120158 31.72333,56.818037 M 84.59132,44.141698 76.20577,56.818037 H 95.4583 L 84.60209,44.141698 M 75.08137,58.896658 65.59081,94.99138 95.49707,58.896658 H 75.08353"
       inkscape:connector-curvature="0"
       style="fill:none;fill-opacity:1;stroke:#00ac8f;stroke-width:2.0999999;stroke-linecap:round;stroke-linejoin:round;stroke-miterlimit:4;stroke-dasharray:none;stroke-opacity:0.02000002" />
    <path
       style="fill:none;fill-opacity:1;stroke:#00ac8f;stroke-width:2.20000005;stroke-linecap:round;stroke-linejoin:round;stroke-miterlimit:4;stroke-dasharray:none;stroke-opacity:0.02000002"
       inkscape:connector-curvature="0"
       d="M 82.66348,43.290863 74.265,55.986591 65.58435,43.290863 H 82.66348 M 72.93167,58.890194 H 54.2995 l 9.31393,35.429135 9.31609,-35.429135 M 54.91985,56.809424 H 72.3027 L 63.60051,44.094308 54.89831,56.809424 M 52.94247,55.986591 61.62313,43.290863 H 44.54615 l 8.39847,12.695728 M 61.62528,94.995688 52.13472,58.898811 H 31.68671 L 61.62528,94.995688 M 31.71687,56.818037 H 51.00171 L 42.60107,44.120158 31.72333,56.818037 M 84.59132,44.141698 76.20577,56.818037 H 95.4583 L 84.60209,44.141698 M 75.08137,58.896658 65.59081,94.99138 95.49707,58.896658 H 75.08353"
       id="path4652" />
    <path
       id="path4654"
       d="M 82.66348,43.290863 74.265,55.986591 65.58435,43.290863 H 82.66348 M 72.93167,58.890194 H 54.2995 l 9.31393,35.429135 9.31609,-35.429135 M 54.91985,56.809424 H 72.3027 L 63.60051,44.094308 54.89831,56.809424 M 52.94247,55.986591 61.62313,43.290863 H 44.54615 l 8.39847,12.695728 M 61.62528,94.995688 52.13472,58.898811 H 31.68671 L 61.62528,94.995688 M 31.71687,56.818037 H 51.00171 L 42.60107,44.120158 31.72333,56.818037 M 84.59132,44.141698 76.20577,56.818037 H 95.4583 L 84.60209,44.141698 M 75.08137,58.896658 65.59081,94.99138 95.49707,58.896658 H 75.08353"
       inkscape:connector-curvature="0"
       style="fill:none;fill-opacity:1;stroke:#00ac8f;stroke-width:2.29999995;stroke-linecap:round;stroke-linejoin:round;stroke-miterlimit:4;stroke-dasharray:none;stroke-opacity:0.02000002" />
    <path
       style="fill:none;fill-opacity:1;stroke:#00ac8f;stroke-width:2.4000001;stroke-linecap:round;stroke-linejoin:round;stroke-miterlimit:4;stroke-dasharray:none;stroke-opacity:0.02000002"
       inkscape:connector-curvature="0"
       d="M 82.66348,43.290863 74.265,55.986591 65.58435,43.290863 H 82.66348 M 72.93167,58.890194 H 54.2995 l 9.31393,35.429135 9.31609,-35.429135 M 54.91985,56.809424 H 72.3027 L 63.60051,44.094308 54.89831,56.809424 M 52.94247,55.986591 61.62313,43.290863 H 44.54615 l 8.39847,12.695728 M 61.62528,94.995688 52.13472,58.898811 H 31.68671 L 61.62528,94.995688 M 31.71687,56.818037 H 51.00171 L 42.60107,44.120158 31.72333,56.818037 M 84.59132,44.141698 76.20577,56.818037 H 95.4583 L 84.60209,44.141698 M 75.08137,58.896658 65.59081,94.99138 95.49707,58.896658 H 75.08353"
       id="path4656" />
    <path
       id="path4658"
       d="M 82.66348,43.290863 74.265,55.986591 65.58435,43.290863 H 82.66348 M 72.93167,58.890194 H 54.2995 l 9.31393,35.429135 9.31609,-35.429135 M 54.91985,56.809424 H 72.3027 L 63.60051,44.094308 54.89831,56.809424 M 52.94247,55.986591 61.62313,43.290863 H 44.54615 l 8.39847,12.695728 M 61.62528,94.995688 52.13472,58.898811 H 31.68671 L 61.62528,94.995688 M 31.71687,56.818037 H 51.00171 L 42.60107,44.120158 31.72333,56.818037 M 84.59132,44.141698 76.20577,56.818037 H 95.4583 L 84.60209,44.141698 M 75.08137,58.896658 65.59081,94.99138 95.49707,58.896658 H 75.08353"
       inkscape:connector-curvature="0"
       style="fill:none;fill-opacity:1;stroke:#00ac8f;stroke-width:2.5;stroke-linecap:round;stroke-linejoin:round;stroke-miterlimit:4;stroke-dasharray:none;stroke-opacity:0.02000002" />
    <path
       style="fill:none;fill-opacity:1;stroke:#00ac8f;stroke-width:2.5999999;stroke-linecap:round;stroke-linejoin:round;stroke-miterlimit:4;stroke-dasharray:none;stroke-opacity:0.02000002"
       inkscape:connector-curvature="0"
       d="M 82.66348,43.290863 74.265,55.986591 65.58435,43.290863 H 82.66348 M 72.93167,58.890194 H 54.2995 l 9.31393,35.429135 9.31609,-35.429135 M 54.91985,56.809424 H 72.3027 L 63.60051,44.094308 54.89831,56.809424 M 52.94247,55.986591 61.62313,43.290863 H 44.54615 l 8.39847,12.695728 M 61.62528,94.995688 52.13472,58.898811 H 31.68671 L 61.62528,94.995688 M 31.71687,56.818037 H 51.00171 L 42.60107,44.120158 31.72333,56.818037 M 84.59132,44.141698 76.20577,56.818037 H 95.4583 L 84.60209,44.141698 M 75.08137,58.896658 65.59081,94.99138 95.49707,58.896658 H 75.08353"
       id="path4660" />
    <path
       id="path4662"
       d="M 82.66348,43.290863 74.265,55.986591 65.58435,43.290863 H 82.66348 M 72.93167,58.890194 H 54.2995 l 9.31393,35.429135 9.31609,-35.429135 M 54.91985,56.809424 H 72.3027 L 63.60051,44.094308 54.89831,56.809424 M 52.94247,55.986591 61.62313,43.290863 H 44.54615 l 8.39847,12.695728 M 61.62528,94.995688 52.13472,58.898811 H 31.68671 L 61.62528,94.995688 M 31.71687,56.818037 H 51.00171 L 42.60107,44.120158 31.72333,56.818037 M 84.59132,44.141698 76.20577,56.818037 H 95.4583 L 84.60209,44.141698 M 75.08137,58.896658 65.59081,94.99138 95.49707,58.896658 H 75.08353"
       inkscape:connector-curvature="0"
       style="fill:none;fill-opacity:1;stroke:#00ac8f;stroke-width:2.70000005;stroke-linecap:round;stroke-linejoin:round;stroke-miterlimit:4;stroke-dasharray:none;stroke-opacity:0.02000002" />
    <path
       style="fill:none;fill-opacity:1;stroke:#00ac8f;stroke-width:2.79999995;stroke-linecap:round;stroke-linejoin:round;stroke-miterlimit:4;stroke-dasharray:none;stroke-opacity:0.02000002"
       inkscape:connector-curvature="0"
       d="M 82.66348,43.290863 74.265,55.986591 65.58435,43.290863 H 82.66348 M 72.93167,58.890194 H 54.2995 l 9.31393,35.429135 9.31609,-35.429135 M 54.91985,56.809424 H 72.3027 L 63.60051,44.094308 54.89831,56.809424 M 52.94247,55.986591 61.62313,43.290863 H 44.54615 l 8.39847,12.695728 M 61.62528,94.995688 52.13472,58.898811 H 31.68671 L 61.62528,94.995688 M 31.71687,56.818037 H 51.00171 L 42.60107,44.120158 31.72333,56.818037 M 84.59132,44.141698 76.20577,56.818037 H 95.4583 L 84.60209,44.141698 M 75.08137,58.896658 65.59081,94.99138 95.49707,58.896658 H 75.08353"
       id="path4664" />
    <path
       id="path4666"
       d="M 82.66348,43.290863 74.265,55.986591 65.58435,43.290863 H 82.66348 M 72.93167,58.890194 H 54.2995 l 9.31393,35.429135 9.31609,-35.429135 M 54.91985,56.809424 H 72.3027 L 63.60051,44.094308 54.89831,56.809424 M 52.94247,55.986591 61.62313,43.290863 H 44.54615 l 8.39847,12.695728 M 61.62528,94.995688 52.13472,58.898811 H 31.68671 L 61.62528,94.995688 M 31.71687,56.818037 H 51.00171 L 42.60107,44.120158 31.72333,56.818037 M 84.59132,44.141698 76.20577,56.818037 H 95.4583 L 84.60209,44.141698 M 75.08137,58.896658 65.59081,94.99138 95.49707,58.896658 H 75.08353"
       inkscape:connector-curvature="0"
       style="fill:none;fill-opacity:1;stroke:#00ac8f;stroke-width:2.9000001;stroke-linecap:round;stroke-linejoin:round;stroke-miterlimit:4;stroke-dasharray:none;stroke-opacity:0.02000002" />
    <path
       style="fill:none;fill-opacity:1;stroke:#00ac8f;stroke-width:3;stroke-linecap:round;stroke-linejoin:round;stroke-miterlimit:4;stroke-dasharray:none;stroke-opacity:0.02000002"
       inkscape:connector-curvature="0"
       d="M 82.66348,43.290863 74.265,55.986591 65.58435,43.290863 H 82.66348 M 72.93167,58.890194 H 54.2995 l 9.31393,35.429135 9.31609,-35.429135 M 54.91985,56.809424 H 72.3027 L 63.60051,44.094308 54.89831,56.809424 M 52.94247,55.986591 61.62313,43.290863 H 44.54615 l 8.39847,12.695728 M 61.62528,94.995688 52.13472,58.898811 H 31.68671 L 61.62528,94.995688 M 31.71687,56.818037 H 51.00171 L 42.60107,44.120158 31.72333,56.818037 M 84.59132,44.141698 76.20577,56.818037 H 95.4583 L 84.60209,44.141698 M 75.08137,58.896658 65.59081,94.99138 95.49707,58.896658 H 75.08353"
       id="path4668" />
    <path
       id="path4670"
       d="M 82.66348,43.290863 74.265,55.986591 65.58435,43.290863 H 82.66348 M 72.93167,58.890194 H 54.2995 l 9.31393,35.429135 9.31609,-35.429135 M 54.91985,56.809424 H 72.3027 L 63.60051,44.094308 54.89831,56.809424 M 52.94247,55.986591 61.62313,43.290863 H 44.54615 l 8.39847,12.695728 M 61.62528,94.995688 52.13472,58.898811 H 31.68671 L 61.62528,94.995688 M 31.71687,56.818037 H 51.00171 L 42.60107,44.120158 31.72333,56.818037 M 84.59132,44.141698 76.20577,56.818037 H 95.4583 L 84.60209,44.141698 M 75.08137,58.896658 65.59081,94.99138 95.49707,58.896658 H 75.08353"
       inkscape:connector-curvature="0"
       style="fill:none;fill-opacity:1;stroke:#00ac8f;stroke-width:3.20000005;stroke-linecap:round;stroke-linejoin:round;stroke-miterlimit:4;stroke-dasharray:none;stroke-opacity:0.02000002" />
    <path
       style="fill:none;fill-opacity:1;stroke:#00ac8f;stroke-width:3.4000001;stroke-linecap:round;stroke-linejoin:round;stroke-miterlimit:4;stroke-dasharray:none;stroke-opacity:0.02000002"
       inkscape:connector-curvature="0"
       d="M 82.66348,43.290863 74.265,55.986591 65.58435,43.290863 H 82.66348 M 72.93167,58.890194 H 54.2995 l 9.31393,35.429135 9.31609,-35.429135 M 54.91985,56.809424 H 72.3027 L 63.60051,44.094308 54.89831,56.809424 M 52.94247,55.986591 61.62313,43.290863 H 44.54615 l 8.39847,12.695728 M 61.62528,94.995688 52.13472,58.898811 H 31.68671 L 61.62528,94.995688 M 31.71687,56.818037 H 51.00171 L 42.60107,44.120158 31.72333,56.818037 M 84.59132,44.141698 76.20577,56.818037 H 95.4583 L 84.60209,44.141698 M 75.08137,58.896658 65.59081,94.99138 95.49707,58.896658 H 75.08353"
       id="path4672" />
    <path
       id="path4674"
       d="M 82.66348,43.290863 74.265,55.986591 65.58435,43.290863 H 82.66348 M 72.93167,58.890194 H 54.2995 l 9.31393,35.429135 9.31609,-35.429135 M 54.91985,56.809424 H 72.3027 L 63.60051,44.094308 54.89831,56.809424 M 52.94247,55.986591 61.62313,43.290863 H 44.54615 l 8.39847,12.695728 M 61.62528,94.995688 52.13472,58.898811 H 31.68671 L 61.62528,94.995688 M 31.71687,56.818037 H 51.00171 L 42.60107,44.120158 31.72333,56.818037 M 84.59132,44.141698 76.20577,56.818037 H 95.4583 L 84.60209,44.141698 M 75.08137,58.896658 65.59081,94.99138 95.49707,58.896658 H 75.08353"
       inkscape:connector-curvature="0"
       style="fill:none;fill-opacity:1;stroke:#00ac8f;stroke-width:3.5999999;stroke-linecap:round;stroke-linejoin:round;stroke-miterlimit:4;stroke-dasharray:none;stroke-opacity:0.02000002" />
    <path
       style="fill:none;fill-opacity:1;stroke:#00ac8f;stroke-width:3.79999995;stroke-linecap:round;stroke-linejoin:round;stroke-miterlimit:4;stroke-dasharray:none;stroke-opacity:0.02000002"
       inkscape:connector-curvature="0"
       d="M 82.66348,43.290863 74.265,55.986591 65.58435,43.290863 H 82.66348 M 72.93167,58.890194 H 54.2995 l 9.31393,35.429135 9.31609,-35.429135 M 54.91985,56.809424 H 72.3027 L 63.60051,44.094308 54.89831,56.809424 M 52.94247,55.986591 61.62313,43.290863 H 44.54615 l 8.39847,12.695728 M 61.62528,94.995688 52.13472,58.898811 H 31.68671 L 61.62528,94.995688 M 31.71687,56.818037 H 51.00171 L 42.60107,44.120158 31.72333,56.818037 M 84.59132,44.141698 76.20577,56.818037 H 95.4583 L 84.60209,44.141698 M 75.08137,58.896658 65.59081,94.99138 95.49707,58.896658 H 75.08353"
       id="path4676" />
    <path
       id="path4678"
       d="M 82.66348,43.290863 74.265,55.986591 65.58435,43.290863 H 82.66348 M 72.93167,58.890194 H 54.2995 l 9.31393,35.429135 9.31609,-35.429135 M 54.91985,56.809424 H 72.3027 L 63.60051,44.094308 54.89831,56.809424 M 52.94247,55.986591 61.62313,43.290863 H 44.54615 l 8.39847,12.695728 M 61.62528,94.995688 52.13472,58.898811 H 31.68671 L 61.62528,94.995688 M 31.71687,56.818037 H 51.00171 L 42.60107,44.120158 31.72333,56.818037 M 84.59132,44.141698 76.20577,56.818037 H 95.4583 L 84.60209,44.141698 M 75.08137,58.896658 65.59081,94.99138 95.49707,58.896658 H 75.08353"
       inkscape:connector-curvature="0"
       style="fill:none;fill-opacity:1;stroke:#00ac8f;stroke-width:4;stroke-linecap:round;stroke-linejoin:round;stroke-miterlimit:4;stroke-dasharray:none;stroke-opacity:0.02000002" />
    <path
       style="fill:none;fill-opacity:1;stroke:#00ac8f;stroke-width:4.19999981;stroke-linecap:round;stroke-linejoin:round;stroke-miterlimit:4;stroke-dasharray:none;stroke-opacity:0.02000002"
       inkscape:connector-curvature="0"
       d="M 82.66348,43.290863 74.265,55.986591 65.58435,43.290863 H 82.66348 M 72.93167,58.890194 H 54.2995 l 9.31393,35.429135 9.31609,-35.429135 M 54.91985,56.809424 H 72.3027 L 63.60051,44.094308 54.89831,56.809424 M 52.94247,55.986591 61.62313,43.290863 H 44.54615 l 8.39847,12.695728 M 61.62528,94.995688 52.13472,58.898811 H 31.68671 L 61.62528,94.995688 M 31.71687,56.818037 H 51.00171 L 42.60107,44.120158 31.72333,56.818037 M 84.59132,44.141698 76.20577,56.818037 H 95.4583 L 84.60209,44.141698 M 75.08137,58.896658 65.59081,94.99138 95.49707,58.896658 H 75.08353"
       id="path4680" />
    <path
       id="path4682"
       d="M 82.66348,43.290863 74.265,55.986591 65.58435,43.290863 H 82.66348 M 72.93167,58.890194 H 54.2995 l 9.31393,35.429135 9.31609,-35.429135 M 54.91985,56.809424 H 72.3027 L 63.60051,44.094308 54.89831,56.809424 M 52.94247,55.986591 61.62313,43.290863 H 44.54615 l 8.39847,12.695728 M 61.62528,94.995688 52.13472,58.898811 H 31.68671 L 61.62528,94.995688 M 31.71687,56.818037 H 51.00171 L 42.60107,44.120158 31.72333,56.818037 M 84.59132,44.141698 76.20577,56.818037 H 95.4583 L 84.60209,44.141698 M 75.08137,58.896658 65.59081,94.99138 95.49707,58.896658 H 75.08353"
       inkscape:connector-curvature="0"
       style="fill:none;fill-opacity:1;stroke:#00ac8f;stroke-width:4.4000001;stroke-linecap:round;stroke-linejoin:round;stroke-miterlimit:4;stroke-dasharray:none;stroke-opacity:0.02000002" />
    <path
       style="fill:none;fill-opacity:1;stroke:#00ac8f;stroke-width:4.5999999;stroke-linecap:round;stroke-linejoin:round;stroke-miterlimit:4;stroke-dasharray:none;stroke-opacity:0.02000002"
       inkscape:connector-curvature="0"
       d="M 82.66348,43.290863 74.265,55.986591 65.58435,43.290863 H 82.66348 M 72.93167,58.890194 H 54.2995 l 9.31393,35.429135 9.31609,-35.429135 M 54.91985,56.809424 H 72.3027 L 63.60051,44.094308 54.89831,56.809424 M 52.94247,55.986591 61.62313,43.290863 H 44.54615 l 8.39847,12.695728 M 61.62528,94.995688 52.13472,58.898811 H 31.68671 L 61.62528,94.995688 M 31.71687,56.818037 H 51.00171 L 42.60107,44.120158 31.72333,56.818037 M 84.59132,44.141698 76.20577,56.818037 H 95.4583 L 84.60209,44.141698 M 75.08137,58.896658 65.59081,94.99138 95.49707,58.896658 H 75.08353"
       id="path4684" />
    <path
       id="path4686"
       d="M 82.66348,43.290863 74.265,55.986591 65.58435,43.290863 H 82.66348 M 72.93167,58.890194 H 54.2995 l 9.31393,35.429135 9.31609,-35.429135 M 54.91985,56.809424 H 72.3027 L 63.60051,44.094308 54.89831,56.809424 M 52.94247,55.986591 61.62313,43.290863 H 44.54615 l 8.39847,12.695728 M 61.62528,94.995688 52.13472,58.898811 H 31.68671 L 61.62528,94.995688 M 31.71687,56.818037 H 51.00171 L 42.60107,44.120158 31.72333,56.818037 M 84.59132,44.141698 76.20577,56.818037 H 95.4583 L 84.60209,44.141698 M 75.08137,58.896658 65.59081,94.99138 95.49707,58.896658 H 75.08353"
       inkscape:connector-curvature="0"
       style="fill:none;fill-opacity:1;stroke:#00ac8f;stroke-width:4.80000019;stroke-linecap:round;stroke-linejoin:round;stroke-miterlimit:4;stroke-dasharray:none;stroke-opacity:0.02000002" />
  </g>
  <path
     id="path4553-3"
     d="M 82.66348,43.290863 74.265,55.986591 65.58435,43.290863 H 82.66348 M 72.93167,58.890194 H 54.2995 l 9.31393,35.429133 9.31609,-35.429133 M 54.91985,56.809424 H 72.3027 L 63.60051,44.094308 54.89831,56.809424 M 52.94247,55.986591 61.62313,43.290863 H 44.54615 l 8.39847,12.695728 m 8.68066,39.009096 -9.49056,-36.096876 h -20.448 L 61.62528,94.995687 M 31.71687,56.818037 H 51.00171 L 42.60107,44.120158 31.72333,56.818037 M 84.59132,44.141698 76.20577,56.818037 H 95.4583 L 84.60209,44.141698 M 75.08137,58.896658 65.59081,94.991377 95.49707,58.896658 H 75.08353"
     inkscape:connector-curvature="0"
     style="fill:url(#linearGradient4762);fill-opacity:1;stroke-width:2.15400863" />
</svg>
