<?xml version="1.0" encoding="UTF-8" standalone="no"?>
<!-- Created with Inkscape (http://www.inkscape.org/) -->

<svg
   xmlns:dc="http://purl.org/dc/elements/1.1/"
   xmlns:cc="http://creativecommons.org/ns#"
   xmlns:rdf="http://www.w3.org/1999/02/22-rdf-syntax-ns#"
   xmlns:svg="http://www.w3.org/2000/svg"
   xmlns="http://www.w3.org/2000/svg"
   xmlns:xlink="http://www.w3.org/1999/xlink"
   xmlns:sodipodi="http://sodipodi.sourceforge.net/DTD/sodipodi-0.dtd"
   xmlns:inkscape="http://www.inkscape.org/namespaces/inkscape"
   version="1.1"
   id="svg2"
   width="128"
   height="128"
   viewBox="0 0 128 128"
   sodipodi:docname="gespeaker.svg"
   inkscape:version="0.92.2pre0 (973e216, 2017-07-25)">
  <metadata
     id="metadata8">
    <rdf:RDF>
      <cc:Work
         rdf:about="">
        <dc:format>image/svg+xml</dc:format>
        <dc:type
           rdf:resource="http://purl.org/dc/dcmitype/StillImage" />
        <dc:title></dc:title>
      </cc:Work>
    </rdf:RDF>
  </metadata>
  <defs
     id="defs6">
    <linearGradient
       inkscape:collect="always"
       xlink:href="#linearGradient-2"
       id="linearGradient945"
       x1="69.324593"
       y1="24.412661"
       x2="67.338387"
       y2="125.93518"
       gradientUnits="userSpaceOnUse"
       gradientTransform="matrix(0.93525986,0,0,0.93525986,0.91150419,-0.58500429)" />
    <linearGradient
       id="linearGradient-1"
       y2="119.81357"
       x2="63.999743"
       y1="8"
       x1="63.999746"
       gradientUnits="userSpaceOnUse"
       gradientTransform="translate(-154.25084,-10.31638)">
      <stop
         id="stop41"
         offset="0%"
         stop-color="#FF9BBA" />
      <stop
         id="stop43"
         offset="100%"
         stop-color="#DA0C0C" />
    </linearGradient>
    <linearGradient
       id="linearGradient-2"
       y2="117.82023"
       x2="63.999752"
       y1="11.999201"
       x1="63.999752"
       gradientUnits="userSpaceOnUse"
       gradientTransform="translate(-154.25084,-10.31638)">
      <stop
         id="stop46"
         offset="0%"
         stop-color="#FF4B83" />
      <stop
         id="stop48"
         offset="100%"
         stop-color="#EE3A3A" />
    </linearGradient>
    <linearGradient
       id="linearGradient-3"
       y2="58.166215"
       x2="89.697816"
       y1="19.264664"
       x1="89.697817"
       gradientTransform="matrix(0.71350607,0,0,1.4015298,-154.25084,-10.31638)"
       gradientUnits="userSpaceOnUse">
      <stop
         id="stop51"
         offset="0%"
         stop-color="#FF004F" />
      <stop
         id="stop53"
         offset="100%"
         stop-color="#FF7F90" />
    </linearGradient>
    <linearGradient
       id="linearGradient-3-5"
       y2="58.166214"
       x2="89.697815"
       y1="19.264664"
       x1="89.697815"
       gradientTransform="matrix(0.71350607,0,0,1.4015298,-0.39249471,0.20452364)"
       gradientUnits="userSpaceOnUse">
      <stop
         id="stop51-3"
         offset="0%"
         stop-color="#FF004F" />
      <stop
         id="stop53-5"
         offset="100%"
         stop-color="#FF7F90" />
    </linearGradient>
  </defs>
  <sodipodi:namedview
     pagecolor="#ffffff"
     bordercolor="#666666"
     borderopacity="1"
     objecttolerance="10"
     gridtolerance="10"
     guidetolerance="10"
     inkscape:pageopacity="0"
     inkscape:pageshadow="2"
     inkscape:window-width="1360"
     inkscape:window-height="740"
     id="namedview4"
     showgrid="false"
     inkscape:zoom="3.4570315"
     inkscape:cx="67.800732"
     inkscape:cy="66.386666"
     inkscape:window-x="0"
     inkscape:window-y="0"
     inkscape:window-maximized="1"
     inkscape:current-layer="svg2" />
  <circle
     id="path12"
     cx="64.614243"
     cy="64.171577"
     r="59.876759"
     style="fill:url(#linearGradient945);fill-opacity:1.0;stroke:#eeeeee;stroke-width:5.61155939;stroke-miterlimit:4;stroke-dasharray:none;stroke-opacity:1" />
  <path
     style="fill:#ffffff;fill-rule:nonzero;stroke:none;stroke-width:1"
     d="m 64.551743,29.171577 c -7.756,0 -14,6.244 -14,14 v 5 h 12 v 3 h -12 v 2 h 12 v 3 h -12 v 2 h 12 v 3 h -12 v 7 c 0,7.756 6.244,14 14,14 7.756,0 14,-6.244 14,-14 v -7 h -12 v -3 h 12 v -2 h -12 v -3 h 12 v -2 h -12 v -3 h 12 v -5 c 0,-7.756 -6.244,-14 -14,-14 z m 0,8 a 3,3 0 0 1 3,3 3,3 0 0 1 -3,3 3,3 0 0 1 -3,-3 3,3 0 0 1 3,-3 z m -21.9375,24 v 7.990234 c 0,12.510614 9.618197,20.806387 19.9375,21.791016 v 4.21875 h -12 v 4 h 28 v -4 h -12 v -4.195312 c 10.366364,-0.77383 20.0625,-7.795318 20.0625,-21.814454 v -7.990234 h -4 v 7.990234 c 0,11.890053 -8.938182,17.890626 -18,17.890626 -9.061818,0 -18,-7.991712 -18,-17.890626 v -7.990234 z"
     id="path65-9"
     inkscape:connector-curvature="0" />
</svg>
