<?xml version="1.0" encoding="UTF-8" standalone="no"?>
<!-- Created with Inkscape (http://www.inkscape.org/) -->

<svg
   xmlns:dc="http://purl.org/dc/elements/1.1/"
   xmlns:cc="http://creativecommons.org/ns#"
   xmlns:rdf="http://www.w3.org/1999/02/22-rdf-syntax-ns#"
   xmlns:svg="http://www.w3.org/2000/svg"
   xmlns="http://www.w3.org/2000/svg"
   xmlns:xlink="http://www.w3.org/1999/xlink"
   xmlns:sodipodi="http://sodipodi.sourceforge.net/DTD/sodipodi-0.dtd"
   xmlns:inkscape="http://www.inkscape.org/namespaces/inkscape"
   version="1.1"
   id="svg2"
   width="136.53333"
   height="136.53333"
   viewBox="0 0 136.53333 136.53333"
   sodipodi:docname="gimp.svg"
   inkscape:version="0.92.2 (5c3e80d, 2017-08-06)">
  <metadata
     id="metadata8">
    <rdf:RDF>
      <cc:Work
         rdf:about="">
        <dc:format>image/svg+xml</dc:format>
        <dc:type
           rdf:resource="http://purl.org/dc/dcmitype/StillImage" />
        <dc:title></dc:title>
      </cc:Work>
    </rdf:RDF>
  </metadata>
  <defs
     id="defs6">
    <linearGradient
       inkscape:collect="always"
       id="linearGradient905">
      <stop
         style="stop-color:#9760ef;stop-opacity:1"
         offset="0"
         id="stop901" />
      <stop
         style="stop-color:#c054f2;stop-opacity:0"
         offset="1"
         id="stop903" />
    </linearGradient>
    <linearGradient
       inkscape:collect="always"
       id="linearGradient883">
      <stop
         style="stop-color:#f66456;stop-opacity:1"
         offset="0"
         id="stop879" />
      <stop
         style="stop-color:#d9493e;stop-opacity:0"
         offset="1"
         id="stop881" />
    </linearGradient>
    <linearGradient
       id="linearGradient842"
       inkscape:collect="always">
      <stop
         id="stop850"
         offset="0"
         style="stop-color:#17c7e7;stop-opacity:1" />
      <stop
         id="stop852"
         offset="1"
         style="stop-color:#c054f2;stop-opacity:0" />
    </linearGradient>
    <linearGradient
       inkscape:collect="always"
       id="linearGradient842-3">
      <stop
         style="stop-color:#e83c2b;stop-opacity:1"
         offset="0"
         id="stop838" />
      <stop
         style="stop-color:#c054f2;stop-opacity:0.79215693"
         offset="1"
         id="stop840" />
    </linearGradient>
    <linearGradient
       inkscape:collect="always"
       id="linearGradient826">
      <stop
         style="stop-color:#fcfcfc;stop-opacity:0.94818652"
         offset="0"
         id="stop822" />
      <stop
         style="stop-color:#ededed;stop-opacity:0.91709846"
         offset="1"
         id="stop824" />
    </linearGradient>
    <linearGradient
       inkscape:collect="always"
       xlink:href="#linearGradient826"
       id="linearGradient836"
       x1="206.93942"
       y1="21.78548"
       x2="208.28004"
       y2="124.46537"
       gradientUnits="userSpaceOnUse"
       gradientTransform="translate(-140.72463,-2.4544993)" />
    <linearGradient
       inkscape:collect="always"
       xlink:href="#linearGradient842-3"
       id="linearGradient846"
       gradientUnits="userSpaceOnUse"
       x1="208.496"
       y1="10.740233"
       x2="213.26877"
       y2="52.05764"
       gradientTransform="translate(-146.45179,-4.9089986)" />
    <linearGradient
       inkscape:collect="always"
       xlink:href="#linearGradient842"
       id="linearGradient855"
       gradientUnits="userSpaceOnUse"
       x1="234.67732"
       y1="124.46536"
       x2="184.63295"
       y2="40.194225"
       gradientTransform="translate(-146.45179,-4.9089986)" />
    <linearGradient
       id="linearGradient3866">
      <stop
         style="stop-color:#000000;stop-opacity:0.52083331"
         offset="0"
         id="stop3868" />
      <stop
         style="stop-color:#2883c3;stop-opacity:0;"
         offset="1"
         id="stop3870" />
    </linearGradient>
    <linearGradient
       id="linearGradient3874">
      <stop
         style="stop-color:#000d0e;stop-opacity:0.84105963;"
         offset="0"
         id="stop3876" />
      <stop
         style="stop-color:#000000;stop-opacity:0;"
         offset="1"
         id="stop3878" />
    </linearGradient>
    <clipPath
       clipPathUnits="userSpaceOnUse"
       id="clipPath4178">
      <circle
         r="225"
         cy="222.68037"
         cx="204.3168"
         id="circle4180"
         style="opacity:1;fill:#1c5266;fill-opacity:0.19099205;fill-rule:evenodd;stroke:none;stroke-width:3.33392239;stroke-linecap:butt;stroke-linejoin:miter;stroke-miterlimit:4;stroke-dasharray:none;stroke-dashoffset:0;stroke-opacity:1" />
    </clipPath>
    <clipPath
       clipPathUnits="userSpaceOnUse"
       id="clipPath4178-1">
      <circle
         r="225"
         cy="222.68037"
         cx="204.3168"
         id="circle4180-7"
         style="opacity:1;fill:#1c5266;fill-opacity:0.19099205;fill-rule:evenodd;stroke:none;stroke-width:3.33392239;stroke-linecap:butt;stroke-linejoin:miter;stroke-miterlimit:4;stroke-dasharray:none;stroke-dashoffset:0;stroke-opacity:1" />
    </clipPath>
    <linearGradient
       inkscape:collect="always"
       xlink:href="#linearGradient842"
       id="linearGradient1408"
       gradientUnits="userSpaceOnUse"
       x1="210.84187"
       y1="71.479027"
       x2="176.01047"
       y2="62.07011" />
    <linearGradient
       inkscape:collect="always"
       xlink:href="#linearGradient905"
       id="linearGradient1410"
       gradientUnits="userSpaceOnUse"
       x1="151.11572"
       y1="100.93302"
       x2="187.05571"
       y2="62.479195" />
    <linearGradient
       inkscape:collect="always"
       xlink:href="#linearGradient883"
       id="linearGradient1412"
       gradientUnits="userSpaceOnUse"
       x1="178.11522"
       y1="50.206699"
       x2="187.87389"
       y2="66.160942" />
    <linearGradient
       inkscape:collect="always"
       xlink:href="#linearGradient905"
       id="linearGradient1414"
       gradientUnits="userSpaceOnUse"
       x1="227.61429"
       y1="22.38904"
       x2="191.14655"
       y2="60.433777" />
  </defs>
  <sodipodi:namedview
     pagecolor="#ffffff"
     bordercolor="#666666"
     borderopacity="1"
     objecttolerance="10"
     gridtolerance="10"
     guidetolerance="10"
     inkscape:pageopacity="0"
     inkscape:pageshadow="2"
     inkscape:window-width="1360"
     inkscape:window-height="717"
     id="namedview4"
     showgrid="false"
     inkscape:zoom="1.2222452"
     inkscape:cx="79.905318"
     inkscape:cy="52.469272"
     inkscape:window-x="0"
     inkscape:window-y="25"
     inkscape:window-maximized="1"
     inkscape:current-layer="svg2" />
  <circle
     id="path12"
     cx="68.112343"
     cy="69.239136"
     r="64.021523"
     style="fill:url(#linearGradient836);fill-opacity:1;stroke:url(#linearGradient846);stroke-width:6;stroke-miterlimit:4;stroke-dasharray:none;stroke-opacity:0.94818654" />
  <circle
     style="fill:none;fill-opacity:1;stroke:url(#linearGradient855);stroke-width:6;stroke-miterlimit:4;stroke-dasharray:none;stroke-opacity:0.94818654"
     r="64.021523"
     cy="69.239136"
     cx="68.112343"
     id="circle848" />
  <g
     id="g1378"
     transform="translate(-112.81355,3.4711863)">
    <path
       inkscape:connector-curvature="0"
       id="path1371"
       d="m 210.92987,23.698647 c -1.94501,7.47312 -12.43405,12.741685 -19.52248,16.125354 -0.70616,-4.637121 -1.94043,-9.261853 -3.899,-13.632651 -2.27636,3.844348 -3.77723,8.086315 -6.47991,11.669372 -2.00158,2.653641 -4.23755,5.187768 -7.04242,7.185821 -0.1923,0.06723 -0.39466,0.123419 -0.58457,0.193022 -1.4448,0.529591 -2.81955,1.131934 -4.06443,1.841952 -5.63416,3.213516 -9.73613,7.58738 -12.92677,12.678586 -4.29239,6.849214 -1.31584,15.656448 -13.05911,22.20821 -0.19454,0.230971 -0.43376,0.445704 -0.70589,0.645234 0.0141,-0.0097 0.0254,-0.01779 0.0387,-0.02767 0.0106,0.006 0.0176,0.01549 0.0282,0.02202 -2.88179,2.065242 -8.55572,2.116445 -6.15456,6.573673 1.29527,2.001106 2.29668,3.620004 3.88243,5.17291 -0.0336,0.02482 -0.0553,0.04569 -0.0938,0.07166 4.19045,4.081517 10.25718,6.86462 16.82022,7.42847 3.24971,0.3505 7.83094,0.18557 9.76125,0.18198 16.40089,-0.0409 32.02734,-7.653127 41.41635,-18.452614 0.69782,-0.846658 3.4451,-4.068874 3.4964,-4.643483 4.32398,-6.929859 9.11805,-14.021281 9.41378,-21.960043 v -0.0057 c -4.68955,1.39205 -9.6208,2.94953 -14.65837,3.419195 0.0527,-0.0024 0.10437,-0.0045 0.15436,-0.0057 0.0226,-2.7e-4 0.0444,2.2e-4 0.066,0 -1.29026,0.0169 -3.71156,0.512759 -4.29053,-0.09927 5.53198,-6.181926 10.78297,-12.925664 11.95061,-20.686112 0.73312,-5.388599 -0.19114,-11.212355 -3.54604,-15.904764 z m 12.87163,11.961658 c -4.78253,0.832968 0.70897,5.83385 -0.43569,8.564528 4.15115,-1.155724 4.97408,-7.413388 0.43569,-8.564528 z m 1.98532,10.57744 c -0.23068,0.0028 -0.48721,0.08917 -0.64524,0.204062 -2.98466,2.170111 -0.93019,6.781863 -2.92284,9.485504 1.40841,0.08051 2.82695,-0.385999 4.06995,-0.882372 4.04248,-1.328334 2.55749,-6.813668 -0.13782,-8.713428 -0.0959,-0.06775 -0.22561,-0.09558 -0.36399,-0.09374 z m -6.17108,0.209568 c -1.43778,-0.01035 -0.95108,3.769745 0.62867,3.832805 1.33639,0.05336 1.48221,-2.192107 0.92096,-3.182058 -0.24395,-0.430086 -1.18312,-0.648068 -1.54963,-0.650747 z m -53.69786,14.76319 c 3.3461,-0.0038 3.59658,5.199223 3.96513,7.533255 0.5569,3.491963 1.2051,7.416987 -3.95414,8.724456 -0.35054,0.149538 -1.70463,1.010323 -1.307,-0.06065 1.46665,-2.55005 -1.07916,-8.985974 -5.00195,-5.785053 -0.39083,-3.634055 0.91042,-7.790916 4.66554,-10.070073 0.61372,-0.236561 1.1544,-0.341337 1.63242,-0.34192 z m 45.81166,17.641933 h 0.006 c 0.0112,-0.0015 0.0226,-8.45e-4 0.0331,0 -0.16315,0.0028 -0.61396,0.290368 -1.48899,1.009213 -0.0429,0.02344 -0.0692,0.02795 -0.11037,0.04963 0.0317,-0.01673 0.0612,-0.03191 0.0938,-0.04963 0.13869,-0.113844 0.26796,-0.215863 0.38601,-0.30883 0.0457,-0.03599 0.0842,-0.0663 0.12672,-0.09927 0.0702,-0.05435 0.13607,-0.108005 0.1985,-0.154414 0.0384,-0.02846 0.0747,-0.05168 0.11037,-0.0772 0.0575,-0.04148 0.11512,-0.08179 0.16546,-0.115816 0.0429,-0.02908 0.0836,-0.05889 0.12144,-0.08273 0.009,-0.0048 0.0141,-0.0065 0.0226,-0.01113 0.0533,-0.03318 0.1008,-0.06018 0.14345,-0.08273 0.0176,-0.009 0.034,-0.02032 0.0496,-0.02767 0.006,-0.0034 0.0176,-0.0083 0.0226,-0.01113 0.0197,-0.0097 0.0429,-0.01601 0.0608,-0.02202 l 0.01,-0.0057 c 0.0197,-0.0066 0.0339,-0.0085 0.0496,-0.01113 z m -69.17248,3.821777 c -0.0225,0.01601 -0.0486,0.03378 -0.0716,0.04963 0.0225,-0.01602 0.0488,-0.03349 0.0716,-0.04963 z m 34.4787,1.599298 a 1.4119368,1.4119368 0 0 1 0.0994,0 1.4119368,1.4119368 0 0 1 1.12503,2.25005 c -2.81637,3.919069 -6.63609,7.905003 -15.07754,9.049835 a 1.4132605,1.4132605 0 1 1 -0.37499,-2.801532 c 7.73825,-1.049462 10.48018,-4.164928 13.15835,-7.891722 a 1.4119368,1.4119368 0 0 1 1.0699,-0.606631 z"
       style="fill:#9760ef;fill-opacity:1;stroke-width:0.12187247" />
    <path
       inkscape:connector-curvature="0"
       id="path1363"
       d="m 210.92987,23.698647 c -1.94501,7.47312 -12.43405,12.741685 -19.52248,16.125354 -0.70616,-4.637121 -1.94043,-9.261853 -3.899,-13.632651 -2.27636,3.844348 -3.77723,8.086315 -6.47991,11.669372 -2.00158,2.653641 -4.23755,5.187768 -7.04242,7.185821 -0.1923,0.06723 -0.39466,0.123419 -0.58457,0.193022 -1.4448,0.529591 -2.81955,1.131934 -4.06443,1.841952 -5.63416,3.213516 -9.73613,7.58738 -12.92677,12.678586 -4.29239,6.849214 -1.31584,15.656448 -13.05911,22.20821 -0.19454,0.230971 -0.43376,0.445704 -0.70589,0.645234 0.0141,-0.0097 0.0254,-0.01779 0.0387,-0.02767 0.0106,0.006 0.0176,0.01549 0.0282,0.02202 -2.88179,2.065242 -8.55572,2.116445 -6.15456,6.573673 1.29527,2.001106 2.29668,3.620004 3.88243,5.17291 -0.0336,0.02482 -0.0553,0.04569 -0.0938,0.07166 4.19045,4.081517 10.25718,6.86462 16.82022,7.42847 3.24971,0.3505 7.83094,0.18557 9.76125,0.18198 16.40089,-0.0409 32.02734,-7.653127 41.41635,-18.452614 0.69782,-0.846658 3.4451,-4.068874 3.4964,-4.643483 4.32398,-6.929859 9.11805,-14.021281 9.41378,-21.960043 v -0.0057 c -4.68955,1.39205 -9.6208,2.94953 -14.65837,3.419195 0.0527,-0.0024 0.10437,-0.0045 0.15436,-0.0057 0.0226,-2.7e-4 0.0444,2.2e-4 0.066,0 -1.29026,0.0169 -3.71156,0.512759 -4.29053,-0.09927 5.53198,-6.181926 10.78297,-12.925664 11.95061,-20.686112 0.73312,-5.388599 -0.19114,-11.212355 -3.54604,-15.904764 z m 12.87163,11.961658 c -4.78253,0.832968 0.70897,5.83385 -0.43569,8.564528 4.15115,-1.155724 4.97408,-7.413388 0.43569,-8.564528 z m 1.98532,10.57744 c -0.23068,0.0028 -0.48721,0.08917 -0.64524,0.204062 -2.98466,2.170111 -0.93019,6.781863 -2.92284,9.485504 1.40841,0.08051 2.82695,-0.385999 4.06995,-0.882372 4.04248,-1.328334 2.55749,-6.813668 -0.13782,-8.713428 -0.0959,-0.06775 -0.22561,-0.09558 -0.36399,-0.09374 z m -6.17108,0.209568 c -1.43778,-0.01035 -0.95108,3.769745 0.62867,3.832805 1.33639,0.05336 1.48221,-2.192107 0.92096,-3.182058 -0.24395,-0.430086 -1.18312,-0.648068 -1.54963,-0.650747 z m -53.69786,14.76319 c 3.3461,-0.0038 3.59658,5.199223 3.96513,7.533255 0.5569,3.491963 1.2051,7.416987 -3.95414,8.724456 -0.35054,0.149538 -1.70463,1.010323 -1.307,-0.06065 1.46665,-2.55005 -1.07916,-8.985974 -5.00195,-5.785053 -0.39083,-3.634055 0.91042,-7.790916 4.66554,-10.070073 0.61372,-0.236561 1.1544,-0.341337 1.63242,-0.34192 z m 45.81166,17.641933 h 0.006 c 0.0112,-0.0015 0.0226,-8.45e-4 0.0331,0 -0.16315,0.0028 -0.61396,0.290368 -1.48899,1.009213 -0.0429,0.02344 -0.0692,0.02795 -0.11037,0.04963 0.0317,-0.01673 0.0612,-0.03191 0.0938,-0.04963 0.13869,-0.113844 0.26796,-0.215863 0.38601,-0.30883 0.0457,-0.03599 0.0842,-0.0663 0.12672,-0.09927 0.0702,-0.05435 0.13607,-0.108005 0.1985,-0.154414 0.0384,-0.02846 0.0747,-0.05168 0.11037,-0.0772 0.0575,-0.04148 0.11512,-0.08179 0.16546,-0.115816 0.0429,-0.02908 0.0836,-0.05889 0.12144,-0.08273 0.009,-0.0048 0.0141,-0.0065 0.0226,-0.01113 0.0533,-0.03318 0.1008,-0.06018 0.14345,-0.08273 0.0176,-0.009 0.034,-0.02032 0.0496,-0.02767 0.006,-0.0034 0.0176,-0.0083 0.0226,-0.01113 0.0197,-0.0097 0.0429,-0.01601 0.0608,-0.02202 l 0.01,-0.0057 c 0.0197,-0.0066 0.0339,-0.0085 0.0496,-0.01113 z m -69.17248,3.821777 c -0.0225,0.01601 -0.0486,0.03378 -0.0716,0.04963 0.0225,-0.01602 0.0488,-0.03349 0.0716,-0.04963 z m 34.4787,1.599298 a 1.4119368,1.4119368 0 0 1 0.0994,0 1.4119368,1.4119368 0 0 1 1.12503,2.25005 c -2.81637,3.919069 -6.63609,7.905003 -15.07754,9.049835 a 1.4132605,1.4132605 0 1 1 -0.37499,-2.801532 c 7.73825,-1.049462 10.48018,-4.164928 13.15835,-7.891722 a 1.4119368,1.4119368 0 0 1 1.0699,-0.606631 z"
       style="fill:url(#linearGradient1408);fill-opacity:1;stroke-width:0.12187247" />
    <path
       style="fill:url(#linearGradient1410);fill-opacity:1;stroke-width:0.12187247"
       d="m 210.92987,23.698647 c -1.94501,7.47312 -12.43405,12.741685 -19.52248,16.125354 -0.70616,-4.637121 -1.94043,-9.261853 -3.899,-13.632651 -2.27636,3.844348 -3.77723,8.086315 -6.47991,11.669372 -2.00158,2.653641 -4.23755,5.187768 -7.04242,7.185821 -0.1923,0.06723 -0.39466,0.123419 -0.58457,0.193022 -1.4448,0.529591 -2.81955,1.131934 -4.06443,1.841952 -5.63416,3.213516 -9.73613,7.58738 -12.92677,12.678586 -4.29239,6.849214 -1.31584,15.656448 -13.05911,22.20821 -0.19454,0.230971 -0.43376,0.445704 -0.70589,0.645234 0.0141,-0.0097 0.0254,-0.01779 0.0387,-0.02767 0.0106,0.006 0.0176,0.01549 0.0282,0.02202 -2.88179,2.065242 -8.55572,2.116445 -6.15456,6.573673 1.29527,2.001106 2.29668,3.620004 3.88243,5.17291 -0.0336,0.02482 -0.0553,0.04569 -0.0938,0.07166 4.19045,4.081517 10.25718,6.86462 16.82022,7.42847 3.24971,0.3505 7.83094,0.18557 9.76125,0.18198 16.40089,-0.0409 32.02734,-7.653127 41.41635,-18.452614 0.69782,-0.846658 3.4451,-4.068874 3.4964,-4.643483 4.32398,-6.929859 9.11805,-14.021281 9.41378,-21.960043 v -0.0057 c -4.68955,1.39205 -9.6208,2.94953 -14.65837,3.419195 0.0527,-0.0024 0.10437,-0.0045 0.15436,-0.0057 0.0226,-2.7e-4 0.0444,2.2e-4 0.066,0 -1.29026,0.0169 -3.71156,0.512759 -4.29053,-0.09927 5.53198,-6.181926 10.78297,-12.925664 11.95061,-20.686112 0.73312,-5.388599 -0.19114,-11.212355 -3.54604,-15.904764 z m 12.87163,11.961658 c -4.78253,0.832968 0.70897,5.83385 -0.43569,8.564528 4.15115,-1.155724 4.97408,-7.413388 0.43569,-8.564528 z m 1.98532,10.57744 c -0.23068,0.0028 -0.48721,0.08917 -0.64524,0.204062 -2.98466,2.170111 -0.93019,6.781863 -2.92284,9.485504 1.40841,0.08051 2.82695,-0.385999 4.06995,-0.882372 4.04248,-1.328334 2.55749,-6.813668 -0.13782,-8.713428 -0.0959,-0.06775 -0.22561,-0.09558 -0.36399,-0.09374 z m -6.17108,0.209568 c -1.43778,-0.01035 -0.95108,3.769745 0.62867,3.832805 1.33639,0.05336 1.48221,-2.192107 0.92096,-3.182058 -0.24395,-0.430086 -1.18312,-0.648068 -1.54963,-0.650747 z m -53.69786,14.76319 c 3.3461,-0.0038 3.59658,5.199223 3.96513,7.533255 0.5569,3.491963 1.2051,7.416987 -3.95414,8.724456 -0.35054,0.149538 -1.70463,1.010323 -1.307,-0.06065 1.46665,-2.55005 -1.07916,-8.985974 -5.00195,-5.785053 -0.39083,-3.634055 0.91042,-7.790916 4.66554,-10.070073 0.61372,-0.236561 1.1544,-0.341337 1.63242,-0.34192 z m 45.81166,17.641933 h 0.006 c 0.0112,-0.0015 0.0226,-8.45e-4 0.0331,0 -0.16315,0.0028 -0.61396,0.290368 -1.48899,1.009213 -0.0429,0.02344 -0.0692,0.02795 -0.11037,0.04963 0.0317,-0.01673 0.0612,-0.03191 0.0938,-0.04963 0.13869,-0.113844 0.26796,-0.215863 0.38601,-0.30883 0.0457,-0.03599 0.0842,-0.0663 0.12672,-0.09927 0.0702,-0.05435 0.13607,-0.108005 0.1985,-0.154414 0.0384,-0.02846 0.0747,-0.05168 0.11037,-0.0772 0.0575,-0.04148 0.11512,-0.08179 0.16546,-0.115816 0.0429,-0.02908 0.0836,-0.05889 0.12144,-0.08273 0.009,-0.0048 0.0141,-0.0065 0.0226,-0.01113 0.0533,-0.03318 0.1008,-0.06018 0.14345,-0.08273 0.0176,-0.009 0.034,-0.02032 0.0496,-0.02767 0.006,-0.0034 0.0176,-0.0083 0.0226,-0.01113 0.0197,-0.0097 0.0429,-0.01601 0.0608,-0.02202 l 0.01,-0.0057 c 0.0197,-0.0066 0.0339,-0.0085 0.0496,-0.01113 z m -69.17248,3.821777 c -0.0225,0.01601 -0.0486,0.03378 -0.0716,0.04963 0.0225,-0.01602 0.0488,-0.03349 0.0716,-0.04963 z m 34.4787,1.599298 a 1.4119368,1.4119368 0 0 1 0.0994,0 1.4119368,1.4119368 0 0 1 1.12503,2.25005 c -2.81637,3.919069 -6.63609,7.905003 -15.07754,9.049835 a 1.4132605,1.4132605 0 1 1 -0.37499,-2.801532 c 7.73825,-1.049462 10.48018,-4.164928 13.15835,-7.891722 a 1.4119368,1.4119368 0 0 1 1.0699,-0.606631 z"
       id="path1359"
       inkscape:connector-curvature="0" />
    <path
       inkscape:connector-curvature="0"
       id="path3342-7-3-6"
       d="m 210.92987,23.698647 c -1.94501,7.47312 -12.43405,12.741685 -19.52248,16.125354 -0.70616,-4.637121 -1.94043,-9.261853 -3.899,-13.632651 -2.27636,3.844348 -3.77723,8.086315 -6.47991,11.669372 -2.00158,2.653641 -4.23755,5.187768 -7.04242,7.185821 -0.1923,0.06723 -0.39466,0.123419 -0.58457,0.193022 -1.4448,0.529591 -2.81955,1.131934 -4.06443,1.841952 -5.63416,3.213516 -9.73613,7.58738 -12.92677,12.678586 -4.29239,6.849214 -1.31584,15.656448 -13.05911,22.20821 -0.19454,0.230971 -0.43376,0.445704 -0.70589,0.645234 0.0141,-0.0097 0.0254,-0.01779 0.0387,-0.02767 0.0106,0.006 0.0176,0.01549 0.0282,0.02202 -2.88179,2.065242 -8.55572,2.116445 -6.15456,6.573673 1.29527,2.001106 2.29668,3.620004 3.88243,5.17291 -0.0336,0.02482 -0.0553,0.04569 -0.0938,0.07166 4.19045,4.081517 10.25718,6.86462 16.82022,7.42847 3.24971,0.3505 7.83094,0.18557 9.76125,0.18198 16.40089,-0.0409 32.02734,-7.653127 41.41635,-18.452614 0.69782,-0.846658 3.4451,-4.068874 3.4964,-4.643483 4.32398,-6.929859 9.11805,-14.021281 9.41378,-21.960043 v -0.0057 c -4.68955,1.39205 -9.6208,2.94953 -14.65837,3.419195 0.0527,-0.0024 0.10437,-0.0045 0.15436,-0.0057 0.0226,-2.7e-4 0.0444,2.2e-4 0.066,0 -1.29026,0.0169 -3.71156,0.512759 -4.29053,-0.09927 5.53198,-6.181926 10.78297,-12.925664 11.95061,-20.686112 0.73312,-5.388599 -0.19114,-11.212355 -3.54604,-15.904764 z m 12.87163,11.961658 c -4.78253,0.832968 0.70897,5.83385 -0.43569,8.564528 4.15115,-1.155724 4.97408,-7.413388 0.43569,-8.564528 z m 1.98532,10.57744 c -0.23068,0.0028 -0.48721,0.08917 -0.64524,0.204062 -2.98466,2.170111 -0.93019,6.781863 -2.92284,9.485504 1.40841,0.08051 2.82695,-0.385999 4.06995,-0.882372 4.04248,-1.328334 2.55749,-6.813668 -0.13782,-8.713428 -0.0959,-0.06775 -0.22561,-0.09558 -0.36399,-0.09374 z m -6.17108,0.209568 c -1.43778,-0.01035 -0.95108,3.769745 0.62867,3.832805 1.33639,0.05336 1.48221,-2.192107 0.92096,-3.182058 -0.24395,-0.430086 -1.18312,-0.648068 -1.54963,-0.650747 z m -53.69786,14.76319 c 3.3461,-0.0038 3.59658,5.199223 3.96513,7.533255 0.5569,3.491963 1.2051,7.416987 -3.95414,8.724456 -0.35054,0.149538 -1.70463,1.010323 -1.307,-0.06065 1.46665,-2.55005 -1.07916,-8.985974 -5.00195,-5.785053 -0.39083,-3.634055 0.91042,-7.790916 4.66554,-10.070073 0.61372,-0.236561 1.1544,-0.341337 1.63242,-0.34192 z m 45.81166,17.641933 h 0.006 c 0.0112,-0.0015 0.0226,-8.45e-4 0.0331,0 -0.16315,0.0028 -0.61396,0.290368 -1.48899,1.009213 -0.0429,0.02344 -0.0692,0.02795 -0.11037,0.04963 0.0317,-0.01673 0.0612,-0.03191 0.0938,-0.04963 0.13869,-0.113844 0.26796,-0.215863 0.38601,-0.30883 0.0457,-0.03599 0.0842,-0.0663 0.12672,-0.09927 0.0702,-0.05435 0.13607,-0.108005 0.1985,-0.154414 0.0384,-0.02846 0.0747,-0.05168 0.11037,-0.0772 0.0575,-0.04148 0.11512,-0.08179 0.16546,-0.115816 0.0429,-0.02908 0.0836,-0.05889 0.12144,-0.08273 0.009,-0.0048 0.0141,-0.0065 0.0226,-0.01113 0.0533,-0.03318 0.1008,-0.06018 0.14345,-0.08273 0.0176,-0.009 0.034,-0.02032 0.0496,-0.02767 0.006,-0.0034 0.0176,-0.0083 0.0226,-0.01113 0.0197,-0.0097 0.0429,-0.01601 0.0608,-0.02202 l 0.01,-0.0057 c 0.0197,-0.0066 0.0339,-0.0085 0.0496,-0.01113 z m -69.17248,3.821777 c -0.0225,0.01601 -0.0486,0.03378 -0.0716,0.04963 0.0225,-0.01602 0.0488,-0.03349 0.0716,-0.04963 z m 34.4787,1.599298 a 1.4119368,1.4119368 0 0 1 0.0994,0 1.4119368,1.4119368 0 0 1 1.12503,2.25005 c -2.81637,3.919069 -6.63609,7.905003 -15.07754,9.049835 a 1.4132605,1.4132605 0 1 1 -0.37499,-2.801532 c 7.73825,-1.049462 10.48018,-4.164928 13.15835,-7.891722 a 1.4119368,1.4119368 0 0 1 1.0699,-0.606631 z"
       style="fill:url(#linearGradient1412);fill-opacity:1;stroke-width:0.12187247" />
    <path
       style="fill:url(#linearGradient1414);fill-opacity:1;stroke-width:0.12187247"
       d="m 210.92987,23.698647 c -1.94501,7.47312 -12.43405,12.741685 -19.52248,16.125354 -0.70616,-4.637121 -1.94043,-9.261853 -3.899,-13.632651 -2.27636,3.844348 -3.77723,8.086315 -6.47991,11.669372 -2.00158,2.653641 -4.23755,5.187768 -7.04242,7.185821 -0.1923,0.06723 -0.39466,0.123419 -0.58457,0.193022 -1.4448,0.529591 -2.81955,1.131934 -4.06443,1.841952 -5.63416,3.213516 -9.73613,7.58738 -12.92677,12.678586 -4.29239,6.849214 -1.31584,15.656448 -13.05911,22.20821 -0.19454,0.230971 -0.43376,0.445704 -0.70589,0.645234 0.0141,-0.0097 0.0254,-0.01779 0.0387,-0.02767 0.0106,0.006 0.0176,0.01549 0.0282,0.02202 -2.88179,2.065242 -8.55572,2.116445 -6.15456,6.573673 1.29527,2.001106 2.29668,3.620004 3.88243,5.17291 -0.0336,0.02482 -0.0553,0.04569 -0.0938,0.07166 4.19045,4.081517 10.25718,6.86462 16.82022,7.42847 3.24971,0.3505 7.83094,0.18557 9.76125,0.18198 16.40089,-0.0409 32.02734,-7.653127 41.41635,-18.452614 0.69782,-0.846658 3.4451,-4.068874 3.4964,-4.643483 4.32398,-6.929859 9.11805,-14.021281 9.41378,-21.960043 v -0.0057 c -4.68955,1.39205 -9.6208,2.94953 -14.65837,3.419195 0.0527,-0.0024 0.10437,-0.0045 0.15436,-0.0057 0.0226,-2.7e-4 0.0444,2.2e-4 0.066,0 -1.29026,0.0169 -3.71156,0.512759 -4.29053,-0.09927 5.53198,-6.181926 10.78297,-12.925664 11.95061,-20.686112 0.73312,-5.388599 -0.19114,-11.212355 -3.54604,-15.904764 z m 12.87163,11.961658 c -4.78253,0.832968 0.70897,5.83385 -0.43569,8.564528 4.15115,-1.155724 4.97408,-7.413388 0.43569,-8.564528 z m 1.98532,10.57744 c -0.23068,0.0028 -0.48721,0.08917 -0.64524,0.204062 -2.98466,2.170111 -0.93019,6.781863 -2.92284,9.485504 1.40841,0.08051 2.82695,-0.385999 4.06995,-0.882372 4.04248,-1.328334 2.55749,-6.813668 -0.13782,-8.713428 -0.0959,-0.06775 -0.22561,-0.09558 -0.36399,-0.09374 z m -6.17108,0.209568 c -1.43778,-0.01035 -0.95108,3.769745 0.62867,3.832805 1.33639,0.05336 1.48221,-2.192107 0.92096,-3.182058 -0.24395,-0.430086 -1.18312,-0.648068 -1.54963,-0.650747 z m -53.69786,14.76319 c 3.3461,-0.0038 3.59658,5.199223 3.96513,7.533255 0.5569,3.491963 1.2051,7.416987 -3.95414,8.724456 -0.35054,0.149538 -1.70463,1.010323 -1.307,-0.06065 1.46665,-2.55005 -1.07916,-8.985974 -5.00195,-5.785053 -0.39083,-3.634055 0.91042,-7.790916 4.66554,-10.070073 0.61372,-0.236561 1.1544,-0.341337 1.63242,-0.34192 z m 45.81166,17.641933 h 0.006 c 0.0112,-0.0015 0.0226,-8.45e-4 0.0331,0 -0.16315,0.0028 -0.61396,0.290368 -1.48899,1.009213 -0.0429,0.02344 -0.0692,0.02795 -0.11037,0.04963 0.0317,-0.01673 0.0612,-0.03191 0.0938,-0.04963 0.13869,-0.113844 0.26796,-0.215863 0.38601,-0.30883 0.0457,-0.03599 0.0842,-0.0663 0.12672,-0.09927 0.0702,-0.05435 0.13607,-0.108005 0.1985,-0.154414 0.0384,-0.02846 0.0747,-0.05168 0.11037,-0.0772 0.0575,-0.04148 0.11512,-0.08179 0.16546,-0.115816 0.0429,-0.02908 0.0836,-0.05889 0.12144,-0.08273 0.009,-0.0048 0.0141,-0.0065 0.0226,-0.01113 0.0533,-0.03318 0.1008,-0.06018 0.14345,-0.08273 0.0176,-0.009 0.034,-0.02032 0.0496,-0.02767 0.006,-0.0034 0.0176,-0.0083 0.0226,-0.01113 0.0197,-0.0097 0.0429,-0.01601 0.0608,-0.02202 l 0.01,-0.0057 c 0.0197,-0.0066 0.0339,-0.0085 0.0496,-0.01113 z m -69.17248,3.821777 c -0.0225,0.01601 -0.0486,0.03378 -0.0716,0.04963 0.0225,-0.01602 0.0488,-0.03349 0.0716,-0.04963 z m 34.4787,1.599298 a 1.4119368,1.4119368 0 0 1 0.0994,0 1.4119368,1.4119368 0 0 1 1.12503,2.25005 c -2.81637,3.919069 -6.63609,7.905003 -15.07754,9.049835 a 1.4132605,1.4132605 0 1 1 -0.37499,-2.801532 c 7.73825,-1.049462 10.48018,-4.164928 13.15835,-7.891722 a 1.4119368,1.4119368 0 0 1 1.0699,-0.606631 z"
       id="path1367"
       inkscape:connector-curvature="0" />
  </g>
</svg>
