<?xml version="1.0" encoding="UTF-8" standalone="no"?>
<!-- Created with Inkscape (http://www.inkscape.org/) -->

<svg
   xmlns:dc="http://purl.org/dc/elements/1.1/"
   xmlns:cc="http://creativecommons.org/ns#"
   xmlns:rdf="http://www.w3.org/1999/02/22-rdf-syntax-ns#"
   xmlns:svg="http://www.w3.org/2000/svg"
   xmlns="http://www.w3.org/2000/svg"
   xmlns:xlink="http://www.w3.org/1999/xlink"
   xmlns:sodipodi="http://sodipodi.sourceforge.net/DTD/sodipodi-0.dtd"
   xmlns:inkscape="http://www.inkscape.org/namespaces/inkscape"
   version="1.1"
   id="svg2"
   width="128"
   height="128"
   viewBox="0 0 128 128"
   sodipodi:docname="gimp.svg"
   inkscape:version="0.92.4 5da689c313, 2019-01-14">
  <metadata
     id="metadata8">
    <rdf:RDF>
      <cc:Work
         rdf:about="">
        <dc:format>image/svg+xml</dc:format>
        <dc:type
           rdf:resource="http://purl.org/dc/dcmitype/StillImage" />
        <dc:title></dc:title>
      </cc:Work>
    </rdf:RDF>
  </metadata>
  <defs
     id="defs6">
    <linearGradient
       inkscape:collect="always"
       id="linearGradient1040">
      <stop
         style="stop-color:#fff59f;stop-opacity:1"
         offset="0"
         id="stop1036" />
      <stop
         style="stop-color:#fffac7;stop-opacity:0;"
         offset="1"
         id="stop1038" />
    </linearGradient>
    <linearGradient
       inkscape:collect="always"
       id="linearGradient1020">
      <stop
         style="stop-color:#b95a00;stop-opacity:1"
         offset="0"
         id="stop1016" />
      <stop
         id="stop1024"
         offset="0.69886094"
         style="stop-color:#ffbf04;stop-opacity:1" />
      <stop
         style="stop-color:#ca7000;stop-opacity:1;"
         offset="0.69886094"
         id="stop1026" />
      <stop
         id="stop1028"
         offset="0.75589675"
         style="stop-color:#fdb802;stop-opacity:1" />
      <stop
         style="stop-color:#eda201;stop-opacity:1;"
         offset="0.78157824"
         id="stop1030" />
      <stop
         style="stop-color:#d27c00;stop-opacity:1"
         offset="1"
         id="stop1018" />
    </linearGradient>
    <linearGradient
       inkscape:collect="always"
       id="linearGradient926">
      <stop
         style="stop-color:#fae7d6;stop-opacity:1;"
         offset="0"
         id="stop922" />
      <stop
         style="stop-color:#fae7d6;stop-opacity:0"
         offset="1"
         id="stop924" />
    </linearGradient>
    <linearGradient
       inkscape:collect="always"
       id="linearGradient903">
      <stop
         style="stop-color:#edb96a;stop-opacity:1;"
         offset="0"
         id="stop899" />
      <stop
         style="stop-color:#e89042;stop-opacity:1"
         offset="1"
         id="stop901" />
    </linearGradient>
    <linearGradient
       inkscape:collect="always"
       id="linearGradient893">
      <stop
         style="stop-color:#d99830;stop-opacity:1;"
         offset="0"
         id="stop889" />
      <stop
         style="stop-color:#0e0a02;stop-opacity:0"
         offset="1"
         id="stop891" />
    </linearGradient>
    <linearGradient
       inkscape:collect="always"
       id="linearGradient872">
      <stop
         style="stop-color:#d99830;stop-opacity:1;"
         offset="0"
         id="stop868" />
      <stop
         style="stop-color:#d99830;stop-opacity:0;"
         offset="1"
         id="stop870" />
    </linearGradient>
    <linearGradient
       inkscape:collect="always"
       id="linearGradient862">
      <stop
         style="stop-color:#d99830;stop-opacity:1"
         offset="0"
         id="stop858" />
      <stop
         style="stop-color:#5d1600;stop-opacity:1"
         offset="1"
         id="stop860" />
    </linearGradient>
    <linearGradient
       inkscape:collect="always"
       id="linearGradient842">
      <stop
         style="stop-color:#94897e;stop-opacity:1"
         offset="0"
         id="stop838" />
      <stop
         id="stop848"
         offset="0.20101237"
         style="stop-color:#e8e6e4;stop-opacity:1;" />
      <stop
         id="stop846"
         offset="0.41551605"
         style="stop-color:#fdfdfd;stop-opacity:1" />
      <stop
         style="stop-color:#c3beb9;stop-opacity:1;"
         offset="0.64065892"
         id="stop850" />
      <stop
         style="stop-color:#675a4e;stop-opacity:1"
         offset="1"
         id="stop840" />
    </linearGradient>
    <linearGradient
       inkscape:collect="always"
       id="linearGradient823">
      <stop
         style="stop-color:#047eda;stop-opacity:1"
         offset="0"
         id="stop819" />
      <stop
         id="stop831"
         offset="0.34708482"
         style="stop-color:#34a1f3;stop-opacity:1;" />
      <stop
         id="stop827"
         offset="0.49054131"
         style="stop-color:#3fa9f9;stop-opacity:1" />
      <stop
         style="stop-color:#359be8;stop-opacity:1;"
         offset="0.62840164"
         id="stop829" />
      <stop
         style="stop-color:#025597;stop-opacity:1"
         offset="1"
         id="stop821" />
    </linearGradient>
    <linearGradient
       inkscape:collect="always"
       xlink:href="#linearGradient823"
       id="linearGradient825"
       x1="584.66156"
       y1="208.56839"
       x2="639.89288"
       y2="225.92432"
       gradientUnits="userSpaceOnUse"
       gradientTransform="translate(555.31727,-539.20349)" />
    <linearGradient
       inkscape:collect="always"
       xlink:href="#linearGradient842"
       id="linearGradient844"
       x1="595.5083"
       y1="358.34079"
       x2="635.35449"
       y2="368.64587"
       gradientUnits="userSpaceOnUse"
       gradientTransform="translate(510.8427,-543.54247)" />
    <radialGradient
       inkscape:collect="always"
       xlink:href="#linearGradient862"
       id="radialGradient864"
       cx="416.44263"
       cy="450.88602"
       fx="416.44263"
       fy="450.88602"
       r="25.695799"
       gradientTransform="matrix(1.2271071,0.16465033,-0.21555104,1.6064603,1.831108,-348.01645)"
       gradientUnits="userSpaceOnUse" />
    <linearGradient
       inkscape:collect="always"
       xlink:href="#linearGradient872"
       id="linearGradient876"
       gradientUnits="userSpaceOnUse"
       x1="391.5932"
       y1="505.62711"
       x2="423.45938"
       y2="450.57626" />
    <linearGradient
       inkscape:collect="always"
       xlink:href="#linearGradient893"
       id="linearGradient895"
       x1="600.59363"
       y1="413.40024"
       x2="597.49585"
       y2="422.79639"
       gradientUnits="userSpaceOnUse" />
    <linearGradient
       inkscape:collect="always"
       xlink:href="#linearGradient903"
       id="linearGradient905"
       x1="555.47699"
       y1="137.36853"
       x2="553.51831"
       y2="471.83801"
       gradientUnits="userSpaceOnUse"
       gradientTransform="translate(517.75474,-441.21083)" />
    <linearGradient
       inkscape:collect="always"
       xlink:href="#linearGradient926"
       id="linearGradient928"
       x1="1319.619"
       y1="534.74841"
       x2="990.11188"
       y2="220.59616"
       gradientUnits="userSpaceOnUse"
       gradientTransform="rotate(-8.8907873,-2484.8626,-171.14801)" />
    <linearGradient
       inkscape:collect="always"
       xlink:href="#linearGradient1020"
       id="linearGradient1022"
       x1="554.03394"
       y1="125.55932"
       x2="611.52545"
       y2="319.72879"
       gradientUnits="userSpaceOnUse" />
    <radialGradient
       inkscape:collect="always"
       xlink:href="#linearGradient1040"
       id="radialGradient1042"
       cx="535.56476"
       cy="407.33011"
       fx="535.56476"
       fy="407.33011"
       r="74.154892"
       gradientTransform="matrix(1.5148705,-0.51669919,0.22140385,0.71351114,-309.94472,232.01748)"
       gradientUnits="userSpaceOnUse" />
  </defs>
  <sodipodi:namedview
     pagecolor="#ffffff"
     bordercolor="#666666"
     borderopacity="1"
     objecttolerance="10"
     gridtolerance="10"
     guidetolerance="10"
     inkscape:pageopacity="0"
     inkscape:pageshadow="2"
     inkscape:window-width="1920"
     inkscape:window-height="1024"
     id="namedview4"
     showgrid="false"
     inkscape:zoom="2.6074563"
     inkscape:cx="83.941165"
     inkscape:cy="57.62117"
     inkscape:window-x="0"
     inkscape:window-y="30"
     inkscape:window-maximized="1"
     inkscape:current-layer="svg2" />
  <g
     id="g1079"
     transform="matrix(0.26921756,0,0,0.26921756,-217.57617,141.92941)">
    <rect
       style="opacity:1;fill:#c47835;fill-opacity:1;stroke:none;stroke-width:12;stroke-linecap:round;stroke-linejoin:round;stroke-miterlimit:4;stroke-dasharray:none;stroke-opacity:1;paint-order:stroke markers fill"
       id="rect916"
       width="381.09177"
       height="376.47427"
       x="888.09918"
       y="-316.08109"
       rx="23.405209"
       ry="23.405209"
       transform="rotate(-8.8907873)" />
    <rect
       transform="rotate(-8.8907873)"
       ry="23.405209"
       rx="23.405209"
       y="-322.26215"
       x="888.28973"
       height="376.47427"
       width="381.09177"
       id="rect897"
       style="opacity:1;fill:url(#linearGradient905);fill-opacity:1;stroke:none;stroke-width:12;stroke-linecap:round;stroke-linejoin:round;stroke-miterlimit:4;stroke-dasharray:none;stroke-opacity:1;paint-order:stroke markers fill" />
    <g
       transform="translate(449.08475,-505.49152)"
       id="g1055">
      <path
         style="fill:#ffffff;fill-opacity:1;stroke:none;stroke-width:1px;stroke-linecap:butt;stroke-linejoin:miter;stroke-opacity:1"
         d="M 430.64407,141.55932 490.84745,365.01695 763.11864,290.16949 702.91525,68.338983 Z"
         id="path1012"
         inkscape:connector-curvature="0" />
      <g
         id="g1049">
        <path
           sodipodi:nodetypes="ccccc"
           inkscape:connector-curvature="0"
           id="path1014"
           d="M 444.47457,149.9661 693.9661,82.711862 749.28814,282.84746 499.79661,350.64407 Z"
           style="fill:url(#linearGradient1022);fill-opacity:1;stroke:none;stroke-width:1px;stroke-linecap:butt;stroke-linejoin:miter;stroke-opacity:1" />
        <path
           inkscape:connector-curvature="0"
           id="path1034"
           d="m 629.33789,102.70898 a 83.829242,162.14135 74.726905 0 0 -62.42578,8.69922 83.829242,162.14135 74.726905 0 0 -142.08203,121.77539 83.829242,162.14135 74.726905 0 0 88.3457,51.72657 l 182.5293,-53.49414 a 83.829242,162.14135 74.726905 0 0 43.59961,-76.43164 83.829242,162.14135 74.726905 0 0 -109.9668,-52.2754 z"
           style="opacity:1;fill:url(#radialGradient1042);fill-opacity:1;stroke:none;stroke-width:8.64674091;stroke-linecap:round;stroke-linejoin:round;stroke-miterlimit:4;stroke-dasharray:none;stroke-opacity:1;paint-order:stroke markers fill" />
      </g>
    </g>
    <path
       inkscape:connector-curvature="0"
       id="path950"
       d="m 1207.625,-493.0625 c -47.0615,116.22501 -92.2207,233.43305 -112.6797,363.41797 9.8386,-0.39354 18.9859,3.35343 27.8379,8.87891 l 0.7578,-0.11915 c 45.6427,-92.7217 72.6157,-194.47629 95.7363,-298.0957 l -11.3359,-72.4707 c -0.085,-0.54569 -0.1957,-1.08107 -0.3164,-1.61133 z"
       style="opacity:0.25100002;fill:#000000;fill-opacity:0.2153285;stroke:none;stroke-width:1px;stroke-linecap:butt;stroke-linejoin:miter;stroke-opacity:1" />
    <path
       inkscape:connector-curvature="0"
       id="path956"
       d="m 1208.2383,-489.55078 c -46.5193,115.01315 -90.9418,231.1099 -111.1836,359.71484 9.7713,-0.39084 18.8607,3.30436 27.6562,8.76758 l 1.0137,-0.1582 c 44.7677,-90.99403 71.5779,-190.67822 94.4082,-292.28711 z"
       style="opacity:0.25100002;fill:#000000;fill-opacity:0.2153285;stroke:none;stroke-width:1px;stroke-linecap:butt;stroke-linejoin:miter;stroke-opacity:1" />
    <path
       inkscape:connector-curvature="0"
       id="path958"
       d="m 1208.6914,-486.66211 c -46.4047,114.75853 -90.675,230.62086 -110.8711,358.93555 8.6827,-0.34731 16.8303,2.52368 24.709,7 l 5.1406,-0.80469 c 43.8915,-89.99833 70.4003,-188.40865 92.9727,-288.72266 z"
       style="opacity:0.25100002;fill:#000000;fill-opacity:0.2153285;stroke:none;stroke-width:1px;stroke-linecap:butt;stroke-linejoin:miter;stroke-opacity:1" />
    <path
       inkscape:connector-curvature="0"
       id="path960"
       d="m 1208.9922,-484.73438 c -46.3748,114.69207 -90.6029,230.49548 -110.7871,358.73438 7.747,-0.30987 15.0664,1.9455 22.1504,5.61328 l 8.6425,-1.35156 c 43.2878,-89.38472 69.5647,-187.00065 91.961,-286.49414 z"
       style="opacity:0.25100002;fill:#000000;fill-opacity:0.2153285;stroke:none;stroke-width:1px;stroke-linecap:butt;stroke-linejoin:miter;stroke-opacity:1" />
    <path
       inkscape:connector-curvature="0"
       id="path962"
       d="m 1209.3477,-482.46289 c -46.2945,114.51403 -90.4162,230.15163 -110.5684,358.1875 6.7254,-0.26901 13.1291,1.39815 19.3359,4.24023 l 12.4024,-1.9414 c 42.61,-88.61108 68.6426,-185.24232 90.8359,-283.73242 z"
       style="opacity:0.25100002;fill:#000000;fill-opacity:0.2153285;stroke:none;stroke-width:1px;stroke-linecap:butt;stroke-linejoin:miter;stroke-opacity:1" />
    <path
       inkscape:connector-curvature="0"
       id="path964"
       d="m 1209.9277,-478.75195 c -46.0862,114.05338 -89.9285,229.26899 -109.998,356.77929 5.1499,-0.20599 10.1107,0.72271 14.9394,2.44336 l 18.0821,-2.82812 c 41.5553,-87.25717 67.2181,-182.2049 89.0859,-278.98828 z"
       style="opacity:0.25100002;fill:#000000;fill-opacity:0.2153285;stroke:none;stroke-width:1px;stroke-linecap:butt;stroke-linejoin:miter;stroke-opacity:1" />
    <path
       inkscape:connector-curvature="0"
       id="path966"
       d="m 1210.7227,-473.67578 c -45.5325,112.83586 -88.6397,226.92537 -108.4903,353.04492 3.866,-0.15464 7.6237,0.33435 11.3008,1.3125 l 22.5977,-3.53516 c 40.2653,-85.10912 65.5224,-177.48018 86.9687,-271.69531 z"
       style="opacity:0.25100002;fill:#000000;fill-opacity:0.2153285;stroke:none;stroke-width:1px;stroke-linecap:butt;stroke-linejoin:miter;stroke-opacity:1" />
    <path
       inkscape:connector-curvature="0"
       id="path968"
       d="m 1211.752,-467.08984 c -44.9206,111.50258 -87.2255,224.35721 -106.836,348.95117 0.3915,-0.0157 0.7806,-0.0129 1.1699,-0.0156 l 34.1856,-5.34765 c 38.5681,-82.44066 63.2591,-171.59589 84.1504,-262.58985 z"
       style="opacity:0.25100002;fill:#000000;fill-opacity:0.2153285;stroke:none;stroke-width:1px;stroke-linecap:butt;stroke-linejoin:miter;stroke-opacity:1" />
    <path
       inkscape:connector-curvature="0"
       id="rect920"
       d="m 1186.9238,-511.15234 c 8.2021,2.10849 14.7296,8.89282 16.1289,17.83789 l 50.9512,325.70312 c 1.8795,12.01531 -6.2405,23.14581 -18.2559,25.02539 l -330.26558,51.66406 c -7.73886,1.2106 -15.10865,-1.73072 -19.8789,-7.18554 3.18908,5.14936 8.27992,8.86761 14.15234,10.3457 2.01885,0.18774 4.0931,0.13262 6.18945,-0.19531 l 330.26559,-51.66406 c 13.6062,-2.12842 22.8843,-14.849 20.7559,-28.45508 l -50.9492,-325.70313 c -0.5404,-3.45459 -1.7666,-6.62745 -3.5137,-9.4082 -3.9072,-4.50402 -9.4657,-7.42697 -15.5801,-7.96484 z"
       style="color:#000000;font-style:normal;font-variant:normal;font-weight:normal;font-stretch:normal;font-size:medium;line-height:normal;font-family:sans-serif;font-variant-ligatures:normal;font-variant-position:normal;font-variant-caps:normal;font-variant-numeric:normal;font-variant-alternates:normal;font-feature-settings:normal;text-indent:0;text-align:start;text-decoration:none;text-decoration-line:none;text-decoration-style:solid;text-decoration-color:#000000;letter-spacing:normal;word-spacing:normal;text-transform:none;writing-mode:lr-tb;direction:ltr;text-orientation:mixed;dominant-baseline:auto;baseline-shift:baseline;text-anchor:start;white-space:normal;shape-padding:0;clip-rule:nonzero;display:inline;overflow:visible;visibility:visible;opacity:0.378;isolation:auto;mix-blend-mode:normal;color-interpolation:sRGB;color-interpolation-filters:linearRGB;solid-color:#000000;solid-opacity:1;vector-effect:none;fill:url(#linearGradient928);fill-opacity:1;fill-rule:nonzero;stroke:none;stroke-width:3;stroke-linecap:round;stroke-linejoin:round;stroke-miterlimit:4;stroke-dasharray:none;stroke-dashoffset:0;stroke-opacity:1;paint-order:stroke markers fill;color-rendering:auto;image-rendering:auto;shape-rendering:auto;text-rendering:auto;enable-background:accumulate" />
    <g
       transform="translate(681.85047,-552.65698)"
       id="g880">
      <path
         style="fill:url(#radialGradient864);fill-opacity:1;stroke:none;stroke-width:1px;stroke-linecap:butt;stroke-linejoin:miter;stroke-opacity:1"
         d="m 411.48427,425.23562 c -30.31429,19.12666 -5.27624,44.13094 -22.33173,72.12031 34.09581,-5.05336 55.55424,-21.80801 50.71187,-62.91525 -4.04888,-5.74957 -14.21208,-8.51508 -28.38014,-9.20506 z"
         id="path856"
         inkscape:connector-curvature="0"
         sodipodi:nodetypes="cccc" />
      <path
         sodipodi:nodetypes="cccc"
         inkscape:connector-curvature="0"
         id="path866"
         d="m 413.28813,424.40678 c -30.31429,19.12666 -7.0801,44.95978 -24.13559,72.94915 34.09581,-5.05336 55.55424,-21.80801 50.71187,-62.91525 -4.04888,-5.74957 -12.40822,-9.34392 -26.57628,-10.0339 z"
         style="fill:url(#linearGradient876);fill-opacity:1;stroke:none;stroke-width:1px;stroke-linecap:butt;stroke-linejoin:miter;stroke-opacity:1" />
      <path
         sodipodi:nodetypes="cccccc"
         inkscape:connector-curvature="0"
         id="path884"
         transform="translate(-171.00777,9.11451)"
         d="m 586.97852,415.81641 c -1.24231,0.0122 -2.53426,0.1005 -3.86133,0.24414 -2.54956,1.06458 -6.13792,3.75009 -8.21911,6.13336 l 36.59606,11.41937 c -0.0855,-2.64946 -0.28125,-5.40212 -0.62109,-8.28711 -6.42758,-5.55259 -13.82058,-9.60906 -23.89453,-9.50976 z"
         style="fill:url(#linearGradient895);fill-opacity:1;stroke:none;stroke-width:1px;stroke-linecap:butt;stroke-linejoin:miter;stroke-opacity:1" />
    </g>
    <path
       sodipodi:nodetypes="ccccc"
       inkscape:connector-curvature="0"
       id="path817"
       d="m 1093.3347,-127.42136 c 22.1339,-140.62636 73.1722,-266.30217 124.2591,-391.95288 5.1247,-12.15115 23.5535,-5.09699 20.7098,6.90328 -28.9731,136.2034 -56.7881,272.96711 -116.5887,394.25398 -9.0196,-5.71095 -18.3418,-9.60591 -28.3802,-9.20438 z"
       style="opacity:1;fill:url(#linearGradient825);fill-opacity:1;stroke:none;stroke-width:1px;stroke-linecap:butt;stroke-linejoin:miter;stroke-opacity:1" />
    <path
       inkscape:connector-curvature="0"
       id="path833"
       d="m 1124.1719,-222.89013 c -3.4547,-0.0526 -7.2121,0.12929 -11.3047,0.59571 -7.802,30.9563 -14.4402,62.51548 -19.5332,94.87304 10.0383,-0.40153 19.3613,3.49413 28.3809,9.20508 14.6135,-29.63892 27.307,-60.20759 38.584,-91.46094 -6.7952,-5.28337 -16.6982,-12.9171 -36.127,-13.21289 z"
       style="fill:url(#linearGradient844);fill-opacity:1;stroke:none;stroke-width:1px;stroke-linecap:butt;stroke-linejoin:miter;stroke-opacity:1" />
  </g>
</svg>
