<svg height="136.53333" viewBox="0 0 136.53333 136.53333" width="136.53333" xmlns="http://www.w3.org/2000/svg" xmlns:xlink="http://www.w3.org/1999/xlink"><linearGradient id="a"><stop offset="0" stop-color="#9760ef"/><stop offset="1" stop-color="#c054f2" stop-opacity="0"/></linearGradient><linearGradient id="b"><stop offset="0" stop-color="#17c7e7"/><stop offset="1" stop-color="#c054f2" stop-opacity="0"/></linearGradient><linearGradient id="c" gradientUnits="userSpaceOnUse" x1="66.21479" x2="67.55541" y1="19.330981" y2="122.010871"><stop offset="0" stop-color="#fcfcfc" stop-opacity=".948187"/><stop offset="1" stop-color="#ededed" stop-opacity=".917098"/></linearGradient><linearGradient id="d" gradientUnits="userSpaceOnUse" x1="62.04421" x2="66.81698" y1="5.831234" y2="47.148641"><stop offset="0" stop-color="#e83c2b"/><stop offset="1" stop-color="#c054f2" stop-opacity=".792157"/></linearGradient><linearGradient id="e" gradientUnits="userSpaceOnUse" x1="88.22553" x2="38.18116" xlink:href="#b" y1="119.556361" y2="35.285226"/><linearGradient id="f" gradientUnits="userSpaceOnUse" x1="210.84187" x2="176.01047" xlink:href="#b" y1="71.479027" y2="62.07011"/><linearGradient id="g" gradientUnits="userSpaceOnUse" x1="151.11572" x2="187.05571" xlink:href="#a" y1="100.93302" y2="62.479195"/><linearGradient id="h" gradientUnits="userSpaceOnUse" x1="178.11522" x2="187.87389" y1="50.206699" y2="66.160942"><stop offset="0" stop-color="#f66456"/><stop offset="1" stop-color="#d9493e" stop-opacity="0"/></linearGradient><linearGradient id="i" gradientUnits="userSpaceOnUse" x1="227.61429" x2="191.14655" xlink:href="#a" y1="22.38904" y2="60.433777"/><circle cx="68.112343" cy="69.239136" fill="url(#c)" r="64.021523" stroke="url(#d)" stroke-opacity=".948187" stroke-width="6"/><circle cx="68.112343" cy="69.239136" fill="none" r="64.021523" stroke="url(#e)" stroke-opacity=".948187" stroke-width="6"/><g stroke-width=".121872" transform="translate(-112.81355 3.471186)"><path d="m210.92987 23.698647c-1.94501 7.47312-12.43405 12.741685-19.52248 16.125354-.70616-4.637121-1.94043-9.261853-3.899-13.632651-2.27636 3.844348-3.77723 8.086315-6.47991 11.669372-2.00158 2.653641-4.23755 5.187768-7.04242 7.185821-.1923.06723-.39466.123419-.58457.193022-1.4448.529591-2.81955 1.131934-4.06443 1.841952-5.63416 3.213516-9.73613 7.58738-12.92677 12.678586-4.29239 6.849214-1.31584 15.656448-13.05911 22.20821-.19454.230971-.43376.445704-.70589.645234.0141-.0097.0254-.01779.0387-.02767.0106.006.0176.01549.0282.02202-2.88179 2.065242-8.55572 2.116445-6.15456 6.573673 1.29527 2.001106 2.29668 3.620004 3.88243 5.17291-.0336.02482-.0553.04569-.0938.07166 4.19045 4.081517 10.25718 6.86462 16.82022 7.42847 3.24971.3505 7.83094.18557 9.76125.18198 16.40089-.0409 32.02734-7.653127 41.41635-18.452614.69782-.846658 3.4451-4.068874 3.4964-4.643483 4.32398-6.929859 9.11805-14.021281 9.41378-21.960043v-.0057c-4.68955 1.39205-9.6208 2.94953-14.65837 3.419195.0527-.0024.10437-.0045.15436-.0057.0226-.00027.0444.00022.066 0-1.29026.0169-3.71156.512759-4.29053-.09927 5.53198-6.181926 10.78297-12.925664 11.95061-20.686112.73312-5.388599-.19114-11.212355-3.54604-15.904764zm12.87163 11.961658c-4.78253.832968.70897 5.83385-.43569 8.564528 4.15115-1.155724 4.97408-7.413388.43569-8.564528zm1.98532 10.57744c-.23068.0028-.48721.08917-.64524.204062-2.98466 2.170111-.93019 6.781863-2.92284 9.485504 1.40841.08051 2.82695-.385999 4.06995-.882372 4.04248-1.328334 2.55749-6.813668-.13782-8.713428-.0959-.06775-.22561-.09558-.36399-.09374zm-6.17108.209568c-1.43778-.01035-.95108 3.769745.62867 3.832805 1.33639.05336 1.48221-2.192107.92096-3.182058-.24395-.430086-1.18312-.648068-1.54963-.650747zm-53.69786 14.76319c3.3461-.0038 3.59658 5.199223 3.96513 7.533255.5569 3.491963 1.2051 7.416987-3.95414 8.724456-.35054.149538-1.70463 1.010323-1.307-.06065 1.46665-2.55005-1.07916-8.985974-5.00195-5.785053-.39083-3.634055.91042-7.790916 4.66554-10.070073.61372-.236561 1.1544-.341337 1.63242-.34192zm45.81166 17.641933h.006c.0112-.0015.0226-.000845.0331 0-.16315.0028-.61396.290368-1.48899 1.009213-.0429.02344-.0692.02795-.11037.04963.0317-.01673.0612-.03191.0938-.04963.13869-.113844.26796-.215863.38601-.30883.0457-.03599.0842-.0663.12672-.09927.0702-.05435.13607-.108005.1985-.154414.0384-.02846.0747-.05168.11037-.0772.0575-.04148.11512-.08179.16546-.115816.0429-.02908.0836-.05889.12144-.08273.009-.0048.0141-.0065.0226-.01113.0533-.03318.1008-.06018.14345-.08273.0176-.009.034-.02032.0496-.02767.006-.0034.0176-.0083.0226-.01113.0197-.0097.0429-.01601.0608-.02202l.01-.0057c.0197-.0066.0339-.0085.0496-.01113zm-69.17248 3.821777c-.0225.01601-.0486.03378-.0716.04963.0225-.01602.0488-.03349.0716-.04963zm34.4787 1.599298a1.4119368 1.4119368 0 0 1 .0994 0 1.4119368 1.4119368 0 0 1 1.12503 2.25005c-2.81637 3.919069-6.63609 7.905003-15.07754 9.049835a1.4132605 1.4132605 0 1 1 -.37499-2.801532c7.73825-1.049462 10.48018-4.164928 13.15835-7.891722a1.4119368 1.4119368 0 0 1 1.0699-.606631z" fill="#9760ef"/><path d="m210.92987 23.698647c-1.94501 7.47312-12.43405 12.741685-19.52248 16.125354-.70616-4.637121-1.94043-9.261853-3.899-13.632651-2.27636 3.844348-3.77723 8.086315-6.47991 11.669372-2.00158 2.653641-4.23755 5.187768-7.04242 7.185821-.1923.06723-.39466.123419-.58457.193022-1.4448.529591-2.81955 1.131934-4.06443 1.841952-5.63416 3.213516-9.73613 7.58738-12.92677 12.678586-4.29239 6.849214-1.31584 15.656448-13.05911 22.20821-.19454.230971-.43376.445704-.70589.645234.0141-.0097.0254-.01779.0387-.02767.0106.006.0176.01549.0282.02202-2.88179 2.065242-8.55572 2.116445-6.15456 6.573673 1.29527 2.001106 2.29668 3.620004 3.88243 5.17291-.0336.02482-.0553.04569-.0938.07166 4.19045 4.081517 10.25718 6.86462 16.82022 7.42847 3.24971.3505 7.83094.18557 9.76125.18198 16.40089-.0409 32.02734-7.653127 41.41635-18.452614.69782-.846658 3.4451-4.068874 3.4964-4.643483 4.32398-6.929859 9.11805-14.021281 9.41378-21.960043v-.0057c-4.68955 1.39205-9.6208 2.94953-14.65837 3.419195.0527-.0024.10437-.0045.15436-.0057.0226-.00027.0444.00022.066 0-1.29026.0169-3.71156.512759-4.29053-.09927 5.53198-6.181926 10.78297-12.925664 11.95061-20.686112.73312-5.388599-.19114-11.212355-3.54604-15.904764zm12.87163 11.961658c-4.78253.832968.70897 5.83385-.43569 8.564528 4.15115-1.155724 4.97408-7.413388.43569-8.564528zm1.98532 10.57744c-.23068.0028-.48721.08917-.64524.204062-2.98466 2.170111-.93019 6.781863-2.92284 9.485504 1.40841.08051 2.82695-.385999 4.06995-.882372 4.04248-1.328334 2.55749-6.813668-.13782-8.713428-.0959-.06775-.22561-.09558-.36399-.09374zm-6.17108.209568c-1.43778-.01035-.95108 3.769745.62867 3.832805 1.33639.05336 1.48221-2.192107.92096-3.182058-.24395-.430086-1.18312-.648068-1.54963-.650747zm-53.69786 14.76319c3.3461-.0038 3.59658 5.199223 3.96513 7.533255.5569 3.491963 1.2051 7.416987-3.95414 8.724456-.35054.149538-1.70463 1.010323-1.307-.06065 1.46665-2.55005-1.07916-8.985974-5.00195-5.785053-.39083-3.634055.91042-7.790916 4.66554-10.070073.61372-.236561 1.1544-.341337 1.63242-.34192zm45.81166 17.641933h.006c.0112-.0015.0226-.000845.0331 0-.16315.0028-.61396.290368-1.48899 1.009213-.0429.02344-.0692.02795-.11037.04963.0317-.01673.0612-.03191.0938-.04963.13869-.113844.26796-.215863.38601-.30883.0457-.03599.0842-.0663.12672-.09927.0702-.05435.13607-.108005.1985-.154414.0384-.02846.0747-.05168.11037-.0772.0575-.04148.11512-.08179.16546-.115816.0429-.02908.0836-.05889.12144-.08273.009-.0048.0141-.0065.0226-.01113.0533-.03318.1008-.06018.14345-.08273.0176-.009.034-.02032.0496-.02767.006-.0034.0176-.0083.0226-.01113.0197-.0097.0429-.01601.0608-.02202l.01-.0057c.0197-.0066.0339-.0085.0496-.01113zm-69.17248 3.821777c-.0225.01601-.0486.03378-.0716.04963.0225-.01602.0488-.03349.0716-.04963zm34.4787 1.599298a1.4119368 1.4119368 0 0 1 .0994 0 1.4119368 1.4119368 0 0 1 1.12503 2.25005c-2.81637 3.919069-6.63609 7.905003-15.07754 9.049835a1.4132605 1.4132605 0 1 1 -.37499-2.801532c7.73825-1.049462 10.48018-4.164928 13.15835-7.891722a1.4119368 1.4119368 0 0 1 1.0699-.606631z" fill="url(#f)"/><path d="m210.92987 23.698647c-1.94501 7.47312-12.43405 12.741685-19.52248 16.125354-.70616-4.637121-1.94043-9.261853-3.899-13.632651-2.27636 3.844348-3.77723 8.086315-6.47991 11.669372-2.00158 2.653641-4.23755 5.187768-7.04242 7.185821-.1923.06723-.39466.123419-.58457.193022-1.4448.529591-2.81955 1.131934-4.06443 1.841952-5.63416 3.213516-9.73613 7.58738-12.92677 12.678586-4.29239 6.849214-1.31584 15.656448-13.05911 22.20821-.19454.230971-.43376.445704-.70589.645234.0141-.0097.0254-.01779.0387-.02767.0106.006.0176.01549.0282.02202-2.88179 2.065242-8.55572 2.116445-6.15456 6.573673 1.29527 2.001106 2.29668 3.620004 3.88243 5.17291-.0336.02482-.0553.04569-.0938.07166 4.19045 4.081517 10.25718 6.86462 16.82022 7.42847 3.24971.3505 7.83094.18557 9.76125.18198 16.40089-.0409 32.02734-7.653127 41.41635-18.452614.69782-.846658 3.4451-4.068874 3.4964-4.643483 4.32398-6.929859 9.11805-14.021281 9.41378-21.960043v-.0057c-4.68955 1.39205-9.6208 2.94953-14.65837 3.419195.0527-.0024.10437-.0045.15436-.0057.0226-.00027.0444.00022.066 0-1.29026.0169-3.71156.512759-4.29053-.09927 5.53198-6.181926 10.78297-12.925664 11.95061-20.686112.73312-5.388599-.19114-11.212355-3.54604-15.904764zm12.87163 11.961658c-4.78253.832968.70897 5.83385-.43569 8.564528 4.15115-1.155724 4.97408-7.413388.43569-8.564528zm1.98532 10.57744c-.23068.0028-.48721.08917-.64524.204062-2.98466 2.170111-.93019 6.781863-2.92284 9.485504 1.40841.08051 2.82695-.385999 4.06995-.882372 4.04248-1.328334 2.55749-6.813668-.13782-8.713428-.0959-.06775-.22561-.09558-.36399-.09374zm-6.17108.209568c-1.43778-.01035-.95108 3.769745.62867 3.832805 1.33639.05336 1.48221-2.192107.92096-3.182058-.24395-.430086-1.18312-.648068-1.54963-.650747zm-53.69786 14.76319c3.3461-.0038 3.59658 5.199223 3.96513 7.533255.5569 3.491963 1.2051 7.416987-3.95414 8.724456-.35054.149538-1.70463 1.010323-1.307-.06065 1.46665-2.55005-1.07916-8.985974-5.00195-5.785053-.39083-3.634055.91042-7.790916 4.66554-10.070073.61372-.236561 1.1544-.341337 1.63242-.34192zm45.81166 17.641933h.006c.0112-.0015.0226-.000845.0331 0-.16315.0028-.61396.290368-1.48899 1.009213-.0429.02344-.0692.02795-.11037.04963.0317-.01673.0612-.03191.0938-.04963.13869-.113844.26796-.215863.38601-.30883.0457-.03599.0842-.0663.12672-.09927.0702-.05435.13607-.108005.1985-.154414.0384-.02846.0747-.05168.11037-.0772.0575-.04148.11512-.08179.16546-.115816.0429-.02908.0836-.05889.12144-.08273.009-.0048.0141-.0065.0226-.01113.0533-.03318.1008-.06018.14345-.08273.0176-.009.034-.02032.0496-.02767.006-.0034.0176-.0083.0226-.01113.0197-.0097.0429-.01601.0608-.02202l.01-.0057c.0197-.0066.0339-.0085.0496-.01113zm-69.17248 3.821777c-.0225.01601-.0486.03378-.0716.04963.0225-.01602.0488-.03349.0716-.04963zm34.4787 1.599298a1.4119368 1.4119368 0 0 1 .0994 0 1.4119368 1.4119368 0 0 1 1.12503 2.25005c-2.81637 3.919069-6.63609 7.905003-15.07754 9.049835a1.4132605 1.4132605 0 1 1 -.37499-2.801532c7.73825-1.049462 10.48018-4.164928 13.15835-7.891722a1.4119368 1.4119368 0 0 1 1.0699-.606631z" fill="url(#g)"/><path d="m210.92987 23.698647c-1.94501 7.47312-12.43405 12.741685-19.52248 16.125354-.70616-4.637121-1.94043-9.261853-3.899-13.632651-2.27636 3.844348-3.77723 8.086315-6.47991 11.669372-2.00158 2.653641-4.23755 5.187768-7.04242 7.185821-.1923.06723-.39466.123419-.58457.193022-1.4448.529591-2.81955 1.131934-4.06443 1.841952-5.63416 3.213516-9.73613 7.58738-12.92677 12.678586-4.29239 6.849214-1.31584 15.656448-13.05911 22.20821-.19454.230971-.43376.445704-.70589.645234.0141-.0097.0254-.01779.0387-.02767.0106.006.0176.01549.0282.02202-2.88179 2.065242-8.55572 2.116445-6.15456 6.573673 1.29527 2.001106 2.29668 3.620004 3.88243 5.17291-.0336.02482-.0553.04569-.0938.07166 4.19045 4.081517 10.25718 6.86462 16.82022 7.42847 3.24971.3505 7.83094.18557 9.76125.18198 16.40089-.0409 32.02734-7.653127 41.41635-18.452614.69782-.846658 3.4451-4.068874 3.4964-4.643483 4.32398-6.929859 9.11805-14.021281 9.41378-21.960043v-.0057c-4.68955 1.39205-9.6208 2.94953-14.65837 3.419195.0527-.0024.10437-.0045.15436-.0057.0226-.00027.0444.00022.066 0-1.29026.0169-3.71156.512759-4.29053-.09927 5.53198-6.181926 10.78297-12.925664 11.95061-20.686112.73312-5.388599-.19114-11.212355-3.54604-15.904764zm12.87163 11.961658c-4.78253.832968.70897 5.83385-.43569 8.564528 4.15115-1.155724 4.97408-7.413388.43569-8.564528zm1.98532 10.57744c-.23068.0028-.48721.08917-.64524.204062-2.98466 2.170111-.93019 6.781863-2.92284 9.485504 1.40841.08051 2.82695-.385999 4.06995-.882372 4.04248-1.328334 2.55749-6.813668-.13782-8.713428-.0959-.06775-.22561-.09558-.36399-.09374zm-6.17108.209568c-1.43778-.01035-.95108 3.769745.62867 3.832805 1.33639.05336 1.48221-2.192107.92096-3.182058-.24395-.430086-1.18312-.648068-1.54963-.650747zm-53.69786 14.76319c3.3461-.0038 3.59658 5.199223 3.96513 7.533255.5569 3.491963 1.2051 7.416987-3.95414 8.724456-.35054.149538-1.70463 1.010323-1.307-.06065 1.46665-2.55005-1.07916-8.985974-5.00195-5.785053-.39083-3.634055.91042-7.790916 4.66554-10.070073.61372-.236561 1.1544-.341337 1.63242-.34192zm45.81166 17.641933h.006c.0112-.0015.0226-.000845.0331 0-.16315.0028-.61396.290368-1.48899 1.009213-.0429.02344-.0692.02795-.11037.04963.0317-.01673.0612-.03191.0938-.04963.13869-.113844.26796-.215863.38601-.30883.0457-.03599.0842-.0663.12672-.09927.0702-.05435.13607-.108005.1985-.154414.0384-.02846.0747-.05168.11037-.0772.0575-.04148.11512-.08179.16546-.115816.0429-.02908.0836-.05889.12144-.08273.009-.0048.0141-.0065.0226-.01113.0533-.03318.1008-.06018.14345-.08273.0176-.009.034-.02032.0496-.02767.006-.0034.0176-.0083.0226-.01113.0197-.0097.0429-.01601.0608-.02202l.01-.0057c.0197-.0066.0339-.0085.0496-.01113zm-69.17248 3.821777c-.0225.01601-.0486.03378-.0716.04963.0225-.01602.0488-.03349.0716-.04963zm34.4787 1.599298a1.4119368 1.4119368 0 0 1 .0994 0 1.4119368 1.4119368 0 0 1 1.12503 2.25005c-2.81637 3.919069-6.63609 7.905003-15.07754 9.049835a1.4132605 1.4132605 0 1 1 -.37499-2.801532c7.73825-1.049462 10.48018-4.164928 13.15835-7.891722a1.4119368 1.4119368 0 0 1 1.0699-.606631z" fill="url(#h)"/><path d="m210.92987 23.698647c-1.94501 7.47312-12.43405 12.741685-19.52248 16.125354-.70616-4.637121-1.94043-9.261853-3.899-13.632651-2.27636 3.844348-3.77723 8.086315-6.47991 11.669372-2.00158 2.653641-4.23755 5.187768-7.04242 7.185821-.1923.06723-.39466.123419-.58457.193022-1.4448.529591-2.81955 1.131934-4.06443 1.841952-5.63416 3.213516-9.73613 7.58738-12.92677 12.678586-4.29239 6.849214-1.31584 15.656448-13.05911 22.20821-.19454.230971-.43376.445704-.70589.645234.0141-.0097.0254-.01779.0387-.02767.0106.006.0176.01549.0282.02202-2.88179 2.065242-8.55572 2.116445-6.15456 6.573673 1.29527 2.001106 2.29668 3.620004 3.88243 5.17291-.0336.02482-.0553.04569-.0938.07166 4.19045 4.081517 10.25718 6.86462 16.82022 7.42847 3.24971.3505 7.83094.18557 9.76125.18198 16.40089-.0409 32.02734-7.653127 41.41635-18.452614.69782-.846658 3.4451-4.068874 3.4964-4.643483 4.32398-6.929859 9.11805-14.021281 9.41378-21.960043v-.0057c-4.68955 1.39205-9.6208 2.94953-14.65837 3.419195.0527-.0024.10437-.0045.15436-.0057.0226-.00027.0444.00022.066 0-1.29026.0169-3.71156.512759-4.29053-.09927 5.53198-6.181926 10.78297-12.925664 11.95061-20.686112.73312-5.388599-.19114-11.212355-3.54604-15.904764zm12.87163 11.961658c-4.78253.832968.70897 5.83385-.43569 8.564528 4.15115-1.155724 4.97408-7.413388.43569-8.564528zm1.98532 10.57744c-.23068.0028-.48721.08917-.64524.204062-2.98466 2.170111-.93019 6.781863-2.92284 9.485504 1.40841.08051 2.82695-.385999 4.06995-.882372 4.04248-1.328334 2.55749-6.813668-.13782-8.713428-.0959-.06775-.22561-.09558-.36399-.09374zm-6.17108.209568c-1.43778-.01035-.95108 3.769745.62867 3.832805 1.33639.05336 1.48221-2.192107.92096-3.182058-.24395-.430086-1.18312-.648068-1.54963-.650747zm-53.69786 14.76319c3.3461-.0038 3.59658 5.199223 3.96513 7.533255.5569 3.491963 1.2051 7.416987-3.95414 8.724456-.35054.149538-1.70463 1.010323-1.307-.06065 1.46665-2.55005-1.07916-8.985974-5.00195-5.785053-.39083-3.634055.91042-7.790916 4.66554-10.070073.61372-.236561 1.1544-.341337 1.63242-.34192zm45.81166 17.641933h.006c.0112-.0015.0226-.000845.0331 0-.16315.0028-.61396.290368-1.48899 1.009213-.0429.02344-.0692.02795-.11037.04963.0317-.01673.0612-.03191.0938-.04963.13869-.113844.26796-.215863.38601-.30883.0457-.03599.0842-.0663.12672-.09927.0702-.05435.13607-.108005.1985-.154414.0384-.02846.0747-.05168.11037-.0772.0575-.04148.11512-.08179.16546-.115816.0429-.02908.0836-.05889.12144-.08273.009-.0048.0141-.0065.0226-.01113.0533-.03318.1008-.06018.14345-.08273.0176-.009.034-.02032.0496-.02767.006-.0034.0176-.0083.0226-.01113.0197-.0097.0429-.01601.0608-.02202l.01-.0057c.0197-.0066.0339-.0085.0496-.01113zm-69.17248 3.821777c-.0225.01601-.0486.03378-.0716.04963.0225-.01602.0488-.03349.0716-.04963zm34.4787 1.599298a1.4119368 1.4119368 0 0 1 .0994 0 1.4119368 1.4119368 0 0 1 1.12503 2.25005c-2.81637 3.919069-6.63609 7.905003-15.07754 9.049835a1.4132605 1.4132605 0 1 1 -.37499-2.801532c7.73825-1.049462 10.48018-4.164928 13.15835-7.891722a1.4119368 1.4119368 0 0 1 1.0699-.606631z" fill="url(#i)"/></g></svg>