<?xml version="1.0" encoding="UTF-8" standalone="no"?>
<!-- Created with Inkscape (http://www.inkscape.org/) -->

<svg
   xmlns:dc="http://purl.org/dc/elements/1.1/"
   xmlns:cc="http://creativecommons.org/ns#"
   xmlns:rdf="http://www.w3.org/1999/02/22-rdf-syntax-ns#"
   xmlns:svg="http://www.w3.org/2000/svg"
   xmlns="http://www.w3.org/2000/svg"
   xmlns:xlink="http://www.w3.org/1999/xlink"
   xmlns:sodipodi="http://sodipodi.sourceforge.net/DTD/sodipodi-0.dtd"
   xmlns:inkscape="http://www.inkscape.org/namespaces/inkscape"
   version="1.1"
   id="svg2"
   width="128"
   height="128"
   viewBox="0 0 128 128"
   sodipodi:docname="gnome-books.svg"
   inkscape:version="0.92.2pre0 (973e216, 2017-07-25)">
  <metadata
     id="metadata8">
    <rdf:RDF>
      <cc:Work
         rdf:about="">
        <dc:format>image/svg+xml</dc:format>
        <dc:type
           rdf:resource="http://purl.org/dc/dcmitype/StillImage" />
        <dc:title></dc:title>
      </cc:Work>
    </rdf:RDF>
  </metadata>
  <defs
     id="defs6">
    <linearGradient
       inkscape:collect="always"
       id="linearGradient919">
      <stop
         style="stop-color:#ffffff;stop-opacity:1;"
         offset="0"
         id="stop915" />
      <stop
         style="stop-color:#ececec;stop-opacity:1"
         offset="1"
         id="stop917" />
    </linearGradient>
    <linearGradient
       inkscape:collect="always"
       id="linearGradient1078">
      <stop
         style="stop-color:#cccdd1;stop-opacity:1;"
         offset="0"
         id="stop1074" />
      <stop
         style="stop-color:#f7f9f9;stop-opacity:1"
         offset="1"
         id="stop1076" />
    </linearGradient>
    <linearGradient
       id="linearGradient821"
       inkscape:collect="always">
      <stop
         id="stop817"
         offset="0"
         style="stop-color:#ffc232;stop-opacity:1" />
      <stop
         id="stop819"
         offset="1"
         style="stop-color:#e04a00;stop-opacity:1" />
    </linearGradient>
    <linearGradient
       gradientUnits="userSpaceOnUse"
       y2="121.01225"
       x2="68.286613"
       y1="10.51384"
       x1="69.054108"
       id="linearGradient823"
       xlink:href="#linearGradient821"
       inkscape:collect="always"
       gradientTransform="matrix(0.94601788,0,0,0.94601788,-0.8977099,-0.44925348)" />
    <linearGradient
       inkscape:collect="always"
       xlink:href="#linearGradient1078"
       id="linearGradient1080"
       x1="701.81012"
       y1="398.37137"
       x2="699.27539"
       y2="220.52734"
       gradientUnits="userSpaceOnUse"
       gradientTransform="matrix(0.66355071,0,0,0.66355071,-399.67109,-144.99254)" />
    <filter
       inkscape:collect="always"
       style="color-interpolation-filters:sRGB"
       id="filter881"
       x="-0.014246477"
       width="1.028493"
       y="-0.017237713"
       height="1.0344754">
      <feGaussianBlur
         inkscape:collect="always"
         stdDeviation="0.4822859"
         id="feGaussianBlur883" />
    </filter>
    <linearGradient
       inkscape:collect="always"
       xlink:href="#linearGradient919"
       id="linearGradient921"
       x1="66.481369"
       y1="41.785786"
       x2="62.748848"
       y2="97.800362"
       gradientUnits="userSpaceOnUse" />
  </defs>
  <sodipodi:namedview
     pagecolor="#ffffff"
     bordercolor="#666666"
     borderopacity="1"
     objecttolerance="10"
     gridtolerance="10"
     guidetolerance="10"
     inkscape:pageopacity="0"
     inkscape:pageshadow="2"
     inkscape:window-width="1360"
     inkscape:window-height="740"
     id="namedview4"
     showgrid="false"
     inkscape:zoom="1.264"
     inkscape:cx="63.315174"
     inkscape:cy="83.341526"
     inkscape:window-x="0"
     inkscape:window-y="0"
     inkscape:window-maximized="1"
     inkscape:current-layer="svg2" />
  <path
     style="fill:#000000;stroke-width:1.33333337"
     d=""
     id="path849"
     inkscape:connector-curvature="0" />
  <path
     style="fill:#000000;stroke-width:1.33333337"
     d=""
     id="path847"
     inkscape:connector-curvature="0" />
  <circle
     id="path12-3"
     cx="64.333229"
     cy="64.22612"
     r="60.565502"
     style="fill:url(#linearGradient823);fill-opacity:1;stroke:#cccdd1;stroke-width:4.64485502;stroke-miterlimit:4;stroke-dasharray:none;stroke-opacity:1" />
  <path
     style="color:#000000;font-style:normal;font-variant:normal;font-weight:normal;font-stretch:normal;font-size:medium;line-height:normal;font-family:sans-serif;font-variant-ligatures:normal;font-variant-position:normal;font-variant-caps:normal;font-variant-numeric:normal;font-variant-alternates:normal;font-feature-settings:normal;text-indent:0;text-align:start;text-decoration:none;text-decoration-line:none;text-decoration-style:solid;text-decoration-color:#000000;letter-spacing:normal;word-spacing:normal;text-transform:none;writing-mode:lr-tb;direction:ltr;text-orientation:mixed;dominant-baseline:auto;baseline-shift:baseline;text-anchor:start;white-space:normal;shape-padding:0;clip-rule:nonzero;display:inline;overflow:visible;visibility:visible;opacity:1;isolation:auto;mix-blend-mode:normal;color-interpolation:sRGB;color-interpolation-filters:linearRGB;solid-color:#000000;solid-opacity:1;vector-effect:none;fill:url(#linearGradient1080);fill-opacity:1;fill-rule:nonzero;stroke:none;stroke-width:4.64485502;stroke-linecap:butt;stroke-linejoin:miter;stroke-miterlimit:4;stroke-dasharray:none;stroke-dashoffset:0;stroke-opacity:1;color-rendering:auto;image-rendering:auto;shape-rendering:auto;text-rendering:auto;enable-background:accumulate"
     d="m 64.333592,1.3385313 c -34.704539,0 -62.8882778,28.1824517 -62.8882778,62.8869837 0,34.704538 28.1837388,62.888275 62.8882778,62.888275 34.704538,0 62.886978,-28.183737 62.886978,-62.888275 0,-34.704532 -28.18244,-62.8869837 -62.886978,-62.8869837 z m 0,4.644855 c 32.194272,0 58.242128,26.0478627 58.242128,58.2421287 0,32.194272 -26.047856,58.243425 -58.242128,58.243425 -32.194267,0 -58.2434228,-26.049153 -58.2434228,-58.243425 0,-32.194266 26.0491558,-58.2421287 58.2434228,-58.2421287 z"
     id="circle1062"
     inkscape:connector-curvature="0" />
  <path
     inkscape:connector-curvature="0"
     id="path871"
     d="m 44.094243,31.7896 c -6.332928,0.04108 -12.516194,2.854418 -17.191788,5.502601 -2.734029,1.681524 -2.949717,2.382129 -2.997773,5.741729 l -0.195045,45.45423 c 0.02859,1.541878 0.484206,3.250975 2.092035,2.373906 0.501969,-0.336992 1.00151,-0.657776 1.498882,-0.963188 16.650956,-10.224434 30.629461,-2.943494 35.448294,9.038744 L 62.185095,42.923049 C 56.909825,34.480146 50.427173,31.748518 44.094243,31.7896 Z m 40.477981,0 c -6.33293,-0.04109 -12.815589,2.690546 -18.090852,11.133449 l -0.563753,56.014573 c 4.818832,-11.982238 18.797332,-19.263178 35.448281,-9.038744 0.49738,0.305412 0.99692,0.626196 1.49889,0.963188 1.60783,0.877069 2.06344,-0.832028 2.09203,-2.373906 l -0.19504,-45.45423 c -0.0481,-3.3596 -0.26375,-4.060205 -2.99778,-5.741729 C 97.08841,34.644018 90.905151,31.830683 84.572224,31.7896 Z"
     style="fill:#000000;stroke:none;stroke-width:0.68398434px;stroke-linecap:butt;stroke-linejoin:miter;stroke-opacity:1;fill-opacity:0.13366337;filter:url(#filter881)" />
  <path
     style="fill:url(#linearGradient921);stroke:none;stroke-width:0.68398434px;stroke-linecap:butt;stroke-linejoin:miter;stroke-opacity:1;fill-opacity:1"
     d="m 44.094243,30.652337 c -6.332928,0.04108 -12.516194,2.854418 -17.191788,5.502601 -2.734029,1.681524 -2.949717,2.382129 -2.997773,5.741729 l -0.195045,45.45423 c 0.02859,1.541878 0.484206,3.250975 2.092035,2.373906 0.501969,-0.336992 1.00151,-0.657776 1.498882,-0.963188 16.650956,-10.224434 30.629461,-2.943494 35.448294,9.038744 L 62.185095,41.785786 C 56.909825,33.342883 50.427173,30.611255 44.094243,30.652337 Z m 40.477981,0 c -6.33293,-0.04109 -12.815589,2.690546 -18.090852,11.133449 l -0.563753,56.014573 c 4.818832,-11.982238 18.797332,-19.263178 35.448281,-9.038744 0.49738,0.305412 0.99692,0.626196 1.49889,0.963188 1.60783,0.877069 2.06344,-0.832028 2.09203,-2.373906 l -0.19504,-45.45423 c -0.0481,-3.3596 -0.26375,-4.060205 -2.99778,-5.741729 C 97.08841,33.506755 90.905151,30.69342 84.572224,30.652337 Z"
     id="path58"
     inkscape:connector-curvature="0" />
</svg>
