<?xml version="1.0" encoding="UTF-8" standalone="no"?>
<!-- Created with Inkscape (http://www.inkscape.org/) -->

<svg
   xmlns:dc="http://purl.org/dc/elements/1.1/"
   xmlns:cc="http://creativecommons.org/ns#"
   xmlns:rdf="http://www.w3.org/1999/02/22-rdf-syntax-ns#"
   xmlns:svg="http://www.w3.org/2000/svg"
   xmlns="http://www.w3.org/2000/svg"
   xmlns:xlink="http://www.w3.org/1999/xlink"
   xmlns:sodipodi="http://sodipodi.sourceforge.net/DTD/sodipodi-0.dtd"
   xmlns:inkscape="http://www.inkscape.org/namespaces/inkscape"
   version="1.1"
   id="svg2"
   width="128"
   height="128"
   viewBox="0 0 128 128"
   sodipodi:docname="gnome-books.svg"
   inkscape:version="0.92.4 5da689c313, 2019-01-14">
  <metadata
     id="metadata8">
    <rdf:RDF>
      <cc:Work
         rdf:about="">
        <dc:format>image/svg+xml</dc:format>
        <dc:type
           rdf:resource="http://purl.org/dc/dcmitype/StillImage" />
        <dc:title></dc:title>
      </cc:Work>
    </rdf:RDF>
  </metadata>
  <defs
     id="defs6">
    <linearGradient
       inkscape:collect="always"
       id="linearGradient833">
      <stop
         style="stop-color:#fc7100;stop-opacity:1"
         offset="0"
         id="stop829" />
      <stop
         style="stop-color:#ff9c00;stop-opacity:1"
         offset="1"
         id="stop831" />
    </linearGradient>
    <linearGradient
       inkscape:collect="always"
       id="linearGradient823">
      <stop
         style="stop-color:#ab4100;stop-opacity:1"
         offset="0"
         id="stop819" />
      <stop
         style="stop-color:#fe9d00;stop-opacity:1"
         offset="1"
         id="stop821" />
    </linearGradient>
    <linearGradient
       inkscape:collect="always"
       xlink:href="#linearGradient823"
       id="linearGradient825"
       x1="-741.83197"
       y1="959.04749"
       x2="-741.83197"
       y2="93.836403"
       gradientUnits="userSpaceOnUse"
       gradientTransform="matrix(0.13667801,0,0,0.13667801,162.31231,-5.989337)" />
    <linearGradient
       inkscape:collect="always"
       xlink:href="#linearGradient833"
       id="linearGradient835"
       x1="-738.76385"
       y1="931.43433"
       x2="-738.76385"
       y2="152.13077"
       gradientUnits="userSpaceOnUse"
       gradientTransform="matrix(0.13667801,0,0,0.13667801,162.31231,-5.989337)" />
  </defs>
  <sodipodi:namedview
     pagecolor="#ffffff"
     bordercolor="#666666"
     borderopacity="1"
     objecttolerance="10"
     gridtolerance="10"
     guidetolerance="10"
     inkscape:pageopacity="0"
     inkscape:pageshadow="2"
     inkscape:window-width="1920"
     inkscape:window-height="1028"
     id="namedview4"
     showgrid="false"
     inkscape:zoom="1.3037281"
     inkscape:cx="126.43456"
     inkscape:cy="12.863959"
     inkscape:window-x="0"
     inkscape:window-y="26"
     inkscape:window-maximized="1"
     inkscape:current-layer="svg2" />
  <circle
     style="opacity:1;fill:url(#linearGradient825);fill-opacity:1;stroke:none;stroke-width:0.78699166;stroke-linecap:round;stroke-linejoin:round;stroke-miterlimit:4;stroke-dasharray:none;stroke-opacity:1"
     id="path817"
     cx="63.591888"
     cy="64.286316"
     r="61.380009" />
  <circle
     r="55.089832"
     cy="64.286316"
     cx="63.591888"
     id="circle827"
     style="opacity:1;fill:url(#linearGradient835);fill-opacity:1;stroke:none;stroke-width:0.70634133;stroke-linecap:round;stroke-linejoin:round;stroke-miterlimit:4;stroke-dasharray:none;stroke-opacity:1" />
  <g
     id="g1099"
     transform="matrix(0.90932235,0,0,0.90932235,-97.470278,-84.427004)">
    <g
       style="opacity:0.43200001"
       transform="translate(-12.33339,161.34497)"
       id="g1078">
      <path
         id="path864"
         d="m 169.21769,-30.59985 c -6.33293,0.04108 -12.51619,2.854418 -17.19179,5.502601 -2.73402,1.681524 -2.94971,2.382129 -2.99777,5.741729 l -0.19504,45.45423 c 0.0286,1.541878 0.4842,3.250975 2.09203,2.373906 0.50197,-0.336992 1.00151,-0.657776 1.49888,-0.963188 16.65096,-10.224434 30.62946,-2.943494 35.4483,9.038744 l -0.56376,-56.014573 c -5.27527,-8.442903 -11.75792,-11.174531 -18.09085,-11.133449 z m 40.47798,0 c -6.33293,-0.04109 -12.81559,2.690546 -18.09085,11.133449 l -0.56375,56.014573 c 4.81883,-11.982238 18.79733,-19.263178 35.44828,-9.038744 0.49738,0.305412 0.99692,0.626196 1.49889,0.963188 1.60783,0.877069 2.06344,-0.832028 2.09203,-2.373906 l -0.19504,-45.45423 c -0.0481,-3.3596 -0.26375,-4.060205 -2.99778,-5.741729 -4.67559,-2.648183 -10.85885,-5.461518 -17.19178,-5.502601 z"
         inkscape:connector-curvature="0"
         style="fill:none;fill-opacity:0.13366298;stroke:#11100f;stroke-width:0.2;stroke-linecap:round;stroke-linejoin:round;stroke-miterlimit:4;stroke-dasharray:none;stroke-opacity:0.01176471;filter:url(#c)" />
      <path
         style="fill:none;fill-opacity:0.13366298;stroke:#11100f;stroke-width:0.40000001;stroke-linecap:round;stroke-linejoin:round;stroke-miterlimit:4;stroke-dasharray:none;stroke-opacity:0.01176471;filter:url(#c)"
         inkscape:connector-curvature="0"
         d="m 169.21769,-30.59985 c -6.33293,0.04108 -12.51619,2.854418 -17.19179,5.502601 -2.73402,1.681524 -2.94971,2.382129 -2.99777,5.741729 l -0.19504,45.45423 c 0.0286,1.541878 0.4842,3.250975 2.09203,2.373906 0.50197,-0.336992 1.00151,-0.657776 1.49888,-0.963188 16.65096,-10.224434 30.62946,-2.943494 35.4483,9.038744 l -0.56376,-56.014573 c -5.27527,-8.442903 -11.75792,-11.174531 -18.09085,-11.133449 z m 40.47798,0 c -6.33293,-0.04109 -12.81559,2.690546 -18.09085,11.133449 l -0.56375,56.014573 c 4.81883,-11.982238 18.79733,-19.263178 35.44828,-9.038744 0.49738,0.305412 0.99692,0.626196 1.49889,0.963188 1.60783,0.877069 2.06344,-0.832028 2.09203,-2.373906 l -0.19504,-45.45423 c -0.0481,-3.3596 -0.26375,-4.060205 -2.99778,-5.741729 -4.67559,-2.648183 -10.85885,-5.461518 -17.19178,-5.502601 z"
         id="path957" />
      <path
         id="path959"
         d="m 169.21769,-30.59985 c -6.33293,0.04108 -12.51619,2.854418 -17.19179,5.502601 -2.73402,1.681524 -2.94971,2.382129 -2.99777,5.741729 l -0.19504,45.45423 c 0.0286,1.541878 0.4842,3.250975 2.09203,2.373906 0.50197,-0.336992 1.00151,-0.657776 1.49888,-0.963188 16.65096,-10.224434 30.62946,-2.943494 35.4483,9.038744 l -0.56376,-56.014573 c -5.27527,-8.442903 -11.75792,-11.174531 -18.09085,-11.133449 z m 40.47798,0 c -6.33293,-0.04109 -12.81559,2.690546 -18.09085,11.133449 l -0.56375,56.014573 c 4.81883,-11.982238 18.79733,-19.263178 35.44828,-9.038744 0.49738,0.305412 0.99692,0.626196 1.49889,0.963188 1.60783,0.877069 2.06344,-0.832028 2.09203,-2.373906 l -0.19504,-45.45423 c -0.0481,-3.3596 -0.26375,-4.060205 -2.99778,-5.741729 -4.67559,-2.648183 -10.85885,-5.461518 -17.19178,-5.502601 z"
         inkscape:connector-curvature="0"
         style="fill:none;fill-opacity:0.13366298;stroke:#11100f;stroke-width:0.60000002;stroke-linecap:round;stroke-linejoin:round;stroke-miterlimit:4;stroke-dasharray:none;stroke-opacity:0.01176471;filter:url(#c)" />
      <path
         style="fill:none;fill-opacity:0.13366298;stroke:#11100f;stroke-width:0.80000001;stroke-linecap:round;stroke-linejoin:round;stroke-miterlimit:4;stroke-dasharray:none;stroke-opacity:0.01176471;filter:url(#c)"
         inkscape:connector-curvature="0"
         d="m 169.21769,-30.59985 c -6.33293,0.04108 -12.51619,2.854418 -17.19179,5.502601 -2.73402,1.681524 -2.94971,2.382129 -2.99777,5.741729 l -0.19504,45.45423 c 0.0286,1.541878 0.4842,3.250975 2.09203,2.373906 0.50197,-0.336992 1.00151,-0.657776 1.49888,-0.963188 16.65096,-10.224434 30.62946,-2.943494 35.4483,9.038744 l -0.56376,-56.014573 c -5.27527,-8.442903 -11.75792,-11.174531 -18.09085,-11.133449 z m 40.47798,0 c -6.33293,-0.04109 -12.81559,2.690546 -18.09085,11.133449 l -0.56375,56.014573 c 4.81883,-11.982238 18.79733,-19.263178 35.44828,-9.038744 0.49738,0.305412 0.99692,0.626196 1.49889,0.963188 1.60783,0.877069 2.06344,-0.832028 2.09203,-2.373906 l -0.19504,-45.45423 c -0.0481,-3.3596 -0.26375,-4.060205 -2.99778,-5.741729 -4.67559,-2.648183 -10.85885,-5.461518 -17.19178,-5.502601 z"
         id="path961" />
      <path
         id="path963"
         d="m 169.21769,-30.59985 c -6.33293,0.04108 -12.51619,2.854418 -17.19179,5.502601 -2.73402,1.681524 -2.94971,2.382129 -2.99777,5.741729 l -0.19504,45.45423 c 0.0286,1.541878 0.4842,3.250975 2.09203,2.373906 0.50197,-0.336992 1.00151,-0.657776 1.49888,-0.963188 16.65096,-10.224434 30.62946,-2.943494 35.4483,9.038744 l -0.56376,-56.014573 c -5.27527,-8.442903 -11.75792,-11.174531 -18.09085,-11.133449 z m 40.47798,0 c -6.33293,-0.04109 -12.81559,2.690546 -18.09085,11.133449 l -0.56375,56.014573 c 4.81883,-11.982238 18.79733,-19.263178 35.44828,-9.038744 0.49738,0.305412 0.99692,0.626196 1.49889,0.963188 1.60783,0.877069 2.06344,-0.832028 2.09203,-2.373906 l -0.19504,-45.45423 c -0.0481,-3.3596 -0.26375,-4.060205 -2.99778,-5.741729 -4.67559,-2.648183 -10.85885,-5.461518 -17.19178,-5.502601 z"
         inkscape:connector-curvature="0"
         style="fill:none;fill-opacity:0.13366298;stroke:#11100f;stroke-width:1;stroke-linecap:round;stroke-linejoin:round;stroke-miterlimit:4;stroke-dasharray:none;stroke-opacity:0.01176471;filter:url(#c)" />
      <path
         style="fill:none;fill-opacity:0.13366298;stroke:#11100f;stroke-width:1.20000005;stroke-linecap:round;stroke-linejoin:round;stroke-miterlimit:4;stroke-dasharray:none;stroke-opacity:0.01176471;filter:url(#c)"
         inkscape:connector-curvature="0"
         d="m 169.21769,-30.59985 c -6.33293,0.04108 -12.51619,2.854418 -17.19179,5.502601 -2.73402,1.681524 -2.94971,2.382129 -2.99777,5.741729 l -0.19504,45.45423 c 0.0286,1.541878 0.4842,3.250975 2.09203,2.373906 0.50197,-0.336992 1.00151,-0.657776 1.49888,-0.963188 16.65096,-10.224434 30.62946,-2.943494 35.4483,9.038744 l -0.56376,-56.014573 c -5.27527,-8.442903 -11.75792,-11.174531 -18.09085,-11.133449 z m 40.47798,0 c -6.33293,-0.04109 -12.81559,2.690546 -18.09085,11.133449 l -0.56375,56.014573 c 4.81883,-11.982238 18.79733,-19.263178 35.44828,-9.038744 0.49738,0.305412 0.99692,0.626196 1.49889,0.963188 1.60783,0.877069 2.06344,-0.832028 2.09203,-2.373906 l -0.19504,-45.45423 c -0.0481,-3.3596 -0.26375,-4.060205 -2.99778,-5.741729 -4.67559,-2.648183 -10.85885,-5.461518 -17.19178,-5.502601 z"
         id="path965" />
      <path
         id="path967"
         d="m 169.21769,-30.59985 c -6.33293,0.04108 -12.51619,2.854418 -17.19179,5.502601 -2.73402,1.681524 -2.94971,2.382129 -2.99777,5.741729 l -0.19504,45.45423 c 0.0286,1.541878 0.4842,3.250975 2.09203,2.373906 0.50197,-0.336992 1.00151,-0.657776 1.49888,-0.963188 16.65096,-10.224434 30.62946,-2.943494 35.4483,9.038744 l -0.56376,-56.014573 c -5.27527,-8.442903 -11.75792,-11.174531 -18.09085,-11.133449 z m 40.47798,0 c -6.33293,-0.04109 -12.81559,2.690546 -18.09085,11.133449 l -0.56375,56.014573 c 4.81883,-11.982238 18.79733,-19.263178 35.44828,-9.038744 0.49738,0.305412 0.99692,0.626196 1.49889,0.963188 1.60783,0.877069 2.06344,-0.832028 2.09203,-2.373906 l -0.19504,-45.45423 c -0.0481,-3.3596 -0.26375,-4.060205 -2.99778,-5.741729 -4.67559,-2.648183 -10.85885,-5.461518 -17.19178,-5.502601 z"
         inkscape:connector-curvature="0"
         style="fill:none;fill-opacity:0.13366298;stroke:#11100f;stroke-width:1.70000005;stroke-linecap:round;stroke-linejoin:round;stroke-miterlimit:4;stroke-dasharray:none;stroke-opacity:0.01176471;filter:url(#c)" />
      <path
         style="fill:none;fill-opacity:0.13366298;stroke:#11100f;stroke-width:2.20000005;stroke-linecap:round;stroke-linejoin:round;stroke-miterlimit:4;stroke-dasharray:none;stroke-opacity:0.01176471;filter:url(#c)"
         inkscape:connector-curvature="0"
         d="m 169.21769,-30.59985 c -6.33293,0.04108 -12.51619,2.854418 -17.19179,5.502601 -2.73402,1.681524 -2.94971,2.382129 -2.99777,5.741729 l -0.19504,45.45423 c 0.0286,1.541878 0.4842,3.250975 2.09203,2.373906 0.50197,-0.336992 1.00151,-0.657776 1.49888,-0.963188 16.65096,-10.224434 30.62946,-2.943494 35.4483,9.038744 l -0.56376,-56.014573 c -5.27527,-8.442903 -11.75792,-11.174531 -18.09085,-11.133449 z m 40.47798,0 c -6.33293,-0.04109 -12.81559,2.690546 -18.09085,11.133449 l -0.56375,56.014573 c 4.81883,-11.982238 18.79733,-19.263178 35.44828,-9.038744 0.49738,0.305412 0.99692,0.626196 1.49889,0.963188 1.60783,0.877069 2.06344,-0.832028 2.09203,-2.373906 l -0.19504,-45.45423 c -0.0481,-3.3596 -0.26375,-4.060205 -2.99778,-5.741729 -4.67559,-2.648183 -10.85885,-5.461518 -17.19178,-5.502601 z"
         id="path969" />
      <path
         id="path971"
         d="m 169.21769,-30.59985 c -6.33293,0.04108 -12.51619,2.854418 -17.19179,5.502601 -2.73402,1.681524 -2.94971,2.382129 -2.99777,5.741729 l -0.19504,45.45423 c 0.0286,1.541878 0.4842,3.250975 2.09203,2.373906 0.50197,-0.336992 1.00151,-0.657776 1.49888,-0.963188 16.65096,-10.224434 30.62946,-2.943494 35.4483,9.038744 l -0.56376,-56.014573 c -5.27527,-8.442903 -11.75792,-11.174531 -18.09085,-11.133449 z m 40.47798,0 c -6.33293,-0.04109 -12.81559,2.690546 -18.09085,11.133449 l -0.56375,56.014573 c 4.81883,-11.982238 18.79733,-19.263178 35.44828,-9.038744 0.49738,0.305412 0.99692,0.626196 1.49889,0.963188 1.60783,0.877069 2.06344,-0.832028 2.09203,-2.373906 l -0.19504,-45.45423 c -0.0481,-3.3596 -0.26375,-4.060205 -2.99778,-5.741729 -4.67559,-2.648183 -10.85885,-5.461518 -17.19178,-5.502601 z"
         inkscape:connector-curvature="0"
         style="fill:none;fill-opacity:0.13366298;stroke:#11100f;stroke-width:2.70000005;stroke-linecap:round;stroke-linejoin:round;stroke-miterlimit:4;stroke-dasharray:none;stroke-opacity:0.01176471;filter:url(#c)" />
      <path
         style="fill:none;fill-opacity:0.13366298;stroke:#11100f;stroke-width:3.20000005;stroke-linecap:round;stroke-linejoin:round;stroke-miterlimit:4;stroke-dasharray:none;stroke-opacity:0.01176471;filter:url(#c)"
         inkscape:connector-curvature="0"
         d="m 169.21769,-30.59985 c -6.33293,0.04108 -12.51619,2.854418 -17.19179,5.502601 -2.73402,1.681524 -2.94971,2.382129 -2.99777,5.741729 l -0.19504,45.45423 c 0.0286,1.541878 0.4842,3.250975 2.09203,2.373906 0.50197,-0.336992 1.00151,-0.657776 1.49888,-0.963188 16.65096,-10.224434 30.62946,-2.943494 35.4483,9.038744 l -0.56376,-56.014573 c -5.27527,-8.442903 -11.75792,-11.174531 -18.09085,-11.133449 z m 40.47798,0 c -6.33293,-0.04109 -12.81559,2.690546 -18.09085,11.133449 l -0.56375,56.014573 c 4.81883,-11.982238 18.79733,-19.263178 35.44828,-9.038744 0.49738,0.305412 0.99692,0.626196 1.49889,0.963188 1.60783,0.877069 2.06344,-0.832028 2.09203,-2.373906 l -0.19504,-45.45423 c -0.0481,-3.3596 -0.26375,-4.060205 -2.99778,-5.741729 -4.67559,-2.648183 -10.85885,-5.461518 -17.19178,-5.502601 z"
         id="path973" />
      <path
         id="path975"
         d="m 169.21769,-30.59985 c -6.33293,0.04108 -12.51619,2.854418 -17.19179,5.502601 -2.73402,1.681524 -2.94971,2.382129 -2.99777,5.741729 l -0.19504,45.45423 c 0.0286,1.541878 0.4842,3.250975 2.09203,2.373906 0.50197,-0.336992 1.00151,-0.657776 1.49888,-0.963188 16.65096,-10.224434 30.62946,-2.943494 35.4483,9.038744 l -0.56376,-56.014573 c -5.27527,-8.442903 -11.75792,-11.174531 -18.09085,-11.133449 z m 40.47798,0 c -6.33293,-0.04109 -12.81559,2.690546 -18.09085,11.133449 l -0.56375,56.014573 c 4.81883,-11.982238 18.79733,-19.263178 35.44828,-9.038744 0.49738,0.305412 0.99692,0.626196 1.49889,0.963188 1.60783,0.877069 2.06344,-0.832028 2.09203,-2.373906 l -0.19504,-45.45423 c -0.0481,-3.3596 -0.26375,-4.060205 -2.99778,-5.741729 -4.67559,-2.648183 -10.85885,-5.461518 -17.19178,-5.502601 z"
         inkscape:connector-curvature="0"
         style="fill:none;fill-opacity:0.13366298;stroke:#11100f;stroke-width:4.19999981;stroke-linecap:round;stroke-linejoin:round;stroke-miterlimit:4;stroke-dasharray:none;stroke-opacity:0.01176471;filter:url(#c)" />
      <path
         style="fill:none;fill-opacity:0.13366298;stroke:#11100f;stroke-width:5.19999981;stroke-linecap:round;stroke-linejoin:round;stroke-miterlimit:4;stroke-dasharray:none;stroke-opacity:0.01176471;filter:url(#c)"
         inkscape:connector-curvature="0"
         d="m 169.21769,-30.59985 c -6.33293,0.04108 -12.51619,2.854418 -17.19179,5.502601 -2.73402,1.681524 -2.94971,2.382129 -2.99777,5.741729 l -0.19504,45.45423 c 0.0286,1.541878 0.4842,3.250975 2.09203,2.373906 0.50197,-0.336992 1.00151,-0.657776 1.49888,-0.963188 16.65096,-10.224434 30.62946,-2.943494 35.4483,9.038744 l -0.56376,-56.014573 c -5.27527,-8.442903 -11.75792,-11.174531 -18.09085,-11.133449 z m 40.47798,0 c -6.33293,-0.04109 -12.81559,2.690546 -18.09085,11.133449 l -0.56375,56.014573 c 4.81883,-11.982238 18.79733,-19.263178 35.44828,-9.038744 0.49738,0.305412 0.99692,0.626196 1.49889,0.963188 1.60783,0.877069 2.06344,-0.832028 2.09203,-2.373906 l -0.19504,-45.45423 c -0.0481,-3.3596 -0.26375,-4.060205 -2.99778,-5.741729 -4.67559,-2.648183 -10.85885,-5.461518 -17.19178,-5.502601 z"
         id="path977" />
      <path
         id="path979"
         d="m 169.21769,-30.59985 c -6.33293,0.04108 -12.51619,2.854418 -17.19179,5.502601 -2.73402,1.681524 -2.94971,2.382129 -2.99777,5.741729 l -0.19504,45.45423 c 0.0286,1.541878 0.4842,3.250975 2.09203,2.373906 0.50197,-0.336992 1.00151,-0.657776 1.49888,-0.963188 16.65096,-10.224434 30.62946,-2.943494 35.4483,9.038744 l -0.56376,-56.014573 c -5.27527,-8.442903 -11.75792,-11.174531 -18.09085,-11.133449 z m 40.47798,0 c -6.33293,-0.04109 -12.81559,2.690546 -18.09085,11.133449 l -0.56375,56.014573 c 4.81883,-11.982238 18.79733,-19.263178 35.44828,-9.038744 0.49738,0.305412 0.99692,0.626196 1.49889,0.963188 1.60783,0.877069 2.06344,-0.832028 2.09203,-2.373906 l -0.19504,-45.45423 c -0.0481,-3.3596 -0.26375,-4.060205 -2.99778,-5.741729 -4.67559,-2.648183 -10.85885,-5.461518 -17.19178,-5.502601 z"
         inkscape:connector-curvature="0"
         style="fill:none;fill-opacity:0.13366298;stroke:#11100f;stroke-width:6.19999981;stroke-linecap:round;stroke-linejoin:round;stroke-miterlimit:4;stroke-dasharray:none;stroke-opacity:0.01176471;filter:url(#c)" />
      <path
         style="fill:none;fill-opacity:0.13366298;stroke:#11100f;stroke-width:7.19999981;stroke-linecap:round;stroke-linejoin:round;stroke-miterlimit:4;stroke-dasharray:none;stroke-opacity:0.01176471;filter:url(#c)"
         inkscape:connector-curvature="0"
         d="m 169.21769,-30.59985 c -6.33293,0.04108 -12.51619,2.854418 -17.19179,5.502601 -2.73402,1.681524 -2.94971,2.382129 -2.99777,5.741729 l -0.19504,45.45423 c 0.0286,1.541878 0.4842,3.250975 2.09203,2.373906 0.50197,-0.336992 1.00151,-0.657776 1.49888,-0.963188 16.65096,-10.224434 30.62946,-2.943494 35.4483,9.038744 l -0.56376,-56.014573 c -5.27527,-8.442903 -11.75792,-11.174531 -18.09085,-11.133449 z m 40.47798,0 c -6.33293,-0.04109 -12.81559,2.690546 -18.09085,11.133449 l -0.56375,56.014573 c 4.81883,-11.982238 18.79733,-19.263178 35.44828,-9.038744 0.49738,0.305412 0.99692,0.626196 1.49889,0.963188 1.60783,0.877069 2.06344,-0.832028 2.09203,-2.373906 l -0.19504,-45.45423 c -0.0481,-3.3596 -0.26375,-4.060205 -2.99778,-5.741729 -4.67559,-2.648183 -10.85885,-5.461518 -17.19178,-5.502601 z"
         id="path981" />
      <path
         id="path983"
         d="m 169.21769,-30.59985 c -6.33293,0.04108 -12.51619,2.854418 -17.19179,5.502601 -2.73402,1.681524 -2.94971,2.382129 -2.99777,5.741729 l -0.19504,45.45423 c 0.0286,1.541878 0.4842,3.250975 2.09203,2.373906 0.50197,-0.336992 1.00151,-0.657776 1.49888,-0.963188 16.65096,-10.224434 30.62946,-2.943494 35.4483,9.038744 l -0.56376,-56.014573 c -5.27527,-8.442903 -11.75792,-11.174531 -18.09085,-11.133449 z m 40.47798,0 c -6.33293,-0.04109 -12.81559,2.690546 -18.09085,11.133449 l -0.56375,56.014573 c 4.81883,-11.982238 18.79733,-19.263178 35.44828,-9.038744 0.49738,0.305412 0.99692,0.626196 1.49889,0.963188 1.60783,0.877069 2.06344,-0.832028 2.09203,-2.373906 l -0.19504,-45.45423 c -0.0481,-3.3596 -0.26375,-4.060205 -2.99778,-5.741729 -4.67559,-2.648183 -10.85885,-5.461518 -17.19178,-5.502601 z"
         inkscape:connector-curvature="0"
         style="fill:none;fill-opacity:0.13366298;stroke:#11100f;stroke-width:8.69999981;stroke-linecap:round;stroke-linejoin:round;stroke-miterlimit:4;stroke-dasharray:none;stroke-opacity:0.01176471;filter:url(#c)" />
      <path
         style="fill:none;fill-opacity:0.13366298;stroke:#11100f;stroke-width:10.30000019;stroke-miterlimit:4;stroke-dasharray:none;stroke-opacity:0.01176471;filter:url(#c)"
         inkscape:connector-curvature="0"
         d="m 169.21769,-30.59985 c -6.33293,0.04108 -12.51619,2.854418 -17.19179,5.502601 -2.73402,1.681524 -2.94971,2.382129 -2.99777,5.741729 l -0.19504,45.45423 c 0.0286,1.541878 0.4842,3.250975 2.09203,2.373906 0.50197,-0.336992 1.00151,-0.657776 1.49888,-0.963188 16.65096,-10.224434 30.62946,-2.943494 35.4483,9.038744 l -0.56376,-56.014573 c -5.27527,-8.442903 -11.75792,-11.174531 -18.09085,-11.133449 z m 40.47798,0 c -6.33293,-0.04109 -12.81559,2.690546 -18.09085,11.133449 l -0.56375,56.014573 c 4.81883,-11.982238 18.79733,-19.263178 35.44828,-9.038744 0.49738,0.305412 0.99692,0.626196 1.49889,0.963188 1.60783,0.877069 2.06344,-0.832028 2.09203,-2.373906 l -0.19504,-45.45423 c -0.0481,-3.3596 -0.26375,-4.060205 -2.99778,-5.741729 -4.67559,-2.648183 -10.85885,-5.461518 -17.19178,-5.502601 z"
         id="path985" />
      <path
         id="path987"
         d="m 169.21769,-30.59985 c -6.33293,0.04108 -12.51619,2.854418 -17.19179,5.502601 -2.73402,1.681524 -2.94971,2.382129 -2.99777,5.741729 l -0.19504,45.45423 c 0.0286,1.541878 0.4842,3.250975 2.09203,2.373906 0.50197,-0.336992 1.00151,-0.657776 1.49888,-0.963188 16.65096,-10.224434 30.62946,-2.943494 35.4483,9.038744 l -0.56376,-56.014573 c -5.27527,-8.442903 -11.75792,-11.174531 -18.09085,-11.133449 z m 40.47798,0 c -6.33293,-0.04109 -12.81559,2.690546 -18.09085,11.133449 l -0.56375,56.014573 c 4.81883,-11.982238 18.79733,-19.263178 35.44828,-9.038744 0.49738,0.305412 0.99692,0.626196 1.49889,0.963188 1.60783,0.877069 2.06344,-0.832028 2.09203,-2.373906 l -0.19504,-45.45423 c -0.0481,-3.3596 -0.26375,-4.060205 -2.99778,-5.741729 -4.67559,-2.648183 -10.85885,-5.461518 -17.19178,-5.502601 z"
         inkscape:connector-curvature="0"
         style="fill:none;fill-opacity:0.13366298;stroke:#11100f;stroke-width:11.80000019;stroke-miterlimit:4;stroke-dasharray:none;stroke-opacity:0.01176471;filter:url(#c)" />
    </g>
    <path
       style="fill:#fdf6f6;fill-opacity:1;filter:url(#c)"
       inkscape:connector-curvature="0"
       d="m 156.8843,130.74513 c -6.33293,0.0411 -12.51619,2.85441 -17.19179,5.5026 -2.73403,1.68152 -2.94971,2.38213 -2.99777,5.74173 l -0.19505,45.45423 c 0.0286,1.54187 0.48421,3.25097 2.09204,2.3739 0.50197,-0.33699 1.00151,-0.65777 1.49888,-0.96319 16.65096,-10.22443 30.62946,-2.94349 35.4483,9.03875 l -0.56376,-56.01458 c -5.27527,-8.4429 -11.75792,-11.17453 -18.09085,-11.13344 z m 40.47798,0 c -6.33293,-0.0411 -12.81559,2.69054 -18.09085,11.13344 l -0.56375,56.01458 c 4.81883,-11.98224 18.79733,-19.26318 35.44828,-9.03875 0.49738,0.30542 0.99692,0.6262 1.49889,0.96319 1.60783,0.87707 2.06344,-0.83203 2.09203,-2.3739 l -0.19504,-45.45423 c -0.0481,-3.3596 -0.26375,-4.06021 -2.99778,-5.74173 -4.67559,-2.64819 -10.85885,-5.46152 -17.19178,-5.5026 z"
       id="path864-9" />
  </g>
</svg>
