<?xml version="1.0" encoding="UTF-8" standalone="no"?>
<!-- Created with Inkscape (http://www.inkscape.org/) -->

<svg
   xmlns:dc="http://purl.org/dc/elements/1.1/"
   xmlns:cc="http://creativecommons.org/ns#"
   xmlns:rdf="http://www.w3.org/1999/02/22-rdf-syntax-ns#"
   xmlns:svg="http://www.w3.org/2000/svg"
   xmlns="http://www.w3.org/2000/svg"
   xmlns:xlink="http://www.w3.org/1999/xlink"
   xmlns:sodipodi="http://sodipodi.sourceforge.net/DTD/sodipodi-0.dtd"
   xmlns:inkscape="http://www.inkscape.org/namespaces/inkscape"
   version="1.1"
   id="svg2"
   width="128"
   height="128"
   viewBox="0 0 128 128"
   sodipodi:docname="chmsee.svg"
   inkscape:version="0.92.4 (5da689c313, 2019-01-14)">
  <metadata
     id="metadata8">
    <rdf:RDF>
      <cc:Work
         rdf:about="">
        <dc:format>image/svg+xml</dc:format>
        <dc:type
           rdf:resource="http://purl.org/dc/dcmitype/StillImage" />
        <dc:title />
      </cc:Work>
    </rdf:RDF>
  </metadata>
  <defs
     id="defs6">
    <linearGradient
       inkscape:collect="always"
       id="linearGradient833">
      <stop
         style="stop-color:#fc7100;stop-opacity:1"
         offset="0"
         id="stop829" />
      <stop
         style="stop-color:#ff9c00;stop-opacity:1"
         offset="1"
         id="stop831" />
    </linearGradient>
    <linearGradient
       inkscape:collect="always"
       id="linearGradient823">
      <stop
         style="stop-color:#ab4100;stop-opacity:1"
         offset="0"
         id="stop819" />
      <stop
         style="stop-color:#fe9d00;stop-opacity:1"
         offset="1"
         id="stop821" />
    </linearGradient>
    <linearGradient
       inkscape:collect="always"
       xlink:href="#linearGradient823"
       id="linearGradient825"
       x1="-741.83197"
       y1="959.04749"
       x2="-741.83197"
       y2="93.836403"
       gradientUnits="userSpaceOnUse"
       gradientTransform="matrix(0.13667801,0,0,0.13667801,162.12055,-6.0372764)" />
    <linearGradient
       inkscape:collect="always"
       xlink:href="#linearGradient833"
       id="linearGradient835"
       x1="-738.76385"
       y1="931.43433"
       x2="-738.76385"
       y2="152.13077"
       gradientUnits="userSpaceOnUse"
       gradientTransform="matrix(0.13667801,0,0,0.13667801,162.31231,-5.989337)" />
  </defs>
  <sodipodi:namedview
     pagecolor="#ffffff"
     bordercolor="#666666"
     borderopacity="1"
     objecttolerance="10"
     gridtolerance="10"
     guidetolerance="10"
     inkscape:pageopacity="0"
     inkscape:pageshadow="2"
     inkscape:window-width="1920"
     inkscape:window-height="1022"
     id="namedview4"
     showgrid="false"
     inkscape:zoom="1.1821942"
     inkscape:cx="64"
     inkscape:cy="65.203446"
     inkscape:window-x="0"
     inkscape:window-y="30"
     inkscape:window-maximized="1"
     inkscape:current-layer="svg2" />
  <circle
     style="opacity:1;fill:url(#linearGradient825);fill-opacity:1;stroke:none;stroke-width:0.78699166;stroke-linecap:round;stroke-linejoin:round;stroke-miterlimit:4;stroke-dasharray:none;stroke-opacity:1"
     id="path817"
     cx="63.400131"
     cy="64.238373"
     r="61.380009" />
  <circle
     r="55.089832"
     cy="64.286316"
     cx="63.591888"
     id="circle827"
     style="opacity:1;fill:url(#linearGradient835);fill-opacity:1;stroke:none;stroke-width:0.70634133;stroke-linecap:round;stroke-linejoin:round;stroke-miterlimit:4;stroke-dasharray:none;stroke-opacity:1" />
  <g
     id="g1537"
     transform="translate(-146.50294)"
     style="opacity:0.591">
    <path
       style="fill:none;fill-opacity:1;stroke:#000000;stroke-width:0.1;stroke-linecap:round;stroke-linejoin:round;stroke-miterlimit:4;stroke-dasharray:none;stroke-opacity:0.00784314"
       d="m 192.32725,33.753842 c -5.53916,-0.129385 -11.40174,2.093418 -16.81836,5.447266 -1.92041,1.10875 -2.27148,2.540933 -2.27148,3.626953 l -0.20313,42.916015 c 0,2.230057 1.90298,1.534098 2.91602,0.949219 16.14903,-8.949371 25.94655,-3.826387 32.66211,8.130859 l -0.52735,-49.554687 c 0.0128,-1.418646 -0.17752,-1.9742 -0.88086,-2.847656 -4.12167,-6.056648 -9.33779,-8.538584 -14.87695,-8.667969 z m 35.53516,0 c -5.53916,0.129385 -10.75333,2.611321 -14.875,8.667969 -0.70334,0.873456 -0.89558,1.42901 -0.88282,2.847656 l -0.52734,49.554687 c 6.71556,-11.957246 16.51503,-17.08023 32.66407,-8.130859 1.01304,0.584879 2.91405,1.280838 2.91406,-0.949219 l -0.20313,-42.916015 c 0,-1.08602 -0.35107,-2.518203 -2.27148,-3.626953 -5.41662,-3.353848 -11.27921,-5.576651 -16.81836,-5.447266 z"
       id="path1456"
       inkscape:connector-curvature="0" />
    <path
       inkscape:connector-curvature="0"
       id="path1458"
       d="m 192.32725,33.753842 c -5.53916,-0.129385 -11.40174,2.093418 -16.81836,5.447266 -1.92041,1.10875 -2.27148,2.540933 -2.27148,3.626953 l -0.20313,42.916015 c 0,2.230057 1.90298,1.534098 2.91602,0.949219 16.14903,-8.949371 25.94655,-3.826387 32.66211,8.130859 l -0.52735,-49.554687 c 0.0128,-1.418646 -0.17752,-1.9742 -0.88086,-2.847656 -4.12167,-6.056648 -9.33779,-8.538584 -14.87695,-8.667969 z m 35.53516,0 c -5.53916,0.129385 -10.75333,2.611321 -14.875,8.667969 -0.70334,0.873456 -0.89558,1.42901 -0.88282,2.847656 l -0.52734,49.554687 c 6.71556,-11.957246 16.51503,-17.08023 32.66407,-8.130859 1.01304,0.584879 2.91405,1.280838 2.91406,-0.949219 l -0.20313,-42.916015 c 0,-1.08602 -0.35107,-2.518203 -2.27148,-3.626953 -5.41662,-3.353848 -11.27921,-5.576651 -16.81836,-5.447266 z"
       style="fill:none;fill-opacity:1;stroke:#000000;stroke-width:0.2;stroke-linecap:round;stroke-linejoin:round;stroke-miterlimit:4;stroke-dasharray:none;stroke-opacity:0.00784314" />
    <path
       style="fill:none;fill-opacity:1;stroke:#000000;stroke-width:0.30000001;stroke-linecap:round;stroke-linejoin:round;stroke-miterlimit:4;stroke-dasharray:none;stroke-opacity:0.00784314"
       d="m 192.32725,33.753842 c -5.53916,-0.129385 -11.40174,2.093418 -16.81836,5.447266 -1.92041,1.10875 -2.27148,2.540933 -2.27148,3.626953 l -0.20313,42.916015 c 0,2.230057 1.90298,1.534098 2.91602,0.949219 16.14903,-8.949371 25.94655,-3.826387 32.66211,8.130859 l -0.52735,-49.554687 c 0.0128,-1.418646 -0.17752,-1.9742 -0.88086,-2.847656 -4.12167,-6.056648 -9.33779,-8.538584 -14.87695,-8.667969 z m 35.53516,0 c -5.53916,0.129385 -10.75333,2.611321 -14.875,8.667969 -0.70334,0.873456 -0.89558,1.42901 -0.88282,2.847656 l -0.52734,49.554687 c 6.71556,-11.957246 16.51503,-17.08023 32.66407,-8.130859 1.01304,0.584879 2.91405,1.280838 2.91406,-0.949219 l -0.20313,-42.916015 c 0,-1.08602 -0.35107,-2.518203 -2.27148,-3.626953 -5.41662,-3.353848 -11.27921,-5.576651 -16.81836,-5.447266 z"
       id="path1460"
       inkscape:connector-curvature="0" />
    <path
       inkscape:connector-curvature="0"
       id="path1462"
       d="m 192.32725,33.753842 c -5.53916,-0.129385 -11.40174,2.093418 -16.81836,5.447266 -1.92041,1.10875 -2.27148,2.540933 -2.27148,3.626953 l -0.20313,42.916015 c 0,2.230057 1.90298,1.534098 2.91602,0.949219 16.14903,-8.949371 25.94655,-3.826387 32.66211,8.130859 l -0.52735,-49.554687 c 0.0128,-1.418646 -0.17752,-1.9742 -0.88086,-2.847656 -4.12167,-6.056648 -9.33779,-8.538584 -14.87695,-8.667969 z m 35.53516,0 c -5.53916,0.129385 -10.75333,2.611321 -14.875,8.667969 -0.70334,0.873456 -0.89558,1.42901 -0.88282,2.847656 l -0.52734,49.554687 c 6.71556,-11.957246 16.51503,-17.08023 32.66407,-8.130859 1.01304,0.584879 2.91405,1.280838 2.91406,-0.949219 l -0.20313,-42.916015 c 0,-1.08602 -0.35107,-2.518203 -2.27148,-3.626953 -5.41662,-3.353848 -11.27921,-5.576651 -16.81836,-5.447266 z"
       style="fill:none;fill-opacity:1;stroke:#000000;stroke-width:0.40000001;stroke-linecap:round;stroke-linejoin:round;stroke-miterlimit:4;stroke-dasharray:none;stroke-opacity:0.00784314" />
    <path
       style="fill:none;fill-opacity:1;stroke:#000000;stroke-width:0.5;stroke-linecap:round;stroke-linejoin:round;stroke-miterlimit:4;stroke-dasharray:none;stroke-opacity:0.00784314"
       d="m 192.32725,33.753842 c -5.53916,-0.129385 -11.40174,2.093418 -16.81836,5.447266 -1.92041,1.10875 -2.27148,2.540933 -2.27148,3.626953 l -0.20313,42.916015 c 0,2.230057 1.90298,1.534098 2.91602,0.949219 16.14903,-8.949371 25.94655,-3.826387 32.66211,8.130859 l -0.52735,-49.554687 c 0.0128,-1.418646 -0.17752,-1.9742 -0.88086,-2.847656 -4.12167,-6.056648 -9.33779,-8.538584 -14.87695,-8.667969 z m 35.53516,0 c -5.53916,0.129385 -10.75333,2.611321 -14.875,8.667969 -0.70334,0.873456 -0.89558,1.42901 -0.88282,2.847656 l -0.52734,49.554687 c 6.71556,-11.957246 16.51503,-17.08023 32.66407,-8.130859 1.01304,0.584879 2.91405,1.280838 2.91406,-0.949219 l -0.20313,-42.916015 c 0,-1.08602 -0.35107,-2.518203 -2.27148,-3.626953 -5.41662,-3.353848 -11.27921,-5.576651 -16.81836,-5.447266 z"
       id="path1464"
       inkscape:connector-curvature="0" />
    <path
       inkscape:connector-curvature="0"
       id="path1466"
       d="m 192.32725,33.753842 c -5.53916,-0.129385 -11.40174,2.093418 -16.81836,5.447266 -1.92041,1.10875 -2.27148,2.540933 -2.27148,3.626953 l -0.20313,42.916015 c 0,2.230057 1.90298,1.534098 2.91602,0.949219 16.14903,-8.949371 25.94655,-3.826387 32.66211,8.130859 l -0.52735,-49.554687 c 0.0128,-1.418646 -0.17752,-1.9742 -0.88086,-2.847656 -4.12167,-6.056648 -9.33779,-8.538584 -14.87695,-8.667969 z m 35.53516,0 c -5.53916,0.129385 -10.75333,2.611321 -14.875,8.667969 -0.70334,0.873456 -0.89558,1.42901 -0.88282,2.847656 l -0.52734,49.554687 c 6.71556,-11.957246 16.51503,-17.08023 32.66407,-8.130859 1.01304,0.584879 2.91405,1.280838 2.91406,-0.949219 l -0.20313,-42.916015 c 0,-1.08602 -0.35107,-2.518203 -2.27148,-3.626953 -5.41662,-3.353848 -11.27921,-5.576651 -16.81836,-5.447266 z"
       style="fill:none;fill-opacity:1;stroke:#000000;stroke-width:0.60000002;stroke-linecap:round;stroke-linejoin:round;stroke-miterlimit:4;stroke-dasharray:none;stroke-opacity:0.00784314" />
    <path
       style="fill:none;fill-opacity:1;stroke:#000000;stroke-width:0.69999999;stroke-linecap:round;stroke-linejoin:round;stroke-miterlimit:4;stroke-dasharray:none;stroke-opacity:0.00784314"
       d="m 192.32725,33.753842 c -5.53916,-0.129385 -11.40174,2.093418 -16.81836,5.447266 -1.92041,1.10875 -2.27148,2.540933 -2.27148,3.626953 l -0.20313,42.916015 c 0,2.230057 1.90298,1.534098 2.91602,0.949219 16.14903,-8.949371 25.94655,-3.826387 32.66211,8.130859 l -0.52735,-49.554687 c 0.0128,-1.418646 -0.17752,-1.9742 -0.88086,-2.847656 -4.12167,-6.056648 -9.33779,-8.538584 -14.87695,-8.667969 z m 35.53516,0 c -5.53916,0.129385 -10.75333,2.611321 -14.875,8.667969 -0.70334,0.873456 -0.89558,1.42901 -0.88282,2.847656 l -0.52734,49.554687 c 6.71556,-11.957246 16.51503,-17.08023 32.66407,-8.130859 1.01304,0.584879 2.91405,1.280838 2.91406,-0.949219 l -0.20313,-42.916015 c 0,-1.08602 -0.35107,-2.518203 -2.27148,-3.626953 -5.41662,-3.353848 -11.27921,-5.576651 -16.81836,-5.447266 z"
       id="path1468"
       inkscape:connector-curvature="0" />
    <path
       inkscape:connector-curvature="0"
       id="path1470"
       d="m 192.32725,33.753842 c -5.53916,-0.129385 -11.40174,2.093418 -16.81836,5.447266 -1.92041,1.10875 -2.27148,2.540933 -2.27148,3.626953 l -0.20313,42.916015 c 0,2.230057 1.90298,1.534098 2.91602,0.949219 16.14903,-8.949371 25.94655,-3.826387 32.66211,8.130859 l -0.52735,-49.554687 c 0.0128,-1.418646 -0.17752,-1.9742 -0.88086,-2.847656 -4.12167,-6.056648 -9.33779,-8.538584 -14.87695,-8.667969 z m 35.53516,0 c -5.53916,0.129385 -10.75333,2.611321 -14.875,8.667969 -0.70334,0.873456 -0.89558,1.42901 -0.88282,2.847656 l -0.52734,49.554687 c 6.71556,-11.957246 16.51503,-17.08023 32.66407,-8.130859 1.01304,0.584879 2.91405,1.280838 2.91406,-0.949219 l -0.20313,-42.916015 c 0,-1.08602 -0.35107,-2.518203 -2.27148,-3.626953 -5.41662,-3.353848 -11.27921,-5.576651 -16.81836,-5.447266 z"
       style="fill:none;fill-opacity:1;stroke:#000000;stroke-width:0.80000001;stroke-linecap:round;stroke-linejoin:round;stroke-miterlimit:4;stroke-dasharray:none;stroke-opacity:0.00784314" />
    <path
       style="fill:none;fill-opacity:1;stroke:#000000;stroke-width:0.89999998;stroke-linecap:round;stroke-linejoin:round;stroke-miterlimit:4;stroke-dasharray:none;stroke-opacity:0.00784314"
       d="m 192.32725,33.753842 c -5.53916,-0.129385 -11.40174,2.093418 -16.81836,5.447266 -1.92041,1.10875 -2.27148,2.540933 -2.27148,3.626953 l -0.20313,42.916015 c 0,2.230057 1.90298,1.534098 2.91602,0.949219 16.14903,-8.949371 25.94655,-3.826387 32.66211,8.130859 l -0.52735,-49.554687 c 0.0128,-1.418646 -0.17752,-1.9742 -0.88086,-2.847656 -4.12167,-6.056648 -9.33779,-8.538584 -14.87695,-8.667969 z m 35.53516,0 c -5.53916,0.129385 -10.75333,2.611321 -14.875,8.667969 -0.70334,0.873456 -0.89558,1.42901 -0.88282,2.847656 l -0.52734,49.554687 c 6.71556,-11.957246 16.51503,-17.08023 32.66407,-8.130859 1.01304,0.584879 2.91405,1.280838 2.91406,-0.949219 l -0.20313,-42.916015 c 0,-1.08602 -0.35107,-2.518203 -2.27148,-3.626953 -5.41662,-3.353848 -11.27921,-5.576651 -16.81836,-5.447266 z"
       id="path1472"
       inkscape:connector-curvature="0" />
    <path
       inkscape:connector-curvature="0"
       id="path1474"
       d="m 192.32725,33.753842 c -5.53916,-0.129385 -11.40174,2.093418 -16.81836,5.447266 -1.92041,1.10875 -2.27148,2.540933 -2.27148,3.626953 l -0.20313,42.916015 c 0,2.230057 1.90298,1.534098 2.91602,0.949219 16.14903,-8.949371 25.94655,-3.826387 32.66211,8.130859 l -0.52735,-49.554687 c 0.0128,-1.418646 -0.17752,-1.9742 -0.88086,-2.847656 -4.12167,-6.056648 -9.33779,-8.538584 -14.87695,-8.667969 z m 35.53516,0 c -5.53916,0.129385 -10.75333,2.611321 -14.875,8.667969 -0.70334,0.873456 -0.89558,1.42901 -0.88282,2.847656 l -0.52734,49.554687 c 6.71556,-11.957246 16.51503,-17.08023 32.66407,-8.130859 1.01304,0.584879 2.91405,1.280838 2.91406,-0.949219 l -0.20313,-42.916015 c 0,-1.08602 -0.35107,-2.518203 -2.27148,-3.626953 -5.41662,-3.353848 -11.27921,-5.576651 -16.81836,-5.447266 z"
       style="fill:none;fill-opacity:1;stroke:#000000;stroke-width:1;stroke-linecap:round;stroke-linejoin:round;stroke-miterlimit:4;stroke-dasharray:none;stroke-opacity:0.00784314" />
    <path
       style="fill:none;fill-opacity:1;stroke:#000000;stroke-width:1.20000005;stroke-linecap:round;stroke-linejoin:round;stroke-miterlimit:4;stroke-dasharray:none;stroke-opacity:0.00784314"
       d="m 192.32725,33.753842 c -5.53916,-0.129385 -11.40174,2.093418 -16.81836,5.447266 -1.92041,1.10875 -2.27148,2.540933 -2.27148,3.626953 l -0.20313,42.916015 c 0,2.230057 1.90298,1.534098 2.91602,0.949219 16.14903,-8.949371 25.94655,-3.826387 32.66211,8.130859 l -0.52735,-49.554687 c 0.0128,-1.418646 -0.17752,-1.9742 -0.88086,-2.847656 -4.12167,-6.056648 -9.33779,-8.538584 -14.87695,-8.667969 z m 35.53516,0 c -5.53916,0.129385 -10.75333,2.611321 -14.875,8.667969 -0.70334,0.873456 -0.89558,1.42901 -0.88282,2.847656 l -0.52734,49.554687 c 6.71556,-11.957246 16.51503,-17.08023 32.66407,-8.130859 1.01304,0.584879 2.91405,1.280838 2.91406,-0.949219 l -0.20313,-42.916015 c 0,-1.08602 -0.35107,-2.518203 -2.27148,-3.626953 -5.41662,-3.353848 -11.27921,-5.576651 -16.81836,-5.447266 z"
       id="path1476"
       inkscape:connector-curvature="0" />
    <path
       inkscape:connector-curvature="0"
       id="path1478"
       d="m 192.32725,33.753842 c -5.53916,-0.129385 -11.40174,2.093418 -16.81836,5.447266 -1.92041,1.10875 -2.27148,2.540933 -2.27148,3.626953 l -0.20313,42.916015 c 0,2.230057 1.90298,1.534098 2.91602,0.949219 16.14903,-8.949371 25.94655,-3.826387 32.66211,8.130859 l -0.52735,-49.554687 c 0.0128,-1.418646 -0.17752,-1.9742 -0.88086,-2.847656 -4.12167,-6.056648 -9.33779,-8.538584 -14.87695,-8.667969 z m 35.53516,0 c -5.53916,0.129385 -10.75333,2.611321 -14.875,8.667969 -0.70334,0.873456 -0.89558,1.42901 -0.88282,2.847656 l -0.52734,49.554687 c 6.71556,-11.957246 16.51503,-17.08023 32.66407,-8.130859 1.01304,0.584879 2.91405,1.280838 2.91406,-0.949219 l -0.20313,-42.916015 c 0,-1.08602 -0.35107,-2.518203 -2.27148,-3.626953 -5.41662,-3.353848 -11.27921,-5.576651 -16.81836,-5.447266 z"
       style="fill:none;fill-opacity:1;stroke:#000000;stroke-width:1.29999995;stroke-linecap:round;stroke-linejoin:round;stroke-miterlimit:4;stroke-dasharray:none;stroke-opacity:0.00784314" />
    <path
       style="fill:none;fill-opacity:1;stroke:#000000;stroke-width:1.5;stroke-linecap:round;stroke-linejoin:round;stroke-miterlimit:4;stroke-dasharray:none;stroke-opacity:0.00784314"
       d="m 192.32725,33.753842 c -5.53916,-0.129385 -11.40174,2.093418 -16.81836,5.447266 -1.92041,1.10875 -2.27148,2.540933 -2.27148,3.626953 l -0.20313,42.916015 c 0,2.230057 1.90298,1.534098 2.91602,0.949219 16.14903,-8.949371 25.94655,-3.826387 32.66211,8.130859 l -0.52735,-49.554687 c 0.0128,-1.418646 -0.17752,-1.9742 -0.88086,-2.847656 -4.12167,-6.056648 -9.33779,-8.538584 -14.87695,-8.667969 z m 35.53516,0 c -5.53916,0.129385 -10.75333,2.611321 -14.875,8.667969 -0.70334,0.873456 -0.89558,1.42901 -0.88282,2.847656 l -0.52734,49.554687 c 6.71556,-11.957246 16.51503,-17.08023 32.66407,-8.130859 1.01304,0.584879 2.91405,1.280838 2.91406,-0.949219 l -0.20313,-42.916015 c 0,-1.08602 -0.35107,-2.518203 -2.27148,-3.626953 -5.41662,-3.353848 -11.27921,-5.576651 -16.81836,-5.447266 z"
       id="path1480"
       inkscape:connector-curvature="0" />
    <path
       inkscape:connector-curvature="0"
       id="path1482"
       d="m 192.32725,33.753842 c -5.53916,-0.129385 -11.40174,2.093418 -16.81836,5.447266 -1.92041,1.10875 -2.27148,2.540933 -2.27148,3.626953 l -0.20313,42.916015 c 0,2.230057 1.90298,1.534098 2.91602,0.949219 16.14903,-8.949371 25.94655,-3.826387 32.66211,8.130859 l -0.52735,-49.554687 c 0.0128,-1.418646 -0.17752,-1.9742 -0.88086,-2.847656 -4.12167,-6.056648 -9.33779,-8.538584 -14.87695,-8.667969 z m 35.53516,0 c -5.53916,0.129385 -10.75333,2.611321 -14.875,8.667969 -0.70334,0.873456 -0.89558,1.42901 -0.88282,2.847656 l -0.52734,49.554687 c 6.71556,-11.957246 16.51503,-17.08023 32.66407,-8.130859 1.01304,0.584879 2.91405,1.280838 2.91406,-0.949219 l -0.20313,-42.916015 c 0,-1.08602 -0.35107,-2.518203 -2.27148,-3.626953 -5.41662,-3.353848 -11.27921,-5.576651 -16.81836,-5.447266 z"
       style="fill:none;fill-opacity:1;stroke:#000000;stroke-width:1.70000005;stroke-linecap:round;stroke-linejoin:round;stroke-miterlimit:4;stroke-dasharray:none;stroke-opacity:0.00784314" />
    <path
       style="fill:none;fill-opacity:1;stroke:#000000;stroke-width:2;stroke-linecap:round;stroke-linejoin:round;stroke-miterlimit:4;stroke-dasharray:none;stroke-opacity:0.00784314"
       d="m 192.32725,33.753842 c -5.53916,-0.129385 -11.40174,2.093418 -16.81836,5.447266 -1.92041,1.10875 -2.27148,2.540933 -2.27148,3.626953 l -0.20313,42.916015 c 0,2.230057 1.90298,1.534098 2.91602,0.949219 16.14903,-8.949371 25.94655,-3.826387 32.66211,8.130859 l -0.52735,-49.554687 c 0.0128,-1.418646 -0.17752,-1.9742 -0.88086,-2.847656 -4.12167,-6.056648 -9.33779,-8.538584 -14.87695,-8.667969 z m 35.53516,0 c -5.53916,0.129385 -10.75333,2.611321 -14.875,8.667969 -0.70334,0.873456 -0.89558,1.42901 -0.88282,2.847656 l -0.52734,49.554687 c 6.71556,-11.957246 16.51503,-17.08023 32.66407,-8.130859 1.01304,0.584879 2.91405,1.280838 2.91406,-0.949219 l -0.20313,-42.916015 c 0,-1.08602 -0.35107,-2.518203 -2.27148,-3.626953 -5.41662,-3.353848 -11.27921,-5.576651 -16.81836,-5.447266 z"
       id="path1484"
       inkscape:connector-curvature="0" />
    <path
       inkscape:connector-curvature="0"
       id="path1486"
       d="m 192.32725,33.753842 c -5.53916,-0.129385 -11.40174,2.093418 -16.81836,5.447266 -1.92041,1.10875 -2.27148,2.540933 -2.27148,3.626953 l -0.20313,42.916015 c 0,2.230057 1.90298,1.534098 2.91602,0.949219 16.14903,-8.949371 25.94655,-3.826387 32.66211,8.130859 l -0.52735,-49.554687 c 0.0128,-1.418646 -0.17752,-1.9742 -0.88086,-2.847656 -4.12167,-6.056648 -9.33779,-8.538584 -14.87695,-8.667969 z m 35.53516,0 c -5.53916,0.129385 -10.75333,2.611321 -14.875,8.667969 -0.70334,0.873456 -0.89558,1.42901 -0.88282,2.847656 l -0.52734,49.554687 c 6.71556,-11.957246 16.51503,-17.08023 32.66407,-8.130859 1.01304,0.584879 2.91405,1.280838 2.91406,-0.949219 l -0.20313,-42.916015 c 0,-1.08602 -0.35107,-2.518203 -2.27148,-3.626953 -5.41662,-3.353848 -11.27921,-5.576651 -16.81836,-5.447266 z"
       style="fill:none;fill-opacity:1;stroke:#000000;stroke-width:2.29999995;stroke-linecap:round;stroke-linejoin:round;stroke-miterlimit:4;stroke-dasharray:none;stroke-opacity:0.00784314" />
    <path
       style="fill:none;fill-opacity:1;stroke:#000000;stroke-width:2.5999999;stroke-linecap:round;stroke-linejoin:round;stroke-miterlimit:4;stroke-dasharray:none;stroke-opacity:0.00784314"
       d="m 192.32725,33.753842 c -5.53916,-0.129385 -11.40174,2.093418 -16.81836,5.447266 -1.92041,1.10875 -2.27148,2.540933 -2.27148,3.626953 l -0.20313,42.916015 c 0,2.230057 1.90298,1.534098 2.91602,0.949219 16.14903,-8.949371 25.94655,-3.826387 32.66211,8.130859 l -0.52735,-49.554687 c 0.0128,-1.418646 -0.17752,-1.9742 -0.88086,-2.847656 -4.12167,-6.056648 -9.33779,-8.538584 -14.87695,-8.667969 z m 35.53516,0 c -5.53916,0.129385 -10.75333,2.611321 -14.875,8.667969 -0.70334,0.873456 -0.89558,1.42901 -0.88282,2.847656 l -0.52734,49.554687 c 6.71556,-11.957246 16.51503,-17.08023 32.66407,-8.130859 1.01304,0.584879 2.91405,1.280838 2.91406,-0.949219 l -0.20313,-42.916015 c 0,-1.08602 -0.35107,-2.518203 -2.27148,-3.626953 -5.41662,-3.353848 -11.27921,-5.576651 -16.81836,-5.447266 z"
       id="path1488"
       inkscape:connector-curvature="0" />
    <path
       inkscape:connector-curvature="0"
       id="path1490"
       d="m 192.32725,33.753842 c -5.53916,-0.129385 -11.40174,2.093418 -16.81836,5.447266 -1.92041,1.10875 -2.27148,2.540933 -2.27148,3.626953 l -0.20313,42.916015 c 0,2.230057 1.90298,1.534098 2.91602,0.949219 16.14903,-8.949371 25.94655,-3.826387 32.66211,8.130859 l -0.52735,-49.554687 c 0.0128,-1.418646 -0.17752,-1.9742 -0.88086,-2.847656 -4.12167,-6.056648 -9.33779,-8.538584 -14.87695,-8.667969 z m 35.53516,0 c -5.53916,0.129385 -10.75333,2.611321 -14.875,8.667969 -0.70334,0.873456 -0.89558,1.42901 -0.88282,2.847656 l -0.52734,49.554687 c 6.71556,-11.957246 16.51503,-17.08023 32.66407,-8.130859 1.01304,0.584879 2.91405,1.280838 2.91406,-0.949219 l -0.20313,-42.916015 c 0,-1.08602 -0.35107,-2.518203 -2.27148,-3.626953 -5.41662,-3.353848 -11.27921,-5.576651 -16.81836,-5.447266 z"
       style="fill:none;fill-opacity:1;stroke:#000000;stroke-width:2.9000001;stroke-linecap:round;stroke-linejoin:round;stroke-miterlimit:4;stroke-dasharray:none;stroke-opacity:0.00784314" />
    <path
       style="fill:none;fill-opacity:1;stroke:#000000;stroke-width:3.20000005;stroke-linecap:round;stroke-linejoin:round;stroke-miterlimit:4;stroke-dasharray:none;stroke-opacity:0.00784314"
       d="m 192.32725,33.753842 c -5.53916,-0.129385 -11.40174,2.093418 -16.81836,5.447266 -1.92041,1.10875 -2.27148,2.540933 -2.27148,3.626953 l -0.20313,42.916015 c 0,2.230057 1.90298,1.534098 2.91602,0.949219 16.14903,-8.949371 25.94655,-3.826387 32.66211,8.130859 l -0.52735,-49.554687 c 0.0128,-1.418646 -0.17752,-1.9742 -0.88086,-2.847656 -4.12167,-6.056648 -9.33779,-8.538584 -14.87695,-8.667969 z m 35.53516,0 c -5.53916,0.129385 -10.75333,2.611321 -14.875,8.667969 -0.70334,0.873456 -0.89558,1.42901 -0.88282,2.847656 l -0.52734,49.554687 c 6.71556,-11.957246 16.51503,-17.08023 32.66407,-8.130859 1.01304,0.584879 2.91405,1.280838 2.91406,-0.949219 l -0.20313,-42.916015 c 0,-1.08602 -0.35107,-2.518203 -2.27148,-3.626953 -5.41662,-3.353848 -11.27921,-5.576651 -16.81836,-5.447266 z"
       id="path1492"
       inkscape:connector-curvature="0" />
    <path
       inkscape:connector-curvature="0"
       id="path1494"
       d="m 192.32725,33.753842 c -5.53916,-0.129385 -11.40174,2.093418 -16.81836,5.447266 -1.92041,1.10875 -2.27148,2.540933 -2.27148,3.626953 l -0.20313,42.916015 c 0,2.230057 1.90298,1.534098 2.91602,0.949219 16.14903,-8.949371 25.94655,-3.826387 32.66211,8.130859 l -0.52735,-49.554687 c 0.0128,-1.418646 -0.17752,-1.9742 -0.88086,-2.847656 -4.12167,-6.056648 -9.33779,-8.538584 -14.87695,-8.667969 z m 35.53516,0 c -5.53916,0.129385 -10.75333,2.611321 -14.875,8.667969 -0.70334,0.873456 -0.89558,1.42901 -0.88282,2.847656 l -0.52734,49.554687 c 6.71556,-11.957246 16.51503,-17.08023 32.66407,-8.130859 1.01304,0.584879 2.91405,1.280838 2.91406,-0.949219 l -0.20313,-42.916015 c 0,-1.08602 -0.35107,-2.518203 -2.27148,-3.626953 -5.41662,-3.353848 -11.27921,-5.576651 -16.81836,-5.447266 z"
       style="fill:none;fill-opacity:1;stroke:#000000;stroke-width:3.70000005;stroke-linecap:round;stroke-linejoin:round;stroke-miterlimit:4;stroke-dasharray:none;stroke-opacity:0.00784314" />
    <path
       style="fill:none;fill-opacity:1;stroke:#000000;stroke-width:4.19999981;stroke-linecap:round;stroke-linejoin:round;stroke-miterlimit:4;stroke-dasharray:none;stroke-opacity:0.00784314"
       d="m 192.32725,33.753842 c -5.53916,-0.129385 -11.40174,2.093418 -16.81836,5.447266 -1.92041,1.10875 -2.27148,2.540933 -2.27148,3.626953 l -0.20313,42.916015 c 0,2.230057 1.90298,1.534098 2.91602,0.949219 16.14903,-8.949371 25.94655,-3.826387 32.66211,8.130859 l -0.52735,-49.554687 c 0.0128,-1.418646 -0.17752,-1.9742 -0.88086,-2.847656 -4.12167,-6.056648 -9.33779,-8.538584 -14.87695,-8.667969 z m 35.53516,0 c -5.53916,0.129385 -10.75333,2.611321 -14.875,8.667969 -0.70334,0.873456 -0.89558,1.42901 -0.88282,2.847656 l -0.52734,49.554687 c 6.71556,-11.957246 16.51503,-17.08023 32.66407,-8.130859 1.01304,0.584879 2.91405,1.280838 2.91406,-0.949219 l -0.20313,-42.916015 c 0,-1.08602 -0.35107,-2.518203 -2.27148,-3.626953 -5.41662,-3.353848 -11.27921,-5.576651 -16.81836,-5.447266 z"
       id="path1496"
       inkscape:connector-curvature="0" />
    <path
       inkscape:connector-curvature="0"
       id="path1498"
       d="m 192.32725,33.753842 c -5.53916,-0.129385 -11.40174,2.093418 -16.81836,5.447266 -1.92041,1.10875 -2.27148,2.540933 -2.27148,3.626953 l -0.20313,42.916015 c 0,2.230057 1.90298,1.534098 2.91602,0.949219 16.14903,-8.949371 25.94655,-3.826387 32.66211,8.130859 l -0.52735,-49.554687 c 0.0128,-1.418646 -0.17752,-1.9742 -0.88086,-2.847656 -4.12167,-6.056648 -9.33779,-8.538584 -14.87695,-8.667969 z m 35.53516,0 c -5.53916,0.129385 -10.75333,2.611321 -14.875,8.667969 -0.70334,0.873456 -0.89558,1.42901 -0.88282,2.847656 l -0.52734,49.554687 c 6.71556,-11.957246 16.51503,-17.08023 32.66407,-8.130859 1.01304,0.584879 2.91405,1.280838 2.91406,-0.949219 l -0.20313,-42.916015 c 0,-1.08602 -0.35107,-2.518203 -2.27148,-3.626953 -5.41662,-3.353848 -11.27921,-5.576651 -16.81836,-5.447266 z"
       style="fill:none;fill-opacity:1;stroke:#000000;stroke-width:4.69999981;stroke-linecap:round;stroke-linejoin:round;stroke-miterlimit:4;stroke-dasharray:none;stroke-opacity:0.00784314" />
    <path
       style="fill:none;fill-opacity:1;stroke:#000000;stroke-width:5.19999981;stroke-linecap:round;stroke-linejoin:round;stroke-miterlimit:4;stroke-dasharray:none;stroke-opacity:0.00784314"
       d="m 192.32725,33.753842 c -5.53916,-0.129385 -11.40174,2.093418 -16.81836,5.447266 -1.92041,1.10875 -2.27148,2.540933 -2.27148,3.626953 l -0.20313,42.916015 c 0,2.230057 1.90298,1.534098 2.91602,0.949219 16.14903,-8.949371 25.94655,-3.826387 32.66211,8.130859 l -0.52735,-49.554687 c 0.0128,-1.418646 -0.17752,-1.9742 -0.88086,-2.847656 -4.12167,-6.056648 -9.33779,-8.538584 -14.87695,-8.667969 z m 35.53516,0 c -5.53916,0.129385 -10.75333,2.611321 -14.875,8.667969 -0.70334,0.873456 -0.89558,1.42901 -0.88282,2.847656 l -0.52734,49.554687 c 6.71556,-11.957246 16.51503,-17.08023 32.66407,-8.130859 1.01304,0.584879 2.91405,1.280838 2.91406,-0.949219 l -0.20313,-42.916015 c 0,-1.08602 -0.35107,-2.518203 -2.27148,-3.626953 -5.41662,-3.353848 -11.27921,-5.576651 -16.81836,-5.447266 z"
       id="path1500"
       inkscape:connector-curvature="0" />
    <path
       inkscape:connector-curvature="0"
       id="path1502"
       d="m 192.32725,33.753842 c -5.53916,-0.129385 -11.40174,2.093418 -16.81836,5.447266 -1.92041,1.10875 -2.27148,2.540933 -2.27148,3.626953 l -0.20313,42.916015 c 0,2.230057 1.90298,1.534098 2.91602,0.949219 16.14903,-8.949371 25.94655,-3.826387 32.66211,8.130859 l -0.52735,-49.554687 c 0.0128,-1.418646 -0.17752,-1.9742 -0.88086,-2.847656 -4.12167,-6.056648 -9.33779,-8.538584 -14.87695,-8.667969 z m 35.53516,0 c -5.53916,0.129385 -10.75333,2.611321 -14.875,8.667969 -0.70334,0.873456 -0.89558,1.42901 -0.88282,2.847656 l -0.52734,49.554687 c 6.71556,-11.957246 16.51503,-17.08023 32.66407,-8.130859 1.01304,0.584879 2.91405,1.280838 2.91406,-0.949219 l -0.20313,-42.916015 c 0,-1.08602 -0.35107,-2.518203 -2.27148,-3.626953 -5.41662,-3.353848 -11.27921,-5.576651 -16.81836,-5.447266 z"
       style="fill:none;fill-opacity:1;stroke:#000000;stroke-width:5.69999981;stroke-linecap:round;stroke-linejoin:round;stroke-miterlimit:4;stroke-dasharray:none;stroke-opacity:0.00784314" />
    <path
       style="fill:none;fill-opacity:1;stroke:#000000;stroke-width:6.30000019;stroke-linecap:round;stroke-linejoin:round;stroke-miterlimit:4;stroke-dasharray:none;stroke-opacity:0.00784314"
       d="m 192.32725,33.753842 c -5.53916,-0.129385 -11.40174,2.093418 -16.81836,5.447266 -1.92041,1.10875 -2.27148,2.540933 -2.27148,3.626953 l -0.20313,42.916015 c 0,2.230057 1.90298,1.534098 2.91602,0.949219 16.14903,-8.949371 25.94655,-3.826387 32.66211,8.130859 l -0.52735,-49.554687 c 0.0128,-1.418646 -0.17752,-1.9742 -0.88086,-2.847656 -4.12167,-6.056648 -9.33779,-8.538584 -14.87695,-8.667969 z m 35.53516,0 c -5.53916,0.129385 -10.75333,2.611321 -14.875,8.667969 -0.70334,0.873456 -0.89558,1.42901 -0.88282,2.847656 l -0.52734,49.554687 c 6.71556,-11.957246 16.51503,-17.08023 32.66407,-8.130859 1.01304,0.584879 2.91405,1.280838 2.91406,-0.949219 l -0.20313,-42.916015 c 0,-1.08602 -0.35107,-2.518203 -2.27148,-3.626953 -5.41662,-3.353848 -11.27921,-5.576651 -16.81836,-5.447266 z"
       id="path1504"
       inkscape:connector-curvature="0" />
    <path
       inkscape:connector-curvature="0"
       id="path1506"
       d="m 192.32725,33.753842 c -5.53916,-0.129385 -11.40174,2.093418 -16.81836,5.447266 -1.92041,1.10875 -2.27148,2.540933 -2.27148,3.626953 l -0.20313,42.916015 c 0,2.230057 1.90298,1.534098 2.91602,0.949219 16.14903,-8.949371 25.94655,-3.826387 32.66211,8.130859 l -0.52735,-49.554687 c 0.0128,-1.418646 -0.17752,-1.9742 -0.88086,-2.847656 -4.12167,-6.056648 -9.33779,-8.538584 -14.87695,-8.667969 z m 35.53516,0 c -5.53916,0.129385 -10.75333,2.611321 -14.875,8.667969 -0.70334,0.873456 -0.89558,1.42901 -0.88282,2.847656 l -0.52734,49.554687 c 6.71556,-11.957246 16.51503,-17.08023 32.66407,-8.130859 1.01304,0.584879 2.91405,1.280838 2.91406,-0.949219 l -0.20313,-42.916015 c 0,-1.08602 -0.35107,-2.518203 -2.27148,-3.626953 -5.41662,-3.353848 -11.27921,-5.576651 -16.81836,-5.447266 z"
       style="fill:none;fill-opacity:1;stroke:#000000;stroke-width:7.30000019;stroke-linecap:round;stroke-linejoin:round;stroke-miterlimit:4;stroke-dasharray:none;stroke-opacity:0.00784314" />
    <path
       style="fill:none;fill-opacity:1;stroke:#000000;stroke-width:7.80000019;stroke-linecap:round;stroke-linejoin:round;stroke-miterlimit:4;stroke-dasharray:none;stroke-opacity:0.00784314"
       d="m 192.32725,33.753842 c -5.53916,-0.129385 -11.40174,2.093418 -16.81836,5.447266 -1.92041,1.10875 -2.27148,2.540933 -2.27148,3.626953 l -0.20313,42.916015 c 0,2.230057 1.90298,1.534098 2.91602,0.949219 16.14903,-8.949371 25.94655,-3.826387 32.66211,8.130859 l -0.52735,-49.554687 c 0.0128,-1.418646 -0.17752,-1.9742 -0.88086,-2.847656 -4.12167,-6.056648 -9.33779,-8.538584 -14.87695,-8.667969 z m 35.53516,0 c -5.53916,0.129385 -10.75333,2.611321 -14.875,8.667969 -0.70334,0.873456 -0.89558,1.42901 -0.88282,2.847656 l -0.52734,49.554687 c 6.71556,-11.957246 16.51503,-17.08023 32.66407,-8.130859 1.01304,0.584879 2.91405,1.280838 2.91406,-0.949219 l -0.20313,-42.916015 c 0,-1.08602 -0.35107,-2.518203 -2.27148,-3.626953 -5.41662,-3.353848 -11.27921,-5.576651 -16.81836,-5.447266 z"
       id="path1508"
       inkscape:connector-curvature="0" />
  </g>
  <path
     style="fill:#ffffff;fill-opacity:1;stroke:none;stroke-width:0.1;stroke-linecap:butt;stroke-linejoin:miter;stroke-miterlimit:4;stroke-dasharray:none;stroke-opacity:1"
     d="m 45.82431,33.753842 c -5.539157,-0.129385 -11.401744,2.093418 -16.818359,5.447266 -1.920414,1.10875 -2.271485,2.540933 -2.271485,3.626953 l -0.203125,42.916015 c 0,2.230057 1.902976,1.534098 2.916016,0.949219 16.149031,-8.949371 25.946552,-3.826387 32.662109,8.130859 L 61.582122,45.269467 c 0.01277,-1.418646 -0.177527,-1.9742 -0.880859,-2.847656 -4.121675,-6.056648 -9.337796,-8.538584 -14.876953,-8.667969 z m 35.535156,0 c -5.539156,0.129385 -10.753325,2.611321 -14.875,8.667969 -0.703332,0.873456 -0.895574,1.42901 -0.882812,2.847656 L 65.07431,94.824154 c 6.715557,-11.957246 16.515032,-17.08023 32.664066,-8.130859 1.01304,0.584879 2.914054,1.280838 2.914064,-0.949219 l -0.20313,-42.916015 c 0,-1.08602 -0.35107,-2.518203 -2.271484,-3.626953 C 92.76121,35.84726 86.898623,33.624457 81.359466,33.753842 Z"
     id="path1449"
     inkscape:connector-curvature="0" />
</svg>
