<?xml version="1.0" encoding="UTF-8" standalone="no"?>
<!-- Created with Inkscape (http://www.inkscape.org/) -->

<svg
   xmlns:dc="http://purl.org/dc/elements/1.1/"
   xmlns:cc="http://creativecommons.org/ns#"
   xmlns:rdf="http://www.w3.org/1999/02/22-rdf-syntax-ns#"
   xmlns:svg="http://www.w3.org/2000/svg"
   xmlns="http://www.w3.org/2000/svg"
   xmlns:xlink="http://www.w3.org/1999/xlink"
   xmlns:sodipodi="http://sodipodi.sourceforge.net/DTD/sodipodi-0.dtd"
   xmlns:inkscape="http://www.inkscape.org/namespaces/inkscape"
   width="128"
   height="128"
   viewBox="0 0 33.866666 33.866668"
   version="1.1"
   id="svg956"
   inkscape:version="0.92.1 r15371"
   sodipodi:docname="intellij.svg">
  <defs
     id="defs950">
    <linearGradient
       inkscape:collect="always"
       id="linearGradient1606-5">
      <stop
         style="stop-color:#f3f9f9;stop-opacity:1"
         offset="0"
         id="stop1602" />
      <stop
         style="stop-color:#d5dada;stop-opacity:1"
         offset="1"
         id="stop1604" />
    </linearGradient>
    <linearGradient
       gradientTransform="matrix(0.26458333,0,0,0.26458333,-0.75004731,260.85009)"
       inkscape:collect="always"
       xlink:href="#linearGradient944"
       id="linearGradient948"
       gradientUnits="userSpaceOnUse"
       x1="122.34071"
       y1="117.04197"
       x2="84.091423"
       y2="71.020111" />
    <linearGradient
       inkscape:collect="always"
       id="linearGradient944">
      <stop
         style="stop-color:#d5dada;stop-opacity:1"
         offset="0"
         id="stop940" />
      <stop
         style="stop-color:#f1f1f1;stop-opacity:1"
         offset="1"
         id="stop942" />
    </linearGradient>
    <filter
       style="color-interpolation-filters:sRGB"
       id="c"
       height="1.1655999"
       width="1.1655999"
       x="-0.082800001"
       y="-0.082800001">
      <feGaussianBlur
         stdDeviation="2.1101835"
         id="feGaussianBlur10" />
    </filter>
    <linearGradient
       gradientTransform="matrix(0.25320785,0,0,0.25320785,-0.0941833,263.43808)"
       inkscape:collect="always"
       xlink:href="#linearGradient870"
       id="linearGradient872"
       x1="36.951637"
       y1="28.276243"
       x2="67.632683"
       y2="108.04747"
       gradientUnits="userSpaceOnUse" />
    <linearGradient
       inkscape:collect="always"
       id="linearGradient870">
      <stop
         style="stop-color:#feb518;stop-opacity:1"
         offset="0"
         id="stop866" />
      <stop
         style="stop-color:#f0903c;stop-opacity:1"
         offset="1"
         id="stop868" />
    </linearGradient>
    <filter
       style="color-interpolation-filters:sRGB"
       id="a"
       height="1.031026"
       width="1.031376"
       x="-0.015688"
       y="-0.015513">
      <feGaussianBlur
         stdDeviation=".7986332"
         id="feGaussianBlur2" />
    </filter>
    <linearGradient
       inkscape:collect="always"
       xlink:href="#linearGradient1606-5"
       id="linearGradient1615"
       gradientUnits="userSpaceOnUse"
       x1="21.771429"
       y1="281.84537"
       x2="30.878431"
       y2="291.66385"
       gradientTransform="matrix(0.95700606,0,0,0.95700606,0.62361651,13.80297)" />
  </defs>
  <sodipodi:namedview
     id="base"
     pagecolor="#ffffff"
     bordercolor="#666666"
     borderopacity="1.0"
     inkscape:pageopacity="0.0"
     inkscape:pageshadow="2"
     inkscape:zoom="3.7187499"
     inkscape:cx="64.487943"
     inkscape:cy="67.496465"
     inkscape:document-units="mm"
     inkscape:current-layer="layer1"
     showgrid="true"
     units="px"
     inkscape:window-width="1920"
     inkscape:window-height="1040"
     inkscape:window-x="0"
     inkscape:window-y="0"
     inkscape:window-maximized="1">
    <inkscape:grid
       type="xygrid"
       id="grid1636" />
  </sodipodi:namedview>
  <metadata
     id="metadata953">
    <rdf:RDF>
      <cc:Work
         rdf:about="">
        <dc:format>image/svg+xml</dc:format>
        <dc:type
           rdf:resource="http://purl.org/dc/dcmitype/StillImage" />
        <dc:title></dc:title>
      </cc:Work>
    </rdf:RDF>
  </metadata>
  <g
     inkscape:label="Capa 1"
     inkscape:groupmode="layer"
     id="layer1"
     transform="translate(0,-263.13332)">
    <rect
       style="fill:#5d5d5d;filter:url(#a)"
       id="rect13"
       y="-8.1696901"
       x="159.55064"
       width="107.46031"
       transform="matrix(0.24270815,-0.03939202,0.03939202,0.24270815,-37.675115,277.00978)"
       rx="4.8269792"
       height="109.12843" />
    <rect
       style="fill:#ffffff;stroke-width:0.24588409"
       id="rect15"
       y="265.38727"
       x="-42.336063"
       width="26.422779"
       transform="rotate(-9.2188336)"
       rx="1.1868773"
       height="26.832945" />
    <path
       style="fill:url(#linearGradient872);fill-opacity:1;stroke-width:0.24588409"
       inkscape:connector-curvature="0"
       id="path17"
       d="m 2.3221944,270.32599 23.1665436,-4.08145 4.023968,22.99409 -23.1090621,4.25391 z" />
    <path
       inkscape:connector-curvature="0"
       d=""
       style="opacity:1;fill:url(#linearGradient948);fill-opacity:1;stroke:none;stroke-width:0.57240593;stroke-linecap:round;stroke-linejoin:round;stroke-miterlimit:4;stroke-dasharray:none;stroke-dashoffset:0;stroke-opacity:0.03831416;paint-order:fill markers stroke"
       id="path864"
       r="28.431282"
       cy="97.610519"
       cx="103.31834" />
    <g
       id="g4556"
       style="opacity:0.288">
      <path
         id="circle4508"
         transform="matrix(0.26458333,0,0,0.26458333,0,263.13332)"
         d="M 96.484375 66.160156 A 27.597516 27.597516 0 0 0 68.886719 93.757812 A 27.597516 27.597516 0 0 0 75.882812 112.07031 L 113.14453 106.02344 C 115.59758 105.6253 117.25165 103.33001 116.85352 100.87695 L 111.99414 70.935547 A 27.597516 27.597516 0 0 0 96.484375 66.160156 z "
         style="opacity:1;fill:#000000;fill-opacity:0.07984793;stroke:none;stroke-width:2.74407077;stroke-linecap:round;stroke-linejoin:round;stroke-miterlimit:4;stroke-dasharray:none;stroke-dashoffset:0;stroke-opacity:0.03831416;paint-order:fill markers stroke" />
      <path
         id="circle4510"
         transform="matrix(0.26458333,0,0,0.26458333,0,263.13332)"
         d="M 96.294922 65.78125 A 27.787662 27.787662 0 0 0 68.505859 93.568359 A 27.787662 27.787662 0 0 0 75.642578 112.10938 L 113.14453 106.02344 C 115.59758 105.6253 117.25165 103.33001 116.85352 100.87695 L 111.94141 70.607422 A 27.787662 27.787662 0 0 0 96.294922 65.78125 z "
         style="opacity:1;fill:#000000;fill-opacity:0.07984793;stroke:none;stroke-width:2.7629776;stroke-linecap:round;stroke-linejoin:round;stroke-miterlimit:4;stroke-dasharray:none;stroke-dashoffset:0;stroke-opacity:0.03831416;paint-order:fill markers stroke" />
      <path
         id="circle4512"
         transform="matrix(0.26458333,0,0,0.26458333,0,263.13332)"
         d="M 96.056641 65.304688 A 28.025344 28.025344 0 0 0 68.03125 93.330078 A 28.025344 28.025344 0 0 0 75.341797 112.16016 L 113.14453 106.02344 C 115.59758 105.6253 117.25165 103.33001 116.85352 100.87695 L 111.87305 70.197266 A 28.025344 28.025344 0 0 0 96.056641 65.304688 z "
         style="opacity:1;fill:#000000;fill-opacity:0.07984793;stroke:none;stroke-width:2.7866106;stroke-linecap:round;stroke-linejoin:round;stroke-miterlimit:4;stroke-dasharray:none;stroke-dashoffset:0;stroke-opacity:0.03831416;paint-order:fill markers stroke" />
      <path
         id="circle4514"
         transform="matrix(0.26458333,0,0,0.26458333,0,263.13332)"
         d="M 95.914062 65.019531 A 28.167954 28.167954 0 0 0 67.746094 93.1875 A 28.167954 28.167954 0 0 0 75.160156 112.18945 L 113.14453 106.02344 C 115.59758 105.6253 117.25165 103.33001 116.85352 100.87695 L 111.83398 69.951172 A 28.167954 28.167954 0 0 0 95.914062 65.019531 z "
         style="opacity:1;fill:#000000;fill-opacity:0.07984793;stroke:none;stroke-width:2.80079055;stroke-linecap:round;stroke-linejoin:round;stroke-miterlimit:4;stroke-dasharray:none;stroke-dashoffset:0;stroke-opacity:0.03831416;paint-order:fill markers stroke" />
      <path
         id="circle4516"
         transform="matrix(0.26458333,0,0,0.26458333,0,263.13332)"
         d="M 95.675781 64.544922 A 28.405636 28.405636 0 0 0 67.269531 92.951172 A 28.405636 28.405636 0 0 0 74.857422 112.23828 L 113.14453 106.02344 C 115.59758 105.6253 117.25165 103.33001 116.85352 100.87695 L 111.76758 69.546875 A 28.405636 28.405636 0 0 0 95.675781 64.544922 z "
         style="opacity:1;fill:#000000;fill-opacity:0.07984793;stroke:none;stroke-width:2.82442379;stroke-linecap:round;stroke-linejoin:round;stroke-miterlimit:4;stroke-dasharray:none;stroke-dashoffset:0;stroke-opacity:0.03831416;paint-order:fill markers stroke" />
      <path
         id="circle4518"
         transform="matrix(0.26458333,0,0,0.26458333,0,263.13332)"
         d="M 95.4375 64.070312 A 28.643318 28.643318 0 0 0 66.794922 92.712891 A 28.643318 28.643318 0 0 0 74.556641 112.28711 L 113.14453 106.02344 C 115.59758 105.6253 117.25165 103.33001 116.85352 100.87695 L 111.70312 69.142578 A 28.643318 28.643318 0 0 0 95.4375 64.070312 z "
         style="opacity:1;fill:#000000;fill-opacity:0.07984793;stroke:none;stroke-width:2.84805679;stroke-linecap:round;stroke-linejoin:round;stroke-miterlimit:4;stroke-dasharray:none;stroke-dashoffset:0;stroke-opacity:0.03831416;paint-order:fill markers stroke" />
      <path
         id="circle4520"
         transform="matrix(0.26458333,0,0,0.26458333,0,263.13332)"
         d="M 95.201172 63.59375 A 28.881 28.881 0 0 0 66.320312 92.474609 A 28.881 28.881 0 0 0 74.253906 112.33594 L 113.14453 106.02344 C 115.59758 105.6253 117.25165 103.33001 116.85352 100.87695 L 111.63672 68.736328 A 28.881 28.881 0 0 0 95.201172 63.59375 z "
         style="opacity:1;fill:#000000;fill-opacity:0.07984793;stroke:none;stroke-width:2.87169003;stroke-linecap:round;stroke-linejoin:round;stroke-miterlimit:4;stroke-dasharray:none;stroke-dashoffset:0;stroke-opacity:0.03831416;paint-order:fill markers stroke" />
      <path
         id="circle4522"
         transform="matrix(0.26458333,0,0,0.26458333,0,263.13332)"
         d="M 95.009766 63.212891 A 29.071147 29.071147 0 0 0 65.939453 92.285156 A 29.071147 29.071147 0 0 0 74.011719 112.375 L 113.14453 106.02344 C 115.59758 105.6253 117.25165 103.33001 116.85352 100.87695 L 111.58398 68.412109 A 29.071147 29.071147 0 0 0 95.009766 63.212891 z "
         style="opacity:1;fill:#000000;fill-opacity:0.07984793;stroke:none;stroke-width:2.89059663;stroke-linecap:round;stroke-linejoin:round;stroke-miterlimit:4;stroke-dasharray:none;stroke-dashoffset:0;stroke-opacity:0.03831416;paint-order:fill markers stroke" />
    </g>
    <circle
       style="opacity:1;fill:url(#linearGradient1615);fill-opacity:1;stroke:none;stroke-width:0.72103304;stroke-linecap:round;stroke-linejoin:round;stroke-miterlimit:4;stroke-dasharray:none;stroke-dashoffset:0;stroke-opacity:0.03831416;paint-order:fill markers stroke"
       id="path1600"
       cx="25.578423"
       cy="287.9906"
       r="7.251533" />
    <path
       style="color:#000000;font-style:normal;font-variant:normal;font-weight:normal;font-stretch:normal;font-size:medium;line-height:normal;font-family:sans-serif;font-variant-ligatures:normal;font-variant-position:normal;font-variant-caps:normal;font-variant-numeric:normal;font-variant-alternates:normal;font-feature-settings:normal;text-indent:0;text-align:start;text-decoration:none;text-decoration-line:none;text-decoration-style:solid;text-decoration-color:#000000;letter-spacing:normal;word-spacing:normal;text-transform:none;writing-mode:lr-tb;direction:ltr;text-orientation:mixed;dominant-baseline:auto;baseline-shift:baseline;text-anchor:start;white-space:normal;shape-padding:0;clip-rule:nonzero;display:inline;overflow:visible;visibility:visible;opacity:1;isolation:auto;mix-blend-mode:normal;color-interpolation:sRGB;color-interpolation-filters:linearRGB;solid-color:#000000;solid-opacity:1;vector-effect:none;fill:#e68811;fill-opacity:1;fill-rule:nonzero;stroke:none;stroke-width:0.69999999;stroke-linecap:round;stroke-linejoin:round;stroke-miterlimit:4;stroke-dasharray:none;stroke-dashoffset:0;stroke-opacity:1;paint-order:fill markers stroke;color-rendering:auto;image-rendering:auto;shape-rendering:auto;text-rendering:auto;enable-background:accumulate"
       d="m 23.602723,285.34869 c -0.196789,-0.005 -0.359206,0.15275 -0.359375,0.34961 v 4.58398 c 1.65e-4,0.26954 0.292116,0.43776 0.52539,0.30273 l 3.96875,-2.29101 c 0.23468,-0.13447 0.23468,-0.47295 0,-0.60742 l -3.96875,-2.29102 c -0.05056,-0.0292 -0.107631,-0.0454 -0.166015,-0.0469 z"
       id="path4640"
       inkscape:connector-curvature="0"
       sodipodi:nodetypes="ccccccccc" />
    <path
       style="color:#000000;font-style:normal;font-variant:normal;font-weight:normal;font-stretch:normal;font-size:10.58333302px;line-height:1.25;font-family:'SF UI Display';-inkscape-font-specification:'SF UI Display';font-variant-ligatures:normal;font-variant-position:normal;font-variant-caps:normal;font-variant-numeric:normal;font-variant-alternates:normal;font-feature-settings:normal;text-indent:0;text-align:center;text-decoration:none;text-decoration-line:none;text-decoration-style:solid;text-decoration-color:#000000;letter-spacing:0px;word-spacing:0px;text-transform:none;writing-mode:lr-tb;direction:ltr;text-orientation:mixed;dominant-baseline:auto;baseline-shift:baseline;text-anchor:middle;white-space:normal;shape-padding:0;clip-rule:nonzero;display:inline;overflow:visible;visibility:visible;opacity:1;isolation:auto;mix-blend-mode:normal;color-interpolation:sRGB;color-interpolation-filters:linearRGB;solid-color:#000000;solid-opacity:1;vector-effect:none;fill:#ffffff;fill-opacity:1;fill-rule:nonzero;stroke:none;stroke-width:1.00157475;stroke-linecap:round;stroke-linejoin:round;stroke-miterlimit:4;stroke-dasharray:none;stroke-dashoffset:0;stroke-opacity:1;color-rendering:auto;image-rendering:auto;shape-rendering:auto;text-rendering:auto;enable-background:accumulate"
       d="M 43.515625 27.408203 L 40.050781 27.992188 C 40.033773 27.993813 40.016932 27.994267 40 27.998047 L 40 28 C 39.750778 28.068409 39.593847 28.315724 39.638672 28.570312 L 43.011719 48.595703 C 43.283656 50.210166 43.087909 51.449259 42.525391 52.330078 C 41.962853 53.210897 41.020706 53.795787 39.587891 54.037109 C 37.278452 54.426098 35.517658 53.274755 35.09375 51.179688 C 35.038588 50.919278 34.788392 50.747903 34.525391 50.789062 L 31.076172 51.369141 C 30.802413 51.414495 30.617324 51.673855 30.664062 51.947266 C 31.417042 56.417691 35.471048 59.028992 40.304688 58.214844 C 42.96651 57.766516 45.024003 56.578629 46.269531 54.777344 C 47.515063 52.976021 47.931129 50.600769 47.470703 47.867188 L 44.09375 27.820312 C 44.04832 27.546675 43.78918 27.361488 43.515625 27.408203 z M 23.986328 30.697266 L 20.519531 31.28125 C 20.50241 31.282875 20.485576 31.285283 20.46875 31.289062 C 20.219517 31.357472 20.064565 31.604786 20.109375 31.859375 L 24.791016 59.652344 C 24.84001 59.92258 25.096489 60.102902 25.367188 60.056641 L 28.832031 59.472656 C 29.102963 59.42768 29.286392 59.173752 29.244141 58.902344 L 24.564453 31.109375 C 24.518985 30.835737 24.259863 30.650551 23.986328 30.697266 z M 39.90625 62.146484 L 24.382812 65.142578 L 25.097656 68.855469 L 40.623047 65.851562 L 39.90625 62.146484 z "
       transform="matrix(0.26458333,0,0,0.26458333,0,263.13332)"
       id="text4517" />
    <g
       id="g4593"
       transform="translate(-34.395834)"
       style="opacity:0.21">
      <path
         inkscape:connector-curvature="0"
         style="color:#000000;font-style:normal;font-variant:normal;font-weight:normal;font-stretch:normal;font-size:10.58333302px;line-height:1.25;font-family:'SF UI Display';-inkscape-font-specification:'SF UI Display';font-variant-ligatures:normal;font-variant-position:normal;font-variant-caps:normal;font-variant-numeric:normal;font-variant-alternates:normal;font-feature-settings:normal;text-indent:0;text-align:center;text-decoration:none;text-decoration-line:none;text-decoration-style:solid;text-decoration-color:#000000;letter-spacing:0px;word-spacing:0px;text-transform:none;writing-mode:lr-tb;direction:ltr;text-orientation:mixed;dominant-baseline:auto;baseline-shift:baseline;text-anchor:middle;white-space:normal;shape-padding:0;clip-rule:nonzero;display:inline;overflow:visible;visibility:visible;opacity:1;isolation:auto;mix-blend-mode:normal;color-interpolation:sRGB;color-interpolation-filters:linearRGB;solid-color:#000000;solid-opacity:1;vector-effect:none;fill:none;fill-opacity:1;fill-rule:nonzero;stroke:#130a01;stroke-width:0.1;stroke-linecap:round;stroke-linejoin:round;stroke-miterlimit:4;stroke-dasharray:none;stroke-dashoffset:0;stroke-opacity:0.01176471;color-rendering:auto;image-rendering:auto;shape-rendering:auto;text-rendering:auto;enable-background:accumulate"
         d="m 45.934147,270.6109 -0.91674,0.15451 c -0.0045,4.3e-4 -0.009,5.5e-4 -0.01344,0.002 v 5.2e-4 c -0.06594,0.0181 -0.107461,0.0835 -0.0956,0.15089 l 0.892452,5.29839 c 0.07195,0.42716 0.02016,0.755 -0.128674,0.98805 -0.148838,0.23305 -0.398115,0.3878 -0.777214,0.45165 -0.611039,0.10292 -1.076916,-0.2017 -1.189075,-0.75602 -0.01459,-0.0689 -0.08079,-0.11424 -0.150378,-0.10335 l -0.912606,0.15347 c -0.07243,0.012 -0.121403,0.0806 -0.109037,0.15297 0.199226,1.1828 1.271848,1.8737 2.550749,1.65829 0.704273,-0.11862 1.248652,-0.43291 1.578198,-0.9095 0.329547,-0.4766 0.439631,-1.10505 0.31781,-1.82831 l -0.893486,-5.30407 c -0.01202,-0.0724 -0.08058,-0.1214 -0.152962,-0.10904 z m -5.167126,0.87023 -0.917257,0.15451 c -0.0045,4.3e-4 -0.009,10e-4 -0.01344,0.002 -0.06594,0.0181 -0.10694,0.0835 -0.09508,0.1509 l 1.238684,7.35355 c 0.01296,0.0715 0.08082,0.11921 0.152445,0.10697 l 0.91674,-0.15451 c 0.07168,-0.0119 0.120216,-0.0791 0.109037,-0.1509 l -1.238167,-7.35355 c -0.01203,-0.0724 -0.08059,-0.1214 -0.152962,-0.10904 z m 4.212146,8.32094 -4.107243,0.79272 0.189136,0.98237 4.107759,-0.79479 z"
         id="path4545" />
      <path
         id="path4547"
         d="m 45.934147,270.6109 -0.91674,0.15451 c -0.0045,4.3e-4 -0.009,5.5e-4 -0.01344,0.002 v 5.2e-4 c -0.06594,0.0181 -0.107461,0.0835 -0.0956,0.15089 l 0.892452,5.29839 c 0.07195,0.42716 0.02016,0.755 -0.128674,0.98805 -0.148838,0.23305 -0.398115,0.3878 -0.777214,0.45165 -0.611039,0.10292 -1.076916,-0.2017 -1.189075,-0.75602 -0.01459,-0.0689 -0.08079,-0.11424 -0.150378,-0.10335 l -0.912606,0.15347 c -0.07243,0.012 -0.121403,0.0806 -0.109037,0.15297 0.199226,1.1828 1.271848,1.8737 2.550749,1.65829 0.704273,-0.11862 1.248652,-0.43291 1.578198,-0.9095 0.329547,-0.4766 0.439631,-1.10505 0.31781,-1.82831 l -0.893486,-5.30407 c -0.01202,-0.0724 -0.08058,-0.1214 -0.152962,-0.10904 z m -5.167126,0.87023 -0.917257,0.15451 c -0.0045,4.3e-4 -0.009,10e-4 -0.01344,0.002 -0.06594,0.0181 -0.10694,0.0835 -0.09508,0.1509 l 1.238684,7.35355 c 0.01296,0.0715 0.08082,0.11921 0.152445,0.10697 l 0.91674,-0.15451 c 0.07168,-0.0119 0.120216,-0.0791 0.109037,-0.1509 l -1.238167,-7.35355 c -0.01203,-0.0724 -0.08059,-0.1214 -0.152962,-0.10904 z m 4.212146,8.32094 -4.107243,0.79272 0.189136,0.98237 4.107759,-0.79479 z"
         style="color:#000000;font-style:normal;font-variant:normal;font-weight:normal;font-stretch:normal;font-size:10.58333302px;line-height:1.25;font-family:'SF UI Display';-inkscape-font-specification:'SF UI Display';font-variant-ligatures:normal;font-variant-position:normal;font-variant-caps:normal;font-variant-numeric:normal;font-variant-alternates:normal;font-feature-settings:normal;text-indent:0;text-align:center;text-decoration:none;text-decoration-line:none;text-decoration-style:solid;text-decoration-color:#000000;letter-spacing:0px;word-spacing:0px;text-transform:none;writing-mode:lr-tb;direction:ltr;text-orientation:mixed;dominant-baseline:auto;baseline-shift:baseline;text-anchor:middle;white-space:normal;shape-padding:0;clip-rule:nonzero;display:inline;overflow:visible;visibility:visible;opacity:1;isolation:auto;mix-blend-mode:normal;color-interpolation:sRGB;color-interpolation-filters:linearRGB;solid-color:#000000;solid-opacity:1;vector-effect:none;fill:none;fill-opacity:1;fill-rule:nonzero;stroke:#130a01;stroke-width:0.30000001;stroke-linecap:round;stroke-linejoin:round;stroke-miterlimit:4;stroke-dasharray:none;stroke-dashoffset:0;stroke-opacity:0.01176471;color-rendering:auto;image-rendering:auto;shape-rendering:auto;text-rendering:auto;enable-background:accumulate"
         inkscape:connector-curvature="0" />
      <path
         inkscape:connector-curvature="0"
         style="color:#000000;font-style:normal;font-variant:normal;font-weight:normal;font-stretch:normal;font-size:10.58333302px;line-height:1.25;font-family:'SF UI Display';-inkscape-font-specification:'SF UI Display';font-variant-ligatures:normal;font-variant-position:normal;font-variant-caps:normal;font-variant-numeric:normal;font-variant-alternates:normal;font-feature-settings:normal;text-indent:0;text-align:center;text-decoration:none;text-decoration-line:none;text-decoration-style:solid;text-decoration-color:#000000;letter-spacing:0px;word-spacing:0px;text-transform:none;writing-mode:lr-tb;direction:ltr;text-orientation:mixed;dominant-baseline:auto;baseline-shift:baseline;text-anchor:middle;white-space:normal;shape-padding:0;clip-rule:nonzero;display:inline;overflow:visible;visibility:visible;opacity:1;isolation:auto;mix-blend-mode:normal;color-interpolation:sRGB;color-interpolation-filters:linearRGB;solid-color:#000000;solid-opacity:1;vector-effect:none;fill:none;fill-opacity:1;fill-rule:nonzero;stroke:#130a01;stroke-width:0.5;stroke-linecap:round;stroke-linejoin:round;stroke-miterlimit:4;stroke-dasharray:none;stroke-dashoffset:0;stroke-opacity:0.01176471;color-rendering:auto;image-rendering:auto;shape-rendering:auto;text-rendering:auto;enable-background:accumulate"
         d="m 45.934147,270.6109 -0.91674,0.15451 c -0.0045,4.3e-4 -0.009,5.5e-4 -0.01344,0.002 v 5.2e-4 c -0.06594,0.0181 -0.107461,0.0835 -0.0956,0.15089 l 0.892452,5.29839 c 0.07195,0.42716 0.02016,0.755 -0.128674,0.98805 -0.148838,0.23305 -0.398115,0.3878 -0.777214,0.45165 -0.611039,0.10292 -1.076916,-0.2017 -1.189075,-0.75602 -0.01459,-0.0689 -0.08079,-0.11424 -0.150378,-0.10335 l -0.912606,0.15347 c -0.07243,0.012 -0.121403,0.0806 -0.109037,0.15297 0.199226,1.1828 1.271848,1.8737 2.550749,1.65829 0.704273,-0.11862 1.248652,-0.43291 1.578198,-0.9095 0.329547,-0.4766 0.439631,-1.10505 0.31781,-1.82831 l -0.893486,-5.30407 c -0.01202,-0.0724 -0.08058,-0.1214 -0.152962,-0.10904 z m -5.167126,0.87023 -0.917257,0.15451 c -0.0045,4.3e-4 -0.009,10e-4 -0.01344,0.002 -0.06594,0.0181 -0.10694,0.0835 -0.09508,0.1509 l 1.238684,7.35355 c 0.01296,0.0715 0.08082,0.11921 0.152445,0.10697 l 0.91674,-0.15451 c 0.07168,-0.0119 0.120216,-0.0791 0.109037,-0.1509 l -1.238167,-7.35355 c -0.01203,-0.0724 -0.08059,-0.1214 -0.152962,-0.10904 z m 4.212146,8.32094 -4.107243,0.79272 0.189136,0.98237 4.107759,-0.79479 z"
         id="path4549" />
      <path
         id="path4551"
         d="m 45.934147,270.6109 -0.91674,0.15451 c -0.0045,4.3e-4 -0.009,5.5e-4 -0.01344,0.002 v 5.2e-4 c -0.06594,0.0181 -0.107461,0.0835 -0.0956,0.15089 l 0.892452,5.29839 c 0.07195,0.42716 0.02016,0.755 -0.128674,0.98805 -0.148838,0.23305 -0.398115,0.3878 -0.777214,0.45165 -0.611039,0.10292 -1.076916,-0.2017 -1.189075,-0.75602 -0.01459,-0.0689 -0.08079,-0.11424 -0.150378,-0.10335 l -0.912606,0.15347 c -0.07243,0.012 -0.121403,0.0806 -0.109037,0.15297 0.199226,1.1828 1.271848,1.8737 2.550749,1.65829 0.704273,-0.11862 1.248652,-0.43291 1.578198,-0.9095 0.329547,-0.4766 0.439631,-1.10505 0.31781,-1.82831 l -0.893486,-5.30407 c -0.01202,-0.0724 -0.08058,-0.1214 -0.152962,-0.10904 z m -5.167126,0.87023 -0.917257,0.15451 c -0.0045,4.3e-4 -0.009,10e-4 -0.01344,0.002 -0.06594,0.0181 -0.10694,0.0835 -0.09508,0.1509 l 1.238684,7.35355 c 0.01296,0.0715 0.08082,0.11921 0.152445,0.10697 l 0.91674,-0.15451 c 0.07168,-0.0119 0.120216,-0.0791 0.109037,-0.1509 l -1.238167,-7.35355 c -0.01203,-0.0724 -0.08059,-0.1214 -0.152962,-0.10904 z m 4.212146,8.32094 -4.107243,0.79272 0.189136,0.98237 4.107759,-0.79479 z"
         style="color:#000000;font-style:normal;font-variant:normal;font-weight:normal;font-stretch:normal;font-size:10.58333302px;line-height:1.25;font-family:'SF UI Display';-inkscape-font-specification:'SF UI Display';font-variant-ligatures:normal;font-variant-position:normal;font-variant-caps:normal;font-variant-numeric:normal;font-variant-alternates:normal;font-feature-settings:normal;text-indent:0;text-align:center;text-decoration:none;text-decoration-line:none;text-decoration-style:solid;text-decoration-color:#000000;letter-spacing:0px;word-spacing:0px;text-transform:none;writing-mode:lr-tb;direction:ltr;text-orientation:mixed;dominant-baseline:auto;baseline-shift:baseline;text-anchor:middle;white-space:normal;shape-padding:0;clip-rule:nonzero;display:inline;overflow:visible;visibility:visible;opacity:1;isolation:auto;mix-blend-mode:normal;color-interpolation:sRGB;color-interpolation-filters:linearRGB;solid-color:#000000;solid-opacity:1;vector-effect:none;fill:none;fill-opacity:1;fill-rule:nonzero;stroke:#130a01;stroke-width:0.69999999;stroke-linecap:round;stroke-linejoin:round;stroke-miterlimit:4;stroke-dasharray:none;stroke-dashoffset:0;stroke-opacity:0.01176471;color-rendering:auto;image-rendering:auto;shape-rendering:auto;text-rendering:auto;enable-background:accumulate"
         inkscape:connector-curvature="0" />
      <path
         inkscape:connector-curvature="0"
         style="color:#000000;font-style:normal;font-variant:normal;font-weight:normal;font-stretch:normal;font-size:10.58333302px;line-height:1.25;font-family:'SF UI Display';-inkscape-font-specification:'SF UI Display';font-variant-ligatures:normal;font-variant-position:normal;font-variant-caps:normal;font-variant-numeric:normal;font-variant-alternates:normal;font-feature-settings:normal;text-indent:0;text-align:center;text-decoration:none;text-decoration-line:none;text-decoration-style:solid;text-decoration-color:#000000;letter-spacing:0px;word-spacing:0px;text-transform:none;writing-mode:lr-tb;direction:ltr;text-orientation:mixed;dominant-baseline:auto;baseline-shift:baseline;text-anchor:middle;white-space:normal;shape-padding:0;clip-rule:nonzero;display:inline;overflow:visible;visibility:visible;opacity:1;isolation:auto;mix-blend-mode:normal;color-interpolation:sRGB;color-interpolation-filters:linearRGB;solid-color:#000000;solid-opacity:1;vector-effect:none;fill:none;fill-opacity:1;fill-rule:nonzero;stroke:#130a01;stroke-width:0.89999998;stroke-linecap:round;stroke-linejoin:round;stroke-miterlimit:4;stroke-dasharray:none;stroke-dashoffset:0;stroke-opacity:0.01176471;color-rendering:auto;image-rendering:auto;shape-rendering:auto;text-rendering:auto;enable-background:accumulate"
         d="m 45.934147,270.6109 -0.91674,0.15451 c -0.0045,4.3e-4 -0.009,5.5e-4 -0.01344,0.002 v 5.2e-4 c -0.06594,0.0181 -0.107461,0.0835 -0.0956,0.15089 l 0.892452,5.29839 c 0.07195,0.42716 0.02016,0.755 -0.128674,0.98805 -0.148838,0.23305 -0.398115,0.3878 -0.777214,0.45165 -0.611039,0.10292 -1.076916,-0.2017 -1.189075,-0.75602 -0.01459,-0.0689 -0.08079,-0.11424 -0.150378,-0.10335 l -0.912606,0.15347 c -0.07243,0.012 -0.121403,0.0806 -0.109037,0.15297 0.199226,1.1828 1.271848,1.8737 2.550749,1.65829 0.704273,-0.11862 1.248652,-0.43291 1.578198,-0.9095 0.329547,-0.4766 0.439631,-1.10505 0.31781,-1.82831 l -0.893486,-5.30407 c -0.01202,-0.0724 -0.08058,-0.1214 -0.152962,-0.10904 z m -5.167126,0.87023 -0.917257,0.15451 c -0.0045,4.3e-4 -0.009,10e-4 -0.01344,0.002 -0.06594,0.0181 -0.10694,0.0835 -0.09508,0.1509 l 1.238684,7.35355 c 0.01296,0.0715 0.08082,0.11921 0.152445,0.10697 l 0.91674,-0.15451 c 0.07168,-0.0119 0.120216,-0.0791 0.109037,-0.1509 l -1.238167,-7.35355 c -0.01203,-0.0724 -0.08059,-0.1214 -0.152962,-0.10904 z m 4.212146,8.32094 -4.107243,0.79272 0.189136,0.98237 4.107759,-0.79479 z"
         id="path4553" />
      <path
         id="path4555"
         d="m 45.934147,270.6109 -0.91674,0.15451 c -0.0045,4.3e-4 -0.009,5.5e-4 -0.01344,0.002 v 5.2e-4 c -0.06594,0.0181 -0.107461,0.0835 -0.0956,0.15089 l 0.892452,5.29839 c 0.07195,0.42716 0.02016,0.755 -0.128674,0.98805 -0.148838,0.23305 -0.398115,0.3878 -0.777214,0.45165 -0.611039,0.10292 -1.076916,-0.2017 -1.189075,-0.75602 -0.01459,-0.0689 -0.08079,-0.11424 -0.150378,-0.10335 l -0.912606,0.15347 c -0.07243,0.012 -0.121403,0.0806 -0.109037,0.15297 0.199226,1.1828 1.271848,1.8737 2.550749,1.65829 0.704273,-0.11862 1.248652,-0.43291 1.578198,-0.9095 0.329547,-0.4766 0.439631,-1.10505 0.31781,-1.82831 l -0.893486,-5.30407 c -0.01202,-0.0724 -0.08058,-0.1214 -0.152962,-0.10904 z m -5.167126,0.87023 -0.917257,0.15451 c -0.0045,4.3e-4 -0.009,10e-4 -0.01344,0.002 -0.06594,0.0181 -0.10694,0.0835 -0.09508,0.1509 l 1.238684,7.35355 c 0.01296,0.0715 0.08082,0.11921 0.152445,0.10697 l 0.91674,-0.15451 c 0.07168,-0.0119 0.120216,-0.0791 0.109037,-0.1509 l -1.238167,-7.35355 c -0.01203,-0.0724 -0.08059,-0.1214 -0.152962,-0.10904 z m 4.212146,8.32094 -4.107243,0.79272 0.189136,0.98237 4.107759,-0.79479 z"
         style="color:#000000;font-style:normal;font-variant:normal;font-weight:normal;font-stretch:normal;font-size:10.58333302px;line-height:1.25;font-family:'SF UI Display';-inkscape-font-specification:'SF UI Display';font-variant-ligatures:normal;font-variant-position:normal;font-variant-caps:normal;font-variant-numeric:normal;font-variant-alternates:normal;font-feature-settings:normal;text-indent:0;text-align:center;text-decoration:none;text-decoration-line:none;text-decoration-style:solid;text-decoration-color:#000000;letter-spacing:0px;word-spacing:0px;text-transform:none;writing-mode:lr-tb;direction:ltr;text-orientation:mixed;dominant-baseline:auto;baseline-shift:baseline;text-anchor:middle;white-space:normal;shape-padding:0;clip-rule:nonzero;display:inline;overflow:visible;visibility:visible;opacity:1;isolation:auto;mix-blend-mode:normal;color-interpolation:sRGB;color-interpolation-filters:linearRGB;solid-color:#000000;solid-opacity:1;vector-effect:none;fill:none;fill-opacity:1;fill-rule:nonzero;stroke:#130a01;stroke-width:1.10000002;stroke-linecap:round;stroke-linejoin:round;stroke-miterlimit:4;stroke-dasharray:none;stroke-dashoffset:0;stroke-opacity:0.01176471;color-rendering:auto;image-rendering:auto;shape-rendering:auto;text-rendering:auto;enable-background:accumulate"
         inkscape:connector-curvature="0" />
      <path
         inkscape:connector-curvature="0"
         style="color:#000000;font-style:normal;font-variant:normal;font-weight:normal;font-stretch:normal;font-size:10.58333302px;line-height:1.25;font-family:'SF UI Display';-inkscape-font-specification:'SF UI Display';font-variant-ligatures:normal;font-variant-position:normal;font-variant-caps:normal;font-variant-numeric:normal;font-variant-alternates:normal;font-feature-settings:normal;text-indent:0;text-align:center;text-decoration:none;text-decoration-line:none;text-decoration-style:solid;text-decoration-color:#000000;letter-spacing:0px;word-spacing:0px;text-transform:none;writing-mode:lr-tb;direction:ltr;text-orientation:mixed;dominant-baseline:auto;baseline-shift:baseline;text-anchor:middle;white-space:normal;shape-padding:0;clip-rule:nonzero;display:inline;overflow:visible;visibility:visible;opacity:1;isolation:auto;mix-blend-mode:normal;color-interpolation:sRGB;color-interpolation-filters:linearRGB;solid-color:#000000;solid-opacity:1;vector-effect:none;fill:none;fill-opacity:1;fill-rule:nonzero;stroke:#130a01;stroke-width:1.29999995;stroke-linecap:round;stroke-linejoin:round;stroke-miterlimit:4;stroke-dasharray:none;stroke-dashoffset:0;stroke-opacity:0.01176471;color-rendering:auto;image-rendering:auto;shape-rendering:auto;text-rendering:auto;enable-background:accumulate"
         d="m 45.934147,270.6109 -0.91674,0.15451 c -0.0045,4.3e-4 -0.009,5.5e-4 -0.01344,0.002 v 5.2e-4 c -0.06594,0.0181 -0.107461,0.0835 -0.0956,0.15089 l 0.892452,5.29839 c 0.07195,0.42716 0.02016,0.755 -0.128674,0.98805 -0.148838,0.23305 -0.398115,0.3878 -0.777214,0.45165 -0.611039,0.10292 -1.076916,-0.2017 -1.189075,-0.75602 -0.01459,-0.0689 -0.08079,-0.11424 -0.150378,-0.10335 l -0.912606,0.15347 c -0.07243,0.012 -0.121403,0.0806 -0.109037,0.15297 0.199226,1.1828 1.271848,1.8737 2.550749,1.65829 0.704273,-0.11862 1.248652,-0.43291 1.578198,-0.9095 0.329547,-0.4766 0.439631,-1.10505 0.31781,-1.82831 l -0.893486,-5.30407 c -0.01202,-0.0724 -0.08058,-0.1214 -0.152962,-0.10904 z m -5.167126,0.87023 -0.917257,0.15451 c -0.0045,4.3e-4 -0.009,10e-4 -0.01344,0.002 -0.06594,0.0181 -0.10694,0.0835 -0.09508,0.1509 l 1.238684,7.35355 c 0.01296,0.0715 0.08082,0.11921 0.152445,0.10697 l 0.91674,-0.15451 c 0.07168,-0.0119 0.120216,-0.0791 0.109037,-0.1509 l -1.238167,-7.35355 c -0.01203,-0.0724 -0.08059,-0.1214 -0.152962,-0.10904 z m 4.212146,8.32094 -4.107243,0.79272 0.189136,0.98237 4.107759,-0.79479 z"
         id="path4557" />
      <path
         id="path4559"
         d="m 45.934147,270.6109 -0.91674,0.15451 c -0.0045,4.3e-4 -0.009,5.5e-4 -0.01344,0.002 v 5.2e-4 c -0.06594,0.0181 -0.107461,0.0835 -0.0956,0.15089 l 0.892452,5.29839 c 0.07195,0.42716 0.02016,0.755 -0.128674,0.98805 -0.148838,0.23305 -0.398115,0.3878 -0.777214,0.45165 -0.611039,0.10292 -1.076916,-0.2017 -1.189075,-0.75602 -0.01459,-0.0689 -0.08079,-0.11424 -0.150378,-0.10335 l -0.912606,0.15347 c -0.07243,0.012 -0.121403,0.0806 -0.109037,0.15297 0.199226,1.1828 1.271848,1.8737 2.550749,1.65829 0.704273,-0.11862 1.248652,-0.43291 1.578198,-0.9095 0.329547,-0.4766 0.439631,-1.10505 0.31781,-1.82831 l -0.893486,-5.30407 c -0.01202,-0.0724 -0.08058,-0.1214 -0.152962,-0.10904 z m -5.167126,0.87023 -0.917257,0.15451 c -0.0045,4.3e-4 -0.009,10e-4 -0.01344,0.002 -0.06594,0.0181 -0.10694,0.0835 -0.09508,0.1509 l 1.238684,7.35355 c 0.01296,0.0715 0.08082,0.11921 0.152445,0.10697 l 0.91674,-0.15451 c 0.07168,-0.0119 0.120216,-0.0791 0.109037,-0.1509 l -1.238167,-7.35355 c -0.01203,-0.0724 -0.08059,-0.1214 -0.152962,-0.10904 z m 4.212146,8.32094 -4.107243,0.79272 0.189136,0.98237 4.107759,-0.79479 z"
         style="color:#000000;font-style:normal;font-variant:normal;font-weight:normal;font-stretch:normal;font-size:10.58333302px;line-height:1.25;font-family:'SF UI Display';-inkscape-font-specification:'SF UI Display';font-variant-ligatures:normal;font-variant-position:normal;font-variant-caps:normal;font-variant-numeric:normal;font-variant-alternates:normal;font-feature-settings:normal;text-indent:0;text-align:center;text-decoration:none;text-decoration-line:none;text-decoration-style:solid;text-decoration-color:#000000;letter-spacing:0px;word-spacing:0px;text-transform:none;writing-mode:lr-tb;direction:ltr;text-orientation:mixed;dominant-baseline:auto;baseline-shift:baseline;text-anchor:middle;white-space:normal;shape-padding:0;clip-rule:nonzero;display:inline;overflow:visible;visibility:visible;opacity:1;isolation:auto;mix-blend-mode:normal;color-interpolation:sRGB;color-interpolation-filters:linearRGB;solid-color:#000000;solid-opacity:1;vector-effect:none;fill:none;fill-opacity:1;fill-rule:nonzero;stroke:#130a01;stroke-width:1.5;stroke-linecap:round;stroke-linejoin:round;stroke-miterlimit:4;stroke-dasharray:none;stroke-dashoffset:0;stroke-opacity:0.01176471;color-rendering:auto;image-rendering:auto;shape-rendering:auto;text-rendering:auto;enable-background:accumulate"
         inkscape:connector-curvature="0" />
      <path
         inkscape:connector-curvature="0"
         style="color:#000000;font-style:normal;font-variant:normal;font-weight:normal;font-stretch:normal;font-size:10.58333302px;line-height:1.25;font-family:'SF UI Display';-inkscape-font-specification:'SF UI Display';font-variant-ligatures:normal;font-variant-position:normal;font-variant-caps:normal;font-variant-numeric:normal;font-variant-alternates:normal;font-feature-settings:normal;text-indent:0;text-align:center;text-decoration:none;text-decoration-line:none;text-decoration-style:solid;text-decoration-color:#000000;letter-spacing:0px;word-spacing:0px;text-transform:none;writing-mode:lr-tb;direction:ltr;text-orientation:mixed;dominant-baseline:auto;baseline-shift:baseline;text-anchor:middle;white-space:normal;shape-padding:0;clip-rule:nonzero;display:inline;overflow:visible;visibility:visible;opacity:1;isolation:auto;mix-blend-mode:normal;color-interpolation:sRGB;color-interpolation-filters:linearRGB;solid-color:#000000;solid-opacity:1;vector-effect:none;fill:none;fill-opacity:1;fill-rule:nonzero;stroke:#130a01;stroke-width:1.70000005;stroke-linecap:round;stroke-linejoin:round;stroke-miterlimit:4;stroke-dasharray:none;stroke-dashoffset:0;stroke-opacity:0.01176471;color-rendering:auto;image-rendering:auto;shape-rendering:auto;text-rendering:auto;enable-background:accumulate"
         d="m 45.934147,270.6109 -0.91674,0.15451 c -0.0045,4.3e-4 -0.009,5.5e-4 -0.01344,0.002 v 5.2e-4 c -0.06594,0.0181 -0.107461,0.0835 -0.0956,0.15089 l 0.892452,5.29839 c 0.07195,0.42716 0.02016,0.755 -0.128674,0.98805 -0.148838,0.23305 -0.398115,0.3878 -0.777214,0.45165 -0.611039,0.10292 -1.076916,-0.2017 -1.189075,-0.75602 -0.01459,-0.0689 -0.08079,-0.11424 -0.150378,-0.10335 l -0.912606,0.15347 c -0.07243,0.012 -0.121403,0.0806 -0.109037,0.15297 0.199226,1.1828 1.271848,1.8737 2.550749,1.65829 0.704273,-0.11862 1.248652,-0.43291 1.578198,-0.9095 0.329547,-0.4766 0.439631,-1.10505 0.31781,-1.82831 l -0.893486,-5.30407 c -0.01202,-0.0724 -0.08058,-0.1214 -0.152962,-0.10904 z m -5.167126,0.87023 -0.917257,0.15451 c -0.0045,4.3e-4 -0.009,10e-4 -0.01344,0.002 -0.06594,0.0181 -0.10694,0.0835 -0.09508,0.1509 l 1.238684,7.35355 c 0.01296,0.0715 0.08082,0.11921 0.152445,0.10697 l 0.91674,-0.15451 c 0.07168,-0.0119 0.120216,-0.0791 0.109037,-0.1509 l -1.238167,-7.35355 c -0.01203,-0.0724 -0.08059,-0.1214 -0.152962,-0.10904 z m 4.212146,8.32094 -4.107243,0.79272 0.189136,0.98237 4.107759,-0.79479 z"
         id="path4561" />
      <path
         id="path4563"
         d="m 45.934147,270.6109 -0.91674,0.15451 c -0.0045,4.3e-4 -0.009,5.5e-4 -0.01344,0.002 v 5.2e-4 c -0.06594,0.0181 -0.107461,0.0835 -0.0956,0.15089 l 0.892452,5.29839 c 0.07195,0.42716 0.02016,0.755 -0.128674,0.98805 -0.148838,0.23305 -0.398115,0.3878 -0.777214,0.45165 -0.611039,0.10292 -1.076916,-0.2017 -1.189075,-0.75602 -0.01459,-0.0689 -0.08079,-0.11424 -0.150378,-0.10335 l -0.912606,0.15347 c -0.07243,0.012 -0.121403,0.0806 -0.109037,0.15297 0.199226,1.1828 1.271848,1.8737 2.550749,1.65829 0.704273,-0.11862 1.248652,-0.43291 1.578198,-0.9095 0.329547,-0.4766 0.439631,-1.10505 0.31781,-1.82831 l -0.893486,-5.30407 c -0.01202,-0.0724 -0.08058,-0.1214 -0.152962,-0.10904 z m -5.167126,0.87023 -0.917257,0.15451 c -0.0045,4.3e-4 -0.009,10e-4 -0.01344,0.002 -0.06594,0.0181 -0.10694,0.0835 -0.09508,0.1509 l 1.238684,7.35355 c 0.01296,0.0715 0.08082,0.11921 0.152445,0.10697 l 0.91674,-0.15451 c 0.07168,-0.0119 0.120216,-0.0791 0.109037,-0.1509 l -1.238167,-7.35355 c -0.01203,-0.0724 -0.08059,-0.1214 -0.152962,-0.10904 z m 4.212146,8.32094 -4.107243,0.79272 0.189136,0.98237 4.107759,-0.79479 z"
         style="color:#000000;font-style:normal;font-variant:normal;font-weight:normal;font-stretch:normal;font-size:10.58333302px;line-height:1.25;font-family:'SF UI Display';-inkscape-font-specification:'SF UI Display';font-variant-ligatures:normal;font-variant-position:normal;font-variant-caps:normal;font-variant-numeric:normal;font-variant-alternates:normal;font-feature-settings:normal;text-indent:0;text-align:center;text-decoration:none;text-decoration-line:none;text-decoration-style:solid;text-decoration-color:#000000;letter-spacing:0px;word-spacing:0px;text-transform:none;writing-mode:lr-tb;direction:ltr;text-orientation:mixed;dominant-baseline:auto;baseline-shift:baseline;text-anchor:middle;white-space:normal;shape-padding:0;clip-rule:nonzero;display:inline;overflow:visible;visibility:visible;opacity:1;isolation:auto;mix-blend-mode:normal;color-interpolation:sRGB;color-interpolation-filters:linearRGB;solid-color:#000000;solid-opacity:1;vector-effect:none;fill:none;fill-opacity:1;fill-rule:nonzero;stroke:#130a01;stroke-width:1.89999998;stroke-linecap:round;stroke-linejoin:round;stroke-miterlimit:4;stroke-dasharray:none;stroke-dashoffset:0;stroke-opacity:0.01176471;color-rendering:auto;image-rendering:auto;shape-rendering:auto;text-rendering:auto;enable-background:accumulate"
         inkscape:connector-curvature="0" />
      <path
         inkscape:connector-curvature="0"
         style="color:#000000;font-style:normal;font-variant:normal;font-weight:normal;font-stretch:normal;font-size:10.58333302px;line-height:1.25;font-family:'SF UI Display';-inkscape-font-specification:'SF UI Display';font-variant-ligatures:normal;font-variant-position:normal;font-variant-caps:normal;font-variant-numeric:normal;font-variant-alternates:normal;font-feature-settings:normal;text-indent:0;text-align:center;text-decoration:none;text-decoration-line:none;text-decoration-style:solid;text-decoration-color:#000000;letter-spacing:0px;word-spacing:0px;text-transform:none;writing-mode:lr-tb;direction:ltr;text-orientation:mixed;dominant-baseline:auto;baseline-shift:baseline;text-anchor:middle;white-space:normal;shape-padding:0;clip-rule:nonzero;display:inline;overflow:visible;visibility:visible;opacity:1;isolation:auto;mix-blend-mode:normal;color-interpolation:sRGB;color-interpolation-filters:linearRGB;solid-color:#000000;solid-opacity:1;vector-effect:none;fill:none;fill-opacity:1;fill-rule:nonzero;stroke:#130a01;stroke-width:2;stroke-linecap:round;stroke-linejoin:round;stroke-miterlimit:4;stroke-dasharray:none;stroke-dashoffset:0;stroke-opacity:0.01176471;color-rendering:auto;image-rendering:auto;shape-rendering:auto;text-rendering:auto;enable-background:accumulate"
         d="m 45.934147,270.6109 -0.91674,0.15451 c -0.0045,4.3e-4 -0.009,5.5e-4 -0.01344,0.002 v 5.2e-4 c -0.06594,0.0181 -0.107461,0.0835 -0.0956,0.15089 l 0.892452,5.29839 c 0.07195,0.42716 0.02016,0.755 -0.128674,0.98805 -0.148838,0.23305 -0.398115,0.3878 -0.777214,0.45165 -0.611039,0.10292 -1.076916,-0.2017 -1.189075,-0.75602 -0.01459,-0.0689 -0.08079,-0.11424 -0.150378,-0.10335 l -0.912606,0.15347 c -0.07243,0.012 -0.121403,0.0806 -0.109037,0.15297 0.199226,1.1828 1.271848,1.8737 2.550749,1.65829 0.704273,-0.11862 1.248652,-0.43291 1.578198,-0.9095 0.329547,-0.4766 0.439631,-1.10505 0.31781,-1.82831 l -0.893486,-5.30407 c -0.01202,-0.0724 -0.08058,-0.1214 -0.152962,-0.10904 z m -5.167126,0.87023 -0.917257,0.15451 c -0.0045,4.3e-4 -0.009,10e-4 -0.01344,0.002 -0.06594,0.0181 -0.10694,0.0835 -0.09508,0.1509 l 1.238684,7.35355 c 0.01296,0.0715 0.08082,0.11921 0.152445,0.10697 l 0.91674,-0.15451 c 0.07168,-0.0119 0.120216,-0.0791 0.109037,-0.1509 l -1.238167,-7.35355 c -0.01203,-0.0724 -0.08059,-0.1214 -0.152962,-0.10904 z m 4.212146,8.32094 -4.107243,0.79272 0.189136,0.98237 4.107759,-0.79479 z"
         id="path4565" />
      <path
         id="path4567"
         d="m 45.934147,270.6109 -0.91674,0.15451 c -0.0045,4.3e-4 -0.009,5.5e-4 -0.01344,0.002 v 5.2e-4 c -0.06594,0.0181 -0.107461,0.0835 -0.0956,0.15089 l 0.892452,5.29839 c 0.07195,0.42716 0.02016,0.755 -0.128674,0.98805 -0.148838,0.23305 -0.398115,0.3878 -0.777214,0.45165 -0.611039,0.10292 -1.076916,-0.2017 -1.189075,-0.75602 -0.01459,-0.0689 -0.08079,-0.11424 -0.150378,-0.10335 l -0.912606,0.15347 c -0.07243,0.012 -0.121403,0.0806 -0.109037,0.15297 0.199226,1.1828 1.271848,1.8737 2.550749,1.65829 0.704273,-0.11862 1.248652,-0.43291 1.578198,-0.9095 0.329547,-0.4766 0.439631,-1.10505 0.31781,-1.82831 l -0.893486,-5.30407 c -0.01202,-0.0724 -0.08058,-0.1214 -0.152962,-0.10904 z m -5.167126,0.87023 -0.917257,0.15451 c -0.0045,4.3e-4 -0.009,10e-4 -0.01344,0.002 -0.06594,0.0181 -0.10694,0.0835 -0.09508,0.1509 l 1.238684,7.35355 c 0.01296,0.0715 0.08082,0.11921 0.152445,0.10697 l 0.91674,-0.15451 c 0.07168,-0.0119 0.120216,-0.0791 0.109037,-0.1509 l -1.238167,-7.35355 c -0.01203,-0.0724 -0.08059,-0.1214 -0.152962,-0.10904 z m 4.212146,8.32094 -4.107243,0.79272 0.189136,0.98237 4.107759,-0.79479 z"
         style="color:#000000;font-style:normal;font-variant:normal;font-weight:normal;font-stretch:normal;font-size:10.58333302px;line-height:1.25;font-family:'SF UI Display';-inkscape-font-specification:'SF UI Display';font-variant-ligatures:normal;font-variant-position:normal;font-variant-caps:normal;font-variant-numeric:normal;font-variant-alternates:normal;font-feature-settings:normal;text-indent:0;text-align:center;text-decoration:none;text-decoration-line:none;text-decoration-style:solid;text-decoration-color:#000000;letter-spacing:0px;word-spacing:0px;text-transform:none;writing-mode:lr-tb;direction:ltr;text-orientation:mixed;dominant-baseline:auto;baseline-shift:baseline;text-anchor:middle;white-space:normal;shape-padding:0;clip-rule:nonzero;display:inline;overflow:visible;visibility:visible;opacity:1;isolation:auto;mix-blend-mode:normal;color-interpolation:sRGB;color-interpolation-filters:linearRGB;solid-color:#000000;solid-opacity:1;vector-effect:none;fill:none;fill-opacity:1;fill-rule:nonzero;stroke:#130a01;stroke-width:2.20000005;stroke-linecap:round;stroke-linejoin:round;stroke-miterlimit:4;stroke-dasharray:none;stroke-dashoffset:0;stroke-opacity:0.01176471;color-rendering:auto;image-rendering:auto;shape-rendering:auto;text-rendering:auto;enable-background:accumulate"
         inkscape:connector-curvature="0" />
      <path
         inkscape:connector-curvature="0"
         style="color:#000000;font-style:normal;font-variant:normal;font-weight:normal;font-stretch:normal;font-size:10.58333302px;line-height:1.25;font-family:'SF UI Display';-inkscape-font-specification:'SF UI Display';font-variant-ligatures:normal;font-variant-position:normal;font-variant-caps:normal;font-variant-numeric:normal;font-variant-alternates:normal;font-feature-settings:normal;text-indent:0;text-align:center;text-decoration:none;text-decoration-line:none;text-decoration-style:solid;text-decoration-color:#000000;letter-spacing:0px;word-spacing:0px;text-transform:none;writing-mode:lr-tb;direction:ltr;text-orientation:mixed;dominant-baseline:auto;baseline-shift:baseline;text-anchor:middle;white-space:normal;shape-padding:0;clip-rule:nonzero;display:inline;overflow:visible;visibility:visible;opacity:1;isolation:auto;mix-blend-mode:normal;color-interpolation:sRGB;color-interpolation-filters:linearRGB;solid-color:#000000;solid-opacity:1;vector-effect:none;fill:none;fill-opacity:1;fill-rule:nonzero;stroke:#130a01;stroke-width:2.4000001;stroke-linecap:round;stroke-linejoin:round;stroke-miterlimit:4;stroke-dasharray:none;stroke-dashoffset:0;stroke-opacity:0.01176471;color-rendering:auto;image-rendering:auto;shape-rendering:auto;text-rendering:auto;enable-background:accumulate"
         d="m 45.934147,270.6109 -0.91674,0.15451 c -0.0045,4.3e-4 -0.009,5.5e-4 -0.01344,0.002 v 5.2e-4 c -0.06594,0.0181 -0.107461,0.0835 -0.0956,0.15089 l 0.892452,5.29839 c 0.07195,0.42716 0.02016,0.755 -0.128674,0.98805 -0.148838,0.23305 -0.398115,0.3878 -0.777214,0.45165 -0.611039,0.10292 -1.076916,-0.2017 -1.189075,-0.75602 -0.01459,-0.0689 -0.08079,-0.11424 -0.150378,-0.10335 l -0.912606,0.15347 c -0.07243,0.012 -0.121403,0.0806 -0.109037,0.15297 0.199226,1.1828 1.271848,1.8737 2.550749,1.65829 0.704273,-0.11862 1.248652,-0.43291 1.578198,-0.9095 0.329547,-0.4766 0.439631,-1.10505 0.31781,-1.82831 l -0.893486,-5.30407 c -0.01202,-0.0724 -0.08058,-0.1214 -0.152962,-0.10904 z m -5.167126,0.87023 -0.917257,0.15451 c -0.0045,4.3e-4 -0.009,10e-4 -0.01344,0.002 -0.06594,0.0181 -0.10694,0.0835 -0.09508,0.1509 l 1.238684,7.35355 c 0.01296,0.0715 0.08082,0.11921 0.152445,0.10697 l 0.91674,-0.15451 c 0.07168,-0.0119 0.120216,-0.0791 0.109037,-0.1509 l -1.238167,-7.35355 c -0.01203,-0.0724 -0.08059,-0.1214 -0.152962,-0.10904 z m 4.212146,8.32094 -4.107243,0.79272 0.189136,0.98237 4.107759,-0.79479 z"
         id="path4569" />
      <path
         id="path4571"
         d="m 45.934147,270.6109 -0.91674,0.15451 c -0.0045,4.3e-4 -0.009,5.5e-4 -0.01344,0.002 v 5.2e-4 c -0.06594,0.0181 -0.107461,0.0835 -0.0956,0.15089 l 0.892452,5.29839 c 0.07195,0.42716 0.02016,0.755 -0.128674,0.98805 -0.148838,0.23305 -0.398115,0.3878 -0.777214,0.45165 -0.611039,0.10292 -1.076916,-0.2017 -1.189075,-0.75602 -0.01459,-0.0689 -0.08079,-0.11424 -0.150378,-0.10335 l -0.912606,0.15347 c -0.07243,0.012 -0.121403,0.0806 -0.109037,0.15297 0.199226,1.1828 1.271848,1.8737 2.550749,1.65829 0.704273,-0.11862 1.248652,-0.43291 1.578198,-0.9095 0.329547,-0.4766 0.439631,-1.10505 0.31781,-1.82831 l -0.893486,-5.30407 c -0.01202,-0.0724 -0.08058,-0.1214 -0.152962,-0.10904 z m -5.167126,0.87023 -0.917257,0.15451 c -0.0045,4.3e-4 -0.009,10e-4 -0.01344,0.002 -0.06594,0.0181 -0.10694,0.0835 -0.09508,0.1509 l 1.238684,7.35355 c 0.01296,0.0715 0.08082,0.11921 0.152445,0.10697 l 0.91674,-0.15451 c 0.07168,-0.0119 0.120216,-0.0791 0.109037,-0.1509 l -1.238167,-7.35355 c -0.01203,-0.0724 -0.08059,-0.1214 -0.152962,-0.10904 z m 4.212146,8.32094 -4.107243,0.79272 0.189136,0.98237 4.107759,-0.79479 z"
         style="color:#000000;font-style:normal;font-variant:normal;font-weight:normal;font-stretch:normal;font-size:10.58333302px;line-height:1.25;font-family:'SF UI Display';-inkscape-font-specification:'SF UI Display';font-variant-ligatures:normal;font-variant-position:normal;font-variant-caps:normal;font-variant-numeric:normal;font-variant-alternates:normal;font-feature-settings:normal;text-indent:0;text-align:center;text-decoration:none;text-decoration-line:none;text-decoration-style:solid;text-decoration-color:#000000;letter-spacing:0px;word-spacing:0px;text-transform:none;writing-mode:lr-tb;direction:ltr;text-orientation:mixed;dominant-baseline:auto;baseline-shift:baseline;text-anchor:middle;white-space:normal;shape-padding:0;clip-rule:nonzero;display:inline;overflow:visible;visibility:visible;opacity:1;isolation:auto;mix-blend-mode:normal;color-interpolation:sRGB;color-interpolation-filters:linearRGB;solid-color:#000000;solid-opacity:1;vector-effect:none;fill:none;fill-opacity:1;fill-rule:nonzero;stroke:#130a01;stroke-width:2.5999999;stroke-linecap:round;stroke-linejoin:round;stroke-miterlimit:4;stroke-dasharray:none;stroke-dashoffset:0;stroke-opacity:0.01176471;color-rendering:auto;image-rendering:auto;shape-rendering:auto;text-rendering:auto;enable-background:accumulate"
         inkscape:connector-curvature="0" />
      <path
         inkscape:connector-curvature="0"
         style="color:#000000;font-style:normal;font-variant:normal;font-weight:normal;font-stretch:normal;font-size:10.58333302px;line-height:1.25;font-family:'SF UI Display';-inkscape-font-specification:'SF UI Display';font-variant-ligatures:normal;font-variant-position:normal;font-variant-caps:normal;font-variant-numeric:normal;font-variant-alternates:normal;font-feature-settings:normal;text-indent:0;text-align:center;text-decoration:none;text-decoration-line:none;text-decoration-style:solid;text-decoration-color:#000000;letter-spacing:0px;word-spacing:0px;text-transform:none;writing-mode:lr-tb;direction:ltr;text-orientation:mixed;dominant-baseline:auto;baseline-shift:baseline;text-anchor:middle;white-space:normal;shape-padding:0;clip-rule:nonzero;display:inline;overflow:visible;visibility:visible;opacity:1;isolation:auto;mix-blend-mode:normal;color-interpolation:sRGB;color-interpolation-filters:linearRGB;solid-color:#000000;solid-opacity:1;vector-effect:none;fill:none;fill-opacity:1;fill-rule:nonzero;stroke:#130a01;stroke-width:2.79999995;stroke-linecap:round;stroke-linejoin:round;stroke-miterlimit:4;stroke-dasharray:none;stroke-dashoffset:0;stroke-opacity:0.01176471;color-rendering:auto;image-rendering:auto;shape-rendering:auto;text-rendering:auto;enable-background:accumulate"
         d="m 45.934147,270.6109 -0.91674,0.15451 c -0.0045,4.3e-4 -0.009,5.5e-4 -0.01344,0.002 v 5.2e-4 c -0.06594,0.0181 -0.107461,0.0835 -0.0956,0.15089 l 0.892452,5.29839 c 0.07195,0.42716 0.02016,0.755 -0.128674,0.98805 -0.148838,0.23305 -0.398115,0.3878 -0.777214,0.45165 -0.611039,0.10292 -1.076916,-0.2017 -1.189075,-0.75602 -0.01459,-0.0689 -0.08079,-0.11424 -0.150378,-0.10335 l -0.912606,0.15347 c -0.07243,0.012 -0.121403,0.0806 -0.109037,0.15297 0.199226,1.1828 1.271848,1.8737 2.550749,1.65829 0.704273,-0.11862 1.248652,-0.43291 1.578198,-0.9095 0.329547,-0.4766 0.439631,-1.10505 0.31781,-1.82831 l -0.893486,-5.30407 c -0.01202,-0.0724 -0.08058,-0.1214 -0.152962,-0.10904 z m -5.167126,0.87023 -0.917257,0.15451 c -0.0045,4.3e-4 -0.009,10e-4 -0.01344,0.002 -0.06594,0.0181 -0.10694,0.0835 -0.09508,0.1509 l 1.238684,7.35355 c 0.01296,0.0715 0.08082,0.11921 0.152445,0.10697 l 0.91674,-0.15451 c 0.07168,-0.0119 0.120216,-0.0791 0.109037,-0.1509 l -1.238167,-7.35355 c -0.01203,-0.0724 -0.08059,-0.1214 -0.152962,-0.10904 z m 4.212146,8.32094 -4.107243,0.79272 0.189136,0.98237 4.107759,-0.79479 z"
         id="path4573" />
      <path
         id="path4575"
         d="m 45.934147,270.6109 -0.91674,0.15451 c -0.0045,4.3e-4 -0.009,5.5e-4 -0.01344,0.002 v 5.2e-4 c -0.06594,0.0181 -0.107461,0.0835 -0.0956,0.15089 l 0.892452,5.29839 c 0.07195,0.42716 0.02016,0.755 -0.128674,0.98805 -0.148838,0.23305 -0.398115,0.3878 -0.777214,0.45165 -0.611039,0.10292 -1.076916,-0.2017 -1.189075,-0.75602 -0.01459,-0.0689 -0.08079,-0.11424 -0.150378,-0.10335 l -0.912606,0.15347 c -0.07243,0.012 -0.121403,0.0806 -0.109037,0.15297 0.199226,1.1828 1.271848,1.8737 2.550749,1.65829 0.704273,-0.11862 1.248652,-0.43291 1.578198,-0.9095 0.329547,-0.4766 0.439631,-1.10505 0.31781,-1.82831 l -0.893486,-5.30407 c -0.01202,-0.0724 -0.08058,-0.1214 -0.152962,-0.10904 z m -5.167126,0.87023 -0.917257,0.15451 c -0.0045,4.3e-4 -0.009,10e-4 -0.01344,0.002 -0.06594,0.0181 -0.10694,0.0835 -0.09508,0.1509 l 1.238684,7.35355 c 0.01296,0.0715 0.08082,0.11921 0.152445,0.10697 l 0.91674,-0.15451 c 0.07168,-0.0119 0.120216,-0.0791 0.109037,-0.1509 l -1.238167,-7.35355 c -0.01203,-0.0724 -0.08059,-0.1214 -0.152962,-0.10904 z m 4.212146,8.32094 -4.107243,0.79272 0.189136,0.98237 4.107759,-0.79479 z"
         style="color:#000000;font-style:normal;font-variant:normal;font-weight:normal;font-stretch:normal;font-size:10.58333302px;line-height:1.25;font-family:'SF UI Display';-inkscape-font-specification:'SF UI Display';font-variant-ligatures:normal;font-variant-position:normal;font-variant-caps:normal;font-variant-numeric:normal;font-variant-alternates:normal;font-feature-settings:normal;text-indent:0;text-align:center;text-decoration:none;text-decoration-line:none;text-decoration-style:solid;text-decoration-color:#000000;letter-spacing:0px;word-spacing:0px;text-transform:none;writing-mode:lr-tb;direction:ltr;text-orientation:mixed;dominant-baseline:auto;baseline-shift:baseline;text-anchor:middle;white-space:normal;shape-padding:0;clip-rule:nonzero;display:inline;overflow:visible;visibility:visible;opacity:1;isolation:auto;mix-blend-mode:normal;color-interpolation:sRGB;color-interpolation-filters:linearRGB;solid-color:#000000;solid-opacity:1;vector-effect:none;fill:none;fill-opacity:1;fill-rule:nonzero;stroke:#130a01;stroke-width:3;stroke-linecap:round;stroke-linejoin:round;stroke-miterlimit:4;stroke-dasharray:none;stroke-dashoffset:0;stroke-opacity:0.01176471;color-rendering:auto;image-rendering:auto;shape-rendering:auto;text-rendering:auto;enable-background:accumulate"
         inkscape:connector-curvature="0" />
    </g>
  </g>
</svg>
