<?xml version="1.0" encoding="UTF-8" standalone="no"?>
<svg
   xmlns:dc="http://purl.org/dc/elements/1.1/"
   xmlns:cc="http://creativecommons.org/ns#"
   xmlns:rdf="http://www.w3.org/1999/02/22-rdf-syntax-ns#"
   xmlns:svg="http://www.w3.org/2000/svg"
   xmlns="http://www.w3.org/2000/svg"
   xmlns:sodipodi="http://sodipodi.sourceforge.net/DTD/sodipodi-0.dtd"
   xmlns:inkscape="http://www.inkscape.org/namespaces/inkscape"
   height="128"
   viewBox="0 0 128 128"
   width="128"
   version="1.1"
   id="svg41"
   sodipodi:docname="mc.svg"
   inkscape:version="0.92.4 5da689c313, 2019-01-14">
  <metadata
     id="metadata47">
    <rdf:RDF>
      <cc:Work
         rdf:about="">
        <dc:format>image/svg+xml</dc:format>
        <dc:type
           rdf:resource="http://purl.org/dc/dcmitype/StillImage" />
        <dc:title />
      </cc:Work>
    </rdf:RDF>
  </metadata>
  <defs
     id="defs45">
    <linearGradient
       gradientTransform="matrix(0.88250857,0,0,0.88250857,-21.682654,-9.5350672)"
       id="a-1"
       gradientUnits="userSpaceOnUse"
       x1="61.882671"
       x2="61.115643"
       y1="143.58107"
       y2="36.19672">
      <stop
         offset="0"
         stop-color="#1f76f4"
         id="stop2-8"
         style="stop-color:#f46592;stop-opacity:1" />
      <stop
         offset="1"
         stop-color="#1acffc"
         id="stop4-0"
         style="stop-color:#fcaead;stop-opacity:1" />
    </linearGradient>
  </defs>
  <sodipodi:namedview
     pagecolor="#ffffff"
     bordercolor="#666666"
     borderopacity="1"
     objecttolerance="10"
     gridtolerance="10"
     guidetolerance="10"
     inkscape:pageopacity="0"
     inkscape:pageshadow="2"
     inkscape:window-width="1920"
     inkscape:window-height="1031"
     id="namedview43"
     showgrid="false"
     inkscape:zoom="3.6875"
     inkscape:cx="-13.42772"
     inkscape:cy="79.637929"
     inkscape:window-x="0"
     inkscape:window-y="26"
     inkscape:window-maximized="1"
     inkscape:current-layer="svg41" />
  <linearGradient
     id="a"
     gradientUnits="userSpaceOnUse"
     x1="61.882671"
     x2="61.115642"
     y1="143.58107"
     y2="36.196721">
    <stop
       offset="0"
       stop-color="#1f76f4"
       id="stop2"
       style="stop-color:#f46592;stop-opacity:1" />
    <stop
       offset="1"
       stop-color="#1acffc"
       id="stop4"
       style="stop-color:#fcaead;stop-opacity:1" />
  </linearGradient>
  <linearGradient
     id="b"
     gradientUnits="userSpaceOnUse"
     x1="142.420878"
     x2="142.420888"
     y1="143.005788"
     y2="33.320352">
    <stop
       offset="0"
       stop-color="#dce8f4"
       id="stop7"
       style="stop-color:#dcdcf4;stop-opacity:1" />
    <stop
       offset="1"
       stop-color="#f6f7f7"
       id="stop9"
       style="stop-color:#faf6fb;stop-opacity:1" />
  </linearGradient>
  <filter
     id="c"
     color-interpolation-filters="sRGB"
     height="1.036826"
     width="1.059862"
     x="-.029931"
     y="-.018413">
    <feGaussianBlur
       stdDeviation=".99453124"
       id="feGaussianBlur12" />
  </filter>
  <linearGradient
     id="d"
     gradientUnits="userSpaceOnUse"
     x1="87.093113"
     x2="88.830343"
     y1="21.047862"
     y2="174.454075">
    <stop
       offset="0"
       stop-color="#fff"
       stop-opacity=".508982"
       id="stop15" />
    <stop
       offset="1"
       stop-color="#fff"
       stop-opacity="0"
       id="stop17" />
  </linearGradient>
  <filter
     id="e"
     color-interpolation-filters="sRGB"
     height="1.034594"
     width="1.032661"
     x="-.016331"
     y="-.017297">
    <feGaussianBlur
       stdDeviation=".9356259"
       id="feGaussianBlur20" />
  </filter>
  <rect
     style="fill-opacity:0.54491003;filter:url(#e)"
     id="rect23"
     y="-4.0396242"
     x="-0.43619099"
     width="137.50168"
     ry="8.8339052"
     height="129.82001"
     transform="matrix(0.88250857,0,0,0.88250857,3.711837,13.891398)" />
  <path
     inkscape:connector-curvature="0"
     style="fill:url(#a-1);stroke-width:0.88250858"
     d="M 10.929706,10.055217 H 116.52791 c 4.3126,0 7.78449,3.471879 7.78449,7.784482 v 98.829081 c 0,4.31261 -3.47189,7.78448 -7.78449,7.78448 H 10.929706 c -4.3126002,0 -7.7844802,-3.47187 -7.7844802,-7.78448 V 17.839699 c 0,-4.312603 3.47188,-7.784482 7.7844802,-7.784482 z"
     id="rect25" />
  <g
     id="g37"
     transform="matrix(0.88250857,0,0,0.88250857,-21.929413,-9.27687)">
    <path
       style="opacity:0.60799997;filter:url(#c)"
       inkscape:connector-curvature="0"
       id="path27"
       d="m 98.590143,24.145194 c -12.84836,20.933329 -13.86974,43.822916 -14.11719,61.615231 0.0414,2.85275 -0.12683,3.30331 2.43164,3.3711 l 14.644527,0.0684 c 2.12939,0.0258 2.11941,0.83836 2.03516,2.81054 -0.89711,21.116025 1.45223,38.714725 4.75195,58.090585 h 48.27539 c 2.74282,0 5.18342,-1.23986 6.79883,-3.19141 0.51356,-1.12063 0.80859,-2.36396 0.80859,-3.68164 V 32.967459 c 0,-4.886755 -3.93355,-8.822265 -8.82031,-8.822265 z" />
    <path
       inkscape:connector-curvature="0"
       style="fill:url(#b)"
       id="path29"
       d="m 99.803033,22.197928 c -12.84836,20.933329 -13.86974,43.822923 -14.11719,61.615237 0.0414,2.85275 -0.12683,3.3033 2.43164,3.37109 l 14.644527,0.06836 c 2.12939,0.0258 2.11941,0.83837 2.03516,2.81055 -0.92716,21.823305 1.60204,41.733115 5.07617,61.763665 h 46.73828 c 4.88676,0 8.82031,-3.93356 8.82031,-8.82031 V 31.020194 c 0,-4.886755 -3.93355,-8.822266 -8.82031,-8.822266 z" />
    <g
       style="stroke-linecap:round"
       id="g35">
      <rect
         style="fill:none;stroke:url(#d);stroke-width:1.5"
         id="rect31"
         y="23.647799"
         x="29.548759"
         width="134.46767"
         ry="8.820857"
         height="126.72947" />
      <path
         style="fill:#1b1b1b;stroke:#ffffff;stroke-width:0.015;stroke-opacity:0.50898198"
         inkscape:connector-curvature="0"
         id="path33"
         d="m 66.482594,53.576498 c -1.84041,0 -3.32227,1.481859 -3.32227,3.322265 v 9.085938 c 0,1.840407 1.48186,3.322265 3.32227,3.322265 1.8404,0 3.32226,-1.481858 3.32226,-3.322265 v -9.085938 c 0,-1.840406 -1.48186,-3.322265 -3.32226,-3.322265 z m 61.554676,0 c -1.8404,0 -3.32226,1.481859 -3.32226,3.322265 v 9.085938 c 0,1.840407 1.48186,3.322265 3.32226,3.322265 1.84041,0 3.32227,-1.481858 3.32227,-3.322265 v -9.085938 c 0,-1.840406 -1.48186,-3.322265 -3.32227,-3.322265 z M 56.982594,103.24836 a 2.50025,2.50025 0 0 0 -1.75391,4.17969 c 11.30272,12.80145 27.80926,17.9421 43.634767,17.375 15.825499,-0.56711 31.136099,-6.74012 40.451169,-17.17188 a 2.5002919,2.5002919 0 1 0 -3.73047,-3.33008 c -8.13343,9.10847 -22.27402,14.9818 -36.898439,15.50586 -14.624417,0.52406 -29.566877,-4.20056 -39.708977,-15.6875 a 2.50025,2.50025 0 0 0 -1.99414,-0.87109 z" />
    </g>
  </g>
</svg>
