<?xml version="1.0" encoding="UTF-8" standalone="no"?>
<!-- Created with Inkscape (http://www.inkscape.org/) -->

<svg
   xmlns:dc="http://purl.org/dc/elements/1.1/"
   xmlns:cc="http://creativecommons.org/ns#"
   xmlns:rdf="http://www.w3.org/1999/02/22-rdf-syntax-ns#"
   xmlns:svg="http://www.w3.org/2000/svg"
   xmlns="http://www.w3.org/2000/svg"
   xmlns:xlink="http://www.w3.org/1999/xlink"
   xmlns:sodipodi="http://sodipodi.sourceforge.net/DTD/sodipodi-0.dtd"
   xmlns:inkscape="http://www.inkscape.org/namespaces/inkscape"
   version="1.1"
   id="svg2"
   width="128"
   height="128"
   viewBox="0 0 128 128"
   sodipodi:docname="kronometer.svg"
   inkscape:version="0.92.1 r15371">
  <metadata
     id="metadata8">
    <rdf:RDF>
      <cc:Work
         rdf:about="">
        <dc:format>image/svg+xml</dc:format>
        <dc:type
           rdf:resource="http://purl.org/dc/dcmitype/StillImage" />
        <dc:title></dc:title>
      </cc:Work>
    </rdf:RDF>
  </metadata>
  <defs
     id="defs6">
    <linearGradient
       inkscape:collect="always"
       id="linearGradient833">
      <stop
         style="stop-color:#24b1df;stop-opacity:1"
         offset="0"
         id="stop829" />
      <stop
         style="stop-color:#8fe0ad;stop-opacity:1"
         offset="1"
         id="stop831" />
    </linearGradient>
    <linearGradient
       inkscape:collect="always"
       id="linearGradient823">
      <stop
         style="stop-color:#20a0c6;stop-opacity:1"
         offset="0"
         id="stop819" />
      <stop
         style="stop-color:#a9e7c0;stop-opacity:1"
         offset="1"
         id="stop821" />
    </linearGradient>
    <linearGradient
       inkscape:collect="always"
       xlink:href="#linearGradient823"
       id="linearGradient825"
       x1="-741.83197"
       y1="959.04749"
       x2="-741.83197"
       y2="93.836403"
       gradientUnits="userSpaceOnUse"
       gradientTransform="matrix(0.13667801,0,0,0.13667801,162.31231,-5.989337)" />
    <linearGradient
       inkscape:collect="always"
       xlink:href="#linearGradient833"
       id="linearGradient835"
       x1="-738.76385"
       y1="931.43433"
       x2="-738.76385"
       y2="152.13077"
       gradientUnits="userSpaceOnUse"
       gradientTransform="matrix(0.13667801,0,0,0.13667801,162.31231,-5.989337)" />
    <linearGradient
       x1="76.523361"
       y1="-9.023138"
       x2="76.523361"
       y2="3.4508991"
       id="linearGradient3149"
       xlink:href="#linearGradient4113"
       gradientUnits="userSpaceOnUse"
       gradientTransform="matrix(0.89553576,0,0,-0.89663265,6.6836208,69.705837)" />
    <linearGradient
       id="linearGradient4113">
      <stop
         id="stop4115"
         style="stop-color:#000000;stop-opacity:1"
         offset="0" />
      <stop
         id="stop4117"
         style="stop-color:#000000;stop-opacity:0"
         offset="1" />
    </linearGradient>
    <linearGradient
       x1="23.99999"
       y1="4.999989"
       x2="23.99999"
       y2="43"
       id="linearGradient3159"
       xlink:href="#linearGradient3924-776"
       gradientUnits="userSpaceOnUse"
       gradientTransform="matrix(2.7297298,0,0,2.7297298,-544.90791,-119.49824)" />
    <linearGradient
       id="linearGradient3924-776">
      <stop
         id="stop3124"
         style="stop-color:#ffffff;stop-opacity:1"
         offset="0" />
      <stop
         id="stop3126"
         style="stop-color:#ffffff;stop-opacity:0.23529412"
         offset="0.06316455" />
      <stop
         id="stop3128"
         style="stop-color:#ffffff;stop-opacity:0.15686275"
         offset="0.95056331" />
      <stop
         id="stop3130"
         style="stop-color:#ffffff;stop-opacity:0.39215687"
         offset="1" />
    </linearGradient>
    <radialGradient
       cx="6.7304144"
       cy="9.9571075"
       r="12.671875"
       fx="6.2001843"
       fy="9.9571075"
       id="radialGradient3395"
       xlink:href="#linearGradient2867-449-88-871-390-598-476-591-434-148-57-177-8-3-3-6-4-8-8-8-5"
       gradientUnits="userSpaceOnUse"
       gradientTransform="matrix(0,25.083279,-30.794253,0,372.81658,-208.0918)" />
    <linearGradient
       id="linearGradient2867-449-88-871-390-598-476-591-434-148-57-177-8-3-3-6-4-8-8-8-5">
      <stop
         id="stop3750-1-0-7-6-6-1-3-9-3"
         style="stop-color:#919caf;stop-opacity:1"
         offset="0" />
      <stop
         id="stop3752-3-7-4-0-32-8-923-0-7"
         style="stop-color:#68758e;stop-opacity:1"
         offset="0.26238" />
      <stop
         id="stop3754-1-8-5-2-7-6-7-1-9"
         style="stop-color:#485a6c;stop-opacity:1"
         offset="0.704952" />
      <stop
         id="stop3756-1-6-2-6-6-1-96-6-0"
         style="stop-color:#444c5c;stop-opacity:1"
         offset="1" />
    </linearGradient>
    <radialGradient
       cx="4.9929786"
       cy="43.5"
       r="2.5"
       fx="4.9929786"
       fy="43.5"
       id="radialGradient2455-1"
       xlink:href="#linearGradient3688-166-749-5"
       gradientUnits="userSpaceOnUse"
       gradientTransform="matrix(2.003784,0,0,1.4,27.98813,-17.4)" />
    <linearGradient
       id="linearGradient3688-166-749-5">
      <stop
         id="stop2883-0"
         style="stop-color:#181818;stop-opacity:1"
         offset="0" />
      <stop
         id="stop2885-5"
         style="stop-color:#181818;stop-opacity:0"
         offset="1" />
    </linearGradient>
    <radialGradient
       cx="4.9929786"
       cy="43.5"
       r="2.5"
       fx="4.9929786"
       fy="43.5"
       id="radialGradient2457-5"
       xlink:href="#linearGradient3688-166-749-5"
       gradientUnits="userSpaceOnUse"
       gradientTransform="matrix(2.003784,0,0,1.4,-20.01187,-104.4)" />
    <linearGradient
       x1="25.058096"
       y1="47.027729"
       x2="25.058096"
       y2="39.999443"
       id="linearGradient2459-7"
       xlink:href="#linearGradient3702-501-757-0"
       gradientUnits="userSpaceOnUse" />
    <linearGradient
       id="linearGradient3702-501-757-0">
      <stop
         id="stop2895-0"
         style="stop-color:#181818;stop-opacity:0"
         offset="0" />
      <stop
         id="stop2897-2"
         style="stop-color:#181818;stop-opacity:1"
         offset="0.5" />
      <stop
         id="stop2899-6"
         style="stop-color:#181818;stop-opacity:0"
         offset="1" />
    </linearGradient>
    <radialGradient
       cx="-4.0287771"
       cy="93.467628"
       r="35.338131"
       fx="-4.0287771"
       fy="93.467628"
       id="radialGradient4377"
       xlink:href="#linearGradient4113"
       gradientUnits="userSpaceOnUse"
       gradientTransform="matrix(1.5563924,0,0,0.16978827,70.270358,102.13029)" />
    <filter
       id="filter3907"
       inkscape:label="Colorize"
       style="color-interpolation-filters:sRGB;">
      <feComposite
         id="feComposite3909"
         result="composite1"
         k2="1"
         k1="0"
         operator="arithmetic"
         in2="SourceGraphic" />
      <feColorMatrix
         id="feColorMatrix3911"
         result="colormatrix1"
         type="saturate"
         values="1"
         in="composite1" />
      <feFlood
         id="feFlood3913"
         result="flood1"
         flood-color="rgb(23,141,46)"
         flood-opacity="0.854902" />
      <feBlend
         id="feBlend3915"
         result="blend1"
         mode="multiply"
         in2="colormatrix1"
         in="flood1" />
      <feBlend
         id="feBlend3917"
         result="blend2"
         mode="screen"
         in2="blend1" />
      <feColorMatrix
         id="feColorMatrix3919"
         result="colormatrix2"
         type="saturate"
         values="1"
         in="blend2" />
      <feComposite
         id="feComposite3921"
         result="composite2"
         k2="1"
         operator="in"
         in2="SourceGraphic"
         in="colormatrix2" />
    </filter>
    <radialGradient
       cx="6.7304144"
       cy="9.9571075"
       r="12.671875"
       fx="6.2001843"
       fy="9.9571075"
       id="radialGradient3395-6"
       xlink:href="#linearGradient2867-449-88-871-390-598-476-591-434-148-57-177-8-3-3-6-4-8-8-8-5-2"
       gradientUnits="userSpaceOnUse"
       gradientTransform="matrix(0,25.083279,-30.794253,0,-170.57782,-329.07655)" />
    <linearGradient
       id="linearGradient2867-449-88-871-390-598-476-591-434-148-57-177-8-3-3-6-4-8-8-8-5-2">
      <stop
         id="stop3750-1-0-7-6-6-1-3-9-3-9"
         style="stop-color:#95a3ab;stop-opacity:1"
         offset="0" />
      <stop
         id="stop3752-3-7-4-0-32-8-923-0-7-1"
         style="stop-color:#8a715e;stop-opacity:1"
         offset="0.26238" />
      <stop
         id="stop3754-1-8-5-2-7-6-7-1-9-2"
         style="stop-color:#715344;stop-opacity:1"
         offset="0.704952" />
      <stop
         id="stop3756-1-6-2-6-6-1-96-6-0-7"
         style="stop-color:#273445;stop-opacity:1"
         offset="1" />
    </linearGradient>
    <radialGradient
       cx="4.9929786"
       cy="43.5"
       r="2.5"
       fx="4.9929786"
       fy="43.5"
       id="radialGradient2455-1-0"
       xlink:href="#linearGradient3688-166-749-5"
       gradientUnits="userSpaceOnUse"
       gradientTransform="matrix(2.003784,0,0,1.4,27.98813,-17.4)" />
    <radialGradient
       cx="4.9929786"
       cy="43.5"
       r="2.5"
       fx="4.9929786"
       fy="43.5"
       id="radialGradient2457-5-6"
       xlink:href="#linearGradient3688-166-749-5"
       gradientUnits="userSpaceOnUse"
       gradientTransform="matrix(2.003784,0,0,1.4,-20.01187,-104.4)" />
    <radialGradient
       cx="-4.0287771"
       cy="93.467628"
       r="35.338131"
       fx="-4.0287771"
       fy="93.467628"
       id="radialGradient4377-6"
       xlink:href="#linearGradient4113"
       gradientUnits="userSpaceOnUse"
       gradientTransform="matrix(1.5563924,0,0,0.16978827,-473.12404,-18.85446)" />
  </defs>
  <sodipodi:namedview
     pagecolor="#ffffff"
     bordercolor="#666666"
     borderopacity="1"
     objecttolerance="10"
     gridtolerance="10"
     guidetolerance="10"
     inkscape:pageopacity="0"
     inkscape:pageshadow="2"
     inkscape:window-width="1920"
     inkscape:window-height="1040"
     id="namedview4"
     showgrid="false"
     inkscape:zoom="4.4549078"
     inkscape:cx="63.384695"
     inkscape:cy="18.370419"
     inkscape:window-x="0"
     inkscape:window-y="0"
     inkscape:window-maximized="1"
     inkscape:current-layer="svg2" />
  <circle
     style="opacity:1;fill:url(#linearGradient825);fill-opacity:1;stroke:none;stroke-width:0.78699166;stroke-linecap:round;stroke-linejoin:round;stroke-miterlimit:4;stroke-dasharray:none;stroke-opacity:1"
     id="path817"
     cx="63.591888"
     cy="64.286316"
     r="61.380009" />
  <circle
     r="55.089832"
     cy="64.286316"
     cx="63.591888"
     id="circle827"
     style="opacity:1;fill:url(#linearGradient835);fill-opacity:1;stroke:none;stroke-width:0.70634133;stroke-linecap:round;stroke-linejoin:round;stroke-miterlimit:4;stroke-dasharray:none;stroke-opacity:1" />
  <g
     id="g4649"
     transform="translate(176.41714)"
     style="opacity:0.724">
    <path
       inkscape:connector-curvature="0"
       id="path4577"
       d="m -118.33275,97.047371 c -10.55643,-2.247233 -19.10021,-10.473893 -21.51441,-20.715844 -3.34751,-14.201394 4.81023,-28.729481 18.58764,-33.102691 4.75389,-1.508971 12.12993,-1.508971 16.88382,0 16.410818,5.209102 24.166239,24.294687 16.119217,39.668332 -2.265676,4.328518 -7.646217,9.591979 -11.955097,11.694949 -3.38402,1.65159 -10.1547,3.363214 -12.97782,3.280774 -0.80663,-0.0236 -3.12113,-0.39503 -5.14335,-0.82552 z m 27.737764,-27.732326 c 0.597159,-0.597159 0.661077,-1.308508 0.294977,-3.282822 -1.954671,-10.541304 -8.382581,-17.063119 -18.766671,-19.040825 -1.91398,-0.364529 -2.45191,-0.273577 -3.28008,0.554587 -0.92811,0.928109 -0.96921,1.6455 -0.65123,11.367081 0.21554,6.589897 0.54997,10.517272 0.91645,10.762346 0.31738,0.212253 5.11016,0.389517 10.65063,0.393939 8.111982,0.0066 10.222022,-0.1404 10.835924,-0.754306 z m -1.51223,-22.914885 c -0.543245,-0.600282 -2.363739,-1.940748 -4.045535,-2.978815 -2.278549,-1.406398 -3.018044,-2.15198 -2.901757,-2.92563 0.353158,-2.349505 1.643997,-2.200478 5.978876,0.690253 5.385661,3.591448 5.184004,3.351315 4.145454,4.936339 -1.083911,1.654253 -1.86925,1.722937 -3.177038,0.277853 z m -26.488154,-9.094034 c 0,-0.901881 -0.37037,-1.349145 -1.31313,-1.585763 -1.08285,-0.271779 -1.31313,-0.646969 -1.31313,-2.139467 0,-1.251816 0.31327,-1.977551 1.01597,-2.353623 1.3214,-0.707196 13.4547,-0.707196 14.7761,0 0.7027,0.376072 1.01597,1.101807 1.01597,2.353623 0,1.492498 -0.23027,1.867688 -1.31313,2.139467 -0.94276,0.236626 -1.31312,0.683882 -1.31312,1.585763 0,1.248615 -0.0348,1.256186 -5.77777,1.256186 -5.74294,0 -5.77776,-0.0077 -5.77776,-1.256186 z"
       style="fill:none;fill-opacity:1;stroke:#000000;stroke-width:0.1;stroke-miterlimit:4;stroke-dasharray:none;stroke-opacity:0.01176471" />
    <path
       style="fill:none;fill-opacity:1;stroke:#000000;stroke-width:0.2;stroke-miterlimit:4;stroke-dasharray:none;stroke-opacity:0.01176471"
       d="m -118.33275,97.047371 c -10.55643,-2.247233 -19.10021,-10.473893 -21.51441,-20.715844 -3.34751,-14.201394 4.81023,-28.729481 18.58764,-33.102691 4.75389,-1.508971 12.12993,-1.508971 16.88382,0 16.410818,5.209102 24.166239,24.294687 16.119217,39.668332 -2.265676,4.328518 -7.646217,9.591979 -11.955097,11.694949 -3.38402,1.65159 -10.1547,3.363214 -12.97782,3.280774 -0.80663,-0.0236 -3.12113,-0.39503 -5.14335,-0.82552 z m 27.737764,-27.732326 c 0.597159,-0.597159 0.661077,-1.308508 0.294977,-3.282822 -1.954671,-10.541304 -8.382581,-17.063119 -18.766671,-19.040825 -1.91398,-0.364529 -2.45191,-0.273577 -3.28008,0.554587 -0.92811,0.928109 -0.96921,1.6455 -0.65123,11.367081 0.21554,6.589897 0.54997,10.517272 0.91645,10.762346 0.31738,0.212253 5.11016,0.389517 10.65063,0.393939 8.111982,0.0066 10.222022,-0.1404 10.835924,-0.754306 z m -1.51223,-22.914885 c -0.543245,-0.600282 -2.363739,-1.940748 -4.045535,-2.978815 -2.278549,-1.406398 -3.018044,-2.15198 -2.901757,-2.92563 0.353158,-2.349505 1.643997,-2.200478 5.978876,0.690253 5.385661,3.591448 5.184004,3.351315 4.145454,4.936339 -1.083911,1.654253 -1.86925,1.722937 -3.177038,0.277853 z m -26.488154,-9.094034 c 0,-0.901881 -0.37037,-1.349145 -1.31313,-1.585763 -1.08285,-0.271779 -1.31313,-0.646969 -1.31313,-2.139467 0,-1.251816 0.31327,-1.977551 1.01597,-2.353623 1.3214,-0.707196 13.4547,-0.707196 14.7761,0 0.7027,0.376072 1.01597,1.101807 1.01597,2.353623 0,1.492498 -0.23027,1.867688 -1.31313,2.139467 -0.94276,0.236626 -1.31312,0.683882 -1.31312,1.585763 0,1.248615 -0.0348,1.256186 -5.77777,1.256186 -5.74294,0 -5.77776,-0.0077 -5.77776,-1.256186 z"
       id="path4579"
       inkscape:connector-curvature="0" />
    <path
       inkscape:connector-curvature="0"
       id="path4581"
       d="m -118.33275,97.047371 c -10.55643,-2.247233 -19.10021,-10.473893 -21.51441,-20.715844 -3.34751,-14.201394 4.81023,-28.729481 18.58764,-33.102691 4.75389,-1.508971 12.12993,-1.508971 16.88382,0 16.410818,5.209102 24.166239,24.294687 16.119217,39.668332 -2.265676,4.328518 -7.646217,9.591979 -11.955097,11.694949 -3.38402,1.65159 -10.1547,3.363214 -12.97782,3.280774 -0.80663,-0.0236 -3.12113,-0.39503 -5.14335,-0.82552 z m 27.737764,-27.732326 c 0.597159,-0.597159 0.661077,-1.308508 0.294977,-3.282822 -1.954671,-10.541304 -8.382581,-17.063119 -18.766671,-19.040825 -1.91398,-0.364529 -2.45191,-0.273577 -3.28008,0.554587 -0.92811,0.928109 -0.96921,1.6455 -0.65123,11.367081 0.21554,6.589897 0.54997,10.517272 0.91645,10.762346 0.31738,0.212253 5.11016,0.389517 10.65063,0.393939 8.111982,0.0066 10.222022,-0.1404 10.835924,-0.754306 z m -1.51223,-22.914885 c -0.543245,-0.600282 -2.363739,-1.940748 -4.045535,-2.978815 -2.278549,-1.406398 -3.018044,-2.15198 -2.901757,-2.92563 0.353158,-2.349505 1.643997,-2.200478 5.978876,0.690253 5.385661,3.591448 5.184004,3.351315 4.145454,4.936339 -1.083911,1.654253 -1.86925,1.722937 -3.177038,0.277853 z m -26.488154,-9.094034 c 0,-0.901881 -0.37037,-1.349145 -1.31313,-1.585763 -1.08285,-0.271779 -1.31313,-0.646969 -1.31313,-2.139467 0,-1.251816 0.31327,-1.977551 1.01597,-2.353623 1.3214,-0.707196 13.4547,-0.707196 14.7761,0 0.7027,0.376072 1.01597,1.101807 1.01597,2.353623 0,1.492498 -0.23027,1.867688 -1.31313,2.139467 -0.94276,0.236626 -1.31312,0.683882 -1.31312,1.585763 0,1.248615 -0.0348,1.256186 -5.77777,1.256186 -5.74294,0 -5.77776,-0.0077 -5.77776,-1.256186 z"
       style="fill:none;fill-opacity:1;stroke:#000000;stroke-width:0.30000001;stroke-miterlimit:4;stroke-dasharray:none;stroke-opacity:0.01176471" />
    <path
       style="fill:none;fill-opacity:1;stroke:#000000;stroke-width:0.40000001;stroke-miterlimit:4;stroke-dasharray:none;stroke-opacity:0.01176471"
       d="m -118.33275,97.047371 c -10.55643,-2.247233 -19.10021,-10.473893 -21.51441,-20.715844 -3.34751,-14.201394 4.81023,-28.729481 18.58764,-33.102691 4.75389,-1.508971 12.12993,-1.508971 16.88382,0 16.410818,5.209102 24.166239,24.294687 16.119217,39.668332 -2.265676,4.328518 -7.646217,9.591979 -11.955097,11.694949 -3.38402,1.65159 -10.1547,3.363214 -12.97782,3.280774 -0.80663,-0.0236 -3.12113,-0.39503 -5.14335,-0.82552 z m 27.737764,-27.732326 c 0.597159,-0.597159 0.661077,-1.308508 0.294977,-3.282822 -1.954671,-10.541304 -8.382581,-17.063119 -18.766671,-19.040825 -1.91398,-0.364529 -2.45191,-0.273577 -3.28008,0.554587 -0.92811,0.928109 -0.96921,1.6455 -0.65123,11.367081 0.21554,6.589897 0.54997,10.517272 0.91645,10.762346 0.31738,0.212253 5.11016,0.389517 10.65063,0.393939 8.111982,0.0066 10.222022,-0.1404 10.835924,-0.754306 z m -1.51223,-22.914885 c -0.543245,-0.600282 -2.363739,-1.940748 -4.045535,-2.978815 -2.278549,-1.406398 -3.018044,-2.15198 -2.901757,-2.92563 0.353158,-2.349505 1.643997,-2.200478 5.978876,0.690253 5.385661,3.591448 5.184004,3.351315 4.145454,4.936339 -1.083911,1.654253 -1.86925,1.722937 -3.177038,0.277853 z m -26.488154,-9.094034 c 0,-0.901881 -0.37037,-1.349145 -1.31313,-1.585763 -1.08285,-0.271779 -1.31313,-0.646969 -1.31313,-2.139467 0,-1.251816 0.31327,-1.977551 1.01597,-2.353623 1.3214,-0.707196 13.4547,-0.707196 14.7761,0 0.7027,0.376072 1.01597,1.101807 1.01597,2.353623 0,1.492498 -0.23027,1.867688 -1.31313,2.139467 -0.94276,0.236626 -1.31312,0.683882 -1.31312,1.585763 0,1.248615 -0.0348,1.256186 -5.77777,1.256186 -5.74294,0 -5.77776,-0.0077 -5.77776,-1.256186 z"
       id="path4583"
       inkscape:connector-curvature="0" />
    <path
       inkscape:connector-curvature="0"
       id="path4585"
       d="m -118.33275,97.047371 c -10.55643,-2.247233 -19.10021,-10.473893 -21.51441,-20.715844 -3.34751,-14.201394 4.81023,-28.729481 18.58764,-33.102691 4.75389,-1.508971 12.12993,-1.508971 16.88382,0 16.410818,5.209102 24.166239,24.294687 16.119217,39.668332 -2.265676,4.328518 -7.646217,9.591979 -11.955097,11.694949 -3.38402,1.65159 -10.1547,3.363214 -12.97782,3.280774 -0.80663,-0.0236 -3.12113,-0.39503 -5.14335,-0.82552 z m 27.737764,-27.732326 c 0.597159,-0.597159 0.661077,-1.308508 0.294977,-3.282822 -1.954671,-10.541304 -8.382581,-17.063119 -18.766671,-19.040825 -1.91398,-0.364529 -2.45191,-0.273577 -3.28008,0.554587 -0.92811,0.928109 -0.96921,1.6455 -0.65123,11.367081 0.21554,6.589897 0.54997,10.517272 0.91645,10.762346 0.31738,0.212253 5.11016,0.389517 10.65063,0.393939 8.111982,0.0066 10.222022,-0.1404 10.835924,-0.754306 z m -1.51223,-22.914885 c -0.543245,-0.600282 -2.363739,-1.940748 -4.045535,-2.978815 -2.278549,-1.406398 -3.018044,-2.15198 -2.901757,-2.92563 0.353158,-2.349505 1.643997,-2.200478 5.978876,0.690253 5.385661,3.591448 5.184004,3.351315 4.145454,4.936339 -1.083911,1.654253 -1.86925,1.722937 -3.177038,0.277853 z m -26.488154,-9.094034 c 0,-0.901881 -0.37037,-1.349145 -1.31313,-1.585763 -1.08285,-0.271779 -1.31313,-0.646969 -1.31313,-2.139467 0,-1.251816 0.31327,-1.977551 1.01597,-2.353623 1.3214,-0.707196 13.4547,-0.707196 14.7761,0 0.7027,0.376072 1.01597,1.101807 1.01597,2.353623 0,1.492498 -0.23027,1.867688 -1.31313,2.139467 -0.94276,0.236626 -1.31312,0.683882 -1.31312,1.585763 0,1.248615 -0.0348,1.256186 -5.77777,1.256186 -5.74294,0 -5.77776,-0.0077 -5.77776,-1.256186 z"
       style="fill:none;fill-opacity:1;stroke:#000000;stroke-width:0.5;stroke-miterlimit:4;stroke-dasharray:none;stroke-opacity:0.01176471" />
    <path
       style="fill:none;fill-opacity:1;stroke:#000000;stroke-width:0.60000002;stroke-miterlimit:4;stroke-dasharray:none;stroke-opacity:0.01176471"
       d="m -118.33275,97.047371 c -10.55643,-2.247233 -19.10021,-10.473893 -21.51441,-20.715844 -3.34751,-14.201394 4.81023,-28.729481 18.58764,-33.102691 4.75389,-1.508971 12.12993,-1.508971 16.88382,0 16.410818,5.209102 24.166239,24.294687 16.119217,39.668332 -2.265676,4.328518 -7.646217,9.591979 -11.955097,11.694949 -3.38402,1.65159 -10.1547,3.363214 -12.97782,3.280774 -0.80663,-0.0236 -3.12113,-0.39503 -5.14335,-0.82552 z m 27.737764,-27.732326 c 0.597159,-0.597159 0.661077,-1.308508 0.294977,-3.282822 -1.954671,-10.541304 -8.382581,-17.063119 -18.766671,-19.040825 -1.91398,-0.364529 -2.45191,-0.273577 -3.28008,0.554587 -0.92811,0.928109 -0.96921,1.6455 -0.65123,11.367081 0.21554,6.589897 0.54997,10.517272 0.91645,10.762346 0.31738,0.212253 5.11016,0.389517 10.65063,0.393939 8.111982,0.0066 10.222022,-0.1404 10.835924,-0.754306 z m -1.51223,-22.914885 c -0.543245,-0.600282 -2.363739,-1.940748 -4.045535,-2.978815 -2.278549,-1.406398 -3.018044,-2.15198 -2.901757,-2.92563 0.353158,-2.349505 1.643997,-2.200478 5.978876,0.690253 5.385661,3.591448 5.184004,3.351315 4.145454,4.936339 -1.083911,1.654253 -1.86925,1.722937 -3.177038,0.277853 z m -26.488154,-9.094034 c 0,-0.901881 -0.37037,-1.349145 -1.31313,-1.585763 -1.08285,-0.271779 -1.31313,-0.646969 -1.31313,-2.139467 0,-1.251816 0.31327,-1.977551 1.01597,-2.353623 1.3214,-0.707196 13.4547,-0.707196 14.7761,0 0.7027,0.376072 1.01597,1.101807 1.01597,2.353623 0,1.492498 -0.23027,1.867688 -1.31313,2.139467 -0.94276,0.236626 -1.31312,0.683882 -1.31312,1.585763 0,1.248615 -0.0348,1.256186 -5.77777,1.256186 -5.74294,0 -5.77776,-0.0077 -5.77776,-1.256186 z"
       id="path4587"
       inkscape:connector-curvature="0" />
    <path
       inkscape:connector-curvature="0"
       id="path4589"
       d="m -118.33275,97.047371 c -10.55643,-2.247233 -19.10021,-10.473893 -21.51441,-20.715844 -3.34751,-14.201394 4.81023,-28.729481 18.58764,-33.102691 4.75389,-1.508971 12.12993,-1.508971 16.88382,0 16.410818,5.209102 24.166239,24.294687 16.119217,39.668332 -2.265676,4.328518 -7.646217,9.591979 -11.955097,11.694949 -3.38402,1.65159 -10.1547,3.363214 -12.97782,3.280774 -0.80663,-0.0236 -3.12113,-0.39503 -5.14335,-0.82552 z m 27.737764,-27.732326 c 0.597159,-0.597159 0.661077,-1.308508 0.294977,-3.282822 -1.954671,-10.541304 -8.382581,-17.063119 -18.766671,-19.040825 -1.91398,-0.364529 -2.45191,-0.273577 -3.28008,0.554587 -0.92811,0.928109 -0.96921,1.6455 -0.65123,11.367081 0.21554,6.589897 0.54997,10.517272 0.91645,10.762346 0.31738,0.212253 5.11016,0.389517 10.65063,0.393939 8.111982,0.0066 10.222022,-0.1404 10.835924,-0.754306 z m -1.51223,-22.914885 c -0.543245,-0.600282 -2.363739,-1.940748 -4.045535,-2.978815 -2.278549,-1.406398 -3.018044,-2.15198 -2.901757,-2.92563 0.353158,-2.349505 1.643997,-2.200478 5.978876,0.690253 5.385661,3.591448 5.184004,3.351315 4.145454,4.936339 -1.083911,1.654253 -1.86925,1.722937 -3.177038,0.277853 z m -26.488154,-9.094034 c 0,-0.901881 -0.37037,-1.349145 -1.31313,-1.585763 -1.08285,-0.271779 -1.31313,-0.646969 -1.31313,-2.139467 0,-1.251816 0.31327,-1.977551 1.01597,-2.353623 1.3214,-0.707196 13.4547,-0.707196 14.7761,0 0.7027,0.376072 1.01597,1.101807 1.01597,2.353623 0,1.492498 -0.23027,1.867688 -1.31313,2.139467 -0.94276,0.236626 -1.31312,0.683882 -1.31312,1.585763 0,1.248615 -0.0348,1.256186 -5.77777,1.256186 -5.74294,0 -5.77776,-0.0077 -5.77776,-1.256186 z"
       style="fill:none;fill-opacity:1;stroke:#000000;stroke-width:0.69999999;stroke-miterlimit:4;stroke-dasharray:none;stroke-opacity:0.01176471" />
    <path
       style="fill:none;fill-opacity:1;stroke:#000000;stroke-width:0.80000001;stroke-miterlimit:4;stroke-dasharray:none;stroke-opacity:0.01176471"
       d="m -118.33275,97.047371 c -10.55643,-2.247233 -19.10021,-10.473893 -21.51441,-20.715844 -3.34751,-14.201394 4.81023,-28.729481 18.58764,-33.102691 4.75389,-1.508971 12.12993,-1.508971 16.88382,0 16.410818,5.209102 24.166239,24.294687 16.119217,39.668332 -2.265676,4.328518 -7.646217,9.591979 -11.955097,11.694949 -3.38402,1.65159 -10.1547,3.363214 -12.97782,3.280774 -0.80663,-0.0236 -3.12113,-0.39503 -5.14335,-0.82552 z m 27.737764,-27.732326 c 0.597159,-0.597159 0.661077,-1.308508 0.294977,-3.282822 -1.954671,-10.541304 -8.382581,-17.063119 -18.766671,-19.040825 -1.91398,-0.364529 -2.45191,-0.273577 -3.28008,0.554587 -0.92811,0.928109 -0.96921,1.6455 -0.65123,11.367081 0.21554,6.589897 0.54997,10.517272 0.91645,10.762346 0.31738,0.212253 5.11016,0.389517 10.65063,0.393939 8.111982,0.0066 10.222022,-0.1404 10.835924,-0.754306 z m -1.51223,-22.914885 c -0.543245,-0.600282 -2.363739,-1.940748 -4.045535,-2.978815 -2.278549,-1.406398 -3.018044,-2.15198 -2.901757,-2.92563 0.353158,-2.349505 1.643997,-2.200478 5.978876,0.690253 5.385661,3.591448 5.184004,3.351315 4.145454,4.936339 -1.083911,1.654253 -1.86925,1.722937 -3.177038,0.277853 z m -26.488154,-9.094034 c 0,-0.901881 -0.37037,-1.349145 -1.31313,-1.585763 -1.08285,-0.271779 -1.31313,-0.646969 -1.31313,-2.139467 0,-1.251816 0.31327,-1.977551 1.01597,-2.353623 1.3214,-0.707196 13.4547,-0.707196 14.7761,0 0.7027,0.376072 1.01597,1.101807 1.01597,2.353623 0,1.492498 -0.23027,1.867688 -1.31313,2.139467 -0.94276,0.236626 -1.31312,0.683882 -1.31312,1.585763 0,1.248615 -0.0348,1.256186 -5.77777,1.256186 -5.74294,0 -5.77776,-0.0077 -5.77776,-1.256186 z"
       id="path4591"
       inkscape:connector-curvature="0" />
    <path
       inkscape:connector-curvature="0"
       id="path4593"
       d="m -118.33275,97.047371 c -10.55643,-2.247233 -19.10021,-10.473893 -21.51441,-20.715844 -3.34751,-14.201394 4.81023,-28.729481 18.58764,-33.102691 4.75389,-1.508971 12.12993,-1.508971 16.88382,0 16.410818,5.209102 24.166239,24.294687 16.119217,39.668332 -2.265676,4.328518 -7.646217,9.591979 -11.955097,11.694949 -3.38402,1.65159 -10.1547,3.363214 -12.97782,3.280774 -0.80663,-0.0236 -3.12113,-0.39503 -5.14335,-0.82552 z m 27.737764,-27.732326 c 0.597159,-0.597159 0.661077,-1.308508 0.294977,-3.282822 -1.954671,-10.541304 -8.382581,-17.063119 -18.766671,-19.040825 -1.91398,-0.364529 -2.45191,-0.273577 -3.28008,0.554587 -0.92811,0.928109 -0.96921,1.6455 -0.65123,11.367081 0.21554,6.589897 0.54997,10.517272 0.91645,10.762346 0.31738,0.212253 5.11016,0.389517 10.65063,0.393939 8.111982,0.0066 10.222022,-0.1404 10.835924,-0.754306 z m -1.51223,-22.914885 c -0.543245,-0.600282 -2.363739,-1.940748 -4.045535,-2.978815 -2.278549,-1.406398 -3.018044,-2.15198 -2.901757,-2.92563 0.353158,-2.349505 1.643997,-2.200478 5.978876,0.690253 5.385661,3.591448 5.184004,3.351315 4.145454,4.936339 -1.083911,1.654253 -1.86925,1.722937 -3.177038,0.277853 z m -26.488154,-9.094034 c 0,-0.901881 -0.37037,-1.349145 -1.31313,-1.585763 -1.08285,-0.271779 -1.31313,-0.646969 -1.31313,-2.139467 0,-1.251816 0.31327,-1.977551 1.01597,-2.353623 1.3214,-0.707196 13.4547,-0.707196 14.7761,0 0.7027,0.376072 1.01597,1.101807 1.01597,2.353623 0,1.492498 -0.23027,1.867688 -1.31313,2.139467 -0.94276,0.236626 -1.31312,0.683882 -1.31312,1.585763 0,1.248615 -0.0348,1.256186 -5.77777,1.256186 -5.74294,0 -5.77776,-0.0077 -5.77776,-1.256186 z"
       style="fill:none;fill-opacity:1;stroke:#000000;stroke-width:0.89999998;stroke-miterlimit:4;stroke-dasharray:none;stroke-opacity:0.01176471" />
    <path
       style="fill:none;fill-opacity:1;stroke:#000000;stroke-width:1;stroke-miterlimit:4;stroke-dasharray:none;stroke-opacity:0.01176471"
       d="m -118.33275,97.047371 c -10.55643,-2.247233 -19.10021,-10.473893 -21.51441,-20.715844 -3.34751,-14.201394 4.81023,-28.729481 18.58764,-33.102691 4.75389,-1.508971 12.12993,-1.508971 16.88382,0 16.410818,5.209102 24.166239,24.294687 16.119217,39.668332 -2.265676,4.328518 -7.646217,9.591979 -11.955097,11.694949 -3.38402,1.65159 -10.1547,3.363214 -12.97782,3.280774 -0.80663,-0.0236 -3.12113,-0.39503 -5.14335,-0.82552 z m 27.737764,-27.732326 c 0.597159,-0.597159 0.661077,-1.308508 0.294977,-3.282822 -1.954671,-10.541304 -8.382581,-17.063119 -18.766671,-19.040825 -1.91398,-0.364529 -2.45191,-0.273577 -3.28008,0.554587 -0.92811,0.928109 -0.96921,1.6455 -0.65123,11.367081 0.21554,6.589897 0.54997,10.517272 0.91645,10.762346 0.31738,0.212253 5.11016,0.389517 10.65063,0.393939 8.111982,0.0066 10.222022,-0.1404 10.835924,-0.754306 z m -1.51223,-22.914885 c -0.543245,-0.600282 -2.363739,-1.940748 -4.045535,-2.978815 -2.278549,-1.406398 -3.018044,-2.15198 -2.901757,-2.92563 0.353158,-2.349505 1.643997,-2.200478 5.978876,0.690253 5.385661,3.591448 5.184004,3.351315 4.145454,4.936339 -1.083911,1.654253 -1.86925,1.722937 -3.177038,0.277853 z m -26.488154,-9.094034 c 0,-0.901881 -0.37037,-1.349145 -1.31313,-1.585763 -1.08285,-0.271779 -1.31313,-0.646969 -1.31313,-2.139467 0,-1.251816 0.31327,-1.977551 1.01597,-2.353623 1.3214,-0.707196 13.4547,-0.707196 14.7761,0 0.7027,0.376072 1.01597,1.101807 1.01597,2.353623 0,1.492498 -0.23027,1.867688 -1.31313,2.139467 -0.94276,0.236626 -1.31312,0.683882 -1.31312,1.585763 0,1.248615 -0.0348,1.256186 -5.77777,1.256186 -5.74294,0 -5.77776,-0.0077 -5.77776,-1.256186 z"
       id="path4595"
       inkscape:connector-curvature="0" />
    <path
       inkscape:connector-curvature="0"
       id="path4597"
       d="m -118.33275,97.047371 c -10.55643,-2.247233 -19.10021,-10.473893 -21.51441,-20.715844 -3.34751,-14.201394 4.81023,-28.729481 18.58764,-33.102691 4.75389,-1.508971 12.12993,-1.508971 16.88382,0 16.410818,5.209102 24.166239,24.294687 16.119217,39.668332 -2.265676,4.328518 -7.646217,9.591979 -11.955097,11.694949 -3.38402,1.65159 -10.1547,3.363214 -12.97782,3.280774 -0.80663,-0.0236 -3.12113,-0.39503 -5.14335,-0.82552 z m 27.737764,-27.732326 c 0.597159,-0.597159 0.661077,-1.308508 0.294977,-3.282822 -1.954671,-10.541304 -8.382581,-17.063119 -18.766671,-19.040825 -1.91398,-0.364529 -2.45191,-0.273577 -3.28008,0.554587 -0.92811,0.928109 -0.96921,1.6455 -0.65123,11.367081 0.21554,6.589897 0.54997,10.517272 0.91645,10.762346 0.31738,0.212253 5.11016,0.389517 10.65063,0.393939 8.111982,0.0066 10.222022,-0.1404 10.835924,-0.754306 z m -1.51223,-22.914885 c -0.543245,-0.600282 -2.363739,-1.940748 -4.045535,-2.978815 -2.278549,-1.406398 -3.018044,-2.15198 -2.901757,-2.92563 0.353158,-2.349505 1.643997,-2.200478 5.978876,0.690253 5.385661,3.591448 5.184004,3.351315 4.145454,4.936339 -1.083911,1.654253 -1.86925,1.722937 -3.177038,0.277853 z m -26.488154,-9.094034 c 0,-0.901881 -0.37037,-1.349145 -1.31313,-1.585763 -1.08285,-0.271779 -1.31313,-0.646969 -1.31313,-2.139467 0,-1.251816 0.31327,-1.977551 1.01597,-2.353623 1.3214,-0.707196 13.4547,-0.707196 14.7761,0 0.7027,0.376072 1.01597,1.101807 1.01597,2.353623 0,1.492498 -0.23027,1.867688 -1.31313,2.139467 -0.94276,0.236626 -1.31312,0.683882 -1.31312,1.585763 0,1.248615 -0.0348,1.256186 -5.77777,1.256186 -5.74294,0 -5.77776,-0.0077 -5.77776,-1.256186 z"
       style="fill:none;fill-opacity:1;stroke:#000000;stroke-width:1.10000002;stroke-miterlimit:4;stroke-dasharray:none;stroke-opacity:0.01176471" />
    <path
       style="fill:none;fill-opacity:1;stroke:#000000;stroke-width:1.20000005;stroke-miterlimit:4;stroke-dasharray:none;stroke-opacity:0.01176471"
       d="m -118.33275,97.047371 c -10.55643,-2.247233 -19.10021,-10.473893 -21.51441,-20.715844 -3.34751,-14.201394 4.81023,-28.729481 18.58764,-33.102691 4.75389,-1.508971 12.12993,-1.508971 16.88382,0 16.410818,5.209102 24.166239,24.294687 16.119217,39.668332 -2.265676,4.328518 -7.646217,9.591979 -11.955097,11.694949 -3.38402,1.65159 -10.1547,3.363214 -12.97782,3.280774 -0.80663,-0.0236 -3.12113,-0.39503 -5.14335,-0.82552 z m 27.737764,-27.732326 c 0.597159,-0.597159 0.661077,-1.308508 0.294977,-3.282822 -1.954671,-10.541304 -8.382581,-17.063119 -18.766671,-19.040825 -1.91398,-0.364529 -2.45191,-0.273577 -3.28008,0.554587 -0.92811,0.928109 -0.96921,1.6455 -0.65123,11.367081 0.21554,6.589897 0.54997,10.517272 0.91645,10.762346 0.31738,0.212253 5.11016,0.389517 10.65063,0.393939 8.111982,0.0066 10.222022,-0.1404 10.835924,-0.754306 z m -1.51223,-22.914885 c -0.543245,-0.600282 -2.363739,-1.940748 -4.045535,-2.978815 -2.278549,-1.406398 -3.018044,-2.15198 -2.901757,-2.92563 0.353158,-2.349505 1.643997,-2.200478 5.978876,0.690253 5.385661,3.591448 5.184004,3.351315 4.145454,4.936339 -1.083911,1.654253 -1.86925,1.722937 -3.177038,0.277853 z m -26.488154,-9.094034 c 0,-0.901881 -0.37037,-1.349145 -1.31313,-1.585763 -1.08285,-0.271779 -1.31313,-0.646969 -1.31313,-2.139467 0,-1.251816 0.31327,-1.977551 1.01597,-2.353623 1.3214,-0.707196 13.4547,-0.707196 14.7761,0 0.7027,0.376072 1.01597,1.101807 1.01597,2.353623 0,1.492498 -0.23027,1.867688 -1.31313,2.139467 -0.94276,0.236626 -1.31312,0.683882 -1.31312,1.585763 0,1.248615 -0.0348,1.256186 -5.77777,1.256186 -5.74294,0 -5.77776,-0.0077 -5.77776,-1.256186 z"
       id="path4599"
       inkscape:connector-curvature="0" />
    <path
       inkscape:connector-curvature="0"
       id="path4601"
       d="m -118.33275,97.047371 c -10.55643,-2.247233 -19.10021,-10.473893 -21.51441,-20.715844 -3.34751,-14.201394 4.81023,-28.729481 18.58764,-33.102691 4.75389,-1.508971 12.12993,-1.508971 16.88382,0 16.410818,5.209102 24.166239,24.294687 16.119217,39.668332 -2.265676,4.328518 -7.646217,9.591979 -11.955097,11.694949 -3.38402,1.65159 -10.1547,3.363214 -12.97782,3.280774 -0.80663,-0.0236 -3.12113,-0.39503 -5.14335,-0.82552 z m 27.737764,-27.732326 c 0.597159,-0.597159 0.661077,-1.308508 0.294977,-3.282822 -1.954671,-10.541304 -8.382581,-17.063119 -18.766671,-19.040825 -1.91398,-0.364529 -2.45191,-0.273577 -3.28008,0.554587 -0.92811,0.928109 -0.96921,1.6455 -0.65123,11.367081 0.21554,6.589897 0.54997,10.517272 0.91645,10.762346 0.31738,0.212253 5.11016,0.389517 10.65063,0.393939 8.111982,0.0066 10.222022,-0.1404 10.835924,-0.754306 z m -1.51223,-22.914885 c -0.543245,-0.600282 -2.363739,-1.940748 -4.045535,-2.978815 -2.278549,-1.406398 -3.018044,-2.15198 -2.901757,-2.92563 0.353158,-2.349505 1.643997,-2.200478 5.978876,0.690253 5.385661,3.591448 5.184004,3.351315 4.145454,4.936339 -1.083911,1.654253 -1.86925,1.722937 -3.177038,0.277853 z m -26.488154,-9.094034 c 0,-0.901881 -0.37037,-1.349145 -1.31313,-1.585763 -1.08285,-0.271779 -1.31313,-0.646969 -1.31313,-2.139467 0,-1.251816 0.31327,-1.977551 1.01597,-2.353623 1.3214,-0.707196 13.4547,-0.707196 14.7761,0 0.7027,0.376072 1.01597,1.101807 1.01597,2.353623 0,1.492498 -0.23027,1.867688 -1.31313,2.139467 -0.94276,0.236626 -1.31312,0.683882 -1.31312,1.585763 0,1.248615 -0.0348,1.256186 -5.77777,1.256186 -5.74294,0 -5.77776,-0.0077 -5.77776,-1.256186 z"
       style="fill:none;fill-opacity:1;stroke:#000000;stroke-width:1.39999998;stroke-miterlimit:4;stroke-dasharray:none;stroke-opacity:0.01176471" />
    <path
       style="fill:none;fill-opacity:1;stroke:#000000;stroke-width:1.60000002;stroke-miterlimit:4;stroke-dasharray:none;stroke-opacity:0.01176471"
       d="m -118.33275,97.047371 c -10.55643,-2.247233 -19.10021,-10.473893 -21.51441,-20.715844 -3.34751,-14.201394 4.81023,-28.729481 18.58764,-33.102691 4.75389,-1.508971 12.12993,-1.508971 16.88382,0 16.410818,5.209102 24.166239,24.294687 16.119217,39.668332 -2.265676,4.328518 -7.646217,9.591979 -11.955097,11.694949 -3.38402,1.65159 -10.1547,3.363214 -12.97782,3.280774 -0.80663,-0.0236 -3.12113,-0.39503 -5.14335,-0.82552 z m 27.737764,-27.732326 c 0.597159,-0.597159 0.661077,-1.308508 0.294977,-3.282822 -1.954671,-10.541304 -8.382581,-17.063119 -18.766671,-19.040825 -1.91398,-0.364529 -2.45191,-0.273577 -3.28008,0.554587 -0.92811,0.928109 -0.96921,1.6455 -0.65123,11.367081 0.21554,6.589897 0.54997,10.517272 0.91645,10.762346 0.31738,0.212253 5.11016,0.389517 10.65063,0.393939 8.111982,0.0066 10.222022,-0.1404 10.835924,-0.754306 z m -1.51223,-22.914885 c -0.543245,-0.600282 -2.363739,-1.940748 -4.045535,-2.978815 -2.278549,-1.406398 -3.018044,-2.15198 -2.901757,-2.92563 0.353158,-2.349505 1.643997,-2.200478 5.978876,0.690253 5.385661,3.591448 5.184004,3.351315 4.145454,4.936339 -1.083911,1.654253 -1.86925,1.722937 -3.177038,0.277853 z m -26.488154,-9.094034 c 0,-0.901881 -0.37037,-1.349145 -1.31313,-1.585763 -1.08285,-0.271779 -1.31313,-0.646969 -1.31313,-2.139467 0,-1.251816 0.31327,-1.977551 1.01597,-2.353623 1.3214,-0.707196 13.4547,-0.707196 14.7761,0 0.7027,0.376072 1.01597,1.101807 1.01597,2.353623 0,1.492498 -0.23027,1.867688 -1.31313,2.139467 -0.94276,0.236626 -1.31312,0.683882 -1.31312,1.585763 0,1.248615 -0.0348,1.256186 -5.77777,1.256186 -5.74294,0 -5.77776,-0.0077 -5.77776,-1.256186 z"
       id="path4603"
       inkscape:connector-curvature="0" />
    <path
       inkscape:connector-curvature="0"
       id="path4605"
       d="m -118.33275,97.047371 c -10.55643,-2.247233 -19.10021,-10.473893 -21.51441,-20.715844 -3.34751,-14.201394 4.81023,-28.729481 18.58764,-33.102691 4.75389,-1.508971 12.12993,-1.508971 16.88382,0 16.410818,5.209102 24.166239,24.294687 16.119217,39.668332 -2.265676,4.328518 -7.646217,9.591979 -11.955097,11.694949 -3.38402,1.65159 -10.1547,3.363214 -12.97782,3.280774 -0.80663,-0.0236 -3.12113,-0.39503 -5.14335,-0.82552 z m 27.737764,-27.732326 c 0.597159,-0.597159 0.661077,-1.308508 0.294977,-3.282822 -1.954671,-10.541304 -8.382581,-17.063119 -18.766671,-19.040825 -1.91398,-0.364529 -2.45191,-0.273577 -3.28008,0.554587 -0.92811,0.928109 -0.96921,1.6455 -0.65123,11.367081 0.21554,6.589897 0.54997,10.517272 0.91645,10.762346 0.31738,0.212253 5.11016,0.389517 10.65063,0.393939 8.111982,0.0066 10.222022,-0.1404 10.835924,-0.754306 z m -1.51223,-22.914885 c -0.543245,-0.600282 -2.363739,-1.940748 -4.045535,-2.978815 -2.278549,-1.406398 -3.018044,-2.15198 -2.901757,-2.92563 0.353158,-2.349505 1.643997,-2.200478 5.978876,0.690253 5.385661,3.591448 5.184004,3.351315 4.145454,4.936339 -1.083911,1.654253 -1.86925,1.722937 -3.177038,0.277853 z m -26.488154,-9.094034 c 0,-0.901881 -0.37037,-1.349145 -1.31313,-1.585763 -1.08285,-0.271779 -1.31313,-0.646969 -1.31313,-2.139467 0,-1.251816 0.31327,-1.977551 1.01597,-2.353623 1.3214,-0.707196 13.4547,-0.707196 14.7761,0 0.7027,0.376072 1.01597,1.101807 1.01597,2.353623 0,1.492498 -0.23027,1.867688 -1.31313,2.139467 -0.94276,0.236626 -1.31312,0.683882 -1.31312,1.585763 0,1.248615 -0.0348,1.256186 -5.77777,1.256186 -5.74294,0 -5.77776,-0.0077 -5.77776,-1.256186 z"
       style="fill:none;fill-opacity:1;stroke:#000000;stroke-width:1.79999995;stroke-miterlimit:4;stroke-dasharray:none;stroke-opacity:0.01176471" />
    <path
       style="fill:none;fill-opacity:1;stroke:#000000;stroke-width:2;stroke-miterlimit:4;stroke-dasharray:none;stroke-opacity:0.01176471"
       d="m -118.33275,97.047371 c -10.55643,-2.247233 -19.10021,-10.473893 -21.51441,-20.715844 -3.34751,-14.201394 4.81023,-28.729481 18.58764,-33.102691 4.75389,-1.508971 12.12993,-1.508971 16.88382,0 16.410818,5.209102 24.166239,24.294687 16.119217,39.668332 -2.265676,4.328518 -7.646217,9.591979 -11.955097,11.694949 -3.38402,1.65159 -10.1547,3.363214 -12.97782,3.280774 -0.80663,-0.0236 -3.12113,-0.39503 -5.14335,-0.82552 z m 27.737764,-27.732326 c 0.597159,-0.597159 0.661077,-1.308508 0.294977,-3.282822 -1.954671,-10.541304 -8.382581,-17.063119 -18.766671,-19.040825 -1.91398,-0.364529 -2.45191,-0.273577 -3.28008,0.554587 -0.92811,0.928109 -0.96921,1.6455 -0.65123,11.367081 0.21554,6.589897 0.54997,10.517272 0.91645,10.762346 0.31738,0.212253 5.11016,0.389517 10.65063,0.393939 8.111982,0.0066 10.222022,-0.1404 10.835924,-0.754306 z m -1.51223,-22.914885 c -0.543245,-0.600282 -2.363739,-1.940748 -4.045535,-2.978815 -2.278549,-1.406398 -3.018044,-2.15198 -2.901757,-2.92563 0.353158,-2.349505 1.643997,-2.200478 5.978876,0.690253 5.385661,3.591448 5.184004,3.351315 4.145454,4.936339 -1.083911,1.654253 -1.86925,1.722937 -3.177038,0.277853 z m -26.488154,-9.094034 c 0,-0.901881 -0.37037,-1.349145 -1.31313,-1.585763 -1.08285,-0.271779 -1.31313,-0.646969 -1.31313,-2.139467 0,-1.251816 0.31327,-1.977551 1.01597,-2.353623 1.3214,-0.707196 13.4547,-0.707196 14.7761,0 0.7027,0.376072 1.01597,1.101807 1.01597,2.353623 0,1.492498 -0.23027,1.867688 -1.31313,2.139467 -0.94276,0.236626 -1.31312,0.683882 -1.31312,1.585763 0,1.248615 -0.0348,1.256186 -5.77777,1.256186 -5.74294,0 -5.77776,-0.0077 -5.77776,-1.256186 z"
       id="path4607"
       inkscape:connector-curvature="0" />
    <path
       inkscape:connector-curvature="0"
       id="path4609"
       d="m -118.33275,97.047371 c -10.55643,-2.247233 -19.10021,-10.473893 -21.51441,-20.715844 -3.34751,-14.201394 4.81023,-28.729481 18.58764,-33.102691 4.75389,-1.508971 12.12993,-1.508971 16.88382,0 16.410818,5.209102 24.166239,24.294687 16.119217,39.668332 -2.265676,4.328518 -7.646217,9.591979 -11.955097,11.694949 -3.38402,1.65159 -10.1547,3.363214 -12.97782,3.280774 -0.80663,-0.0236 -3.12113,-0.39503 -5.14335,-0.82552 z m 27.737764,-27.732326 c 0.597159,-0.597159 0.661077,-1.308508 0.294977,-3.282822 -1.954671,-10.541304 -8.382581,-17.063119 -18.766671,-19.040825 -1.91398,-0.364529 -2.45191,-0.273577 -3.28008,0.554587 -0.92811,0.928109 -0.96921,1.6455 -0.65123,11.367081 0.21554,6.589897 0.54997,10.517272 0.91645,10.762346 0.31738,0.212253 5.11016,0.389517 10.65063,0.393939 8.111982,0.0066 10.222022,-0.1404 10.835924,-0.754306 z m -1.51223,-22.914885 c -0.543245,-0.600282 -2.363739,-1.940748 -4.045535,-2.978815 -2.278549,-1.406398 -3.018044,-2.15198 -2.901757,-2.92563 0.353158,-2.349505 1.643997,-2.200478 5.978876,0.690253 5.385661,3.591448 5.184004,3.351315 4.145454,4.936339 -1.083911,1.654253 -1.86925,1.722937 -3.177038,0.277853 z m -26.488154,-9.094034 c 0,-0.901881 -0.37037,-1.349145 -1.31313,-1.585763 -1.08285,-0.271779 -1.31313,-0.646969 -1.31313,-2.139467 0,-1.251816 0.31327,-1.977551 1.01597,-2.353623 1.3214,-0.707196 13.4547,-0.707196 14.7761,0 0.7027,0.376072 1.01597,1.101807 1.01597,2.353623 0,1.492498 -0.23027,1.867688 -1.31313,2.139467 -0.94276,0.236626 -1.31312,0.683882 -1.31312,1.585763 0,1.248615 -0.0348,1.256186 -5.77777,1.256186 -5.74294,0 -5.77776,-0.0077 -5.77776,-1.256186 z"
       style="fill:none;fill-opacity:1;stroke:#000000;stroke-width:2.20000005;stroke-miterlimit:4;stroke-dasharray:none;stroke-opacity:0.01176471" />
    <path
       style="fill:none;fill-opacity:1;stroke:#000000;stroke-width:2.4000001;stroke-miterlimit:4;stroke-dasharray:none;stroke-opacity:0.01176471"
       d="m -118.33275,97.047371 c -10.55643,-2.247233 -19.10021,-10.473893 -21.51441,-20.715844 -3.34751,-14.201394 4.81023,-28.729481 18.58764,-33.102691 4.75389,-1.508971 12.12993,-1.508971 16.88382,0 16.410818,5.209102 24.166239,24.294687 16.119217,39.668332 -2.265676,4.328518 -7.646217,9.591979 -11.955097,11.694949 -3.38402,1.65159 -10.1547,3.363214 -12.97782,3.280774 -0.80663,-0.0236 -3.12113,-0.39503 -5.14335,-0.82552 z m 27.737764,-27.732326 c 0.597159,-0.597159 0.661077,-1.308508 0.294977,-3.282822 -1.954671,-10.541304 -8.382581,-17.063119 -18.766671,-19.040825 -1.91398,-0.364529 -2.45191,-0.273577 -3.28008,0.554587 -0.92811,0.928109 -0.96921,1.6455 -0.65123,11.367081 0.21554,6.589897 0.54997,10.517272 0.91645,10.762346 0.31738,0.212253 5.11016,0.389517 10.65063,0.393939 8.111982,0.0066 10.222022,-0.1404 10.835924,-0.754306 z m -1.51223,-22.914885 c -0.543245,-0.600282 -2.363739,-1.940748 -4.045535,-2.978815 -2.278549,-1.406398 -3.018044,-2.15198 -2.901757,-2.92563 0.353158,-2.349505 1.643997,-2.200478 5.978876,0.690253 5.385661,3.591448 5.184004,3.351315 4.145454,4.936339 -1.083911,1.654253 -1.86925,1.722937 -3.177038,0.277853 z m -26.488154,-9.094034 c 0,-0.901881 -0.37037,-1.349145 -1.31313,-1.585763 -1.08285,-0.271779 -1.31313,-0.646969 -1.31313,-2.139467 0,-1.251816 0.31327,-1.977551 1.01597,-2.353623 1.3214,-0.707196 13.4547,-0.707196 14.7761,0 0.7027,0.376072 1.01597,1.101807 1.01597,2.353623 0,1.492498 -0.23027,1.867688 -1.31313,2.139467 -0.94276,0.236626 -1.31312,0.683882 -1.31312,1.585763 0,1.248615 -0.0348,1.256186 -5.77777,1.256186 -5.74294,0 -5.77776,-0.0077 -5.77776,-1.256186 z"
       id="path4611"
       inkscape:connector-curvature="0" />
    <path
       inkscape:connector-curvature="0"
       id="path4613"
       d="m -118.33275,97.047371 c -10.55643,-2.247233 -19.10021,-10.473893 -21.51441,-20.715844 -3.34751,-14.201394 4.81023,-28.729481 18.58764,-33.102691 4.75389,-1.508971 12.12993,-1.508971 16.88382,0 16.410818,5.209102 24.166239,24.294687 16.119217,39.668332 -2.265676,4.328518 -7.646217,9.591979 -11.955097,11.694949 -3.38402,1.65159 -10.1547,3.363214 -12.97782,3.280774 -0.80663,-0.0236 -3.12113,-0.39503 -5.14335,-0.82552 z m 27.737764,-27.732326 c 0.597159,-0.597159 0.661077,-1.308508 0.294977,-3.282822 -1.954671,-10.541304 -8.382581,-17.063119 -18.766671,-19.040825 -1.91398,-0.364529 -2.45191,-0.273577 -3.28008,0.554587 -0.92811,0.928109 -0.96921,1.6455 -0.65123,11.367081 0.21554,6.589897 0.54997,10.517272 0.91645,10.762346 0.31738,0.212253 5.11016,0.389517 10.65063,0.393939 8.111982,0.0066 10.222022,-0.1404 10.835924,-0.754306 z m -1.51223,-22.914885 c -0.543245,-0.600282 -2.363739,-1.940748 -4.045535,-2.978815 -2.278549,-1.406398 -3.018044,-2.15198 -2.901757,-2.92563 0.353158,-2.349505 1.643997,-2.200478 5.978876,0.690253 5.385661,3.591448 5.184004,3.351315 4.145454,4.936339 -1.083911,1.654253 -1.86925,1.722937 -3.177038,0.277853 z m -26.488154,-9.094034 c 0,-0.901881 -0.37037,-1.349145 -1.31313,-1.585763 -1.08285,-0.271779 -1.31313,-0.646969 -1.31313,-2.139467 0,-1.251816 0.31327,-1.977551 1.01597,-2.353623 1.3214,-0.707196 13.4547,-0.707196 14.7761,0 0.7027,0.376072 1.01597,1.101807 1.01597,2.353623 0,1.492498 -0.23027,1.867688 -1.31313,2.139467 -0.94276,0.236626 -1.31312,0.683882 -1.31312,1.585763 0,1.248615 -0.0348,1.256186 -5.77777,1.256186 -5.74294,0 -5.77776,-0.0077 -5.77776,-1.256186 z"
       style="fill:none;fill-opacity:1;stroke:#000000;stroke-width:2.5999999;stroke-miterlimit:4;stroke-dasharray:none;stroke-opacity:0.01176471" />
    <path
       style="fill:none;fill-opacity:1;stroke:#000000;stroke-width:3;stroke-miterlimit:4;stroke-dasharray:none;stroke-opacity:0.01176471"
       d="m -118.33275,97.047371 c -10.55643,-2.247233 -19.10021,-10.473893 -21.51441,-20.715844 -3.34751,-14.201394 4.81023,-28.729481 18.58764,-33.102691 4.75389,-1.508971 12.12993,-1.508971 16.88382,0 16.410818,5.209102 24.166239,24.294687 16.119217,39.668332 -2.265676,4.328518 -7.646217,9.591979 -11.955097,11.694949 -3.38402,1.65159 -10.1547,3.363214 -12.97782,3.280774 -0.80663,-0.0236 -3.12113,-0.39503 -5.14335,-0.82552 z m 27.737764,-27.732326 c 0.597159,-0.597159 0.661077,-1.308508 0.294977,-3.282822 -1.954671,-10.541304 -8.382581,-17.063119 -18.766671,-19.040825 -1.91398,-0.364529 -2.45191,-0.273577 -3.28008,0.554587 -0.92811,0.928109 -0.96921,1.6455 -0.65123,11.367081 0.21554,6.589897 0.54997,10.517272 0.91645,10.762346 0.31738,0.212253 5.11016,0.389517 10.65063,0.393939 8.111982,0.0066 10.222022,-0.1404 10.835924,-0.754306 z m -1.51223,-22.914885 c -0.543245,-0.600282 -2.363739,-1.940748 -4.045535,-2.978815 -2.278549,-1.406398 -3.018044,-2.15198 -2.901757,-2.92563 0.353158,-2.349505 1.643997,-2.200478 5.978876,0.690253 5.385661,3.591448 5.184004,3.351315 4.145454,4.936339 -1.083911,1.654253 -1.86925,1.722937 -3.177038,0.277853 z m -26.488154,-9.094034 c 0,-0.901881 -0.37037,-1.349145 -1.31313,-1.585763 -1.08285,-0.271779 -1.31313,-0.646969 -1.31313,-2.139467 0,-1.251816 0.31327,-1.977551 1.01597,-2.353623 1.3214,-0.707196 13.4547,-0.707196 14.7761,0 0.7027,0.376072 1.01597,1.101807 1.01597,2.353623 0,1.492498 -0.23027,1.867688 -1.31313,2.139467 -0.94276,0.236626 -1.31312,0.683882 -1.31312,1.585763 0,1.248615 -0.0348,1.256186 -5.77777,1.256186 -5.74294,0 -5.77776,-0.0077 -5.77776,-1.256186 z"
       id="path4615"
       inkscape:connector-curvature="0" />
    <path
       inkscape:connector-curvature="0"
       id="path4617"
       d="m -118.33275,97.047371 c -10.55643,-2.247233 -19.10021,-10.473893 -21.51441,-20.715844 -3.34751,-14.201394 4.81023,-28.729481 18.58764,-33.102691 4.75389,-1.508971 12.12993,-1.508971 16.88382,0 16.410818,5.209102 24.166239,24.294687 16.119217,39.668332 -2.265676,4.328518 -7.646217,9.591979 -11.955097,11.694949 -3.38402,1.65159 -10.1547,3.363214 -12.97782,3.280774 -0.80663,-0.0236 -3.12113,-0.39503 -5.14335,-0.82552 z m 27.737764,-27.732326 c 0.597159,-0.597159 0.661077,-1.308508 0.294977,-3.282822 -1.954671,-10.541304 -8.382581,-17.063119 -18.766671,-19.040825 -1.91398,-0.364529 -2.45191,-0.273577 -3.28008,0.554587 -0.92811,0.928109 -0.96921,1.6455 -0.65123,11.367081 0.21554,6.589897 0.54997,10.517272 0.91645,10.762346 0.31738,0.212253 5.11016,0.389517 10.65063,0.393939 8.111982,0.0066 10.222022,-0.1404 10.835924,-0.754306 z m -1.51223,-22.914885 c -0.543245,-0.600282 -2.363739,-1.940748 -4.045535,-2.978815 -2.278549,-1.406398 -3.018044,-2.15198 -2.901757,-2.92563 0.353158,-2.349505 1.643997,-2.200478 5.978876,0.690253 5.385661,3.591448 5.184004,3.351315 4.145454,4.936339 -1.083911,1.654253 -1.86925,1.722937 -3.177038,0.277853 z m -26.488154,-9.094034 c 0,-0.901881 -0.37037,-1.349145 -1.31313,-1.585763 -1.08285,-0.271779 -1.31313,-0.646969 -1.31313,-2.139467 0,-1.251816 0.31327,-1.977551 1.01597,-2.353623 1.3214,-0.707196 13.4547,-0.707196 14.7761,0 0.7027,0.376072 1.01597,1.101807 1.01597,2.353623 0,1.492498 -0.23027,1.867688 -1.31313,2.139467 -0.94276,0.236626 -1.31312,0.683882 -1.31312,1.585763 0,1.248615 -0.0348,1.256186 -5.77777,1.256186 -5.74294,0 -5.77776,-0.0077 -5.77776,-1.256186 z"
       style="fill:none;fill-opacity:1;stroke:#000000;stroke-width:3.4000001;stroke-miterlimit:4;stroke-dasharray:none;stroke-opacity:0.01176471" />
    <path
       style="fill:none;fill-opacity:1;stroke:#000000;stroke-width:3.79999995;stroke-miterlimit:4;stroke-dasharray:none;stroke-opacity:0.01176471"
       d="m -118.33275,97.047371 c -10.55643,-2.247233 -19.10021,-10.473893 -21.51441,-20.715844 -3.34751,-14.201394 4.81023,-28.729481 18.58764,-33.102691 4.75389,-1.508971 12.12993,-1.508971 16.88382,0 16.410818,5.209102 24.166239,24.294687 16.119217,39.668332 -2.265676,4.328518 -7.646217,9.591979 -11.955097,11.694949 -3.38402,1.65159 -10.1547,3.363214 -12.97782,3.280774 -0.80663,-0.0236 -3.12113,-0.39503 -5.14335,-0.82552 z m 27.737764,-27.732326 c 0.597159,-0.597159 0.661077,-1.308508 0.294977,-3.282822 -1.954671,-10.541304 -8.382581,-17.063119 -18.766671,-19.040825 -1.91398,-0.364529 -2.45191,-0.273577 -3.28008,0.554587 -0.92811,0.928109 -0.96921,1.6455 -0.65123,11.367081 0.21554,6.589897 0.54997,10.517272 0.91645,10.762346 0.31738,0.212253 5.11016,0.389517 10.65063,0.393939 8.111982,0.0066 10.222022,-0.1404 10.835924,-0.754306 z m -1.51223,-22.914885 c -0.543245,-0.600282 -2.363739,-1.940748 -4.045535,-2.978815 -2.278549,-1.406398 -3.018044,-2.15198 -2.901757,-2.92563 0.353158,-2.349505 1.643997,-2.200478 5.978876,0.690253 5.385661,3.591448 5.184004,3.351315 4.145454,4.936339 -1.083911,1.654253 -1.86925,1.722937 -3.177038,0.277853 z m -26.488154,-9.094034 c 0,-0.901881 -0.37037,-1.349145 -1.31313,-1.585763 -1.08285,-0.271779 -1.31313,-0.646969 -1.31313,-2.139467 0,-1.251816 0.31327,-1.977551 1.01597,-2.353623 1.3214,-0.707196 13.4547,-0.707196 14.7761,0 0.7027,0.376072 1.01597,1.101807 1.01597,2.353623 0,1.492498 -0.23027,1.867688 -1.31313,2.139467 -0.94276,0.236626 -1.31312,0.683882 -1.31312,1.585763 0,1.248615 -0.0348,1.256186 -5.77777,1.256186 -5.74294,0 -5.77776,-0.0077 -5.77776,-1.256186 z"
       id="path4619"
       inkscape:connector-curvature="0" />
    <path
       inkscape:connector-curvature="0"
       id="path4621"
       d="m -118.33275,97.047371 c -10.55643,-2.247233 -19.10021,-10.473893 -21.51441,-20.715844 -3.34751,-14.201394 4.81023,-28.729481 18.58764,-33.102691 4.75389,-1.508971 12.12993,-1.508971 16.88382,0 16.410818,5.209102 24.166239,24.294687 16.119217,39.668332 -2.265676,4.328518 -7.646217,9.591979 -11.955097,11.694949 -3.38402,1.65159 -10.1547,3.363214 -12.97782,3.280774 -0.80663,-0.0236 -3.12113,-0.39503 -5.14335,-0.82552 z m 27.737764,-27.732326 c 0.597159,-0.597159 0.661077,-1.308508 0.294977,-3.282822 -1.954671,-10.541304 -8.382581,-17.063119 -18.766671,-19.040825 -1.91398,-0.364529 -2.45191,-0.273577 -3.28008,0.554587 -0.92811,0.928109 -0.96921,1.6455 -0.65123,11.367081 0.21554,6.589897 0.54997,10.517272 0.91645,10.762346 0.31738,0.212253 5.11016,0.389517 10.65063,0.393939 8.111982,0.0066 10.222022,-0.1404 10.835924,-0.754306 z m -1.51223,-22.914885 c -0.543245,-0.600282 -2.363739,-1.940748 -4.045535,-2.978815 -2.278549,-1.406398 -3.018044,-2.15198 -2.901757,-2.92563 0.353158,-2.349505 1.643997,-2.200478 5.978876,0.690253 5.385661,3.591448 5.184004,3.351315 4.145454,4.936339 -1.083911,1.654253 -1.86925,1.722937 -3.177038,0.277853 z m -26.488154,-9.094034 c 0,-0.901881 -0.37037,-1.349145 -1.31313,-1.585763 -1.08285,-0.271779 -1.31313,-0.646969 -1.31313,-2.139467 0,-1.251816 0.31327,-1.977551 1.01597,-2.353623 1.3214,-0.707196 13.4547,-0.707196 14.7761,0 0.7027,0.376072 1.01597,1.101807 1.01597,2.353623 0,1.492498 -0.23027,1.867688 -1.31313,2.139467 -0.94276,0.236626 -1.31312,0.683882 -1.31312,1.585763 0,1.248615 -0.0348,1.256186 -5.77777,1.256186 -5.74294,0 -5.77776,-0.0077 -5.77776,-1.256186 z"
       style="fill:none;fill-opacity:1;stroke:#000000;stroke-width:4.19999981;stroke-miterlimit:4;stroke-dasharray:none;stroke-opacity:0.01176471" />
    <path
       style="fill:none;fill-opacity:1;stroke:#000000;stroke-width:5;stroke-miterlimit:4;stroke-dasharray:none;stroke-opacity:0.01176471"
       d="m -118.33275,97.047371 c -10.55643,-2.247233 -19.10021,-10.473893 -21.51441,-20.715844 -3.34751,-14.201394 4.81023,-28.729481 18.58764,-33.102691 4.75389,-1.508971 12.12993,-1.508971 16.88382,0 16.410818,5.209102 24.166239,24.294687 16.119217,39.668332 -2.265676,4.328518 -7.646217,9.591979 -11.955097,11.694949 -3.38402,1.65159 -10.1547,3.363214 -12.97782,3.280774 -0.80663,-0.0236 -3.12113,-0.39503 -5.14335,-0.82552 z m 27.737764,-27.732326 c 0.597159,-0.597159 0.661077,-1.308508 0.294977,-3.282822 -1.954671,-10.541304 -8.382581,-17.063119 -18.766671,-19.040825 -1.91398,-0.364529 -2.45191,-0.273577 -3.28008,0.554587 -0.92811,0.928109 -0.96921,1.6455 -0.65123,11.367081 0.21554,6.589897 0.54997,10.517272 0.91645,10.762346 0.31738,0.212253 5.11016,0.389517 10.65063,0.393939 8.111982,0.0066 10.222022,-0.1404 10.835924,-0.754306 z m -1.51223,-22.914885 c -0.543245,-0.600282 -2.363739,-1.940748 -4.045535,-2.978815 -2.278549,-1.406398 -3.018044,-2.15198 -2.901757,-2.92563 0.353158,-2.349505 1.643997,-2.200478 5.978876,0.690253 5.385661,3.591448 5.184004,3.351315 4.145454,4.936339 -1.083911,1.654253 -1.86925,1.722937 -3.177038,0.277853 z m -26.488154,-9.094034 c 0,-0.901881 -0.37037,-1.349145 -1.31313,-1.585763 -1.08285,-0.271779 -1.31313,-0.646969 -1.31313,-2.139467 0,-1.251816 0.31327,-1.977551 1.01597,-2.353623 1.3214,-0.707196 13.4547,-0.707196 14.7761,0 0.7027,0.376072 1.01597,1.101807 1.01597,2.353623 0,1.492498 -0.23027,1.867688 -1.31313,2.139467 -0.94276,0.236626 -1.31312,0.683882 -1.31312,1.585763 0,1.248615 -0.0348,1.256186 -5.77777,1.256186 -5.74294,0 -5.77776,-0.0077 -5.77776,-1.256186 z"
       id="path4623"
       inkscape:connector-curvature="0" />
  </g>
  <path
     inkscape:connector-curvature="0"
     id="path4568"
     d="M 58.084391,97.047371 C 47.527962,94.800138 38.984181,86.573478 36.569982,76.331527 33.222473,62.130133 41.380207,47.602046 55.157621,43.228836 c 4.753888,-1.508971 12.129931,-1.508971 16.883818,0 16.410819,5.209102 24.16624,24.294687 16.119218,39.668332 -2.265676,4.328518 -7.646217,9.591979 -11.955093,11.694949 -3.384021,1.65159 -10.154701,3.363214 -12.977828,3.280774 -0.806623,-0.0236 -3.121128,-0.39503 -5.143345,-0.82552 z M 85.822154,69.315045 c 0.597159,-0.597159 0.661077,-1.308508 0.294977,-3.282822 C 84.16246,55.490919 77.73455,48.969104 67.350463,46.991398 c -1.913981,-0.364529 -2.451917,-0.273577 -3.280082,0.554587 -0.928109,0.928109 -0.96921,1.6455 -0.651232,11.367081 0.215537,6.589897 0.549975,10.517272 0.916453,10.762346 0.31738,0.212253 5.110162,0.389517 10.650627,0.393939 8.111983,0.0066 10.222023,-0.1404 10.835925,-0.754306 z M 84.309924,46.40016 c -0.543245,-0.600282 -2.363739,-1.940748 -4.045535,-2.978815 -2.278549,-1.406398 -3.018044,-2.15198 -2.901757,-2.92563 0.353158,-2.349505 1.643997,-2.200478 5.978876,0.690253 5.385661,3.591448 5.184004,3.351315 4.145454,4.936339 -1.083911,1.654253 -1.86925,1.722937 -3.177038,0.277853 z M 57.821765,37.306126 c 0,-0.901881 -0.370369,-1.349145 -1.313128,-1.585763 -1.082851,-0.271779 -1.313128,-0.646969 -1.313128,-2.139467 0,-1.251816 0.313272,-1.977551 1.015972,-2.353623 1.321403,-0.707196 13.454696,-0.707196 14.776099,0 0.7027,0.376072 1.015973,1.101807 1.015973,2.353623 0,1.492498 -0.23027,1.867688 -1.313129,2.139467 -0.94276,0.236626 -1.313128,0.683882 -1.313128,1.585763 0,1.248615 -0.03482,1.256186 -5.777766,1.256186 -5.742941,0 -5.777765,-0.0077 -5.777765,-1.256186 z"
     style="fill:#ffffff;fill-opacity:1;stroke-width:0.52525139" />
</svg>
