<svg height="512" viewBox="0 0 512 512" width="512" xmlns="http://www.w3.org/2000/svg" xmlns:xlink="http://www.w3.org/1999/xlink"><linearGradient id="a" gradientTransform="matrix(5.2903819 .00000006 -.00000006 5.2903819 -2379.8115 -500.04121)" gradientUnits="userSpaceOnUse" x1="476.858" x2="476.3598" y1="112.159" y2="162.62764"><stop offset="0" stop-color="#657d83"/><stop offset="1" stop-color="#53676c"/></linearGradient><rect fill="#53676c" height="411.66385" ry="25.07933" transform="matrix(.99767765 .06811241 -.06811241 .99767765 0 0)" width="195.14696" x="292.89841" y="4.138757"/><path d="m290.88416 24.843458h176.11894v367.25787h-176.11894z" fill="#fff" transform="matrix(.99767765 .06811241 -.06811241 .99767765 0 0)"/><path d="m394.9165 128.76539-3.10391 32.94983-32.94983-3.10392-1.87572 19.91185 32.94983 3.10391-3.10391 32.94983 19.91185 1.87572 3.10391-32.94983 32.95177 3.1041 1.87572-19.91185-32.95178-3.1041 3.10391-32.94982zm-47.85575 155.13111-1.87571 19.91185 85.81345 8.08372 1.87572-19.91185z" fill="#53676c"/><path d="m16.549017 49.945267h298.99496v464.94681h-298.99496z" fill="url(#a)" transform="matrix(.98865408 -.15021025 .15021025 .98865408 0 0)"/><text style="font-weight:bold;font-stretch:condensed;font-size:242.000809;font-family:TeX Gyre Heros Cn;letter-spacing:0;word-spacing:0;fill:#fff;stroke-width:2.520842" transform="matrix(.98819825 -.15318031 .15318031 .98819825 0 0)" x="86.445442" y="386.40091"><tspan stroke-width="2.520842" x="86.445442" y="386.40091">M</tspan></text></svg>