<svg height="512" viewBox="0 0 512 512" width="512" xmlns="http://www.w3.org/2000/svg" xmlns:xlink="http://www.w3.org/1999/xlink"><linearGradient id="a" gradientTransform="matrix(5.2903819 .00000006 -.00000006 5.2903819 -2379.8115 -500.04121)" gradientUnits="userSpaceOnUse" x1="476.858" x2="476.3598" y1="112.159" y2="162.62764"><stop offset="0" stop-color="#e5bd85"/><stop offset="1" stop-color="#db913c"/></linearGradient><filter id="b" color-interpolation-filters="sRGB" height="1.587853" width="1.77131" x="-.385655" y="-.293926"><feGaussianBlur stdDeviation="23.130703"/></filter><rect fill="#e39234" height="411.66385" ry="25.07933" transform="matrix(.99767765 .06811241 -.06811241 .99767765 0 0)" width="195.14696" x="292.89841" y="4.138757"/><path d="m290.88416 24.843458h176.11894v367.25787h-176.11894z" fill="#fff" transform="matrix(.99767765 .06811241 -.06811241 .99767765 0 0)"/><path d="m420.90915 541.36072-10.56218-7.90193 12.12436-5.19615z" fill="#c5771d" transform="matrix(8.454371 -5.3538234 5.3538234 8.454371 -6031.148 -1954.0952)"/><path d="m331.81192 58.095097h118.08276v118.08247h-118.08276z" fill="#d37e1c" transform="matrix(.99721527 .07457682 -.07457682 .99721527 0 0)"/><path d="m16.549017 49.945267h298.99496v464.94681h-298.99496z" fill="url(#a)" transform="matrix(.98865408 -.15021025 .15021025 .98865408 0 0)"/><g style="font-weight:bold;font-stretch:condensed;font-size:242.000809;font-family:TeX Gyre Heros Cn;letter-spacing:0;word-spacing:0;stroke-width:2.520842" transform="matrix(.99032058 -.13879897 .13879897 .99032058 0 0)"><text fill="#9f530d" filter="url(#b)" x="101.36855" y="369.62732"><tspan fill="#9f530d" stroke-width="2.520842" x="101.36855" y="369.62732">D</tspan></text><text fill="#fff" x="101.36855" y="369.62732"><tspan stroke-width="2.520842" x="101.36855" y="369.62732">D</tspan></text></g></svg>