<svg height="128" viewBox="0 0 128 128" width="128" xmlns="http://www.w3.org/2000/svg" xmlns:xlink="http://www.w3.org/1999/xlink"><linearGradient id="a" gradientTransform="matrix(1.3292129 .00000001 -.00000001 1.3292129 -1186.6736 192.3985)" gradientUnits="userSpaceOnUse" x1="476.858" x2="476.3598" y1="112.159" y2="162.62764"><stop offset="0" stop-color="#54c9ab"/><stop offset="1" stop-color="#188e67"/></linearGradient><filter id="b" color-interpolation-filters="sRGB" height="1.570775" width="1.718055" x="-.359027" y="-.285388"><feGaussianBlur stdDeviation="5.7103339"/></filter><g transform="translate(535.09481 -402.08643)"><rect fill="#188e67" height="103.43089" ry="6.301203" transform="matrix(.99767765 .06811241 -.06811241 .99767765 0 0)" width="49.030834" x="-432.02048" y="439.35745"/><path d="m-432.52655 444.55954h44.250031v92.273849h-44.250031z" fill="#fff" transform="matrix(.99767765 .06811241 -.06811241 .99767765 0 0)"/><path d="m-470.49879 418.00177-.14118 2.25685-4.83071 77.22204 47.957 3.00001 4.97189-79.47889zm4.23133 4.79606 19.83214 1.24062-.59162 9.4574-19.83213-1.24062zm22.33974 1.39748 16.58988 1.0378-.59162 9.4574-16.58987-1.0378zm-23.08822 10.56752 19.83213 1.24062-.63748 10.19058-19.83213-1.24062zm22.33974 1.39749 16.58988 1.0378-.63749 10.19058-16.58987-1.0378zm-23.13409 11.3007 19.83213 1.24062-.63745 10.19009-19.83213-1.24062zm22.33974 1.39749 16.58988 1.0378-.63746 10.19009-16.58987-1.0378zm-23.13406 11.30021 19.83213 1.24062-.63748 10.19058-19.83213-1.24062zm22.33974 1.39749 16.58988 1.03779-.63749 10.19058-16.58987-1.0378zm-23.13409 11.30069 19.83213 1.24062-.63745 10.1901-19.83213-1.24063zm22.33974 1.39749 16.58988 1.0378-.63746 10.19009-16.58987-1.0378zm-23.13406 11.30021 19.83214 1.24062-.48136 7.69473-19.83213-1.24062zm22.33974 1.39749 16.58988 1.0378-.48135 7.69473-16.58988-1.0378z" fill="#147757"/><path d="m-584.586 330.58307h75.122734v116.81828h-75.122734z" fill="url(#a)" transform="matrix(.98865408 -.15021025 .15021025 .98865408 0 0)"/><g style="font-weight:bold;font-stretch:condensed;font-size:60.802902;font-family:TeX Gyre Heros Cn;letter-spacing:0;word-spacing:0;stroke-width:.633364" transform="matrix(.98819826 -.15318031 .15318031 .98819826 0 0)"><text fill="#043f2b" filter="url(#b)" opacity=".454248" x="-563.59326" y="409.09598"><tspan fill="#043f2b" stroke-width=".633364" x="-563.59326" y="409.09598">X</tspan></text><text fill="#fff" x="-563.59326" y="409.09598"><tspan stroke-width=".633364" x="-563.59326" y="409.09598">X</tspan></text></g></g></svg>