<svg height="128" viewBox="0 0 128 128" width="128" xmlns="http://www.w3.org/2000/svg" xmlns:xlink="http://www.w3.org/1999/xlink"><linearGradient id="a" gradientTransform="matrix(5.2903819 .00000006 -.00000006 5.2903819 -2379.8115 -500.04121)" gradientUnits="userSpaceOnUse" x1="476.858" x2="476.3598" y1="112.159" y2="162.62764"><stop offset="0" stop-color="#d96c6c"/><stop offset="1" stop-color="#d14b4b"/></linearGradient><g transform="matrix(.24880653 0 0 .24880653 .251552 .794086)"><rect fill="#d14b4b" height="411.66385" ry="25.07933" transform="matrix(.99767765 .06811241 -.06811241 .99767765 0 0)" width="195.14696" x="292.89841" y="4.138757"/><path d="m290.88416 24.843458h176.11894v367.25787h-176.11894z" fill="#fff" transform="matrix(.99767765 .06811241 -.06811241 .99767765 0 0)"/><path d="m396.25947 86.679923c32.41466 8.49113 51.82491 41.609097 43.33424 74.021997l-58.6968-15.37583c.0122.003 15.37475-58.642977 15.36256-58.646167zm-20.67733 11.62729-15.37632 58.698667 58.69682 15.37583c-8.50078 32.4515-41.64592 51.81562-74.07273 43.32131-32.42685-8.49433-51.79736-41.6151-43.29658-74.0666 8.4943-32.42679 41.63413-51.820347 74.04881-43.329207z" fill="#d14b4b" stroke-width="15.962331"/><path d="m310.81135 276.50701-1.61121 17.92774 106.83697 9.60171 1.61122-17.92775zm6.90338 59.36404-1.61121 17.92775 94.69646 8.5106 1.61121-17.92774z" fill="#d14b4b"/><path d="m16.549017 49.945267h298.99496v464.94681h-298.99496z" fill="url(#a)" transform="matrix(.98865408 -.15021025 .15021025 .98865408 0 0)"/><text style="font-weight:bold;font-stretch:condensed;font-size:242.000809;font-family:TeX Gyre Heros Cn;letter-spacing:0;word-spacing:0;fill:#fff;stroke-width:2.520842" transform="matrix(.99032058 -.13879897 .13879897 .99032058 0 0)" x="146.20186" y="374.68011"><tspan stroke-width="2.520842" x="146.20186" y="374.68011">I</tspan></text></g></svg>