<svg height="512" viewBox="0 0 512 512" width="512" xmlns="http://www.w3.org/2000/svg" xmlns:xlink="http://www.w3.org/1999/xlink"><linearGradient id="a" gradientTransform="matrix(5.2903819 .00000006 -.00000006 5.2903819 -2379.8115 -500.04121)" gradientUnits="userSpaceOnUse" x1="476.858" x2="476.3598" y1="112.159" y2="162.62764"><stop offset="0" stop-color="#a471b9"/><stop offset="1" stop-color="#864fb4"/></linearGradient><filter id="b" color-interpolation-filters="sRGB" height="1.410984" width="1.549899" x="-.27495" y="-.205492"><feGaussianBlur stdDeviation="16.133919"/></filter><rect fill="#864fb4" height="411.66385" ry="25.07933" transform="matrix(.99767765 .06811241 -.06811241 .99767765 0 0)" width="195.14696" x="292.89841" y="4.138757"/><path d="m290.88416 24.843458h176.11894v367.25787h-176.11894z" fill="#fff" transform="matrix(.99767765 .06811241 -.06811241 .99767765 0 0)"/><path d="m315.64292 90.712176c-70.8081-6.257508-131.00671 20.324224-134.45754 59.372764s51.15301 75.77566 121.96111 82.03317c70.80809 6.25751 131.0067-20.3242 134.45753-59.37275 3.45082-39.04854-51.15301-75.775674-121.9611-82.033184zm-135.31863 69.094454-.39046 4.41834c.13438-1.52057.48748-2.9013.79124-4.38292zm-.39046 4.41834-4.6654 52.7923-.58578 6.62846.80157.0708c2.68316 36.5257 54.85098 69.42421 121.74708 75.33601 66.89606 5.91179 124.02301-17.32805 133.07036-52.81708l.80157.0708.58578-6.62845 4.6654-52.79231c-3.45083 39.04863-63.65157 65.6321-134.45966 59.37459-70.80807-6.2575-125.41175-42.98656-121.96092-82.03512zm256.42058 22.66059.39046-4.41833-.40078-.0354c.0394 1.51186.1447 2.93313.0103 4.45375zm-262.11173 41.73881-.39064 4.42028c.13438-1.52057.48766-2.90325.79141-4.38486zm-.39064 4.42028-4.6654 52.7923-.58577 6.62847.80156.0708c2.68316 36.5257 54.85115 69.42225 121.74726 75.33405 66.89606 5.91178 124.02284-17.32609 133.07019-52.81512l.80156.0708.58578-6.62846 4.6654-52.79231c-3.45083 39.04856-63.6514 65.6301-134.45948 59.37259-70.80807-6.25751-125.41192-42.98463-121.9611-82.03318zm256.42058 22.66059.39063-4.42027-.40077-.0354c.0394 1.51186.14452 2.93506.0101 4.45569z" fill="#864fb4"/><path d="m16.549017 49.945267h298.99496v464.94681h-298.99496z" fill="url(#a)" transform="matrix(.98865408 -.15021025 .15021025 .98865408 0 0)"/><g style="font-weight:bold;font-stretch:condensed;font-size:242.000809;font-family:TeX Gyre Heros Cn;letter-spacing:0;word-spacing:0;stroke-width:2.520842" transform="matrix(.99032058 -.13879897 .13879897 .99032058 0 0)"><text fill="#64285b" filter="url(#b)" x="95.019592" y="379.69144"><tspan fill="#64285b" stroke-width="2.520842" x="95.019592" y="379.69144">B</tspan></text><text fill="#fff" x="95.019592" y="379.69144"><tspan stroke-width="2.520842" x="95.019592" y="379.69144">B</tspan></text></g></svg>