<svg height="128" viewBox="0 0 128 128" width="128" xmlns="http://www.w3.org/2000/svg" xmlns:xlink="http://www.w3.org/1999/xlink"><linearGradient id="a" gradientTransform="matrix(5.2903819 .00000006 -.00000006 5.2903819 -2322.1308 -879.68438)" gradientUnits="userSpaceOnUse" x1="484.07709" x2="486.80887" y1="104.42273" y2="183.26373"><stop offset="0" stop-color="#72cfe0"/><stop offset="1" stop-color="#0a8ed3"/></linearGradient><filter id="b" color-interpolation-filters="sRGB" height="1.631232" width="1.580493" x="-.290246" y="-.315616"><feGaussianBlur stdDeviation="23.878758"/></filter><g transform="matrix(.25064583 0 0 .25064583 3.255001 96.719825)"><rect fill="#097bb6" height="411.66385" ry="25.07933" transform="matrix(.99767765 .06811241 -.06811241 .99767765 0 0)" width="195.14696" x="266.74326" y="-378.96945"/><path d="m264.729-358.26477h176.11894v367.25787h-176.11894z" fill="#fff" transform="matrix(.99767765 .06811241 -.06811241 .99767765 0 0)"/><path d="m287.1601-319.62354-1.30196 21.12023 151.32354 9.35117 1.31228-21.12021zm-3.04817 49.30802-1.30195 21.12019 151.32353 9.35119 1.31223-21.12021zm-3.03784 49.30805-1.31228 21.12014 151.33385 9.35118 1.30193-21.12021zm-3.04814 49.29768-1.31228 21.12014 151.33384 9.35119 1.30191-21.12022zm-3.04822 49.308-1.30191 21.12021 151.32348 9.3511 1.30196-21.12015zm-3.04815 49.30798-1.30193 21.12022 151.32348 9.35117 1.30198-21.12021zm-3.04816 49.2977-1.30192 21.12021 151.32348 9.35116 1.31229-21.12021z" fill="#097bb6"/><path d="m74.229752-329.69791h298.99496v464.94681h-298.99496z" fill="url(#a)" transform="matrix(.98865408 -.15021025 .15021025 .98865408 0 0)"/><path d="m264.60339-206.48907-10.27054 101.54965-44.80291-98.58504-27.70218 4.39144-12.07899 107.49187-42.23005-95.77446-30.647672 3.67718 68.000602 153.16399 27.77451-4.23641 12.21337-108.66983 44.86494 98.74004 27.70211-4.42243 16.894-162.98975z" fill="#065178" filter="url(#b)"/><path d="m264.60339-206.48907-10.27054 101.54965-44.80291-98.58504-27.70218 4.39144-12.07899 107.49187-42.23005-95.77446-30.647672 3.67718 68.000602 153.16399 27.77451-4.23641 12.21337-108.66983 44.86494 98.74004 27.70211-4.42243 16.894-162.98975z" fill="#fff"/></g></svg>