<svg height="512" viewBox="0 0 512 512" width="512" xmlns="http://www.w3.org/2000/svg" xmlns:xlink="http://www.w3.org/1999/xlink"><linearGradient id="a" gradientTransform="matrix(5.2903819 .00000006 -.00000006 5.2903819 -2379.8115 -500.04121)" gradientUnits="userSpaceOnUse" x1="476.858" x2="476.3598" y1="112.159" y2="162.62764"><stop offset="0" stop-color="#657d83"/><stop offset="1" stop-color="#53676c"/></linearGradient><rect fill="#53676c" height="411.66385" ry="25.07933" transform="matrix(.99767765 .06811241 -.06811241 .99767765 0 0)" width="195.14696" x="292.89841" y="4.138757"/><path d="m290.88416 24.843458h176.11894v367.25787h-176.11894z" fill="#fff" transform="matrix(.99767765 .06811241 -.06811241 .99767765 0 0)"/><path d="m16.549017 49.945267h298.99496v464.94681h-298.99496z" fill="url(#a)" transform="matrix(.98865408 -.15021025 .15021025 .98865408 0 0)"/><path d="m211.74804 199.95621-66.3297 84.89808c-12.43687 15.91839-8.95522 44.27366 6.96306 56.71053 15.91853 12.43675 44.27368 8.95523 56.71055-6.96316l66.3297-84.89821 8.29101-10.61226c8.29134-10.61226 5.97031-29.51573-4.64189-37.80693-10.61231-8.29121-29.51578-5.97028-37.80695 4.6421l-8.29129 10.61227-49.74724 63.67355-8.29117 10.61227c-4.1457 5.30613-2.98507 14.75792 2.32102 18.90359 5.3061 4.14542 14.7579 2.98508 18.90348-2.32106l58.03841-74.28594 10.61231 8.2912-58.03841 74.28583c-8.29129 10.61238-27.19477 12.93344-37.80695 4.64211-10.61231-8.29121-12.93346-27.19468-4.64229-37.80694l8.29128-10.61226 58.03854-74.28582c12.43675-15.91852 40.7919-19.39991 56.71044-6.96316 15.91838 12.43674 19.40005 40.79201 6.96318 56.7104l-8.29117 10.61238-66.3297 84.89796c-16.58258 21.22465-54.38953 25.86676-75.61403 9.28435-21.22449-16.58255-25.86666-54.38935-9.2842-75.614l66.32969-84.89808z" fill="#fff"/></svg>