<?xml version="1.0" encoding="UTF-8" standalone="no"?>
<svg
   xmlns:dc="http://purl.org/dc/elements/1.1/"
   xmlns:cc="http://creativecommons.org/ns#"
   xmlns:rdf="http://www.w3.org/1999/02/22-rdf-syntax-ns#"
   xmlns:svg="http://www.w3.org/2000/svg"
   xmlns="http://www.w3.org/2000/svg"
   xmlns:xlink="http://www.w3.org/1999/xlink"
   xmlns:sodipodi="http://sodipodi.sourceforge.net/DTD/sodipodi-0.dtd"
   xmlns:inkscape="http://www.inkscape.org/namespaces/inkscape"
   height="128"
   viewBox="0 0 128 128"
   width="128"
   version="1.1"
   id="svg24"
   sodipodi:docname="libreoffice-writer.svg"
   inkscape:version="0.92.4 5da689c313, 2019-01-14">
  <metadata
     id="metadata30">
    <rdf:RDF>
      <cc:Work
         rdf:about="">
        <dc:format>image/svg+xml</dc:format>
        <dc:type
           rdf:resource="http://purl.org/dc/dcmitype/StillImage" />
      </cc:Work>
    </rdf:RDF>
  </metadata>
  <defs
     id="defs28">
    <linearGradient
       inkscape:collect="always"
       id="linearGradient852">
      <stop
         style="stop-color:#000000;stop-opacity:1;"
         offset="0"
         id="stop848" />
      <stop
         id="stop868"
         offset="0.8249023"
         style="stop-color:#000000;stop-opacity:0.05490196;" />
      <stop
         id="stop864"
         offset="0.90864134"
         style="stop-color:#000000;stop-opacity:0.02745098;" />
      <stop
         id="stop862"
         offset="0.92884243"
         style="stop-color:#000000;stop-opacity:0.01960784;" />
      <stop
         id="stop860"
         offset="0.95190722"
         style="stop-color:#000000;stop-opacity:0.01176471;" />
      <stop
         style="stop-color:#000000;stop-opacity:0;"
         offset="1"
         id="stop850" />
    </linearGradient>
    <linearGradient
       inkscape:collect="always"
       xlink:href="#linearGradient852"
       id="linearGradient856"
       gradientUnits="userSpaceOnUse"
       x1="86.344971"
       y1="58.764923"
       x2="97.98822"
       y2="56.893875" />
  </defs>
  <sodipodi:namedview
     pagecolor="#ffffff"
     bordercolor="#666666"
     borderopacity="1"
     objecttolerance="10"
     gridtolerance="10"
     guidetolerance="10"
     inkscape:pageopacity="0"
     inkscape:pageshadow="2"
     inkscape:window-width="1920"
     inkscape:window-height="1024"
     id="namedview26"
     showgrid="false"
     inkscape:zoom="5.2149125"
     inkscape:cx="100.52174"
     inkscape:cy="66.532147"
     inkscape:window-x="0"
     inkscape:window-y="30"
     inkscape:window-maximized="1"
     inkscape:current-layer="svg24" />
  <linearGradient
     id="a"
     gradientTransform="matrix(1.3109673,-0.19918059,0.19918059,1.3109673,-605.29344,-33.840515)"
     gradientUnits="userSpaceOnUse"
     x1="484.07709"
     x2="486.80887"
     y1="104.42273"
     y2="183.26373">
    <stop
       offset="0"
       stop-color="#72cfe0"
       id="stop2"
       style="stop-color:#43a3e7;stop-opacity:1" />
    <stop
       offset="1"
       stop-color="#0a8ed3"
       id="stop4"
       style="stop-color:#0064c2;stop-opacity:1" />
  </linearGradient>
  <filter
     id="b"
     color-interpolation-filters="sRGB"
     height="1.631232"
     width="1.580493"
     x="-.290246"
     y="-.315616">
    <feGaussianBlur
       stdDeviation="23.878758"
       id="feGaussianBlur7" />
  </filter>
  <rect
     style="fill:#0070bf;stroke-width:0.25064582;fill-opacity:1"
     id="rect10"
     y="1.2863907"
     x="76.693344"
     width="48.912769"
     transform="rotate(3.9055772)"
     ry="6.2860293"
     height="103.18182" />
  <path
     style="fill:#ffffff;stroke-width:0.25064582"
     inkscape:connector-curvature="0"
     id="path12"
     d="m 75.570453,11.650274 44.040957,3.006718 -6.26986,91.837878 -44.040956,-3.00672 z" />
  <path
     style="fill:#0070bf;stroke-width:0.25064582;fill-opacity:1"
     inkscape:connector-curvature="0"
     id="path14"
     d="m 75.230483,16.607518 -0.326331,5.293697 37.928618,2.343832 0.32891,-5.293693 z m -0.764011,12.358849 -0.326329,5.293688 37.928607,2.343836 0.32891,-5.293692 z m -0.761422,12.358857 -0.328918,5.293675 37.931198,2.343835 0.32632,-5.293693 z m -0.764004,12.356258 -0.328918,5.293675 37.931192,2.343837 0.32632,-5.293695 z m -0.764024,12.358845 -0.326318,5.293692 37.928596,2.343815 0.32633,-5.293678 z m -0.764006,12.358839 -0.326323,5.293695 37.928597,2.343832 0.32634,-5.293692 z m -0.764008,12.356263 -0.326321,5.293693 37.928603,2.343829 0.32892,-5.293692 z" />
  <path
     inkscape:connector-curvature="0"
     style="fill:url(#a);stroke-width:0.25064582"
     id="path16"
     d="M 9.2362989,12.225299 83.327854,0.96826707 100.8329,116.18303 26.741346,127.44006 Z" />
  <g
     id="g901"
     style="opacity:0.495"
     transform="translate(-125.21783,9.971404)">
    <path
       style="fill:none;stroke:#000000;stroke-width:0.30000001;stroke-linecap:round;stroke-linejoin:round;stroke-miterlimit:4;stroke-dasharray:none;stroke-opacity:0.03921569"
       inkscape:connector-curvature="0"
       id="path877"
       d="m 194.79456,34.992797 -2.57427,25.452996 -11.22966,-24.709929 -6.94343,1.100696 -3.02755,26.942389 -10.58479,-24.005469 -7.68171,0.92167 17.04407,38.389915 6.96156,-1.061838 3.06123,-27.23764 11.24521,24.748779 6.94342,-1.108463 4.23441,-40.852702 z" />
    <path
       d="m 194.79456,34.992797 -2.57427,25.452996 -11.22966,-24.709929 -6.94343,1.100696 -3.02755,26.942389 -10.58479,-24.005469 -7.68171,0.92167 17.04407,38.389915 6.96156,-1.061838 3.06123,-27.23764 11.24521,24.748779 6.94342,-1.108463 4.23441,-40.852702 z"
       id="path879"
       inkscape:connector-curvature="0"
       style="fill:none;stroke:#000000;stroke-width:0.60000002;stroke-linecap:round;stroke-linejoin:round;stroke-miterlimit:4;stroke-dasharray:none;stroke-opacity:0.03921569" />
    <path
       style="fill:none;stroke:#000000;stroke-width:0.89999998;stroke-linecap:round;stroke-linejoin:round;stroke-miterlimit:4;stroke-dasharray:none;stroke-opacity:0.03921569"
       inkscape:connector-curvature="0"
       id="path881"
       d="m 194.79456,34.992797 -2.57427,25.452996 -11.22966,-24.709929 -6.94343,1.100696 -3.02755,26.942389 -10.58479,-24.005469 -7.68171,0.92167 17.04407,38.389915 6.96156,-1.061838 3.06123,-27.23764 11.24521,24.748779 6.94342,-1.108463 4.23441,-40.852702 z" />
    <path
       d="m 194.79456,34.992797 -2.57427,25.452996 -11.22966,-24.709929 -6.94343,1.100696 -3.02755,26.942389 -10.58479,-24.005469 -7.68171,0.92167 17.04407,38.389915 6.96156,-1.061838 3.06123,-27.23764 11.24521,24.748779 6.94342,-1.108463 4.23441,-40.852702 z"
       id="path883"
       inkscape:connector-curvature="0"
       style="fill:none;stroke:#000000;stroke-width:1.20000005;stroke-linecap:round;stroke-linejoin:round;stroke-miterlimit:4;stroke-dasharray:none;stroke-opacity:0.03921569" />
    <path
       style="fill:none;stroke:#000000;stroke-width:1.79999995;stroke-linecap:round;stroke-linejoin:round;stroke-miterlimit:4;stroke-dasharray:none;stroke-opacity:0.03921569"
       inkscape:connector-curvature="0"
       id="path885"
       d="m 194.79456,34.992797 -2.57427,25.452996 -11.22966,-24.709929 -6.94343,1.100696 -3.02755,26.942389 -10.58479,-24.005469 -7.68171,0.92167 17.04407,38.389915 6.96156,-1.061838 3.06123,-27.23764 11.24521,24.748779 6.94342,-1.108463 4.23441,-40.852702 z" />
    <path
       d="m 194.79456,34.992797 -2.57427,25.452996 -11.22966,-24.709929 -6.94343,1.100696 -3.02755,26.942389 -10.58479,-24.005469 -7.68171,0.92167 17.04407,38.389915 6.96156,-1.061838 3.06123,-27.23764 11.24521,24.748779 6.94342,-1.108463 4.23441,-40.852702 z"
       id="path887"
       inkscape:connector-curvature="0"
       style="fill:none;stroke:#000000;stroke-width:2.5;stroke-linecap:round;stroke-linejoin:round;stroke-miterlimit:4;stroke-dasharray:none;stroke-opacity:0.03921569" />
    <path
       style="fill:none;stroke:#000000;stroke-width:3.5;stroke-linecap:round;stroke-linejoin:round;stroke-miterlimit:4;stroke-dasharray:none;stroke-opacity:0.03921569"
       inkscape:connector-curvature="0"
       id="path889"
       d="m 194.79456,34.992797 -2.57427,25.452996 -11.22966,-24.709929 -6.94343,1.100696 -3.02755,26.942389 -10.58479,-24.005469 -7.68171,0.92167 17.04407,38.389915 6.96156,-1.061838 3.06123,-27.23764 11.24521,24.748779 6.94342,-1.108463 4.23441,-40.852702 z" />
    <path
       d="m 194.79456,34.992797 -2.57427,25.452996 -11.22966,-24.709929 -6.94343,1.100696 -3.02755,26.942389 -10.58479,-24.005469 -7.68171,0.92167 17.04407,38.389915 6.96156,-1.061838 3.06123,-27.23764 11.24521,24.748779 6.94342,-1.108463 4.23441,-40.852702 z"
       id="path891"
       inkscape:connector-curvature="0"
       style="fill:none;stroke:#000000;stroke-width:5;stroke-linecap:round;stroke-linejoin:round;stroke-miterlimit:4;stroke-dasharray:none;stroke-opacity:0.03921569" />
  </g>
  <path
     style="fill:#ffffff;stroke-width:0.25064582"
     inkscape:connector-curvature="0"
     id="path20"
     d="M 69.576737,44.964201 67.002469,70.417197 55.772807,45.707268 48.829371,46.807964 45.801822,73.750353 35.217036,49.744884 l -7.681711,0.92167 17.044068,38.389915 6.961565,-1.061838 3.06123,-27.23764 11.24521,24.748779 6.943418,-1.108463 4.234411,-40.852702 z" />
  <path
     style="fill:url(#linearGradient856);stroke:none;stroke-width:1px;stroke-linecap:butt;stroke-linejoin:miter;stroke-opacity:1;fill-opacity:1"
     d="M 84.25 7.0410156 L 100.12695 111.54688 L 111.92773 112.35352 C 115.40211 112.59071 118.38975 109.98414 118.62695 106.50977 L 124.79883 16.109375 C 125.03603 12.635002 122.42945 9.647355 118.95508 9.4101562 L 84.25 7.0410156 z "
     id="path846" />
</svg>
