<?xml version="1.0" encoding="UTF-8" standalone="no"?>
<!-- Created with Inkscape (http://www.inkscape.org/) -->

<svg
   xmlns:dc="http://purl.org/dc/elements/1.1/"
   xmlns:cc="http://creativecommons.org/ns#"
   xmlns:rdf="http://www.w3.org/1999/02/22-rdf-syntax-ns#"
   xmlns:svg="http://www.w3.org/2000/svg"
   xmlns="http://www.w3.org/2000/svg"
   xmlns:xlink="http://www.w3.org/1999/xlink"
   xmlns:sodipodi="http://sodipodi.sourceforge.net/DTD/sodipodi-0.dtd"
   xmlns:inkscape="http://www.inkscape.org/namespaces/inkscape"
   version="1.1"
   id="svg2"
   width="128"
   height="128"
   viewBox="0 0 128 128"
   sodipodi:docname="Nextcloud.svg"
   inkscape:version="0.92.1 r15371">
  <metadata
     id="metadata8">
    <rdf:RDF>
      <cc:Work
         rdf:about="">
        <dc:format>image/svg+xml</dc:format>
        <dc:type
           rdf:resource="http://purl.org/dc/dcmitype/StillImage" />
        <dc:title></dc:title>
      </cc:Work>
    </rdf:RDF>
  </metadata>
  <defs
     id="defs6">
    <linearGradient
       inkscape:collect="always"
       id="linearGradient833">
      <stop
         style="stop-color:#1174f7;stop-opacity:1"
         offset="0"
         id="stop829" />
      <stop
         style="stop-color:#02bffd;stop-opacity:1"
         offset="1"
         id="stop831" />
    </linearGradient>
    <linearGradient
       inkscape:collect="always"
       id="linearGradient823">
      <stop
         style="stop-color:#012fcc;stop-opacity:1"
         offset="0"
         id="stop819" />
      <stop
         style="stop-color:#01c2fe;stop-opacity:1"
         offset="1"
         id="stop821" />
    </linearGradient>
    <linearGradient
       inkscape:collect="always"
       xlink:href="#linearGradient823"
       id="linearGradient825"
       x1="-741.83197"
       y1="959.04749"
       x2="-741.83197"
       y2="93.836403"
       gradientUnits="userSpaceOnUse"
       gradientTransform="matrix(0.13667801,0,0,0.13667801,162.31231,-5.989337)" />
    <linearGradient
       inkscape:collect="always"
       xlink:href="#linearGradient833"
       id="linearGradient835"
       x1="-738.76385"
       y1="931.43433"
       x2="-738.76385"
       y2="152.13077"
       gradientUnits="userSpaceOnUse"
       gradientTransform="matrix(0.13667801,0,0,0.13667801,162.31231,-5.989337)" />
  </defs>
  <sodipodi:namedview
     pagecolor="#ffffff"
     bordercolor="#666666"
     borderopacity="1"
     objecttolerance="10"
     gridtolerance="10"
     guidetolerance="10"
     inkscape:pageopacity="0"
     inkscape:pageshadow="2"
     inkscape:window-width="1920"
     inkscape:window-height="986"
     id="namedview4"
     showgrid="false"
     inkscape:zoom="2.6074563"
     inkscape:cx="-20.022249"
     inkscape:cy="42.694467"
     inkscape:window-x="0"
     inkscape:window-y="0"
     inkscape:window-maximized="1"
     inkscape:current-layer="svg2" />
  <circle
     style="opacity:1;fill:url(#linearGradient825);fill-opacity:1;stroke:none;stroke-width:0.78699166;stroke-linecap:round;stroke-linejoin:round;stroke-miterlimit:4;stroke-dasharray:none;stroke-opacity:1"
     id="path817"
     cx="63.591888"
     cy="64.286316"
     r="61.380009" />
  <circle
     r="55.089832"
     cy="64.286316"
     cx="63.591888"
     id="circle827"
     style="opacity:1;fill:url(#linearGradient835);fill-opacity:1;stroke:none;stroke-width:0.70634133;stroke-linecap:round;stroke-linejoin:round;stroke-miterlimit:4;stroke-dasharray:none;stroke-opacity:1" />
  <g
     style="fill:none;stroke:#000000;stroke-opacity:0.06735751"
     transform="matrix(0.66714467,0,0,0.66714467,18.929214,40.319514)"
     id="g4550">
    <path
       style="color:#000000;font-style:normal;font-variant:normal;font-weight:normal;font-stretch:normal;font-size:medium;line-height:normal;font-family:sans-serif;text-indent:0;text-align:start;text-decoration:none;text-decoration-line:none;text-decoration-style:solid;text-decoration-color:#000000;letter-spacing:normal;word-spacing:normal;text-transform:none;writing-mode:lr-tb;direction:ltr;baseline-shift:baseline;text-anchor:start;white-space:normal;clip-rule:nonzero;display:inline;overflow:visible;visibility:visible;opacity:1;isolation:auto;mix-blend-mode:normal;color-interpolation:sRGB;color-interpolation-filters:linearRGB;solid-color:#000000;solid-opacity:1;fill:none;fill-opacity:1;fill-rule:nonzero;stroke:#000000;stroke-width:5.56589985;stroke-linecap:butt;stroke-linejoin:miter;stroke-miterlimit:10;stroke-dasharray:none;stroke-dashoffset:0;stroke-opacity:0.06735751;color-rendering:auto;image-rendering:auto;shape-rendering:auto;text-rendering:auto;enable-background:accumulate"
       d="m 67.032801,9.9999701 c -11.80525,0 -21.81118,8.0031799 -24.91235,18.8465899 -2.69524,-5.75151 -8.53592,-9.78093 -15.26337,-9.78093 -9.25183,0 -16.85708,7.60525 -16.85708,16.85708 0,9.25182 7.60525,16.86054 16.85708,16.86054 6.72745,0 12.56813,-4.03188 15.26337,-9.78439 3.10117,10.84422 13.1071,18.85006 24.91235,18.85006 11.71795,0 21.67286,-7.8851 24.85334,-18.60701 2.74505,5.62192 8.513439,9.54134 15.145329,9.54134 9.25183,0 16.86055,-7.60872 16.86055,-16.86054 0,-9.25183 -7.60872,-16.85708 -16.86055,-16.85708 -6.63189,0 -12.400279,3.91696 -15.145329,9.53788 C 88.705661,17.88243 78.750751,9.9999701 67.032801,9.9999701 Z m 0,9.8954999 c 8.91163,0 16.03073,7.11564 16.03073,16.02724 0,8.9116 -7.1191,16.03071 -16.03073,16.03071 -8.91158,0 -16.02722,-7.11911 -16.02722,-16.03071 0,-8.9116 7.11564,-16.02724 16.02722,-16.02724 z m -40.17572,9.06567 c 3.90437,0 6.96504,3.05718 6.96504,6.96157 0,3.90438 -3.06067,6.96504 -6.96504,6.96504 -3.90439,0 -6.96158,-3.06066 -6.96158,-6.96504 0,-3.90439 3.05719,-6.96157 6.96158,-6.96157 z m 80.174389,0 c 3.9044,0 6.96504,3.05718 6.96504,6.96157 0,3.90438 -3.06066,6.96504 -6.96504,6.96504 -3.90437,0 -6.96156,-3.06066 -6.96156,-6.96504 0,-3.90439 3.05721,-6.96157 6.96156,-6.96157 z"
       id="path4546"
       inkscape:connector-curvature="0" />
    <g
       id="g4548"
       transform="matrix(0.47038519,0,0,0.47038519,21.389201,50.75959)"
       style="opacity:1;fill:none;fill-opacity:1;stroke:#000000;stroke-opacity:0.06735751" />
  </g>
  <g
     id="g4544"
     transform="matrix(0.66714467,0,0,0.66714467,18.929214,40.319514)"
     style="fill:#ffffff">
    <path
       inkscape:connector-curvature="0"
       id="XMLID_107_"
       d="m 67.032801,9.9999701 c -11.80525,0 -21.81118,8.0031799 -24.91235,18.8465899 -2.69524,-5.75151 -8.53592,-9.78093 -15.26337,-9.78093 -9.25183,0 -16.85708,7.60525 -16.85708,16.85708 0,9.25182 7.60525,16.86054 16.85708,16.86054 6.72745,0 12.56813,-4.03188 15.26337,-9.78439 3.10117,10.84422 13.1071,18.85006 24.91235,18.85006 11.71795,0 21.67286,-7.8851 24.85334,-18.60701 2.74505,5.62192 8.513439,9.54134 15.145329,9.54134 9.25183,0 16.86055,-7.60872 16.86055,-16.86054 0,-9.25183 -7.60872,-16.85708 -16.86055,-16.85708 -6.63189,0 -12.400279,3.91696 -15.145329,9.53788 C 88.705661,17.88243 78.750751,9.9999701 67.032801,9.9999701 Z m 0,9.8954999 c 8.91163,0 16.03073,7.11564 16.03073,16.02724 0,8.9116 -7.1191,16.03071 -16.03073,16.03071 -8.91158,0 -16.02722,-7.11911 -16.02722,-16.03071 0,-8.9116 7.11564,-16.02724 16.02722,-16.02724 z m -40.17572,9.06567 c 3.90437,0 6.96504,3.05718 6.96504,6.96157 0,3.90438 -3.06067,6.96504 -6.96504,6.96504 -3.90439,0 -6.96158,-3.06066 -6.96158,-6.96504 0,-3.90439 3.05719,-6.96157 6.96158,-6.96157 z m 80.174389,0 c 3.9044,0 6.96504,3.05718 6.96504,6.96157 0,3.90438 -3.06066,6.96504 -6.96504,6.96504 -3.90437,0 -6.96156,-3.06066 -6.96156,-6.96504 0,-3.90439 3.05721,-6.96157 6.96156,-6.96157 z"
       style="color:#000000;font-style:normal;font-variant:normal;font-weight:normal;font-stretch:normal;font-size:medium;line-height:normal;font-family:sans-serif;text-indent:0;text-align:start;text-decoration:none;text-decoration-line:none;text-decoration-style:solid;text-decoration-color:#000000;letter-spacing:normal;word-spacing:normal;text-transform:none;writing-mode:lr-tb;direction:ltr;baseline-shift:baseline;text-anchor:start;white-space:normal;clip-rule:nonzero;display:inline;overflow:visible;visibility:visible;opacity:1;isolation:auto;mix-blend-mode:normal;color-interpolation:sRGB;color-interpolation-filters:linearRGB;solid-color:#000000;solid-opacity:1;fill:#ffffff;fill-opacity:1;fill-rule:nonzero;stroke:none;stroke-width:5.56589985;stroke-linecap:butt;stroke-linejoin:miter;stroke-miterlimit:10;stroke-dasharray:none;stroke-dashoffset:0;stroke-opacity:1;color-rendering:auto;image-rendering:auto;shape-rendering:auto;text-rendering:auto;enable-background:accumulate" />
    <g
       style="opacity:1;fill:#ffffff;fill-opacity:1"
       transform="matrix(0.47038519,0,0,0.47038519,21.389201,50.75959)"
       id="g4571" />
  </g>
</svg>
