<svg height="136.53333" viewBox="0 0 136.53333 136.53333" width="136.53333" xmlns="http://www.w3.org/2000/svg" xmlns:xlink="http://www.w3.org/1999/xlink"><linearGradient id="a"><stop offset="0" stop-color="#909090"/><stop offset="1" stop-color="#636363" stop-opacity="0"/></linearGradient><radialGradient id="b" cx="199.2227" cy="60.977612" gradientTransform="matrix(1.0118581 .00000003 -.00000015 5.095797 -134.28081 -251.22589)" gradientUnits="userSpaceOnUse" r="62.147919"><stop offset="0" stop-color="#e6e6e8"/><stop offset="1" stop-color="#cbccce"/></radialGradient><radialGradient id="c" cx="199.2227" cy="60.977612" gradientTransform="matrix(1.3102503 -.00000004 .0000001 3.6151362 -193.72731 -160.9387)" gradientUnits="userSpaceOnUse" r="62.147919"><stop offset="0" stop-color="#ececef"/><stop offset="1" stop-color="#cbccce" stop-opacity="0"/></radialGradient><filter id="d" color-interpolation-filters="sRGB" height="1.033815" width="1.02896" x="-.01448" y="-.016908"><feGaussianBlur stdDeviation=".74992302"/></filter><linearGradient id="e" gradientUnits="userSpaceOnUse" x1="174.78751" x2="174.86426" y1="109.46546" y2="118.12492"><stop offset="0" stop-color="#909090"/><stop offset="1" stop-color="#727272" stop-opacity="0"/></linearGradient><radialGradient id="f" cx="178.78711" cy="120.70432" gradientTransform="matrix(3.8591081 -.00000023 0 .13879872 -511.17169 103.95076)" gradientUnits="userSpaceOnUse" r="22.055489" xlink:href="#a"/><filter id="g" color-interpolation-filters="sRGB" height="2.008" width="1.08173" x="-.040865" y="-.504"><feGaussianBlur stdDeviation=".32830532"/></filter><filter id="h" color-interpolation-filters="sRGB" height="1.4909" width="1.160934" x="-.080467" y="-.24545"><feGaussianBlur stdDeviation="1.4789442"/></filter><linearGradient id="i" gradientUnits="userSpaceOnUse" x1="183.0631" x2="183.0631" xlink:href="#a" y1="129.42332" y2="127.06073"/><linearGradient id="j" gradientUnits="userSpaceOnUse" x1="58.344025" x2="57.836067" y1="14.57446" y2="100.92491"><stop offset="0" stop-color="#8ce9f0"/><stop offset="1" stop-color="#007eff" stop-opacity=".808219"/></linearGradient><linearGradient id="k" gradientUnits="userSpaceOnUse" x1="101.06722" x2="100.04187" y1="82.005394" y2="10.693499"><stop offset="0" stop-color="#3f3f3f"/><stop offset="1" stop-color="#060707" stop-opacity=".85098"/></linearGradient><filter id="l" color-interpolation-filters="sRGB" height="1.390281" width="1.313985" x="-.156992" y="-.195141"><feGaussianBlur stdDeviation="5.9622046"/></filter><rect fill="#1a1a1a" filter="url(#d)" height="106.44971" opacity=".887" rx="5.66165" width="124.29584" x="5.156375" y="6.278809"/><rect fill="url(#b)" height="106.44971" rx="5.66165" width="124.29584" x="5.156375" y="6.278809"/><rect fill="url(#c)" height="106.44971" rx="5.66165" width="124.29584" x="5.156375" y="6.278809"/><path d="m10.817921 6.2780044c-3.1365599 0-5.6621099 2.5255549-5.6621099 5.6621086v78.164063h124.2968689v-78.164063c0-3.1365537-2.52555-5.6621086-5.66211-5.6621086z" fill="#080808"/><path d="m10.317644 12.353147h113.49406v73.328949h-113.49406z" fill="url(#j)"/><path d="m5.1558111 106.01043v1.05664c0 3.13655 2.52555 5.6621 5.6621099 5.6621h112.972649c3.13656 0 5.66211-2.52555 5.66211-5.6621v-1.05664c0 3.13655-2.52555 5.6621-5.66211 5.6621h-112.972649c-3.1365599 0-5.6621099-2.52555-5.6621099-5.6621z" fill="#afafaf"/><g transform="translate(-111.48282 -1.473949)"><path d="m194.33847 114.94773c-.0882 3.69949-.94643 7.82167 4.95064 11.33436 4.7067 2.92579-2.61144 3.12671-4.42952 3.12671h-5.66718c-8.82592 0-17.65185 0-26.47777 0-1.81808 0-9.13622-.20092-4.42952-3.12671 5.89706-3.51269 5.03886-7.63487 4.95064-11.33436z" filter="url(#h)"/><path d="m194.33847 113.47378c-.0882 3.69949-.94643 7.82167 4.95064 11.33436 4.7067 2.92579-2.61144 3.12671-4.42952 3.12671-10.49206.46272-21.16242.7623-32.14495 0-1.81808 0-9.13622-.20092-4.42952-3.12671 5.89706-3.51269 5.03886-7.63487 4.95064-11.33436z" fill="#e0e1e6"/><path d="m194.33847 113.47378c-.0882 3.69949-.94643 7.82167 4.95064 11.33436 4.7067 2.92579-2.61144 3.12671-4.42952 3.12671h-5.66718c-8.82592 0-17.65185 0-26.47777 0-1.81808 0-9.13622-.20092-4.42952-3.12671 5.89706-3.51269 5.03886-7.63487 4.95064-11.33436z" fill="url(#e)"/><path d="m194.33847 113.47378c-.0882 3.69949-.94643 7.82167 4.95064 11.33436 4.7067 2.92579-2.61144 3.12671-4.42952 3.12671h-5.66718c-8.82592 0-17.65185 0-26.47777 0-1.81808 0-9.13622-.20092-4.42952-3.12671 5.89706-3.51269 5.03886-7.63487 4.95064-11.33436z" fill="url(#f)"/><ellipse cx="178.28802" cy="127.15317" fill="#fff" filter="url(#g)" opacity=".887" rx="15.763866" ry=".781679"/><path d="m194.33847 113.47378c-.0882 3.69949-.94643 7.82167 4.95064 11.33436 4.7067 2.92579-2.61144 3.12671-4.42952 3.12671h-5.66718c-8.82592 0-17.65185 0-26.47777 0-1.81808 0-9.13622-.20092-4.42952-3.12671 5.89706-3.51269 5.03886-7.63487 4.95064-11.33436z" fill="url(#i)"/></g><path d="m71.574021 102.89623c-.16003.36969-.34945.70998-.56891 1.02284-.29914.42652-.54408.72174-.73285.8857-.29261.26911-.60613.4069-.94186.41475-.24102 0-.53167-.0687-.87001-.2077-.33945-.13848-.6514-.20705-.93664-.20705-.29915 0-.61998.0687-.96315.20705-.3437.13913-.62057.21162-.83226.21882-.32195.0137-.64285-.12802-.96316-.42587-.20444-.1783-.46015-.48401-.76648-.91705-.32868-.46244-.59889-.99867-.81058-1.61005-.22671-.66033-.34036-1.29979-.34036-1.91887 0-.709129.15323-1.320749.46015-1.833297.24121-.41168.56211-.73643.96374-.97484.40163-.2384.83559-.35988 1.30293-.36765.25572 0 .59105.0791 1.00777.23454.41554.15598.68236.23507.79934.23507.0875 0 .38386-.0925.88634-.27687.47518-.171.87622-.2418 1.20476-.21391.89026.0718 1.5591.4228 2.00391 1.05506-.79621.482408-1.19007 1.158128-1.18223 2.024917.007.6752.25212 1.23703.7335 1.68314.21816.20707.46179.36709.73285.48075-.0588.17044-.12084.33376-.1868.49052zm-2.04179-8.034565c0 .5292-.19334 1.02331-.5787 1.480648-.46506.5437-1.02756.85787-1.63755.80829-.008-.0634-.0123-.13031-.0123-.20052 0-.50803.22116-1.051724.61391-1.496261.19608-.225079.44546-.412238.74787-.561532.30176-.147062.5872-.228391.85564-.242321.008.07076.0112.141499.0112.211686z" fill="#1e1f28" stroke-width=".065316"/><path d="m67.064453 12.353516v6.185546h-.027344v8.222657c.009106-.000698.018238-.00126.027344-.001953.531618-.04054 1.063129-.073597 1.597656-.091797 20.941252-.705789 34.585941 17.173828 34.585941 17.173828s-3.00046 3.648448-7.742191 7.751953c-1.354781 1.17243-2.85105 2.380304-4.460937 3.552734-5.634605 4.103506-12.651952 7.751954-19.794922 7.751954-.374289 0-.743044-.008726-1.105469-.025391-.357693-.016363-.708157-.041041-1.054687-.072266-.61643-.055714-1.208414-.141287-1.791016-.238281-.076243-.012693-.158691-.017922-.234375-.03125-.00884-.001557-.018512-.002341-.027344-.003906v5.083984c.008929.001134.018411.000827.027344.001953.553946.069834 1.116523.125895 1.691406.164063.584669.039232 1.179713.060547 1.789063.060547 15.193159 0 26.181297-7.758004 36.820308-16.941407 1.76392 1.412689 8.98427 4.849041 10.46875 6.353516-10.11569 8.469101-33.691053 15.294922-47.056636 15.294922-.644141 0-1.27459-.018412-1.896485-.052734-.612776-.033657-1.217194-.083122-1.816406-.140626-.009016-.000865-.01833-.001083-.027344-.001953v7.146485h.027344v1.005859 5.179688h56.748047v-5.179688-1.005859-60.957032-6.185546zm-.027344 59.996093v-4.738281c-18.592938-2.33906-24.958984-22.830078-24.958984-22.830078s8.32908-12.289238 24.958984-13.560547v-4.458984c-18.419729 1.479307-34.371093 17.080078-34.371093 17.080078s9.034851 26.116567 34.371093 28.507812zm0-41.128906v5.507813c.009004-.000964.018337-.000995.027344-.001954.196449-.020911.397577-.032705.595703-.050781.289343-.026493.577072-.057507.871094-.076172.505062-.031783 1.018716-.050966 1.542969-.050781 4.220139 0 7.688633 1.436482 10.255859 3.052734.733493.461787 1.393789.938605 1.976563 1.400391 2.039708 1.616252 3.134765 3.052734 3.134765 3.052735l-7.83789 6.609374c-.83419-1.390607-1.53441-2.583844-2.199219-3.625-.036133-.056587-.075406-.126027-.111328-.18164-.001358-.002101-.002549-.00376-.003907-.00586-.347602-.537923-.68439-1.028848-1.027343-1.478515-.001454-.001906-.002452-.003955-.003907-.005859-.170455-.223306-.343233-.436158-.517578-.638672-.001838-.002135-.00402-.003727-.005859-.00586-.174308-.202201-.349701-.394069-.53125-.576172-.001974-.00198-.003885-.003881-.005859-.005859-.181246-.181496-.3668-.353473-.558594-.515625-.00249-.002105-.005321-.003757-.007813-.005859-.191908-.161873-.38991-.313827-.595703-.457032-.002646-.001842-.005163-.004019-.007812-.005859-.204857-.142176-.418742-.276018-.640625-.400391-.156225-.087568-.324199-.165124-.490235-.24414-.074073-.035252-.142561-.075794-.21875-.109375-.004412-.001945-.009252-.00392-.013672-.00586-.404167-.177304-.847768-.324742-1.320312-.457031-.105864-.029641-.2047-.064323-.314453-.091797-.292686-.073226-.601291-.139014-.923828-.197265-.007451-.001346-.015971-.002569-.023438-.003907-.322788-.057787-.661788-.108831-1.017578-.152343-.009551-.001168-.017768-.002749-.027344-.003907v-4.761718c-11.205653 1.212092-17.953125 8.685546-17.953125 8.685546 0 .000001 3.900998 14.608045 17.953125 17.113282v-4.339844c.008857.002976.018474.004852.027344.007812.327248.109213.662233.20706 1.007813.292969.189803.047287.388519.081402.583984.121094.524559.106288 1.062216.194139 1.628906.240234.390712.031899.79154.048828 1.203125.048829 11.44141 0 22.111328-14.820313 22.111328-14.820313s-.14441-.1961-.425781-.541016c-.105584-.12987-.297357-.337929-.443359-.509765-.259283-.305159-.498279-.59089-.88086-1.003906-.133377-.144013-.289566-.302469-.4375-.457032-.146411-.152955-.279013-.297001-.439453-.458984-.185024-.186905-.39229-.382967-.595703-.580078-.193781-.18776-.381634-.37115-.591797-.566406-.152962-.142123-.320917-.288286-.482422-.433594-.2746-.247094-.548788-.492364-.847656-.746094-.189429-.160827-.394756-.321951-.59375-.484375-.288907-.235836-.576059-.469969-.884766-.707031-.245507-.188552-.505888-.374613-.763671-.5625-.291543-.212484-.579774-.422922-.886719-.632813-.284839-.194827-.583016-.383155-.88086-.574219-.317625-.203747-.63468-.405785-.966796-.603515-.304277-.181177-.619354-.354613-.935547-.529297-.343279-.189652-.685935-.376335-1.042969-.556641-.546076-.275829-1.098423-.544222-1.675781-.792968-.130106-.056049-.262871-.109586-.394531-.164063-.22569-.093393-.451432-.186904-.681641-.27539-.141409-.054353-.286593-.10386-.429688-.15625-.229881-.084167-.459175-.169229-.693359-.248047-.20534-.069113-.414443-.132517-.623047-.197266-.177513-.055101-.353353-.11228-.533203-.164063-.222674-.064105-.449568-.120917-.675781-.179687-.181663-.0472-.361005-.097026-.544922-.140625-.218838-.051873-.44207-.096025-.664063-.142578-.198974-.041737-.396179-.087721-.597656-.125-.174941-.032357-.354443-.057064-.53125-.085938-.25462-.041589-.507184-.085061-.765625-.11914-.005158-.00068-.010466-.001276-.015625-.001953-.411762-.054045-.828742-.098952-1.25-.132813-.00385-.000309-.007868.000308-.011719 0-.44636-.035666-.896772-.060847-1.353515-.072266-.460329-.01151-.925897-.010863-1.396485.003907-.541439.0171-1.071362.045561-1.597656.082031-.009017.000625-.018329.001323-.027344.001953zm-1.109375 10.205078c.356722-.00147.720308.018388 1.087891.0625.006398 0 .012184.001567.019531.001953v16.697266c-7.920712-2.662567-10.496093-11.912109-10.496094-11.912109 0 0 4.037841-4.827551 9.388672-4.84961z" fill="#0f5a82" filter="url(#l)" opacity=".645"/><path d="m67.064453 12.353516v6.185546h-.027344v8.222657c.009106-.000698.018238-.00126.027344-.001953.531618-.04054 1.063129-.073597 1.597656-.091797 20.941252-.705789 34.585941 17.173828 34.585941 17.173828s-3.00046 3.648448-7.742191 7.751953c-1.354781 1.17243-2.85105 2.380304-4.460937 3.552734-5.634605 4.103506-12.651952 7.751954-19.794922 7.751954-.374289 0-.743044-.008726-1.105469-.025391-.357693-.016363-.708157-.041041-1.054687-.072266-.61643-.055714-1.208414-.141287-1.791016-.238281-.076243-.012693-.158691-.017922-.234375-.03125-.00884-.001557-.018512-.002341-.027344-.003906v5.083984c.008929.001134.018411.000827.027344.001953.553946.069834 1.116523.125895 1.691406.164063.584669.039232 1.179713.060547 1.789063.060547 15.193159 0 26.181297-7.758004 36.820308-16.941407 1.76392 1.412689 8.98427 4.849041 10.46875 6.353516-10.11569 8.469101-33.691053 15.294922-47.056636 15.294922-.644141 0-1.27459-.018412-1.896485-.052734-.612776-.033657-1.217194-.083122-1.816406-.140626-.009016-.000865-.01833-.001083-.027344-.001953v7.146485h.027344v1.005859 5.179688h56.748047v-5.179688-1.005859-60.957032-6.185546zm-.027344 59.996093v-4.738281c-18.592938-2.33906-24.958984-22.830078-24.958984-22.830078s8.32908-12.289238 24.958984-13.560547v-4.458984c-18.419729 1.479307-34.371093 17.080078-34.371093 17.080078s9.034851 26.116567 34.371093 28.507812zm0-41.128906v5.507813c.009004-.000964.018337-.000995.027344-.001954.196449-.020911.397577-.032705.595703-.050781.289343-.026493.577072-.057507.871094-.076172.505062-.031783 1.018716-.050966 1.542969-.050781 4.220139 0 7.688633 1.436482 10.255859 3.052734.733493.461787 1.393789.938605 1.976563 1.400391 2.039708 1.616252 3.134765 3.052734 3.134765 3.052735l-7.83789 6.609374c-.83419-1.390607-1.53441-2.583844-2.199219-3.625-.036133-.056587-.075406-.126027-.111328-.18164-.001358-.002101-.002549-.00376-.003907-.00586-.347602-.537923-.68439-1.028848-1.027343-1.478515-.001454-.001906-.002452-.003955-.003907-.005859-.170455-.223306-.343233-.436158-.517578-.638672-.001838-.002135-.00402-.003727-.005859-.00586-.174308-.202201-.349701-.394069-.53125-.576172-.001974-.00198-.003885-.003881-.005859-.005859-.181246-.181496-.3668-.353473-.558594-.515625-.00249-.002105-.005321-.003757-.007813-.005859-.191908-.161873-.38991-.313827-.595703-.457032-.002646-.001842-.005163-.004019-.007812-.005859-.204857-.142176-.418742-.276018-.640625-.400391-.156225-.087568-.324199-.165124-.490235-.24414-.074073-.035252-.142561-.075794-.21875-.109375-.004412-.001945-.009252-.00392-.013672-.00586-.404167-.177304-.847768-.324742-1.320312-.457031-.105864-.029641-.2047-.064323-.314453-.091797-.292686-.073226-.601291-.139014-.923828-.197265-.007451-.001346-.015971-.002569-.023438-.003907-.322788-.057787-.661788-.108831-1.017578-.152343-.009551-.001168-.017768-.002749-.027344-.003907v-4.761718c-11.205653 1.212092-17.953125 8.685546-17.953125 8.685546 0 .000001 3.900998 14.608045 17.953125 17.113282v-4.339844c.008857.002976.018474.004852.027344.007812.327248.109213.662233.20706 1.007813.292969.189803.047287.388519.081402.583984.121094.524559.106288 1.062216.194139 1.628906.240234.390712.031899.79154.048828 1.203125.048829 11.44141 0 22.111328-14.820313 22.111328-14.820313s-.14441-.1961-.425781-.541016c-.105584-.12987-.297357-.337929-.443359-.509765-.259283-.305159-.498279-.59089-.88086-1.003906-.133377-.144013-.289566-.302469-.4375-.457032-.146411-.152955-.279013-.297001-.439453-.458984-.185024-.186905-.39229-.382967-.595703-.580078-.193781-.18776-.381634-.37115-.591797-.566406-.152962-.142123-.320917-.288286-.482422-.433594-.2746-.247094-.548788-.492364-.847656-.746094-.189429-.160827-.394756-.321951-.59375-.484375-.288907-.235836-.576059-.469969-.884766-.707031-.245507-.188552-.505888-.374613-.763671-.5625-.291543-.212484-.579774-.422922-.886719-.632813-.284839-.194827-.583016-.383155-.88086-.574219-.317625-.203747-.63468-.405785-.966796-.603515-.304277-.181177-.619354-.354613-.935547-.529297-.343279-.189652-.685935-.376335-1.042969-.556641-.546076-.275829-1.098423-.544222-1.675781-.792968-.130106-.056049-.262871-.109586-.394531-.164063-.22569-.093393-.451432-.186904-.681641-.27539-.141409-.054353-.286593-.10386-.429688-.15625-.229881-.084167-.459175-.169229-.693359-.248047-.20534-.069113-.414443-.132517-.623047-.197266-.177513-.055101-.353353-.11228-.533203-.164063-.222674-.064105-.449568-.120917-.675781-.179687-.181663-.0472-.361005-.097026-.544922-.140625-.218838-.051873-.44207-.096025-.664063-.142578-.198974-.041737-.396179-.087721-.597656-.125-.174941-.032357-.354443-.057064-.53125-.085938-.25462-.041589-.507184-.085061-.765625-.11914-.005158-.00068-.010466-.001276-.015625-.001953-.411762-.054045-.828742-.098952-1.25-.132813-.00385-.000309-.007868.000308-.011719 0-.44636-.035666-.896772-.060847-1.353515-.072266-.460329-.01151-.925897-.010863-1.396485.003907-.541439.0171-1.071362.045561-1.597656.082031-.009017.000625-.018329.001323-.027344.001953zm-1.109375 10.205078c.356722-.00147.720308.018388 1.087891.0625.006398 0 .012184.001567.019531.001953v16.697266c-7.920712-2.662567-10.496093-11.912109-10.496094-11.912109 0 0 4.037841-4.827551 9.388672-4.84961z" fill="url(#k)"/><path d="m10.317921 12.352223v73.330078h113.494139v-73.330078zm.55273.507812h112.480469v72.361328h-112.480469z" fill-opacity=".211982"/><path d="m10.818359 6.2773438c-3.1365595 0-5.662109 2.5255556-5.662109 5.6621092v78.164063h124.29687v-78.164063c0-3.1365536-2.52554-5.6621092-5.6621-5.6621092zm-.5 6.0761722h113.494141v73.328125h-113.494141z" fill="#080808"/></svg>