<?xml version="1.0" encoding="UTF-8" standalone="no"?>
<!-- Created with Inkscape (http://www.inkscape.org/) -->

<svg
   xmlns:dc="http://purl.org/dc/elements/1.1/"
   xmlns:cc="http://creativecommons.org/ns#"
   xmlns:rdf="http://www.w3.org/1999/02/22-rdf-syntax-ns#"
   xmlns:svg="http://www.w3.org/2000/svg"
   xmlns="http://www.w3.org/2000/svg"
   xmlns:xlink="http://www.w3.org/1999/xlink"
   xmlns:sodipodi="http://sodipodi.sourceforge.net/DTD/sodipodi-0.dtd"
   xmlns:inkscape="http://www.inkscape.org/namespaces/inkscape"
   version="1.1"
   id="svg2"
   width="136.53333"
   height="136.53333"
   viewBox="0 0 136.53333 136.53333"
   sodipodi:docname="nvidia.svg"
   inkscape:version="0.92.3 (2405546, 2018-03-11)">
  <metadata
     id="metadata8">
    <rdf:RDF>
      <cc:Work
         rdf:about="">
        <dc:format>image/svg+xml</dc:format>
        <dc:type
           rdf:resource="http://purl.org/dc/dcmitype/StillImage" />
        <dc:title></dc:title>
      </cc:Work>
    </rdf:RDF>
  </metadata>
  <defs
     id="defs6">
    <linearGradient
       inkscape:collect="always"
       id="linearGradient1066">
      <stop
         style="stop-color:#00ffa6;stop-opacity:1;"
         offset="0"
         id="stop1062" />
      <stop
         style="stop-color:#88ffc2;stop-opacity:0.85253453"
         offset="1"
         id="stop1064" />
    </linearGradient>
    <linearGradient
       inkscape:collect="always"
       id="linearGradient1058">
      <stop
         style="stop-color:#8ce9f0;stop-opacity:1"
         offset="0"
         id="stop1054" />
      <stop
         style="stop-color:#007eff;stop-opacity:0.80821919"
         offset="1"
         id="stop1056" />
    </linearGradient>
    <linearGradient
       id="linearGradient958"
       inkscape:collect="always">
      <stop
         id="stop954"
         offset="0"
         style="stop-color:#909090;stop-opacity:1;" />
      <stop
         id="stop956"
         offset="1"
         style="stop-color:#636363;stop-opacity:0" />
    </linearGradient>
    <linearGradient
       inkscape:collect="always"
       id="linearGradient946">
      <stop
         style="stop-color:#909090;stop-opacity:1;"
         offset="0"
         id="stop942" />
      <stop
         style="stop-color:#727272;stop-opacity:0"
         offset="1"
         id="stop944" />
    </linearGradient>
    <linearGradient
       id="linearGradient903"
       inkscape:collect="always">
      <stop
         id="stop899"
         offset="0"
         style="stop-color:#ececef;stop-opacity:1" />
      <stop
         id="stop901"
         offset="1"
         style="stop-color:#cbccce;stop-opacity:0" />
    </linearGradient>
    <linearGradient
       inkscape:collect="always"
       id="linearGradient885">
      <stop
         style="stop-color:#e6e6e8;stop-opacity:1;"
         offset="0"
         id="stop881" />
      <stop
         style="stop-color:#cbccce;stop-opacity:1"
         offset="1"
         id="stop883" />
    </linearGradient>
    <radialGradient
       inkscape:collect="always"
       xlink:href="#linearGradient885"
       id="radialGradient887"
       cx="199.2227"
       cy="60.977612"
       fx="199.2227"
       fy="60.977612"
       r="62.147919"
       gradientTransform="matrix(1.0118581,2.9321519e-8,-1.4766548e-7,5.095797,-134.28081,-251.22589)"
       gradientUnits="userSpaceOnUse" />
    <radialGradient
       inkscape:collect="always"
       xlink:href="#linearGradient903"
       id="radialGradient897"
       cx="199.2227"
       cy="60.977612"
       fx="199.2227"
       fy="60.977612"
       r="62.147919"
       gradientTransform="matrix(1.3102503,-3.6842513e-8,1.0165287e-7,3.6151362,-193.72731,-160.9387)"
       gradientUnits="userSpaceOnUse" />
    <filter
       inkscape:collect="always"
       style="color-interpolation-filters:sRGB"
       id="filter932"
       x="-0.014480093"
       width="1.0289602"
       y="-0.016907658"
       height="1.0338153">
      <feGaussianBlur
         inkscape:collect="always"
         stdDeviation="0.74992302"
         id="feGaussianBlur934" />
    </filter>
    <linearGradient
       inkscape:collect="always"
       xlink:href="#linearGradient946"
       id="linearGradient948"
       x1="174.78751"
       y1="109.46546"
       x2="174.86426"
       y2="118.12492"
       gradientUnits="userSpaceOnUse" />
    <radialGradient
       inkscape:collect="always"
       xlink:href="#linearGradient958"
       id="radialGradient952"
       cx="178.78711"
       cy="120.70432"
       fx="178.78711"
       fy="120.70432"
       r="22.055489"
       gradientTransform="matrix(3.8591081,-2.3057841e-7,0,0.13879872,-511.17169,103.95076)"
       gradientUnits="userSpaceOnUse" />
    <filter
       inkscape:collect="always"
       style="color-interpolation-filters:sRGB"
       id="filter974"
       x="-0.040864865"
       width="1.0817297"
       y="-0.504"
       height="2.008">
      <feGaussianBlur
         inkscape:collect="always"
         stdDeviation="0.32830532"
         id="feGaussianBlur976" />
    </filter>
    <filter
       inkscape:collect="always"
       style="color-interpolation-filters:sRGB"
       id="filter988"
       x="-0.080466729"
       width="1.1609335"
       y="-0.24544975"
       height="1.4908995">
      <feGaussianBlur
         inkscape:collect="always"
         stdDeviation="1.4789442"
         id="feGaussianBlur990" />
    </filter>
    <linearGradient
       inkscape:collect="always"
       xlink:href="#linearGradient958"
       id="linearGradient994"
       x1="183.0631"
       y1="129.42332"
       x2="183.0631"
       y2="127.06073"
       gradientUnits="userSpaceOnUse" />
    <linearGradient
       inkscape:collect="always"
       xlink:href="#linearGradient1058"
       id="linearGradient1060"
       x1="58.344025"
       y1="14.57446"
       x2="57.836067"
       y2="100.92491"
       gradientUnits="userSpaceOnUse" />
    <linearGradient
       inkscape:collect="always"
       xlink:href="#linearGradient1066"
       id="linearGradient1068"
       x1="101.06722"
       y1="82.005394"
       x2="100.04187"
       y2="10.693499"
       gradientUnits="userSpaceOnUse" />
    <filter
       inkscape:collect="always"
       style="color-interpolation-filters:sRGB"
       id="filter1080"
       x="-0.15699224"
       width="1.3139845"
       y="-0.19514055"
       height="1.3902811">
      <feGaussianBlur
         inkscape:collect="always"
         stdDeviation="5.9622046"
         id="feGaussianBlur1082" />
    </filter>
  </defs>
  <sodipodi:namedview
     pagecolor="#ffffff"
     bordercolor="#666666"
     borderopacity="1"
     objecttolerance="10"
     gridtolerance="10"
     guidetolerance="10"
     inkscape:pageopacity="0"
     inkscape:pageshadow="2"
     inkscape:window-width="1360"
     inkscape:window-height="718"
     id="namedview4"
     showgrid="false"
     inkscape:zoom="4"
     inkscape:cx="23.511319"
     inkscape:cy="65.25348"
     inkscape:window-x="0"
     inkscape:window-y="26"
     inkscape:window-maximized="1"
     inkscape:current-layer="svg2" />
  <rect
     style="opacity:0.88700005;fill:#1a1a1a;fill-opacity:1;stroke:none;stroke-width:2.64566922;stroke-linecap:round;stroke-linejoin:round;stroke-miterlimit:4;stroke-dasharray:none;stroke-dashoffset:0;stroke-opacity:1;filter:url(#filter932)"
     id="rect922"
     width="124.29584"
     height="106.44971"
     x="5.1563745"
     y="6.2788091"
     rx="5.6616502"
     ry="5.6616502" />
  <rect
     style="opacity:1;fill:url(#radialGradient887);fill-opacity:1;stroke:none;stroke-width:2.64566922;stroke-linecap:round;stroke-linejoin:round;stroke-miterlimit:4;stroke-dasharray:none;stroke-dashoffset:0;stroke-opacity:1"
     id="rect4749"
     width="124.29584"
     height="106.44971"
     x="5.1563745"
     y="6.2788091"
     rx="5.6616502"
     ry="5.6616502" />
  <rect
     ry="5.6616502"
     rx="5.6616502"
     y="6.2788091"
     x="5.1563745"
     height="106.44971"
     width="124.29584"
     id="rect889"
     style="opacity:1;fill:url(#radialGradient897);fill-opacity:1;stroke:none;stroke-width:2.64566922;stroke-linecap:round;stroke-linejoin:round;stroke-miterlimit:4;stroke-dasharray:none;stroke-dashoffset:0;stroke-opacity:1" />
  <path
     style="opacity:1;fill:#080808;fill-opacity:1;stroke:none;stroke-width:2.64566922;stroke-linecap:round;stroke-linejoin:round;stroke-miterlimit:4;stroke-dasharray:none;stroke-dashoffset:0;stroke-opacity:1"
     d="m 10.817921,6.2780044 c -3.1365599,0 -5.6621099,2.5255549 -5.6621099,5.6621086 V 90.104176 H 129.45268 V 11.940113 c 0,-3.1365537 -2.52555,-5.6621086 -5.66211,-5.6621086 z"
     id="rect905"
     inkscape:connector-curvature="0" />
  <rect
     style="opacity:1;fill:url(#linearGradient1060);fill-opacity:1;stroke:none;stroke-width:3;stroke-linecap:round;stroke-linejoin:round;stroke-miterlimit:4;stroke-dasharray:none;stroke-dashoffset:0;stroke-opacity:1"
     id="rect910"
     width="113.49406"
     height="73.328949"
     x="10.317644"
     y="12.353147" />
  <path
     style="opacity:1;fill:#afafaf;fill-opacity:1;stroke:none;stroke-width:2.64566922;stroke-linecap:round;stroke-linejoin:round;stroke-miterlimit:4;stroke-dasharray:none;stroke-dashoffset:0;stroke-opacity:1"
     d="m 5.1558111,106.01043 v 1.05664 c 0,3.13655 2.52555,5.6621 5.6621099,5.6621 H 123.79057 c 3.13656,0 5.66211,-2.52555 5.66211,-5.6621 v -1.05664 c 0,3.13655 -2.52555,5.6621 -5.66211,5.6621 H 10.817921 c -3.1365599,0 -5.6621099,-2.52555 -5.6621099,-5.6621 z"
     id="rect912"
     inkscape:connector-curvature="0" />
  <g
     id="g1002"
     transform="translate(-111.48282,-1.4739487)">
    <path
       style="fill:#000000;fill-opacity:1;stroke:none;stroke-width:1px;stroke-linecap:butt;stroke-linejoin:miter;stroke-opacity:1;filter:url(#filter988)"
       d="m 194.33847,114.94773 c -0.0882,3.69949 -0.94643,7.82167 4.95064,11.33436 4.7067,2.92579 -2.61144,3.12671 -4.42952,3.12671 h -5.66718 c -8.82592,0 -17.65185,0 -26.47777,0 -1.81808,0 -9.13622,-0.20092 -4.42952,-3.12671 5.89706,-3.51269 5.03886,-7.63487 4.95064,-11.33436 z"
       id="path978"
       inkscape:connector-curvature="0"
       sodipodi:nodetypes="ccsccccc" />
    <path
       sodipodi:nodetypes="ccccccc"
       inkscape:connector-curvature="0"
       id="path936"
       d="m 194.33847,113.47378 c -0.0882,3.69949 -0.94643,7.82167 4.95064,11.33436 4.7067,2.92579 -2.61144,3.12671 -4.42952,3.12671 -10.49206,0.46272 -21.16242,0.7623 -32.14495,0 -1.81808,0 -9.13622,-0.20092 -4.42952,-3.12671 5.89706,-3.51269 5.03886,-7.63487 4.95064,-11.33436 z"
       style="fill:#e0e1e6;fill-opacity:1;stroke:none;stroke-width:1px;stroke-linecap:butt;stroke-linejoin:miter;stroke-opacity:1" />
    <path
       style="fill:url(#linearGradient948);fill-opacity:1;stroke:none;stroke-width:1px;stroke-linecap:butt;stroke-linejoin:miter;stroke-opacity:1"
       d="m 194.33847,113.47378 c -0.0882,3.69949 -0.94643,7.82167 4.95064,11.33436 4.7067,2.92579 -2.61144,3.12671 -4.42952,3.12671 h -5.66718 c -8.82592,0 -17.65185,0 -26.47777,0 -1.81808,0 -9.13622,-0.20092 -4.42952,-3.12671 5.89706,-3.51269 5.03886,-7.63487 4.95064,-11.33436 z"
       id="path940"
       inkscape:connector-curvature="0"
       sodipodi:nodetypes="ccsccccc" />
    <path
       sodipodi:nodetypes="ccsccccc"
       inkscape:connector-curvature="0"
       id="path950"
       d="m 194.33847,113.47378 c -0.0882,3.69949 -0.94643,7.82167 4.95064,11.33436 4.7067,2.92579 -2.61144,3.12671 -4.42952,3.12671 h -5.66718 c -8.82592,0 -17.65185,0 -26.47777,0 -1.81808,0 -9.13622,-0.20092 -4.42952,-3.12671 5.89706,-3.51269 5.03886,-7.63487 4.95064,-11.33436 z"
       style="fill:url(#radialGradient952);fill-opacity:1;stroke:none;stroke-width:1px;stroke-linecap:butt;stroke-linejoin:miter;stroke-opacity:1" />
    <ellipse
       cx="178.28802"
       cy="127.15317"
       rx="15.763866"
       ry="0.78167933"
       id="path960"
       style="opacity:0.88700005;fill:#ffffff;fill-opacity:1;stroke:none;stroke-width:3;stroke-linecap:round;stroke-linejoin:round;stroke-miterlimit:4;stroke-dasharray:none;stroke-dashoffset:0;stroke-opacity:1;filter:url(#filter974)" />
    <path
       style="fill:url(#linearGradient994);fill-opacity:1;stroke:none;stroke-width:1px;stroke-linecap:butt;stroke-linejoin:miter;stroke-opacity:1"
       d="m 194.33847,113.47378 c -0.0882,3.69949 -0.94643,7.82167 4.95064,11.33436 4.7067,2.92579 -2.61144,3.12671 -4.42952,3.12671 h -5.66718 c -8.82592,0 -17.65185,0 -26.47777,0 -1.81808,0 -9.13622,-0.20092 -4.42952,-3.12671 5.89706,-3.51269 5.03886,-7.63487 4.95064,-11.33436 z"
       id="path992"
       inkscape:connector-curvature="0"
       sodipodi:nodetypes="ccsccccc" />
  </g>
  <path
     id="path1004"
     d="m 71.574021,102.89623 c -0.16003,0.36969 -0.34945,0.70998 -0.56891,1.02284 -0.29914,0.42652 -0.54408,0.72174 -0.73285,0.8857 -0.29261,0.26911 -0.60613,0.4069 -0.94186,0.41475 -0.24102,0 -0.53167,-0.0687 -0.87001,-0.2077 -0.33945,-0.13848 -0.6514,-0.20705 -0.93664,-0.20705 -0.29915,0 -0.61998,0.0687 -0.96315,0.20705 -0.3437,0.13913 -0.62057,0.21162 -0.83226,0.21882 -0.32195,0.0137 -0.64285,-0.12802 -0.96316,-0.42587 -0.20444,-0.1783 -0.46015,-0.48401 -0.76648,-0.91705 -0.32868,-0.46244 -0.59889,-0.99867 -0.81058,-1.61005 -0.22671,-0.66033 -0.34036,-1.29979 -0.34036,-1.91887 0,-0.709129 0.15323,-1.320749 0.46015,-1.833297 0.24121,-0.41168 0.56211,-0.73643 0.96374,-0.97484 0.40163,-0.2384 0.83559,-0.35988 1.30293,-0.36765 0.25572,0 0.59105,0.0791 1.00777,0.23454 0.41554,0.15598 0.68236,0.23507 0.79934,0.23507 0.0875,0 0.38386,-0.0925 0.88634,-0.27687 0.47518,-0.171 0.87622,-0.2418 1.20476,-0.21391 0.89026,0.0718 1.5591,0.4228 2.00391,1.05506 -0.79621,0.482408 -1.19007,1.158128 -1.18223,2.024917 0.007,0.6752 0.25212,1.23703 0.7335,1.68314 0.21816,0.20707 0.46179,0.36709 0.73285,0.48075 -0.0588,0.17044 -0.12084,0.33376 -0.1868,0.49052 z m -2.04179,-8.034565 c 0,0.5292 -0.19334,1.02331 -0.5787,1.480648 -0.46506,0.5437 -1.02756,0.85787 -1.63755,0.80829 -0.008,-0.0634 -0.0123,-0.13031 -0.0123,-0.20052 0,-0.50803 0.22116,-1.051724 0.61391,-1.496261 0.19608,-0.225079 0.44546,-0.412238 0.74787,-0.561532 0.30176,-0.147062 0.5872,-0.228391 0.85564,-0.242321 0.008,0.07076 0.0112,0.141499 0.0112,0.211686 z"
     inkscape:connector-curvature="0"
     style="fill:#1e1f28;fill-opacity:1;stroke-width:0.06531632" />
  <path
     id="path1070"
     d="M 67.064453 12.353516 L 67.064453 18.539062 L 67.037109 18.539062 L 67.037109 26.761719 C 67.046215 26.761021 67.055347 26.760459 67.064453 26.759766 C 67.596071 26.719226 68.127582 26.686169 68.662109 26.667969 C 89.603361 25.96218 103.24805 43.841797 103.24805 43.841797 C 103.24805 43.841797 100.24759 47.490245 95.505859 51.59375 C 94.151078 52.76618 92.654809 53.974054 91.044922 55.146484 C 85.410317 59.24999 78.39297 62.898438 71.25 62.898438 C 70.875711 62.898438 70.506956 62.889712 70.144531 62.873047 C 69.786838 62.856684 69.436374 62.832006 69.089844 62.800781 C 68.473414 62.745067 67.88143 62.659494 67.298828 62.5625 C 67.222585 62.549807 67.140137 62.544578 67.064453 62.53125 C 67.055613 62.529693 67.045941 62.528909 67.037109 62.527344 L 67.037109 67.611328 C 67.046038 67.612462 67.05552 67.612155 67.064453 67.613281 C 67.618399 67.683115 68.180976 67.739176 68.755859 67.777344 C 69.340528 67.816576 69.935572 67.837891 70.544922 67.837891 C 85.738081 67.837891 96.726219 60.079887 107.36523 50.896484 C 109.12915 52.309173 116.3495 55.745525 117.83398 57.25 C 107.71829 65.719101 84.142927 72.544922 70.777344 72.544922 C 70.133203 72.544922 69.502754 72.52651 68.880859 72.492188 C 68.268083 72.458531 67.663665 72.409066 67.064453 72.351562 C 67.055437 72.350697 67.046123 72.350479 67.037109 72.349609 L 67.037109 79.496094 L 67.064453 79.496094 L 67.064453 80.501953 L 67.064453 85.681641 L 123.8125 85.681641 L 123.8125 80.501953 L 123.8125 79.496094 L 123.8125 18.539062 L 123.8125 12.353516 L 67.064453 12.353516 z M 67.037109 72.349609 L 67.037109 67.611328 C 48.444171 65.272268 42.078125 44.78125 42.078125 44.78125 C 42.078125 44.78125 50.407205 32.492012 67.037109 31.220703 L 67.037109 26.761719 C 48.61738 28.241026 32.666016 43.841797 32.666016 43.841797 C 32.666016 43.841797 41.700867 69.958364 67.037109 72.349609 z M 67.037109 31.220703 L 67.037109 36.728516 C 67.046113 36.727552 67.055446 36.727521 67.064453 36.726562 C 67.260902 36.705651 67.46203 36.693857 67.660156 36.675781 C 67.949499 36.649288 68.237228 36.618274 68.53125 36.599609 C 69.036312 36.567826 69.549966 36.548643 70.074219 36.548828 C 74.294358 36.548828 77.762852 37.98531 80.330078 39.601562 C 81.063571 40.063349 81.723867 40.540167 82.306641 41.001953 C 84.346349 42.618205 85.441406 44.054687 85.441406 44.054688 L 77.603516 50.664062 C 76.769326 49.273455 76.069106 48.080218 75.404297 47.039062 C 75.368164 46.982475 75.328891 46.913035 75.292969 46.857422 C 75.291611 46.855321 75.29042 46.853662 75.289062 46.851562 C 74.94146 46.313639 74.604672 45.822714 74.261719 45.373047 C 74.260265 45.371141 74.259267 45.369092 74.257812 45.367188 C 74.087357 45.143882 73.914579 44.93103 73.740234 44.728516 C 73.738396 44.726381 73.736214 44.724789 73.734375 44.722656 C 73.560067 44.520455 73.384674 44.328587 73.203125 44.146484 C 73.201151 44.144504 73.19924 44.142603 73.197266 44.140625 C 73.01602 43.959129 72.830466 43.787152 72.638672 43.625 C 72.636182 43.622895 72.633351 43.621243 72.630859 43.619141 C 72.438951 43.457268 72.240949 43.305314 72.035156 43.162109 C 72.03251 43.160267 72.029993 43.15809 72.027344 43.15625 C 71.822487 43.014074 71.608602 42.880232 71.386719 42.755859 C 71.230494 42.668291 71.06252 42.590735 70.896484 42.511719 C 70.822411 42.476467 70.753923 42.435925 70.677734 42.402344 C 70.673322 42.400399 70.668482 42.398424 70.664062 42.396484 C 70.259895 42.21918 69.816294 42.071742 69.34375 41.939453 C 69.237886 41.909812 69.13905 41.87513 69.029297 41.847656 C 68.736611 41.77443 68.428006 41.708642 68.105469 41.650391 C 68.098018 41.649045 68.089498 41.647822 68.082031 41.646484 C 67.759243 41.588697 67.420243 41.537653 67.064453 41.494141 C 67.054902 41.492973 67.046685 41.491392 67.037109 41.490234 L 67.037109 36.728516 C 55.831456 37.940608 49.083984 45.414062 49.083984 45.414062 C 49.083984 45.414063 52.984982 60.022107 67.037109 62.527344 L 67.037109 58.1875 C 67.045966 58.190476 67.055583 58.192352 67.064453 58.195312 C 67.391701 58.304525 67.726686 58.402372 68.072266 58.488281 C 68.262069 58.535568 68.460785 58.569683 68.65625 58.609375 C 69.180809 58.715663 69.718466 58.803514 70.285156 58.849609 C 70.675868 58.881508 71.076696 58.898437 71.488281 58.898438 C 82.929691 58.898438 93.599609 44.078125 93.599609 44.078125 C 93.599609 44.078125 93.455199 43.882025 93.173828 43.537109 C 93.068244 43.407239 92.876471 43.19918 92.730469 43.027344 C 92.471186 42.722185 92.23219 42.436454 91.849609 42.023438 C 91.716232 41.879425 91.560043 41.720969 91.412109 41.566406 C 91.265698 41.413451 91.133096 41.269405 90.972656 41.107422 C 90.787632 40.920517 90.580366 40.724455 90.376953 40.527344 C 90.183172 40.339584 89.995319 40.156194 89.785156 39.960938 C 89.632194 39.818815 89.464239 39.672652 89.302734 39.527344 C 89.028134 39.28025 88.753946 39.03498 88.455078 38.78125 C 88.265649 38.620423 88.060322 38.459299 87.861328 38.296875 C 87.572421 38.061039 87.285269 37.826906 86.976562 37.589844 C 86.731055 37.401292 86.470674 37.215231 86.212891 37.027344 C 85.921348 36.81486 85.633117 36.604422 85.326172 36.394531 C 85.041333 36.199704 84.743156 36.011376 84.445312 35.820312 C 84.127687 35.616565 83.810632 35.414527 83.478516 35.216797 C 83.174239 35.03562 82.859162 34.862184 82.542969 34.6875 C 82.19969 34.497848 81.857034 34.311165 81.5 34.130859 C 80.953924 33.85503 80.401577 33.586637 79.824219 33.337891 C 79.694113 33.281842 79.561348 33.228305 79.429688 33.173828 C 79.203998 33.080435 78.978256 32.986924 78.748047 32.898438 C 78.606638 32.844085 78.461454 32.794578 78.318359 32.742188 C 78.088478 32.658021 77.859184 32.572959 77.625 32.494141 C 77.41966 32.425028 77.210557 32.361624 77.001953 32.296875 C 76.82444 32.241774 76.6486 32.184595 76.46875 32.132812 C 76.246076 32.068707 76.019182 32.011895 75.792969 31.953125 C 75.611306 31.905925 75.431964 31.856099 75.248047 31.8125 C 75.029209 31.760627 74.805977 31.716475 74.583984 31.669922 C 74.38501 31.628185 74.187805 31.582201 73.986328 31.544922 C 73.811387 31.512565 73.631885 31.487858 73.455078 31.458984 C 73.200458 31.417395 72.947894 31.373923 72.689453 31.339844 C 72.684295 31.339164 72.678987 31.338568 72.673828 31.337891 C 72.262066 31.283846 71.845086 31.238939 71.423828 31.205078 C 71.419978 31.204769 71.41596 31.205386 71.412109 31.205078 C 70.965749 31.169412 70.515337 31.144231 70.058594 31.132812 C 69.598265 31.121302 69.132697 31.121949 68.662109 31.136719 C 68.12067 31.153819 67.590747 31.18228 67.064453 31.21875 C 67.055436 31.219375 67.046124 31.220073 67.037109 31.220703 z M 65.927734 41.425781 C 66.284456 41.424311 66.648042 41.444169 67.015625 41.488281 C 67.022023 41.488281 67.027809 41.489848 67.035156 41.490234 L 67.035156 58.1875 C 59.114444 55.524933 56.539063 46.275391 56.539062 46.275391 C 56.539062 46.275391 60.576903 41.44784 65.927734 41.425781 z "
     style="opacity:0.645;fill:#0f5a82;fill-opacity:1;stroke:none;stroke-width:3;stroke-linecap:round;stroke-linejoin:round;stroke-miterlimit:4;stroke-dasharray:none;stroke-dashoffset:0;stroke-opacity:1;filter:url(#filter1080)" />
  <path
     style="opacity:1;fill:url(#linearGradient1068);fill-opacity:1;stroke:none;stroke-width:3;stroke-linecap:round;stroke-linejoin:round;stroke-miterlimit:4;stroke-dasharray:none;stroke-dashoffset:0;stroke-opacity:1"
     d="M 67.064453 12.353516 L 67.064453 18.539062 L 67.037109 18.539062 L 67.037109 26.761719 C 67.046215 26.761021 67.055347 26.760459 67.064453 26.759766 C 67.596071 26.719226 68.127582 26.686169 68.662109 26.667969 C 89.603361 25.96218 103.24805 43.841797 103.24805 43.841797 C 103.24805 43.841797 100.24759 47.490245 95.505859 51.59375 C 94.151078 52.76618 92.654809 53.974054 91.044922 55.146484 C 85.410317 59.24999 78.39297 62.898438 71.25 62.898438 C 70.875711 62.898438 70.506956 62.889712 70.144531 62.873047 C 69.786838 62.856684 69.436374 62.832006 69.089844 62.800781 C 68.473414 62.745067 67.88143 62.659494 67.298828 62.5625 C 67.222585 62.549807 67.140137 62.544578 67.064453 62.53125 C 67.055613 62.529693 67.045941 62.528909 67.037109 62.527344 L 67.037109 67.611328 C 67.046038 67.612462 67.05552 67.612155 67.064453 67.613281 C 67.618399 67.683115 68.180976 67.739176 68.755859 67.777344 C 69.340528 67.816576 69.935572 67.837891 70.544922 67.837891 C 85.738081 67.837891 96.726219 60.079887 107.36523 50.896484 C 109.12915 52.309173 116.3495 55.745525 117.83398 57.25 C 107.71829 65.719101 84.142927 72.544922 70.777344 72.544922 C 70.133203 72.544922 69.502754 72.52651 68.880859 72.492188 C 68.268083 72.458531 67.663665 72.409066 67.064453 72.351562 C 67.055437 72.350697 67.046123 72.350479 67.037109 72.349609 L 67.037109 79.496094 L 67.064453 79.496094 L 67.064453 80.501953 L 67.064453 85.681641 L 123.8125 85.681641 L 123.8125 80.501953 L 123.8125 79.496094 L 123.8125 18.539062 L 123.8125 12.353516 L 67.064453 12.353516 z M 67.037109 72.349609 L 67.037109 67.611328 C 48.444171 65.272268 42.078125 44.78125 42.078125 44.78125 C 42.078125 44.78125 50.407205 32.492012 67.037109 31.220703 L 67.037109 26.761719 C 48.61738 28.241026 32.666016 43.841797 32.666016 43.841797 C 32.666016 43.841797 41.700867 69.958364 67.037109 72.349609 z M 67.037109 31.220703 L 67.037109 36.728516 C 67.046113 36.727552 67.055446 36.727521 67.064453 36.726562 C 67.260902 36.705651 67.46203 36.693857 67.660156 36.675781 C 67.949499 36.649288 68.237228 36.618274 68.53125 36.599609 C 69.036312 36.567826 69.549966 36.548643 70.074219 36.548828 C 74.294358 36.548828 77.762852 37.98531 80.330078 39.601562 C 81.063571 40.063349 81.723867 40.540167 82.306641 41.001953 C 84.346349 42.618205 85.441406 44.054687 85.441406 44.054688 L 77.603516 50.664062 C 76.769326 49.273455 76.069106 48.080218 75.404297 47.039062 C 75.368164 46.982475 75.328891 46.913035 75.292969 46.857422 C 75.291611 46.855321 75.29042 46.853662 75.289062 46.851562 C 74.94146 46.313639 74.604672 45.822714 74.261719 45.373047 C 74.260265 45.371141 74.259267 45.369092 74.257812 45.367188 C 74.087357 45.143882 73.914579 44.93103 73.740234 44.728516 C 73.738396 44.726381 73.736214 44.724789 73.734375 44.722656 C 73.560067 44.520455 73.384674 44.328587 73.203125 44.146484 C 73.201151 44.144504 73.19924 44.142603 73.197266 44.140625 C 73.01602 43.959129 72.830466 43.787152 72.638672 43.625 C 72.636182 43.622895 72.633351 43.621243 72.630859 43.619141 C 72.438951 43.457268 72.240949 43.305314 72.035156 43.162109 C 72.03251 43.160267 72.029993 43.15809 72.027344 43.15625 C 71.822487 43.014074 71.608602 42.880232 71.386719 42.755859 C 71.230494 42.668291 71.06252 42.590735 70.896484 42.511719 C 70.822411 42.476467 70.753923 42.435925 70.677734 42.402344 C 70.673322 42.400399 70.668482 42.398424 70.664062 42.396484 C 70.259895 42.21918 69.816294 42.071742 69.34375 41.939453 C 69.237886 41.909812 69.13905 41.87513 69.029297 41.847656 C 68.736611 41.77443 68.428006 41.708642 68.105469 41.650391 C 68.098018 41.649045 68.089498 41.647822 68.082031 41.646484 C 67.759243 41.588697 67.420243 41.537653 67.064453 41.494141 C 67.054902 41.492973 67.046685 41.491392 67.037109 41.490234 L 67.037109 36.728516 C 55.831456 37.940608 49.083984 45.414062 49.083984 45.414062 C 49.083984 45.414063 52.984982 60.022107 67.037109 62.527344 L 67.037109 58.1875 C 67.045966 58.190476 67.055583 58.192352 67.064453 58.195312 C 67.391701 58.304525 67.726686 58.402372 68.072266 58.488281 C 68.262069 58.535568 68.460785 58.569683 68.65625 58.609375 C 69.180809 58.715663 69.718466 58.803514 70.285156 58.849609 C 70.675868 58.881508 71.076696 58.898437 71.488281 58.898438 C 82.929691 58.898438 93.599609 44.078125 93.599609 44.078125 C 93.599609 44.078125 93.455199 43.882025 93.173828 43.537109 C 93.068244 43.407239 92.876471 43.19918 92.730469 43.027344 C 92.471186 42.722185 92.23219 42.436454 91.849609 42.023438 C 91.716232 41.879425 91.560043 41.720969 91.412109 41.566406 C 91.265698 41.413451 91.133096 41.269405 90.972656 41.107422 C 90.787632 40.920517 90.580366 40.724455 90.376953 40.527344 C 90.183172 40.339584 89.995319 40.156194 89.785156 39.960938 C 89.632194 39.818815 89.464239 39.672652 89.302734 39.527344 C 89.028134 39.28025 88.753946 39.03498 88.455078 38.78125 C 88.265649 38.620423 88.060322 38.459299 87.861328 38.296875 C 87.572421 38.061039 87.285269 37.826906 86.976562 37.589844 C 86.731055 37.401292 86.470674 37.215231 86.212891 37.027344 C 85.921348 36.81486 85.633117 36.604422 85.326172 36.394531 C 85.041333 36.199704 84.743156 36.011376 84.445312 35.820312 C 84.127687 35.616565 83.810632 35.414527 83.478516 35.216797 C 83.174239 35.03562 82.859162 34.862184 82.542969 34.6875 C 82.19969 34.497848 81.857034 34.311165 81.5 34.130859 C 80.953924 33.85503 80.401577 33.586637 79.824219 33.337891 C 79.694113 33.281842 79.561348 33.228305 79.429688 33.173828 C 79.203998 33.080435 78.978256 32.986924 78.748047 32.898438 C 78.606638 32.844085 78.461454 32.794578 78.318359 32.742188 C 78.088478 32.658021 77.859184 32.572959 77.625 32.494141 C 77.41966 32.425028 77.210557 32.361624 77.001953 32.296875 C 76.82444 32.241774 76.6486 32.184595 76.46875 32.132812 C 76.246076 32.068707 76.019182 32.011895 75.792969 31.953125 C 75.611306 31.905925 75.431964 31.856099 75.248047 31.8125 C 75.029209 31.760627 74.805977 31.716475 74.583984 31.669922 C 74.38501 31.628185 74.187805 31.582201 73.986328 31.544922 C 73.811387 31.512565 73.631885 31.487858 73.455078 31.458984 C 73.200458 31.417395 72.947894 31.373923 72.689453 31.339844 C 72.684295 31.339164 72.678987 31.338568 72.673828 31.337891 C 72.262066 31.283846 71.845086 31.238939 71.423828 31.205078 C 71.419978 31.204769 71.41596 31.205386 71.412109 31.205078 C 70.965749 31.169412 70.515337 31.144231 70.058594 31.132812 C 69.598265 31.121302 69.132697 31.121949 68.662109 31.136719 C 68.12067 31.153819 67.590747 31.18228 67.064453 31.21875 C 67.055436 31.219375 67.046124 31.220073 67.037109 31.220703 z M 65.927734 41.425781 C 66.284456 41.424311 66.648042 41.444169 67.015625 41.488281 C 67.022023 41.488281 67.027809 41.489848 67.035156 41.490234 L 67.035156 58.1875 C 59.114444 55.524933 56.539063 46.275391 56.539062 46.275391 C 56.539062 46.275391 60.576903 41.44784 65.927734 41.425781 z "
     id="rect1050" />
  <g
     id="g1031"
     transform="matrix(0.37010448,0,0,0.37010448,11.650857,6.8769703)" />
  <path
     style="opacity:1;fill:#000000;fill-opacity:0.21198156;stroke:none;stroke-width:3;stroke-linecap:round;stroke-linejoin:round;stroke-miterlimit:4;stroke-dasharray:none;stroke-dashoffset:0;stroke-opacity:1"
     d="M 10.317921,12.352223 V 85.682301 H 123.81206 V 12.352223 Z m 0.55273,0.507812 H 123.35112 V 85.221363 H 10.870651 Z"
     id="rect917"
     inkscape:connector-curvature="0" />
  <path
     style="opacity:1;fill:#080808;fill-opacity:1;stroke:none;stroke-width:2.64566922;stroke-linecap:round;stroke-linejoin:round;stroke-miterlimit:4;stroke-dasharray:none;stroke-dashoffset:0;stroke-opacity:1"
     d="M 10.818359 6.2773438 C 7.6817995 6.2773438 5.15625 8.8028994 5.15625 11.939453 L 5.15625 90.103516 L 129.45312 90.103516 L 129.45312 11.939453 C 129.45312 8.8028994 126.92758 6.2773438 123.79102 6.2773438 L 10.818359 6.2773438 z M 10.318359 12.353516 L 123.8125 12.353516 L 123.8125 85.681641 L 10.318359 85.681641 L 10.318359 12.353516 z "
     id="path1084" />
</svg>
