<svg height="128" viewBox="0 0 128 128" width="128" xmlns="http://www.w3.org/2000/svg" xmlns:xlink="http://www.w3.org/1999/xlink"><linearGradient id="a" gradientUnits="userSpaceOnUse" x1="66.01551341119" x2="64.33359152003" y1="119.34706540717" y2="1.33853303141"><stop offset="0" stop-color="#cccdd1"/><stop offset="1" stop-color="#f7f9f9"/></linearGradient><linearGradient id="b" gradientUnits="userSpaceOnUse" x1="64.42871085545" x2="63.70264686264" y1="9.49702762746" y2="114.03049919903"><stop offset="0" stop-color="#e6b1a7"/><stop offset="1" stop-color="#f54457"/></linearGradient><circle cx="64.333229" cy="64.22612" fill="url(#b)" r="60.565502" stroke="#cccdd1" stroke-width="4.644855"/><path d="m64.333592 1.3385313c-34.704539 0-62.8882778 28.1824517-62.8882778 62.8869837 0 34.704538 28.1837388 62.888275 62.8882778 62.888275 34.704538 0 62.886978-28.183737 62.886978-62.888275 0-34.704532-28.18244-62.8869837-62.886978-62.8869837zm0 4.644855c32.194272 0 58.242128 26.0478627 58.242128 58.2421287 0 32.194272-26.047856 58.243425-58.242128 58.243425-32.194267 0-58.2434228-26.049153-58.2434228-58.243425 0-32.194266 26.0491558-58.2421287 58.2434228-58.2421287z" fill="url(#a)"/><path d="m64.172546 18.913108-16.389814 51.004726h16.389814v39.621296l16.711181-52.543809h-16.711181z" fill="#fff"/></svg>