<?xml version="1.0" encoding="UTF-8" standalone="no"?>
<!-- Created with Inkscape (http://www.inkscape.org/) -->

<svg
   xmlns:dc="http://purl.org/dc/elements/1.1/"
   xmlns:cc="http://creativecommons.org/ns#"
   xmlns:rdf="http://www.w3.org/1999/02/22-rdf-syntax-ns#"
   xmlns:svg="http://www.w3.org/2000/svg"
   xmlns="http://www.w3.org/2000/svg"
   xmlns:xlink="http://www.w3.org/1999/xlink"
   xmlns:sodipodi="http://sodipodi.sourceforge.net/DTD/sodipodi-0.dtd"
   xmlns:inkscape="http://www.inkscape.org/namespaces/inkscape"
   version="1.1"
   id="svg2"
   width="128"
   height="128"
   viewBox="0 0 128 128"
   sodipodi:docname="org.gnome.Weather.svg"
   inkscape:version="0.92.2 (5c3e80d, 2017-08-06)">
  <metadata
     id="metadata8">
    <rdf:RDF>
      <cc:Work
         rdf:about="">
        <dc:format>image/svg+xml</dc:format>
        <dc:type
           rdf:resource="http://purl.org/dc/dcmitype/StillImage" />
        <dc:title></dc:title>
      </cc:Work>
    </rdf:RDF>
  </metadata>
  <defs
     id="defs6">
    <linearGradient
       inkscape:collect="always"
       id="linearGradient862">
      <stop
         style="stop-color:#84949b;stop-opacity:1"
         offset="0"
         id="stop858" />
      <stop
         style="stop-color:#97aeb7;stop-opacity:1"
         offset="1"
         id="stop860" />
    </linearGradient>
    <linearGradient
       inkscape:collect="always"
       id="linearGradient1078">
      <stop
         style="stop-color:#b9c6d2;stop-opacity:1"
         offset="0"
         id="stop1074" />
      <stop
         style="stop-color:#d3dbe2;stop-opacity:1"
         offset="1"
         id="stop1076" />
    </linearGradient>
    <linearGradient
       id="linearGradient821"
       inkscape:collect="always">
      <stop
         id="stop817"
         offset="0"
         style="stop-color:#dcdcdc;stop-opacity:1" />
      <stop
         id="stop819"
         offset="1"
         style="stop-color:#f2f2f2;stop-opacity:1" />
    </linearGradient>
    <linearGradient
       gradientUnits="userSpaceOnUse"
       y2="22.84951"
       x2="61.19051"
       y1="119.61641"
       x1="60.183983"
       id="linearGradient823"
       xlink:href="#linearGradient821"
       inkscape:collect="always"
       gradientTransform="matrix(0.94601788,0,0,0.94601788,-0.8977099,-0.44925348)" />
    <linearGradient
       inkscape:collect="always"
       xlink:href="#linearGradient1078"
       id="linearGradient1080"
       x1="701.81012"
       y1="398.37137"
       x2="699.27539"
       y2="220.52734"
       gradientUnits="userSpaceOnUse"
       gradientTransform="matrix(0.66355071,0,0,0.66355071,-399.67109,-144.99254)" />
    <linearGradient
       inkscape:collect="always"
       xlink:href="#linearGradient862"
       id="linearGradient864"
       x1="27.0177"
       y1="73.460075"
       x2="98.602592"
       y2="51.901531"
       gradientUnits="userSpaceOnUse"
       gradientTransform="translate(1.1867089,-0.79113926)" />
    <filter
       inkscape:collect="always"
       style="color-interpolation-filters:sRGB"
       id="filter890"
       x="-0.012"
       width="1.024"
       y="-0.012"
       height="1.024">
      <feGaussianBlur
         inkscape:collect="always"
         stdDeviation="0.62887629"
         id="feGaussianBlur892" />
    </filter>
    <clipPath
       clipPathUnits="userSpaceOnUse"
       id="clipPath898">
      <circle
         style="fill:url(#linearGradient902);fill-opacity:1;stroke:none;stroke-width:4.64485502;stroke-miterlimit:4;stroke-dasharray:none;stroke-opacity:1"
         r="60.565502"
         cy="64.22612"
         cx="64.333229"
         id="circle900" />
    </clipPath>
    <linearGradient
       inkscape:collect="always"
       xlink:href="#linearGradient821"
       id="linearGradient902"
       gradientUnits="userSpaceOnUse"
       gradientTransform="matrix(0.94601788,0,0,0.94601788,-0.8977099,-0.44925348)"
       x1="60.183983"
       y1="119.61641"
       x2="61.19051"
       y2="22.84951" />
    <filter
       inkscape:collect="always"
       style="color-interpolation-filters:sRGB"
       id="filter934"
       x="-0.0144"
       width="1.0288"
       y="-0.0144"
       height="1.0288">
      <feGaussianBlur
         inkscape:collect="always"
         stdDeviation="0.72678518"
         id="feGaussianBlur936" />
    </filter>
  </defs>
  <sodipodi:namedview
     pagecolor="#ffffff"
     bordercolor="#666666"
     borderopacity="1"
     objecttolerance="10"
     gridtolerance="10"
     guidetolerance="10"
     inkscape:pageopacity="0"
     inkscape:pageshadow="2"
     inkscape:window-width="1360"
     inkscape:window-height="716"
     id="namedview4"
     showgrid="false"
     inkscape:zoom="1.7875659"
     inkscape:cx="33.939121"
     inkscape:cy="57.946045"
     inkscape:window-x="0"
     inkscape:window-y="24"
     inkscape:window-maximized="1"
     inkscape:current-layer="svg2" />
  <path
     style="fill:#000000;stroke-width:1.33333337"
     d=""
     id="path849"
     inkscape:connector-curvature="0" />
  <path
     style="fill:#000000;stroke-width:1.33333337"
     d=""
     id="path847"
     inkscape:connector-curvature="0" />
  <path
     d="m 81.263378,27.690949 c -0.242834,0 -0.429401,0.19569 -0.438362,0.438358 -0.17787,4.808902 -1.512991,9.135763 -2.844027,13.464186 2.101634,-0.444454 4.402221,-0.441942 6.897806,0 -1.663273,-4.430171 -2.341218,-8.936236 -2.733375,-13.464186 -0.02094,-0.241926 -0.195528,-0.438358 -0.438363,-0.438358 z m -19.968846,8.035734 c -0.110273,-0.002 -0.218421,0.03704 -0.304299,0.12289 l -0.314409,0.313877 c -0.171771,0.171651 -0.165185,0.441784 0,0.619769 3.273491,3.527237 5.387692,7.531063 7.505872,11.533584 1.172386,-1.799971 2.801283,-3.423707 4.878898,-4.875174 -4.308082,-1.957888 -7.972497,-4.666485 -11.450591,-7.592056 -0.09292,-0.07816 -0.205198,-0.120916 -0.315471,-0.12289 z m 40.214858,0.04413 c -0.11124,0.0026 -0.22253,0.04737 -0.31015,0.131405 -3.472961,3.331023 -7.44193,5.511051 -11.409097,7.69473 1.818994,1.14264 3.470082,2.744557 4.955499,4.798029 1.886824,-4.33968 4.534132,-8.048302 7.402138,-11.574009 0.15326,-0.188381 0.16488,-0.450861 -0.01,-0.619768 l -0.31919,-0.309067 c -0.0872,-0.08447 -0.19838,-0.123892 -0.30962,-0.121294 z m -20.119399,9.19176 a 11.523052,11.523052 0 0 0 -10.842525,7.664404 c 2.685713,3.143278 4.268665,6.776927 5.302894,10.654205 3.051221,0.681854 6.080382,1.559232 8.937463,3.988342 l 0.08512,0.186195 A 11.523052,11.523052 0 0 0 92.913464,56.485513 11.523052,11.523052 0 0 0 81.389991,44.962569 Z M 51.78837,49.68453 c -0.568636,-5.43e-4 -1.137074,0.02114 -1.70397,0.06434 -7.232157,0.551092 -14.186422,4.626319 -17.569563,11.455379 -4.008571,0.859681 -7.284844,2.983064 -9.416781,5.808821 -2.51795,3.337384 -3.511308,7.489783 -3.116947,11.525076 0.788724,8.07057 7.730047,15.909366 18.835174,15.978376 h 0.0011 5.46e-4 l 30.0852,0.17289 -0.112251,-0.002 c 5.552642,0.20134 10.097501,-1.45429 13.107748,-4.328817 3.010247,-2.874529 4.370266,-6.805484 4.170285,-10.558442 C 85.868927,76.046978 84.12628,72.35777 80.943702,69.90435 78.589577,68.089576 75.487233,67.065315 71.992938,67.07575 69.611686,56.344341 61.674423,50.395998 53.49288,49.752204 c -0.567031,-0.04466 -1.135867,-0.06712 -1.704501,-0.06757 z m 44.518672,3.221213 c 0.480836,2.093606 0.518293,4.393868 0.119701,6.896744 4.400657,-1.739861 8.894237,-2.49576 13.414707,-2.966386 0.24155,-0.02518 0.4346,-0.203018 0.43038,-0.445812 l -0.007,-0.443685 c -0.004,-0.242807 -0.20356,-0.426146 -0.44634,-0.43091 -4.81126,-0.09444 -9.16013,-1.354193 -13.510993,-2.609951 z m -44.511225,4.134642 c 0.374059,-5.43e-4 0.747778,0.01378 1.119843,0.04307 5.953058,0.468439 11.380514,4.020516 12.34753,14.337714 l 0.383566,4.094741 4.026114,-0.837358 c 3.354567,-0.697934 5.399007,-0.01451 6.780771,1.050686 1.38176,1.06519 2.178137,2.708327 2.271604,4.462347 0.09347,1.754025 -0.498223,3.504659 -1.905596,4.848576 -1.407372,1.343918 -3.746073,2.443306 -7.762292,2.297677 l -0.05586,-0.0018 -30.139463,-0.173426 h -0.0017 c -7.916044,-0.05006 -11.101178,-4.642727 -11.560169,-9.339346 -0.229516,-2.348485 0.372986,-4.663821 1.668328,-6.38071 1.295335,-1.716896 3.224246,-2.980029 6.434441,-3.264308 l 2.338103,-0.20747 0.796392,-2.208301 c 1.940965,-5.383549 7.647401,-8.712883 13.258299,-8.722007 z m 42.777458,7.413307 c -1.172382,1.799972 -2.801279,3.424237 -4.878891,4.875706 4.308082,1.957887 7.972498,4.665947 11.450596,7.591524 0.18583,0.156326 0.44802,0.171651 0.61977,0 l 0.31441,-0.313877 c 0.17177,-0.171651 0.16518,-0.441782 0,-0.619768 -3.273491,-3.527237 -5.387703,-7.531064 -7.505885,-11.533585 z"
     id="rect14"
     inkscape:connector-curvature="0"
     style="fill:url(#linearGradient864);fill-opacity:1;stroke-width:0.27237985" />
  <path
     style="fill:#000000;fill-opacity:0.27093595;stroke:none;stroke-width:4.64485502;stroke-miterlimit:4;stroke-dasharray:none;stroke-opacity:1;filter:url(#filter934)"
     d="M 64.333984 3.6601562 A 60.565502 60.565502 0 0 0 3.7675781 64.226562 A 60.565502 60.565502 0 0 0 64.333984 124.79102 A 60.565502 60.565502 0 0 0 124.89844 64.226562 A 60.565502 60.565502 0 0 0 64.333984 3.6601562 z M 81.263672 27.691406 L 81.707031 27.691406 C 81.949866 27.691406 82.123591 27.88698 82.144531 28.128906 C 82.536688 32.656856 83.215633 37.163579 84.878906 41.59375 C 82.383321 41.151808 80.082103 41.149296 77.980469 41.59375 C 79.311505 37.265327 80.646349 32.937808 80.824219 28.128906 C 80.83318 27.886238 81.020838 27.691406 81.263672 27.691406 z M 61.294922 35.726562 C 61.405195 35.728536 61.516455 35.771449 61.609375 35.849609 C 65.087469 38.77518 68.752465 41.483518 73.060547 43.441406 C 70.982932 44.892873 69.354027 46.516435 68.181641 48.316406 C 66.063461 44.313885 63.949272 40.31044 60.675781 36.783203 C 60.510596 36.605218 60.50401 36.335713 60.675781 36.164062 L 60.990234 35.849609 C 61.076112 35.763759 61.184649 35.724562 61.294922 35.726562 z M 101.50977 35.771484 C 101.62101 35.768886 101.73116 35.808108 101.81836 35.892578 L 102.13867 36.201172 C 102.31355 36.370079 102.3017 36.631932 102.14844 36.820312 C 99.280432 40.346019 96.632918 44.054851 94.746094 48.394531 C 93.260677 46.341059 91.61001 44.740296 89.791016 43.597656 C 93.758183 41.413977 97.726258 39.233367 101.19922 35.902344 C 101.28684 35.818309 101.39853 35.774084 101.50977 35.771484 z M 81.390625 44.962891 A 11.523052 11.523052 0 0 1 92.914062 56.486328 A 11.523052 11.523052 0 0 1 84.873047 67.455078 L 84.787109 67.269531 C 81.930028 64.840421 78.90083 63.963104 75.849609 63.28125 C 74.81538 59.403972 73.232588 55.770231 70.546875 52.626953 A 11.523052 11.523052 0 0 1 81.390625 44.962891 z M 51.789062 49.683594 L 51.789062 49.685547 C 52.357697 49.685997 52.925156 49.707293 53.492188 49.751953 C 61.67373 50.395747 69.610936 56.344763 71.992188 67.076172 C 75.486483 67.065737 78.589234 68.089523 80.943359 69.904297 C 84.125937 72.357717 85.868375 76.047606 86.068359 79.800781 C 86.26834 83.553739 84.908685 87.484846 81.898438 90.359375 C 78.88819 93.233902 74.343658 94.88884 68.791016 94.6875 L 68.902344 94.689453 L 38.818359 94.515625 L 38.816406 94.515625 C 27.711279 94.446615 20.769193 86.609633 19.980469 78.539062 C 19.586108 74.50377 20.579706 70.351056 23.097656 67.013672 C 25.229593 64.187915 28.507054 62.064759 32.515625 61.205078 C 35.898766 54.376018 42.851827 50.299139 50.083984 49.748047 C 50.65088 49.704847 51.220427 49.683051 51.789062 49.683594 z M 96.306641 52.90625 C 100.6575 54.162008 105.0071 55.421185 109.81836 55.515625 C 110.06114 55.520389 110.26162 55.704459 110.26562 55.947266 L 110.27148 56.390625 C 110.2757 56.633419 110.08335 56.810758 109.8418 56.835938 C 105.32133 57.306564 100.82644 58.062873 96.425781 59.802734 C 96.824373 57.299858 96.787477 54.999856 96.306641 52.90625 z M 51.794922 57.041016 C 46.184024 57.05014 40.478074 60.37817 38.537109 65.761719 L 37.740234 67.970703 L 35.402344 68.177734 C 32.192149 68.462013 30.264085 69.726463 28.96875 71.443359 C 27.673408 73.160248 27.071265 75.475734 27.300781 77.824219 C 27.759772 82.520838 30.943331 87.112049 38.859375 87.162109 L 38.861328 87.162109 L 69.001953 87.335938 L 69.056641 87.337891 C 73.07286 87.48352 75.412941 86.384934 76.820312 85.041016 C 78.227686 83.697099 78.818079 81.945431 78.724609 80.191406 C 78.631142 78.437386 77.834885 76.793706 76.453125 75.728516 C 75.071361 74.66332 73.028395 73.9798 69.673828 74.677734 L 65.646484 75.515625 L 65.263672 71.421875 C 64.296656 61.104677 58.869074 57.552423 52.916016 57.083984 C 52.543951 57.054694 52.168981 57.040473 51.794922 57.041016 z M 94.574219 64.453125 C 96.692401 68.455646 98.806587 72.459091 102.08008 75.986328 C 102.24526 76.164314 102.25185 76.435771 102.08008 76.607422 L 101.76562 76.921875 C 101.59387 77.093526 101.33036 77.078201 101.14453 76.921875 C 97.666433 73.996298 94.003394 71.287965 89.695312 69.330078 C 91.772925 67.878609 93.401837 66.253097 94.574219 64.453125 z "
     id="circle904" />
  <path
     style="fill:url(#linearGradient823);fill-opacity:1;stroke:none;stroke-width:4.64485502;stroke-miterlimit:4;stroke-dasharray:none;stroke-opacity:1"
     d="M 64.333984 3.6601562 A 60.565502 60.565502 0 0 0 3.7675781 64.226562 A 60.565502 60.565502 0 0 0 64.333984 124.79102 A 60.565502 60.565502 0 0 0 124.89844 64.226562 A 60.565502 60.565502 0 0 0 64.333984 3.6601562 z M 81.263672 27.691406 L 81.707031 27.691406 C 81.949866 27.691406 82.123591 27.88698 82.144531 28.128906 C 82.536688 32.656856 83.215633 37.163579 84.878906 41.59375 C 82.383321 41.151808 80.082103 41.149296 77.980469 41.59375 C 79.311505 37.265327 80.646349 32.937808 80.824219 28.128906 C 80.83318 27.886238 81.020838 27.691406 81.263672 27.691406 z M 61.294922 35.726562 C 61.405195 35.728536 61.516455 35.771449 61.609375 35.849609 C 65.087469 38.77518 68.752465 41.483518 73.060547 43.441406 C 70.982932 44.892873 69.354027 46.516435 68.181641 48.316406 C 66.063461 44.313885 63.949272 40.31044 60.675781 36.783203 C 60.510596 36.605218 60.50401 36.335713 60.675781 36.164062 L 60.990234 35.849609 C 61.076112 35.763759 61.184649 35.724562 61.294922 35.726562 z M 101.50977 35.771484 C 101.62101 35.768886 101.73116 35.808108 101.81836 35.892578 L 102.13867 36.201172 C 102.31355 36.370079 102.3017 36.631932 102.14844 36.820312 C 99.280432 40.346019 96.632918 44.054851 94.746094 48.394531 C 93.260677 46.341059 91.61001 44.740296 89.791016 43.597656 C 93.758183 41.413977 97.726258 39.233367 101.19922 35.902344 C 101.28684 35.818309 101.39853 35.774084 101.50977 35.771484 z M 81.390625 44.962891 A 11.523052 11.523052 0 0 1 92.914062 56.486328 A 11.523052 11.523052 0 0 1 84.873047 67.455078 L 84.787109 67.269531 C 81.930028 64.840421 78.90083 63.963104 75.849609 63.28125 C 74.81538 59.403972 73.232588 55.770231 70.546875 52.626953 A 11.523052 11.523052 0 0 1 81.390625 44.962891 z M 51.789062 49.683594 L 51.789062 49.685547 C 52.357697 49.685997 52.925156 49.707293 53.492188 49.751953 C 61.67373 50.395747 69.610936 56.344763 71.992188 67.076172 C 75.486483 67.065737 78.589234 68.089523 80.943359 69.904297 C 84.125937 72.357717 85.868375 76.047606 86.068359 79.800781 C 86.26834 83.553739 84.908685 87.484846 81.898438 90.359375 C 78.88819 93.233902 74.343658 94.88884 68.791016 94.6875 L 68.902344 94.689453 L 38.818359 94.515625 L 38.816406 94.515625 C 27.711279 94.446615 20.769193 86.609633 19.980469 78.539062 C 19.586108 74.50377 20.579706 70.351056 23.097656 67.013672 C 25.229593 64.187915 28.507054 62.064759 32.515625 61.205078 C 35.898766 54.376018 42.851827 50.299139 50.083984 49.748047 C 50.65088 49.704847 51.220427 49.683051 51.789062 49.683594 z M 96.306641 52.90625 C 100.6575 54.162008 105.0071 55.421185 109.81836 55.515625 C 110.06114 55.520389 110.26162 55.704459 110.26562 55.947266 L 110.27148 56.390625 C 110.2757 56.633419 110.08335 56.810758 109.8418 56.835938 C 105.32133 57.306564 100.82644 58.062873 96.425781 59.802734 C 96.824373 57.299858 96.787477 54.999856 96.306641 52.90625 z M 51.794922 57.041016 C 46.184024 57.05014 40.478074 60.37817 38.537109 65.761719 L 37.740234 67.970703 L 35.402344 68.177734 C 32.192149 68.462013 30.264085 69.726463 28.96875 71.443359 C 27.673408 73.160248 27.071265 75.475734 27.300781 77.824219 C 27.759772 82.520838 30.943331 87.112049 38.859375 87.162109 L 38.861328 87.162109 L 69.001953 87.335938 L 69.056641 87.337891 C 73.07286 87.48352 75.412941 86.384934 76.820312 85.041016 C 78.227686 83.697099 78.818079 81.945431 78.724609 80.191406 C 78.631142 78.437386 77.834885 76.793706 76.453125 75.728516 C 75.071361 74.66332 73.028395 73.9798 69.673828 74.677734 L 65.646484 75.515625 L 65.263672 71.421875 C 64.296656 61.104677 58.869074 57.552423 52.916016 57.083984 C 52.543951 57.054694 52.168981 57.040473 51.794922 57.041016 z M 94.574219 64.453125 C 96.692401 68.455646 98.806587 72.459091 102.08008 75.986328 C 102.24526 76.164314 102.25185 76.435771 102.08008 76.607422 L 101.76562 76.921875 C 101.59387 77.093526 101.33036 77.078201 101.14453 76.921875 C 97.666433 73.996298 94.003394 71.287965 89.695312 69.330078 C 91.772925 67.878609 93.401837 66.253097 94.574219 64.453125 z "
     id="path12-3" />
  <path
     inkscape:connector-curvature="0"
     id="path888"
     d="m 64.333592,1.3385313 c -34.704539,0 -62.8882778,28.1824517 -62.8882778,62.8869837 0,34.704538 28.1837388,62.888275 62.8882778,62.888275 34.704538,0 62.886978,-28.183737 62.886978,-62.888275 0,-34.704532 -28.18244,-62.8869837 -62.886978,-62.8869837 z m 0,4.644855 c 32.194272,0 58.242128,26.0478627 58.242128,58.2421287 0,32.194272 -26.047856,58.243425 -58.242128,58.243425 -32.194267,0 -58.2434228,-26.049153 -58.2434228,-58.243425 0,-32.194266 26.0491558,-58.2421287 58.2434228,-58.2421287 z"
     style="color:#000000;font-style:normal;font-variant:normal;font-weight:normal;font-stretch:normal;font-size:medium;line-height:normal;font-family:sans-serif;font-variant-ligatures:normal;font-variant-position:normal;font-variant-caps:normal;font-variant-numeric:normal;font-variant-alternates:normal;font-feature-settings:normal;text-indent:0;text-align:start;text-decoration:none;text-decoration-line:none;text-decoration-style:solid;text-decoration-color:#000000;letter-spacing:normal;word-spacing:normal;text-transform:none;writing-mode:lr-tb;direction:ltr;text-orientation:mixed;dominant-baseline:auto;baseline-shift:baseline;text-anchor:start;white-space:normal;shape-padding:0;clip-rule:nonzero;display:inline;overflow:visible;visibility:visible;opacity:1;isolation:auto;mix-blend-mode:normal;color-interpolation:sRGB;color-interpolation-filters:linearRGB;solid-color:#000000;solid-opacity:1;vector-effect:none;fill:#000000;fill-opacity:0.2955665;fill-rule:nonzero;stroke:none;stroke-width:4.64485502;stroke-linecap:butt;stroke-linejoin:miter;stroke-miterlimit:4;stroke-dasharray:none;stroke-dashoffset:0;stroke-opacity:1;color-rendering:auto;image-rendering:auto;shape-rendering:auto;text-rendering:auto;enable-background:accumulate;filter:url(#filter890)"
     clip-path="url(#clipPath898)" />
  <path
     style="color:#000000;font-style:normal;font-variant:normal;font-weight:normal;font-stretch:normal;font-size:medium;line-height:normal;font-family:sans-serif;font-variant-ligatures:normal;font-variant-position:normal;font-variant-caps:normal;font-variant-numeric:normal;font-variant-alternates:normal;font-feature-settings:normal;text-indent:0;text-align:start;text-decoration:none;text-decoration-line:none;text-decoration-style:solid;text-decoration-color:#000000;letter-spacing:normal;word-spacing:normal;text-transform:none;writing-mode:lr-tb;direction:ltr;text-orientation:mixed;dominant-baseline:auto;baseline-shift:baseline;text-anchor:start;white-space:normal;shape-padding:0;clip-rule:nonzero;display:inline;overflow:visible;visibility:visible;opacity:1;isolation:auto;mix-blend-mode:normal;color-interpolation:sRGB;color-interpolation-filters:linearRGB;solid-color:#000000;solid-opacity:1;vector-effect:none;fill:url(#linearGradient1080);fill-opacity:1;fill-rule:nonzero;stroke:none;stroke-width:4.64485502;stroke-linecap:butt;stroke-linejoin:miter;stroke-miterlimit:4;stroke-dasharray:none;stroke-dashoffset:0;stroke-opacity:1;color-rendering:auto;image-rendering:auto;shape-rendering:auto;text-rendering:auto;enable-background:accumulate"
     d="m 64.333592,1.3385313 c -34.704539,0 -62.8882778,28.1824517 -62.8882778,62.8869837 0,34.704538 28.1837388,62.888275 62.8882778,62.888275 34.704538,0 62.886978,-28.183737 62.886978,-62.888275 0,-34.704532 -28.18244,-62.8869837 -62.886978,-62.8869837 z m 0,4.644855 c 32.194272,0 58.242128,26.0478627 58.242128,58.2421287 0,32.194272 -26.047856,58.243425 -58.242128,58.243425 -32.194267,0 -58.2434228,-26.049153 -58.2434228,-58.243425 0,-32.194266 26.0491558,-58.2421287 58.2434228,-58.2421287 z"
     id="circle1062"
     inkscape:connector-curvature="0" />
</svg>
