<?xml version="1.0" encoding="UTF-8" standalone="no"?>
<!-- Created with Inkscape (http://www.inkscape.org/) -->

<svg
   xmlns:dc="http://purl.org/dc/elements/1.1/"
   xmlns:cc="http://creativecommons.org/ns#"
   xmlns:rdf="http://www.w3.org/1999/02/22-rdf-syntax-ns#"
   xmlns:svg="http://www.w3.org/2000/svg"
   xmlns="http://www.w3.org/2000/svg"
   xmlns:xlink="http://www.w3.org/1999/xlink"
   xmlns:sodipodi="http://sodipodi.sourceforge.net/DTD/sodipodi-0.dtd"
   xmlns:inkscape="http://www.inkscape.org/namespaces/inkscape"
   version="1.1"
   id="svg2"
   width="128"
   height="128"
   viewBox="0 0 128 128"
   sodipodi:docname="org.gnome.News.svg"
   inkscape:version="0.92.4 5da689c313, 2019-01-14">
  <metadata
     id="metadata8">
    <rdf:RDF>
      <cc:Work
         rdf:about="">
        <dc:format>image/svg+xml</dc:format>
        <dc:type
           rdf:resource="http://purl.org/dc/dcmitype/StillImage" />
        <dc:title></dc:title>
      </cc:Work>
    </rdf:RDF>
  </metadata>
  <defs
     id="defs6">
    <linearGradient
       inkscape:collect="always"
       id="linearGradient833">
      <stop
         style="stop-color:#dfe3e8;stop-opacity:1"
         offset="0"
         id="stop829" />
      <stop
         style="stop-color:#fefeff;stop-opacity:1"
         offset="1"
         id="stop831" />
    </linearGradient>
    <linearGradient
       inkscape:collect="always"
       id="linearGradient823">
      <stop
         style="stop-color:#cdd4da;stop-opacity:1"
         offset="0"
         id="stop819" />
      <stop
         style="stop-color:#ffffff;stop-opacity:1"
         offset="1"
         id="stop821" />
    </linearGradient>
    <linearGradient
       inkscape:collect="always"
       xlink:href="#linearGradient823"
       id="linearGradient825"
       x1="-741.83197"
       y1="959.04749"
       x2="-741.83197"
       y2="93.836403"
       gradientUnits="userSpaceOnUse"
       gradientTransform="matrix(0.13667801,0,0,0.13667801,162.31231,-5.989337)" />
    <linearGradient
       inkscape:collect="always"
       xlink:href="#linearGradient833"
       id="linearGradient835"
       x1="-738.76385"
       y1="931.43433"
       x2="-738.76385"
       y2="152.13077"
       gradientUnits="userSpaceOnUse"
       gradientTransform="matrix(0.13667801,0,0,0.13667801,162.31231,-5.989337)" />
  </defs>
  <sodipodi:namedview
     pagecolor="#ffffff"
     bordercolor="#666666"
     borderopacity="1"
     objecttolerance="10"
     gridtolerance="10"
     guidetolerance="10"
     inkscape:pageopacity="0"
     inkscape:pageshadow="2"
     inkscape:window-width="1920"
     inkscape:window-height="1028"
     id="namedview4"
     showgrid="false"
     inkscape:zoom="0.65186406"
     inkscape:cx="138.30679"
     inkscape:cy="82.478347"
     inkscape:window-x="0"
     inkscape:window-y="26"
     inkscape:window-maximized="1"
     inkscape:current-layer="svg2" />
  <circle
     style="opacity:1;fill:url(#linearGradient825);fill-opacity:1;stroke:none;stroke-width:0.78699166;stroke-linecap:round;stroke-linejoin:round;stroke-miterlimit:4;stroke-dasharray:none;stroke-opacity:1"
     id="path817"
     cx="63.591888"
     cy="64.286316"
     r="61.380009" />
  <circle
     r="55.089832"
     cy="64.286316"
     cx="63.591888"
     id="circle827"
     style="opacity:1;fill:url(#linearGradient835);fill-opacity:1;stroke:none;stroke-width:0.70634133;stroke-linecap:round;stroke-linejoin:round;stroke-miterlimit:4;stroke-dasharray:none;stroke-opacity:1" />
  <g
     id="g1278"
     transform="translate(-166.58844,30.971936)">
    <g
       style="opacity:0.45899999"
       transform="translate(78.23717,36.050461)"
       id="g1257">
      <path
         inkscape:connector-curvature="0"
         id="path1206"
         d="m 157.00253,-35.577878 c -1.12937,0.01843 -1.67152,0.342298 -0.79688,0.996094 5.25543,3.258648 11.11788,6.47132 15.61524,11.167969 3.73595,3.901505 7.21035,8.238644 11.00391,14.90625 0.50626,1.127939 1.45139,1.556277 1.38476,-0.166016 l -0.0215,-21.617187 c -0.13356,-2.774873 -1.81135,-5.065244 -4.33789,-5.220704 z m -34.13281,0.28711 c -1.95259,-0.02277 -3.52344,1.570722 -3.52344,3.523437 v 11.380859 c 0.0119,1.515416 0.54975,2.02905 1.85547,3.38086 11.2159,11.208768 32.86032,32.731286 45.26367,45.255859 1.35181,1.305733 1.86545,1.843503 3.38086,1.855469 h 11.38281 c 1.95271,0 3.54618,-1.572806 3.52344,-3.525391 l -0.13867,-12.03125 c -0.10815,-1.731791 -0.94731,-2.128557 -2.19727,-3.46875 -10.85652,-10.86408605 -32.04524,-31.943859 -44.04492,-44.037109 -1.34019,-1.249971 -1.73695,-2.087166 -3.46875,-2.195313 z M 119.62558,2.00806 c -0.29105,-0.03295 -0.50988,0.291193 -0.47657,1.152343 l 0.0195,21.617188 c 0.13356,2.77487 1.8133,5.065243 4.33984,5.220703 l 22.84766,0.06641 c 1.12937,-0.0184 1.67152,-0.342294 0.79687,-0.996094 -5.25542,-3.25865 -11.11787,-6.471318 -15.61523,-11.167968 -3.73595,-3.9015 -7.21035,-8.23865 -11.00391,-14.90625 -0.25313,-0.56397 -0.61715,-0.953378 -0.9082,-0.986328 z"
         style="fill:none;fill-opacity:1;stroke:#141517;stroke-width:0.2;stroke-linecap:round;stroke-linejoin:round;stroke-miterlimit:4;stroke-dasharray:none;stroke-opacity:0.01960784" />
      <path
         style="fill:none;fill-opacity:1;stroke:#141517;stroke-width:0.40000001;stroke-linecap:round;stroke-linejoin:round;stroke-miterlimit:4;stroke-dasharray:none;stroke-opacity:0.01960784"
         d="m 157.00253,-35.577878 c -1.12937,0.01843 -1.67152,0.342298 -0.79688,0.996094 5.25543,3.258648 11.11788,6.47132 15.61524,11.167969 3.73595,3.901505 7.21035,8.238644 11.00391,14.90625 0.50626,1.127939 1.45139,1.556277 1.38476,-0.166016 l -0.0215,-21.617187 c -0.13356,-2.774873 -1.81135,-5.065244 -4.33789,-5.220704 z m -34.13281,0.28711 c -1.95259,-0.02277 -3.52344,1.570722 -3.52344,3.523437 v 11.380859 c 0.0119,1.515416 0.54975,2.02905 1.85547,3.38086 11.2159,11.208768 32.86032,32.731286 45.26367,45.255859 1.35181,1.305733 1.86545,1.843503 3.38086,1.855469 h 11.38281 c 1.95271,0 3.54618,-1.572806 3.52344,-3.525391 l -0.13867,-12.03125 c -0.10815,-1.731791 -0.94731,-2.128557 -2.19727,-3.46875 -10.85652,-10.86408605 -32.04524,-31.943859 -44.04492,-44.037109 -1.34019,-1.249971 -1.73695,-2.087166 -3.46875,-2.195313 z M 119.62558,2.00806 c -0.29105,-0.03295 -0.50988,0.291193 -0.47657,1.152343 l 0.0195,21.617188 c 0.13356,2.77487 1.8133,5.065243 4.33984,5.220703 l 22.84766,0.06641 c 1.12937,-0.0184 1.67152,-0.342294 0.79687,-0.996094 -5.25542,-3.25865 -11.11787,-6.471318 -15.61523,-11.167968 -3.73595,-3.9015 -7.21035,-8.23865 -11.00391,-14.90625 -0.25313,-0.56397 -0.61715,-0.953378 -0.9082,-0.986328 z"
         id="path1208"
         inkscape:connector-curvature="0" />
      <path
         inkscape:connector-curvature="0"
         id="path1210"
         d="m 157.00253,-35.577878 c -1.12937,0.01843 -1.67152,0.342298 -0.79688,0.996094 5.25543,3.258648 11.11788,6.47132 15.61524,11.167969 3.73595,3.901505 7.21035,8.238644 11.00391,14.90625 0.50626,1.127939 1.45139,1.556277 1.38476,-0.166016 l -0.0215,-21.617187 c -0.13356,-2.774873 -1.81135,-5.065244 -4.33789,-5.220704 z m -34.13281,0.28711 c -1.95259,-0.02277 -3.52344,1.570722 -3.52344,3.523437 v 11.380859 c 0.0119,1.515416 0.54975,2.02905 1.85547,3.38086 11.2159,11.208768 32.86032,32.731286 45.26367,45.255859 1.35181,1.305733 1.86545,1.843503 3.38086,1.855469 h 11.38281 c 1.95271,0 3.54618,-1.572806 3.52344,-3.525391 l -0.13867,-12.03125 c -0.10815,-1.731791 -0.94731,-2.128557 -2.19727,-3.46875 -10.85652,-10.86408605 -32.04524,-31.943859 -44.04492,-44.037109 -1.34019,-1.249971 -1.73695,-2.087166 -3.46875,-2.195313 z M 119.62558,2.00806 c -0.29105,-0.03295 -0.50988,0.291193 -0.47657,1.152343 l 0.0195,21.617188 c 0.13356,2.77487 1.8133,5.065243 4.33984,5.220703 l 22.84766,0.06641 c 1.12937,-0.0184 1.67152,-0.342294 0.79687,-0.996094 -5.25542,-3.25865 -11.11787,-6.471318 -15.61523,-11.167968 -3.73595,-3.9015 -7.21035,-8.23865 -11.00391,-14.90625 -0.25313,-0.56397 -0.61715,-0.953378 -0.9082,-0.986328 z"
         style="fill:none;fill-opacity:1;stroke:#141517;stroke-width:0.60000002;stroke-linecap:round;stroke-linejoin:round;stroke-miterlimit:4;stroke-dasharray:none;stroke-opacity:0.01960784" />
      <path
         style="fill:none;fill-opacity:1;stroke:#141517;stroke-width:0.80000001;stroke-linecap:round;stroke-linejoin:round;stroke-miterlimit:4;stroke-dasharray:none;stroke-opacity:0.01960784"
         d="m 157.00253,-35.577878 c -1.12937,0.01843 -1.67152,0.342298 -0.79688,0.996094 5.25543,3.258648 11.11788,6.47132 15.61524,11.167969 3.73595,3.901505 7.21035,8.238644 11.00391,14.90625 0.50626,1.127939 1.45139,1.556277 1.38476,-0.166016 l -0.0215,-21.617187 c -0.13356,-2.774873 -1.81135,-5.065244 -4.33789,-5.220704 z m -34.13281,0.28711 c -1.95259,-0.02277 -3.52344,1.570722 -3.52344,3.523437 v 11.380859 c 0.0119,1.515416 0.54975,2.02905 1.85547,3.38086 11.2159,11.208768 32.86032,32.731286 45.26367,45.255859 1.35181,1.305733 1.86545,1.843503 3.38086,1.855469 h 11.38281 c 1.95271,0 3.54618,-1.572806 3.52344,-3.525391 l -0.13867,-12.03125 c -0.10815,-1.731791 -0.94731,-2.128557 -2.19727,-3.46875 -10.85652,-10.86408605 -32.04524,-31.943859 -44.04492,-44.037109 -1.34019,-1.249971 -1.73695,-2.087166 -3.46875,-2.195313 z M 119.62558,2.00806 c -0.29105,-0.03295 -0.50988,0.291193 -0.47657,1.152343 l 0.0195,21.617188 c 0.13356,2.77487 1.8133,5.065243 4.33984,5.220703 l 22.84766,0.06641 c 1.12937,-0.0184 1.67152,-0.342294 0.79687,-0.996094 -5.25542,-3.25865 -11.11787,-6.471318 -15.61523,-11.167968 -3.73595,-3.9015 -7.21035,-8.23865 -11.00391,-14.90625 -0.25313,-0.56397 -0.61715,-0.953378 -0.9082,-0.986328 z"
         id="path1212"
         inkscape:connector-curvature="0" />
      <path
         inkscape:connector-curvature="0"
         id="path1214"
         d="m 157.00253,-35.577878 c -1.12937,0.01843 -1.67152,0.342298 -0.79688,0.996094 5.25543,3.258648 11.11788,6.47132 15.61524,11.167969 3.73595,3.901505 7.21035,8.238644 11.00391,14.90625 0.50626,1.127939 1.45139,1.556277 1.38476,-0.166016 l -0.0215,-21.617187 c -0.13356,-2.774873 -1.81135,-5.065244 -4.33789,-5.220704 z m -34.13281,0.28711 c -1.95259,-0.02277 -3.52344,1.570722 -3.52344,3.523437 v 11.380859 c 0.0119,1.515416 0.54975,2.02905 1.85547,3.38086 11.2159,11.208768 32.86032,32.731286 45.26367,45.255859 1.35181,1.305733 1.86545,1.843503 3.38086,1.855469 h 11.38281 c 1.95271,0 3.54618,-1.572806 3.52344,-3.525391 l -0.13867,-12.03125 c -0.10815,-1.731791 -0.94731,-2.128557 -2.19727,-3.46875 -10.85652,-10.86408605 -32.04524,-31.943859 -44.04492,-44.037109 -1.34019,-1.249971 -1.73695,-2.087166 -3.46875,-2.195313 z M 119.62558,2.00806 c -0.29105,-0.03295 -0.50988,0.291193 -0.47657,1.152343 l 0.0195,21.617188 c 0.13356,2.77487 1.8133,5.065243 4.33984,5.220703 l 22.84766,0.06641 c 1.12937,-0.0184 1.67152,-0.342294 0.79687,-0.996094 -5.25542,-3.25865 -11.11787,-6.471318 -15.61523,-11.167968 -3.73595,-3.9015 -7.21035,-8.23865 -11.00391,-14.90625 -0.25313,-0.56397 -0.61715,-0.953378 -0.9082,-0.986328 z"
         style="fill:none;fill-opacity:1;stroke:#141517;stroke-width:1;stroke-linecap:round;stroke-linejoin:round;stroke-miterlimit:4;stroke-dasharray:none;stroke-opacity:0.01960784" />
      <path
         style="fill:none;fill-opacity:1;stroke:#141517;stroke-width:1.20000005;stroke-linecap:round;stroke-linejoin:round;stroke-miterlimit:4;stroke-dasharray:none;stroke-opacity:0.01960784"
         d="m 157.00253,-35.577878 c -1.12937,0.01843 -1.67152,0.342298 -0.79688,0.996094 5.25543,3.258648 11.11788,6.47132 15.61524,11.167969 3.73595,3.901505 7.21035,8.238644 11.00391,14.90625 0.50626,1.127939 1.45139,1.556277 1.38476,-0.166016 l -0.0215,-21.617187 c -0.13356,-2.774873 -1.81135,-5.065244 -4.33789,-5.220704 z m -34.13281,0.28711 c -1.95259,-0.02277 -3.52344,1.570722 -3.52344,3.523437 v 11.380859 c 0.0119,1.515416 0.54975,2.02905 1.85547,3.38086 11.2159,11.208768 32.86032,32.731286 45.26367,45.255859 1.35181,1.305733 1.86545,1.843503 3.38086,1.855469 h 11.38281 c 1.95271,0 3.54618,-1.572806 3.52344,-3.525391 l -0.13867,-12.03125 c -0.10815,-1.731791 -0.94731,-2.128557 -2.19727,-3.46875 -10.85652,-10.86408605 -32.04524,-31.943859 -44.04492,-44.037109 -1.34019,-1.249971 -1.73695,-2.087166 -3.46875,-2.195313 z M 119.62558,2.00806 c -0.29105,-0.03295 -0.50988,0.291193 -0.47657,1.152343 l 0.0195,21.617188 c 0.13356,2.77487 1.8133,5.065243 4.33984,5.220703 l 22.84766,0.06641 c 1.12937,-0.0184 1.67152,-0.342294 0.79687,-0.996094 -5.25542,-3.25865 -11.11787,-6.471318 -15.61523,-11.167968 -3.73595,-3.9015 -7.21035,-8.23865 -11.00391,-14.90625 -0.25313,-0.56397 -0.61715,-0.953378 -0.9082,-0.986328 z"
         id="path1216"
         inkscape:connector-curvature="0" />
      <path
         inkscape:connector-curvature="0"
         id="path1218"
         d="m 157.00253,-35.577878 c -1.12937,0.01843 -1.67152,0.342298 -0.79688,0.996094 5.25543,3.258648 11.11788,6.47132 15.61524,11.167969 3.73595,3.901505 7.21035,8.238644 11.00391,14.90625 0.50626,1.127939 1.45139,1.556277 1.38476,-0.166016 l -0.0215,-21.617187 c -0.13356,-2.774873 -1.81135,-5.065244 -4.33789,-5.220704 z m -34.13281,0.28711 c -1.95259,-0.02277 -3.52344,1.570722 -3.52344,3.523437 v 11.380859 c 0.0119,1.515416 0.54975,2.02905 1.85547,3.38086 11.2159,11.208768 32.86032,32.731286 45.26367,45.255859 1.35181,1.305733 1.86545,1.843503 3.38086,1.855469 h 11.38281 c 1.95271,0 3.54618,-1.572806 3.52344,-3.525391 l -0.13867,-12.03125 c -0.10815,-1.731791 -0.94731,-2.128557 -2.19727,-3.46875 -10.85652,-10.86408605 -32.04524,-31.943859 -44.04492,-44.037109 -1.34019,-1.249971 -1.73695,-2.087166 -3.46875,-2.195313 z M 119.62558,2.00806 c -0.29105,-0.03295 -0.50988,0.291193 -0.47657,1.152343 l 0.0195,21.617188 c 0.13356,2.77487 1.8133,5.065243 4.33984,5.220703 l 22.84766,0.06641 c 1.12937,-0.0184 1.67152,-0.342294 0.79687,-0.996094 -5.25542,-3.25865 -11.11787,-6.471318 -15.61523,-11.167968 -3.73595,-3.9015 -7.21035,-8.23865 -11.00391,-14.90625 -0.25313,-0.56397 -0.61715,-0.953378 -0.9082,-0.986328 z"
         style="fill:none;fill-opacity:1;stroke:#141517;stroke-width:1.70000005;stroke-linecap:round;stroke-linejoin:round;stroke-miterlimit:4;stroke-dasharray:none;stroke-opacity:0.01960784" />
      <path
         style="fill:none;fill-opacity:1;stroke:#141517;stroke-width:2.29999995;stroke-linecap:round;stroke-linejoin:round;stroke-miterlimit:4;stroke-dasharray:none;stroke-opacity:0.01960784"
         d="m 157.00253,-35.577878 c -1.12937,0.01843 -1.67152,0.342298 -0.79688,0.996094 5.25543,3.258648 11.11788,6.47132 15.61524,11.167969 3.73595,3.901505 7.21035,8.238644 11.00391,14.90625 0.50626,1.127939 1.45139,1.556277 1.38476,-0.166016 l -0.0215,-21.617187 c -0.13356,-2.774873 -1.81135,-5.065244 -4.33789,-5.220704 z m -34.13281,0.28711 c -1.95259,-0.02277 -3.52344,1.570722 -3.52344,3.523437 v 11.380859 c 0.0119,1.515416 0.54975,2.02905 1.85547,3.38086 11.2159,11.208768 32.86032,32.731286 45.26367,45.255859 1.35181,1.305733 1.86545,1.843503 3.38086,1.855469 h 11.38281 c 1.95271,0 3.54618,-1.572806 3.52344,-3.525391 l -0.13867,-12.03125 c -0.10815,-1.731791 -0.94731,-2.128557 -2.19727,-3.46875 -10.85652,-10.86408605 -32.04524,-31.943859 -44.04492,-44.037109 -1.34019,-1.249971 -1.73695,-2.087166 -3.46875,-2.195313 z M 119.62558,2.00806 c -0.29105,-0.03295 -0.50988,0.291193 -0.47657,1.152343 l 0.0195,21.617188 c 0.13356,2.77487 1.8133,5.065243 4.33984,5.220703 l 22.84766,0.06641 c 1.12937,-0.0184 1.67152,-0.342294 0.79687,-0.996094 -5.25542,-3.25865 -11.11787,-6.471318 -15.61523,-11.167968 -3.73595,-3.9015 -7.21035,-8.23865 -11.00391,-14.90625 -0.25313,-0.56397 -0.61715,-0.953378 -0.9082,-0.986328 z"
         id="path1220"
         inkscape:connector-curvature="0" />
      <path
         inkscape:connector-curvature="0"
         id="path1222"
         d="m 157.00253,-35.577878 c -1.12937,0.01843 -1.67152,0.342298 -0.79688,0.996094 5.25543,3.258648 11.11788,6.47132 15.61524,11.167969 3.73595,3.901505 7.21035,8.238644 11.00391,14.90625 0.50626,1.127939 1.45139,1.556277 1.38476,-0.166016 l -0.0215,-21.617187 c -0.13356,-2.774873 -1.81135,-5.065244 -4.33789,-5.220704 z m -34.13281,0.28711 c -1.95259,-0.02277 -3.52344,1.570722 -3.52344,3.523437 v 11.380859 c 0.0119,1.515416 0.54975,2.02905 1.85547,3.38086 11.2159,11.208768 32.86032,32.731286 45.26367,45.255859 1.35181,1.305733 1.86545,1.843503 3.38086,1.855469 h 11.38281 c 1.95271,0 3.54618,-1.572806 3.52344,-3.525391 l -0.13867,-12.03125 c -0.10815,-1.731791 -0.94731,-2.128557 -2.19727,-3.46875 -10.85652,-10.86408605 -32.04524,-31.943859 -44.04492,-44.037109 -1.34019,-1.249971 -1.73695,-2.087166 -3.46875,-2.195313 z M 119.62558,2.00806 c -0.29105,-0.03295 -0.50988,0.291193 -0.47657,1.152343 l 0.0195,21.617188 c 0.13356,2.77487 1.8133,5.065243 4.33984,5.220703 l 22.84766,0.06641 c 1.12937,-0.0184 1.67152,-0.342294 0.79687,-0.996094 -5.25542,-3.25865 -11.11787,-6.471318 -15.61523,-11.167968 -3.73595,-3.9015 -7.21035,-8.23865 -11.00391,-14.90625 -0.25313,-0.56397 -0.61715,-0.953378 -0.9082,-0.986328 z"
         style="fill:none;fill-opacity:1;stroke:#141517;stroke-width:2.79999995;stroke-linecap:round;stroke-linejoin:round;stroke-miterlimit:4;stroke-dasharray:none;stroke-opacity:0.01960784" />
      <path
         style="fill:none;fill-opacity:1;stroke:#141517;stroke-width:3.29999995;stroke-linecap:round;stroke-linejoin:round;stroke-miterlimit:4;stroke-dasharray:none;stroke-opacity:0.01960784"
         d="m 157.00253,-35.577878 c -1.12937,0.01843 -1.67152,0.342298 -0.79688,0.996094 5.25543,3.258648 11.11788,6.47132 15.61524,11.167969 3.73595,3.901505 7.21035,8.238644 11.00391,14.90625 0.50626,1.127939 1.45139,1.556277 1.38476,-0.166016 l -0.0215,-21.617187 c -0.13356,-2.774873 -1.81135,-5.065244 -4.33789,-5.220704 z m -34.13281,0.28711 c -1.95259,-0.02277 -3.52344,1.570722 -3.52344,3.523437 v 11.380859 c 0.0119,1.515416 0.54975,2.02905 1.85547,3.38086 11.2159,11.208768 32.86032,32.731286 45.26367,45.255859 1.35181,1.305733 1.86545,1.843503 3.38086,1.855469 h 11.38281 c 1.95271,0 3.54618,-1.572806 3.52344,-3.525391 l -0.13867,-12.03125 c -0.10815,-1.731791 -0.94731,-2.128557 -2.19727,-3.46875 -10.85652,-10.86408605 -32.04524,-31.943859 -44.04492,-44.037109 -1.34019,-1.249971 -1.73695,-2.087166 -3.46875,-2.195313 z M 119.62558,2.00806 c -0.29105,-0.03295 -0.50988,0.291193 -0.47657,1.152343 l 0.0195,21.617188 c 0.13356,2.77487 1.8133,5.065243 4.33984,5.220703 l 22.84766,0.06641 c 1.12937,-0.0184 1.67152,-0.342294 0.79687,-0.996094 -5.25542,-3.25865 -11.11787,-6.471318 -15.61523,-11.167968 -3.73595,-3.9015 -7.21035,-8.23865 -11.00391,-14.90625 -0.25313,-0.56397 -0.61715,-0.953378 -0.9082,-0.986328 z"
         id="path1224"
         inkscape:connector-curvature="0" />
      <path
         inkscape:connector-curvature="0"
         id="path1226"
         d="m 157.00253,-35.577878 c -1.12937,0.01843 -1.67152,0.342298 -0.79688,0.996094 5.25543,3.258648 11.11788,6.47132 15.61524,11.167969 3.73595,3.901505 7.21035,8.238644 11.00391,14.90625 0.50626,1.127939 1.45139,1.556277 1.38476,-0.166016 l -0.0215,-21.617187 c -0.13356,-2.774873 -1.81135,-5.065244 -4.33789,-5.220704 z m -34.13281,0.28711 c -1.95259,-0.02277 -3.52344,1.570722 -3.52344,3.523437 v 11.380859 c 0.0119,1.515416 0.54975,2.02905 1.85547,3.38086 11.2159,11.208768 32.86032,32.731286 45.26367,45.255859 1.35181,1.305733 1.86545,1.843503 3.38086,1.855469 h 11.38281 c 1.95271,0 3.54618,-1.572806 3.52344,-3.525391 l -0.13867,-12.03125 c -0.10815,-1.731791 -0.94731,-2.128557 -2.19727,-3.46875 -10.85652,-10.86408605 -32.04524,-31.943859 -44.04492,-44.037109 -1.34019,-1.249971 -1.73695,-2.087166 -3.46875,-2.195313 z M 119.62558,2.00806 c -0.29105,-0.03295 -0.50988,0.291193 -0.47657,1.152343 l 0.0195,21.617188 c 0.13356,2.77487 1.8133,5.065243 4.33984,5.220703 l 22.84766,0.06641 c 1.12937,-0.0184 1.67152,-0.342294 0.79687,-0.996094 -5.25542,-3.25865 -11.11787,-6.471318 -15.61523,-11.167968 -3.73595,-3.9015 -7.21035,-8.23865 -11.00391,-14.90625 -0.25313,-0.56397 -0.61715,-0.953378 -0.9082,-0.986328 z"
         style="fill:none;fill-opacity:1;stroke:#141517;stroke-width:4.30000019;stroke-linecap:round;stroke-linejoin:round;stroke-miterlimit:4;stroke-dasharray:none;stroke-opacity:0.01960784" />
      <path
         style="fill:none;fill-opacity:1;stroke:#141517;stroke-width:5.30000019;stroke-linecap:round;stroke-linejoin:round;stroke-miterlimit:4;stroke-dasharray:none;stroke-opacity:0.01960784"
         d="m 157.00253,-35.577878 c -1.12937,0.01843 -1.67152,0.342298 -0.79688,0.996094 5.25543,3.258648 11.11788,6.47132 15.61524,11.167969 3.73595,3.901505 7.21035,8.238644 11.00391,14.90625 0.50626,1.127939 1.45139,1.556277 1.38476,-0.166016 l -0.0215,-21.617187 c -0.13356,-2.774873 -1.81135,-5.065244 -4.33789,-5.220704 z m -34.13281,0.28711 c -1.95259,-0.02277 -3.52344,1.570722 -3.52344,3.523437 v 11.380859 c 0.0119,1.515416 0.54975,2.02905 1.85547,3.38086 11.2159,11.208768 32.86032,32.731286 45.26367,45.255859 1.35181,1.305733 1.86545,1.843503 3.38086,1.855469 h 11.38281 c 1.95271,0 3.54618,-1.572806 3.52344,-3.525391 l -0.13867,-12.03125 c -0.10815,-1.731791 -0.94731,-2.128557 -2.19727,-3.46875 -10.85652,-10.86408605 -32.04524,-31.943859 -44.04492,-44.037109 -1.34019,-1.249971 -1.73695,-2.087166 -3.46875,-2.195313 z M 119.62558,2.00806 c -0.29105,-0.03295 -0.50988,0.291193 -0.47657,1.152343 l 0.0195,21.617188 c 0.13356,2.77487 1.8133,5.065243 4.33984,5.220703 l 22.84766,0.06641 c 1.12937,-0.0184 1.67152,-0.342294 0.79687,-0.996094 -5.25542,-3.25865 -11.11787,-6.471318 -15.61523,-11.167968 -3.73595,-3.9015 -7.21035,-8.23865 -11.00391,-14.90625 -0.25313,-0.56397 -0.61715,-0.953378 -0.9082,-0.986328 z"
         id="path1228"
         inkscape:connector-curvature="0" />
      <path
         inkscape:connector-curvature="0"
         id="path1230"
         d="m 157.00253,-35.577878 c -1.12937,0.01843 -1.67152,0.342298 -0.79688,0.996094 5.25543,3.258648 11.11788,6.47132 15.61524,11.167969 3.73595,3.901505 7.21035,8.238644 11.00391,14.90625 0.50626,1.127939 1.45139,1.556277 1.38476,-0.166016 l -0.0215,-21.617187 c -0.13356,-2.774873 -1.81135,-5.065244 -4.33789,-5.220704 z m -34.13281,0.28711 c -1.95259,-0.02277 -3.52344,1.570722 -3.52344,3.523437 v 11.380859 c 0.0119,1.515416 0.54975,2.02905 1.85547,3.38086 11.2159,11.208768 32.86032,32.731286 45.26367,45.255859 1.35181,1.305733 1.86545,1.843503 3.38086,1.855469 h 11.38281 c 1.95271,0 3.54618,-1.572806 3.52344,-3.525391 l -0.13867,-12.03125 c -0.10815,-1.731791 -0.94731,-2.128557 -2.19727,-3.46875 -10.85652,-10.86408605 -32.04524,-31.943859 -44.04492,-44.037109 -1.34019,-1.249971 -1.73695,-2.087166 -3.46875,-2.195313 z M 119.62558,2.00806 c -0.29105,-0.03295 -0.50988,0.291193 -0.47657,1.152343 l 0.0195,21.617188 c 0.13356,2.77487 1.8133,5.065243 4.33984,5.220703 l 22.84766,0.06641 c 1.12937,-0.0184 1.67152,-0.342294 0.79687,-0.996094 -5.25542,-3.25865 -11.11787,-6.471318 -15.61523,-11.167968 -3.73595,-3.9015 -7.21035,-8.23865 -11.00391,-14.90625 -0.25313,-0.56397 -0.61715,-0.953378 -0.9082,-0.986328 z"
         style="fill:none;fill-opacity:1;stroke:#141517;stroke-width:6.30000019;stroke-linecap:round;stroke-linejoin:round;stroke-miterlimit:4;stroke-dasharray:none;stroke-opacity:0.01960784" />
      <path
         style="fill:none;fill-opacity:1;stroke:#141517;stroke-width:7.30000019;stroke-linecap:round;stroke-linejoin:round;stroke-miterlimit:4;stroke-dasharray:none;stroke-opacity:0.01960784"
         d="m 157.00253,-35.577878 c -1.12937,0.01843 -1.67152,0.342298 -0.79688,0.996094 5.25543,3.258648 11.11788,6.47132 15.61524,11.167969 3.73595,3.901505 7.21035,8.238644 11.00391,14.90625 0.50626,1.127939 1.45139,1.556277 1.38476,-0.166016 l -0.0215,-21.617187 c -0.13356,-2.774873 -1.81135,-5.065244 -4.33789,-5.220704 z m -34.13281,0.28711 c -1.95259,-0.02277 -3.52344,1.570722 -3.52344,3.523437 v 11.380859 c 0.0119,1.515416 0.54975,2.02905 1.85547,3.38086 11.2159,11.208768 32.86032,32.731286 45.26367,45.255859 1.35181,1.305733 1.86545,1.843503 3.38086,1.855469 h 11.38281 c 1.95271,0 3.54618,-1.572806 3.52344,-3.525391 l -0.13867,-12.03125 c -0.10815,-1.731791 -0.94731,-2.128557 -2.19727,-3.46875 -10.85652,-10.86408605 -32.04524,-31.943859 -44.04492,-44.037109 -1.34019,-1.249971 -1.73695,-2.087166 -3.46875,-2.195313 z M 119.62558,2.00806 c -0.29105,-0.03295 -0.50988,0.291193 -0.47657,1.152343 l 0.0195,21.617188 c 0.13356,2.77487 1.8133,5.065243 4.33984,5.220703 l 22.84766,0.06641 c 1.12937,-0.0184 1.67152,-0.342294 0.79687,-0.996094 -5.25542,-3.25865 -11.11787,-6.471318 -15.61523,-11.167968 -3.73595,-3.9015 -7.21035,-8.23865 -11.00391,-14.90625 -0.25313,-0.56397 -0.61715,-0.953378 -0.9082,-0.986328 z"
         id="path1232"
         inkscape:connector-curvature="0" />
      <path
         inkscape:connector-curvature="0"
         id="path1234"
         d="m 157.00253,-35.577878 c -1.12937,0.01843 -1.67152,0.342298 -0.79688,0.996094 5.25543,3.258648 11.11788,6.47132 15.61524,11.167969 3.73595,3.901505 7.21035,8.238644 11.00391,14.90625 0.50626,1.127939 1.45139,1.556277 1.38476,-0.166016 l -0.0215,-21.617187 c -0.13356,-2.774873 -1.81135,-5.065244 -4.33789,-5.220704 z m -34.13281,0.28711 c -1.95259,-0.02277 -3.52344,1.570722 -3.52344,3.523437 v 11.380859 c 0.0119,1.515416 0.54975,2.02905 1.85547,3.38086 11.2159,11.208768 32.86032,32.731286 45.26367,45.255859 1.35181,1.305733 1.86545,1.843503 3.38086,1.855469 h 11.38281 c 1.95271,0 3.54618,-1.572806 3.52344,-3.525391 l -0.13867,-12.03125 c -0.10815,-1.731791 -0.94731,-2.128557 -2.19727,-3.46875 -10.85652,-10.86408605 -32.04524,-31.943859 -44.04492,-44.037109 -1.34019,-1.249971 -1.73695,-2.087166 -3.46875,-2.195313 z M 119.62558,2.00806 c -0.29105,-0.03295 -0.50988,0.291193 -0.47657,1.152343 l 0.0195,21.617188 c 0.13356,2.77487 1.8133,5.065243 4.33984,5.220703 l 22.84766,0.06641 c 1.12937,-0.0184 1.67152,-0.342294 0.79687,-0.996094 -5.25542,-3.25865 -11.11787,-6.471318 -15.61523,-11.167968 -3.73595,-3.9015 -7.21035,-8.23865 -11.00391,-14.90625 -0.25313,-0.56397 -0.61715,-0.953378 -0.9082,-0.986328 z"
         style="fill:none;fill-opacity:1;stroke:#141517;stroke-width:8.80000019;stroke-linecap:round;stroke-linejoin:round;stroke-miterlimit:4;stroke-dasharray:none;stroke-opacity:0.01960784" />
      <path
         style="fill:none;fill-opacity:1;stroke:#141517;stroke-width:10.30000019;stroke-linecap:round;stroke-linejoin:round;stroke-miterlimit:4;stroke-dasharray:none;stroke-opacity:0.01960784"
         d="m 157.00253,-35.577878 c -1.12937,0.01843 -1.67152,0.342298 -0.79688,0.996094 5.25543,3.258648 11.11788,6.47132 15.61524,11.167969 3.73595,3.901505 7.21035,8.238644 11.00391,14.90625 0.50626,1.127939 1.45139,1.556277 1.38476,-0.166016 l -0.0215,-21.617187 c -0.13356,-2.774873 -1.81135,-5.065244 -4.33789,-5.220704 z m -34.13281,0.28711 c -1.95259,-0.02277 -3.52344,1.570722 -3.52344,3.523437 v 11.380859 c 0.0119,1.515416 0.54975,2.02905 1.85547,3.38086 11.2159,11.208768 32.86032,32.731286 45.26367,45.255859 1.35181,1.305733 1.86545,1.843503 3.38086,1.855469 h 11.38281 c 1.95271,0 3.54618,-1.572806 3.52344,-3.525391 l -0.13867,-12.03125 c -0.10815,-1.731791 -0.94731,-2.128557 -2.19727,-3.46875 -10.85652,-10.86408605 -32.04524,-31.943859 -44.04492,-44.037109 -1.34019,-1.249971 -1.73695,-2.087166 -3.46875,-2.195313 z M 119.62558,2.00806 c -0.29105,-0.03295 -0.50988,0.291193 -0.47657,1.152343 l 0.0195,21.617188 c 0.13356,2.77487 1.8133,5.065243 4.33984,5.220703 l 22.84766,0.06641 c 1.12937,-0.0184 1.67152,-0.342294 0.79687,-0.996094 -5.25542,-3.25865 -11.11787,-6.471318 -15.61523,-11.167968 -3.73595,-3.9015 -7.21035,-8.23865 -11.00391,-14.90625 -0.25313,-0.56397 -0.61715,-0.953378 -0.9082,-0.986328 z"
         id="path1236"
         inkscape:connector-curvature="0" />
      <path
         inkscape:connector-curvature="0"
         id="path1238"
         d="m 157.00253,-35.577878 c -1.12937,0.01843 -1.67152,0.342298 -0.79688,0.996094 5.25543,3.258648 11.11788,6.47132 15.61524,11.167969 3.73595,3.901505 7.21035,8.238644 11.00391,14.90625 0.50626,1.127939 1.45139,1.556277 1.38476,-0.166016 l -0.0215,-21.617187 c -0.13356,-2.774873 -1.81135,-5.065244 -4.33789,-5.220704 z m -34.13281,0.28711 c -1.95259,-0.02277 -3.52344,1.570722 -3.52344,3.523437 v 11.380859 c 0.0119,1.515416 0.54975,2.02905 1.85547,3.38086 11.2159,11.208768 32.86032,32.731286 45.26367,45.255859 1.35181,1.305733 1.86545,1.843503 3.38086,1.855469 h 11.38281 c 1.95271,0 3.54618,-1.572806 3.52344,-3.525391 l -0.13867,-12.03125 c -0.10815,-1.731791 -0.94731,-2.128557 -2.19727,-3.46875 -10.85652,-10.86408605 -32.04524,-31.943859 -44.04492,-44.037109 -1.34019,-1.249971 -1.73695,-2.087166 -3.46875,-2.195313 z M 119.62558,2.00806 c -0.29105,-0.03295 -0.50988,0.291193 -0.47657,1.152343 l 0.0195,21.617188 c 0.13356,2.77487 1.8133,5.065243 4.33984,5.220703 l 22.84766,0.06641 c 1.12937,-0.0184 1.67152,-0.342294 0.79687,-0.996094 -5.25542,-3.25865 -11.11787,-6.471318 -15.61523,-11.167968 -3.73595,-3.9015 -7.21035,-8.23865 -11.00391,-14.90625 -0.25313,-0.56397 -0.61715,-0.953378 -0.9082,-0.986328 z"
         style="fill:none;fill-opacity:1;stroke:#141517;stroke-width:11.80000019;stroke-linecap:round;stroke-linejoin:round;stroke-miterlimit:4;stroke-dasharray:none;stroke-opacity:0.01960784" />
    </g>
    <path
       inkscape:connector-curvature="0"
       id="path1124"
       d="m 235.2397,0.47258325 c -1.12937,0.01843 -1.67152,0.342298 -0.79688,0.99609395 5.25543,3.258648 11.11788,6.47132 15.61524,11.1679688 3.73595,3.901505 7.21035,8.238644 11.00391,14.90625 0.50626,1.127939 1.45139,1.556277 1.38476,-0.166016 l -0.0215,-21.6171868 c -0.13356,-2.774873 -1.81135,-5.06524395 -4.33789,-5.22070395 z m -34.13281,0.28711 c -1.95259,-0.022771 -3.52344,1.57072195 -3.52344,3.52343695 V 15.663989 c 0.0119,1.515416 0.54975,2.02905 1.85547,3.38086 11.2159,11.208768 32.86032,32.731286 45.26367,45.255859 1.35181,1.305733 1.86545,1.843503 3.38086,1.855469 h 11.38281 c 1.95271,0 3.54618,-1.572806 3.52344,-3.525391 l -0.13867,-12.03125 c -0.10815,-1.731791 -0.94731,-2.128557 -2.19727,-3.46875 C 249.79724,36.2667 228.60852,15.186927 216.60884,3.0936772 215.26865,1.8437062 214.87189,1.0065112 213.14009,0.89836425 Z M 197.86275,38.058521 c -0.29105,-0.03295 -0.50988,0.291193 -0.47657,1.152343 l 0.0195,21.617188 c 0.13356,2.77487 1.8133,5.065243 4.33984,5.220703 l 22.84766,0.06641 c 1.12937,-0.0184 1.67152,-0.342294 0.79687,-0.996094 -5.25542,-3.25865 -11.11787,-6.471318 -15.61523,-11.167968 -3.73595,-3.9015 -7.21035,-8.23865 -11.00391,-14.90625 -0.25313,-0.56397 -0.61715,-0.953378 -0.9082,-0.986328 z"
       style="fill:#ff3f54;fill-opacity:1;stroke:none;stroke-width:0.2;stroke-linecap:butt;stroke-linejoin:miter;stroke-miterlimit:4;stroke-dasharray:none;stroke-opacity:1" />
  </g>
</svg>
