<?xml version="1.0" encoding="UTF-8" standalone="no"?>
<!-- Created with Inkscape (http://www.inkscape.org/) -->

<svg
   xmlns:dc="http://purl.org/dc/elements/1.1/"
   xmlns:cc="http://creativecommons.org/ns#"
   xmlns:rdf="http://www.w3.org/1999/02/22-rdf-syntax-ns#"
   xmlns:svg="http://www.w3.org/2000/svg"
   xmlns="http://www.w3.org/2000/svg"
   xmlns:xlink="http://www.w3.org/1999/xlink"
   xmlns:sodipodi="http://sodipodi.sourceforge.net/DTD/sodipodi-0.dtd"
   xmlns:inkscape="http://www.inkscape.org/namespaces/inkscape"
   version="1.1"
   id="svg2"
   width="128"
   height="128"
   viewBox="0 0 128 128"
   sodipodi:docname="org.gnome.Todo.svg"
   inkscape:version="0.92.3 (2405546, 2018-03-11)">
  <metadata
     id="metadata8">
    <rdf:RDF>
      <cc:Work
         rdf:about="">
        <dc:format>image/svg+xml</dc:format>
        <dc:type
           rdf:resource="http://purl.org/dc/dcmitype/StillImage" />
        <dc:title></dc:title>
      </cc:Work>
    </rdf:RDF>
  </metadata>
  <defs
     id="defs6">
    <linearGradient
       inkscape:collect="always"
       id="linearGradient4870">
      <stop
         style="stop-color:#2b2c2b;stop-opacity:1"
         offset="0"
         id="stop4866" />
      <stop
         style="stop-color:#494c4d;stop-opacity:1"
         offset="1"
         id="stop4868" />
    </linearGradient>
    <filter
       inkscape:collect="always"
       style="color-interpolation-filters:sRGB"
       id="filter4783"
       x="-0.029999999"
       width="1.0599999"
       y="-0.029999999"
       height="1.0599999">
      <feGaussianBlur
         inkscape:collect="always"
         stdDeviation="0.038351554"
         id="feGaussianBlur4785" />
    </filter>
    <linearGradient
       inkscape:collect="always"
       xlink:href="#linearGradient4870"
       id="linearGradient4872"
       x1="35.188129"
       y1="23.948126"
       x2="35.402603"
       y2="6.9107485"
       gradientUnits="userSpaceOnUse" />
  </defs>
  <sodipodi:namedview
     pagecolor="#ffffff"
     bordercolor="#666666"
     borderopacity="1"
     objecttolerance="10"
     gridtolerance="10"
     guidetolerance="10"
     inkscape:pageopacity="0"
     inkscape:pageshadow="2"
     inkscape:window-width="1360"
     inkscape:window-height="718"
     id="namedview4"
     showgrid="false"
     inkscape:zoom="1.1523437"
     inkscape:cx="8.015949"
     inkscape:cy="11.195046"
     inkscape:window-x="0"
     inkscape:window-y="26"
     inkscape:window-maximized="1"
     inkscape:current-layer="svg2" />
  <g
     id="g4900"
     transform="matrix(5.1070005,-0.75452194,0.75452194,5.1070005,-119.98759,34.175304)">
    <path
       transform="rotate(-0.3832246)"
       style="opacity:1;fill:url(#linearGradient4872);fill-opacity:1;stroke:none;stroke-width:1;stroke-linecap:round;stroke-linejoin:round;stroke-miterlimit:4;stroke-dasharray:none;stroke-dashoffset:0;stroke-opacity:1"
       d="m 27.007982,0.994403 h 14.402601 c 0.831,0 1.5,0.669 1.5,1.5 v 18.153671 c 0,0.831 -0.669,1.5 -1.5,1.5 H 27.007982 c -0.831,0 -1.5,-0.669 -1.5,-1.5 V 2.494403 c 0,-0.831 0.669,-1.5 1.5,-1.5 z"
       id="rect4751"
       inkscape:connector-curvature="0" />
    <path
       transform="rotate(-0.3832246)"
       style="opacity:1;fill:#f9f9f9;fill-opacity:1;stroke:none;stroke-width:1;stroke-linecap:round;stroke-linejoin:round;stroke-miterlimit:4;stroke-dasharray:none;stroke-dashoffset:0;stroke-opacity:1"
       d="m 27.391499,0.99411929 h 13.759323 c 0.831,0 1.5,0.66900001 1.5,1.50000001 V 20.05005 c 0,0.831 -0.669,1.5 -1.5,1.5 H 27.391499 c -0.831,0 -1.5,-0.669 -1.5,-1.5 V 2.4941193 c 0,-0.831 0.669,-1.50000001 1.5,-1.50000001 z"
       id="rect4749"
       inkscape:connector-curvature="0" />
    <g
       transform="translate(18.111521,-2.4544976)"
       id="g4790">
      <circle
         r="1.5340621"
         cy="7.1529026"
         cx="10.738436"
         id="circle4761"
         style="opacity:1;fill:#080604;fill-opacity:1;stroke:none;stroke-width:1.03896105;stroke-linecap:round;stroke-linejoin:round;stroke-miterlimit:4;stroke-dasharray:none;stroke-dashoffset:0;stroke-opacity:1;filter:url(#filter4783)" />
      <path
         style="opacity:1;fill:#f4efe7;fill-opacity:1;stroke:none;stroke-width:1.03896105;stroke-linecap:round;stroke-linejoin:round;stroke-miterlimit:4;stroke-dasharray:none;stroke-dashoffset:0;stroke-opacity:1"
         d="M 12.272498,7.1529026 A 1.5340621,1.5340621 0 0 1 10.738436,8.6869648 1.5340621,1.5340621 0 0 1 9.2043736,7.1529026 1.5340621,1.5340621 0 0 1 10.738436,5.6188405 1.5340621,1.5340621 0 0 1 12.272498,7.1529026 Z"
         id="path4757"
         inkscape:connector-curvature="0" />
      <path
         style="opacity:1;fill:#ff9500;fill-opacity:1;stroke:none;stroke-width:0.88961041;stroke-linecap:round;stroke-linejoin:round;stroke-miterlimit:4;stroke-dasharray:none;stroke-dashoffset:0;stroke-opacity:1"
         d="m 12.051976,7.1529026 a 1.3135407,1.3135407 0 0 1 -1.31354,1.3135407 1.3135407,1.3135407 0 0 1 -1.313541,-1.3135407 1.3135407,1.3135407 0 0 1 1.313541,-1.3135407 1.3135407,1.3135407 0 0 1 1.31354,1.3135407 z"
         id="circle4759"
         inkscape:connector-curvature="0" />
    </g>
    <g
       transform="translate(18.111521,1.8280909)"
       id="g4798">
      <circle
         style="opacity:1;fill:#080604;fill-opacity:1;stroke:none;stroke-width:1.03896105;stroke-linecap:round;stroke-linejoin:round;stroke-miterlimit:4;stroke-dasharray:none;stroke-dashoffset:0;stroke-opacity:1;filter:url(#filter4783)"
         id="circle4792"
         cx="10.738436"
         cy="7.1529026"
         r="1.5340621" />
      <path
         style="opacity:1;fill:#f4efe7;fill-opacity:1;stroke:none;stroke-width:1.03896105;stroke-linecap:round;stroke-linejoin:round;stroke-miterlimit:4;stroke-dasharray:none;stroke-dashoffset:0;stroke-opacity:1"
         d="M 12.272498,7.1529026 A 1.5340621,1.5340621 0 0 1 10.738436,8.6869648 1.5340621,1.5340621 0 0 1 9.2043736,7.1529026 1.5340621,1.5340621 0 0 1 10.738436,5.6188405 1.5340621,1.5340621 0 0 1 12.272498,7.1529026 Z"
         id="circle4794"
         inkscape:connector-curvature="0" />
      <circle
         style="opacity:1;fill:#1badf8;fill-opacity:1;stroke:none;stroke-width:0.88961041;stroke-linecap:round;stroke-linejoin:round;stroke-miterlimit:4;stroke-dasharray:none;stroke-dashoffset:0;stroke-opacity:1"
         id="circle4796"
         cx="10.738436"
         cy="7.1529026"
         r="1.3135407" />
      <path
         style="opacity:1;fill:#1badf8;fill-opacity:1;stroke:none;stroke-width:0.88961041;stroke-linecap:round;stroke-linejoin:round;stroke-miterlimit:4;stroke-dasharray:none;stroke-dashoffset:0;stroke-opacity:1"
         d="m 12.051976,7.1529026 a 1.3135407,1.3135407 0 0 1 -1.31354,1.3135407 1.3135407,1.3135407 0 0 1 -1.313541,-1.3135407 1.3135407,1.3135407 0 0 1 1.313541,-1.3135407 1.3135407,1.3135407 0 0 1 1.31354,1.3135407 z"
         id="circle4800"
         inkscape:connector-curvature="0" />
    </g>
    <g
       id="g4810"
       transform="translate(18.111521,6.1106814)">
      <circle
         r="1.5340621"
         cy="7.1529026"
         cx="10.738436"
         id="circle4802"
         style="opacity:1;fill:#080604;fill-opacity:1;stroke:none;stroke-width:1.03896105;stroke-linecap:round;stroke-linejoin:round;stroke-miterlimit:4;stroke-dasharray:none;stroke-dashoffset:0;stroke-opacity:1;filter:url(#filter4783)" />
      <circle
         style="opacity:1;fill:#f4efe7;fill-opacity:1;stroke:none;stroke-width:1.03896105;stroke-linecap:round;stroke-linejoin:round;stroke-miterlimit:4;stroke-dasharray:none;stroke-dashoffset:0;stroke-opacity:1"
         id="circle4804"
         cx="10.738436"
         cy="7.1529026"
         r="1.5340621" />
      <circle
         r="1.3135407"
         cy="7.1529026"
         cx="10.738436"
         id="circle4806"
         style="opacity:1;fill:#1badf8;fill-opacity:1;stroke:none;stroke-width:0.88961041;stroke-linecap:round;stroke-linejoin:round;stroke-miterlimit:4;stroke-dasharray:none;stroke-dashoffset:0;stroke-opacity:1" />
      <circle
         style="opacity:1;fill:#6bdb43;fill-opacity:1;stroke:none;stroke-width:0.88961041;stroke-linecap:round;stroke-linejoin:round;stroke-miterlimit:4;stroke-dasharray:none;stroke-dashoffset:0;stroke-opacity:1"
         id="circle4808"
         cx="10.738436"
         cy="7.1529026"
         r="1.3135407" />
    </g>
    <g
       transform="translate(18.111521,10.393272)"
       id="g4820">
      <circle
         style="opacity:1;fill:#080604;fill-opacity:1;stroke:none;stroke-width:1.03896105;stroke-linecap:round;stroke-linejoin:round;stroke-miterlimit:4;stroke-dasharray:none;stroke-dashoffset:0;stroke-opacity:1;filter:url(#filter4783)"
         id="circle4812"
         cx="10.738436"
         cy="7.1529026"
         r="1.5340621" />
      <path
         style="opacity:1;fill:#f4efe7;fill-opacity:1;stroke:none;stroke-width:1.03896105;stroke-linecap:round;stroke-linejoin:round;stroke-miterlimit:4;stroke-dasharray:none;stroke-dashoffset:0;stroke-opacity:1"
         d="M 12.272498,7.1529026 A 1.5340621,1.5340621 0 0 1 10.738436,8.6869648 1.5340621,1.5340621 0 0 1 9.2043736,7.1529026 1.5340621,1.5340621 0 0 1 10.738436,5.6188405 1.5340621,1.5340621 0 0 1 12.272498,7.1529026 Z"
         id="circle4814"
         inkscape:connector-curvature="0" />
      <circle
         style="opacity:1;fill:#1badf8;fill-opacity:1;stroke:none;stroke-width:0.88961041;stroke-linecap:round;stroke-linejoin:round;stroke-miterlimit:4;stroke-dasharray:none;stroke-dashoffset:0;stroke-opacity:1"
         id="circle4816"
         cx="10.738436"
         cy="7.1529026"
         r="1.3135407" />
      <path
         style="opacity:1;fill:#cc73e1;fill-opacity:1;stroke:none;stroke-width:0.88961041;stroke-linecap:round;stroke-linejoin:round;stroke-miterlimit:4;stroke-dasharray:none;stroke-dashoffset:0;stroke-opacity:1"
         d="m 12.051976,7.1529026 a 1.3135407,1.3135407 0 0 1 -1.31354,1.3135407 1.3135407,1.3135407 0 0 1 -1.313541,-1.3135407 1.3135407,1.3135407 0 0 1 1.313541,-1.3135407 1.3135407,1.3135407 0 0 1 1.31354,1.3135407 z"
         id="circle4818"
         inkscape:connector-curvature="0" />
    </g>
    <path
       style="color:#000000;font-style:normal;font-variant:normal;font-weight:normal;font-stretch:normal;font-size:medium;line-height:normal;font-family:sans-serif;font-variant-ligatures:normal;font-variant-position:normal;font-variant-caps:normal;font-variant-numeric:normal;font-variant-alternates:normal;font-feature-settings:normal;text-indent:0;text-align:start;text-decoration:none;text-decoration-line:none;text-decoration-style:solid;text-decoration-color:#000000;letter-spacing:normal;word-spacing:normal;text-transform:none;writing-mode:lr-tb;direction:ltr;text-orientation:mixed;dominant-baseline:auto;baseline-shift:baseline;text-anchor:start;white-space:normal;shape-padding:0;clip-rule:nonzero;display:inline;overflow:visible;visibility:visible;opacity:1;isolation:auto;mix-blend-mode:normal;color-interpolation:sRGB;color-interpolation-filters:linearRGB;solid-color:#000000;solid-opacity:1;vector-effect:none;fill:#444848;fill-opacity:0.76470588;fill-rule:nonzero;stroke:none;stroke-width:0.08;stroke-linecap:round;stroke-linejoin:miter;stroke-miterlimit:4;stroke-dasharray:none;stroke-dashoffset:0;stroke-opacity:1;color-rendering:auto;image-rendering:auto;shape-rendering:auto;text-rendering:auto;enable-background:accumulate"
       d="m 30.980469,2.4726562 a 0.040004,0.040004 0 0 0 -0.01758,0.00781 0.040004,0.040004 0 0 0 -0.0059,0.00586 0.040004,0.040004 0 0 0 -0.0039,0.044922 0.040004,0.040004 0 0 0 0.01953,0.019531 0.040004,0.040004 0 0 0 0.01563,0.00195 h 10.048828 a 0.040004,0.040004 0 0 0 0.01758,-0.00586 0.040004,0.040004 0 0 0 0.0098,-0.00586 0.040004,0.040004 0 0 0 0.0059,-0.00586 0.040004,0.040004 0 0 0 0,-0.044922 0.040004,0.040004 0 0 0 -0.01172,-0.011719 0.040004,0.040004 0 0 0 -0.02148,-0.00586 H 30.988281 a 0.040004,0.040004 0 0 0 -0.0078,0 z"
       id="path4822"
       inkscape:connector-curvature="0" />
    <path
       style="color:#000000;font-style:normal;font-variant:normal;font-weight:normal;font-stretch:normal;font-size:medium;line-height:normal;font-family:sans-serif;font-variant-ligatures:normal;font-variant-position:normal;font-variant-caps:normal;font-variant-numeric:normal;font-variant-alternates:normal;font-feature-settings:normal;text-indent:0;text-align:start;text-decoration:none;text-decoration-line:none;text-decoration-style:solid;text-decoration-color:#000000;letter-spacing:normal;word-spacing:normal;text-transform:none;writing-mode:lr-tb;direction:ltr;text-orientation:mixed;dominant-baseline:auto;baseline-shift:baseline;text-anchor:start;white-space:normal;shape-padding:0;clip-rule:nonzero;display:inline;overflow:visible;visibility:visible;opacity:1;isolation:auto;mix-blend-mode:normal;color-interpolation:sRGB;color-interpolation-filters:linearRGB;solid-color:#000000;solid-opacity:1;vector-effect:none;fill:#444848;fill-opacity:0.76470588;fill-rule:nonzero;stroke:none;stroke-width:0.08;stroke-linecap:round;stroke-linejoin:miter;stroke-miterlimit:4;stroke-dasharray:none;stroke-dashoffset:0;stroke-opacity:1;color-rendering:auto;image-rendering:auto;shape-rendering:auto;text-rendering:auto;enable-background:accumulate"
       d="m 30.980469,19.347656 a 0.040004,0.040004 0 0 0 -0.01758,0.0078 0.040004,0.040004 0 0 0 -0.0059,0.0059 0.040004,0.040004 0 0 0 -0.0059,0.0098 0.040004,0.040004 0 0 0 0,0.03125 0.040004,0.040004 0 0 0 0.01172,0.01563 0.040004,0.040004 0 0 0 0.0098,0.0059 0.040004,0.040004 0 0 0 0.01563,0.0039 h 10.048828 a 0.040004,0.040004 0 0 0 0.01758,-0.0059 0.040004,0.040004 0 0 0 0.0098,-0.0059 0.040004,0.040004 0 0 0 0.0078,-0.0098 0.040004,0.040004 0 0 0 -0.01367,-0.05273 0.040004,0.040004 0 0 0 -0.02148,-0.0059 H 30.988281 a 0.040004,0.040004 0 0 0 -0.0078,0 z"
       id="path4824"
       inkscape:connector-curvature="0" />
    <path
       style="color:#000000;font-style:normal;font-variant:normal;font-weight:normal;font-stretch:normal;font-size:medium;line-height:normal;font-family:sans-serif;font-variant-ligatures:normal;font-variant-position:normal;font-variant-caps:normal;font-variant-numeric:normal;font-variant-alternates:normal;font-feature-settings:normal;text-indent:0;text-align:start;text-decoration:none;text-decoration-line:none;text-decoration-style:solid;text-decoration-color:#000000;letter-spacing:normal;word-spacing:normal;text-transform:none;writing-mode:lr-tb;direction:ltr;text-orientation:mixed;dominant-baseline:auto;baseline-shift:baseline;text-anchor:start;white-space:normal;shape-padding:0;clip-rule:nonzero;display:inline;overflow:visible;visibility:visible;opacity:1;isolation:auto;mix-blend-mode:normal;color-interpolation:sRGB;color-interpolation-filters:linearRGB;solid-color:#000000;solid-opacity:1;vector-effect:none;fill:#444848;fill-opacity:0.76470588;fill-rule:nonzero;stroke:none;stroke-width:0.08;stroke-linecap:round;stroke-linejoin:miter;stroke-miterlimit:4;stroke-dasharray:none;stroke-dashoffset:0;stroke-opacity:1;color-rendering:auto;image-rendering:auto;shape-rendering:auto;text-rendering:auto;enable-background:accumulate"
       d="m 30.980469,15.128906 a 0.040004,0.040004 0 0 0 -0.01758,0.0078 0.040004,0.040004 0 0 0 -0.0059,0.0059 0.040004,0.040004 0 0 0 -0.0078,0.01367 0.040004,0.040004 0 0 0 0.002,0.02734 0.040004,0.040004 0 0 0 0.01172,0.01563 0.040004,0.040004 0 0 0 0.0098,0.0059 0.040004,0.040004 0 0 0 0.01563,0.0039 h 10.048828 a 0.040004,0.040004 0 0 0 0.01758,-0.0059 0.040004,0.040004 0 0 0 0.0098,-0.0059 0.040004,0.040004 0 0 0 0.0059,-0.0059 0.040004,0.040004 0 0 0 -0.01172,-0.05664 0.040004,0.040004 0 0 0 -0.02148,-0.0059 H 30.988281 a 0.040004,0.040004 0 0 0 -0.0078,0 z"
       id="path4826"
       inkscape:connector-curvature="0" />
    <path
       style="color:#000000;font-style:normal;font-variant:normal;font-weight:normal;font-stretch:normal;font-size:medium;line-height:normal;font-family:sans-serif;font-variant-ligatures:normal;font-variant-position:normal;font-variant-caps:normal;font-variant-numeric:normal;font-variant-alternates:normal;font-feature-settings:normal;text-indent:0;text-align:start;text-decoration:none;text-decoration-line:none;text-decoration-style:solid;text-decoration-color:#000000;letter-spacing:normal;word-spacing:normal;text-transform:none;writing-mode:lr-tb;direction:ltr;text-orientation:mixed;dominant-baseline:auto;baseline-shift:baseline;text-anchor:start;white-space:normal;shape-padding:0;clip-rule:nonzero;display:inline;overflow:visible;visibility:visible;opacity:1;isolation:auto;mix-blend-mode:normal;color-interpolation:sRGB;color-interpolation-filters:linearRGB;solid-color:#000000;solid-opacity:1;vector-effect:none;fill:#444848;fill-opacity:0.76470588;fill-rule:nonzero;stroke:none;stroke-width:0.08;stroke-linecap:round;stroke-linejoin:miter;stroke-miterlimit:4;stroke-dasharray:none;stroke-dashoffset:0;stroke-opacity:1;color-rendering:auto;image-rendering:auto;shape-rendering:auto;text-rendering:auto;enable-background:accumulate"
       d="m 30.980469,10.910156 a 0.040004,0.040004 0 0 0 -0.01758,0.0078 0.040004,0.040004 0 0 0 -0.0059,0.0059 0.040004,0.040004 0 0 0 -0.0078,0.01367 0.040004,0.040004 0 0 0 0.0039,0.03125 0.040004,0.040004 0 0 0 0.0098,0.01172 0.040004,0.040004 0 0 0 0.0098,0.0059 0.040004,0.040004 0 0 0 0.01563,0.0039 h 10.048828 a 0.040004,0.040004 0 0 0 0.01758,-0.0059 0.040004,0.040004 0 0 0 0.0098,-0.0059 0.040004,0.040004 0 0 0 0.0059,-0.0059 0.040004,0.040004 0 0 0 -0.01172,-0.05664 0.040004,0.040004 0 0 0 -0.02148,-0.0059 H 30.988281 a 0.040004,0.040004 0 0 0 -0.0078,0 z"
       id="path4828"
       inkscape:connector-curvature="0" />
    <path
       style="color:#000000;font-style:normal;font-variant:normal;font-weight:normal;font-stretch:normal;font-size:medium;line-height:normal;font-family:sans-serif;font-variant-ligatures:normal;font-variant-position:normal;font-variant-caps:normal;font-variant-numeric:normal;font-variant-alternates:normal;font-feature-settings:normal;text-indent:0;text-align:start;text-decoration:none;text-decoration-line:none;text-decoration-style:solid;text-decoration-color:#000000;letter-spacing:normal;word-spacing:normal;text-transform:none;writing-mode:lr-tb;direction:ltr;text-orientation:mixed;dominant-baseline:auto;baseline-shift:baseline;text-anchor:start;white-space:normal;shape-padding:0;clip-rule:nonzero;display:inline;overflow:visible;visibility:visible;opacity:1;isolation:auto;mix-blend-mode:normal;color-interpolation:sRGB;color-interpolation-filters:linearRGB;solid-color:#000000;solid-opacity:1;vector-effect:none;fill:#444848;fill-opacity:0.76470588;fill-rule:nonzero;stroke:none;stroke-width:0.08;stroke-linecap:round;stroke-linejoin:miter;stroke-miterlimit:4;stroke-dasharray:none;stroke-dashoffset:0;stroke-opacity:1;color-rendering:auto;image-rendering:auto;shape-rendering:auto;text-rendering:auto;enable-background:accumulate"
       d="m 30.980469,6.6914062 a 0.040004,0.040004 0 0 0 -0.01758,0.00781 0.040004,0.040004 0 0 0 -0.0059,0.00586 0.040004,0.040004 0 0 0 -0.0039,0.044922 0.040004,0.040004 0 0 0 0.01953,0.017578 0.040004,0.040004 0 0 0 0.01563,0.00391 h 10.048828 a 0.040004,0.040004 0 0 0 0.01758,-0.00586 0.040004,0.040004 0 0 0 0.0098,-0.00586 0.040004,0.040004 0 0 0 0.0059,-0.00586 0.040004,0.040004 0 0 0 -0.01172,-0.056641 0.040004,0.040004 0 0 0 -0.02148,-0.00586 H 30.988281 a 0.040004,0.040004 0 0 0 -0.0078,0 z"
       id="path4830"
       inkscape:connector-curvature="0" />
  </g>
</svg>
