<svg height="128" viewBox="0 0 128 128" width="128" xmlns="http://www.w3.org/2000/svg" xmlns:xlink="http://www.w3.org/1999/xlink"><filter id="a" color-interpolation-filters="sRGB" height="1.06" width="1.06" x="-.03" y="-.03"><feGaussianBlur stdDeviation=".038351554"/></filter><linearGradient id="b" gradientUnits="userSpaceOnUse" x1="35.188129" x2="35.402603" y1="23.948126" y2="6.910749"><stop offset="0" stop-color="#2b2c2b"/><stop offset="1" stop-color="#494c4d"/></linearGradient><g transform="matrix(5.1070005 -.75452194 .75452194 5.1070005 -119.98759 34.175304)"><path d="m27.007982.994403h14.402601c.831 0 1.5.669 1.5 1.5v18.153671c0 .831-.669 1.5-1.5 1.5h-14.402601c-.831 0-1.5-.669-1.5-1.5v-18.153671c0-.831.669-1.5 1.5-1.5z" fill="url(#b)" transform="matrix(.99997763 -.00668848 .00668848 .99997763 0 0)"/><path d="m27.391499.99411929h13.759323c.831 0 1.5.66900001 1.5 1.50000001v17.5559307c0 .831-.669 1.5-1.5 1.5h-13.759323c-.831 0-1.5-.669-1.5-1.5v-17.5559307c0-.831.669-1.50000001 1.5-1.50000001z" fill="#f9f9f9" transform="matrix(.99997763 -.00668848 .00668848 .99997763 0 0)"/><g transform="translate(18.111521 -2.454498)"><circle cx="10.738436" cy="7.152903" fill="#080604" filter="url(#a)" r="1.534062"/><path d="m12.272498 7.1529026a1.5340621 1.5340621 0 0 1 -1.534062 1.5340622 1.5340621 1.5340621 0 0 1 -1.5340624-1.5340622 1.5340621 1.5340621 0 0 1 1.5340624-1.5340621 1.5340621 1.5340621 0 0 1 1.534062 1.5340621z" fill="#f4efe7"/><path d="m12.051976 7.1529026a1.3135407 1.3135407 0 0 1 -1.31354 1.3135407 1.3135407 1.3135407 0 0 1 -1.313541-1.3135407 1.3135407 1.3135407 0 0 1 1.313541-1.3135407 1.3135407 1.3135407 0 0 1 1.31354 1.3135407z" fill="#ff9500"/></g><g transform="translate(18.111521 1.828091)"><circle cx="10.738436" cy="7.152903" fill="#080604" filter="url(#a)" r="1.534062"/><path d="m12.272498 7.1529026a1.5340621 1.5340621 0 0 1 -1.534062 1.5340622 1.5340621 1.5340621 0 0 1 -1.5340624-1.5340622 1.5340621 1.5340621 0 0 1 1.5340624-1.5340621 1.5340621 1.5340621 0 0 1 1.534062 1.5340621z" fill="#f4efe7"/><g fill="#1badf8"><circle cx="10.738436" cy="7.152903" r="1.313541"/><path d="m12.051976 7.1529026a1.3135407 1.3135407 0 0 1 -1.31354 1.3135407 1.3135407 1.3135407 0 0 1 -1.313541-1.3135407 1.3135407 1.3135407 0 0 1 1.313541-1.3135407 1.3135407 1.3135407 0 0 1 1.31354 1.3135407z"/></g></g><g transform="translate(18.111521 6.110681)"><circle cx="10.738436" cy="7.152903" fill="#080604" filter="url(#a)" r="1.534062"/><circle cx="10.738436" cy="7.152903" fill="#f4efe7" r="1.534062"/><circle cx="10.738436" cy="7.152903" fill="#1badf8" r="1.313541"/><circle cx="10.738436" cy="7.152903" fill="#6bdb43" r="1.313541"/></g><g transform="translate(18.111521 10.393272)"><circle cx="10.738436" cy="7.152903" fill="#080604" filter="url(#a)" r="1.534062"/><path d="m12.272498 7.1529026a1.5340621 1.5340621 0 0 1 -1.534062 1.5340622 1.5340621 1.5340621 0 0 1 -1.5340624-1.5340622 1.5340621 1.5340621 0 0 1 1.5340624-1.5340621 1.5340621 1.5340621 0 0 1 1.534062 1.5340621z" fill="#f4efe7"/><circle cx="10.738436" cy="7.152903" fill="#1badf8" r="1.313541"/><path d="m12.051976 7.1529026a1.3135407 1.3135407 0 0 1 -1.31354 1.3135407 1.3135407 1.3135407 0 0 1 -1.313541-1.3135407 1.3135407 1.3135407 0 0 1 1.313541-1.3135407 1.3135407 1.3135407 0 0 1 1.31354 1.3135407z" fill="#cc73e1"/></g><g fill="#444848" fill-opacity=".764706"><path d="m30.980469 2.4726562a.040004.040004 0 0 0 -.01758.00781.040004.040004 0 0 0 -.0059.00586.040004.040004 0 0 0 -.0039.044922.040004.040004 0 0 0 .01953.019531.040004.040004 0 0 0 .01563.00195h10.048828a.040004.040004 0 0 0 .01758-.00586.040004.040004 0 0 0 .0098-.00586.040004.040004 0 0 0 .0059-.00586.040004.040004 0 0 0 0-.044922.040004.040004 0 0 0 -.01172-.011719.040004.040004 0 0 0 -.02148-.00586h-10.048876a.040004.040004 0 0 0 -.0078 0z"/><path d="m30.980469 19.347656a.040004.040004 0 0 0 -.01758.0078.040004.040004 0 0 0 -.0059.0059.040004.040004 0 0 0 -.0059.0098.040004.040004 0 0 0 0 .03125.040004.040004 0 0 0 .01172.01563.040004.040004 0 0 0 .0098.0059.040004.040004 0 0 0 .01563.0039h10.048828a.040004.040004 0 0 0 .01758-.0059.040004.040004 0 0 0 .0098-.0059.040004.040004 0 0 0 .0078-.0098.040004.040004 0 0 0 -.01367-.05273.040004.040004 0 0 0 -.02148-.0059h-10.048816a.040004.040004 0 0 0 -.0078 0z"/><path d="m30.980469 15.128906a.040004.040004 0 0 0 -.01758.0078.040004.040004 0 0 0 -.0059.0059.040004.040004 0 0 0 -.0078.01367.040004.040004 0 0 0 .002.02734.040004.040004 0 0 0 .01172.01563.040004.040004 0 0 0 .0098.0059.040004.040004 0 0 0 .01563.0039h10.048828a.040004.040004 0 0 0 .01758-.0059.040004.040004 0 0 0 .0098-.0059.040004.040004 0 0 0 .0059-.0059.040004.040004 0 0 0 -.01172-.05664.040004.040004 0 0 0 -.02148-.0059h-10.048966a.040004.040004 0 0 0 -.0078 0z"/><path d="m30.980469 10.910156a.040004.040004 0 0 0 -.01758.0078.040004.040004 0 0 0 -.0059.0059.040004.040004 0 0 0 -.0078.01367.040004.040004 0 0 0 .0039.03125.040004.040004 0 0 0 .0098.01172.040004.040004 0 0 0 .0098.0059.040004.040004 0 0 0 .01563.0039h10.048828a.040004.040004 0 0 0 .01758-.0059.040004.040004 0 0 0 .0098-.0059.040004.040004 0 0 0 .0059-.0059.040004.040004 0 0 0 -.01172-.05664.040004.040004 0 0 0 -.02148-.0059h-10.048946a.040004.040004 0 0 0 -.0078 0z"/><path d="m30.980469 6.6914062a.040004.040004 0 0 0 -.01758.00781.040004.040004 0 0 0 -.0059.00586.040004.040004 0 0 0 -.0039.044922.040004.040004 0 0 0 .01953.017578.040004.040004 0 0 0 .01563.00391h10.048828a.040004.040004 0 0 0 .01758-.00586.040004.040004 0 0 0 .0098-.00586.040004.040004 0 0 0 .0059-.00586.040004.040004 0 0 0 -.01172-.056641.040004.040004 0 0 0 -.02148-.00586h-10.048876a.040004.040004 0 0 0 -.0078 0z"/></g></g></svg>