<?xml version="1.0" encoding="UTF-8" standalone="no"?>
<!-- Created with Inkscape (http://www.inkscape.org/) -->

<svg
   xmlns:osb="http://www.openswatchbook.org/uri/2009/osb"
   xmlns:dc="http://purl.org/dc/elements/1.1/"
   xmlns:cc="http://creativecommons.org/ns#"
   xmlns:rdf="http://www.w3.org/1999/02/22-rdf-syntax-ns#"
   xmlns:svg="http://www.w3.org/2000/svg"
   xmlns="http://www.w3.org/2000/svg"
   xmlns:xlink="http://www.w3.org/1999/xlink"
   xmlns:sodipodi="http://sodipodi.sourceforge.net/DTD/sodipodi-0.dtd"
   xmlns:inkscape="http://www.inkscape.org/namespaces/inkscape"
   width="128"
   height="128"
   viewBox="0 0 33.866666 33.866668"
   version="1.1"
   id="svg8"
   inkscape:version="0.92.1 r15371"
   sodipodi:docname="pan-newsreader.svg">
  <defs
     id="defs2">
    <linearGradient
       inkscape:collect="always"
       id="linearGradient4573">
      <stop
         style="stop-color:#9b2ae6;stop-opacity:1"
         offset="0"
         id="stop4569" />
      <stop
         style="stop-color:#c388fc;stop-opacity:0.91709846"
         offset="1"
         id="stop4571" />
    </linearGradient>
    <linearGradient
       id="linearGradient4329">
      <stop
         offset="0"
         style="stop-color:#16bcbc;stop-opacity:1"
         id="stop4325" />
      <stop
         offset="1"
         style="stop-color:#be90e5;stop-opacity:0"
         id="stop4327" />
    </linearGradient>
    <linearGradient
       id="linearGradient5048">
      <stop
         id="stop5044"
         style="stop-color:#0e7bed;stop-opacity:1"
         offset="0" />
      <stop
         id="stop5046"
         style="stop-color:#58c5fa;stop-opacity:1"
         offset="1" />
    </linearGradient>
    <linearGradient
       osb:paint="solid"
       id="linearGradient6987">
      <stop
         id="stop6985"
         offset="0"
         style="stop-color:#77d2fb;stop-opacity:1;" />
    </linearGradient>
    <linearGradient
       gradientUnits="userSpaceOnUse"
       y2="168.42587"
       x2="-158.20953"
       y1="-264.22778"
       x1="-517.25659"
       id="linearGradient5042"
       xlink:href="#linearGradient4329"
       inkscape:collect="always" />
    <linearGradient
       inkscape:collect="always"
       xlink:href="#linearGradient4573"
       id="linearGradient4575"
       x1="-450.41501"
       y1="-190.89619"
       x2="-123.14734"
       y2="246.94768"
       gradientUnits="userSpaceOnUse" />
  </defs>
  <sodipodi:namedview
     id="base"
     pagecolor="#ffffff"
     bordercolor="#666666"
     borderopacity="1.0"
     inkscape:pageopacity="0.0"
     inkscape:pageshadow="2"
     inkscape:zoom="2.8"
     inkscape:cx="65.328212"
     inkscape:cy="96.673828"
     inkscape:document-units="mm"
     inkscape:current-layer="layer1"
     showgrid="false"
     inkscape:window-width="1920"
     inkscape:window-height="1040"
     inkscape:window-x="0"
     inkscape:window-y="0"
     inkscape:window-maximized="1"
     units="px" />
  <metadata
     id="metadata5">
    <rdf:RDF>
      <cc:Work
         rdf:about="">
        <dc:format>image/svg+xml</dc:format>
        <dc:type
           rdf:resource="http://purl.org/dc/dcmitype/StillImage" />
        <dc:title></dc:title>
      </cc:Work>
    </rdf:RDF>
  </metadata>
  <g
     inkscape:label="Layer 1"
     inkscape:groupmode="layer"
     id="layer1"
     transform="translate(0,-263.13332)">
    <g
       style="opacity:0.25;fill:#000000;fill-opacity:1;stroke-width:3.89951277"
       transform="matrix(0.05330674,0,0,-0.05330674,32.91819,279.29727)"
       id="g4361">
      <path
         inkscape:connector-curvature="0"
         id="path4359"
         style="fill:#000000;fill-opacity:1;fill-rule:nonzero;stroke:none;stroke-width:3.89951277"
         d="m 0,0 c 0,-134.36 -135.54,-243.28 -302.74,-243.28 -27.31,0 -53.77,2.91 -78.94,8.36 -0.02,0.01 -0.03,0.01 -0.05,0.01 -0.06,0.01 -0.12,0.02 -0.19,0.03 -7.33,1.52 -10.83,-1.49 -18.83,-8.4 -42.5,-36.08 -90.67,-52.09 -133.5,-52.09 -42.83,0 -45.83,9 -45.83,13.83 0,4.84 3,6.67 8,8.67 57.5,20.83 60.833,60.323 60.833,79.493 -0.167,9.333 -2.334,16.997 -10.833,25.697 -51.67,43.64 -83.39,102.69 -83.39,167.68 0,134.37 135.54,243.29 302.73,243.29 C -135.54,243.29 0,134.37 0,0" />
    </g>
    <g
       id="g4996"
       transform="matrix(0.05330674,0,0,-0.05330674,32.91819,278.75447)"
       style="fill:url(#linearGradient5042);fill-opacity:1;stroke:#3e93ec;stroke-width:1.87593544;stroke-miterlimit:4;stroke-dasharray:none;stroke-opacity:1">
      <path
         d="m 0,0 c 0,-134.36 -135.54,-243.28 -302.74,-243.28 -27.31,0 -53.77,2.91 -78.94,8.36 -0.02,0.01 -0.03,0.01 -0.05,0.01 -0.06,0.01 -0.12,0.02 -0.19,0.03 -7.33,1.52 -10.83,-1.49 -18.83,-8.4 -42.5,-36.08 -90.67,-52.09 -133.5,-52.09 -42.83,0 -45.83,9 -45.83,13.83 0,4.84 3,6.67 8,8.67 57.5,20.83 60.833,60.323 60.833,79.493 -0.167,9.333 -2.334,16.997 -10.833,25.697 -51.67,43.64 -83.39,102.69 -83.39,167.68 0,134.37 135.54,243.29 302.73,243.29 C -135.54,243.29 0,134.37 0,0"
         style="fill:url(#linearGradient4575);fill-opacity:1;fill-rule:nonzero;stroke:#a582a8;stroke-width:1.87593544;stroke-miterlimit:4;stroke-dasharray:none;stroke-opacity:1"
         id="path4998"
         inkscape:connector-curvature="0" />
    </g>
    <path
       id="path4531"
       d="m 12.302455,273.55779 v 1.56756 H 9.1674092 v 1.5675 h 4.6413368 c -0.185318,0.33296 -0.407842,0.69678 -0.713345,1.08075 -0.016,0.0178 -0.03614,0.0356 -0.05213,0.0592 -0.33977,-0.29326 -0.575565,-0.51424 -0.575565,-0.51424 l -1.114409,1.10219 c 0,0 0.204336,0.20203 0.535752,0.49292 -0.720928,0.52787 -1.59562,0.91545 -2.7217358,0.91545 v 1.5675 c 1.6755178,0 2.9843098,-0.66425 3.9861588,-1.49096 1.032219,0.72167 2.375657,1.49096 3.851454,1.49096 v -1.5675 c -0.8064,0 -1.841261,-0.48403 -2.70949,-1.05012 0.0083,-0.0119 0.01955,-0.0178 0.02725,-0.0296 0.689818,-0.86699 1.033231,-1.57775 1.236874,-2.05432 h 1.445061 v -1.5675 h -3.13507 v -1.56756 z m 7.95701,4.70256 -3.254443,6.07415 v 1.76349 h 1.56752 v -1.37158 l 0.104094,-0.1961 h 4.49438 l 0.104093,0.1961 v 1.37158 h 1.567526 v -1.76349 l -3.254448,-6.07415 z m 0.664361,2.07577 1.408323,2.6268 h -2.816641 z"
       style="line-height:normal;text-indent:0;text-align:start;text-decoration:none;text-decoration-line:none;text-decoration-style:solid;text-decoration-color:#000000;text-transform:none;isolation:auto;mix-blend-mode:normal;stroke-width:1.56752217;fill:#ffffff"
       inkscape:connector-curvature="0"
       sodipodi:nodetypes="cccccccccccccccccccccccccccccccccccccccc" />
  </g>
</svg>
