<?xml version="1.0" encoding="UTF-8" standalone="no"?>
<!-- Created with Inkscape (http://www.inkscape.org/) -->

<svg
   xmlns:dc="http://purl.org/dc/elements/1.1/"
   xmlns:cc="http://creativecommons.org/ns#"
   xmlns:rdf="http://www.w3.org/1999/02/22-rdf-syntax-ns#"
   xmlns:svg="http://www.w3.org/2000/svg"
   xmlns="http://www.w3.org/2000/svg"
   xmlns:xlink="http://www.w3.org/1999/xlink"
   xmlns:sodipodi="http://sodipodi.sourceforge.net/DTD/sodipodi-0.dtd"
   xmlns:inkscape="http://www.inkscape.org/namespaces/inkscape"
   version="1.1"
   id="svg2"
   width="128"
   height="128"
   viewBox="0 0 128 128"
   sodipodi:docname="pgadmin3.svg"
   inkscape:version="0.92.4 5da689c313, 2019-01-14">
  <metadata
     id="metadata8">
    <rdf:RDF>
      <cc:Work
         rdf:about="">
        <dc:format>image/svg+xml</dc:format>
        <dc:type
           rdf:resource="http://purl.org/dc/dcmitype/StillImage" />
        <dc:title></dc:title>
      </cc:Work>
    </rdf:RDF>
  </metadata>
  <defs
     id="defs6">
    <linearGradient
       inkscape:collect="always"
       id="linearGradient4541">
      <stop
         style="stop-color:#0072e1;stop-opacity:1"
         offset="0"
         id="stop4537" />
      <stop
         style="stop-color:#82ccff;stop-opacity:1"
         offset="1"
         id="stop4539" />
    </linearGradient>
    <linearGradient
       inkscape:collect="always"
       id="linearGradient1078">
      <stop
         style="stop-color:#cccdd1;stop-opacity:1;"
         offset="0"
         id="stop1074" />
      <stop
         style="stop-color:#f7f9f9;stop-opacity:1"
         offset="1"
         id="stop1076" />
    </linearGradient>
    <linearGradient
       inkscape:collect="always"
       xlink:href="#linearGradient1078"
       id="linearGradient1080"
       x1="701.81012"
       y1="398.37137"
       x2="699.27539"
       y2="220.52734"
       gradientUnits="userSpaceOnUse"
       gradientTransform="matrix(0.66355071,0,0,0.66355071,-399.67109,-144.99254)" />
    <linearGradient
       inkscape:collect="always"
       xlink:href="#linearGradient4541"
       id="linearGradient4543"
       x1="58.561874"
       y1="89.077209"
       x2="59.298817"
       y2="-22.547031"
       gradientUnits="userSpaceOnUse" />
    <filter
       filterUnits="objectBoundingBox"
       color-interpolation-filters="sRGB"
       y="-200%"
       x="-200%"
       height="400%"
       width="400%"
       id="a">
      <feGaussianBlur
         id="feGaussianBlur837"
         stdDeviation="4.294"
         in="SourceGraphic" />
      <feOffset
         id="feOffset839"
         result="pf_100_offsetBlur"
         dy="4" />
      <feFlood
         id="feFlood841"
         flood-opacity=".4" />
      <feComposite
         id="feComposite843"
         result="pf_100_dropShadow"
         operator="in"
         in2="pf_100_offsetBlur" />
      <feBlend
         id="feBlend845"
         in2="pf_100_dropShadow"
         in="SourceGraphic" />
    </filter>
    <filter
       filterUnits="objectBoundingBox"
       color-interpolation-filters="sRGB"
       y="-200%"
       x="-200%"
       height="400%"
       width="400%"
       id="hBYla7m5PD9vyEZfG7pDkAts6vNnGLHv">
      <feGaussianBlur
         id="feGaussianBlur926"
         stdDeviation="4.294"
         in="SourceGraphic" />
      <feOffset
         id="feOffset928"
         result="pf_100_offsetBlur"
         dy="4"
         dx="0" />
      <feFlood
         id="feFlood930"
         flood-opacity=".4" />
      <feComposite
         id="feComposite932"
         result="pf_100_dropShadow"
         operator="in"
         in2="pf_100_offsetBlur" />
      <feBlend
         id="feBlend934"
         mode="normal"
         in2="pf_100_dropShadow"
         in="SourceGraphic" />
    </filter>
    <filter
       filterUnits="objectBoundingBox"
       color-interpolation-filters="sRGB"
       y="-200%"
       x="-200%"
       height="400%"
       width="400%"
       id="wKQL6yIg1lswnu4nIoyv6kDKx6B0YTde">
      <feGaussianBlur
         id="feGaussianBlur1034"
         stdDeviation="4.294"
         in="SourceGraphic" />
      <feOffset
         id="feOffset1036"
         result="pf_100_offsetBlur"
         dy="4"
         dx="0" />
      <feFlood
         id="feFlood1038"
         flood-opacity=".4" />
      <feComposite
         id="feComposite1040"
         result="pf_100_dropShadow"
         operator="in"
         in2="pf_100_offsetBlur" />
      <feBlend
         id="feBlend1042"
         mode="normal"
         in2="pf_100_dropShadow"
         in="SourceGraphic" />
    </filter>
    <filter
       filterUnits="objectBoundingBox"
       color-interpolation-filters="sRGB"
       y="-200%"
       x="-200%"
       height="400%"
       width="400%"
       id="a-8">
      <feGaussianBlur
         id="feGaussianBlur1146"
         stdDeviation="4.294"
         in="SourceGraphic" />
      <feOffset
         id="feOffset1148"
         result="pf_100_offsetBlur"
         dy="4" />
      <feFlood
         id="feFlood1150"
         flood-opacity=".4" />
      <feComposite
         id="feComposite1152"
         result="pf_100_dropShadow"
         operator="in"
         in2="pf_100_offsetBlur" />
      <feBlend
         id="feBlend1154"
         in2="pf_100_dropShadow"
         in="SourceGraphic" />
    </filter>
    <filter
       filterUnits="userSpaceOnUse"
       color-interpolation-filters="sRGB"
       height="248.338"
       width="264.648"
       y="5.94696"
       x="-4.32414"
       id="filter0_d">
      <feFlood
         id="feFlood864"
         result="BackgroundImageFix"
         flood-opacity="0" />
      <feColorMatrix
         id="feColorMatrix866"
         values="0 0 0 0 0 0 0 0 0 0 0 0 0 0 0 0 0 0 127 0"
         in="SourceAlpha" />
      <feOffset
         id="feOffset868"
         dy="4" />
      <feGaussianBlur
         id="feGaussianBlur870"
         stdDeviation="5" />
      <feColorMatrix
         id="feColorMatrix872"
         values="0 0 0 0 0 0 0 0 0 0 0 0 0 0 0 0 0 0 0.4 0" />
      <feBlend
         id="feBlend874"
         result="effect1_dropShadow"
         in2="BackgroundImageFix" />
      <feBlend
         id="feBlend876"
         result="shape"
         in2="effect1_dropShadow"
         in="SourceGraphic" />
    </filter>
    <filter
       filterUnits="userSpaceOnUse"
       color-interpolation-filters="sRGB"
       height="120"
       width="184"
       y="66"
       x="34"
       id="filter1_f">
      <feFlood
         id="feFlood879"
         result="BackgroundImageFix"
         flood-opacity="0" />
      <feBlend
         id="feBlend881"
         result="shape"
         in2="BackgroundImageFix"
         in="SourceGraphic" />
      <feGaussianBlur
         id="feGaussianBlur883"
         stdDeviation="5"
         result="effect1_foregroundBlur" />
    </filter>
    <linearGradient
       gradientUnits="userSpaceOnUse"
       y2="241.039"
       y1="11.8597"
       x2="127.02"
       x1="126.487"
       id="paint0_linear">
      <stop
         id="stop886"
         offset="0"
         stop-color="#1AD6AB" />
      <stop
         id="stop888"
         offset="1"
         stop-color="#329DB6" />
    </linearGradient>
    <linearGradient
       gradientUnits="userSpaceOnUse"
       y2="240.29"
       y1="11.95"
       x2="132.082"
       x1="132.082"
       id="paint1_linear">
      <stop
         id="stop891"
         offset="0"
         stop-color="white" />
      <stop
         id="stop893"
         offset=".125"
         stop-opacity=".0980392"
         stop-color="white" />
      <stop
         id="stop895"
         offset=".925"
         stop-opacity=".0980392" />
      <stop
         id="stop897"
         offset="1"
         stop-opacity=".498039" />
    </linearGradient>
    <clipPath
       id="clip0">
      <rect
         id="rect900"
         fill="white"
         height="256"
         width="256" />
    </clipPath>
    <linearGradient
       id="linearGradient4662"
       inkscape:collect="always">
      <stop
         id="stop4664"
         offset="0"
         style="stop-color:#3350c4;stop-opacity:1;" />
      <stop
         id="stop4666"
         offset="1"
         style="stop-color:#3350c4;stop-opacity:0;" />
    </linearGradient>
    <linearGradient
       id="linearGradient4397">
      <stop
         style="stop-color:#000000;stop-opacity:0.52739727;"
         offset="0"
         id="stop4399" />
      <stop
         style="stop-color:#000000;stop-opacity:0;"
         offset="1"
         id="stop4401" />
    </linearGradient>
    <linearGradient
       inkscape:collect="always"
       id="linearGradient4387">
      <stop
         style="stop-color:#7d1c65;stop-opacity:1;"
         offset="0"
         id="stop4389" />
      <stop
         style="stop-color:#7d1c65;stop-opacity:0;"
         offset="1"
         id="stop4391" />
    </linearGradient>
    <linearGradient
       id="linearGradient3837"
       inkscape:collect="always">
      <stop
         id="stop3839"
         offset="0"
         style="stop-color:#7db257;stop-opacity:1;" />
      <stop
         id="stop3841"
         offset="1"
         style="stop-color:#7db257;stop-opacity:0;" />
    </linearGradient>
    <clipPath
       id="clipPath3847"
       clipPathUnits="userSpaceOnUse">
      <path
         sodipodi:type="arc"
         style="fill:url(#linearGradient3851);fill-opacity:1;fill-rule:evenodd;stroke:none"
         id="path3849"
         sodipodi:cx="322.4407"
         sodipodi:cy="342.29437"
         sodipodi:rx="260.2153"
         sodipodi:ry="260.2153"
         d="m 582.65601,342.29437 a 260.2153,260.2153 0 1 1 -520.430607,0 260.2153,260.2153 0 1 1 520.430607,0 z"
         transform="matrix(0.88586957,0,0,0.88586957,-24.010886,495.98978)" />
    </clipPath>
    <linearGradient
       y2="356.66208"
       x2="316.05505"
       y1="546.63525"
       x1="502.83536"
       gradientUnits="userSpaceOnUse"
       id="linearGradient3851"
       xlink:href="#linearGradient3837"
       inkscape:collect="always" />
    <clipPath
       id="clipPath4164"
       clipPathUnits="userSpaceOnUse">
      <path
         style="fill:#f33e5c;fill-opacity:1;fill-rule:evenodd;stroke:none"
         d="M 403.50945,11.42485 C 376.94237,12.55745 355.614,49.16619 355.614,94.1436 c 0,16.9476 3.03121,32.694 8.2271,45.8125 l -4.30855,40.75 22.15559,-13.5 c 6.88297,6.17012 14.7411,9.65625 23.08416,9.65625 27.15356,0 49.15831,-37.02741 49.15831,-82.71875 0,-45.69134 -22.00475,-82.71875 -49.15831,-82.71875 -0.42427,0 -0.84115,-0.018 -1.26285,0 z"
         id="path4166"
         inkscape:connector-curvature="0" />
    </clipPath>
    <clipPath
       clipPathUnits="userSpaceOnUse"
       id="clipPath4381">
      <path
         transform="matrix(0.88586957,0,0,0.88586957,-24.010886,495.98978)"
         d="m 582.65601,342.29437 a 260.2153,260.2153 0 1 1 -520.430607,0 260.2153,260.2153 0 1 1 520.430607,0 z"
         sodipodi:ry="260.2153"
         sodipodi:rx="260.2153"
         sodipodi:cy="342.29437"
         sodipodi:cx="322.4407"
         id="path4383"
         style="fill:#7d1c65;fill-opacity:1;fill-rule:evenodd;stroke:none"
         sodipodi:type="arc" />
    </clipPath>
    <clipPath
       clipPathUnits="userSpaceOnUse"
       id="clipPath4407">
      <path
         sodipodi:type="arc"
         style="fill:url(#linearGradient4411);fill-opacity:1;fill-rule:evenodd;stroke:none"
         id="path4409"
         sodipodi:cx="322.4407"
         sodipodi:cy="342.29437"
         sodipodi:rx="260.2153"
         sodipodi:ry="260.2153"
         d="m 582.65601,342.29437 a 260.2153,260.2153 0 1 1 -520.430607,0 260.2153,260.2153 0 1 1 520.430607,0 z"
         transform="matrix(0.88586957,0,0,0.88586957,-24.010886,-44.3724)" />
    </clipPath>
    <linearGradient
       inkscape:collect="always"
       xlink:href="#linearGradient4387"
       id="linearGradient4411"
       gradientUnits="userSpaceOnUse"
       x1="531.5708"
       y1="557.81012"
       x2="241.02367"
       y2="265.66656" />
    <clipPath
       id="clipPath3774"
       clipPathUnits="userSpaceOnUse">
      <path
         sodipodi:type="star"
         style="color:#000000;fill:#81d6ec;fill-opacity:1;fill-rule:evenodd;stroke:none;stroke-width:30;marker:none;visibility:visible;display:inline;overflow:visible;enable-background:accumulate"
         id="path3776"
         sodipodi:sides="5"
         sodipodi:cx="-1179.8582"
         sodipodi:cy="-119.41477"
         sodipodi:r1="288.01926"
         sodipodi:r2="233.0125"
         sodipodi:arg1="0.97501178"
         sodipodi:arg2="1.6033303"
         inkscape:flatsided="true"
         inkscape:rounded="0"
         inkscape:randomized="0"
         d="m -1018.2338,118.98121 -338.4077,-11.01363 -94.0992,-325.24832 280.2513,-190.00087 267.30399,207.82131 z"
         inkscape:transform-center-x="-0.63772798"
         inkscape:transform-center-y="-24.438783"
         transform="matrix(0.91037822,-0.02245917,0.02245917,0.91037822,1329.1707,352.71315)" />
    </clipPath>
    <clipPath
       id="clipPath4656"
       clipPathUnits="userSpaceOnUse">
      <path
         transform="matrix(0.88586957,0,0,0.88586957,-24.010886,495.98978)"
         d="m 582.65601,342.29437 a 260.2153,260.2153 0 1 1 -520.430607,0 260.2153,260.2153 0 1 1 520.430607,0 z"
         sodipodi:ry="260.2153"
         sodipodi:rx="260.2153"
         sodipodi:cy="342.29437"
         sodipodi:cx="322.4407"
         id="path4658"
         style="fill:#3350c4;fill-opacity:1;fill-rule:evenodd;stroke:none"
         sodipodi:type="arc" />
    </clipPath>
    <linearGradient
       gradientUnits="userSpaceOnUse"
       y2="387.44772"
       x2="291.41672"
       y1="549.99988"
       x1="502.47079"
       id="linearGradient4668"
       xlink:href="#linearGradient4662"
       inkscape:collect="always" />
  </defs>
  <sodipodi:namedview
     pagecolor="#ffffff"
     bordercolor="#666666"
     borderopacity="1"
     objecttolerance="10"
     gridtolerance="10"
     guidetolerance="10"
     inkscape:pageopacity="0"
     inkscape:pageshadow="2"
     inkscape:window-width="1920"
     inkscape:window-height="1031"
     id="namedview4"
     showgrid="false"
     inkscape:zoom="1.7875659"
     inkscape:cx="88.42417"
     inkscape:cy="41.4352"
     inkscape:window-x="0"
     inkscape:window-y="26"
     inkscape:window-maximized="1"
     inkscape:current-layer="svg2" />
  <path
     id="path850-9"
     d="m 76.270559,27.451696 c -3.578841,0 -7.253428,4.949255 -7.253428,14.506856 0,8.704113 2.901371,14.506851 2.901371,14.506851 0,0 23.210971,-2.90137 23.210971,-14.506851 0,-8.704114 -8.172679,-15.772821 -11.605486,-8.704114 -1.295946,-3.887837 -3.788223,-5.802742 -7.253428,-5.802742 z M 42.90479,30.353067 c -8.704114,0 -15.772821,8.172679 -8.704114,11.605485 -3.887837,1.295945 -5.802742,3.788223 -5.802742,7.253428 0,3.578841 4.949256,7.253423 14.506856,7.253423 8.704113,0 14.506856,-2.90137 14.506856,-2.90137 0,0 -2.901371,-23.210966 -14.506856,-23.210966 z m 11.605485,37.717826 c 0,0 -23.21097,2.90137 -23.21097,14.50685 0,8.70412 8.172679,15.772817 11.605485,8.70412 1.295946,3.887831 3.788223,5.802741 7.253428,5.802741 3.578841,0 7.253428,-4.949261 7.253428,-14.506861 0,-8.70411 -2.901371,-14.50685 -2.901371,-14.50685 z m 29.013712,0 c -8.704113,0 -14.506856,2.90137 -14.506856,2.90137 0,0 2.901371,23.21097 14.506856,23.21097 8.704115,0 15.772823,-8.17268 8.704115,-11.60549 3.887837,-1.29594 5.802742,-3.78822 5.802742,-7.25342 0,-3.57884 -4.949255,-7.25343 -14.506857,-7.25343 z"
     inkscape:connector-curvature="0"
     style="isolation:isolate;fill:#f9f9f9;stroke-width:0.48356187" />
  <path
     style="fill:#000000;stroke-width:1.33333337"
     d=""
     id="path849"
     inkscape:connector-curvature="0" />
  <path
     style="fill:#000000;stroke-width:1.33333337"
     d=""
     id="path847"
     inkscape:connector-curvature="0" />
  <circle
     id="path12-3"
     cx="64.333229"
     cy="64.22612"
     r="60.565502"
     style="fill:url(#linearGradient4543);fill-opacity:1;stroke:#cccdd1;stroke-width:4.64485502;stroke-miterlimit:4;stroke-dasharray:none;stroke-opacity:1" />
  <path
     style="color:#000000;font-style:normal;font-variant:normal;font-weight:normal;font-stretch:normal;font-size:medium;line-height:normal;font-family:sans-serif;font-variant-ligatures:normal;font-variant-position:normal;font-variant-caps:normal;font-variant-numeric:normal;font-variant-alternates:normal;font-feature-settings:normal;text-indent:0;text-align:start;text-decoration:none;text-decoration-line:none;text-decoration-style:solid;text-decoration-color:#000000;letter-spacing:normal;word-spacing:normal;text-transform:none;writing-mode:lr-tb;direction:ltr;text-orientation:mixed;dominant-baseline:auto;baseline-shift:baseline;text-anchor:start;white-space:normal;shape-padding:0;clip-rule:nonzero;display:inline;overflow:visible;visibility:visible;opacity:1;isolation:auto;mix-blend-mode:normal;color-interpolation:sRGB;color-interpolation-filters:linearRGB;solid-color:#000000;solid-opacity:1;vector-effect:none;fill:url(#linearGradient1080);fill-opacity:1;fill-rule:nonzero;stroke:none;stroke-width:4.64485502;stroke-linecap:butt;stroke-linejoin:miter;stroke-miterlimit:4;stroke-dasharray:none;stroke-dashoffset:0;stroke-opacity:1;color-rendering:auto;image-rendering:auto;shape-rendering:auto;text-rendering:auto;enable-background:accumulate"
     d="m 64.333592,1.3385313 c -34.704539,0 -62.8882778,28.1824517 -62.8882778,62.8869837 0,34.704538 28.1837388,62.888275 62.8882778,62.888275 34.704538,0 62.886978,-28.183737 62.886978,-62.888275 0,-34.704532 -28.18244,-62.8869837 -62.886978,-62.8869837 z m 0,4.644855 c 32.194272,0 58.242128,26.0478627 58.242128,58.2421287 0,32.194272 -26.047856,58.243425 -58.242128,58.243425 -32.194267,0 -58.2434228,-26.049153 -58.2434228,-58.243425 0,-32.194266 26.0491558,-58.2421287 58.2434228,-58.2421287 z"
     id="circle1062"
     inkscape:connector-curvature="0" />
  <g
     id="g844" />
  <g
     id="g876"
     transform="translate(45.510275,44.070893)">
</g>
  <g
     id="g1158"
     transform="translate(-147.54747)"
     style="opacity:0.366">
    <path
       style="fill:none;fill-opacity:1;stroke:#000000;stroke-width:0.25;stroke-miterlimit:4;stroke-dasharray:none;stroke-opacity:0.02745098"
       d="m 208.1204,40.704327 c -2.44185,0.02784 -2.50033,1.936202 -1.29483,5.280498 l 3.22191,14.369632 c 0.19109,2.405337 1.12663,2.791863 3.04234,4.01096 l 7.67544,4.885974 -9.69356,-3.060054 c -2.81026,-0.513639 -2.84791,-1.349335 -3.63161,-3.90474 l -3.49502,-11.390502 c -0.58801,-2.398378 -0.64795,-2.501848 -2.486,-1.863855 -3.98499,1.384706 -13.70435,4.915001 -16.9947,7.50094 -1.33094,1.046009 -2.62203,3.198853 -3.59874,5.138873 -3.21839,8.235587 3.32584,17.159485 5.21728,26.07625 h 10.86701 l 1.61855,-7.516097 h 6.70431 l 2.54415,7.516097 h 10.40418 l 6.01138,-17.341166 c 4.65082,2.909368 0.52453,7.595292 3.00696,10.866999 1.60734,1.999577 7.1671,4.162682 7.1671,4.162682 l 2.54414,-3.237083 c 0,0 -4.00908,-1.829897 -3.23708,-3.699892 0.0134,-2.092333 0.56469,-4.174273 1.35301,-6.238971 4.10706,1.40085 8.68879,1.346744 8.70473,1.267017 -2.29621,-0.180039 -5.15274,-2.132006 -7.48071,-4.132346 2.82104,-6.115631 6.5213,-12.059827 3.13846,-17.682589 -1.9839,-3.297537 -4.58521,-5.971409 -12.50577,-5.088299 l -15.85921,-5.404417 c -1.22605,-0.356736 -2.19622,-0.524433 -2.94372,-0.515911 z m 24.09101,18.373003 c 0.95775,0 1.73233,0.774593 1.73233,1.732346 0,0.957744 -0.77458,1.734877 -1.73233,1.734877 -0.95776,0 -1.73488,-0.777133 -1.73488,-1.734877 0,-0.957753 0.77712,-1.732346 1.73488,-1.732346 z"
       id="path1122"
       inkscape:connector-curvature="0" />
    <path
       inkscape:connector-curvature="0"
       id="path1124"
       d="m 208.1204,40.704327 c -2.44185,0.02784 -2.50033,1.936202 -1.29483,5.280498 l 3.22191,14.369632 c 0.19109,2.405337 1.12663,2.791863 3.04234,4.01096 l 7.67544,4.885974 -9.69356,-3.060054 c -2.81026,-0.513639 -2.84791,-1.349335 -3.63161,-3.90474 l -3.49502,-11.390502 c -0.58801,-2.398378 -0.64795,-2.501848 -2.486,-1.863855 -3.98499,1.384706 -13.70435,4.915001 -16.9947,7.50094 -1.33094,1.046009 -2.62203,3.198853 -3.59874,5.138873 -3.21839,8.235587 3.32584,17.159485 5.21728,26.07625 h 10.86701 l 1.61855,-7.516097 h 6.70431 l 2.54415,7.516097 h 10.40418 l 6.01138,-17.341166 c 4.65082,2.909368 0.52453,7.595292 3.00696,10.866999 1.60734,1.999577 7.1671,4.162682 7.1671,4.162682 l 2.54414,-3.237083 c 0,0 -4.00908,-1.829897 -3.23708,-3.699892 0.0134,-2.092333 0.56469,-4.174273 1.35301,-6.238971 4.10706,1.40085 8.68879,1.346744 8.70473,1.267017 -2.29621,-0.180039 -5.15274,-2.132006 -7.48071,-4.132346 2.82104,-6.115631 6.5213,-12.059827 3.13846,-17.682589 -1.9839,-3.297537 -4.58521,-5.971409 -12.50577,-5.088299 l -15.85921,-5.404417 c -1.22605,-0.356736 -2.19622,-0.524433 -2.94372,-0.515911 z m 24.09101,18.373003 c 0.95775,0 1.73233,0.774593 1.73233,1.732346 0,0.957744 -0.77458,1.734877 -1.73233,1.734877 -0.95776,0 -1.73488,-0.777133 -1.73488,-1.734877 0,-0.957753 0.77712,-1.732346 1.73488,-1.732346 z"
       style="fill:none;fill-opacity:1;stroke:#000000;stroke-width:0.5;stroke-miterlimit:4;stroke-dasharray:none;stroke-opacity:0.02745098" />
    <path
       style="fill:none;fill-opacity:1;stroke:#000000;stroke-width:0.75;stroke-miterlimit:4;stroke-dasharray:none;stroke-opacity:0.02745098"
       d="m 208.1204,40.704327 c -2.44185,0.02784 -2.50033,1.936202 -1.29483,5.280498 l 3.22191,14.369632 c 0.19109,2.405337 1.12663,2.791863 3.04234,4.01096 l 7.67544,4.885974 -9.69356,-3.060054 c -2.81026,-0.513639 -2.84791,-1.349335 -3.63161,-3.90474 l -3.49502,-11.390502 c -0.58801,-2.398378 -0.64795,-2.501848 -2.486,-1.863855 -3.98499,1.384706 -13.70435,4.915001 -16.9947,7.50094 -1.33094,1.046009 -2.62203,3.198853 -3.59874,5.138873 -3.21839,8.235587 3.32584,17.159485 5.21728,26.07625 h 10.86701 l 1.61855,-7.516097 h 6.70431 l 2.54415,7.516097 h 10.40418 l 6.01138,-17.341166 c 4.65082,2.909368 0.52453,7.595292 3.00696,10.866999 1.60734,1.999577 7.1671,4.162682 7.1671,4.162682 l 2.54414,-3.237083 c 0,0 -4.00908,-1.829897 -3.23708,-3.699892 0.0134,-2.092333 0.56469,-4.174273 1.35301,-6.238971 4.10706,1.40085 8.68879,1.346744 8.70473,1.267017 -2.29621,-0.180039 -5.15274,-2.132006 -7.48071,-4.132346 2.82104,-6.115631 6.5213,-12.059827 3.13846,-17.682589 -1.9839,-3.297537 -4.58521,-5.971409 -12.50577,-5.088299 l -15.85921,-5.404417 c -1.22605,-0.356736 -2.19622,-0.524433 -2.94372,-0.515911 z m 24.09101,18.373003 c 0.95775,0 1.73233,0.774593 1.73233,1.732346 0,0.957744 -0.77458,1.734877 -1.73233,1.734877 -0.95776,0 -1.73488,-0.777133 -1.73488,-1.734877 0,-0.957753 0.77712,-1.732346 1.73488,-1.732346 z"
       id="path1126"
       inkscape:connector-curvature="0" />
    <path
       inkscape:connector-curvature="0"
       id="path1128"
       d="m 208.1204,40.704327 c -2.44185,0.02784 -2.50033,1.936202 -1.29483,5.280498 l 3.22191,14.369632 c 0.19109,2.405337 1.12663,2.791863 3.04234,4.01096 l 7.67544,4.885974 -9.69356,-3.060054 c -2.81026,-0.513639 -2.84791,-1.349335 -3.63161,-3.90474 l -3.49502,-11.390502 c -0.58801,-2.398378 -0.64795,-2.501848 -2.486,-1.863855 -3.98499,1.384706 -13.70435,4.915001 -16.9947,7.50094 -1.33094,1.046009 -2.62203,3.198853 -3.59874,5.138873 -3.21839,8.235587 3.32584,17.159485 5.21728,26.07625 h 10.86701 l 1.61855,-7.516097 h 6.70431 l 2.54415,7.516097 h 10.40418 l 6.01138,-17.341166 c 4.65082,2.909368 0.52453,7.595292 3.00696,10.866999 1.60734,1.999577 7.1671,4.162682 7.1671,4.162682 l 2.54414,-3.237083 c 0,0 -4.00908,-1.829897 -3.23708,-3.699892 0.0134,-2.092333 0.56469,-4.174273 1.35301,-6.238971 4.10706,1.40085 8.68879,1.346744 8.70473,1.267017 -2.29621,-0.180039 -5.15274,-2.132006 -7.48071,-4.132346 2.82104,-6.115631 6.5213,-12.059827 3.13846,-17.682589 -1.9839,-3.297537 -4.58521,-5.971409 -12.50577,-5.088299 l -15.85921,-5.404417 c -1.22605,-0.356736 -2.19622,-0.524433 -2.94372,-0.515911 z m 24.09101,18.373003 c 0.95775,0 1.73233,0.774593 1.73233,1.732346 0,0.957744 -0.77458,1.734877 -1.73233,1.734877 -0.95776,0 -1.73488,-0.777133 -1.73488,-1.734877 0,-0.957753 0.77712,-1.732346 1.73488,-1.732346 z"
       style="fill:none;fill-opacity:1;stroke:#000000;stroke-width:1;stroke-miterlimit:4;stroke-dasharray:none;stroke-opacity:0.02745098" />
    <path
       style="fill:none;fill-opacity:1;stroke:#000000;stroke-width:1.39999998;stroke-miterlimit:4;stroke-dasharray:none;stroke-opacity:0.02745098"
       d="m 208.1204,40.704327 c -2.44185,0.02784 -2.50033,1.936202 -1.29483,5.280498 l 3.22191,14.369632 c 0.19109,2.405337 1.12663,2.791863 3.04234,4.01096 l 7.67544,4.885974 -9.69356,-3.060054 c -2.81026,-0.513639 -2.84791,-1.349335 -3.63161,-3.90474 l -3.49502,-11.390502 c -0.58801,-2.398378 -0.64795,-2.501848 -2.486,-1.863855 -3.98499,1.384706 -13.70435,4.915001 -16.9947,7.50094 -1.33094,1.046009 -2.62203,3.198853 -3.59874,5.138873 -3.21839,8.235587 3.32584,17.159485 5.21728,26.07625 h 10.86701 l 1.61855,-7.516097 h 6.70431 l 2.54415,7.516097 h 10.40418 l 6.01138,-17.341166 c 4.65082,2.909368 0.52453,7.595292 3.00696,10.866999 1.60734,1.999577 7.1671,4.162682 7.1671,4.162682 l 2.54414,-3.237083 c 0,0 -4.00908,-1.829897 -3.23708,-3.699892 0.0134,-2.092333 0.56469,-4.174273 1.35301,-6.238971 4.10706,1.40085 8.68879,1.346744 8.70473,1.267017 -2.29621,-0.180039 -5.15274,-2.132006 -7.48071,-4.132346 2.82104,-6.115631 6.5213,-12.059827 3.13846,-17.682589 -1.9839,-3.297537 -4.58521,-5.971409 -12.50577,-5.088299 l -15.85921,-5.404417 c -1.22605,-0.356736 -2.19622,-0.524433 -2.94372,-0.515911 z m 24.09101,18.373003 c 0.95775,0 1.73233,0.774593 1.73233,1.732346 0,0.957744 -0.77458,1.734877 -1.73233,1.734877 -0.95776,0 -1.73488,-0.777133 -1.73488,-1.734877 0,-0.957753 0.77712,-1.732346 1.73488,-1.732346 z"
       id="path1130"
       inkscape:connector-curvature="0" />
    <path
       inkscape:connector-curvature="0"
       id="path1132"
       d="m 208.1204,40.704327 c -2.44185,0.02784 -2.50033,1.936202 -1.29483,5.280498 l 3.22191,14.369632 c 0.19109,2.405337 1.12663,2.791863 3.04234,4.01096 l 7.67544,4.885974 -9.69356,-3.060054 c -2.81026,-0.513639 -2.84791,-1.349335 -3.63161,-3.90474 l -3.49502,-11.390502 c -0.58801,-2.398378 -0.64795,-2.501848 -2.486,-1.863855 -3.98499,1.384706 -13.70435,4.915001 -16.9947,7.50094 -1.33094,1.046009 -2.62203,3.198853 -3.59874,5.138873 -3.21839,8.235587 3.32584,17.159485 5.21728,26.07625 h 10.86701 l 1.61855,-7.516097 h 6.70431 l 2.54415,7.516097 h 10.40418 l 6.01138,-17.341166 c 4.65082,2.909368 0.52453,7.595292 3.00696,10.866999 1.60734,1.999577 7.1671,4.162682 7.1671,4.162682 l 2.54414,-3.237083 c 0,0 -4.00908,-1.829897 -3.23708,-3.699892 0.0134,-2.092333 0.56469,-4.174273 1.35301,-6.238971 4.10706,1.40085 8.68879,1.346744 8.70473,1.267017 -2.29621,-0.180039 -5.15274,-2.132006 -7.48071,-4.132346 2.82104,-6.115631 6.5213,-12.059827 3.13846,-17.682589 -1.9839,-3.297537 -4.58521,-5.971409 -12.50577,-5.088299 l -15.85921,-5.404417 c -1.22605,-0.356736 -2.19622,-0.524433 -2.94372,-0.515911 z m 24.09101,18.373003 c 0.95775,0 1.73233,0.774593 1.73233,1.732346 0,0.957744 -0.77458,1.734877 -1.73233,1.734877 -0.95776,0 -1.73488,-0.777133 -1.73488,-1.734877 0,-0.957753 0.77712,-1.732346 1.73488,-1.732346 z"
       style="fill:none;fill-opacity:1;stroke:#000000;stroke-width:1.79999995;stroke-miterlimit:4;stroke-dasharray:none;stroke-opacity:0.02745098" />
    <path
       style="fill:none;fill-opacity:1;stroke:#000000;stroke-width:2.4000001;stroke-miterlimit:4;stroke-dasharray:none;stroke-opacity:0.02745098"
       d="m 208.1204,40.704327 c -2.44185,0.02784 -2.50033,1.936202 -1.29483,5.280498 l 3.22191,14.369632 c 0.19109,2.405337 1.12663,2.791863 3.04234,4.01096 l 7.67544,4.885974 -9.69356,-3.060054 c -2.81026,-0.513639 -2.84791,-1.349335 -3.63161,-3.90474 l -3.49502,-11.390502 c -0.58801,-2.398378 -0.64795,-2.501848 -2.486,-1.863855 -3.98499,1.384706 -13.70435,4.915001 -16.9947,7.50094 -1.33094,1.046009 -2.62203,3.198853 -3.59874,5.138873 -3.21839,8.235587 3.32584,17.159485 5.21728,26.07625 h 10.86701 l 1.61855,-7.516097 h 6.70431 l 2.54415,7.516097 h 10.40418 l 6.01138,-17.341166 c 4.65082,2.909368 0.52453,7.595292 3.00696,10.866999 1.60734,1.999577 7.1671,4.162682 7.1671,4.162682 l 2.54414,-3.237083 c 0,0 -4.00908,-1.829897 -3.23708,-3.699892 0.0134,-2.092333 0.56469,-4.174273 1.35301,-6.238971 4.10706,1.40085 8.68879,1.346744 8.70473,1.267017 -2.29621,-0.180039 -5.15274,-2.132006 -7.48071,-4.132346 2.82104,-6.115631 6.5213,-12.059827 3.13846,-17.682589 -1.9839,-3.297537 -4.58521,-5.971409 -12.50577,-5.088299 l -15.85921,-5.404417 c -1.22605,-0.356736 -2.19622,-0.524433 -2.94372,-0.515911 z m 24.09101,18.373003 c 0.95775,0 1.73233,0.774593 1.73233,1.732346 0,0.957744 -0.77458,1.734877 -1.73233,1.734877 -0.95776,0 -1.73488,-0.777133 -1.73488,-1.734877 0,-0.957753 0.77712,-1.732346 1.73488,-1.732346 z"
       id="path1134"
       inkscape:connector-curvature="0" />
    <path
       inkscape:connector-curvature="0"
       id="path1136"
       d="m 208.1204,40.704327 c -2.44185,0.02784 -2.50033,1.936202 -1.29483,5.280498 l 3.22191,14.369632 c 0.19109,2.405337 1.12663,2.791863 3.04234,4.01096 l 7.67544,4.885974 -9.69356,-3.060054 c -2.81026,-0.513639 -2.84791,-1.349335 -3.63161,-3.90474 l -3.49502,-11.390502 c -0.58801,-2.398378 -0.64795,-2.501848 -2.486,-1.863855 -3.98499,1.384706 -13.70435,4.915001 -16.9947,7.50094 -1.33094,1.046009 -2.62203,3.198853 -3.59874,5.138873 -3.21839,8.235587 3.32584,17.159485 5.21728,26.07625 h 10.86701 l 1.61855,-7.516097 h 6.70431 l 2.54415,7.516097 h 10.40418 l 6.01138,-17.341166 c 4.65082,2.909368 0.52453,7.595292 3.00696,10.866999 1.60734,1.999577 7.1671,4.162682 7.1671,4.162682 l 2.54414,-3.237083 c 0,0 -4.00908,-1.829897 -3.23708,-3.699892 0.0134,-2.092333 0.56469,-4.174273 1.35301,-6.238971 4.10706,1.40085 8.68879,1.346744 8.70473,1.267017 -2.29621,-0.180039 -5.15274,-2.132006 -7.48071,-4.132346 2.82104,-6.115631 6.5213,-12.059827 3.13846,-17.682589 -1.9839,-3.297537 -4.58521,-5.971409 -12.50577,-5.088299 l -15.85921,-5.404417 c -1.22605,-0.356736 -2.19622,-0.524433 -2.94372,-0.515911 z m 24.09101,18.373003 c 0.95775,0 1.73233,0.774593 1.73233,1.732346 0,0.957744 -0.77458,1.734877 -1.73233,1.734877 -0.95776,0 -1.73488,-0.777133 -1.73488,-1.734877 0,-0.957753 0.77712,-1.732346 1.73488,-1.732346 z"
       style="fill:none;fill-opacity:1;stroke:#000000;stroke-width:3;stroke-miterlimit:4;stroke-dasharray:none;stroke-opacity:0.02745098" />
    <path
       style="fill:none;fill-opacity:1;stroke:#000000;stroke-width:4;stroke-miterlimit:4;stroke-dasharray:none;stroke-opacity:0.02745098"
       d="m 208.1204,40.704327 c -2.44185,0.02784 -2.50033,1.936202 -1.29483,5.280498 l 3.22191,14.369632 c 0.19109,2.405337 1.12663,2.791863 3.04234,4.01096 l 7.67544,4.885974 -9.69356,-3.060054 c -2.81026,-0.513639 -2.84791,-1.349335 -3.63161,-3.90474 l -3.49502,-11.390502 c -0.58801,-2.398378 -0.64795,-2.501848 -2.486,-1.863855 -3.98499,1.384706 -13.70435,4.915001 -16.9947,7.50094 -1.33094,1.046009 -2.62203,3.198853 -3.59874,5.138873 -3.21839,8.235587 3.32584,17.159485 5.21728,26.07625 h 10.86701 l 1.61855,-7.516097 h 6.70431 l 2.54415,7.516097 h 10.40418 l 6.01138,-17.341166 c 4.65082,2.909368 0.52453,7.595292 3.00696,10.866999 1.60734,1.999577 7.1671,4.162682 7.1671,4.162682 l 2.54414,-3.237083 c 0,0 -4.00908,-1.829897 -3.23708,-3.699892 0.0134,-2.092333 0.56469,-4.174273 1.35301,-6.238971 4.10706,1.40085 8.68879,1.346744 8.70473,1.267017 -2.29621,-0.180039 -5.15274,-2.132006 -7.48071,-4.132346 2.82104,-6.115631 6.5213,-12.059827 3.13846,-17.682589 -1.9839,-3.297537 -4.58521,-5.971409 -12.50577,-5.088299 l -15.85921,-5.404417 c -1.22605,-0.356736 -2.19622,-0.524433 -2.94372,-0.515911 z m 24.09101,18.373003 c 0.95775,0 1.73233,0.774593 1.73233,1.732346 0,0.957744 -0.77458,1.734877 -1.73233,1.734877 -0.95776,0 -1.73488,-0.777133 -1.73488,-1.734877 0,-0.957753 0.77712,-1.732346 1.73488,-1.732346 z"
       id="path1138"
       inkscape:connector-curvature="0" />
    <path
       inkscape:connector-curvature="0"
       id="path1140"
       d="m 208.1204,40.704327 c -2.44185,0.02784 -2.50033,1.936202 -1.29483,5.280498 l 3.22191,14.369632 c 0.19109,2.405337 1.12663,2.791863 3.04234,4.01096 l 7.67544,4.885974 -9.69356,-3.060054 c -2.81026,-0.513639 -2.84791,-1.349335 -3.63161,-3.90474 l -3.49502,-11.390502 c -0.58801,-2.398378 -0.64795,-2.501848 -2.486,-1.863855 -3.98499,1.384706 -13.70435,4.915001 -16.9947,7.50094 -1.33094,1.046009 -2.62203,3.198853 -3.59874,5.138873 -3.21839,8.235587 3.32584,17.159485 5.21728,26.07625 h 10.86701 l 1.61855,-7.516097 h 6.70431 l 2.54415,7.516097 h 10.40418 l 6.01138,-17.341166 c 4.65082,2.909368 0.52453,7.595292 3.00696,10.866999 1.60734,1.999577 7.1671,4.162682 7.1671,4.162682 l 2.54414,-3.237083 c 0,0 -4.00908,-1.829897 -3.23708,-3.699892 0.0134,-2.092333 0.56469,-4.174273 1.35301,-6.238971 4.10706,1.40085 8.68879,1.346744 8.70473,1.267017 -2.29621,-0.180039 -5.15274,-2.132006 -7.48071,-4.132346 2.82104,-6.115631 6.5213,-12.059827 3.13846,-17.682589 -1.9839,-3.297537 -4.58521,-5.971409 -12.50577,-5.088299 l -15.85921,-5.404417 c -1.22605,-0.356736 -2.19622,-0.524433 -2.94372,-0.515911 z m 24.09101,18.373003 c 0.95775,0 1.73233,0.774593 1.73233,1.732346 0,0.957744 -0.77458,1.734877 -1.73233,1.734877 -0.95776,0 -1.73488,-0.777133 -1.73488,-1.734877 0,-0.957753 0.77712,-1.732346 1.73488,-1.732346 z"
       style="fill:none;fill-opacity:1;stroke:#000000;stroke-width:5;stroke-miterlimit:4;stroke-dasharray:none;stroke-opacity:0.02745098" />
    <path
       style="fill:none;fill-opacity:1;stroke:#000000;stroke-width:6.5;stroke-miterlimit:4;stroke-dasharray:none;stroke-opacity:0.02745098"
       d="m 208.1204,40.704327 c -2.44185,0.02784 -2.50033,1.936202 -1.29483,5.280498 l 3.22191,14.369632 c 0.19109,2.405337 1.12663,2.791863 3.04234,4.01096 l 7.67544,4.885974 -9.69356,-3.060054 c -2.81026,-0.513639 -2.84791,-1.349335 -3.63161,-3.90474 l -3.49502,-11.390502 c -0.58801,-2.398378 -0.64795,-2.501848 -2.486,-1.863855 -3.98499,1.384706 -13.70435,4.915001 -16.9947,7.50094 -1.33094,1.046009 -2.62203,3.198853 -3.59874,5.138873 -3.21839,8.235587 3.32584,17.159485 5.21728,26.07625 h 10.86701 l 1.61855,-7.516097 h 6.70431 l 2.54415,7.516097 h 10.40418 l 6.01138,-17.341166 c 4.65082,2.909368 0.52453,7.595292 3.00696,10.866999 1.60734,1.999577 7.1671,4.162682 7.1671,4.162682 l 2.54414,-3.237083 c 0,0 -4.00908,-1.829897 -3.23708,-3.699892 0.0134,-2.092333 0.56469,-4.174273 1.35301,-6.238971 4.10706,1.40085 8.68879,1.346744 8.70473,1.267017 -2.29621,-0.180039 -5.15274,-2.132006 -7.48071,-4.132346 2.82104,-6.115631 6.5213,-12.059827 3.13846,-17.682589 -1.9839,-3.297537 -4.58521,-5.971409 -12.50577,-5.088299 l -15.85921,-5.404417 c -1.22605,-0.356736 -2.19622,-0.524433 -2.94372,-0.515911 z m 24.09101,18.373003 c 0.95775,0 1.73233,0.774593 1.73233,1.732346 0,0.957744 -0.77458,1.734877 -1.73233,1.734877 -0.95776,0 -1.73488,-0.777133 -1.73488,-1.734877 0,-0.957753 0.77712,-1.732346 1.73488,-1.732346 z"
       id="path1142"
       inkscape:connector-curvature="0" />
    <path
       inkscape:connector-curvature="0"
       id="path1144"
       d="m 208.1204,40.704327 c -2.44185,0.02784 -2.50033,1.936202 -1.29483,5.280498 l 3.22191,14.369632 c 0.19109,2.405337 1.12663,2.791863 3.04234,4.01096 l 7.67544,4.885974 -9.69356,-3.060054 c -2.81026,-0.513639 -2.84791,-1.349335 -3.63161,-3.90474 l -3.49502,-11.390502 c -0.58801,-2.398378 -0.64795,-2.501848 -2.486,-1.863855 -3.98499,1.384706 -13.70435,4.915001 -16.9947,7.50094 -1.33094,1.046009 -2.62203,3.198853 -3.59874,5.138873 -3.21839,8.235587 3.32584,17.159485 5.21728,26.07625 h 10.86701 l 1.61855,-7.516097 h 6.70431 l 2.54415,7.516097 h 10.40418 l 6.01138,-17.341166 c 4.65082,2.909368 0.52453,7.595292 3.00696,10.866999 1.60734,1.999577 7.1671,4.162682 7.1671,4.162682 l 2.54414,-3.237083 c 0,0 -4.00908,-1.829897 -3.23708,-3.699892 0.0134,-2.092333 0.56469,-4.174273 1.35301,-6.238971 4.10706,1.40085 8.68879,1.346744 8.70473,1.267017 -2.29621,-0.180039 -5.15274,-2.132006 -7.48071,-4.132346 2.82104,-6.115631 6.5213,-12.059827 3.13846,-17.682589 -1.9839,-3.297537 -4.58521,-5.971409 -12.50577,-5.088299 l -15.85921,-5.404417 c -1.22605,-0.356736 -2.19622,-0.524433 -2.94372,-0.515911 z m 24.09101,18.373003 c 0.95775,0 1.73233,0.774593 1.73233,1.732346 0,0.957744 -0.77458,1.734877 -1.73233,1.734877 -0.95776,0 -1.73488,-0.777133 -1.73488,-1.734877 0,-0.957753 0.77712,-1.732346 1.73488,-1.732346 z"
       style="fill:none;fill-opacity:1;stroke:#000000;stroke-width:8;stroke-miterlimit:4;stroke-dasharray:none;stroke-opacity:0.02745098" />
  </g>
  <path
     style="fill:#ffffff;fill-opacity:1;stroke:none;stroke-width:0.21204203"
     d="m 60.572924,40.704327 c -2.441842,0.02784 -2.500327,1.936202 -1.294828,5.280498 l 3.221914,14.369632 c 0.191093,2.405337 1.126625,2.791863 3.04234,4.01096 l 7.675439,4.885974 -9.693559,-3.060054 c -2.810259,-0.513639 -2.847911,-1.349335 -3.631611,-3.90474 L 56.397596,50.896095 c -0.588007,-2.398378 -0.647949,-2.501848 -2.485993,-1.863855 -3.984992,1.384706 -13.704355,4.915001 -16.994705,7.50094 -1.33094,1.046009 -2.622026,3.198853 -3.598744,5.138873 -3.218382,8.235587 3.325846,17.159485 5.217284,26.07625 h 10.867007 l 1.618551,-7.516097 h 6.70431 l 2.54415,7.516097 h 10.404183 l 6.011376,-17.341166 c 4.650825,2.909368 0.524534,7.595292 3.00696,10.866999 1.607339,1.999577 7.167099,4.162682 7.167099,4.162682 l 2.544148,-3.237083 c 0,0 -4.009082,-1.829897 -3.237082,-3.699892 0.01338,-2.092333 0.56469,-4.174273 1.353007,-6.238971 4.107065,1.40085 8.688795,1.346744 8.704735,1.267017 -2.29621,-0.180039 -5.15274,-2.132006 -7.480712,-4.132346 2.821042,-6.115631 6.521302,-12.059827 3.138462,-17.682589 C 89.89773,48.415417 87.296414,45.741545 79.375857,46.624655 L 63.516644,41.220238 c -1.226041,-0.356736 -2.196219,-0.524433 -2.94372,-0.515911 z M 84.663941,59.07733 c 0.957744,0 1.732325,0.774593 1.732325,1.732346 0,0.957744 -0.774581,1.734877 -1.732325,1.734877 -0.957762,0 -1.734884,-0.777133 -1.734884,-1.734877 0,-0.957753 0.777122,-1.732346 1.734884,-1.732346 z"
     id="path3759-8"
     inkscape:connector-curvature="0" />
</svg>
