<?xml version="1.0" encoding="UTF-8" standalone="no"?>
<!-- Generator: Adobe Illustrator 21.1.0, SVG Export Plug-In . SVG Version: 6.00 Build 0)  -->

<svg
   xmlns:dc="http://purl.org/dc/elements/1.1/"
   xmlns:cc="http://creativecommons.org/ns#"
   xmlns:rdf="http://www.w3.org/1999/02/22-rdf-syntax-ns#"
   xmlns:svg="http://www.w3.org/2000/svg"
   xmlns="http://www.w3.org/2000/svg"
   xmlns:xlink="http://www.w3.org/1999/xlink"
   xmlns:sodipodi="http://sodipodi.sourceforge.net/DTD/sodipodi-0.dtd"
   xmlns:inkscape="http://www.inkscape.org/namespaces/inkscape"
   version="1.0"
   id="Layer_1"
   x="0px"
   y="0px"
   viewBox="0 0 128 128"
   style="enable-background:new 0 0 128 128;"
   xml:space="preserve"
   sodipodi:docname="preferences-system.svg"
   inkscape:version="0.92.3 (2405546, 2018-03-11)"><metadata
   id="metadata9"><rdf:RDF><cc:Work
       rdf:about=""><dc:format>image/svg+xml</dc:format><dc:type
         rdf:resource="http://purl.org/dc/dcmitype/StillImage" /><dc:title></dc:title></cc:Work></rdf:RDF></metadata><defs
   id="defs7"><linearGradient
     inkscape:collect="always"
     id="linearGradient1067"><stop
       style="stop-color:#000000;stop-opacity:1;"
       offset="0"
       id="stop1063" /><stop
       style="stop-color:#000000;stop-opacity:0;"
       offset="1"
       id="stop1065" /></linearGradient><linearGradient
     inkscape:collect="always"
     id="linearGradient1005"><stop
       style="stop-color:#2c2d31;stop-opacity:1"
       offset="0"
       id="stop1001" /><stop
       style="stop-color:#3c3e43;stop-opacity:1"
       offset="1"
       id="stop1003" /></linearGradient><linearGradient
     inkscape:collect="always"
     id="linearGradient965"><stop
       style="stop-color:#afb0b1;stop-opacity:1"
       offset="0"
       id="stop961" /><stop
       style="stop-color:#bdbebf;stop-opacity:1"
       offset="1"
       id="stop963" /></linearGradient><linearGradient
     inkscape:collect="always"
     id="linearGradient938"><stop
       style="stop-color:#f6f6f6;stop-opacity:0.98837209"
       offset="0"
       id="stop934" /><stop
       style="stop-color:#bfbfbf;stop-opacity:1"
       offset="1"
       id="stop936" /></linearGradient><linearGradient
     inkscape:collect="always"
     id="linearGradient930"><stop
       style="stop-color:#6c6c6c;stop-opacity:1;"
       offset="0"
       id="stop926" /><stop
       style="stop-color:#6c6c6c;stop-opacity:0;"
       offset="1"
       id="stop928" /></linearGradient><linearGradient
     inkscape:collect="always"
     id="linearGradient898"><stop
       style="stop-color:#5f6569;stop-opacity:1;"
       offset="0"
       id="stop894" /><stop
       style="stop-color:#686e72;stop-opacity:1"
       offset="1"
       id="stop896" /></linearGradient><linearGradient
     inkscape:collect="always"
     id="linearGradient885"><stop
       style="stop-color:#27282c;stop-opacity:1"
       offset="0"
       id="stop881" /><stop
       style="stop-color:#27282c;stop-opacity:1"
       offset="1"
       id="stop883" /></linearGradient><linearGradient
     inkscape:collect="always"
     id="linearGradient867"><stop
       style="stop-color:#494f52;stop-opacity:1;"
       offset="0"
       id="stop863" /><stop
       style="stop-color:#98a1a6;stop-opacity:1"
       offset="1"
       id="stop865" /></linearGradient><linearGradient
     inkscape:collect="always"
     id="linearGradient820"><stop
       style="stop-color:#cad1d4;stop-opacity:1"
       offset="0"
       id="stop816" /><stop
       style="stop-color:#8c8a88;stop-opacity:1"
       offset="1"
       id="stop818" /></linearGradient><linearGradient
     inkscape:collect="always"
     xlink:href="#linearGradient820"
     id="linearGradient822"
     x1="56.853683"
     y1="29.389542"
     x2="100.08184"
     y2="105.01454"
     gradientUnits="userSpaceOnUse"
     gradientTransform="translate(139.7511,1.336102)" /><linearGradient
     inkscape:collect="always"
     xlink:href="#linearGradient867"
     id="linearGradient869"
     x1="69.671875"
     y1="33.873047"
     x2="94.855469"
     y2="94.529297"
     gradientUnits="userSpaceOnUse"
     gradientTransform="translate(133.01562,3.335901)" /><radialGradient
     inkscape:collect="always"
     xlink:href="#linearGradient885"
     id="radialGradient887"
     cx="72.257477"
     cy="63.874252"
     fx="72.257477"
     fy="63.874252"
     r="3.0052037"
     gradientUnits="userSpaceOnUse"
     gradientTransform="translate(146.33681,5.7262972)" /><linearGradient
     inkscape:collect="always"
     xlink:href="#linearGradient898"
     id="linearGradient900"
     x1="62.092483"
     y1="64.47099"
     x2="69.738967"
     y2="64.47099"
     gradientUnits="userSpaceOnUse"
     gradientTransform="translate(152.67856,5.1295576)" /><linearGradient
     inkscape:collect="always"
     xlink:href="#linearGradient930"
     id="linearGradient932"
     x1="0"
     y1="256"
     x2="512"
     y2="256"
     gradientUnits="userSpaceOnUse" /><linearGradient
     inkscape:collect="always"
     xlink:href="#linearGradient938"
     id="linearGradient942"
     gradientUnits="userSpaceOnUse"
     x1="70.194855"
     y1="-0.34671903"
     x2="69.118843"
     y2="125.16474"
     gradientTransform="translate(0.98459166,1.3325355)" /><linearGradient
     inkscape:collect="always"
     xlink:href="#linearGradient965"
     id="linearGradient967"
     x1="49.251095"
     y1="20.134933"
     x2="70.251099"
     y2="132.63493"
     gradientUnits="userSpaceOnUse"
     gradientTransform="translate(0.98349166,-11.8024)" /><linearGradient
     inkscape:collect="always"
     xlink:href="#linearGradient1005"
     id="linearGradient1007"
     x1="201.52544"
     y1="19.105551"
     x2="196.57568"
     y2="120.22182"
     gradientUnits="userSpaceOnUse"
     gradientTransform="translate(-127.70201,-1.1491742)" /><linearGradient
     inkscape:collect="always"
     xlink:href="#linearGradient1005"
     id="linearGradient1181"
     gradientUnits="userSpaceOnUse"
     gradientTransform="translate(-127.70201,-1.1491742)"
     x1="201.52544"
     y1="19.105551"
     x2="196.57568"
     y2="120.22182" /><filter
     inkscape:collect="always"
     style="color-interpolation-filters:sRGB"
     id="filter1003"
     x="-0.036082607"
     width="1.0721652"
     y="-0.03591777"
     height="1.0718355"><feGaussianBlur
       inkscape:collect="always"
       stdDeviation="1.7787305"
       id="feGaussianBlur1005" /></filter><filter
     inkscape:collect="always"
     style="color-interpolation-filters:sRGB"
     id="filter1057"
     x="-0.035999999"
     width="1.072"
     y="-0.036000001"
     height="1.072"><feGaussianBlur
       inkscape:collect="always"
       stdDeviation="1.7925294"
       id="feGaussianBlur1059" /></filter><linearGradient
     inkscape:collect="always"
     xlink:href="#linearGradient1067"
     id="linearGradient1069"
     x1="145.94832"
     y1="3.1071327"
     x2="202.01367"
     y2="58.146484"
     gradientUnits="userSpaceOnUse"
     gradientTransform="translate(-154.14928,-2.1213203)" /><linearGradient
     inkscape:collect="always"
     xlink:href="#linearGradient1067"
     id="linearGradient1075"
     gradientUnits="userSpaceOnUse"
     x1="272.19833"
     y1="117.35713"
     x2="246.26367"
     y2="91.646484"
     gradientTransform="translate(-154.14928,-2.1213203)" /></defs><sodipodi:namedview
   pagecolor="#ffffff"
   bordercolor="#666666"
   borderopacity="1"
   objecttolerance="10"
   gridtolerance="10"
   guidetolerance="10"
   inkscape:pageopacity="0"
   inkscape:pageshadow="2"
   inkscape:window-width="1360"
   inkscape:window-height="718"
   id="namedview5"
   showgrid="false"
   inkscape:zoom="2"
   inkscape:cx="80.067458"
   inkscape:cy="78.816533"
   inkscape:window-x="0"
   inkscape:window-y="24"
   inkscape:window-maximized="1"
   inkscape:current-layer="Layer_1"
   showguides="false"
   inkscape:measure-start="0,0"
   inkscape:measure-end="0,0" />

<g
   id="g1095"
   transform="matrix(0.9612497,0,0,0.9612497,2.0181728,2.0316556)"><circle
     r="59.750519"
     cy="65.332527"
     cx="64.984589"
     id="path983"
     style="opacity:1;fill:url(#linearGradient1181);fill-opacity:1;stroke:none;stroke-width:2.67193675;stroke-linecap:round;stroke-linejoin:round;stroke-miterlimit:4;stroke-dasharray:none;stroke-opacity:0.45930236" /><circle
     style="opacity:1;fill:url(#linearGradient1007);fill-opacity:1;stroke:none;stroke-width:2.67193675;stroke-linecap:round;stroke-linejoin:round;stroke-miterlimit:4;stroke-dasharray:none;stroke-opacity:0.45930236"
     id="circle1115"
     cx="64.984589"
     cy="65.332527"
     r="59.750519" /><path
     inkscape:connector-curvature="0"
     id="circle1036"
     d="M 64.985492,5.5818047 A 59.750519,59.750519 0 0 0 5.2335317,65.331805 59.750519,59.750519 0 0 0 64.985492,125.08376 59.750519,59.750519 0 0 0 124.73549,65.331805 59.750519,59.750519 0 0 0 64.985492,5.5818047 Z m 0,5.2500003 a 54.500519,54.500519 0 0 1 54.499998,54.5 54.500519,54.500519 0 0 1 -54.499998,54.501955 54.500519,54.500519 0 0 1 -54.50196,-54.501955 54.500519,54.500519 0 0 1 54.50196,-54.5 z"
     style="opacity:1;fill:#000000;fill-opacity:0.19186048;stroke:none;stroke-width:2.67193675;stroke-linecap:round;stroke-linejoin:round;stroke-miterlimit:4;stroke-dasharray:none;stroke-opacity:0.45930236;filter:url(#filter1057)" /><g
     transform="translate(-154.14928,-2.1213203)"
     id="g943"><path
       inkscape:connector-curvature="0"
       id="path945"
       d="m 217.16211,7.7734375 a 59.750519,59.750519 0 0 0 -7.25586,0.6855469 33.700947,33.700947 0 0 1 1.57422,8.2558596 33.700947,33.700947 0 0 1 -31.62109,35.660156 33.700947,33.700947 0 0 1 -17.39649,-3.703125 59.750519,59.750519 0 0 0 -2.20117,8.980469 c 0.62981,-0.787922 1.36347,-1.831234 2.3164,-3.197266 l -0.79296,-0.410156 c 1.52488,0.659419 3.09067,1.219631 4.6875,1.679687 -0.0332,4.519531 -0.36455,6.301474 1.71093,6.859375 1.79693,0.483009 2.37735,-1.122548 3.91993,-5.632812 1.47306,0.192356 2.95588,0.300683 4.4414,0.324219 1.13174,4.929958 1.50356,6.624156 3.38867,6.322265 2.11644,-0.338939 1.97912,-2.141206 2.41016,-6.613281 1.48385,-0.198634 2.95506,-0.48223 4.40625,-0.849609 2.10042,4.354046 2.86289,5.892256 4.59961,5.193359 1.99446,-0.802619 1.45113,-2.533028 0.87695,-7.019531 1.34859,-0.554073 2.66541,-1.18164 3.94336,-1.882813 3.27363,3.664737 4.42723,4.946431 5.91406,3.78711 1.68798,-1.316155 0.70309,-2.829243 -1.07226,-6.941407 1.19871,-0.920464 2.34231,-1.909876 3.42578,-2.96289 3.93565,2.632091 5.37162,3.549729 6.50391,2.080078 1.28955,-1.673777 -0.005,-2.897585 -2.67774,-6.332031 0.87132,-1.125282 1.67926,-2.298125 2.42188,-3.511719 4.69323,1.347372 6.34989,1.813417 6.98828,0.04492 0.71288,-1.974901 -0.87472,-2.755419 -4.41992,-5.173828 0.59314,-1.412058 1.10317,-2.858212 1.52539,-4.330078 4.86084,0.157982 6.57944,0.201678 6.76562,-1.666016 0.20859,-2.092684 -1.52898,-2.459297 -5.57226,-3.94336 0.19372,-1.531441 0.29669,-3.073704 0.30664,-4.617187 4.60682,-0.887608 6.26628,-1.248147 6.03906,-3.082031 -0.26005,-2.098563 -2.04219,-2.058657 -6.36524,-2.623047 -0.2039,-1.444383 -0.49021,-2.876703 -0.85546,-4.2890626 0.81818,-0.4217281 1.44513,-0.7563726 2.06445,-1.0917969 z m 0.19336,36.6757815 -2.62891,0.34375 c -0.12138,0.0159 -0.22415,0.08029 -0.29297,0.169922 -0.0688,0.0896 -0.09,0.203772 -0.0879,0.326171 l 0.0566,3.277344 a 19.489632,19.489632 0 0 0 -5.42968,2.275391 l -2.24024,-2.355469 c -0.0763,-0.0958 -0.18097,-0.155122 -0.29297,-0.169922 -0.11199,-0.0148 -0.229,0.01339 -0.32617,0.08789 l -2.10547,1.613281 c -0.0972,0.0745 -0.15512,0.180969 -0.16992,0.292969 -0.0148,0.112 0.0271,0.221855 0.0879,0.328125 l 1.625,2.839844 a 19.489632,19.489632 0 0 0 -3.53711,4.667968 l -3.08789,-0.908203 c -0.11392,-0.0448 -0.2335,-0.04505 -0.33789,-0.002 -0.10439,0.0432 -0.19137,0.127155 -0.23828,0.240234 l -1.01563,2.449219 c -0.0469,0.11308 -0.0451,0.233501 -0.002,0.337891 0.0432,0.10439 0.13447,0.178594 0.24024,0.240234 l 2.82617,1.646485 a 19.489632,19.489632 0 0 0 -0.75391,5.302734 19.489632,19.489632 0 0 0 0.0176,0.5 l -3.15039,0.761719 c -0.12105,0.0182 -0.2261,0.0784 -0.29492,0.167968 -0.0688,0.0896 -0.1019,0.204792 -0.0859,0.326172 l 0.34375,2.628907 c 0.0159,0.12138 0.0784,0.226101 0.16797,0.294921 0.0896,0.0688 0.2057,0.08544 0.32812,0.08594 l 3.28711,0.01367 a 19.489632,19.489632 0 0 0 2.26953,5.388672 l -2.3457,2.232422 c -0.0957,0.0763 -0.15512,0.180968 -0.16992,0.292968 -0.0148,0.112 0.0134,0.230965 0.0879,0.328125 l 1.61328,2.103516 c 0.0745,0.0972 0.18097,0.155122 0.29297,0.169922 0.11199,0.0148 0.2199,-0.02709 0.32617,-0.08789 l 2.83203,-1.61914 a 19.489632,19.489632 0 0 0 4.67383,3.539062 l -0.90625,3.080078 c -0.0448,0.11392 -0.0432,0.233491 0,0.337891 0.0432,0.10439 0.1252,0.193334 0.23828,0.240234 l 2.44922,1.015625 c 0.11307,0.0469 0.23545,0.0432 0.33984,0 0.1044,-0.0432 0.17665,-0.134464 0.23829,-0.240234 l 1.64453,-2.822266 a 19.489632,19.489632 0 0 0 5.29297,0.751953 19.489632,19.489632 0 0 0 0.51171,-0.01758 l 0.76172,3.150391 c 0.0182,0.12106 0.0784,0.224149 0.16797,0.292969 0.0896,0.0688 0.20675,0.1038 0.32813,0.08789 l 2.6289,-0.345703 c 0.12138,-0.0159 0.22415,-0.0784 0.29297,-0.167969 0.0688,-0.0896 0.0874,-0.205705 0.0879,-0.328125 l 0.0137,-3.289062 a 19.489632,19.489632 0 0 0 5.25586,-2.197266 l 2.38672,2.263672 c 0.61961,0.0819 0.18097,0.155122 0.29297,0.169922 0.11199,0.0148 0.22901,-0.01339 0.32617,-0.08789 l 2.10547,-1.613281 c 0.0972,-0.0745 0.15317,-0.180969 0.16797,-0.292969 0.0148,-0.112 -0.0249,-0.221221 -0.0879,-0.326171 l -1.67773,-2.794922 a 19.489632,19.489632 0 0 0 3.49023,-4.56836 l 3.20117,0.767578 c 0.57755,-0.23887 0.23546,0.0432 0.33985,0 0.1044,-0.0432 0.19138,-0.125201 0.23828,-0.238281 l 1.01562,-2.449219 c 0.0469,-0.11308 0.045,-0.235453 0.002,-0.339843 -0.0432,-0.10439 -0.13318,-0.178902 -0.24024,-0.238282 l -2.88086,-1.597656 a 19.489632,19.489632 0 0 0 0.76172,-5.330078 19.489632,19.489632 0 0 0 -0.0137,-0.365234 l 3.14648,-0.931641 c 0.38074,-0.49565 0.22415,-0.0784 0.29297,-0.167969 0.0688,-0.0896 0.1038,-0.204792 0.0879,-0.326172 l -0.3457,-2.630859 c -0.0159,-0.12138 -0.0784,-0.224149 -0.16797,-0.292969 -0.0896,-0.0688 -0.20573,-0.08804 -0.32812,-0.08594 l -3.27735,0.05664 a 19.489632,19.489632 0 0 0 -2.20312,-5.296875 l 2.27148,-2.394531 c 0.0819,-0.61961 0.15317,-0.180969 0.16797,-0.292969 0.0148,-0.11199 -0.0134,-0.230965 -0.0879,-0.328125 l -1.61133,-2.103515 c -0.0745,-0.0972 -0.18097,-0.155122 -0.29297,-0.169922 -0.11199,-0.0148 -0.22317,0.02489 -0.32812,0.08789 l -2.80274,1.683593 a 19.489632,19.489632 0 0 0 -4.5625,-3.488281 l 0.76953,-3.208984 c -0.23887,-0.57755 0.0432,-0.233501 0,-0.337891 -0.0432,-0.10439 -0.1252,-0.193334 -0.23828,-0.240234 l -2.44922,-1.015625 c -0.11307,-0.0469 -0.23349,-0.0432 -0.33789,0 -0.10439,0.0432 -0.18085,0.131231 -0.24023,0.238281 l -1.59961,2.884765 a 19.489632,19.489632 0 0 0 -5.33984,-0.763671 19.489632,19.489632 0 0 0 -0.35157,0.01172 l -0.93164,-3.144531 c -0.49565,-0.38073 -0.0803,-0.226102 -0.16992,-0.294922 -0.0896,-0.0688 -0.20479,-0.101887 -0.32617,-0.08594 z m 1.7793,7.625 a 15.379573,15.379573 0 0 1 15.3789,15.378906 15.379573,15.379573 0 0 1 -15.3789,15.378906 15.379573,15.379573 0 0 1 -15.37891,-15.378906 15.379573,15.379573 0 0 1 15.37891,-15.378906 z m 49.91015,18.033203 c -2.1338,-0.01066 -2.30295,1.778604 -3.44336,6.078125 -1.48296,-0.05272 -2.96779,-0.02044 -4.44726,0.0957 -1.44871,-4.737159 -1.95274,-6.390221 -3.79492,-5.958984 -2.09178,0.489672 -1.81958,2.280606 -1.9336,6.794922 -1.4157,0.326998 -2.81122,0.732399 -4.18164,1.214843 -2.54292,-4.258136 -3.42885,-5.740717 -5.11523,-4.880859 -1.93903,0.988672 -1.20784,2.668408 -0.21875,7.210937 -1.27953,0.668455 -2.5213,1.407121 -3.71875,2.212891 -3.72902,-3.361829 -5.00921,-4.530219 -6.375,-3.205078 -1.54088,1.495015 -0.38965,2.892417 1.83203,6.816406 -1.07627,0.99515 -2.0956,2.050518 -3.05274,3.160156 -4.42504,-2.366076 -5.94987,-3.192217 -6.95703,-1.578125 -1.14298,1.831771 0.32882,2.903355 3.46485,6.222657 -0.76672,1.206066 -1.46646,2.453625 -2.09571,3.736328 -4.41241,-0.942466 -6.0886,-1.624013 -7.05273,0.294922 -0.85265,1.697097 0.64112,2.570377 4.94726,5.107427 -0.43761,1.38951 -0.79744,2.80287 -1.07617,4.23242 -4.46348,0.22819 -6.25341,0.0171 -6.68555,2.11133 -0.38022,1.8428 1.27462,2.31292 5.98829,3.61914 -0.0563,1.43456 -0.0327,2.87088 0.0703,4.30273 -4.21708,1.47658 -5.99403,1.77927 -5.81836,3.91016 0.15259,1.85073 1.85709,1.85768 6.60156,1.78515 0.24821,1.09279 0.55892,2.16947 0.90039,3.23633 a 59.750519,59.750519 0 0 0 5.60547,-1.00976 c -2.21462,-6.65324 -2.69661,-14.02347 0.98242,-23.53711 0.68163,-1.7626 1.49026,-3.281737 2.41016,-4.470708 A 33.700947,33.700947 0 0 1 252.9414,83.683591 c 0.93356,-0.474026 2.21832,-0.839722 3.64453,-1.123047 a 33.700947,33.700947 0 0 1 3.10547,-0.636719 33.700947,33.700947 0 0 1 3.35351,-0.320312 33.700947,33.700947 0 0 1 13.50977,2.179687 59.750519,59.750519 0 0 0 2.01758,-10.271484 c -0.80264,0.791594 -1.62121,2.250978 -2.99024,4.40039 -1.38809,-0.429816 -2.79892,-0.782129 -4.22656,-1.054687 -0.31017,-5.009207 -0.40789,-6.740487 -2.31055,-6.75 z"
       style="fill:#000000;fill-opacity:0.4534884;stroke:none;stroke-width:0.1;stroke-linecap:butt;stroke-linejoin:miter;stroke-miterlimit:4;stroke-dasharray:none;stroke-opacity:1;filter:url(#filter1003)" /><path
       inkscape:connector-curvature="0"
       style="fill:#424546;fill-opacity:1;stroke:none;stroke-width:0.1;stroke-linecap:butt;stroke-linejoin:miter;stroke-miterlimit:4;stroke-dasharray:none;stroke-opacity:1"
       d="m 217.16211,7.7734375 a 59.750519,59.750519 0 0 0 -7.25586,0.6855469 33.700947,33.700947 0 0 1 1.57422,8.2558596 33.700947,33.700947 0 0 1 -31.62109,35.660156 33.700947,33.700947 0 0 1 -17.39649,-3.703125 59.750519,59.750519 0 0 0 -2.20117,8.980469 c 0.62981,-0.787922 1.36347,-1.831234 2.3164,-3.197266 l -0.79296,-0.410156 c 1.52488,0.659419 3.09067,1.219631 4.6875,1.679687 -0.0332,4.519531 -0.36455,6.301474 1.71093,6.859375 1.79693,0.483009 2.37735,-1.122548 3.91993,-5.632812 1.47306,0.192356 2.95588,0.300683 4.4414,0.324219 1.13174,4.929958 1.50356,6.624156 3.38867,6.322265 2.11644,-0.338939 1.97912,-2.141206 2.41016,-6.613281 1.48385,-0.198634 2.95506,-0.48223 4.40625,-0.849609 2.10042,4.354046 2.86289,5.892256 4.59961,5.193359 1.99446,-0.802619 1.45113,-2.533028 0.87695,-7.019531 1.34859,-0.554073 2.66541,-1.18164 3.94336,-1.882813 3.27363,3.664737 4.42723,4.946431 5.91406,3.78711 1.68798,-1.316155 0.70309,-2.829243 -1.07226,-6.941407 1.19871,-0.920464 2.34231,-1.909876 3.42578,-2.96289 3.93565,2.632091 5.37162,3.549729 6.50391,2.080078 1.28955,-1.673777 -0.005,-2.897585 -2.67774,-6.332031 0.87132,-1.125282 1.67926,-2.298125 2.42188,-3.511719 4.69323,1.347372 6.34989,1.813417 6.98828,0.04492 0.71288,-1.974901 -0.87472,-2.755419 -4.41992,-5.173828 0.59314,-1.412058 1.10317,-2.858212 1.52539,-4.330078 4.86084,0.157982 6.57944,0.201678 6.76562,-1.666016 0.20859,-2.092684 -1.52898,-2.459297 -5.57226,-3.94336 0.19372,-1.531441 0.29669,-3.073704 0.30664,-4.617187 4.60682,-0.887608 6.26628,-1.248147 6.03906,-3.082031 -0.26005,-2.098563 -2.04219,-2.058657 -6.36524,-2.623047 -0.2039,-1.444383 -0.49021,-2.876703 -0.85546,-4.2890626 0.81818,-0.4217281 1.44513,-0.7563726 2.06445,-1.0917969 z m 0.19336,36.6757815 -2.62891,0.34375 c -0.12138,0.0159 -0.22415,0.08029 -0.29297,0.169922 -0.0688,0.0896 -0.09,0.203772 -0.0879,0.326171 l 0.0566,3.277344 a 19.489632,19.489632 0 0 0 -5.42968,2.275391 l -2.24024,-2.355469 c -0.0763,-0.0958 -0.18097,-0.155122 -0.29297,-0.169922 -0.11199,-0.0148 -0.229,0.01339 -0.32617,0.08789 l -2.10547,1.613281 c -0.0972,0.0745 -0.15512,0.180969 -0.16992,0.292969 -0.0148,0.112 0.0271,0.221855 0.0879,0.328125 l 1.625,2.839844 a 19.489632,19.489632 0 0 0 -3.53711,4.667968 l -3.08789,-0.908203 c -0.11392,-0.0448 -0.2335,-0.04505 -0.33789,-0.002 -0.10439,0.0432 -0.19137,0.127155 -0.23828,0.240234 l -1.01563,2.449219 c -0.0469,0.11308 -0.0451,0.233501 -0.002,0.337891 0.0432,0.10439 0.13447,0.178594 0.24024,0.240234 l 2.82617,1.646485 a 19.489632,19.489632 0 0 0 -0.75391,5.302734 19.489632,19.489632 0 0 0 0.0176,0.5 l -3.15039,0.761719 c -0.12105,0.0182 -0.2261,0.0784 -0.29492,0.167968 -0.0688,0.0896 -0.1019,0.204792 -0.0859,0.326172 l 0.34375,2.628907 c 0.0159,0.12138 0.0784,0.226101 0.16797,0.294921 0.0896,0.0688 0.2057,0.08544 0.32812,0.08594 l 3.28711,0.01367 a 19.489632,19.489632 0 0 0 2.26953,5.388672 l -2.3457,2.232422 c -0.0957,0.0763 -0.15512,0.180968 -0.16992,0.292968 -0.0148,0.112 0.0134,0.230965 0.0879,0.328125 l 1.61328,2.103516 c 0.0745,0.0972 0.18097,0.155122 0.29297,0.169922 0.11199,0.0148 0.2199,-0.02709 0.32617,-0.08789 l 2.83203,-1.61914 a 19.489632,19.489632 0 0 0 4.67383,3.539062 l -0.90625,3.080078 c -0.0448,0.11392 -0.0432,0.233491 0,0.337891 0.0432,0.10439 0.1252,0.193334 0.23828,0.240234 l 2.44922,1.015625 c 0.11307,0.0469 0.23545,0.0432 0.33984,0 0.1044,-0.0432 0.17665,-0.134464 0.23829,-0.240234 l 1.64453,-2.822266 a 19.489632,19.489632 0 0 0 5.29297,0.751953 19.489632,19.489632 0 0 0 0.51171,-0.01758 l 0.76172,3.150391 c 0.0182,0.12106 0.0784,0.224149 0.16797,0.292969 0.0896,0.0688 0.20675,0.1038 0.32813,0.08789 l 2.6289,-0.345703 c 0.12138,-0.0159 0.22415,-0.0784 0.29297,-0.167969 0.0688,-0.0896 0.0874,-0.205705 0.0879,-0.328125 l 0.0137,-3.289062 a 19.489632,19.489632 0 0 0 5.25586,-2.197266 l 2.38672,2.263672 c 0.61961,0.0819 0.18097,0.155122 0.29297,0.169922 0.11199,0.0148 0.22901,-0.01339 0.32617,-0.08789 l 2.10547,-1.613281 c 0.0972,-0.0745 0.15317,-0.180969 0.16797,-0.292969 0.0148,-0.112 -0.0249,-0.221221 -0.0879,-0.326171 l -1.67773,-2.794922 a 19.489632,19.489632 0 0 0 3.49023,-4.56836 l 3.20117,0.767578 c 0.57755,-0.23887 0.23546,0.0432 0.33985,0 0.1044,-0.0432 0.19138,-0.125201 0.23828,-0.238281 l 1.01562,-2.449219 c 0.0469,-0.11308 0.045,-0.235453 0.002,-0.339843 -0.0432,-0.10439 -0.13318,-0.178902 -0.24024,-0.238282 l -2.88086,-1.597656 a 19.489632,19.489632 0 0 0 0.76172,-5.330078 19.489632,19.489632 0 0 0 -0.0137,-0.365234 l 3.14648,-0.931641 c 0.38074,-0.49565 0.22415,-0.0784 0.29297,-0.167969 0.0688,-0.0896 0.1038,-0.204792 0.0879,-0.326172 l -0.3457,-2.630859 c -0.0159,-0.12138 -0.0784,-0.224149 -0.16797,-0.292969 -0.0896,-0.0688 -0.20573,-0.08804 -0.32812,-0.08594 l -3.27735,0.05664 a 19.489632,19.489632 0 0 0 -2.20312,-5.296875 l 2.27148,-2.394531 c 0.0819,-0.61961 0.15317,-0.180969 0.16797,-0.292969 0.0148,-0.11199 -0.0134,-0.230965 -0.0879,-0.328125 l -1.61133,-2.103515 c -0.0745,-0.0972 -0.18097,-0.155122 -0.29297,-0.169922 -0.11199,-0.0148 -0.22317,0.02489 -0.32812,0.08789 l -2.80274,1.683593 a 19.489632,19.489632 0 0 0 -4.5625,-3.488281 l 0.76953,-3.208984 c -0.23887,-0.57755 0.0432,-0.233501 0,-0.337891 -0.0432,-0.10439 -0.1252,-0.193334 -0.23828,-0.240234 l -2.44922,-1.015625 c -0.11307,-0.0469 -0.23349,-0.0432 -0.33789,0 -0.10439,0.0432 -0.18085,0.131231 -0.24023,0.238281 l -1.59961,2.884765 a 19.489632,19.489632 0 0 0 -5.33984,-0.763671 19.489632,19.489632 0 0 0 -0.35157,0.01172 l -0.93164,-3.144531 c -0.49565,-0.38073 -0.0803,-0.226102 -0.16992,-0.294922 -0.0896,-0.0688 -0.20479,-0.101887 -0.32617,-0.08594 z m 1.7793,7.625 a 15.379573,15.379573 0 0 1 15.3789,15.378906 15.379573,15.379573 0 0 1 -15.3789,15.378906 15.379573,15.379573 0 0 1 -15.37891,-15.378906 15.379573,15.379573 0 0 1 15.37891,-15.378906 z m 49.91015,18.033203 c -2.1338,-0.01066 -2.30295,1.778604 -3.44336,6.078125 -1.48296,-0.05272 -2.96779,-0.02044 -4.44726,0.0957 -1.44871,-4.737159 -1.95274,-6.390221 -3.79492,-5.958984 -2.09178,0.489672 -1.81958,2.280606 -1.9336,6.794922 -1.4157,0.326998 -2.81122,0.732399 -4.18164,1.214843 -2.54292,-4.258136 -3.42885,-5.740717 -5.11523,-4.880859 -1.93903,0.988672 -1.20784,2.668408 -0.21875,7.210937 -1.27953,0.668455 -2.5213,1.407121 -3.71875,2.212891 -3.72902,-3.361829 -5.00921,-4.530219 -6.375,-3.205078 -1.54088,1.495015 -0.38965,2.892417 1.83203,6.816406 -1.07627,0.99515 -2.0956,2.050518 -3.05274,3.160156 -4.42504,-2.366076 -5.94987,-3.192217 -6.95703,-1.578125 -1.14298,1.831771 0.32882,2.903355 3.46485,6.222657 -0.76672,1.206066 -1.46646,2.453625 -2.09571,3.736328 -4.41241,-0.942466 -6.0886,-1.624013 -7.05273,0.294922 -0.85265,1.697097 0.64112,2.570377 4.94726,5.107427 -0.43761,1.38951 -0.79744,2.80287 -1.07617,4.23242 -4.46348,0.22819 -6.25341,0.0171 -6.68555,2.11133 -0.38022,1.8428 1.27462,2.31292 5.98829,3.61914 -0.0563,1.43456 -0.0327,2.87088 0.0703,4.30273 -4.21708,1.47658 -5.99403,1.77927 -5.81836,3.91016 0.15259,1.85073 1.85709,1.85768 6.60156,1.78515 0.24821,1.09279 0.55892,2.16947 0.90039,3.23633 a 59.750519,59.750519 0 0 0 5.60547,-1.00976 c -2.21462,-6.65324 -2.69661,-14.02347 0.98242,-23.53711 0.68163,-1.7626 1.49026,-3.281737 2.41016,-4.470708 A 33.700947,33.700947 0 0 1 252.9414,83.683591 c 0.93356,-0.474026 2.21832,-0.839722 3.64453,-1.123047 a 33.700947,33.700947 0 0 1 3.10547,-0.636719 33.700947,33.700947 0 0 1 3.35351,-0.320312 33.700947,33.700947 0 0 1 13.50977,2.179687 59.750519,59.750519 0 0 0 2.01758,-10.271484 c -0.80264,0.791594 -1.62121,2.250978 -2.99024,4.40039 -1.38809,-0.429816 -2.79892,-0.782129 -4.22656,-1.054687 -0.31017,-5.009207 -0.40789,-6.740487 -2.31055,-6.75 z"
       id="path903" /><path
       inkscape:connector-curvature="0"
       style="color:#000000;font-style:normal;font-variant:normal;font-weight:normal;font-stretch:normal;font-size:medium;line-height:normal;font-family:sans-serif;font-variant-ligatures:normal;font-variant-position:normal;font-variant-caps:normal;font-variant-numeric:normal;font-variant-alternates:normal;font-feature-settings:normal;text-indent:0;text-align:start;text-decoration:none;text-decoration-line:none;text-decoration-style:solid;text-decoration-color:#000000;letter-spacing:normal;word-spacing:normal;text-transform:none;writing-mode:lr-tb;direction:ltr;text-orientation:mixed;dominant-baseline:auto;baseline-shift:baseline;text-anchor:start;white-space:normal;shape-padding:0;clip-rule:nonzero;display:inline;overflow:visible;visibility:visible;opacity:1;isolation:auto;mix-blend-mode:normal;color-interpolation:sRGB;color-interpolation-filters:linearRGB;solid-color:#000000;solid-opacity:1;vector-effect:none;fill:#ffffff;fill-opacity:0.05232556;fill-rule:nonzero;stroke:none;stroke-width:1.29999995;stroke-linecap:round;stroke-linejoin:round;stroke-miterlimit:4;stroke-dasharray:none;stroke-dashoffset:0;stroke-opacity:1;color-rendering:auto;image-rendering:auto;shape-rendering:auto;text-rendering:auto;enable-background:accumulate"
       d="m 217.16211,7.7734375 a 59.750519,59.750519 0 0 0 -1.49414,0.052734 c -0.30934,0.1614911 -0.521,0.2824949 -0.86719,0.4609375 a 0.65006498,0.65006498 0 0 0 -0.33203,0.7402344 c 0.35919,1.3889436 0.6394,2.7988666 0.83984,4.2187506 a 0.65006498,0.65006498 0 0 0 0.56055,0.552734 c 2.17484,0.283934 3.70535,0.429269 4.59375,0.710938 0.4442,0.140834 0.70864,0.30197 0.87695,0.488281 0.16832,0.186311 0.28015,0.424903 0.33399,0.859375 0.0446,0.360077 -0.002,0.540592 -0.10352,0.699219 -0.10154,0.158627 -0.30999,0.338033 -0.72461,0.523437 -0.82923,0.370809 -2.38786,0.697171 -4.68945,1.140625 a 0.65006498,0.65006498 0 0 0 -0.52734,0.634766 c -0.01,1.517367 -0.11027,3.033074 -0.30079,4.539062 a 0.65006498,0.65006498 0 0 0 0.41993,0.691407 c 2.03366,0.746442 3.47972,1.22422 4.27539,1.693359 0.39783,0.234569 0.61801,0.44939 0.74023,0.667969 0.12222,0.218578 0.1779,0.475521 0.13477,0.908203 -0.0367,0.368457 -0.12323,0.537107 -0.25977,0.669922 -0.13653,0.132814 -0.38609,0.261723 -0.8457,0.349609 -0.91923,0.175772 -2.56231,0.139517 -4.99219,0.06055 a 0.65006498,0.65006498 0 0 0 -0.64648,0.470703 c -0.41508,1.446977 -0.91671,2.869188 -1.5,4.257812 a 0.65006498,0.65006498 0 0 0 0.23242,0.789063 c 1.78302,1.216314 3.06346,2.030184 3.7168,2.677734 0.32666,0.323775 0.4862,0.584788 0.55078,0.826172 0.0646,0.241385 0.0556,0.503717 -0.0918,0.91211 -0.12602,0.349098 -0.25089,0.490543 -0.41602,0.585937 -0.16512,0.09539 -0.4396,0.16051 -0.9082,0.132813 -0.9372,-0.05539 -2.52682,-0.494396 -4.87305,-1.167969 a 0.65006498,0.65006498 0 0 0 -0.73437,0.285156 c -0.73038,1.193594 -1.52431,2.346918 -2.38086,3.453125 a 0.65006498,0.65006498 0 0 0 0,0.796875 c 1.34454,1.727842 2.3306,2.906747 2.76367,3.730469 0.21654,0.411861 0.29059,0.710463 0.2793,0.960937 -0.0113,0.250475 -0.10027,0.499251 -0.36719,0.845704 -0.22257,0.288888 -0.38176,0.386415 -0.5664,0.427734 -0.18467,0.04132 -0.46044,0.02106 -0.88868,-0.140625 -0.85648,-0.323367 -2.2054,-1.196577 -4.17187,-2.511719 a 0.65006498,0.65006498 0 0 0 -0.81445,0.07422 c -1.06548,1.03552 -2.1905,2.009009 -3.36915,2.914062 a 0.65006498,0.65006498 0 0 0 -0.20117,0.773438 c 0.89352,2.069604 1.57548,3.490056 1.80078,4.416015 0.11266,0.462981 0.1138,0.776891 0.041,1.019532 -0.0728,0.242641 -0.22207,0.463271 -0.57227,0.736328 -0.29376,0.229056 -0.47481,0.282861 -0.66601,0.27539 -0.1912,-0.0075 -0.45835,-0.101948 -0.8418,-0.376953 -0.7669,-0.550009 -1.88486,-1.775267 -3.52148,-3.607421 a 0.65006498,0.65006498 0 0 0 -0.79688,-0.136719 c -1.25626,0.689271 -2.55037,1.306531 -3.87695,1.851562 a 0.65006498,0.65006498 0 0 0 -0.39844,0.683594 c 0.28903,2.258422 0.55613,3.825288 0.51953,4.785156 -0.0183,0.479935 -0.10354,0.784113 -0.24023,0.998047 -0.13669,0.213934 -0.33982,0.384141 -0.75391,0.550781 -0.34229,0.137747 -0.52998,0.1412 -0.71094,0.08203 -0.18095,-0.05917 -0.41096,-0.221608 -0.70117,-0.585938 -0.58042,-0.728659 -1.30952,-2.192859 -2.35937,-4.369141 a 0.65006498,0.65006498 0 0 0 -0.7461,-0.347656 c -1.42702,0.36126 -2.87282,0.640602 -4.33203,0.835938 a 0.65006498,0.65006498 0 0 0 -0.56054,0.582031 c -0.21696,2.250899 -0.30564,3.827862 -0.55469,4.75 -0.12453,0.461069 -0.27437,0.73644 -0.45508,0.914063 -0.18071,0.177621 -0.41821,0.298802 -0.85742,0.36914 -0.37425,0.05993 -0.56006,0.02012 -0.72461,-0.08008 -0.16455,-0.100194 -0.3557,-0.315256 -0.56055,-0.751953 -0.4097,-0.873395 -0.80116,-2.526513 -1.36719,-4.992188 A 0.65006498,0.65006498 0 0 0 176.55469,56.625 c -1.46079,-0.02314 -2.9186,-0.129198 -4.36719,-0.318359 a 0.65006498,0.65006498 0 0 0 -0.69922,0.433593 c -0.77085,2.253859 -1.31481,3.775004 -1.80078,4.556641 -0.24299,0.390819 -0.45105,0.574808 -0.62305,0.654297 -0.17199,0.07949 -0.35931,0.10086 -0.71289,0.0059 -0.43091,-0.115832 -0.65315,-0.261123 -0.81445,-0.457031 -0.1613,-0.195908 -0.28176,-0.488992 -0.35742,-0.962891 -0.15132,-0.947798 -0.0734,-2.533572 -0.0566,-4.808593 a 0.65006498,0.65006498 0 0 0 -0.47071,-0.628907 c -1.57056,-0.452487 -3.11018,-1.002079 -4.60937,-1.65039 a 0.65006498,0.65006498 0 0 0 -0.55664,1.173828 l 0.10547,0.05469 c -0.40982,0.583602 -0.76216,1.074613 -1.11719,1.566407 a 59.750519,59.750519 0 0 0 -0.21289,1.408203 c 0.62981,-0.787922 1.36347,-1.831234 2.3164,-3.197266 l -0.79296,-0.410156 c 1.52488,0.659419 3.09067,1.219631 4.6875,1.679687 -0.0332,4.519531 -0.36455,6.301474 1.71093,6.859375 1.79693,0.483009 2.37735,-1.122548 3.91993,-5.632812 1.47306,0.192356 2.95588,0.300683 4.4414,0.324219 1.13174,4.929958 1.50356,6.624156 3.38867,6.322265 2.11644,-0.338939 1.97912,-2.141206 2.41016,-6.613281 1.48385,-0.198634 2.95506,-0.48223 4.40625,-0.849609 2.10042,4.354046 2.86289,5.892256 4.59961,5.193359 1.99446,-0.802619 1.45113,-2.533028 0.87695,-7.019531 1.34859,-0.554073 2.66541,-1.18164 3.94336,-1.882813 3.27363,3.664737 4.42723,4.946431 5.91406,3.78711 1.68798,-1.316155 0.70309,-2.829243 -1.07226,-6.941407 1.19871,-0.920464 2.34231,-1.909876 3.42578,-2.96289 3.93565,2.632091 5.37162,3.549729 6.50391,2.080078 1.28955,-1.673777 -0.005,-2.897585 -2.67774,-6.332031 0.87132,-1.125282 1.67926,-2.298125 2.42188,-3.511719 4.69323,1.347372 6.34989,1.813417 6.98828,0.04492 0.71288,-1.974901 -0.87472,-2.755419 -4.41992,-5.173828 0.59314,-1.412058 1.10317,-2.858212 1.52539,-4.330078 4.86084,0.157982 6.57944,0.201678 6.76562,-1.666016 0.20859,-2.092684 -1.52898,-2.459297 -5.57226,-3.94336 0.19372,-1.531441 0.29669,-3.073704 0.30664,-4.617187 4.60682,-0.887608 6.26628,-1.248147 6.03906,-3.082031 -0.26005,-2.098563 -2.04219,-2.058657 -6.36524,-2.623047 -0.2039,-1.444383 -0.49021,-2.876703 -0.85546,-4.2890626 0.81818,-0.4217281 1.44513,-0.7563726 2.06445,-1.0917969 z m -6.57227,0.6035156 a 59.750519,59.750519 0 0 0 -0.68359,0.082031 33.700947,33.700947 0 0 1 1.57422,8.2558599 33.700947,33.700947 0 0 1 -31.62109,35.660156 33.700947,33.700947 0 0 1 -17.39649,-3.703125 59.750519,59.750519 0 0 0 -0.23242,0.636719 c 5.38903,2.754242 11.47448,4.08367 17.66797,3.714844 18.92992,-1.136277 33.36701,-17.417749 32.23047,-36.347657 -0.17284,-2.878804 -0.70444,-5.657292 -1.53907,-8.2988279 z m 6.76563,36.0722659 -2.62891,0.34375 c -0.12138,0.0159 -0.22415,0.08029 -0.29297,0.169922 -0.0688,0.0896 -0.09,0.203772 -0.0879,0.326171 l 0.0566,3.277344 a 19.489632,19.489632 0 0 0 -5.42968,2.275391 l -2.24024,-2.355469 c -0.0763,-0.0958 -0.18097,-0.155122 -0.29297,-0.169922 -0.11199,-0.0148 -0.229,0.01339 -0.32617,0.08789 l -2.10547,1.613281 c -0.0972,0.0745 -0.15512,0.180969 -0.16992,0.292969 -0.0148,0.112 0.0271,0.221855 0.0879,0.328125 l 1.625,2.839844 a 19.489632,19.489632 0 0 0 -3.53711,4.667968 l -3.08789,-0.908203 c -0.11392,-0.0448 -0.2335,-0.04505 -0.33789,-0.002 -0.10439,0.0432 -0.19137,0.127155 -0.23828,0.240234 l -1.01563,2.449219 c -0.0469,0.11308 -0.0451,0.233501 -0.002,0.337891 0.0432,0.10439 0.13447,0.178594 0.24024,0.240234 l 2.82617,1.646485 a 19.489632,19.489632 0 0 0 -0.75391,5.302734 19.489632,19.489632 0 0 0 0.0176,0.5 l -3.15039,0.761719 c -0.12105,0.0182 -0.2261,0.0784 -0.29492,0.167968 -0.0688,0.0896 -0.1019,0.204792 -0.0859,0.326172 l 0.34375,2.628907 c 0.0159,0.12138 0.0784,0.226101 0.16797,0.294921 0.0896,0.0688 0.2057,0.08544 0.32812,0.08594 l 3.28711,0.01367 a 19.489632,19.489632 0 0 0 2.26953,5.388672 l -2.3457,2.232422 c -0.0957,0.0763 -0.15512,0.180968 -0.16992,0.292968 -0.0148,0.112 0.0134,0.230965 0.0879,0.328125 l 1.61328,2.103516 c 0.0745,0.0972 0.18097,0.155122 0.29297,0.169922 0.11199,0.0148 0.2199,-0.02709 0.32617,-0.08789 l 2.83203,-1.61914 a 19.489632,19.489632 0 0 0 4.67383,3.539062 l -0.90625,3.080078 c -0.0448,0.11392 -0.0432,0.233491 0,0.337891 0.0432,0.10439 0.1252,0.193334 0.23828,0.240234 l 2.44922,1.015625 c 0.11307,0.0469 0.23545,0.0432 0.33984,0 0.1044,-0.0432 0.17665,-0.134464 0.23829,-0.240234 l 1.64453,-2.822266 a 19.489632,19.489632 0 0 0 5.29297,0.751953 19.489632,19.489632 0 0 0 0.51171,-0.01758 l 0.76172,3.150391 c 0.0182,0.12106 0.0784,0.224149 0.16797,0.292969 0.0896,0.0688 0.20675,0.1038 0.32813,0.08789 l 2.6289,-0.345703 c 0.12138,-0.0159 0.22415,-0.0784 0.29297,-0.167969 0.0688,-0.0896 0.0874,-0.205705 0.0879,-0.328125 l 0.0137,-3.289062 a 19.489632,19.489632 0 0 0 5.25586,-2.197266 l 2.38672,2.263672 c 0.61961,0.0819 0.18097,0.155122 0.29297,0.169922 0.11199,0.0148 0.22901,-0.01339 0.32617,-0.08789 l 2.10547,-1.613281 c 0.0972,-0.0745 0.15317,-0.180969 0.16797,-0.292969 0.0148,-0.112 -0.0249,-0.221221 -0.0879,-0.326171 l -1.67773,-2.794922 a 19.489632,19.489632 0 0 0 3.49023,-4.56836 l 3.20117,0.767578 c 0.57755,-0.23887 0.23546,0.0432 0.33985,0 0.1044,-0.0432 0.19138,-0.125201 0.23828,-0.238281 l 1.01562,-2.449219 c 0.0469,-0.11308 0.045,-0.235453 0.002,-0.339843 -0.0432,-0.10439 -0.13318,-0.178902 -0.24024,-0.238282 l -2.88086,-1.597656 a 19.489632,19.489632 0 0 0 0.76172,-5.330078 19.489632,19.489632 0 0 0 -0.0137,-0.365234 l 3.14648,-0.931641 c 0.38074,-0.49565 0.22415,-0.0784 0.29297,-0.167969 0.0688,-0.0896 0.1038,-0.204792 0.0879,-0.326172 l -0.3457,-2.630859 c -0.0159,-0.12138 -0.0784,-0.224149 -0.16797,-0.292969 -0.0896,-0.0688 -0.20573,-0.08804 -0.32812,-0.08594 l -3.27735,0.05664 a 19.489632,19.489632 0 0 0 -2.20312,-5.296875 l 2.27148,-2.394531 c 0.0819,-0.61961 0.15317,-0.180969 0.16797,-0.292969 0.0148,-0.11199 -0.0134,-0.230965 -0.0879,-0.328125 l -0.18555,-0.240234 c -0.001,3.2e-4 -0.003,-3.21e-4 -0.004,0 8.7e-4,-5.25e-4 0.003,-0.0011 0.004,-0.002 l -1.42578,-1.861328 c -0.0745,-0.0972 -0.18097,-0.155122 -0.29297,-0.169922 -0.11199,-0.0148 -0.22317,0.02489 -0.32812,0.08789 l -2.80274,1.683593 a 19.489632,19.489632 0 0 0 -4.5625,-3.488281 l 0.76953,-3.208984 c -0.23887,-0.57755 0.0432,-0.233501 0,-0.337891 -0.0432,-0.10439 -0.1252,-0.193334 -0.23828,-0.240234 l -0.2832,-0.117188 -2.16602,-0.898437 c -0.11307,-0.0469 -0.23349,-0.0432 -0.33789,0 -0.10439,0.0432 -0.18085,0.131231 -0.24023,0.238281 l -1.59961,2.884765 a 19.489632,19.489632 0 0 0 -5.33984,-0.763671 19.489632,19.489632 0 0 0 -0.35157,0.01172 l -0.93164,-3.144531 c -0.49565,-0.38073 -0.0803,-0.226102 -0.16992,-0.294922 -0.0896,-0.0688 -0.20479,-0.101887 -0.32617,-0.08594 z m -0.14258,0.673828 c 0.0196,0.02015 0.044,0.04221 0.0645,0.06055 l 0.88282,2.976562 a 0.65006498,0.65006498 0 0 0 0.65039,0.464844 c 0.10739,-0.0046 0.21481,-0.009 0.32226,-0.01172 0.001,4e-6 0.003,-4e-6 0.004,0 1.74517,0.006 3.4814,0.254507 5.1582,0.738281 a 0.65006498,0.65006498 0 0 0 0.74805,-0.310546 l 1.5332,-2.765625 2.0625,0.855468 c 0.007,0.0274 0.0189,0.05785 0.0274,0.08398 l -0.72852,3.039062 a 0.65006498,0.65006498 0 0 0 0.31836,0.720703 c 1.62856,0.90002 3.11463,2.037437 4.41016,3.373047 a 0.65006498,0.65006498 0 0 0 0.80078,0.103516 l 2.6875,-1.615234 1.35937,1.77539 c -0.008,0.02761 -0.0138,0.06053 -0.0195,0.08789 l -2.14844,2.265625 a 0.65006498,0.65006498 0 0 0 -0.0859,0.783203 c 0.95856,1.592349 1.67547,3.316694 2.1289,5.119141 a 0.65006498,0.65006498 0 0 0 0.64258,0.492187 l 3.14258,-0.05469 0.29101,2.21289 c -0.0205,0.01995 -0.042,0.04568 -0.0605,0.06641 l -2.97657,0.88086 a 0.65006498,0.65006498 0 0 0 -0.46484,0.654297 c 0.005,0.112417 0.008,0.223443 0.0117,0.335937 -0.006,1.741925 -0.25406,3.47458 -0.73633,5.148438 a 0.65006498,0.65006498 0 0 0 0.31055,0.748046 l 2.76172,1.53125 -0.85547,2.064454 c -0.0271,0.0069 -0.0581,0.01698 -0.084,0.02539 l -3.03125,-0.726562 a 0.65006498,0.65006498 0 0 0 -0.7207,0.318359 c -0.90013,1.630689 -2.03827,3.118888 -3.375,4.416016 a 0.65006498,0.65006498 0 0 0 -0.10352,0.800781 l 1.60938,2.679688 -1.77344,1.357421 c -0.0276,-0.0078 -0.0605,-0.01377 -0.0879,-0.01953 l -2.25781,-2.140625 a 0.65006498,0.65006498 0 0 0 -0.7832,-0.08594 c -1.58036,0.953012 -3.29167,1.66771 -5.08008,2.123046 a 0.65006498,0.65006498 0 0 0 -0.49024,0.628907 l -0.0137,3.166015 -2.25781,0.296875 -0.72852,-3.013671 a 0.65006498,0.65006498 0 0 0 -0.66211,-0.496094 c -0.15959,0.0076 -0.31878,0.01211 -0.47851,0.01563 h -0.002 c -1.73012,-0.0063 -3.44991,-0.250577 -5.11329,-0.726563 a 0.65006498,0.65006498 0 0 0 -0.74218,0.296875 l -1.58399,2.71875 -2.10156,-0.871093 0.86719,-2.947266 a 0.65006498,0.65006498 0 0 0 -0.3125,-0.75586 c -1.66987,-0.90602 -3.1927,-2.0583 -4.51758,-3.419921 a 0.65006498,0.65006498 0 0 0 -0.78906,-0.111329 l -2.72657,1.558594 -1.38476,-1.80664 2.24414,-2.136719 a 0.65006498,0.65006498 0 0 0 0.10742,-0.810547 c -0.98906,-1.616121 -1.72818,-3.372223 -2.19336,-5.208984 a 0.65006498,0.65006498 0 0 0 -0.6289,-0.490235 l -3.16407,-0.01367 -0.29492,-2.255859 3.01367,-0.728516 a 0.65006498,0.65006498 0 0 0 0.4961,-0.662109 c -0.007,-0.155819 -0.012,-0.310841 -0.0156,-0.466797 v -0.002 c 0.006,-1.73337 0.25103,-3.456722 0.72852,-5.123047 a 0.65006498,0.65006498 0 0 0 -0.29688,-0.742187 l -2.72265,-1.585938 0.87304,-2.101562 2.95313,0.86914 a 0.65006498,0.65006498 0 0 0 0.7539,-0.3125 c 0.90593,-1.667733 2.05943,-3.18843 3.41993,-4.511719 a 0.65006498,0.65006498 0 0 0 0.11132,-0.789062 l -1.5664,-2.736328 1.80859,-1.384766 2.14453,2.253906 a 0.65006498,0.65006498 0 0 0 0.81055,0.107422 c 1.62807,-0.994702 3.39723,-1.736041 5.24805,-2.199218 a 0.65006498,0.65006498 0 0 0 0.49218,-0.642578 l -0.0547,-3.142579 z m 1.92188,6.300781 c -8.84465,3.81e-4 -16.02892,7.184647 -16.0293,16.029297 3.8e-4,8.84465 7.18465,16.028916 16.0293,16.029297 8.84464,-3.87e-4 16.02891,-7.184651 16.02929,-16.029297 -3.8e-4,-8.844646 -7.18465,-16.02891 -16.02929,-16.029297 z m 0,0.650391 a 15.379573,15.379573 0 0 1 15.3789,15.378906 15.379573,15.379573 0 0 1 -15.3789,15.378906 15.379573,15.379573 0 0 1 -15.37891,-15.378906 15.379573,15.379573 0 0 1 15.37891,-15.378906 z m 49.91015,18.033203 c -2.1338,-0.01066 -2.30295,1.778604 -3.44336,6.078125 -1.48296,-0.05272 -2.96779,-0.02044 -4.44726,0.0957 -1.44871,-4.737159 -1.95274,-6.390221 -3.79492,-5.958984 -2.09178,0.489672 -1.81958,2.280606 -1.9336,6.794922 -1.4157,0.326998 -2.81122,0.732399 -4.18164,1.214843 -2.54292,-4.258136 -3.42885,-5.740717 -5.11523,-4.880859 -1.93903,0.988672 -1.20784,2.668408 -0.21875,7.210937 -1.27953,0.668455 -2.5213,1.407121 -3.71875,2.212891 -3.72902,-3.361829 -5.00921,-4.530219 -6.375,-3.205078 -1.54088,1.495015 -0.38965,2.892417 1.83203,6.816406 -1.07627,0.99515 -2.0956,2.050518 -3.05274,3.160156 -4.42504,-2.366076 -5.94987,-3.192217 -6.95703,-1.578125 -1.14298,1.831771 0.32882,2.903355 3.46485,6.222657 -0.76672,1.206066 -1.46646,2.453625 -2.09571,3.736328 -4.41241,-0.942466 -6.0886,-1.624013 -7.05273,0.294922 -0.85265,1.697097 0.64112,2.570377 4.94726,5.107427 -0.43761,1.38951 -0.79744,2.80287 -1.07617,4.23242 -4.46348,0.22819 -6.25341,0.0171 -6.68555,2.11133 -0.38022,1.8428 1.27462,2.31292 5.98829,3.61914 -0.0563,1.43456 -0.0327,2.87088 0.0703,4.30273 -4.21708,1.47658 -5.99403,1.77927 -5.81836,3.91016 0.15259,1.85073 1.85709,1.85769 6.60156,1.78515 0.24821,1.09279 0.55892,2.16947 0.90039,3.23633 a 59.750519,59.750519 0 0 0 0.65821,-0.0781 c -0.35212,-1.08815 -0.67043,-2.18709 -0.92383,-3.30274 a 0.65006498,0.65006498 0 0 0 -0.64453,-0.50586 c -2.37073,0.0363 -3.97874,0.0371 -4.875,-0.15625 -0.44813,-0.0967 -0.6916,-0.23032 -0.82422,-0.36523 -0.13263,-0.13491 -0.21414,-0.30206 -0.24414,-0.66602 -0.0364,-0.44204 0.0235,-0.70021 0.15234,-0.91796 0.12886,-0.21776 0.3616,-0.43152 0.77734,-0.66211 0.83149,-0.4612 2.33274,-0.92094 4.45508,-1.66407 a 0.65006498,0.65006498 0 0 0 0.4336,-0.66015 c -0.10128,-1.40791 -0.12368,-2.82001 -0.0684,-4.23047 a 0.65006498,0.65006498 0 0 0 -0.47657,-0.65235 c -2.35636,-0.65295 -3.94286,-1.11135 -4.77148,-1.55468 -0.41431,-0.22167 -0.61601,-0.41988 -0.70703,-0.58789 -0.091,-0.16802 -0.12195,-0.3548 -0.0469,-0.71875 0.0896,-0.43447 0.22127,-0.66338 0.40625,-0.83594 0.18499,-0.17256 0.46576,-0.312 0.92969,-0.41602 0.92786,-0.20802 2.49971,-0.22695 4.7461,-0.34179 a 0.65006498,0.65006498 0 0 0 0.60546,-0.52344 c 0.27403,-1.4054 0.6263,-2.79568 1.05664,-4.16211 a 0.65006498,0.65006498 0 0 0 -0.28906,-0.75586 c -2.15329,-1.26865 -3.59632,-2.13467 -4.29687,-2.78516 -0.35028,-0.325231 -0.49567,-0.570992 -0.54102,-0.757811 -0.0453,-0.186819 -0.0283,-0.376632 0.14063,-0.712891 0.20018,-0.398427 0.38726,-0.586604 0.61132,-0.705078 0.22407,-0.118473 0.53516,-0.177445 1.01368,-0.15625 0.95704,0.04239 2.48987,0.43575 4.71093,0.910156 a 0.65006498,0.65006498 0 0 0 0.72071,-0.347656 c 0.61873,-1.261256 1.30664,-2.487922 2.06054,-3.673828 a 0.65006498,0.65006498 0 0 0 -0.0762,-0.796875 c -1.57889,-1.671168 -2.72913,-2.784574 -3.27148,-3.585938 -0.27118,-0.400681 -0.38219,-0.699339 -0.39844,-0.953124 -0.0163,-0.253789 0.0457,-0.511936 0.2832,-0.892579 0.19962,-0.319902 0.35166,-0.433796 0.53516,-0.492187 0.1835,-0.05839 0.47198,-0.06054 0.93359,0.07031 0.92323,0.261698 2.41798,1.045284 4.63086,2.228516 a 0.65006498,0.65006498 0 0 0 0.79883,-0.148438 c 0.9412,-1.091155 1.94367,-2.128903 3.00195,-3.107421 a 0.65006498,0.65006498 0 0 0 0.125,-0.796875 c -1.11825,-1.975095 -1.95612,-3.320161 -2.2832,-4.220704 -0.16354,-0.450271 -0.19826,-0.764046 -0.15234,-1.013671 0.0459,-0.249626 0.17036,-0.484576 0.49023,-0.794922 0.27076,-0.262705 0.44471,-0.33702 0.63672,-0.34961 0.19201,-0.01259 0.47205,0.05495 0.88867,0.292969 0.83325,0.476042 2.09609,1.596123 3.96094,3.277344 a 0.65006498,0.65006498 0 0 0 0.79883,0.05664 c 1.17742,-0.792291 2.39793,-1.518406 3.65625,-2.175781 a 0.65006498,0.65006498 0 0 0 0.33398,-0.714843 c -0.49808,-2.287526 -0.91817,-3.856679 -0.97461,-4.835938 -0.0282,-0.48963 0.0298,-0.8078 0.14649,-1.035156 0.11673,-0.227356 0.30335,-0.417222 0.70703,-0.623047 0.33373,-0.170167 0.52219,-0.188438 0.70898,-0.144531 0.18679,0.04391 0.43378,0.187538 0.75977,0.533203 0.65197,0.69133 1.52152,2.118996 2.79297,4.248047 a 0.65006498,0.65006498 0 0 0 0.77539,0.279296 c 1.34763,-0.474418 2.71914,-0.873746 4.11133,-1.195312 a 0.65006498,0.65006498 0 0 0 0.5039,-0.617188 c 0.0574,-2.272378 0.0307,-3.857257 0.21289,-4.798828 0.0911,-0.470785 0.22306,-0.758798 0.39063,-0.949218 0.16757,-0.190421 0.39384,-0.328026 0.82812,-0.429688 0.36441,-0.0853 0.5521,-0.05799 0.72266,0.0293 0.17056,0.08729 0.37389,0.285708 0.60742,0.699219 0.46707,0.827021 0.97094,2.418469 1.69531,4.787109 a 0.65006498,0.65006498 0 0 0 0.67188,0.458985 c 1.45501,-0.114222 2.91491,-0.14559 4.37304,-0.09375 a 0.65006498,0.65006498 0 0 0 0.65235,-0.484376 c 0.57389,-2.16366 0.91541,-3.690238 1.31055,-4.550781 0.19757,-0.430271 0.39065,-0.675533 0.59765,-0.820312 0.207,-0.144779 0.45978,-0.224866 0.90235,-0.222657 0.37712,0.0019 0.5551,0.07177 0.70117,0.197266 0.14606,0.125496 0.29861,0.368499 0.42969,0.830078 0.26213,0.923159 0.38004,2.60827 0.53515,5.113282 a 0.65006498,0.65006498 0 0 0 0.52735,0.597656 c 1.40377,0.268001 2.79116,0.614417 4.15624,1.037109 a 0.65006498,0.65006498 0 0 0 0.74024,-0.271484 c 0.98075,-1.539796 1.68358,-2.723264 2.25586,-3.523438 a 59.750519,59.750519 0 0 0 0.18555,-1.226562 c -0.80264,0.791594 -1.62121,2.250978 -2.99024,4.40039 -1.38809,-0.429816 -2.79892,-0.782129 -4.22656,-1.054687 -0.31017,-5.009207 -0.40789,-6.740487 -2.31055,-6.75 z m -4.38476,10.8125 c -0.5459,-9.81e-4 -1.09392,0.01006 -1.64454,0.03516 -1.14411,0.05178 -2.28472,0.160427 -3.41796,0.326172 a 0.65006498,0.65006498 0 0 0 -0.006,0 c -1.05362,0.164824 -2.0991,0.380503 -3.13282,0.642578 -1.44975,0.288002 -2.76556,0.656508 -3.79101,1.173828 -7.18343,2.649185 -13.27456,7.619518 -17.30859,14.126953 -0.96735,1.253235 -1.79754,2.819777 -2.49415,4.621087 -3.71575,9.60862 -3.2382,17.16423 -1.00781,23.91407 a 59.750519,59.750519 0 0 0 0.63086,-0.14258 c -2.21462,-6.65324 -2.69661,-14.02347 0.98242,-23.53711 0.68163,-1.7626 1.49026,-3.28173 2.41016,-4.470701 a 33.700947,33.700947 0 0 1 17.06055,-13.925781 c 0.93356,-0.474026 2.21832,-0.839722 3.64453,-1.123047 a 33.700947,33.700947 0 0 1 3.10547,-0.636719 33.700947,33.700947 0 0 1 3.35351,-0.320312 33.700947,33.700947 0 0 1 13.50977,2.179687 59.750519,59.750519 0 0 0 0.16601,-0.648437 c -3.77075,-1.427306 -7.84,-2.207262 -12.06054,-2.214844 z"
       id="rect905" /></g><circle
     r="59.750519"
     cy="65.332527"
     cx="64.984589"
     id="circle1061"
     style="opacity:1;fill:url(#linearGradient1069);fill-opacity:1;stroke:none;stroke-width:2.67193675;stroke-linecap:round;stroke-linejoin:round;stroke-miterlimit:4;stroke-dasharray:none;stroke-opacity:0.45930236" /><circle
     style="opacity:1;fill:url(#linearGradient1075);fill-opacity:1;stroke:none;stroke-width:2.67193675;stroke-linecap:round;stroke-linejoin:round;stroke-miterlimit:4;stroke-dasharray:none;stroke-opacity:0.45930236"
     id="circle1073"
     cx="64.984589"
     cy="65.332527"
     r="59.750519" /><path
     inkscape:connector-curvature="0"
     id="path924"
     d="m 64.984592,0.81691046 c -35.58964,0 -64.51562034,28.92598254 -64.51562034,64.51562554 0,35.589644 28.92598034,64.515634 64.51562034,64.515614 35.589638,0 64.515618,-28.92597 64.515618,-64.515614 0,-35.589643 -28.92598,-64.51562554 -64.515618,-64.51562554 z m 0,7.00000004 c 31.80656,0 57.515618,25.7090635 57.515618,57.5156255 0,31.806562 -25.709058,57.515614 -57.515618,57.515614 -31.80656,2e-5 -57.5156203,-25.709052 -57.5156203,-57.515614 0,-31.806562 25.7090603,-57.5156255 57.5156203,-57.5156255 z"
     style="color:#000000;font-style:normal;font-variant:normal;font-weight:normal;font-stretch:normal;font-size:medium;line-height:normal;font-family:sans-serif;font-variant-ligatures:normal;font-variant-position:normal;font-variant-caps:normal;font-variant-numeric:normal;font-variant-alternates:normal;font-feature-settings:normal;text-indent:0;text-align:start;text-decoration:none;text-decoration-line:none;text-decoration-style:solid;text-decoration-color:#000000;letter-spacing:normal;word-spacing:normal;text-transform:none;writing-mode:lr-tb;direction:ltr;text-orientation:mixed;dominant-baseline:auto;baseline-shift:baseline;text-anchor:start;white-space:normal;shape-padding:0;clip-rule:nonzero;display:inline;overflow:visible;visibility:visible;opacity:1;isolation:auto;mix-blend-mode:normal;color-interpolation:sRGB;color-interpolation-filters:linearRGB;solid-color:#000000;solid-opacity:1;vector-effect:none;fill:url(#linearGradient942);fill-opacity:1;fill-rule:nonzero;stroke:none;stroke-width:7;stroke-linecap:round;stroke-linejoin:round;stroke-miterlimit:4;stroke-dasharray:none;stroke-dashoffset:0;stroke-opacity:1;color-rendering:auto;image-rendering:auto;shape-rendering:auto;text-rendering:auto;enable-background:accumulate" /><path
     inkscape:connector-curvature="0"
     id="path946"
     d="m 64.984592,6.5825305 c -32.43489,0 -58.7500003,26.3151165 -58.7500003,58.7500005 0,32.43488 26.3151103,58.749999 58.7500003,58.749999 32.43488,0 58.749998,-26.315119 58.749998,-58.749999 0,-32.434884 -26.315118,-58.7500005 -58.749998,-58.7500005 z m 0,1.234375 c 31.80656,0 57.515628,25.7090635 57.515618,57.5156255 0,31.80656 -25.709058,57.515629 -57.515618,57.515619 -31.80657,2e-5 -57.5156303,-25.709059 -57.5156303,-57.515619 0,-19.080245 9.2517603,-35.965723 23.5214803,-46.423828 9.51776,-6.975442 21.26783,-11.0917975 33.99415,-11.0917975 z"
     style="color:#000000;font-style:normal;font-variant:normal;font-weight:normal;font-stretch:normal;font-size:medium;line-height:normal;font-family:sans-serif;font-variant-ligatures:normal;font-variant-position:normal;font-variant-caps:normal;font-variant-numeric:normal;font-variant-alternates:normal;font-feature-settings:normal;text-indent:0;text-align:start;text-decoration:none;text-decoration-line:none;text-decoration-style:solid;text-decoration-color:#000000;letter-spacing:normal;word-spacing:normal;text-transform:none;writing-mode:lr-tb;direction:ltr;text-orientation:mixed;dominant-baseline:auto;baseline-shift:baseline;text-anchor:start;white-space:normal;shape-padding:0;clip-rule:nonzero;display:inline;overflow:visible;visibility:visible;opacity:1;isolation:auto;mix-blend-mode:normal;color-interpolation:sRGB;color-interpolation-filters:linearRGB;solid-color:#000000;solid-opacity:1;vector-effect:none;fill:url(#linearGradient967);fill-opacity:1;fill-rule:nonzero;stroke:none;stroke-width:2;stroke-linecap:round;stroke-linejoin:round;stroke-miterlimit:4;stroke-dasharray:none;stroke-dashoffset:0;stroke-opacity:1;color-rendering:auto;image-rendering:auto;shape-rendering:auto;text-rendering:auto;enable-background:accumulate" /><g
     transform="translate(-153.6097,-4.2680194)"
     id="g899"><path
       style="fill:url(#linearGradient869);fill-opacity:1;stroke:none;stroke-width:0.30000001;stroke-linecap:butt;stroke-linejoin:miter;stroke-miterlimit:4;stroke-dasharray:none;stroke-opacity:1"
       d="m 215.18749,34.458946 -12.5,2.75 6.10157,11.728516 c -2.67203,-9.836922 3.45673,-11.205341 9.33593,-11.232422 2.37739,-0.01095 4.83635,0.350331 6.92774,0.798828 5.26786,1.039838 10.56013,3.869163 14.1543,6.859375 3.23994,2.729058 6.01428,6.098599 7.9043,9.792969 1.26693,2.476438 1.96219,4.935243 1.62695,7.193359 -0.356,2.397928 -2.82064,4.304094 -7.37891,5.501953 l 10.70313,-2.392578 -1.125,-9.75 -6,-10 -9.875,-8.75 z m -17.01953,8.414062 -7.88086,5.84961 -5.66015,10.197266 -2.64063,12.925781 7.77344,18.46289 8.63086,9.451172 7.10547,-11.148437 c -7.18301,7.232507 -11.43148,2.607293 -14.39453,-2.470703 -1.19818,-2.053403 -2.1142,-4.362993 -2.77149,-6.398438 -1.7334,-5.082022 -1.92923,-11.077798 -1.13672,-15.685547 0.74346,-4.170405 2.27489,-8.26015 4.5293,-11.74414 1.51119,-2.335416 3.29281,-4.167126 5.41602,-5.00586 2.25466,-0.890664 5.13661,0.290024 8.45312,3.638672 z m 43.4961,28.78125 c 9.85504,2.604416 7.97474,8.596094 5.05859,13.701172 -1.17921,2.064353 -2.72214,4.014614 -4.15625,5.601563 -3.53445,4.042183 -8.62894,7.210588 -13.01562,8.828125 -3.98341,1.441342 -8.29112,2.159602 -12.43555,1.949222 -2.77813,-0.14102 -5.255,-0.77007 -7.04297,-2.189456 -1.89867,-1.507265 -2.31793,-4.594117 -1.07617,-9.140626 l -3.27735,10.466792 9.00586,3.9004 11.66016,-0.19727 12.51563,-4.17578 12.10156,-15.962892 3.86914,-12.201171 z"
       id="path856"
       inkscape:connector-curvature="0" /><path
       inkscape:connector-curvature="0"
       id="path842"
       d="m 218.5011,24.38493 c -2.14068,0.181132 -2.13093,1.993306 -2.89844,6.443359 a 38.98402,38.878212 0 0 0 -4.31445,0.595703 c -1.8985,-4.581908 -2.56025,-6.178463 -4.35351,-5.572266 -2.06191,0.69701 -1.58157,2.465567 -1.26172,7.103516 a 38.98402,38.878212 0 0 0 -4,1.650391 c -3.20204,-3.867092 -4.30022,-5.208761 -5.84375,-4.095704 -1.7414,1.255742 -0.80489,2.805061 0.82422,7.009766 a 38.98402,38.878212 0 0 0 -3.47852,2.683594 c -4.03511,-2.982807 -5.4237,-4.021276 -6.6543,-2.570313 -1.39655,1.646643 -0.0961,2.921141 2.52539,6.660157 a 38.98402,38.878212 0 0 0 -2.61523,3.392578 c -4.22907,-1.572415 -5.78926,-2.489292 -7.02149,-0.730469 -1.08976,1.555502 0.26163,2.636762 4.1543,5.771484 a 38.98402,38.878212 0 0 0 -1.67773,4.03125 c -4.44938,-0.421551 -6.19059,-0.890304 -6.92188,1.119141 -0.64346,1.768166 0.92599,2.473205 5.40039,4.449219 a 38.98402,38.878212 0 0 0 -0.55468,4.267578 c -4.38664,0.849376 -6.189,0.891553 -6.32422,3.02539 -0.11743,1.8533 1.5686,2.106323 6.27343,2.722657 a 38.98402,38.878212 0 0 0 0.625,4.537109 c -4.03071,1.766189 -5.76468,2.217812 -5.42773,4.314453 0.3001,1.867317 2.0208,1.707262 6.94922,1.25 a 38.98402,38.878212 0 0 0 1.74219,4.197266 c -3.43654,2.663629 -4.99314,3.530701 -4.15821,5.470703 0.75058,1.743957 2.38096,1.161553 7.08985,-0.501953 a 38.98402,38.878212 0 0 0 2.54687,3.289062 c -2.5918,3.80583 -3.88611,5.094156 -2.46289,6.728519 1.24135,1.42549 2.6183,0.38074 6.55469,-2.609378 a 38.98402,38.878212 0 0 0 3.48633,2.687498 c -1.57759,4.39171 -2.52708,5.96415 -0.73047,7.19923 1.57347,1.08169 2.63871,-0.29087 5.77734,-4.25977 l -0.76758,-0.45704 a 38.98402,38.878212 0 0 0 4.57813,1.95899 c -0.30411,4.50942 -0.74142,6.26788 1.29687,6.94923 1.76473,0.58989 2.43975,-0.97903 4.25,-5.38869 a 38.98402,38.878212 0 0 0 4.41407,0.58985 c 0.83409,4.98896 1.10408,6.70394 3.0039,6.51563 2.13296,-0.21142 2.10431,-2.01885 2.80274,-6.45704 a 38.98402,38.878212 0 0 0 4.44922,-0.58398 c 1.83556,4.47217 2.50379,6.05249 4.27929,5.45899 2.039,-0.68158 1.601,-2.44026 1.29688,-6.95313 a 38.98402,38.878212 0 0 0 4.04883,-1.64453 c 3.04799,3.85444 4.12211,5.20285 5.67578,4.13477 1.76386,-1.21258 0.87127,-2.78098 -0.6543,-6.9922 a 38.98402,38.878212 0 0 0 3.59765,-2.751949 c 3.77073,2.863349 5.14881,3.865909 6.36719,2.466799 1.38759,-1.593438 0.16915,-2.893884 -2.29297,-6.482424 a 38.98402,38.878212 0 0 0 2.62891,-3.359375 c 4.60399,1.62637 6.22937,2.189923 6.97266,0.462891 0.83002,-1.928605 -0.70777,-2.803054 -4.10157,-5.429688 a 38.98402,38.878212 0 0 0 1.78125,-4.230468 c 4.84262,0.449161 6.55569,0.595358 6.85352,-1.257813 0.3337,-2.076414 -1.37721,-2.545694 -5.32422,-4.269531 a 38.98402,38.878212 0 0 0 0.58203,-4.589844 c 4.65175,-0.60977 6.32974,-0.870637 6.21289,-2.714844 -0.13374,-2.110387 -1.91583,-2.177407 -6.19726,-3 a 38.98402,38.878212 0 0 0 -0.59571,-4.332031 c 4.39744,-1.942328 5.95506,-2.655211 5.31641,-4.410156 -0.72532,-1.993036 -2.4576,-1.547582 -6.82617,-1.128906 a 38.98402,38.878212 0 0 0 -1.69141,-4.091797 c 3.8157,-3.072792 5.15266,-4.159051 4.07227,-5.701172 -1.22703,-1.751402 -2.78801,-0.847253 -6.97657,0.712891 a 38.98402,38.878212 0 0 0 -2.6914,-3.47461 c 2.82953,-3.998598 3.81632,-5.409847 2.35547,-6.597656 -1.64128,-1.334511 -2.89945,-0.07045 -6.41211,2.517578 a 38.98402,38.878212 0 0 0 -3.5586,-2.722656 c 1.8726,-4.570986 2.52694,-6.168467 0.83008,-7 -1.95314,-0.957122 -2.86132,0.634323 -5.89648,4.146484 a 38.98402,38.878212 0 0 0 -4.0293,-1.65625 c 0.41957,-5.001232 0.57453,-6.728324 -1.30664,-7.013672 -2.10969,-0.320008 -2.53717,1.426948 -4.28906,5.515625 a 38.98402,38.878212 0 0 0 -4.41406,-0.550781 c -0.74638,-4.897178 -1.00539,-6.60678 -2.89063,-6.447265 z m -1.55664,11.949218 c 4.31545,-0.07229 9.43898,0.698428 11.10352,1.421875 7.24556,2.208669 13.94648,6.268764 19.65234,15.716797 1.06265,1.759586 1.82614,3.468106 2.16992,5.027344 0.3413,1.639526 0.21329,3.546804 -0.8457,5.050781 -0.90751,1.195963 -2.03129,2.322984 -3.59961,2.466797 -4.88074,0.45727 -11.4985,0.199058 -16.7207,0.142578 -0.87881,-0.0095 -1.71805,-0.365158 -1.97071,-0.642578 -1.5473,-0.975153 -2.5889,-3.097278 -4.31445,-3.695313 -2.7548,-1.276259 -3.87005,-0.206038 -5.42383,-2.117187 -2.86222,-4.591694 -5.63176,-9.309055 -8.17383,-13.994141 -1.84185,-3.206128 -0.62749,-6.415091 2.14844,-8.144531 1.08614,-0.842512 3.38534,-1.189051 5.97461,-1.232422 z m -19.23437,9.886719 c 0.22474,-0.0071 0.45092,3.63e-4 0.67968,0.02344 1.48741,0.203781 3.02105,0.629881 3.91602,1.925781 2.79368,4.028158 5.81647,9.920232 8.33008,14.498047 0.42299,0.770367 0.52593,1.676927 0.4082,2.033203 -0.0903,1.826727 -1.42927,3.775315 -1.10352,5.572267 0.23995,3.026582 1.72101,3.471957 0.81836,5.763672 -2.59606,4.747255 -5.34903,9.476095 -8.18359,13.990234 -1.88958,3.178231 -5.28123,3.694921 -8.15039,2.125 -3.37896,-1.421015 -7.91832,-12.084115 -8.2168,-14.97266 -1.63141,-7.39695 -1.38104,-15.227739 4.05078,-24.835937 1.01162,-1.789412 2.12657,-3.292679 3.31641,-4.357422 1.10338,-0.964243 2.56159,-1.716251 4.13477,-1.765625 z m 38.61328,26.914062 c 2.70969,0.01403 5.40894,0.0691 8.07226,0.167969 3.69722,0.04731 5.84103,2.726366 5.91602,5.996094 0.45885,3.636774 -6.50511,12.898804 -8.85742,14.601562 -5.59024,5.111318 -12.4983,8.810156 -23.53516,8.910156 -2.05549,0.0186 -3.91462,-0.19529 -5.43164,-0.69336 -1.58486,-0.54107 -3.16083,-1.61964 -3.91602,-3.296874 -0.56722,-1.390018 -0.96581,-2.932452 -0.29101,-4.355468 2.09165,-4.433475 5.68488,-9.997131 8.39258,-14.462891 0.45566,-0.751507 1.18923,-1.292961 1.55664,-1.369141 1.62714,-0.835159 3.98362,-0.651443 5.37695,-1.832031 2.50113,-1.721086 2.14798,-3.2257 4.58398,-3.589844 2.70464,-0.06268 5.42312,-0.0902 8.13282,-0.07617 z"
       style="fill:url(#linearGradient822);fill-opacity:1;stroke:none;stroke-width:0.1;stroke-linecap:butt;stroke-linejoin:miter;stroke-miterlimit:4;stroke-dasharray:none;stroke-opacity:1" /><path
       inkscape:connector-curvature="0"
       style="color:#000000;font-style:normal;font-variant:normal;font-weight:normal;font-stretch:normal;font-size:medium;line-height:normal;font-family:sans-serif;font-variant-ligatures:normal;font-variant-position:normal;font-variant-caps:normal;font-variant-numeric:normal;font-variant-alternates:normal;font-feature-settings:normal;text-indent:0;text-align:start;text-decoration:none;text-decoration-line:none;text-decoration-style:solid;text-decoration-color:#000000;letter-spacing:normal;word-spacing:normal;text-transform:none;writing-mode:lr-tb;direction:ltr;text-orientation:mixed;dominant-baseline:auto;baseline-shift:baseline;text-anchor:start;white-space:normal;shape-padding:0;clip-rule:nonzero;display:inline;overflow:visible;visibility:visible;opacity:1;isolation:auto;mix-blend-mode:normal;color-interpolation:sRGB;color-interpolation-filters:linearRGB;solid-color:#000000;solid-opacity:1;vector-effect:none;fill:#ffffff;fill-opacity:0.26744187;fill-rule:nonzero;stroke:none;stroke-width:1;stroke-linecap:round;stroke-linejoin:round;stroke-miterlimit:4;stroke-dasharray:none;stroke-dashoffset:0;stroke-opacity:1;color-rendering:auto;image-rendering:auto;shape-rendering:auto;text-rendering:auto;enable-background:accumulate"
       d="m 218.50195,24.384727 c -2.14068,0.181132 -2.13092,1.993307 -2.89843,6.44336 a 38.98402,38.878212 0 0 0 -4.31446,0.595703 c -1.8985,-4.581908 -2.56025,-6.178463 -4.35351,-5.572266 -2.06191,0.69701 -1.58157,2.465567 -1.26172,7.103516 a 38.98402,38.878212 0 0 0 -4,1.65039 c -3.20204,-3.867092 -4.30022,-5.20876 -5.84375,-4.095703 -1.7414,1.255742 -0.80489,2.805061 0.82422,7.009766 a 38.98402,38.878212 0 0 0 -3.47852,2.683594 c -4.03511,-2.982807 -5.42369,-4.021276 -6.65429,-2.570313 -1.39655,1.646643 -0.0961,2.92114 2.52539,6.660156 a 38.98402,38.878212 0 0 0 -2.61524,3.392578 c -4.22907,-1.572414 -5.78925,-2.489291 -7.02148,-0.730468 -1.08976,1.555502 0.26162,2.636762 4.15429,5.771484 a 38.98402,38.878212 0 0 0 -1.67773,4.03125 c -4.44938,-0.421551 -6.19059,-0.890304 -6.92188,1.119141 -0.64346,1.768166 0.926,2.473204 5.40039,4.449219 a 38.98402,38.878212 0 0 0 -0.55468,4.267578 c -4.38664,0.849376 -6.189,0.891553 -6.32422,3.02539 -0.11743,1.8533 1.56861,2.106323 6.27344,2.722656 a 38.98402,38.878212 0 0 0 0.625,4.53711 c -4.03071,1.766189 -5.76469,2.217812 -5.42774,4.314453 0.3001,1.867317 2.0208,1.707262 6.94922,1.25 a 38.98402,38.878212 0 0 0 1.74219,4.197266 c -3.43654,2.663629 -4.99314,3.530701 -4.15821,5.470703 0.75059,1.743957 2.38096,1.161553 7.08985,-0.501953 a 38.98402,38.878212 0 0 0 2.54687,3.289062 c -2.5918,3.80583 -3.88611,5.094151 -2.46289,6.728511 1.24135,1.42549 2.6183,0.38075 6.55469,-2.60937 a 38.98402,38.878212 0 0 0 3.48633,2.6875 c -1.57759,4.3917 -2.52708,5.96414 -0.73047,7.19922 1.57347,1.08169 2.63871,-0.29086 5.77734,-4.25977 l -0.76757,-0.45703 a 38.98402,38.878212 0 0 0 4.57812,1.95899 c -0.30411,4.50941 -0.74141,6.26787 1.29688,6.94922 1.76473,0.58989 2.43975,-0.97902 4.25,-5.38868 a 38.98402,38.878212 0 0 0 4.41406,0.58985 c 0.83409,4.98895 1.10408,6.70394 3.0039,6.51563 2.13296,-0.21142 2.10431,-2.01885 2.80274,-6.45704 a 38.98402,38.878212 0 0 0 4.44922,-0.58398 c 1.83556,4.47216 2.50379,6.05248 4.27929,5.45898 2.039,-0.68158 1.601,-2.44026 1.29688,-6.95313 a 38.98402,38.878212 0 0 0 4.04883,-1.64453 c 3.04799,3.85444 4.12211,5.20285 5.67578,4.13477 1.76386,-1.21257 0.87127,-2.78096 -0.6543,-6.99219 a 38.98402,38.878212 0 0 0 3.59766,-2.751951 c 3.77073,2.863351 5.14881,3.865901 6.36719,2.466801 1.38759,-1.593444 0.16915,-2.893886 -2.29297,-6.482426 a 38.98402,38.878212 0 0 0 2.6289,-3.359375 c 4.60399,1.62637 6.22937,2.189923 6.97266,0.462891 0.83002,-1.928605 -0.70776,-2.803054 -4.10156,-5.429688 a 38.98402,38.878212 0 0 0 1.78125,-4.230468 c 4.84262,0.449161 6.55568,0.595358 6.85351,-1.257813 0.3337,-2.076414 -1.37721,-2.545694 -5.32422,-4.269531 a 38.98402,38.878212 0 0 0 0.58203,-4.589844 c 4.65175,-0.60977 6.32975,-0.870637 6.2129,-2.714844 -0.13374,-2.110387 -1.91584,-2.177407 -6.19727,-3 a 38.98402,38.878212 0 0 0 -0.5957,-4.332031 c 4.39744,-1.942328 5.95505,-2.655211 5.3164,-4.410156 -0.72532,-1.993036 -2.4576,-1.547582 -6.82617,-1.128907 a 38.98402,38.878212 0 0 0 -1.6914,-4.091796 c 3.81569,-3.072792 5.15265,-4.159051 4.07226,-5.701172 -1.22703,-1.751402 -2.788,-0.847254 -6.97656,0.71289 a 38.98402,38.878212 0 0 0 -2.69141,-3.474609 c 2.82953,-3.998598 3.81632,-5.409847 2.35547,-6.597656 -1.64128,-1.334511 -2.89945,-0.07045 -6.41211,2.517578 a 38.98402,38.878212 0 0 0 -3.55859,-2.722656 c 1.8726,-4.570986 2.52694,-6.168467 0.83008,-7 -1.95314,-0.957122 -2.86133,0.634323 -5.89649,4.146484 a 38.98402,38.878212 0 0 0 -4.0293,-1.65625 c 0.41957,-5.001232 0.57453,-6.728324 -1.30664,-7.013672 -2.10969,-0.320008 -2.53717,1.426948 -4.28906,5.515625 a 38.98402,38.878212 0 0 0 -4.41406,-0.550781 c -0.74638,-4.897178 -1.00539,-6.606781 -2.89063,-6.447266 z m 0.043,0.498047 c 0.39559,-0.03347 0.61903,0.02518 0.8086,0.160156 0.18957,0.13498 0.37763,0.391085 0.55468,0.84961 0.35411,0.917049 0.61704,2.566985 0.99024,5.015625 a 0.50005,0.50005 0 0 0 0.46094,0.421875 c 1.46172,0.09838 2.91645,0.281108 4.35742,0.544922 a 0.50005,0.50005 0 0 0 0.54883,-0.294922 c 0.8803,-2.054502 1.43776,-3.515318 1.9707,-4.335938 0.26647,-0.41031 0.51174,-0.648024 0.76953,-0.777344 0.25779,-0.129318 0.55737,-0.174979 1.01563,-0.105468 0.39534,0.05997 0.60059,0.171218 0.7539,0.347656 0.15331,0.176438 0.27502,0.468938 0.33984,0.960938 0.12967,0.983999 -0.001,2.668973 -0.21093,5.169921 a 0.50005,0.50005 0 0 0 0.33398,0.513672 c 1.35544,0.470619 2.68423,1.016212 3.97852,1.634766 a 0.50005,0.50005 0 0 0 0.59375,-0.125 c 1.52587,-1.765682 2.52414,-3.041763 3.29687,-3.693359 0.38637,-0.325799 0.69841,-0.487985 0.98633,-0.53711 0.28792,-0.04913 0.5883,-0.0014 1.01367,0.207031 0.35601,0.174458 0.51816,0.339893 0.61133,0.552735 0.0932,0.212841 0.12445,0.526659 0.041,1.009765 -0.16683,0.966213 -0.78831,2.513338 -1.72461,4.798829 a 0.50005,0.50005 0 0 0 0.18164,0.603515 c 1.22173,0.827937 2.39539,1.725105 3.51367,2.6875 a 0.50005,0.50005 0 0 0 0.62305,0.02344 c 1.76467,-1.300163 2.96731,-2.257266 3.83203,-2.683594 0.43236,-0.213164 0.76102,-0.291825 1.04687,-0.271485 0.28585,0.02034 0.56384,0.134302 0.91992,0.423829 0.30624,0.248995 0.42741,0.445837 0.47071,0.673828 0.0433,0.22799 0.002,0.540667 -0.18555,0.990234 -0.37522,0.899135 -1.31785,2.256829 -2.73242,4.255859 a 0.50005,0.50005 0 0 0 0.0312,0.617188 c 0.94969,1.092496 1.83614,2.237383 2.65625,3.429688 a 0.50005,0.50005 0 0 0 0.58594,0.185546 c 2.10484,-0.784008 3.55225,-1.393335 4.51757,-1.576172 0.48267,-0.09142 0.82561,-0.07755 1.09766,0.01953 0.27205,0.09708 0.51077,0.281618 0.77734,0.662109 0.22647,0.323248 0.28838,0.546392 0.26758,0.777344 -0.0208,0.230952 -0.14555,0.519349 -0.44922,0.900391 -0.60733,0.762081 -1.88727,1.811419 -3.79492,3.347656 a 0.50005,0.50005 0 0 0 -0.13672,0.605468 c 0.633,1.313662 1.19076,2.662179 1.66992,4.039063 a 0.50005,0.50005 0 0 0 0.51954,0.333984 c 2.1948,-0.210345 3.72781,-0.416949 4.69336,-0.339843 0.48277,0.03855 0.80542,0.140407 1.04101,0.304687 0.23559,0.16428 0.41681,0.40536 0.57422,0.837891 0.13361,0.367138 0.13731,0.597696 0.0586,0.814453 -0.0787,0.216757 -0.27119,0.461073 -0.65625,0.748047 -0.77011,0.573948 -2.25122,1.247905 -4.44921,2.21875 a 0.50005,0.50005 0 0 0 -0.28907,0.552734 c 0.27629,1.413265 0.47248,2.842082 0.58789,4.277344 a 0.50005,0.50005 0 0 0 0.4043,0.449219 c 2.15087,0.413247 3.66885,0.648398 4.56836,0.99414 0.44975,0.172871 0.73113,0.360252 0.91016,0.583985 0.17902,0.223732 0.28544,0.505075 0.31445,0.96289 0.0244,0.384941 -0.0392,0.606165 -0.17383,0.791016 -0.13459,0.184851 -0.38157,0.363103 -0.82226,0.529297 -0.88142,0.332388 -2.45876,0.56249 -4.78321,0.867187 a 0.50005,0.50005 0 0 0 -0.43359,0.462891 c -0.10116,1.520254 -0.29465,3.033739 -0.57617,4.53125 a 0.50005,0.50005 0 0 0 0.29297,0.550781 c 1.98252,0.865864 3.39557,1.425557 4.1875,1.958984 0.39594,0.266714 0.6259,0.510442 0.75,0.767579 0.12408,0.257137 0.16412,0.553803 0.0918,1.003906 -0.0624,0.388134 -0.17247,0.591106 -0.34765,0.742187 -0.17519,0.151082 -0.46478,0.271629 -0.94532,0.333985 -0.96107,0.12471 -2.59865,-0.01179 -5.01953,-0.236328 a 0.50005,0.50005 0 0 0 -0.51758,0.332031 c -0.50315,1.425295 -1.09173,2.819517 -1.75976,4.175781 a 0.50005,0.50005 0 0 0 0.14258,0.615235 c 1.70456,1.31925 2.93392,2.206793 3.56836,2.916015 0.31721,0.354611 0.48008,0.646463 0.53711,0.925781 0.057,0.279318 0.0237,0.578041 -0.15626,0.996094 -0.15575,0.361907 -0.31243,0.531094 -0.51953,0.634766 -0.20709,0.103672 -0.51751,0.149393 -1,0.0918 -0.96497,-0.1152 -2.52645,-0.64982 -4.82812,-1.462891 a 0.50005,0.50005 0 0 0 -0.57617,0.185547 c -0.80359,1.151872 -1.67053,2.257196 -2.59571,3.314453 a 0.50005,0.50005 0 0 0 -0.0352,0.613281 c 1.23689,1.802764 2.15111,3.034927 2.54687,3.91211 0.19788,0.438591 0.26442,0.769969 0.23438,1.05469 -0.03,0.28472 -0.15215,0.55866 -0.45313,0.90429 -0.25451,0.29227 -0.45504,0.40483 -0.68164,0.44141 -0.22659,0.0366 -0.52983,-0.0111 -0.96289,-0.20508 -0.86612,-0.38796 -2.15858,-1.34251 -4.04297,-2.773435 a 0.50005,0.50005 0 0 0 -0.6289,0.01953 c -1.12998,0.973491 -2.31511,1.880725 -3.55078,2.716795 a 0.50005,0.50005 0 0 0 -0.19141,0.58399 c 0.76665,2.11628 1.36412,3.57094 1.53906,4.53906 0.0875,0.48406 0.0721,0.82828 -0.0273,1.09961 -0.0995,0.27132 -0.28665,0.508 -0.66992,0.77148 -0.32579,0.22396 -0.5502,0.28468 -0.78125,0.26172 -0.23106,-0.0229 -0.51939,-0.15107 -0.89844,-0.45898 -0.7581,-0.61583 -1.79645,-1.90888 -3.32031,-3.83594 a 0.50005,0.50005 0 0 0 -0.60547,-0.14063 c -1.30083,0.61529 -2.63632,1.15688 -3.99805,1.62305 a 0.50005,0.50005 0 0 0 -0.33594,0.50586 c 0.15285,2.26815 0.32772,3.84371 0.23047,4.83008 -0.0486,0.49319 -0.15768,0.8223 -0.32812,1.05664 -0.17045,0.23435 -0.41605,0.41039 -0.85938,0.5586 -0.37165,0.12422 -0.60352,0.11988 -0.81836,0.0352 -0.21484,-0.0848 -0.4551,-0.28316 -0.73242,-0.67773 -0.55464,-0.78915 -1.18988,-2.29575 -2.10742,-4.53125 a 0.50005,0.50005 0 0 0 -0.55664,-0.30079 c -1.45179,0.27613 -2.91859,0.46827 -4.39258,0.57618 a 0.50005,0.50005 0 0 0 -0.45703,0.41992 c -0.351,2.23043 -0.5299,3.79742 -0.84375,4.73242 -0.15693,0.4675 -0.33659,0.76113 -0.55469,0.95117 -0.2181,0.19004 -0.49544,0.30757 -0.95898,0.35352 -0.39967,0.0396 -0.62802,-0.0168 -0.82032,-0.15039 -0.19229,-0.1336 -0.38393,-0.38987 -0.56836,-0.85352 -0.36884,-0.92729 -0.65708,-2.60069 -1.07421,-5.0957 a 0.50005,0.50005 0 0 0 -0.45508,-0.41602 c -1.46247,-0.11113 -2.91721,-0.30528 -4.35742,-0.58203 a 0.50005,0.50005 0 0 0 -0.55664,0.30078 c -0.90476,2.2039 -1.53669,3.69202 -2.0879,4.47071 -0.2756,0.38934 -0.51249,0.58414 -0.72656,0.66797 -0.21407,0.0838 -0.44556,0.0881 -0.81445,-0.0352 -0.44314,-0.14813 -0.68895,-0.32433 -0.85938,-0.55859 -0.17042,-0.23427 -0.27946,-0.56178 -0.32812,-1.05469 -0.0973,-0.98583 0.0776,-2.56172 0.23047,-4.82813 a 0.50005,0.50005 0 0 0 -0.33203,-0.5039 c -1.54631,-0.54789 -3.05398,-1.19354 -4.51758,-1.9336 a 0.50005,0.50005 0 0 0 -0.48242,0.875 l 0.25586,0.15235 c -1.29901,1.63674 -2.33945,2.94905 -3.02539,3.51367 -0.3855,0.3173 -0.67706,0.44836 -0.91016,0.47266 -0.2331,0.0243 -0.46003,-0.0361 -0.79102,-0.26368 -0.39139,-0.26906 -0.5795,-0.50971 -0.67773,-0.78516 -0.0982,-0.27544 -0.10909,-0.62662 -0.0137,-1.125 0.19089,-0.99674 0.81621,-2.49901 1.60937,-4.70703 a 0.50005,0.50005 0 0 0 -0.1875,-0.58203 c -1.19644,-0.81892 -2.34724,-1.705958 -3.44336,-2.654294 a 0.50005,0.50005 0 0 0 -0.6289,-0.01953 c -1.96817,1.495044 -3.3038,2.493574 -4.19532,2.904294 -0.44575,0.20536 -0.75632,0.2578 -0.98632,0.22266 -0.23001,-0.0351 -0.43295,-0.14823 -0.69336,-0.44727 -0.3098,-0.35575 -0.43191,-0.63395 -0.45899,-0.92382 -0.0271,-0.28988 0.0466,-0.631152 0.25977,-1.085942 0.42628,-0.909579 1.39629,-2.196149 2.69922,-4.109375 a 0.50005,0.50005 0 0 0 -0.0352,-0.607422 c -0.89549,-1.036792 -1.73427,-2.121869 -2.51367,-3.248047 a 0.50005,0.50005 0 0 0 -0.57813,-0.185546 c -2.35463,0.831819 -3.94465,1.381903 -4.92578,1.503906 -0.49056,0.061 -0.80461,0.0158 -1.01367,-0.08789 -0.20906,-0.10369 -0.36772,-0.274294 -0.52539,-0.640625 -0.18108,-0.420758 -0.21252,-0.719783 -0.1543,-1 0.0582,-0.280217 0.22095,-0.574512 0.54297,-0.93164 0.64405,-0.714258 1.89079,-1.609152 3.61719,-2.947266 a 0.50005,0.50005 0 0 0 0.14258,-0.613281 c -0.65374,-1.346466 -1.22697,-2.729268 -1.71875,-4.142579 a 0.50005,0.50005 0 0 0 -0.51953,-0.333984 c -2.46423,0.228632 -4.12697,0.370569 -5.10157,0.248047 -0.48729,-0.06126 -0.77842,-0.18062 -0.95508,-0.332031 -0.17664,-0.151412 -0.28859,-0.356231 -0.35156,-0.748047 -0.0731,-0.455051 -0.0324,-0.753408 0.0937,-1.011719 0.12616,-0.258311 0.36149,-0.504483 0.76563,-0.773437 0.80828,-0.537908 2.25024,-1.104803 4.27539,-1.992188 a 0.50005,0.50005 0 0 0 0.28906,-0.554687 c -0.29371,-1.479487 -0.49996,-2.974855 -0.61719,-4.478516 a 0.50005,0.50005 0 0 0 -0.43359,-0.457031 c -2.35131,-0.308021 -3.94366,-0.536293 -4.83399,-0.869141 -0.44515,-0.166424 -0.69652,-0.346026 -0.83203,-0.53125 -0.1355,-0.185224 -0.19836,-0.407672 -0.17382,-0.794922 0.0294,-0.463597 0.13677,-0.746085 0.31835,-0.970703 0.18161,-0.224617 0.46835,-0.414483 0.92774,-0.587891 0.91878,-0.346812 2.47143,-0.580988 4.67578,-1.007812 a 0.50005,0.50005 0 0 0 0.40234,-0.453125 c 0.10439,-1.413186 0.28848,-2.819862 0.54883,-4.212891 a 0.50005,0.50005 0 0 0 -0.29101,-0.548828 c -2.23686,-0.987857 -3.74112,-1.669518 -4.52344,-2.248047 -0.39116,-0.289264 -0.58627,-0.534178 -0.66602,-0.751953 -0.0797,-0.217775 -0.0763,-0.449685 0.0586,-0.820312 0.15888,-0.436571 0.34059,-0.677557 0.57812,-0.841797 0.23754,-0.164241 0.56495,-0.265967 1.05469,-0.302735 0.97948,-0.07353 2.53557,0.139724 4.77148,0.351563 a 0.50005,0.50005 0 0 0 0.51954,-0.332031 c 0.47688,-1.356318 1.02797,-2.685995 1.65429,-3.980469 a 0.50005,0.50005 0 0 0 -0.13476,-0.605469 c -1.94648,-1.567475 -3.25165,-2.631329 -3.8711,-3.402344 -0.30972,-0.385505 -0.43544,-0.677672 -0.45703,-0.910156 -0.0216,-0.232483 0.0406,-0.456395 0.26953,-0.783203 0.2679,-0.382377 0.50649,-0.567277 0.7793,-0.664062 0.27281,-0.09678 0.61786,-0.108848 1.10352,-0.01563 0.97131,0.186454 2.42922,0.801526 4.55468,1.591796 a 0.50005,0.50005 0 0 0 0.58594,-0.185546 c 0.79823,-1.162734 1.66049,-2.281396 2.58203,-3.34961 a 0.50005,0.50005 0 0 0 0.0312,-0.613281 c -1.31772,-1.879464 -2.29483,-3.14548 -2.72851,-4.044922 -0.21685,-0.449721 -0.29519,-0.788576 -0.27149,-1.078125 0.0237,-0.289549 0.14152,-0.567579 0.44531,-0.925781 0.25862,-0.304928 0.46074,-0.423102 0.69141,-0.460938 0.23067,-0.03784 0.54534,0.01172 0.99805,0.214844 0.90541,0.406252 2.26929,1.402937 4.28711,2.894531 a 0.50005,0.50005 0 0 0 0.625,-0.02344 c 1.09372,-0.946785 2.23988,-1.832475 3.43359,-2.650391 a 0.50005,0.50005 0 0 0 0.18359,-0.591797 c -0.81874,-2.113157 -1.45306,-3.562514 -1.65234,-4.53125 -0.0996,-0.484367 -0.0932,-0.829244 0,-1.103515 0.0932,-0.274272 0.27576,-0.516093 0.6543,-0.789063 0.32441,-0.233939 0.54821,-0.299942 0.78125,-0.28125 0.23304,0.01869 0.52722,0.143159 0.91797,0.449219 0.7815,0.612121 1.86557,1.906047 3.46679,3.839844 a 0.50005,0.50005 0 0 0 0.60157,0.132812 c 1.28497,-0.6156 2.60176,-1.159175 3.94726,-1.628906 a 0.50005,0.50005 0 0 0 0.33399,-0.507812 c -0.16081,-2.331763 -0.35047,-3.943508 -0.26172,-4.951172 0.0444,-0.503833 0.15076,-0.836579 0.32031,-1.074219 0.16955,-0.23764 0.4161,-0.416536 0.86523,-0.568359 0.3764,-0.127239 0.60953,-0.124762 0.82618,-0.03906 0.21665,0.0857 0.46026,0.288431 0.74218,0.691406 0.56384,0.805951 1.21287,2.345771 2.16211,4.636719 a 0.50005,0.50005 0 0 0 0.5586,0.298828 c 1.40765,-0.275033 2.83013,-0.471176 4.25976,-0.58789 a 0.50005,0.50005 0 0 0 0.45117,-0.41211 c 0.38575,-2.236578 0.58704,-3.809541 0.91407,-4.74414 0.16351,-0.467301 0.34756,-0.759869 0.56836,-0.947266 0.22079,-0.187397 0.50145,-0.300469 0.96679,-0.339844 z m -1.60745,10.951172 c -2.62032,0.04389 -4.94969,0.328813 -6.25586,1.332031 -1.46249,0.920061 -2.54014,2.237952 -2.99609,3.777344 -0.45873,1.548781 -0.27724,3.308251 0.70117,5.013672 7.8e-4,0.0014 9.5e-4,0.0025 0.002,0.0039 2.54589,4.691497 5.31896,9.412234 8.1836,14.007813 a 0.50005,0.50005 0 0 0 0.0352,0.05078 c 0.84265,1.036455 1.71233,1.339192 2.57031,1.476562 0.858,0.137371 1.72558,0.174395 3.03126,0.779297 a 0.50005,0.50005 0 0 0 0.0469,0.01953 c 0.71929,0.249287 1.36106,0.857073 2.01953,1.572265 0.63557,0.690317 1.29173,1.455973 2.11719,2.001953 0.23744,0.250088 0.53728,0.402999 0.92578,0.541016 0.39991,0.14207 0.87574,0.244539 1.38086,0.25 5.20967,0.05634 11.83173,0.31806 16.77148,-0.144531 1.78324,-0.163521 3.0169,-1.428303 3.95313,-2.66211 a 0.50005,0.50005 0 0 0 0.01,-0.01563 c 1.16264,-1.651171 1.28989,-3.69976 0.92774,-5.439453 a 0.50005,0.50005 0 0 0 -0.002,-0.0059 c -0.36108,-1.63619 -1.14857,-3.386266 -2.23047,-5.177735 -5.74865,-9.518874 -12.57421,-13.680599 -19.88086,-15.917968 l -0.006,-0.002 c -0.94544,-0.409947 -2.63477,-0.766133 -4.6836,-1.042969 -2.05145,-0.277191 -4.4303,-0.454668 -6.62109,-0.417969 z m 0.008,0.5 c 4.31545,-0.07229 9.43898,0.698428 11.10352,1.421875 7.24556,2.208669 13.94648,6.268764 19.65234,15.716797 1.06265,1.759586 1.82614,3.468106 2.16992,5.027344 0.3413,1.639526 0.21329,3.546804 -0.8457,5.050781 -0.90751,1.195963 -2.03129,2.322984 -3.59961,2.466797 -4.88074,0.45727 -11.4985,0.199058 -16.7207,0.142578 -0.87881,-0.0095 -1.71804,-0.365158 -1.9707,-0.642578 -1.5473,-0.975153 -2.58891,-3.097278 -4.31446,-3.695313 -2.7548,-1.276259 -3.87005,-0.206038 -5.42383,-2.117187 -2.86222,-4.591694 -5.63175,-9.309055 -8.17382,-13.994141 -1.84185,-3.206128 -0.6275,-6.415091 2.14843,-8.144531 1.08614,-0.842512 3.38534,-1.189051 5.97461,-1.232422 z m -19.25,9.386719 c -1.7226,0.05406 -3.27651,0.865556 -4.44726,1.888672 a 0.50005,0.50005 0 0 0 -0.006,0.0039 c -1.24845,1.11719 -2.38793,2.662387 -3.41797,4.484375 -5.47512,9.684792 -5.74836,17.677178 -4.10938,25.144531 0.0862,0.819601 0.43337,2.024218 0.95899,3.466797 0.52742,1.447526 1.23491,3.110456 2.04101,4.730469 0.80611,1.620013 1.70869,3.196181 2.63868,4.474609 0.92563,1.27245 1.85687,2.259791 2.86523,2.689453 1.5192,0.822477 3.19696,1.112042 4.76172,0.753907 1.57577,-0.360655 3.01953,-1.382381 4.02539,-3.074219 2.83855,-4.520971 5.59479,-9.25402 8.19336,-14.00586 a 0.50005,0.50005 0 0 0 0.0254,-0.05664 c 0.48954,-1.242892 0.32518,-2.148223 0.0234,-2.962891 -0.3017,-0.814667 -0.69487,-1.589016 -0.8086,-3.023437 a 0.50005,0.50005 0 0 0 -0.006,-0.05078 c -0.13577,-0.748955 0.0786,-1.606639 0.37891,-2.53125 0.29004,-0.893097 0.63677,-1.838134 0.70703,-2.826171 0.10159,-0.330149 0.0883,-0.665813 0.0176,-1.072266 -0.0727,-0.418296 -0.21981,-0.883457 -0.46289,-1.326172 -2.50748,-4.566657 -5.52832,-10.464096 -8.35547,-14.541016 l -0.002,-0.002 c -1.01783,-1.47156 -2.72418,-1.926604 -4.25781,-2.136719 a 0.50005,0.50005 0 0 0 -0.0176,-0.002 c -0.2508,-0.0253 -0.49973,-0.03317 -0.7461,-0.02539 z m 0.0156,0.5 c 0.22474,-0.0071 0.45093,3.6e-4 0.67969,0.02344 1.48741,0.203781 3.02104,0.629881 3.91601,1.925782 2.79368,4.028157 5.81647,9.920231 8.33008,14.498046 0.42299,0.770367 0.52593,1.676927 0.4082,2.033204 -0.0903,1.826726 -1.42926,3.775313 -1.10351,5.572265 0.23995,3.026582 1.72101,3.471957 0.81836,5.763672 -2.59606,4.747255 -5.34904,9.476095 -8.1836,13.990234 -1.88958,3.178231 -5.28123,3.694921 -8.15039,2.125 -3.37896,-1.421015 -7.91832,-12.084111 -8.21679,-14.972656 -1.63141,-7.39695 -1.38104,-15.227739 4.05078,-24.835937 1.01162,-1.789412 2.12656,-3.292679 3.3164,-4.357422 1.10338,-0.964243 2.56159,-1.716251 4.13477,-1.765625 z m 38.61523,26.414062 c -2.71481,-0.01406 -5.43747,0.01339 -8.14648,0.07617 a 0.50005,0.50005 0 0 0 -0.0625,0.0059 c -1.32108,0.197481 -2.023,0.7925 -2.57813,1.460938 -0.55512,0.668438 -1.02938,1.395195 -2.21484,2.210938 a 0.50005,0.50005 0 0 0 -0.0391,0.03125 c -0.58084,0.492149 -1.43208,0.734857 -2.38282,0.9375 -0.91937,0.195955 -1.91325,0.368482 -2.80468,0.802734 -0.33444,0.07762 -0.61825,0.256456 -0.9336,0.519531 -0.32592,0.271904 -0.65606,0.63055 -0.91797,1.0625 -2.70104,4.454787 -6.29882,10.020851 -8.41601,14.507813 -0.7674,1.61828 -0.30585,3.325815 0.2793,4.759765 a 0.50005,0.50005 0 0 0 0.008,0.01563 c 0.82916,1.841514 2.52776,2.990484 4.20898,3.564454 a 0.50005,0.50005 0 0 0 0.006,0.002 c 1.59174,0.5226 3.4989,0.73769 5.5918,0.71875 11.11919,-0.10075 18.1782,-3.856805 23.82422,-9.00586 0.66756,-0.483225 1.54145,-1.391807 2.53125,-2.572265 0.9898,-1.18046 2.07636,-2.622833 3.07617,-4.13086 0.99981,-1.508026 1.91261,-3.078901 2.55469,-4.523437 0.63822,-1.435861 1.02699,-2.733121 0.89648,-3.820313 -0.0462,-1.729054 -0.63274,-3.328525 -1.72656,-4.505859 -1.10035,-1.184353 -2.70963,-1.924035 -4.67774,-1.949219 -2.66519,-0.09881 -5.36535,-0.153933 -8.07617,-0.167969 z m -0.002,0.5 c 2.70969,0.01403 5.40895,0.0691 8.07227,0.167969 3.69721,0.04731 5.84102,2.726366 5.91601,5.996094 0.45885,3.636774 -6.50511,12.898804 -8.85742,14.601562 -5.59024,5.111318 -12.4983,8.810158 -23.53516,8.910158 -2.05549,0.0186 -3.91462,-0.19529 -5.43164,-0.69336 -1.58486,-0.54107 -3.16082,-1.61965 -3.91601,-3.296876 -0.56722,-1.390018 -0.96582,-2.932453 -0.29102,-4.355469 2.09165,-4.433475 5.68488,-9.99713 8.39258,-14.46289 0.45566,-0.751507 1.18923,-1.292961 1.55664,-1.369141 1.62714,-0.835159 3.98362,-0.651443 5.37695,-1.832031 2.50113,-1.721086 2.14799,-3.2257 4.58399,-3.589844 2.70464,-0.06268 5.42311,-0.0902 8.13281,-0.07617 z"
       id="rect837" /><path
       style="opacity:1;fill:url(#linearGradient900);fill-opacity:1;stroke:none;stroke-width:0.32236025;stroke-linecap:round;stroke-linejoin:round;stroke-miterlimit:4;stroke-dasharray:none;stroke-opacity:1"
       d="m 218.59331,65.777306 a 3.8227959,3.8227959 0 0 0 -3.82227,3.822266 3.8227959,3.8227959 0 0 0 3.82227,3.824218 3.8227959,3.8227959 0 0 0 3.82422,-3.824218 3.8227959,3.8227959 0 0 0 -3.82422,-3.822266 z m -0.0215,0.794922 a 3.0052037,3.0052037 0 0 1 3.00586,3.005859 3.0052037,3.0052037 0 0 1 -3.00586,3.00586 3.0052037,3.0052037 0 0 1 -3.00586,-3.00586 3.0052037,3.0052037 0 0 1 3.00586,-3.005859 z"
       id="path889"
       inkscape:connector-curvature="0" /><circle
       style="opacity:1;fill:url(#radialGradient887);fill-opacity:1;stroke:none;stroke-width:0.29352519;stroke-linecap:round;stroke-linejoin:round;stroke-miterlimit:4;stroke-dasharray:none;stroke-opacity:1"
       id="path879"
       cx="218.59428"
       cy="69.600548"
       r="3.0052037" /><path
       style="color:#000000;font-style:normal;font-variant:normal;font-weight:normal;font-stretch:normal;font-size:medium;line-height:normal;font-family:sans-serif;font-variant-ligatures:normal;font-variant-position:normal;font-variant-caps:normal;font-variant-numeric:normal;font-variant-alternates:normal;font-feature-settings:normal;text-indent:0;text-align:start;text-decoration:none;text-decoration-line:none;text-decoration-style:solid;text-decoration-color:#000000;letter-spacing:normal;word-spacing:normal;text-transform:none;writing-mode:lr-tb;direction:ltr;text-orientation:mixed;dominant-baseline:auto;baseline-shift:baseline;text-anchor:start;white-space:normal;shape-padding:0;clip-rule:nonzero;display:inline;overflow:visible;visibility:visible;opacity:1;isolation:auto;mix-blend-mode:normal;color-interpolation:sRGB;color-interpolation-filters:linearRGB;solid-color:#000000;solid-opacity:1;vector-effect:none;fill:#ffffff;fill-opacity:0.38372097;fill-rule:nonzero;stroke:none;stroke-width:0.19487837;stroke-linecap:round;stroke-linejoin:round;stroke-miterlimit:4;stroke-dasharray:none;stroke-dashoffset:0;stroke-opacity:1;color-rendering:auto;image-rendering:auto;shape-rendering:auto;text-rendering:auto;enable-background:accumulate"
       d="m 218.59331,65.591758 c -2.21211,3.08e-4 -4.00751,1.7957 -4.00781,4.007813 -8.3e-4,2.212911 1.7949,4.009458 4.00781,4.009766 2.21371,8.24e-4 4.01059,-1.796056 4.00976,-4.009766 -3e-4,-2.212912 -1.79685,-4.008636 -4.00976,-4.007813 z m 0,0.195313 c 2.10757,-7.85e-4 3.81611,1.704925 3.81641,3.8125 7.8e-4,2.108338 -1.70807,3.815238 -3.81641,3.814453 -2.10758,-2.93e-4 -3.81329,-1.706878 -3.8125,-3.814453 2.9e-4,-2.106812 1.70569,-3.812207 3.8125,-3.8125 z"
       id="path902"
       inkscape:connector-curvature="0"
       sodipodi:nodetypes="cccccccccc" /></g></g></svg>