<?xml version="1.0" encoding="UTF-8" standalone="no"?>
<!-- Created with Inkscape (http://www.inkscape.org/) -->

<svg
   xmlns:osb="http://www.openswatchbook.org/uri/2009/osb"
   xmlns:dc="http://purl.org/dc/elements/1.1/"
   xmlns:cc="http://creativecommons.org/ns#"
   xmlns:rdf="http://www.w3.org/1999/02/22-rdf-syntax-ns#"
   xmlns:svg="http://www.w3.org/2000/svg"
   xmlns="http://www.w3.org/2000/svg"
   xmlns:xlink="http://www.w3.org/1999/xlink"
   xmlns:sodipodi="http://sodipodi.sourceforge.net/DTD/sodipodi-0.dtd"
   xmlns:inkscape="http://www.inkscape.org/namespaces/inkscape"
   width="128"
   height="128"
   viewBox="0 0 33.866665 33.866665"
   version="1.1"
   id="svg4942"
   inkscape:version="0.92.3 (2405546, 2018-03-11)"
   sodipodi:docname="xfce-system-settings.svg"
   style="enable-background:new">
  <defs
     id="defs4936">
    <linearGradient
       id="linearGradient3015"
       inkscape:collect="always">
      <stop
         style="stop-color:#c7dfe6;stop-opacity:1"
         offset="0"
         id="stop3013" />
      <stop
         id="stop3011"
         offset="0.80060929"
         style="stop-color:#767a7b;stop-opacity:1" />
      <stop
         style="stop-color:#636262;stop-opacity:1"
         offset="1"
         id="stop3009" />
    </linearGradient>
    <linearGradient
       inkscape:collect="always"
       id="linearGradient2403">
      <stop
         style="stop-color:#50657e;stop-opacity:1;"
         offset="0"
         id="stop2399" />
      <stop
         style="stop-color:#444646;stop-opacity:1"
         offset="1"
         id="stop2401" />
    </linearGradient>
    <linearGradient
       id="linearGradient6987"
       osb:paint="solid">
      <stop
         style="stop-color:#77d2fb;stop-opacity:1;"
         offset="0"
         id="stop6985" />
    </linearGradient>
    <linearGradient
       inkscape:collect="always"
       xlink:href="#linearGradient3015"
       id="linearGradient1134"
       x1="-468.81375"
       y1="180.3156"
       x2="-466.79233"
       y2="321.19791"
       gradientUnits="userSpaceOnUse"
       gradientTransform="matrix(0.216019,0,0,0.21585227,117.37597,226.32229)" />
    <linearGradient
       inkscape:collect="always"
       xlink:href="#linearGradient2403"
       id="linearGradient2405"
       x1="-488.19037"
       y1="122.44934"
       x2="-488.09128"
       y2="264.24469"
       gradientUnits="userSpaceOnUse"
       gradientTransform="matrix(0.216019,0,0,0.21585227,125.11589,238.48844)" />
    <linearGradient
       inkscape:collect="always"
       id="linearGradient4538">
      <stop
         style="stop-color:#7d766f;stop-opacity:1"
         offset="0"
         id="stop4540" />
      <stop
         id="stop4542"
         offset="0.55045867"
         style="stop-color:#6f6963;stop-opacity:1" />
      <stop
         style="stop-color:#797573;stop-opacity:1"
         offset="1"
         id="stop4544" />
    </linearGradient>
    <linearGradient
       inkscape:collect="always"
       id="linearGradient3312">
      <stop
         style="stop-color:#7d766f;stop-opacity:1"
         offset="0"
         id="stop3314" />
      <stop
         id="stop3316"
         offset="0.55045867"
         style="stop-color:#c0bfb9;stop-opacity:1" />
      <stop
         style="stop-color:#adb3ae;stop-opacity:1"
         offset="1"
         id="stop3318" />
    </linearGradient>
    <linearGradient
       inkscape:collect="always"
       id="linearGradient3290">
      <stop
         style="stop-color:#e2dad2;stop-opacity:1"
         offset="0"
         id="stop3292" />
      <stop
         style="stop-color:#e0d5c5;stop-opacity:1"
         offset="1"
         id="stop3294" />
    </linearGradient>
    <linearGradient
       id="linearGradient3277"
       inkscape:collect="always">
      <stop
         id="stop3279"
         offset="0"
         style="stop-color:#d2cdc5;stop-opacity:1" />
      <stop
         id="stop3282"
         offset="1"
         style="stop-color:#cbc1b6;stop-opacity:1" />
    </linearGradient>
    <linearGradient
       id="linearGradient4183"
       inkscape:collect="always">
      <stop
         id="stop4185"
         offset="0"
         style="stop-color:#3c3e40;stop-opacity:1" />
      <stop
         style="stop-color:#414649;stop-opacity:1;"
         offset="0.26736978"
         id="stop3263" />
      <stop
         style="stop-color:#9fc8df;stop-opacity:1"
         offset="0.67471874"
         id="stop3245" />
      <stop
         id="stop4187"
         offset="1"
         style="stop-color:#6187a8;stop-opacity:1" />
    </linearGradient>
    <linearGradient
       id="linearGradient3335"
       inkscape:collect="always">
      <stop
         id="stop3337"
         offset="0"
         style="stop-color:#000000;stop-opacity:0" />
      <stop
         style="stop-color:#000000;stop-opacity:0"
         offset="0.92204487"
         id="stop3226" />
      <stop
         style="stop-color:#000000;stop-opacity:0.16862745;"
         offset="0.9329313"
         id="stop3343" />
      <stop
         id="stop3339"
         offset="1"
         style="stop-color:#000000;stop-opacity:0.75" />
    </linearGradient>
    <linearGradient
       id="linearGradient3325"
       inkscape:collect="always">
      <stop
         id="stop3327"
         offset="0"
         style="stop-color:#ffffff;stop-opacity:1;" />
      <stop
         id="stop3329"
         offset="1"
         style="stop-color:#ffffff;stop-opacity:0;" />
    </linearGradient>
    <linearGradient
       id="linearGradient3315"
       inkscape:collect="always">
      <stop
         id="stop3317"
         offset="0"
         style="stop-color:#393039;stop-opacity:1" />
      <stop
         style="stop-color:#504f4f;stop-opacity:1"
         offset="0.82274288"
         id="stop3319" />
      <stop
         id="stop3321"
         offset="1"
         style="stop-color:#101410;stop-opacity:1" />
    </linearGradient>
    <linearGradient
       id="linearGradient3279"
       inkscape:collect="always">
      <stop
         id="stop3281"
         offset="0"
         style="stop-color:#7d766f;stop-opacity:1" />
      <stop
         style="stop-color:#e6e6e6;stop-opacity:1"
         offset="0.55045867"
         id="stop3288" />
      <stop
         id="stop3283"
         offset="1"
         style="stop-color:#adb3ae;stop-opacity:1" />
    </linearGradient>
    <linearGradient
       inkscape:collect="always"
       id="linearGradient7783">
      <stop
         style="stop-color:#393039;stop-opacity:1"
         offset="0"
         id="stop7785" />
      <stop
         id="stop7787"
         offset="0.88647312"
         style="stop-color:#504f4f;stop-opacity:1" />
      <stop
         style="stop-color:#101410;stop-opacity:1"
         offset="1"
         id="stop7789" />
    </linearGradient>
    <linearGradient
       inkscape:collect="always"
       id="linearGradient3254">
      <stop
         style="stop-color:#b5b8b7;stop-opacity:1"
         offset="0"
         id="stop3256" />
      <stop
         style="stop-color:#d7e9ed;stop-opacity:1"
         offset="1"
         id="stop3260" />
    </linearGradient>
    <linearGradient
       gradientTransform="matrix(0.57842959,0,0,0.57842959,36.316189,251.81337)"
       y2="24.092505"
       x2="-33.254196"
       y1="71.087158"
       x1="-33.254196"
       gradientUnits="userSpaceOnUse"
       id="linearGradient3278"
       xlink:href="#linearGradient3254"
       inkscape:collect="always" />
    <radialGradient
       gradientTransform="matrix(0.56340543,0,0,0.56340543,35.812734,252.5318)"
       r="23.728302"
       fy="49.329655"
       fx="-33.509434"
       cy="49.329655"
       cx="-33.509434"
       gradientUnits="userSpaceOnUse"
       id="radialGradient3280"
       xlink:href="#linearGradient7783"
       inkscape:collect="always" />
    <linearGradient
       gradientUnits="userSpaceOnUse"
       y2="23.103079"
       x2="-20.20002"
       y1="94.89727"
       x1="-20.20002"
       id="linearGradient3331"
       xlink:href="#linearGradient3325"
       inkscape:collect="always"
       gradientTransform="matrix(1.4347726,0,0,1.4347726,69.939409,56.799572)" />
    <filter
       id="filter4169"
       inkscape:collect="always">
      <feGaussianBlur
         id="feGaussianBlur4171"
         stdDeviation="1.5096852"
         inkscape:collect="always" />
    </filter>
    <filter
       height="1.2103585"
       y="-0.10517926"
       width="1.2103586"
       x="-0.10517931"
       id="filter4134"
       inkscape:collect="always">
      <feGaussianBlur
         id="feGaussianBlur4136"
         stdDeviation="1.9789596"
         inkscape:collect="always" />
    </filter>
    <radialGradient
       r="23.547171"
       fy="47.577942"
       fx="-41.395729"
       cy="47.577942"
       cx="-41.395729"
       gradientTransform="matrix(0,-1.4426517,1.440891,0,48.802216,64.325254)"
       gradientUnits="userSpaceOnUse"
       id="radialGradient4703"
       xlink:href="#linearGradient3335"
       inkscape:collect="always" />
    <linearGradient
       y2="16.078253"
       x2="-44.827904"
       y1="71.921013"
       x1="-44.827904"
       gradientTransform="matrix(1.4749701,0,0,1.4749701,182.82122,56.738948)"
       gradientUnits="userSpaceOnUse"
       id="linearGradient4710"
       xlink:href="#linearGradient4538"
       inkscape:collect="always" />
    <radialGradient
       r="23.547171"
       fy="47.577942"
       fx="-41.395729"
       cy="47.577942"
       cx="-41.395729"
       gradientTransform="matrix(0,-1.4426517,1.440891,0,-58.330707,64.325254)"
       gradientUnits="userSpaceOnUse"
       id="radialGradient4717"
       xlink:href="#linearGradient3335"
       inkscape:collect="always" />
    <linearGradient
       y2="16.078253"
       x2="-44.827904"
       y1="71.921013"
       x1="-44.827904"
       gradientTransform="matrix(1.4749701,0,0,1.4749701,75.688297,56.738948)"
       gradientUnits="userSpaceOnUse"
       id="linearGradient4724"
       xlink:href="#linearGradient4538"
       inkscape:collect="always" />
    <radialGradient
       r="23.728302"
       fy="49.329655"
       fx="-33.509434"
       cy="49.329655"
       cx="-33.509434"
       gradientUnits="userSpaceOnUse"
       id="radialGradient4785"
       xlink:href="#linearGradient7783"
       inkscape:collect="always"
       gradientTransform="matrix(0.56340543,0,0,0.56340543,35.812735,252.5318)" />
    <radialGradient
       r="23.547171"
       fy="48.942379"
       fx="-41.660378"
       cy="48.942379"
       cx="-41.660378"
       gradientUnits="userSpaceOnUse"
       id="radialGradient4683"
       xlink:href="#linearGradient3315"
       inkscape:collect="always" />
    <radialGradient
       r="23.547171"
       fy="47.577942"
       fx="-41.395729"
       cy="47.577942"
       cx="-41.395729"
       gradientTransform="matrix(1.6777742e-8,-1.0196015,1.0183571,1.6757265e-8,-90.070954,4.6681172)"
       gradientUnits="userSpaceOnUse"
       id="radialGradient4687"
       xlink:href="#linearGradient3335"
       inkscape:collect="always" />
    <linearGradient
       inkscape:collect="always"
       xlink:href="#linearGradient3279"
       id="linearGradient2848"
       gradientUnits="userSpaceOnUse"
       gradientTransform="translate(92.473559,956.36218)"
       x1="-44.827904"
       y1="71.921013"
       x2="-44.827904"
       y2="16.078253" />
    <linearGradient
       inkscape:collect="always"
       xlink:href="#linearGradient3325"
       id="linearGradient2850"
       gradientUnits="userSpaceOnUse"
       x1="-20.20002"
       y1="94.89727"
       x2="-20.20002"
       y2="23.103079" />
    <linearGradient
       inkscape:collect="always"
       xlink:href="#linearGradient3312"
       id="linearGradient2852"
       gradientUnits="userSpaceOnUse"
       gradientTransform="matrix(0.95918873,0,0,0.95918873,88.011085,957.03195)"
       x1="-42.061127"
       y1="70.317726"
       x2="-42.061127"
       y2="23.659529" />
    <linearGradient
       inkscape:collect="always"
       xlink:href="#linearGradient4183"
       id="linearGradient2854"
       gradientUnits="userSpaceOnUse"
       x1="-40.480095"
       y1="69.188431"
       x2="-40.480095"
       y2="23.095079" />
    <linearGradient
       inkscape:collect="always"
       xlink:href="#linearGradient3277"
       id="linearGradient2856"
       gradientUnits="userSpaceOnUse"
       x1="-41.207497"
       y1="68.681381"
       x2="-41.207497"
       y2="22.302006" />
    <linearGradient
       inkscape:collect="always"
       xlink:href="#linearGradient4183"
       id="linearGradient2858"
       gradientUnits="userSpaceOnUse"
       x1="-43.945293"
       y1="69.064713"
       x2="-43.945293"
       y2="23.632414" />
    <linearGradient
       inkscape:collect="always"
       xlink:href="#linearGradient3290"
       id="linearGradient2860"
       gradientUnits="userSpaceOnUse"
       x1="-41.575233"
       y1="69.831833"
       x2="-41.575233"
       y2="23.857725" />
  </defs>
  <sodipodi:namedview
     id="base"
     pagecolor="#ffffff"
     bordercolor="#666666"
     borderopacity="1.0"
     inkscape:pageopacity="0.0"
     inkscape:pageshadow="2"
     inkscape:zoom="2.9258132"
     inkscape:cx="108.16725"
     inkscape:cy="16.042399"
     inkscape:document-units="mm"
     inkscape:current-layer="layer1"
     showgrid="false"
     units="px"
     width="128px"
     inkscape:window-width="1920"
     inkscape:window-height="1025"
     inkscape:window-x="0"
     inkscape:window-y="32"
     inkscape:window-maximized="1"
     inkscape:measure-start="-293.521,100.415"
     inkscape:measure-end="-294.709,409.978"
     showguides="false" />
  <metadata
     id="metadata4939">
    <rdf:RDF>
      <cc:Work
         rdf:about="">
        <dc:format>image/svg+xml</dc:format>
        <dc:type
           rdf:resource="http://purl.org/dc/dcmitype/StillImage" />
        <dc:title />
      </cc:Work>
    </rdf:RDF>
  </metadata>
  <g
     inkscape:label="Layer 1"
     inkscape:groupmode="layer"
     id="layer1"
     transform="translate(0,-263.13332)">
    <rect
       style="opacity:1;fill:url(#linearGradient1134);fill-opacity:1;fill-rule:nonzero;stroke:url(#linearGradient2405);stroke-width:0.50128531;stroke-linecap:round;stroke-linejoin:round;stroke-miterlimit:4;stroke-dasharray:none;stroke-dashoffset:0;stroke-opacity:1"
       id="rect1126"
       width="32.836212"
       height="30.721842"
       x="0.51522726"
       y="264.70572"
       ry="1.4207363" />
    <circle
       id="path3248"
       style="fill:url(#linearGradient3278);fill-opacity:1;stroke:none;stroke-width:0.19608179"
       cx="16.933336"
       cy="279.47321"
       r="13.725152" />
    <circle
       style="fill:url(#radialGradient3280);fill-opacity:1;stroke:none;stroke-width:0.19098878"
       id="path3236"
       cx="16.933336"
       cy="279.47321"
       r="13.368653" />
    <path
       inkscape:connector-curvature="0"
       id="path3345"
       d="m 47.692309,1027.6301 c -0.476016,0 -0.726457,0.2359 -1.0625,1.875 -0.336042,1.6391 -0.71875,2.5938 -0.71875,2.5938 -0.753903,0.064 -1.485639,0.1508 -2.21875,0.2812 0,0 -0.626199,-0.785 -1.375,-2.2812 -0.561593,-1.1223 -0.87636,-1.522 -1.1875,-1.5938 -0.103713,-0.024 -0.197366,10e-4 -0.3125,0.031 l -0.71875,0.1875 c -0.360417,0.096 -0.58894,0.5304 -0.40625,2 0.180011,1.4435 -0.114286,2.7339 -0.125,2.7813 -0.702335,0.2562 -1.391516,0.5274 -2.0625,0.8437 0,0 -0.795707,-0.6235 -1.90625,-1.875 -0.832918,-0.9387 -1.237282,-1.2288 -1.5625,-1.2187 -0.108406,0 -0.209103,0.035 -0.3125,0.094 l -0.625,0.375 c -0.323266,0.1861 -0.431828,0.6902 0.125,2.0625 0.53789,1.3241 0.619898,2.5953 0.625,2.6875 -0.616114,0.4316 -1.207997,0.8904 -1.78125,1.375 v -0.031 c 0,0 -0.915896,-0.3599 -2.3125,-1.2813 -1.047481,-0.6911 -1.525836,-0.8773 -1.84375,-0.7812 -0.105971,0.032 -0.196636,0.1037 -0.28125,0.1875 l -0.53125,0.5312 c -0.264083,0.2634 -0.205518,0.7561 0.6875,1.9375 0.893823,1.1815 1.28125,2.5 1.28125,2.5 -0.466526,0.5573 -0.926938,1.1214 -1.34375,1.7188 h -0.03125 c 0,0 -0.975013,-0.159 -2.5625,-0.6875 -0.793774,-0.2643 -1.275351,-0.3819 -1.59375,-0.375 -0.318399,0.01 -0.473621,0.1382 -0.59375,0.3437 l -0.375,0.6563 c -0.186904,0.3228 -0.04335,0.8087 1.125,1.7187 1.169155,0.9099 1.90625,2.0625 1.90625,2.0625 -0.308737,0.6637 -0.593672,1.3372 -0.84375,2.0312 l -0.03125,-0.031 c 0,0 -1.017314,0.1309 -2.6875,0.031 -0.417566,-0.025 -0.735237,-0.043 -1,-0.031 -0.794289,0.037 -0.999482,0.2494 -1.09375,0.5938 l -0.21875,0.7187 c -0.09699,0.3602 0.198431,0.7672 1.5625,1.3438 1.364812,0.5763 2.375,1.5 2.375,1.5 -0.124766,0.717 -0.219564,1.4507 -0.28125,2.1875 h -0.0625 c 0,0 -0.923446,0.3827 -2.5625,0.7187 -1.639153,0.336 -1.903697,0.5864 -1.90625,1.0625 v 0.75 c -4.63e-4,0.373 0.376927,0.7024 1.84375,0.9063 1.467458,0.2034 2.6875,0.8437 2.6875,0.8437 0.06441,0.7331 0.154365,1.4429 0.28125,2.1563 l -0.0625,0.031 c 0,0 -0.785017,0.595 -2.28125,1.3438 -1.496336,0.7488 -1.683247,1.0707 -1.5625,1.5312 l 0.1875,0.7188 c 0.09609,0.3604 0.530388,0.5889 2,0.4062 1.470109,-0.1833 2.84375,0.125 2.84375,0.125 0.253618,0.6927 0.531612,1.3692 0.84375,2.0313 h -0.0625 c 0,0 -0.623544,0.7957 -1.875,1.9062 -1.251537,1.1106 -1.32958,1.4614 -1.09375,1.875 l 0.375,0.6563 c 0.186107,0.3233 0.659017,0.4319 2.03125,-0.125 1.372587,-0.5575 2.75,-0.625 2.75,-0.625 0.420627,0.5988 0.904305,1.1605 1.375,1.7187 l -0.03125,0.031 -0.03125,0.031 c 0,0 -0.391116,0.9159 -1.3125,2.3125 -0.921442,1.3967 -0.928573,1.7866 -0.59375,2.125 l 0.53125,0.5 c 0.263465,0.2642 0.756165,0.2369 1.9375,-0.6562 1.181514,-0.8938 2.5,-1.2813 2.5,-1.2813 l 0.03125,-0.031 c 0.556077,0.4657 1.122764,0.9276 1.71875,1.3437 l -0.03125,0.062 c 0,0 -0.127732,0.975 -0.65625,2.5625 -0.528551,1.5876 -0.442245,1.9473 -0.03125,2.1875 l 0.625,0.375 c 0.322866,0.187 0.808841,0.043 1.71875,-1.125 0.909934,-1.1691 2.0625,-1.9062 2.0625,-1.9062 l 0.03125,-0.031 c 0.654416,0.3054 1.315988,0.5955 2,0.8438 v 0.062 c 0,0 0.130884,0.986 0.03125,2.6562 -0.09964,1.6703 0.0721,1.9994 0.53125,2.125 l 0.71875,0.1875 c 0.360246,0.097 0.767413,-0.1665 1.34375,-1.5312 0.576336,-1.3648 1.5,-2.375 1.5,-2.375 v -0.031 c 0.723311,0.1278 1.443987,0.2178 2.1875,0.2813 v 0.031 0.062 c 0,0 0.382708,0.9234 0.71875,2.5625 0.336043,1.6391 0.586484,1.9038 1.0625,1.9063 h 0.75 c 0.372954,0 0.702771,-0.3764 0.90625,-1.8438 0.203479,-1.4674 0.84375,-2.6875 0.84375,-2.6875 v -0.031 c 0.733124,-0.063 1.442749,-0.1562 2.15625,-0.2813 v 0.031 0.031 c 0,0 0.923518,0.9792 1.5,2.3438 0.576308,1.3647 0.983657,1.63 1.34375,1.5312 l 0.71875,-0.1875 c 0.459252,-0.1257 0.662013,-0.4235 0.5625,-2.0937 -0.09971,-1.6701 0,-2.6875 0,-2.6875 v -0.062 c 0.693531,-0.2508 1.368091,-0.5344 2.03125,-0.8438 v 0.031 c 0,0 1.152476,0.7373 2.0625,1.9062 0.909898,1.1691 1.396489,1.3136 1.71875,1.125 l 0.625,-0.375 c 0.411065,-0.2403 0.528419,-0.5686 0,-2.1562 -0.528568,-1.5874 -0.6875,-2.5938 -0.6875,-2.5938 l -0.03125,-0.062 c 0.597645,-0.4164 1.192392,-0.8463 1.75,-1.3125 h 0.03125 c 0,0 1.287212,0.3878 2.46875,1.2813 1.181489,0.8938 1.675012,0.953 1.9375,0.6875 l 0.53125,-0.5313 c 0.334865,-0.3385 0.358806,-0.697 -0.5625,-2.0937 -0.921405,-1.3965 -1.34375,-2.3438 -1.34375,-2.3438 l -0.03125,-0.031 c 0.472381,-0.5592 0.921654,-1.1501 1.34375,-1.75 l 0.03125,0.031 c 0,0 1.346204,0.036 2.71875,0.5938 1.372549,0.5575 1.846425,0.4494 2.03125,0.125 l 0.375,-0.6563 c 0.235854,-0.4136 0.157641,-0.7331 -1.09375,-1.8437 -1.251466,-1.1105 -1.875,-1.9063 -1.875,-1.9063 l -0.03125,-0.031 c 0.312138,-0.6621 0.590132,-1.3386 0.84375,-2.0313 0,0 1.311197,-0.3082 2.78125,-0.125 1.470055,0.1832 1.936662,-0.045 2.03125,-0.4062 l 0.1875,-0.7188 c 0.120783,-0.4605 -0.03507,-0.7512 -1.53125,-1.5 -1.496253,-0.7488 -2.3125,-1.375 -2.3125,-1.375 l -0.03125,-0.031 c 0.126885,-0.7134 0.216838,-1.4232 0.28125,-2.1563 0,0 1.188866,-0.6402 2.65625,-0.8437 1.467385,-0.2035 1.845744,-0.5334 1.84375,-0.9063 v -0.75 c -0.0025,-0.476 -0.235983,-0.7264 -1.875,-1.0625 -1.639074,-0.336 -2.59375,-0.7187 -2.59375,-0.7187 h -0.03125 c -0.06169,-0.7368 -0.156484,-1.4705 -0.28125,-2.1875 0,0 0.979029,-0.9237 2.34375,-1.5 1.364718,-0.5764 1.629704,-0.984 1.53125,-1.3438 l -0.1875,-0.7187 c -0.12561,-0.4592 -0.423594,-0.6621 -2.09375,-0.5625 -1.670206,0.1 -2.6875,-0.031 -2.6875,-0.031 -0.247635,-0.6848 -0.538969,-1.3448 -0.84375,-2 0,0 0.705946,-1.1526 1.875,-2.0625 1.16905,-0.9099 1.313204,-1.3968 1.125,-1.7187 l -0.375,-0.6563 c -0.120083,-0.2055 -0.251893,-0.3369 -0.5625,-0.3437 -0.310607,-0.01 -0.800011,0.1107 -1.59375,0.375 -1.587508,0.5285 -2.59375,0.6875 -2.59375,0.6875 -0.425188,-0.6094 -0.898113,-1.1824 -1.375,-1.75 0,0 -2.31e-4,-0.03 0,-0.031 0.01317,-0.043 0.402941,-1.2764 1.28125,-2.4375 0.893713,-1.1815 0.952629,-1.6752 0.6875,-1.9375 l -0.53125,-0.5313 c -0.126883,-0.1256 -0.251218,-0.2141 -0.4375,-0.2187 -0.310469,-0.01 -0.783373,0.2054 -1.65625,0.7812 -1.396624,0.9214 -2.34375,1.3125 -2.34375,1.3125 -0.55805,-0.4699 -1.151477,-0.8926 -1.75,-1.3125 0,0 -2.7e-5,-0.03 0,-0.031 0.0015,-0.048 0.04647,-1.3401 0.59375,-2.6875 0.557472,-1.3725 0.448985,-1.8777 0.125,-2.0625 l -0.625,-0.375 c -0.155057,-0.088 -0.287924,-0.1389 -0.46875,-0.094 -0.301377,0.075 -0.712154,0.4054 -1.40625,1.1875 -1.110561,1.2515 -1.90625,1.9063 -1.90625,1.9063 -0.674582,-0.3171 -1.356321,-0.6187 -2.0625,-0.875 -0.02052,-0.09 -0.301599,-1.302 -0.125,-2.7188 0.183241,-1.47 -0.04549,-1.9366 -0.40625,-2.0312 l -0.71875,-0.1875 c -0.11511,-0.03 -0.208794,-0.052 -0.3125,-0.031 -0.311119,0.063 -0.625884,0.4403 -1.1875,1.5625 -0.748816,1.4962 -1.375,2.3125 -1.375,2.3125 -0.723311,-0.1278 -1.443987,-0.2178 -2.1875,-0.2813 -0.0208,-0.039 -0.643681,-1.1822 -0.84375,-2.625 -0.203479,-1.4674 -0.533296,-1.8457 -0.90625,-1.8437 h -0.75 z"
       style="opacity:0.8;fill:#000000;fill-opacity:1;stroke:none;stroke-width:0.33898991;filter:url(#filter4169)"
       transform="matrix(0.3902525,0,0,0.3902525,-1.7987809,-131.70858)" />
    <g
       style="stroke-width:0.33898991"
       id="g4169"
       transform="matrix(0.3902525,0,0,0.3902525,-1.8119169,-111.38397)">
      <path
         inkscape:connector-curvature="0"
         id="path3211"
         d="m 47.692309,972.36218 c -0.476016,0.002 -0.726457,0.23591 -1.0625,1.875 -0.336042,1.63908 -0.71875,2.59375 -0.71875,2.59375 -0.753903,0.0644 -1.485639,0.15086 -2.21875,0.28125 0,0 -0.626199,-0.78501 -1.375,-2.28125 -0.561593,-1.12225 -0.87636,-1.52198 -1.1875,-1.59375 -0.103713,-0.0239 -0.197366,0.001 -0.3125,0.0312 l -0.71875,0.1875 c -0.360417,0.0961 -0.58894,0.53039 -0.40625,2 0.180011,1.44347 -0.114286,2.73387 -0.125,2.78125 -0.702335,0.2562 -1.391516,0.52743 -2.0625,0.84375 0,0 -0.795707,-0.62354 -1.90625,-1.875 -0.832918,-0.93866 -1.237282,-1.22884 -1.5625,-1.21875 -0.108406,0.003 -0.209103,0.0348 -0.3125,0.0937 l -0.625,0.375 c -0.323266,0.1861 -0.431828,0.69025 0.125,2.0625 0.53789,1.3241 0.619898,2.59533 0.625,2.6875 -0.616114,0.4316 -1.207997,0.89049 -1.78125,1.375 v -0.0312 c 0,0 -0.915896,-0.35986 -2.3125,-1.28125 -1.047481,-0.6911 -1.525836,-0.87732 -1.84375,-0.78125 -0.105971,0.032 -0.196636,0.10379 -0.28125,0.1875 l -0.53125,0.53125 c -0.264083,0.26343 -0.205518,0.75613 0.6875,1.9375 0.893823,1.18148 1.28125,2.5 1.28125,2.5 -0.466526,0.55726 -0.926938,1.12143 -1.34375,1.71875 h -0.03125 c 0,0 -0.975013,-0.15898 -2.5625,-0.6875 -0.793774,-0.2643 -1.275351,-0.38188 -1.59375,-0.375 -0.318399,0.007 -0.473621,0.13823 -0.59375,0.34375 l -0.375,0.65625 c -0.186904,0.3228 -0.04335,0.80876 1.125,1.71875 1.169155,0.90988 1.90625,2.0625 1.90625,2.0625 -0.308737,0.66373 -0.593672,1.33718 -0.84375,2.03125 l -0.03125,-0.0312 c 0,0 -1.017314,0.13089 -2.6875,0.0312 -0.417566,-0.0249 -0.735237,-0.0434 -1,-0.0312 -0.794289,0.0366 -0.999482,0.24935 -1.09375,0.59375 l -0.21875,0.71875 c -0.09699,0.36017 0.198431,0.76716 1.5625,1.34375 1.364812,0.57628 2.375,1.5 2.375,1.5 -0.124766,0.71702 -0.219564,1.45073 -0.28125,2.1875 h -0.0625 c 0,0 -0.923446,0.38268 -2.5625,0.71872 -1.639153,0.336 -1.903697,0.5864 -1.90625,1.0625 v 0.75 c -4.63e-4,0.373 0.376927,0.7024 1.84375,0.9063 1.467458,0.2034 2.6875,0.8437 2.6875,0.8437 0.06441,0.7331 0.154365,1.4429 0.28125,2.1563 l -0.0625,0.031 c 0,0 -0.785017,0.595 -2.28125,1.3438 -1.496336,0.7488 -1.683247,1.0707 -1.5625,1.5312 l 0.1875,0.7188 c 0.09609,0.3604 0.530388,0.5889 2,0.4062 1.470109,-0.1833 2.84375,0.125 2.84375,0.125 0.253618,0.6927 0.531612,1.3692 0.84375,2.0313 h -0.0625 c 0,0 -0.623544,0.7957 -1.875,1.9062 -1.251537,1.1106 -1.32958,1.4614 -1.09375,1.875 l 0.375,0.6563 c 0.186107,0.3233 0.659017,0.4319 2.03125,-0.125 1.372587,-0.5575 2.75,-0.625 2.75,-0.625 0.420627,0.5988 0.904305,1.1605 1.375,1.7187 l -0.03125,0.031 -0.03125,0.031 c 0,0 -0.391116,0.9159 -1.3125,2.3125 -0.921442,1.3967 -0.928573,1.7866 -0.59375,2.125 l 0.53125,0.5 c 0.263465,0.2642 0.756165,0.2369 1.9375,-0.6562 1.181514,-0.8938 2.5,-1.2813 2.5,-1.2813 l 0.03125,-0.031 c 0.556077,0.4657 1.122764,0.9276 1.71875,1.3437 l -0.03125,0.062 c 0,0 -0.127732,0.975 -0.65625,2.5625 -0.528551,1.5876 -0.442245,1.9473 -0.03125,2.1875 l 0.625,0.375 c 0.322866,0.187 0.808841,0.043 1.71875,-1.125 0.909934,-1.1691 2.0625,-1.9062 2.0625,-1.9062 l 0.03125,-0.031 c 0.654416,0.3054 1.315988,0.5955 2,0.8438 v 0.062 c 0,0 0.130884,0.986 0.03125,2.6562 -0.09964,1.6703 0.0721,1.9994 0.53125,2.125 l 0.71875,0.1875 c 0.360246,0.097 0.767413,-0.1665 1.34375,-1.5312 0.576336,-1.3648 1.5,-2.375 1.5,-2.375 v -0.031 c 0.723311,0.1278 1.443987,0.2178 2.1875,0.2813 v 0.031 0.062 c 0,0 0.382708,0.9234 0.71875,2.5625 0.336043,1.6391 0.586484,1.9038 1.0625,1.9063 h 0.75 c 0.372954,0 0.702771,-0.3764 0.90625,-1.8438 0.203479,-1.4674 0.84375,-2.6875 0.84375,-2.6875 v -0.031 c 0.733124,-0.063 1.442749,-0.1562 2.15625,-0.2813 v 0.031 0.031 c 0,0 0.923518,0.9792 1.5,2.3438 0.576308,1.3647 0.983657,1.63 1.34375,1.5312 l 0.71875,-0.1875 c 0.459252,-0.1257 0.662013,-0.4235 0.5625,-2.0937 -0.09971,-1.6701 0,-2.6875 0,-2.6875 v -0.062 c 0.693531,-0.2508 1.368091,-0.5344 2.03125,-0.8438 v 0.031 c 0,0 1.152476,0.7373 2.0625,1.9062 0.909898,1.1691 1.396489,1.3136 1.71875,1.125 l 0.625,-0.375 c 0.411065,-0.2403 0.528419,-0.5686 0,-2.1562 -0.528568,-1.5874 -0.6875,-2.5938 -0.6875,-2.5938 l -0.03125,-0.062 c 0.597645,-0.4164 1.192392,-0.8463 1.75,-1.3125 h 0.03125 c 0,0 1.287212,0.3878 2.46875,1.2813 1.181489,0.8938 1.675012,0.953 1.9375,0.6875 l 0.53125,-0.5313 c 0.334865,-0.3385 0.358806,-0.697 -0.5625,-2.0937 -0.921405,-1.3965 -1.34375,-2.3438 -1.34375,-2.3438 l -0.03125,-0.031 c 0.472381,-0.5592 0.921654,-1.1501 1.34375,-1.75 l 0.03125,0.031 c 0,0 1.346204,0.036 2.71875,0.5938 1.372549,0.5575 1.846425,0.4494 2.03125,0.125 l 0.375,-0.6563 c 0.235854,-0.4136 0.157641,-0.7331 -1.09375,-1.8437 -1.251466,-1.1105 -1.875,-1.9063 -1.875,-1.9063 l -0.03125,-0.031 c 0.312138,-0.6621 0.590132,-1.3386 0.84375,-2.0313 0,0 1.311197,-0.3082 2.78125,-0.125 1.470055,0.1832 1.936662,-0.045 2.03125,-0.4062 l 0.1875,-0.7188 c 0.120783,-0.4605 -0.03507,-0.7512 -1.53125,-1.5 -1.496253,-0.7488 -2.3125,-1.375 -2.3125,-1.375 l -0.03125,-0.031 c 0.126885,-0.7134 0.216838,-1.4232 0.28125,-2.1563 0,0 1.188866,-0.6402 2.65625,-0.8437 1.467385,-0.2035 1.845744,-0.5334 1.84375,-0.9063 v -0.75 c -0.0025,-0.476 -0.235983,-0.7264 -1.875,-1.0625 -1.639074,-0.336 -2.59375,-0.71872 -2.59375,-0.71872 h -0.03125 c -0.06169,-0.73677 -0.156484,-1.47048 -0.28125,-2.1875 0,0 0.979029,-0.92367 2.34375,-1.5 1.364718,-0.57634 1.629704,-0.98402 1.53125,-1.34375 l -0.1875,-0.71875 c -0.12561,-0.45914 -0.423594,-0.66207 -2.09375,-0.5625 -1.670206,0.0996 -2.6875,-0.0312 -2.6875,-0.0312 -0.247635,-0.68481 -0.538969,-1.34478 -0.84375,-2 0,0 0.705946,-1.15259 1.875,-2.0625 1.16905,-0.90991 1.313204,-1.39676 1.125,-1.71875 l -0.375,-0.65625 c -0.120083,-0.20549 -0.251893,-0.33688 -0.5625,-0.34375 -0.310607,-0.007 -0.800011,0.11078 -1.59375,0.375 -1.587508,0.52852 -2.59375,0.6875 -2.59375,0.6875 -0.425188,-0.60932 -0.898113,-1.18239 -1.375,-1.75 0,0 -2.31e-4,-0.0305 0,-0.0312 0.01317,-0.0432 0.402941,-1.27639 1.28125,-2.4375 0.893713,-1.18148 0.952629,-1.67519 0.6875,-1.9375 l -0.53125,-0.53125 c -0.126883,-0.12556 -0.251218,-0.21407 -0.4375,-0.21875 -0.310469,-0.008 -0.783373,0.20541 -1.65625,0.78125 -1.396624,0.92139 -2.34375,1.3125 -2.34375,1.3125 -0.55805,-0.46994 -1.151477,-0.89256 -1.75,-1.3125 0,0 -2.7e-5,-0.0304 0,-0.0312 0.0015,-0.0479 0.04647,-1.34008 0.59375,-2.6875 0.557472,-1.37253 0.448985,-1.87775 0.125,-2.0625 l -0.625,-0.375 c -0.155057,-0.0884 -0.287924,-0.13894 -0.46875,-0.0937 -0.301377,0.0753 -0.712154,0.40536 -1.40625,1.1875 -1.110561,1.25147 -1.90625,1.90625 -1.90625,1.90625 -0.674582,-0.31706 -1.356321,-0.61867 -2.0625,-0.875 -0.02052,-0.0901 -0.301599,-1.30198 -0.125,-2.71875 0.183241,-1.47004 -0.04549,-1.93665 -0.40625,-2.03125 l -0.71875,-0.1875 c -0.11511,-0.0302 -0.208794,-0.0522 -0.3125,-0.0312 -0.311119,0.063 -0.625884,0.44034 -1.1875,1.5625 -0.748816,1.49626 -1.375,2.3125 -1.375,2.3125 -0.723311,-0.12772 -1.443987,-0.21776 -2.1875,-0.28125 -0.0208,-0.0389 -0.643681,-1.18221 -0.84375,-2.625 -0.203479,-1.46738 -0.533296,-1.84575 -0.90625,-1.84375 h -0.75 z"
         style="fill:url(#linearGradient2848);fill-opacity:1;stroke:none;stroke-width:0.33898991" />
      <circle
         style="fill:url(#linearGradient2850);fill-opacity:1;stroke:none;stroke-width:0.33898991"
         id="path3213"
         transform="matrix(0.9727469,0,0,0.9727469,88.575924,956.40326)"
         cx="-41.660378"
         cy="46.369808"
         r="23.547171" />
      <circle
         style="opacity:0.75;fill:#ffffff;fill-opacity:1;stroke:none;stroke-width:0.33898991"
         id="path3217"
         transform="matrix(0.87759949,0,0,0.87759949,84.612047,960.81523)"
         cx="-41.660378"
         cy="46.369808"
         r="23.547171" />
      <circle
         transform="matrix(0.86509949,0,0,0.86509949,84.091292,961.39485)"
         id="path3219"
         style="opacity:0.2;fill:#000000;fill-opacity:1;stroke:none;stroke-width:0.33898991"
         cx="-41.660378"
         cy="46.369808"
         r="23.547171" />
      <circle
         style="fill:url(#radialGradient4683);fill-opacity:1;stroke:none;stroke-width:0.33898991"
         id="path3221"
         transform="matrix(0.8525995,0,0,0.8525995,83.570537,961.97448)"
         cx="-41.660378"
         cy="46.369808"
         r="23.547171" />
      <path
         id="path3320"
         transform="translate(0,956.36218)"
         d="m 48.03125,25.375 c -8.795147,0 -16.401737,5.035188 -20.125,12.375 v 5.71875 c 0.736566,-3.28226 2.224263,-6.289149 4.3125,-8.78125 1.124691,-0.61387 2.054136,-0.99071 2.875,-0.96875 0.933011,0.025 1.724835,0.54694 2.4375,1.78125 l 5.4375,9.40625 c 1.093694,1.8944 0.744303,4.58415 -0.34375,6.46875 l -5.25,9.09375 c -0.546396,0.946448 -1.0843,1.564758 -1.84375,1.75 v 1.5 H 42 V 64.75 h 0.03125 c 0.07942,-0.434697 0.256287,-0.907117 0.5625,-1.4375 l 5.59375,-9.71875 c 1.031366,-1.7863 2.393354,-2.65625 4.78125,-2.65625 H 64.0625 c 1.438943,0 2.368759,0.315918 2.875,1.40625 v -9.0625 C 66.512111,44.418268 65.646088,45 63.9375,45 H 52.90625 c -1.948434,0 -3.645176,-1.03833 -4.5625,-2.625 l -5.75,-9.96875 c -1.09696,-1.89986 -0.969686,-3.11928 1.6875,-4.78125 1.217027,-0.22386 2.468218,-0.34375 3.75,-0.34375 8.438172,0 15.690051,5.087924 18.90625,12.34375 V 35.59375 C 62.89952,29.443228 55.935244,25.375 48.03125,25.375 Z m -20.125,27.15625 V 54.875 h 0.6875 c -0.267557,-0.76071 -0.507179,-1.545907 -0.6875,-2.34375 z"
         style="opacity:0.82186202;fill:#000000;fill-opacity:1;stroke:none;stroke-width:0.33898991;filter:url(#filter4134)"
         inkscape:connector-curvature="0" />
      <path
         inkscape:connector-curvature="0"
         id="path3215"
         d="m 48.036059,978.92468 c -12.474003,0 -22.5625,10.11975 -22.5625,22.59372 0,12.474 10.088497,22.5625 22.5625,22.5625 12.474003,0 22.59375,-10.0885 22.59375,-22.5625 0,-12.47397 -10.119747,-22.59372 -22.59375,-22.59372 z m 0,1.90625 c 8.766932,0 16.272448,5.47689 19.28125,13.1875 -0.02278,2.95945 -0.585468,4.53125 -3.375,4.53125 h -11.03125 c -1.948434,0 -3.645176,-1.03838 -4.5625,-2.625 l -5.75,-9.96875 c -1.09696,-1.89986 -0.969686,-3.11928 1.6875,-4.78125 1.217027,-0.22386 2.468218,-0.34375 3.75,-0.34375 z m -12.9375,6.4375 c 0.933011,0.025 1.724835,0.54694 2.4375,1.78125 l 5.4375,9.40625 c 1.093694,1.89437 0.744303,4.58417 -0.34375,6.46877 l -5.25,9.0937 c -1.106707,1.917 -2.24006,2.4253 -5.0625,0.9063 -3.074862,-3.6062 -4.9375,-8.2927 -4.9375,-13.4063 0,-5.05642 1.8302,-9.68485 4.84375,-13.28122 1.124691,-0.61387 2.054136,-0.99071 2.875,-0.96875 z m 17.875,17.21877 h 11.09375 c 2.302309,0 3.318772,0.7675 3.34375,4.3125 -2.953355,7.8131 -10.528319,13.375 -19.375,13.375 -1.203923,0 -2.383917,-0.1151 -3.53125,-0.3125 -2.32114,-1.4201 -3.242453,-2.6856 -1.90625,-5 l 5.59375,-9.7188 c 1.031366,-1.7863 2.393354,-2.6562 4.78125,-2.6562 z"
         style="fill:url(#linearGradient2852);fill-opacity:1;stroke:none;stroke-width:0.33898991" />
      <circle
         transform="matrix(0.95928536,0,0,0.95928536,88.015111,957.02747)"
         id="path3333"
         style="fill:url(#radialGradient4687);fill-opacity:1;stroke:none;stroke-width:0.33898991"
         cx="-41.660378"
         cy="46.369808"
         r="23.547171" />
      <circle
         style="opacity:0.05;fill:#000000;fill-opacity:1;stroke:none;stroke-width:0.33898991"
         id="path3273"
         transform="matrix(0.13635585,0,0,0.13635585,53.680637,995.45748)"
         cx="-41.660378"
         cy="46.369808"
         r="23.547171" />
      <circle
         transform="matrix(0.12615719,0,0,0.12615719,53.255757,995.93039)"
         id="path3271"
         style="opacity:0.1;fill:#000000;fill-opacity:1;stroke:none;stroke-width:0.33898991"
         cx="-41.660378"
         cy="46.369808"
         r="23.547171" />
      <circle
         style="opacity:0.3;fill:#000000;fill-opacity:1;stroke:none;stroke-width:0.33898991"
         id="path3267"
         transform="matrix(0.1150995,0,0,0.1150995,52.795089,996.44313)"
         cx="-41.660378"
         cy="46.369808"
         r="23.547171" />
      <circle
         transform="matrix(0.11221488,0,0,0.11221488,52.674915,996.30597)"
         id="path3223"
         style="fill:url(#linearGradient2854);fill-opacity:1;stroke:none;stroke-width:0.33898991"
         cx="-41.660378"
         cy="46.369808"
         r="23.547171" />
      <circle
         style="fill:url(#linearGradient2856);fill-opacity:1;stroke:none;stroke-width:0.33898991"
         id="path3225"
         transform="matrix(0.10356104,0,0,0.10356104,52.297387,996.70725)"
         cx="-41.660378"
         cy="46.369808"
         r="23.547171" />
      <circle
         transform="matrix(0.09364401,0,0,0.09364401,51.88424,997.1671)"
         id="path3275"
         style="fill:#b3aca4;fill-opacity:1;stroke:none;stroke-width:0.33898991"
         cx="-41.660378"
         cy="46.369808"
         r="23.547171" />
      <circle
         style="opacity:0.2;fill:#000000;fill-opacity:1;stroke:none;stroke-width:0.33898991"
         id="path3231"
         transform="matrix(0.07183027,0,0,0.07183027,51.043396,998.60879)"
         cx="-41.660378"
         cy="46.369808"
         r="23.547171" />
      <circle
         transform="matrix(0.07183027,0,0,0.07183027,51.043396,998.1786)"
         id="path3227"
         style="fill:url(#linearGradient2858);fill-opacity:1;stroke:none;stroke-width:0.33898991"
         cx="-41.660378"
         cy="46.369808"
         r="23.547171" />
      <circle
         style="fill:url(#linearGradient2860);fill-opacity:1;stroke:none;stroke-width:0.33898991"
         id="path3229"
         transform="matrix(0.06125334,0,0,0.06125334,50.602757,998.66905)"
         cx="-41.660378"
         cy="46.369808"
         r="23.547171" />
      <circle
         transform="matrix(0.05377433,0,0,0.05377433,50.291178,999.01585)"
         id="path3286"
         style="fill:#c5c1bb;fill-opacity:1;stroke:none;stroke-width:0.33898991"
         cx="-41.660378"
         cy="46.369808"
         r="23.547171" />
      <path
         id="path4160"
         transform="translate(0,956.36218)"
         d="m 47.6875,16 c -0.476016,0.002 -0.726457,0.23591 -1.0625,1.875 -0.336042,1.63908 -0.71875,2.59375 -0.71875,2.59375 -0.753903,0.0644 -1.485639,0.15086 -2.21875,0.28125 0,0 -0.626199,-0.78501 -1.375,-2.28125 -0.561593,-1.12225 -0.87636,-1.52198 -1.1875,-1.59375 -0.103713,-0.0239 -0.197366,0.001 -0.3125,0.03125 l -0.71875,0.1875 c -0.360417,0.0961 -0.58894,0.53039 -0.40625,2 0.180011,1.44347 -0.114286,2.73387 -0.125,2.78125 -0.702335,0.2562 -1.391516,0.52743 -2.0625,0.84375 0,0 -0.795707,-0.62354 -1.90625,-1.875 -0.832918,-0.93866 -1.237282,-1.22884 -1.5625,-1.21875 -0.108406,0.003 -0.209103,0.03485 -0.3125,0.09375 l -0.625,0.375 c -0.323266,0.1861 -0.431828,0.69025 0.125,2.0625 0.53789,1.3241 0.619898,2.59533 0.625,2.6875 -0.616114,0.4316 -1.207997,0.89049 -1.78125,1.375 V 26.1875 c 0,0 -0.915896,-0.35986 -2.3125,-1.28125 -1.047481,-0.6911 -1.525836,-0.87732 -1.84375,-0.78125 -0.105971,0.032 -0.196636,0.10379 -0.28125,0.1875 l -0.53125,0.53125 c -0.264083,0.26343 -0.205518,0.75613 0.6875,1.9375 0.893823,1.18148 1.28125,2.5 1.28125,2.5 C 28.595974,29.83851 28.135562,30.40268 27.71875,31 H 27.6875 c 0,0 -0.975013,-0.15898 -2.5625,-0.6875 -0.793774,-0.2643 -1.275351,-0.38188 -1.59375,-0.375 -0.318399,0.007 -0.473621,0.13823 -0.59375,0.34375 l -0.375,0.65625 c -0.186904,0.3228 -0.04335,0.80876 1.125,1.71875 1.169155,0.90988 1.90625,2.0625 1.90625,2.0625 C 25.285013,35.38248 25.000078,36.05593 24.75,36.75 l -0.03125,-0.03125 c 0,0 -1.017314,0.13094 -2.6875,0.03125 -0.417566,-0.0249 -0.735237,-0.04345 -1,-0.03125 -0.794289,0.0366 -0.999482,0.24935 -1.09375,0.59375 l -0.21875,0.71875 c -0.09699,0.36017 0.198431,0.76716 1.5625,1.34375 1.364812,0.57628 2.375,1.5 2.375,1.5 -0.124766,0.71702 -0.219564,1.45073 -0.28125,2.1875 h -0.0625 c 0,0 -0.923446,0.38271 -2.5625,0.71875 -1.639153,0.336 -1.903697,0.5864 -1.90625,1.0625 v 0.75 c -4.63e-4,0.373 0.376927,0.70235 1.84375,0.90625 1.467458,0.2034 2.6875,0.84375 2.6875,0.84375 0.06441,0.7331 0.154365,1.44285 0.28125,2.15625 l -0.0625,0.03125 c 0,0 -0.785017,0.59495 -2.28125,1.34375 -1.496336,0.7488 -1.683247,1.07075 -1.5625,1.53125 l 0.1875,0.71875 c 0.09609,0.3604 0.530388,0.58895 2,0.40625 1.470109,-0.1833 2.84375,0.125 2.84375,0.125 0.253618,0.6927 0.531612,1.36915 0.84375,2.03125 h -0.0625 c 0,0 -0.623544,0.79575 -1.875,1.90625 -1.251537,1.1106 -1.32958,1.4614 -1.09375,1.875 l 0.375,0.65625 C 23.154857,60.4483 23.627767,60.5569 25,60 c 1.372587,-0.5575 2.75,-0.625 2.75,-0.625 0.420627,0.5988 0.904305,1.16055 1.375,1.71875 L 29.09375,61.125 29.0625,61.15625 c 0,0 -0.391116,0.9159 -1.3125,2.3125 -0.921442,1.3967 -0.928573,1.7866 -0.59375,2.125 l 0.53125,0.5 c 0.263465,0.2642 0.756165,0.23685 1.9375,-0.65625 1.181514,-0.8938 2.5,-1.28125 2.5,-1.28125 L 32.15625,64.125 c 0.556077,0.4657 1.122764,0.92765 1.71875,1.34375 l -0.03125,0.0625 c 0,0 -0.127732,0.975 -0.65625,2.5625 -0.528551,1.5876 -0.442245,1.9473 -0.03125,2.1875 l 0.625,0.375 c 0.322866,0.187 0.808841,0.043 1.71875,-1.125 0.909934,-1.1691 2.0625,-1.90625 2.0625,-1.90625 l 0.03125,-0.03125 c 0.654416,0.3054 1.315988,0.59545 2,0.84375 V 68.5 c 0,0 0.130884,0.98605 0.03125,2.65625 -0.09964,1.6703 0.0721,1.9994 0.53125,2.125 l 0.71875,0.1875 c 0.360246,0.097 0.767413,-0.16655 1.34375,-1.53125 0.576336,-1.3648 1.5,-2.375 1.5,-2.375 v -0.03125 c 0.723311,0.1278 1.443987,0.21775 2.1875,0.28125 v 0.03125 0.0625 c 0,0 0.382708,0.9234 0.71875,2.5625 0.336043,1.6391 0.586484,1.90375 1.0625,1.90625 h 0.75 c 0.372954,0 0.702771,-0.37635 0.90625,-1.84375 0.203479,-1.4674 0.84375,-2.6875 0.84375,-2.6875 V 69.8125 c 0.733124,-0.063 1.442749,-0.15615 2.15625,-0.28125 v 0.03125 0.03125 c 0,0 0.923518,0.97915 1.5,2.34375 0.576308,1.3647 0.983657,1.63005 1.34375,1.53125 l 0.71875,-0.1875 c 0.459252,-0.1257 0.662013,-0.42355 0.5625,-2.09375 -0.09971,-1.6701 0,-2.6875 0,-2.6875 V 68.4375 C 57.162281,68.1867 57.836841,67.90315 58.5,67.59375 V 67.625 c 0,0 1.152476,0.73735 2.0625,1.90625 0.909898,1.1691 1.396489,1.3136 1.71875,1.125 l 0.625,-0.375 c 0.411065,-0.2403 0.528419,-0.56865 0,-2.15625 -0.528568,-1.5874 -0.6875,-2.59375 -0.6875,-2.59375 l -0.03125,-0.0625 c 0.597645,-0.4164 1.192392,-0.8463 1.75,-1.3125 h 0.03125 c 0,0 1.287212,0.38775 2.46875,1.28125 1.181489,0.8938 1.675012,0.953 1.9375,0.6875 l 0.53125,-0.53125 C 69.241115,65.25525 69.265056,64.8967 68.34375,63.5 67.422345,62.1035 67,61.15625 67,61.15625 L 66.96875,61.125 c 0.472381,-0.5592 0.921654,-1.1501 1.34375,-1.75 l 0.03125,0.03125 c 0,0 1.346204,0.03595 2.71875,0.59375 1.372549,0.5575 1.846425,0.4494 2.03125,0.125 l 0.375,-0.65625 C 73.704604,59.05515 73.626391,58.7356 72.375,57.625 71.123534,56.5145 70.5,55.71875 70.5,55.71875 L 70.46875,55.6875 c 0.312138,-0.6621 0.590132,-1.33855 0.84375,-2.03125 0,0 1.311197,-0.3082 2.78125,-0.125 1.470055,0.1832 1.936662,-0.04505 2.03125,-0.40625 l 0.1875,-0.71875 c 0.120783,-0.4605 -0.03507,-0.7512 -1.53125,-1.5 -1.496253,-0.7488 -2.3125,-1.375 -2.3125,-1.375 L 72.4375,49.5 c 0.126885,-0.7134 0.216838,-1.42315 0.28125,-2.15625 0,0 1.188866,-0.64025 2.65625,-0.84375 1.467385,-0.2035 1.845744,-0.53335 1.84375,-0.90625 v -0.75 c -0.0025,-0.476 -0.235983,-0.7264 -1.875,-1.0625 C 73.704676,43.44525 72.75,43.0625 72.75,43.0625 h -0.03125 c -0.06169,-0.73677 -0.156484,-1.47048 -0.28125,-2.1875 0,0 0.979029,-0.92367 2.34375,-1.5 1.364718,-0.57634 1.629704,-0.98402 1.53125,-1.34375 L 76.125,37.3125 c -0.12561,-0.45914 -0.423594,-0.66207 -2.09375,-0.5625 -1.670206,0.0996 -2.6875,-0.03125 -2.6875,-0.03125 -0.247635,-0.68481 -0.538969,-1.34478 -0.84375,-2 0,0 0.705946,-1.15259 1.875,-2.0625 1.16905,-0.90991 1.313204,-1.39676 1.125,-1.71875 l -0.375,-0.65625 c -0.120083,-0.20549 -0.251893,-0.33688 -0.5625,-0.34375 -0.310607,-0.007 -0.800011,0.11078 -1.59375,0.375 C 69.381242,30.84102 68.375,31 68.375,31 67.949812,30.39068 67.476887,29.81761 67,29.25 c 0,0 -2.31e-4,-0.03055 0,-0.03125 0.01317,-0.0432 0.402941,-1.27639 1.28125,-2.4375 0.893713,-1.18148 0.952629,-1.67519 0.6875,-1.9375 L 68.4375,24.3125 C 68.310617,24.18694 68.186282,24.09843 68,24.09375 67.689531,24.08575 67.216627,24.29916 66.34375,24.875 64.947126,25.79639 64,26.1875 64,26.1875 63.44195,25.71756 62.848523,25.29494 62.25,24.875 c 0,0 -2.7e-5,-0.03045 0,-0.03125 0.0015,-0.0479 0.04647,-1.34008 0.59375,-2.6875 0.557472,-1.37253 0.448985,-1.87775 0.125,-2.0625 l -0.625,-0.375 C 62.188693,19.63035 62.055826,19.57976 61.875,19.625 c -0.301377,0.0753 -0.712154,0.40536 -1.40625,1.1875 -1.110561,1.25147 -1.90625,1.90625 -1.90625,1.90625 -0.674582,-0.31706 -1.356321,-0.61867 -2.0625,-0.875 -0.02052,-0.0901 -0.301599,-1.30198 -0.125,-2.71875 0.183241,-1.47004 -0.04549,-1.93665 -0.40625,-2.03125 L 55.25,16.90625 C 55.13489,16.87605 55.041206,16.854 54.9375,16.875 54.626381,16.938 54.311616,17.31534 53.75,18.4375 53.001184,19.93376 52.375,20.75 52.375,20.75 51.651689,20.62228 50.931013,20.53224 50.1875,20.46875 50.1667,20.42985 49.543819,19.28654 49.34375,17.84375 49.140271,16.37637 48.810454,15.998 48.4375,16 Z m 0,0.5 h 0.75 c 0.366408,-0.002 0.675092,0.37087 0.875,1.8125 0.196557,1.41746 0.82332,2.55555 0.84375,2.59375 0.730463,0.06237 1.445636,0.15577 2.15625,0.28125 0,0 0.608078,-0.81125 1.34375,-2.28125 0.551758,-1.10246 0.850592,-1.46935 1.15625,-1.53125 0.101885,-0.0207 0.199411,0.0016 0.3125,0.03125 l 0.71875,0.1875 c 0.354429,0.09294 0.555025,0.55576 0.375,2 -0.173499,1.3919 0.10484,2.56775 0.125,2.65625 0.693784,0.25183 1.368509,0.5635 2.03125,0.875 0,0 0.783932,-0.6455 1.875,-1.875 0.681912,-0.76842 1.078913,-1.1135 1.375,-1.1875 0.177652,-0.04441 0.316415,0.0069 0.46875,0.09375 l 0.625,0.375 c 0.318298,0.18151 0.422687,0.68281 -0.125,2.03125 -0.537677,1.32377 -0.59225,2.5779 -0.59375,2.625 -2.7e-5,8e-4 0,0.03125 0,0.03125 0.588017,0.41257 1.170495,0.85081 1.71875,1.3125 0,0 0.940391,-0.40728 2.3125,-1.3125 0.857555,-0.56573 1.31998,-0.758 1.625,-0.75 0.183012,0.0046 0.312845,0.0954 0.4375,0.21875 l 0.5,0.5 c 0.260476,0.2577 0.221776,0.74551 -0.65625,1.90625 -0.862892,1.14073 -1.26831,2.36385 -1.28125,2.40625 -2.27e-4,7e-4 0,0.03125 0,0.03125 0.468516,0.55764 0.957276,1.12012 1.375,1.71875 0,0 0.971608,-0.16826 2.53125,-0.6875 0.779807,-0.25959 1.257345,-0.35075 1.5625,-0.34375 0.305155,0.0068 0.444525,0.11062 0.5625,0.3125 l 0.375,0.65625 c 0.184901,0.31634 0.02353,0.79356 -1.125,1.6875 -1.148533,0.89393 -1.8125,2.03125 -1.8125,2.03125 0.299432,0.64372 0.569212,1.29596 0.8125,1.96875 0,0 1.015361,0.12905 2.65625,0.03125 1.64084,-0.09782 1.907845,0.08016 2.03125,0.53125 l 0.1875,0.71875 c 0.09673,0.35341 -0.159237,0.74628 -1.5,1.3125 C 72.971734,40.03497 72,40.9375 72,40.9375 c 0.122576,0.70444 0.22064,1.43241 0.28125,2.15625 h 0.03125 c 0,0 0.952197,0.38863 2.5625,0.71875 1.610247,0.3302 1.84125,0.56365 1.84375,1.03125 v 0.75 c 0.002,0.3663 -0.370872,0.675 -1.8125,0.875 -1.441627,0.1999 -2.625,0.84375 -2.625,0.84375 -0.06328,0.7203 -0.156592,1.4241 -0.28125,2.125 l 0.03125,0.03125 c 0,0 0.81126,0.60815 2.28125,1.34375 1.469922,0.7357 1.618662,1.01635 1.5,1.46875 L 75.625,53 c -0.09293,0.355 -0.524499,0.555 -1.96875,0.375 -1.444249,-0.1799 -2.75,0.125 -2.75,0.125 -0.249167,0.6806 -0.505841,1.3495 -0.8125,2 l 0.03125,0.03125 c 0,0 0.583001,0.784 1.8125,1.875 1.229426,1.0911 1.325464,1.4062 1.09375,1.8125 l -0.375,0.65625 c -0.18158,0.3187 -0.651544,0.4227 -2,-0.125 C 69.307796,59.2016 68,59.15625 68,59.15625 L 67.96875,59.125 c -0.414687,0.5893 -0.84841,1.16945 -1.3125,1.71875 V 60.875 c 0,0 0.438518,0.9405 1.34375,2.3125 0.905134,1.3721 0.860238,1.69875 0.53125,2.03125 l -0.5,0.53125 C 67.77337,66.0108 67.285751,65.97185 66.125,65.09375 64.964202,64.21585 63.6875,63.8125 63.6875,63.8125 h -0.03125 c -0.54782,0.4581 -1.131596,0.9034 -1.71875,1.3125 l 0.03125,0.0625 c 0,0 0.16821,0.97175 0.6875,2.53125 0.519144,1.5597 0.40385,1.889 0,2.125 l -0.625,0.375 c -0.316604,0.1852 -0.793573,0.0236 -1.6875,-1.125 -0.89405,-1.1484 -2.03125,-1.875 -2.03125,-1.875 V 67.1875 c -0.651518,0.304 -1.318643,0.59735 -2,0.84375 v 0.0625 c 0,0 -0.09796,0.9843 0,2.625 0.09777,1.6409 -0.08006,1.939 -0.53125,2.0625 l -0.71875,0.1875 c -0.353772,0.0971 -0.746308,-0.1593 -1.3125,-1.5 -0.566363,-1.3407 -1.46875,-2.3125 -1.46875,-2.3125 V 69.125 69.09375 c -0.700977,0.1229 -1.404744,0.21925 -2.125,0.28125 v 0.03125 c 0,0 -0.643843,1.21465 -0.84375,2.65625 -0.199908,1.4417 -0.508592,1.8125 -0.875,1.8125 h -0.75 C 47.219839,73.8725 46.986394,73.6104 46.65625,72 46.326106,70.3897 45.9375,69.46875 45.9375,69.46875 V 69.40625 69.375 c -0.730462,-0.0624 -1.414385,-0.15575 -2.125,-0.28125 V 69.125 c 0,0 -0.933781,1.00285 -1.5,2.34375 -0.566221,1.3407 -0.958578,1.595 -1.3125,1.5 l -0.6875,-0.1875 C 39.861405,72.65785 39.68336,72.3285 39.78125,70.6875 39.879137,69.0466 39.75,68.09375 39.75,68.09375 v -0.0625 C 39.077995,67.78725 38.424179,67.4875 37.78125,67.1875 L 37.75,67.21875 c 0,0 -1.137288,0.7264 -2.03125,1.875 -0.893937,1.1472 -1.370301,1.3088 -1.6875,1.125 l -0.59375,-0.375 c -0.403782,-0.236 -0.519273,-0.59645 0,-2.15625 0.519241,-1.5596 0.65625,-2.5 0.65625,-2.5 L 34.125,65.125 c -0.585525,-0.4088 -1.141184,-0.88625 -1.6875,-1.34375 l -0.03125,0.03125 c 0,0 -1.307975,0.40315 -2.46875,1.28125 -1.160599,0.8775 -1.61616,0.8846 -1.875,0.625 l -0.53125,-0.5 c -0.328946,-0.3325 -0.311518,-0.6903 0.59375,-2.0625 0.905211,-1.3721 1.28125,-2.28125 1.28125,-2.28125 L 29.4375,60.84375 29.46875,60.8125 C 29.006317,60.2641 28.538243,59.7132 28.125,59.125 c 0,0 -1.370256,0.0773 -2.71875,0.625 -1.348146,0.5471 -1.81716,0.4426 -2,0.125 l -0.375,-0.65625 C 22.79956,58.81245 22.895431,58.4661 24.125,57.375 25.354489,56.284 25.96875,55.5 25.96875,55.5 h 0.0625 c -0.306659,-0.6505 -0.594584,-1.3194 -0.84375,-2 0,0 -1.336945,-0.3051 -2.78125,-0.125 C 20.962434,53.5545 20.5319,53.354 20.4375,53 L 20.25,52.28125 c -0.118628,-0.4524 0.06118,-0.7644 1.53125,-1.5 1.46997,-0.7357 2.25,-1.3125 2.25,-1.3125 l 0.0625,-0.03125 c -0.124658,-0.7009 -0.21797,-1.4047 -0.28125,-2.125 0,0 -1.183301,-0.64385 -2.625,-0.84375 -1.441076,-0.2003 -1.812955,-0.5086 -1.8125,-0.875 v -0.75 C 19.3775,44.37605 19.608369,44.1426 21.21875,43.8125 22.829033,43.48232 23.75,43.09375 23.75,43.09375 h 0.0625 c 0.0606,-0.72384 0.158674,-1.45182 0.28125,-2.15625 0,0 -1.002895,-0.90259 -2.34375,-1.46875 -1.340126,-0.56647 -1.62654,-0.95865 -1.53125,-1.3125 L 20.4375,37.4375 c 0.09261,-0.33835 0.282153,-0.5265 1.0625,-0.5625 0.260115,-0.0119 0.589763,0.0067 1,0.03125 1.640869,0.0979 2.625,-0.03125 2.625,-0.03125 l 0.03125,0.03125 c 0.245688,-0.68189 0.540433,-1.34792 0.84375,-2 0,0 -0.726368,-1.13734 -1.875,-2.03125 C 22.977157,31.98099 22.816376,31.50464 23,31.1875 l 0.375,-0.65625 c 0.118021,-0.20191 0.28094,-0.3055 0.59375,-0.3125 0.31281,-0.0068 0.782659,0.08409 1.5625,0.34375 1.559622,0.51925 2.53125,0.6875 2.53125,0.6875 h 0.03125 c 0.409496,-0.58684 0.854163,-1.14002 1.3125,-1.6875 0,0 -0.371866,-1.30801 -1.25,-2.46875 -0.877343,-1.16064 -0.946948,-1.64745 -0.6875,-1.90625 L 28,24.6875 c 0.08313,-0.08224 0.145889,-0.1561 0.25,-0.1875 0.312334,-0.09438 0.783405,0.07103 1.8125,0.75 1.372089,0.90522 2.28125,1.28125 2.28125,1.28125 v 0.03125 c 0.563191,-0.476 1.144701,-0.95098 1.75,-1.375 -0.005,-0.09056 -0.09655,-1.32414 -0.625,-2.625 -0.547054,-1.34816 -0.411342,-1.84841 -0.09375,-2.03125 l 0.59375,-0.375 c 0.101582,-0.0579 0.205997,-0.09075 0.3125,-0.09375 0.319509,-0.0099 0.712953,0.29656 1.53125,1.21875 1.09105,1.22949 1.875,1.84375 1.875,1.84375 0.659206,-0.31077 1.341243,-0.59205 2.03125,-0.84375 0.01053,-0.04655 0.301851,-1.30062 0.125,-2.71875 -0.179483,-1.44382 0.05216,-1.87435 0.40625,-1.96875 l 0.6875,-0.1875 c 0.113113,-0.02962 0.210608,-0.05475 0.3125,-0.03125 0.305679,0.07051 0.604515,0.45994 1.15625,1.5625 0.735658,1.46997 1.375,2.25 1.375,2.25 0.720243,-0.1281 1.41558,-0.21795 2.15625,-0.28125 0,0 0.388606,-0.95219 0.71875,-2.5625 C 46.986394,16.73343 47.219839,16.502 47.6875,16.5 Z"
         style="opacity:0.5;fill:#ffffff;fill-opacity:1;stroke:none;stroke-width:0.33898991"
         inkscape:connector-curvature="0" />
    </g>
    <path
       style="opacity:0.8;fill:#000000;fill-opacity:1;stroke:none;stroke-width:0.49999997;filter:url(#filter4169)"
       d="M 106.91602 86.322266 C 106.84113 86.332406 106.7646 86.352138 106.67969 86.375 L 105.61914 86.652344 C 105.08754 86.793941 104.75007 87.433799 105.01953 89.601562 C 105.08329 90.112846 105.10497 90.609282 105.10352 91.072266 A 50.527197 50.527197 0 0 0 107.80859 86.849609 C 107.56345 86.54569 107.34965 86.378247 107.14062 86.330078 C 107.06414 86.312378 106.9909 86.312125 106.91602 86.322266 z M 96.677734 90.386719 C 96.517839 90.386719 96.369304 90.438367 96.216797 90.525391 L 95.294922 91.078125 C 94.818114 91.352617 94.657211 92.095187 95.478516 94.119141 C 96.271887 96.072149 96.392865 97.947992 96.400391 98.083984 C 95.491641 98.720581 94.618969 99.396705 93.773438 100.11133 L 93.773438 100.06641 C 93.773438 100.06641 92.42323 99.534671 90.363281 98.175781 C 88.818278 97.156429 88.111492 96.881693 87.642578 97.023438 C 87.486274 97.070637 87.353319 97.177326 87.228516 97.300781 L 86.445312 98.083984 C 86.055798 98.472491 86.14181 99.198877 87.458984 100.94141 C 88.777347 102.68394 89.347656 104.62891 89.347656 104.62891 C 88.955571 105.0972 88.571313 105.57257 88.195312 106.05469 A 50.527197 50.527197 0 0 0 102.2207 94.763672 C 102.07903 94.827411 101.93358 94.882916 101.79297 94.949219 C 101.79297 94.949219 100.62044 94.029371 98.982422 92.183594 C 97.753893 90.799039 97.157421 90.371822 96.677734 90.386719 z M 81.189453 105.59766 C 80.719824 105.61241 80.49164 105.80026 80.314453 106.10352 L 79.761719 107.07227 C 79.5118 107.5039 79.722818 108.15953 81.037109 109.27344 A 50.527197 50.527197 0 0 0 86.476562 106.98438 C 85.831517 106.83886 84.906014 106.60482 83.541016 106.15039 C 82.370223 105.76056 81.659082 105.58748 81.189453 105.59766 z "
       transform="matrix(0.26458333,0,0,0.26458333,0,263.13332)"
       id="path4292" />
    <path
       style="fill:url(#linearGradient4710);fill-opacity:1;stroke:none;stroke-width:0.49999997"
       d="M 106.86719 81.623047 C 106.79231 81.6332 106.71382 81.651699 106.62891 81.673828 L 105.57031 81.951172 C 105.03871 82.092904 104.70124 82.734709 104.9707 84.902344 C 105.23621 87.031465 104.80095 88.933985 104.78516 89.003906 C 103.74923 89.381859 102.73383 89.78154 101.74414 90.248047 C 101.74414 90.248047 100.56966 89.328343 98.931641 87.482422 C 97.703109 86.098019 97.106639 85.670656 96.626953 85.685547 C 96.467041 85.685547 96.318535 85.73729 96.166016 85.824219 L 95.244141 86.376953 C 94.767334 86.651347 94.608389 87.395834 95.429688 89.419922 C 96.223059 91.372955 96.344037 93.246825 96.351562 93.382812 C 95.442813 94.019398 94.570143 94.695561 93.724609 95.410156 L 93.724609 95.365234 C 93.724609 95.365234 92.372452 94.833614 90.3125 93.474609 C 88.767497 92.455233 88.062665 92.180533 87.59375 92.322266 C 87.437467 92.36951 87.302527 92.476019 87.177734 92.599609 L 86.394531 93.382812 C 86.005017 93.771461 86.091042 94.497834 87.408203 96.240234 C 88.726567 97.982899 89.298828 99.927734 89.298828 99.927734 C 88.610716 100.74974 87.931192 101.58188 87.316406 102.46289 L 87.271484 102.46289 C 87.271484 102.46289 85.83368 102.22894 83.492188 101.44922 C 82.321392 101.05936 81.610254 100.88632 81.140625 100.89648 C 80.670996 100.9116 80.442813 101.10107 80.265625 101.4043 L 79.710938 102.37109 C 79.435259 102.8472 79.647803 103.56403 81.371094 104.90625 C 83.09556 106.24832 84.183594 107.94922 84.183594 107.94922 C 84.171911 107.97434 84.162027 108.00025 84.150391 108.02539 A 50.527197 50.527197 0 0 0 109.08789 84.4375 C 109.00383 84.277341 108.92844 84.153591 108.8418 83.980469 C 108.01346 82.325111 107.54877 81.734809 107.08984 81.628906 C 107.01335 81.611898 106.94207 81.612894 106.86719 81.623047 z "
       transform="matrix(0.26458333,0,0,0.26458333,0,263.13332)"
       id="path4296" />
    <path
       style="fill:#77716d;fill-opacity:1;stroke:none;stroke-width:0.49999997"
       d="M 103.70312 92.914062 C 97.713729 95.596089 92.66694 99.996157 89.179688 105.49023 A 50.527197 50.527197 0 0 0 103.70312 92.914062 z "
       transform="matrix(0.26458333,0,0,0.26458333,0,263.13332)"
       id="path4308" />
    <path
       style="fill:url(#radialGradient4703);fill-opacity:1;stroke:none;stroke-width:0.47964266"
       d="M 103.65234 92.982422 A 33.317298 33.317298 0 0 0 89.21875 105.46875 A 50.527197 50.527197 0 0 0 103.65234 92.982422 z "
       transform="matrix(0.26458333,0,0,0.26458333,0,263.13332)"
       id="path4310" />
    <path
       style="opacity:0.75;fill:#ffffff;fill-opacity:1;stroke:none;stroke-width:0.49999997"
       d="M 106.85938 81.623047 C 106.78449 81.6332 106.70796 81.651699 106.62305 81.673828 L 105.5625 81.951172 C 105.03089 82.092904 104.69343 82.734558 104.96289 84.902344 C 105.2284 87.031314 104.7951 88.933985 104.7793 89.003906 C 103.74337 89.381859 102.72601 89.781389 101.73633 90.248047 C 101.73633 90.248047 100.5638 89.328192 98.925781 87.482422 C 97.69725 86.097868 97.10078 85.670656 96.621094 85.685547 C 96.46122 85.685547 96.312675 85.73729 96.160156 85.824219 L 95.238281 86.376953 C 94.761471 86.651347 94.600576 87.393881 95.421875 89.417969 C 96.215247 91.371002 96.336225 93.246825 96.34375 93.382812 C 95.435 94.019398 94.562326 94.695372 93.716797 95.410156 L 93.716797 95.365234 C 93.716797 95.365234 92.366589 94.833501 90.306641 93.474609 C 88.761638 92.455233 88.054848 92.180533 87.585938 92.322266 C 87.429616 92.36951 87.296671 92.476019 87.171875 92.599609 L 86.388672 93.382812 C 85.999154 93.77131 86.085186 94.497721 87.402344 96.240234 C 88.720707 97.982748 89.291016 99.927734 89.291016 99.927734 C 88.602903 100.74959 87.925332 101.58188 87.310547 102.46289 L 87.263672 102.46289 C 87.263672 102.46289 85.825872 102.22894 83.484375 101.44922 C 82.313583 101.0594 81.602441 100.88632 81.132812 100.89648 C 80.663184 100.9116 80.434997 101.10091 80.257812 101.4043 L 79.705078 102.37109 C 79.429399 102.8472 79.639991 103.56403 81.363281 104.90625 C 83.087751 106.24817 84.175781 107.94922 84.175781 107.94922 C 84.163228 107.97621 84.153125 108.00424 84.140625 108.03125 A 50.527197 50.527197 0 0 0 84.517578 107.86133 C 84.112556 107.30155 83.233046 106.18049 82.009766 105.22852 C 80.316734 103.90988 80.078772 103.206 80.349609 102.73828 L 80.902344 101.77148 C 81.076429 101.47366 81.317915 101.32086 81.779297 101.31055 C 82.240683 101.29543 82.933742 101.43343 84.083984 101.81641 C 86.384379 102.58237 87.816406 102.83203 87.816406 102.83203 L 87.863281 102.83203 C 88.467276 101.96652 89.122795 101.14933 89.798828 100.3418 C 89.798828 100.3418 89.2503 98.413184 87.955078 96.701172 C 86.661025 94.989159 86.558729 94.270404 86.941406 93.888672 L 87.724609 93.152344 C 87.847217 93.031399 87.940188 92.921488 88.09375 92.875 C 88.554433 92.736291 89.249693 92.978932 90.767578 93.980469 C 92.791368 95.315625 94.130859 95.871094 94.130859 95.871094 L 94.130859 95.916016 C 94.96155 95.213931 95.820094 94.51407 96.712891 93.888672 C 96.705332 93.754499 96.57046 91.936369 95.791016 90.017578 C 94.984128 88.029017 95.18392 87.291116 95.652344 87.021484 L 96.527344 86.46875 C 96.677164 86.383333 96.831189 86.334614 96.988281 86.330078 C 97.459551 86.31496 98.041081 86.766739 99.248047 88.126953 C 100.85731 89.940295 102.01367 90.845703 102.01367 90.845703 C 102.98598 90.387284 103.99203 89.972825 105.00977 89.601562 C 105.02526 89.532397 105.45421 87.683463 105.19336 85.591797 C 104.92864 83.46226 105.27071 82.826624 105.79297 82.6875 L 106.80664 82.412109 C 106.97347 82.367889 107.11729 82.329707 107.26758 82.365234 C 107.71845 82.469927 108.15886 83.043629 108.97266 84.669922 C 108.9731 84.670802 108.97417 84.670995 108.97461 84.671875 A 50.527197 50.527197 0 0 0 109.08398 84.443359 C 108.99893 84.281394 108.92365 84.155719 108.83594 83.980469 C 108.0076 82.325111 107.54291 81.734809 107.08398 81.628906 C 107.00751 81.611898 106.93426 81.612894 106.85938 81.623047 z "
       transform="matrix(0.26458333,0,0,0.26458333,0,263.13332)"
       id="path4332" />
    <path
       style="opacity:0.8;fill:#000000;fill-opacity:1;stroke:none;stroke-width:0.49999997;filter:url(#filter4169)"
       d="M 20.605469 86.326172 C 20.53058 86.3164 20.457341 86.314591 20.380859 86.330078 C 20.263564 86.35383 20.145472 86.412879 20.021484 86.507812 A 50.527197 50.527197 0 0 0 22.435547 90.390625 C 22.449177 90.14927 22.468516 89.901003 22.5 89.648438 C 22.770275 87.480084 22.434454 86.791876 21.902344 86.652344 L 20.841797 86.376953 C 20.756905 86.354829 20.680357 86.335944 20.605469 86.326172 z M 30.972656 90.382812 C 30.861735 90.356079 30.746638 90.353532 30.613281 90.386719 C 30.168759 90.497342 29.562833 90.98495 28.539062 92.138672 C 27.051888 93.814447 26.063862 94.657497 25.873047 94.818359 A 50.527197 50.527197 0 0 0 39.058594 105.66016 C 38.766589 105.29777 38.470959 104.938 38.171875 104.58203 C 38.171875 104.58203 38.171536 104.53858 38.171875 104.53711 C 38.191345 104.47369 38.767019 102.65399 40.0625 100.94141 C 41.380696 99.198729 41.467231 98.470869 41.076172 98.083984 L 40.292969 97.300781 C 40.105825 97.115525 39.921242 96.985448 39.646484 96.978516 C 39.18855 96.963766 38.49255 97.281424 37.205078 98.130859 C 35.145105 99.489749 33.748047 100.06641 33.748047 100.06641 C 32.924941 99.37317 32.048819 98.750199 31.166016 98.130859 C 31.166016 98.130859 31.165976 98.085459 31.166016 98.083984 C 31.168228 98.013186 31.235747 96.108468 32.042969 94.121094 C 32.865223 92.09655 32.704431 91.350552 32.226562 91.078125 L 31.304688 90.525391 C 31.190335 90.460492 31.083577 90.409546 30.972656 90.382812 z M 46.376953 105.59766 C 45.918813 105.58291 45.196133 105.7607 44.025391 106.15039 C 42.949373 106.50861 42.082776 106.74027 41.429688 106.89844 A 50.527197 50.527197 0 0 0 46.636719 109.13867 C 47.807285 108.10808 48.001071 107.48513 47.759766 107.07227 L 47.207031 106.10352 C 47.029917 105.80041 46.835094 105.60783 46.376953 105.59766 z "
       transform="matrix(0.26458333,0,0,0.26458333,0,263.13332)"
       id="path4562" />
    <path
       style="fill:url(#linearGradient4724);fill-opacity:1;stroke:none;stroke-width:0.49999997"
       d="M 20.554688 81.625 C 20.479799 81.61522 20.40656 81.615363 20.330078 81.630859 C 19.877774 81.722501 19.417575 82.274514 18.611328 83.875 A 50.527197 50.527197 0 0 0 43.363281 107.83203 C 43.551258 107.53898 44.502967 106.11095 46.050781 104.90625 C 47.775096 103.56418 47.988544 102.84603 47.710938 102.37109 L 47.15625 101.40234 C 46.979141 101.09923 46.786268 100.90665 46.328125 100.89648 C 45.870001 100.88137 45.147305 101.0594 43.976562 101.44922 C 41.635032 102.22875 40.150391 102.46289 40.150391 102.46289 C 39.52325 101.56419 38.826443 100.72002 38.123047 99.882812 C 38.123047 99.882812 38.122707 99.835938 38.123047 99.835938 C 38.1427 99.772441 38.716237 97.952814 40.011719 96.240234 C 41.329927 94.49757 41.4184 93.769685 41.027344 93.382812 L 40.242188 92.599609 C 40.055063 92.414413 39.872413 92.284147 39.597656 92.277344 C 39.139725 92.262226 38.441766 92.580579 37.154297 93.429688 C 35.094324 94.78873 33.697266 95.365234 33.697266 95.365234 C 32.874163 94.672145 31.999991 94.04919 31.117188 93.429688 C 31.117188 93.429688 31.117148 93.386277 31.117188 93.384766 C 31.1194 93.314088 31.184966 91.407311 31.992188 89.419922 C 32.814442 87.395531 32.655601 86.649533 32.177734 86.376953 L 31.255859 85.824219 C 31.027156 85.694581 30.831166 85.619405 30.564453 85.685547 C 30.119931 85.796287 29.514005 86.283913 28.490234 87.4375 C 26.85219 89.283421 25.677734 90.25 25.677734 90.25 C 24.682746 89.782283 23.676359 89.337013 22.634766 88.958984 C 22.604492 88.826323 22.190696 87.038957 22.451172 84.949219 C 22.721446 82.781017 22.383671 82.092665 21.851562 81.953125 L 20.791016 81.675781 C 20.706124 81.653671 20.629576 81.63478 20.554688 81.625 z "
       transform="matrix(0.26458333,0,0,0.26458333,0,263.13332)"
       id="path4564" />
    <path
       style="fill:url(#linearGradient3331);fill-opacity:1;stroke:none;stroke-width:0.48637345"
       d="M 23.957031 92.517578 A 50.527197 50.527197 0 0 0 38.861328 105.53906 A 33.784833 33.784833 0 0 0 23.957031 92.517578 z "
       transform="matrix(0.26458333,0,0,0.26458333,0,263.13332)"
       id="path4566" />
    <path
       style="fill:#77716d;fill-opacity:1;stroke:none;stroke-width:0.49999997"
       d="M 24.509766 93.269531 A 50.527197 50.527197 0 0 0 37.947266 104.97852 C 34.623806 99.958569 29.980919 95.888929 24.509766 93.269531 z "
       transform="matrix(0.26458333,0,0,0.26458333,0,263.13332)"
       id="path4568" />
    <path
       style="fill:url(#radialGradient4717);fill-opacity:1;stroke:none;stroke-width:0.47964266"
       d="M 24.564453 93.332031 A 50.527197 50.527197 0 0 0 37.953125 104.98242 A 33.317298 33.317298 0 0 0 24.564453 93.332031 z "
       transform="matrix(0.26458333,0,0,0.26458333,0,263.13332)"
       id="path4570" />
    <path
       style="opacity:0.75;fill:#ffffff;fill-opacity:1;stroke:none;stroke-width:0.49999997"
       d="M 20.548828 81.625 C 20.47394 81.61522 20.400701 81.61341 20.324219 81.628906 C 19.872603 81.720409 19.411383 82.272351 18.607422 83.867188 A 50.527197 50.527197 0 0 0 18.712891 84.101562 C 19.345218 82.915553 19.745377 82.446846 20.138672 82.367188 C 20.28895 82.336951 20.432808 82.366377 20.599609 82.412109 L 21.660156 82.689453 C 22.182928 82.82665 22.478422 83.508379 22.212891 85.638672 C 21.956986 87.69156 22.368704 89.426134 22.398438 89.556641 C 23.421748 89.928168 24.417008 90.388217 25.394531 90.847656 C 25.394531 90.847656 26.550864 89.895524 28.160156 88.082031 C 29.165956 86.948664 29.750781 86.439193 30.1875 86.330078 C 30.449531 86.26507 30.654217 86.345159 30.878906 86.46875 L 31.800781 87.021484 C 32.270261 87.289075 32.425011 88.028715 31.617188 90.017578 C 30.82413 91.97012 30.742447 93.821157 30.740234 93.890625 C 30.740195 93.891797 30.740234 93.935547 30.740234 93.935547 C 31.607542 94.543975 32.466731 95.190098 33.275391 95.871094 C 33.275391 95.871094 34.663693 95.270665 36.6875 93.935547 C 37.952377 93.100989 38.634088 92.818248 39.083984 92.830078 C 39.353918 92.830078 39.544661 92.970171 39.728516 93.152344 L 40.466797 93.888672 C 40.850997 94.268779 40.793117 94.989008 39.498047 96.701172 C 38.225314 98.383666 37.628461 100.18745 37.609375 100.25 C 37.60905 100.25102 37.609375 100.29492 37.609375 100.29492 C 38.300429 101.11738 39.020592 101.94714 39.636719 102.83008 C 39.636719 102.83008 41.070673 102.58214 43.371094 101.81641 C 44.521291 101.4335 45.223739 101.30023 45.673828 101.31055 C 46.123928 101.32566 46.329904 101.47381 46.503906 101.77148 L 47.056641 102.73828 C 47.329371 103.20483 47.092554 103.91003 45.398438 105.22852 C 44.272424 106.1049 43.498799 107.09972 43.082031 107.69531 A 50.527197 50.527197 0 0 0 43.357422 107.82812 C 43.550399 107.52773 44.500589 106.10672 46.042969 104.90625 C 47.767284 103.56403 47.980728 102.84603 47.703125 102.37109 L 47.150391 101.40234 C 46.973282 101.09923 46.778455 100.90665 46.320312 100.89648 C 45.862188 100.88137 45.139493 101.0594 43.96875 101.44922 C 41.627238 102.22875 40.144531 102.46289 40.144531 102.46289 C 39.517402 101.56419 38.818631 100.72002 38.115234 99.882812 C 38.115234 99.882812 38.114894 99.835938 38.115234 99.835938 C 38.134888 99.772441 38.710377 97.952814 40.005859 96.240234 C 41.324068 94.49757 41.410591 93.769685 41.019531 93.382812 L 40.236328 92.599609 C 40.049204 92.414413 39.8646 92.284147 39.589844 92.277344 C 39.131928 92.262226 38.435908 92.580579 37.148438 93.429688 C 35.088465 94.78873 33.691406 95.365234 33.691406 95.365234 C 32.868305 94.672145 31.992179 94.049039 31.109375 93.429688 C 31.109375 93.429688 31.109335 93.384324 31.109375 93.382812 C 31.111588 93.312135 31.177153 91.407311 31.984375 89.419922 C 32.80663 87.39538 32.647788 86.649344 32.169922 86.376953 L 31.248047 85.824219 C 31.019344 85.694581 30.823354 85.619405 30.556641 85.685547 C 30.112119 85.796287 29.506193 86.28395 28.482422 87.4375 C 26.844378 89.283421 25.669922 90.248047 25.669922 90.248047 C 24.674934 89.78033 23.670499 89.337013 22.628906 88.958984 C 22.598632 88.826323 22.182883 87.037004 22.443359 84.947266 C 22.713633 82.779064 22.377812 82.090712 21.845703 81.951172 L 20.785156 81.675781 C 20.700264 81.653671 20.623717 81.63478 20.548828 81.625 z "
       transform="matrix(0.26458333,0,0,0.26458333,0,263.13332)"
       id="path4572" />
  </g>
</svg>
