<svg height="96" width="96" xmlns="http://www.w3.org/2000/svg" xmlns:xlink="http://www.w3.org/1999/xlink"><linearGradient id="a" gradientUnits="userSpaceOnUse" x1="53.796227" x2="53.796227" y1="1046.0226" y2="962.97437"><stop offset="0" stop-color="#ccc"/><stop offset="1" stop-color="#fefcff"/></linearGradient><linearGradient id="b" gradientUnits="userSpaceOnUse" x1="22.54203" x2="22.54203" y1="1043.3966" y2="964.45898"><stop offset="0" stop-color="#efe7ef"/><stop offset="1" stop-color="#fffbff"/></linearGradient><radialGradient id="c" cx="43.27441" cy="59.160034" gradientTransform="matrix(1.5789764 -.41882336 .48522819 1.8293246 -45.593875 -27.426874)" gradientUnits="userSpaceOnUse" r="35.838257"><stop offset="0"/><stop offset=".73453778"/><stop offset="1" stop-color="#fff"/></radialGradient><radialGradient id="d" cx="81.852875" cy="73.702515" gradientTransform="matrix(.28344335 -1.057825 .99911456 .26771194 -47.485852 118.84522)" gradientUnits="userSpaceOnUse" r="29.6875"><stop offset="0" stop-color="#fff"/><stop offset=".73453778" stop-color="#4a4a4a"/><stop offset="1"/></radialGradient><g transform="translate(0 -956.36218)"><rect height="89" opacity=".05" rx="10.595235" width="89" x="-194.97078" y="960.86218"/><rect height="88" opacity=".05" rx="10.476188" width="88" x="-194.47078" y="961.36218"/><rect height="87" opacity=".05" rx="10.357141" width="87" x="-193.97078" y="961.86218"/><rect height="86" opacity=".1" rx="10.238094" width="86" x="-193.47078" y="962.36218"/><rect height="85" opacity=".1" rx="10.119047" width="85" x="-192.97078" y="962.86218"/><rect height="84" opacity=".3" rx="10" width="84" x="-192.47078" y="963.36218"/><g transform="translate(-128.02694)"><rect fill="url(#a)" height="84" rx="10" width="84" x="6" y="962.36218"/><rect fill="url(#b)" height="82" rx="9.761905" width="82" x="7" y="963.36218"/></g><path d="m23.060596 186.17438a29.714495 29.714495 0 1 1 -.000001-42.02265l-21.0113194 21.01133z" opacity=".05" transform="matrix(1.4975856 0 0 1.4975856 44.931034 758.01637)"/><path d="m23.060596 186.17438a29.714495 29.714495 0 1 1 -.000001-42.02265l-21.0113194 21.01133z" opacity=".05" transform="matrix(1.4807588 0 0 1.4807588 44.965517 760.79553)"/><path d="m23.060596 186.17438a29.714495 29.714495 0 1 1 -.000001-42.02265l-21.0113194 21.01133z" opacity=".1" transform="matrix(1.4471052 0 0 1.4471052 45.034483 766.35386)"/><path d="m23.060596 186.17438a29.714495 29.714495 0 1 1 -.000001-42.02265l-21.0113194 21.01133z" opacity=".1" transform="matrix(1.4302784 0 0 1.4302784 45.068965 769.13303)"/><path d="m23.060596 186.17438a29.714495 29.714495 0 1 1 -.000001-42.02265l-21.0113194 21.01133z" opacity=".3" transform="matrix(1.4134516 0 0 1.4134516 45.103448 771.91219)"/><path d="m-65.207551 46.369812a9.4188681 9.4188681 0 1 1 -18.837736 0 9.4188681 9.4188681 0 1 1 18.837736 0z" fill="#fff" opacity=".1" transform="matrix(1.1364292 2.7469637 2.7469637 -1.1364292 5.431453 1262.0543)"/><path d="m48.000007 1004.3622 28.024198-.028c.0044 7.414-2.963096 14.5812-8.199174 19.8279l-19.825024-19.8002z" fill="#11bebb"/><path d="m48.000007 1004.3622 19.800167-19.825c2.536406 2.53128 4.617828 5.60343 6.073121 9.12115 1.445947 3.49513 2.148774 7.11495 2.15091 10.67615l-28.024198.028z" fill="#2bd6d2"/><path d="m48.000007 1004.3622-.02773-28.02417c7.41402-.004 14.581219 2.96309 19.8279 8.19917l-19.800167 19.825z" fill="#da0083"/><path d="m28.174984 984.56206c2.53128-2.53641 5.603428-4.61783 9.121147-6.07312 3.495126-1.44595 7.114999-2.14878 10.676143-2.15091l.02773 28.02417-19.825023-19.80014z" fill="#d61842"/><path d="m19.975809 1004.39c-.0044-7.41406 2.963097-14.58126 8.199175-19.82794l19.825023 19.80014-28.024198.028z" fill="#f0870b"/><path d="m22.126719 1015.0661c-1.445947-3.4951-2.148773-7.115-2.15091-10.6761l28.024198-.028-19.800166 19.825c-2.536406-2.5312-4.617828-5.6034-6.073122-9.1211z" fill="#ecf02b"/><path d="m28.199841 1024.1872 19.800166-19.825.02773 28.0242c-7.41402 0-14.581219-2.9631-19.8279-8.1992z" fill="#cced20"/><path d="m48.027741 1032.3864-.02773-28.0242 19.825024 19.8002c-2.53128 2.5364-5.603428 4.6178-9.121147 6.0731-3.495127 1.446-7.114999 2.1488-10.676143 2.1509z" fill="#71ea3e"/><path d="m48 6c-10.748737.0000003-21.48649 4.11149-29.6875 12.3125-16.4020198 16.40202-16.40202 42.97298 0 59.375s42.97298 16.40202 59.375 0l-9.875-9.875c-5.067003 5.067003-12.080513 8.1875-19.8125 8.1875-15.463973 0-28-12.536027-28-28s12.536027-28 28-28c7.731987 0 14.745497 3.120497 19.8125 8.1875l9.875-9.875c-8.20101-8.201009-18.938763-12.3125003-29.6875-12.3125z" fill="url(#c)" transform="translate(0 956.36218)"/><g transform="translate(-167.73165)"><rect fill="#64c708" height="84" rx="10" width="84" x="6" y="962.36218"/><path d="m48.000002 1004.3622 17.338816 42h14.644737c5.540001 0 10.016448-4.4765 10.016448-10.0165v-14.5411z" fill="#11bebb"/><path d="m48.000002 1004.3622-17.442435 42h34.781251z" fill="#2bd6d2"/><path d="m48.000002 1004.3622-42.000002 17.3388v14.6447c0 5.54 4.476447 10.0165 10.016448 10.0165h14.541119z" fill="#da0083"/><path d="m6 986.91974v34.78126l42.000002-17.3388z" fill="#d61842"/><path d="m16.016448 962.36217c-5.540001 0-10.016448 4.47645-10.016448 10.01645v14.54112l42.000002 17.44246-17.338817-42.00003z" fill="#f0870b"/><path d="m30.661185 962.36217 17.338817 42.00003 17.442434-42.00003z" fill="#ecf02b"/><path d="m65.442436 962.36217-17.442434 42.00003 42.000001-17.33884v-14.64474c0-5.54-4.476447-10.01645-10.016448-10.01645z" fill="#cced20"/><path d="m90.000003 987.02336-42.000001 17.33884 42.000001 17.4424z" fill="#71ea3e"/><g fill="#fff"><path d="m21.370066 962.36217c-6.184399 3.92967-11.4404022 9.18567-15.370066 15.37007v53.25986c3.9296638 6.1844 9.185667 11.4404 15.370066 15.3701h53.259871c6.184399-3.9297 11.440402-9.1857 15.370066-15.3701v-53.25986c-3.929664-6.1844-9.185667-11.4404-15.370066-15.37007z" opacity=".05"/><path d="m-65.207551 46.369812c0 5.201897-4.216971 9.418868-9.418868 9.418868s-9.418868-4.216971-9.418868-9.418868 4.216971-9.418868 9.418868-9.418868 9.418868 4.216971 9.418868 9.418868z" opacity=".05" transform="matrix(4.2244434 0 0 4.2244434 363.25509 808.47553)"/><path d="m-65.207551 46.369812c0 5.201897-4.216971 9.418868-9.418868 9.418868s-9.418868-4.216971-9.418868-9.418868 4.216971-9.418868 9.418868-9.418868 9.418868 4.216971 9.418868 9.418868z" opacity=".1" transform="matrix(3.1683326 0 0 3.1683326 284.44132 857.44719)"/><path d="m-65.207551 46.369812c0 5.201897-4.216971 9.418868-9.418868 9.418868s-9.418868-4.216971-9.418868-9.418868 4.216971-9.418868 9.418868-9.418868 9.418868 4.216971 9.418868 9.418868z" opacity=".1" transform="matrix(2.1122217 0 0 2.1122217 205.62754 906.41885)"/><path d="m-65.207551 46.369812c0 5.201897-4.216971 9.418868-9.418868 9.418868s-9.418868-4.216971-9.418868-9.418868 4.216971-9.418868 9.418868-9.418868 9.418868 4.216971 9.418868 9.418868z" opacity=".1" transform="matrix(1.0561109 0 0 1.0561109 126.81377 955.39052)"/></g></g><path d="m18.3125 77.6875c16.40202 16.40202 42.97298 16.40202 59.375 0l-9.875-9.875c-5.067003 5.067003-12.080513 8.1875-19.8125 8.1875-15.463973 0-28-12.536027-28-28z" fill="url(#d)" transform="translate(0 956.36218)"/><path d="m23.060596 186.17438a29.714495 29.714495 0 1 1 -.000001-42.02265l-21.0113194 21.01133z" opacity=".05" transform="matrix(1.463932 0 0 1.463932 45 763.57469)"/></g></svg>