<?xml version="1.0" encoding="UTF-8" standalone="no"?>
<!-- Created with Inkscape (http://www.inkscape.org/) -->

<svg
   xmlns:dc="http://purl.org/dc/elements/1.1/"
   xmlns:cc="http://creativecommons.org/ns#"
   xmlns:rdf="http://www.w3.org/1999/02/22-rdf-syntax-ns#"
   xmlns:svg="http://www.w3.org/2000/svg"
   xmlns="http://www.w3.org/2000/svg"
   xmlns:xlink="http://www.w3.org/1999/xlink"
   xmlns:sodipodi="http://sodipodi.sourceforge.net/DTD/sodipodi-0.dtd"
   xmlns:inkscape="http://www.inkscape.org/namespaces/inkscape"
   width="128"
   height="128"
   viewBox="0 0 33.866666 33.866668"
   version="1.1"
   id="svg8"
   inkscape:version="0.92.2 5c3e80d, 2017-08-06"
   sodipodi:docname="power.svg">
  <defs
     id="defs2">
    <linearGradient
       inkscape:collect="always"
       id="linearGradient1010">
      <stop
         style="stop-color:#bed7e5;stop-opacity:1"
         offset="0"
         id="stop1006" />
      <stop
         style="stop-color:#90a3bd;stop-opacity:1"
         offset="1"
         id="stop1008" />
    </linearGradient>
    <inkscape:path-effect
       effect="skeletal"
       id="path-effect984"
       is_visible="true"
       pattern="m -100.11494,19.454976 c 0,-2.76 2.240005,-5 5.000005,-5 2.76,0 5,2.24 5,5 0,2.76 -2.24,5 -5,5 -2.76,0 -5.000005,-2.24 -5.000005,-5 z"
       copytype="single_stretched"
       prop_scale="0.044783664"
       scale_y_rel="false"
       spacing="0"
       normal_offset="0"
       tang_offset="0"
       prop_units="false"
       vertical_pattern="false"
       fuse_tolerance="0" />
    <inkscape:path-effect
       fuse_tolerance="0"
       vertical_pattern="false"
       prop_units="false"
       tang_offset="0"
       normal_offset="0"
       spacing="0"
       scale_y_rel="false"
       prop_scale="0.055746102"
       copytype="single_stretched"
       pattern="m -99.898156,14.811975 c 0,-2.76 2.24,-4.9999995 5,-4.9999995 2.76,0 5,2.2399995 5,4.9999995 0,2.76 -2.24,5 -5,5 -2.76,0 -5,-2.24 -5,-5 z"
       is_visible="true"
       id="path-effect980"
       effect="skeletal" />
    <inkscape:path-effect
       effect="skeletal"
       id="path-effect972"
       is_visible="true"
       pattern="m -99.736845,10.354543 c 0,-2.7600002 2.24,-5 5,-5 2.76,0 5,2.2399998 5,5 0,2.76 -2.24,5 -5,5 -2.76,0 -5,-2.24 -5,-5 z"
       copytype="single_stretched"
       prop_scale="0.048632976"
       scale_y_rel="false"
       spacing="0"
       normal_offset="0"
       tang_offset="0"
       prop_units="false"
       vertical_pattern="false"
       fuse_tolerance="0" />
    <linearGradient
       inkscape:collect="always"
       id="linearGradient926">
      <stop
         style="stop-color:#ecedf1;stop-opacity:1"
         offset="0"
         id="stop922" />
      <stop
         style="stop-color:#c5c4c8;stop-opacity:1"
         offset="1"
         id="stop924" />
    </linearGradient>
    <linearGradient
       inkscape:collect="always"
       id="linearGradient918">
      <stop
         style="stop-color:#ffffff;stop-opacity:1"
         offset="0"
         id="stop914" />
      <stop
         style="stop-color:#fffe97;stop-opacity:1"
         offset="1"
         id="stop916" />
    </linearGradient>
    <radialGradient
       inkscape:collect="always"
       xlink:href="#linearGradient1010"
       id="radialGradient1014"
       cx="-140.48355"
       cy="230.09775"
       fx="-140.48355"
       fy="230.09775"
       r="3.7088108"
       gradientTransform="matrix(1,0,0,0.62500117,0,86.286387)"
       gradientUnits="userSpaceOnUse" />
    <linearGradient
       inkscape:collect="always"
       xlink:href="#linearGradient926"
       id="linearGradient1030"
       gradientUnits="userSpaceOnUse"
       gradientTransform="matrix(0.05088866,0,0,0.05088866,-120.26368,187.95866)"
       x1="-446.83182"
       y1="746.12903"
       x2="-301.85349"
       y2="546.11877" />
    <radialGradient
       inkscape:collect="always"
       xlink:href="#linearGradient918"
       id="radialGradient1056"
       gradientUnits="userSpaceOnUse"
       gradientTransform="matrix(0.19292429,0,0,0.18798991,-120.19924,187.68532)"
       cx="-104.90329"
       cy="112.45598"
       fx="-104.90329"
       fy="112.45598"
       r="44.500374" />
  </defs>
  <sodipodi:namedview
     id="base"
     pagecolor="#ffffff"
     bordercolor="#666666"
     borderopacity="1.0"
     inkscape:pageopacity="0.0"
     inkscape:pageshadow="2"
     inkscape:zoom="2"
     inkscape:cx="161.51386"
     inkscape:cy="69.512254"
     inkscape:document-units="mm"
     inkscape:current-layer="layer1"
     showgrid="false"
     inkscape:window-width="1600"
     inkscape:window-height="814"
     inkscape:window-x="0"
     inkscape:window-y="0"
     inkscape:window-maximized="1"
     units="px" />
  <metadata
     id="metadata5">
    <rdf:RDF>
      <cc:Work
         rdf:about="">
        <dc:format>image/svg+xml</dc:format>
        <dc:type
           rdf:resource="http://purl.org/dc/dcmitype/StillImage" />
        <dc:title></dc:title>
      </cc:Work>
    </rdf:RDF>
  </metadata>
  <g
     inkscape:label="Layer 1"
     inkscape:groupmode="layer"
     id="layer1"
     transform="translate(0,-263.13332)">
    <g
       id="g1070"
       transform="matrix(0.99696948,0,0,0.99699391,156.9454,64.02011)"
       style="stroke-width:1.00302744">
      <path
         transform="scale(0.26458333)"
         id="circle1047"
         d="m -530.78711,756.20508 a 33.887351,33.887351 0 0 0 -33.88867,33.88867 33.887351,33.887351 0 0 0 4.29883,16.4375 c 0.215,0.13867 0.44717,0.29849 0.66601,0.36914 1.61008,0.52006 3.33079,0.60349 5.00977,0.8125 0.0113,10e-4 0.0238,0.003 0.0352,0.004 2.32581,0.23705 5.08808,0.45939 7.87696,0.64648 5.25449,0.27481 10.51755,0.49138 15.77929,0.52539 5.26175,-0.0322 10.52481,-0.25024 15.7793,-0.52539 2.78816,-0.18705 5.55149,-0.40951 7.87695,-0.64648 0.0151,-9.5e-4 0.0277,-0.002 0.0391,-0.004 1.67901,-0.20908 3.39972,-0.29236 5.00976,-0.8125 0.4297,-0.13878 0.91085,-0.62815 1.21094,-0.60547 0.0197,10e-4 0.0389,0.0117 0.0586,0.0156 a 33.887351,33.887351 0 0 0 4.13477,-16.2168 33.887351,33.887351 0 0 0 -33.88672,-33.88867 z"
         style="opacity:1;fill:#ffe44d;fill-opacity:1;fill-rule:nonzero;stroke:#d4a22d;stroke-width:0.75819397;stroke-miterlimit:4;stroke-dasharray:none;stroke-opacity:0.91764706"
         inkscape:connector-curvature="0" />
      <path
         inkscape:connector-curvature="0"
         id="circle1052"
         d="m -140.43742,200.46011 a 8.5852031,8.3656213 0 0 0 -8.58552,8.36594 8.5852031,8.3656213 0 0 0 1.30379,4.42215 c 0.31418,0.0584 0.63689,0.0818 0.95447,0.12034 0.003,2.6e-4 0.006,7.8e-4 0.009,0.001 0.61537,0.0611 1.34622,0.11843 2.08411,0.16667 1.39025,0.0708 2.78277,0.12669 4.17494,0.13545 1.39217,-0.008 2.78469,-0.0645 4.17494,-0.13545 0.7377,-0.0483 1.46883,-0.10558 2.08411,-0.16667 0.004,-2.5e-4 0.007,-5.2e-4 0.0103,-0.001 0.36079,-0.0438 0.72779,-0.0693 1.08159,-0.14804 a 8.5852031,8.3656213 0 0 0 1.29295,-4.39445 8.5852031,8.3656213 0 0 0 -8.58501,-8.36594 z"
         style="opacity:1;fill:url(#radialGradient1056);fill-opacity:1;fill-rule:nonzero;stroke:none;stroke-width:0.2006055;stroke-miterlimit:4;stroke-dasharray:none;stroke-opacity:0.66666667" />
      <path
         sodipodi:nodetypes="aaaaaaaaaaa"
         inkscape:connector-curvature="0"
         id="path910"
         d="m -142.34328,231.85822 c -0.11868,0.10526 -0.0903,0.31435 -0.0666,0.47121 0.0222,0.14738 0.10135,0.28505 0.19038,0.40458 0.10941,0.14688 0.24703,0.28166 0.40934,0.3665 0.40175,0.21 0.87013,0.29904 1.3232,0.31414 0.39233,0.0131 0.80694,-0.0264 1.16137,-0.19515 0.16037,-0.0764 0.26985,-0.23117 0.39982,-0.35222 0.10508,-0.0979 0.25665,-0.16775 0.307,-0.30224 0.0689,-0.18405 0.0908,-0.44594 -0.0452,-0.58783 -0.32284,-0.33687 -0.9238,-0.14361 -1.38984,-0.16659 -0.76238,-0.0376 -1.71836,-0.45889 -2.28942,0.0476 z"
         style="opacity:1;fill:#748498;fill-opacity:1;stroke:none;stroke-width:0.10030275;stroke-linecap:butt;stroke-linejoin:miter;stroke-miterlimit:4;stroke-dasharray:none;stroke-opacity:1" />
      <path
         style="opacity:0.003;fill:#000000;fill-opacity:1;stroke:none;stroke-width:0.10030275;stroke-linecap:butt;stroke-linejoin:miter;stroke-miterlimit:4;stroke-dasharray:none;stroke-opacity:1"
         d="m -136.95084,227.97156 c 0.11446,0.0619 0.16,0.22839 0.15481,0.35844 -0.006,0.14718 -0.20853,0.24312 -0.20698,0.39041 10e-4,0.12335 0.13329,0.20915 0.18016,0.32326 0.13372,0.32559 -0.0431,0.55543 -0.14482,0.66792 -0.12806,0.14154 0.11097,0.23004 0.14251,0.35294 0.0501,0.19515 0.0216,0.45918 -0.0741,0.65807 -0.0701,0.14555 -0.25788,0.2052 -0.34267,0.3427 -0.0976,0.15824 -0.0624,0.3818 -0.17534,0.52944 -0.21693,0.28346 -0.56081,0.4606 -0.89325,0.59059 -0.65161,0.25478 -1.37207,0.33819 -2.07173,0.33704 -0.79297,-0.001 -1.5976,-0.12982 -2.34676,-0.38974 -0.18533,-0.0643 -0.35592,-0.1698 -0.51552,-0.28387 -0.10854,-0.0776 -0.19554,-0.18164 -0.29617,-0.26925 -0.18505,-0.16108 -0.46208,-0.24867 -0.56543,-0.47119 -0.0733,-0.15771 -0.0724,-0.36515 0.003,-0.52167 0.0643,-0.13288 0.24846,-0.15935 0.23222,-0.27935 -0.0191,-0.14129 -0.2339,-0.22458 -0.27598,-0.37358 -0.0744,-0.26336 0.1028,-0.54503 0.24825,-0.64894 0.12016,-0.0858 -0.22014,-0.28232 -0.26525,-0.41467 -0.0963,-0.28241 0.0688,-0.4735 0.23982,-0.58059 0.35791,-0.22417 0.82821,0.0305 1.24252,0.0341 1.30417,0.0116 2.61359,0.0797 3.91249,-0.0381 0.61242,-0.0555 1.27705,-0.60668 1.81788,-0.31402 z"
         id="path934"
         inkscape:connector-curvature="0"
         sodipodi:nodetypes="caasssaaaaaaaaassssssaaac" />
      <path
         sodipodi:nodetypes="caasssaaaaaaaaassssssaaac"
         inkscape:connector-curvature="0"
         id="path908"
         d="m -136.95084,227.86494 c 0.11446,0.0619 0.16,0.2284 0.15481,0.35844 -0.006,0.14718 -0.20853,0.24313 -0.20698,0.39041 10e-4,0.12335 0.13329,0.20915 0.18016,0.32326 0.13372,0.32559 -0.0431,0.55543 -0.14482,0.66792 -0.12806,0.14154 0.11097,0.23005 0.14251,0.35294 0.0501,0.19516 0.0216,0.45919 -0.0741,0.65807 -0.0701,0.14555 -0.25788,0.2052 -0.34267,0.34271 -0.0976,0.15823 -0.0624,0.3818 -0.17534,0.52943 -0.21693,0.28346 -0.56081,0.4606 -0.89325,0.59059 -0.65161,0.25478 -1.37207,0.33819 -2.07173,0.33704 -0.79297,-0.001 -1.5976,-0.12982 -2.34676,-0.38974 -0.18533,-0.0643 -0.35592,-0.16979 -0.51552,-0.28387 -0.10854,-0.0776 -0.19554,-0.18164 -0.29617,-0.26925 -0.18505,-0.16108 -0.46208,-0.24867 -0.56543,-0.47118 -0.0733,-0.15772 -0.0724,-0.36515 0.003,-0.52168 0.0643,-0.13287 0.24846,-0.15935 0.23222,-0.27934 -0.0191,-0.1413 -0.2339,-0.22459 -0.27598,-0.37359 -0.0744,-0.26336 0.1028,-0.54503 0.24825,-0.64894 0.12016,-0.0858 -0.22014,-0.28232 -0.26525,-0.41467 -0.0963,-0.28241 0.0688,-0.4735 0.23982,-0.58058 0.35791,-0.22418 0.82821,0.0305 1.24252,0.0341 1.30417,0.0116 2.61359,0.0797 3.91249,-0.0381 0.61242,-0.0555 1.27705,-0.60668 1.81788,-0.31402 z"
         style="opacity:1;fill:url(#radialGradient1014);fill-opacity:1;stroke:#768499;stroke-width:0.10030275;stroke-linecap:butt;stroke-linejoin:miter;stroke-miterlimit:4;stroke-dasharray:none;stroke-opacity:1" />
      <path
         sodipodi:nodetypes="sasaaas"
         inkscape:connector-curvature="0"
         id="path912"
         d="m -143.69393,228.70077 c 0.55898,0.2742 2.04089,0.33622 3.06782,0.30128 1.11011,-0.0378 2.21926,-0.37246 3.28649,-0.55033 0.24188,-0.0403 0.54245,-0.39492 0.41733,-0.60582 -0.93228,-1.57144 -3.62554,0.60407 -5.45231,0.56543 -0.34009,-0.007 -0.697,-0.28201 -1.00969,-0.14809 -0.16424,0.0703 -0.47005,0.35885 -0.30964,0.43753 z"
         style="opacity:0.25;fill:#000000;fill-opacity:1;stroke:none;stroke-width:0.26538432px;stroke-linecap:butt;stroke-linejoin:miter;stroke-opacity:1" />
      <path
         id="path884"
         d="m -148.41071,213.3321 c -0.12941,0.009 -0.2568,0.22501 -0.18064,0.64387 0.0439,0.24127 0.79758,1.63593 1.41997,3.09513 0.4581,1.07403 0.8041,2.19538 1.03598,2.85452 0.55319,1.57252 1.21176,4.68518 1.24984,5.27539 0.0222,0.34396 0.0992,0.91793 0.15909,1.45599 0.0429,0.38522 0.0348,0.78923 0.22844,1.05546 0.24374,0.33504 0.68988,0.48932 1.08971,0.59795 0.85541,0.23241 2.06328,0.34763 2.91251,0.34411 0.84923,0.004 2.05708,-0.11169 2.91251,-0.34411 0.39983,-0.10863 0.84597,-0.26291 1.08971,-0.59795 0.19368,-0.26623 0.18553,-0.67024 0.22844,-1.05546 0.0599,-0.53806 0.1369,-1.11203 0.15909,-1.45599 0.0381,-0.59021 0.69665,-3.70287 1.24984,-5.27539 0.23188,-0.65914 0.57788,-1.78049 1.03599,-2.85452 0.62239,-1.4592 1.3761,-2.85386 1.41997,-3.09513 0.0762,-0.41886 -0.0512,-0.63471 -0.18065,-0.64387 -0.0794,-0.006 -0.20679,0.12372 -0.32048,0.16044 -0.42599,0.13762 -0.8815,0.15958 -1.32574,0.2149 -0.003,4.3e-4 -0.006,7.5e-4 -0.01,0.001 -0.61528,0.0627 -1.34635,0.12147 -2.08405,0.17096 -1.39025,0.0728 -2.78278,0.13068 -4.17495,0.13921 -1.39217,-0.009 -2.7847,-0.0665 -4.17495,-0.13921 -0.73789,-0.0495 -1.46909,-0.10835 -2.08446,-0.17107 -0.003,-3.7e-4 -0.006,-6.5e-4 -0.009,-10e-4 -0.44423,-0.0553 -0.89964,-0.0773 -1.32564,-0.2149 -0.11368,-0.0367 -0.24115,-0.16606 -0.32058,-0.16044 z"
         style="opacity:1;fill:#d7e3f3;fill-opacity:1;stroke:#768499;stroke-width:0.10030275;stroke-linecap:butt;stroke-linejoin:miter;stroke-miterlimit:4;stroke-dasharray:none;stroke-opacity:1"
         inkscape:connector-curvature="0" />
      <path
         sodipodi:nodetypes="cc"
         inkscape:original-d="m -143.74988,229.33952 c 1.01074,-0.21115 4.02324,0.70891 6.69452,-0.58502"
         inkscape:path-effect="#path-effect972"
         inkscape:connector-curvature="0"
         id="path970"
         d="m -143.74988,229.33952 c -0.0116,-0.0556 0.26733,-0.18453 0.77498,-0.21868 0.50222,-0.0338 1.21494,0.0761 1.9578,0.0939 0,0 0,0 0,0 0.21303,0.004 0.4339,0.004 0.65948,-6e-5 1.84518,-0.0358 3.24375,-0.581 3.30226,-0.4602 0.0805,0.16617 -1.31583,0.91218 -3.29306,0.94841 -0.2354,0.004 -0.46468,-3.2e-4 -0.68513,-0.0116 0,0 0,0 0,0 -0.81284,-0.0358 -1.47789,-0.20946 -1.94726,-0.26185 -0.46424,-0.0518 -0.75679,-0.0312 -0.76907,-0.09 z"
         style="fill:#92a6bf;fill-opacity:1;stroke:none;stroke-width:0.26538432px;stroke-linecap:butt;stroke-linejoin:miter;stroke-opacity:1" />
      <path
         style="fill:#92a6bf;fill-opacity:1;stroke:none;stroke-width:0.26538432px;stroke-linecap:butt;stroke-linejoin:miter;stroke-opacity:1"
         d="m -143.67237,230.21435 c -0.006,-0.0735 0.35212,-0.17852 0.95673,-0.18329 0.59971,-0.005 1.42336,0.1282 2.29431,0.16266 0.0666,0.002 0.13378,0.003 0.20158,0.004 1.84186,0.0152 3.08219,-0.89384 3.18902,-0.78311 0.0457,0.0474 -0.1629,0.40377 -0.72764,0.74829 -0.58202,0.35507 -1.42522,0.61497 -2.46919,0.59499 -0.0736,-0.001 -0.14639,-0.004 -0.21832,-0.008 -0.75134,-0.0364 -1.92353,-0.27523 -2.29902,-0.33773 -0.56206,-0.0935 -0.92174,-0.12395 -0.92747,-0.19755 z"
         id="path978"
         inkscape:connector-curvature="0"
         inkscape:path-effect="#path-effect980"
         inkscape:original-d="m -143.67237,230.21435 c 1.7381,-0.13526 4.68473,1.08804 6.64163,-0.79975"
         sodipodi:nodetypes="cc" />
      <path
         sodipodi:nodetypes="cc"
         inkscape:original-d="m -143.60835,231.27772 c 1.61694,-0.28334 4.57703,0.96016 6.53393,-0.92764"
         inkscape:path-effect="#path-effect984"
         inkscape:connector-curvature="0"
         id="path982"
         d="m -143.60835,231.27772 c -0.01,-0.0567 0.32594,-0.18432 0.90988,-0.20949 0.57902,-0.025 1.38685,0.0984 2.23702,0.12418 0,0 0,0 0,0 0.0823,0.002 0.16559,0.002 0.24978,0.002 1.83148,-0.0119 3.05144,-0.9332 3.13725,-0.84424 0.0356,0.0369 -0.17831,0.37695 -0.73001,0.70615 -0.57134,0.34093 -1.38576,0.59042 -2.40623,0.58865 -0.0897,-1.5e-4 -0.17834,-0.002 -0.26563,-0.006 0,0 0,0 0,0 -0.90916,-0.0327 -1.68074,-0.21069 -2.23056,-0.26678 -0.545,-0.0556 -0.8912,-0.0355 -0.9015,-0.0942 z"
         style="fill:#92a6bf;fill-opacity:1;stroke:none;stroke-width:0.26538432px;stroke-linecap:butt;stroke-linejoin:miter;stroke-opacity:1" />
      <path
         inkscape:connector-curvature="0"
         style="opacity:1;fill:url(#linearGradient1030);fill-opacity:1;stroke:none;stroke-width:0.10030273;stroke-linecap:butt;stroke-linejoin:miter;stroke-miterlimit:4;stroke-dasharray:none;stroke-opacity:1"
         d="m -148.05138,213.6799 c -0.12353,0.008 -0.24514,0.21479 -0.17243,0.61464 0.0419,0.23032 0.76137,1.56166 1.3555,2.95461 0.4373,1.02528 0.76759,2.09571 0.98894,2.72493 0.52808,1.50112 1.15675,4.47248 1.1931,5.0359 0.0212,0.32834 0.0948,0.87626 0.15186,1.38989 0.041,0.36773 0.0332,0.7534 0.21808,1.00755 0.23267,0.31982 0.65856,0.46709 1.04024,0.57079 0.81657,0.22187 1.96962,0.33186 2.78029,0.32849 0.81068,0.003 1.9637,-0.10658 2.78028,-0.32849 0.38167,-0.10372 0.80757,-0.25097 1.04024,-0.57079 0.1849,-0.25415 0.17711,-0.63982 0.21808,-1.00755 0.0572,-0.51363 0.13067,-1.06155 0.15186,-1.38989 0.0364,-0.56342 0.66502,-3.53478 1.1931,-5.0359 0.22136,-0.62922 0.55164,-1.69965 0.98896,-2.72493 0.59414,-1.39295 1.31362,-2.72429 1.35551,-2.95461 0.0727,-0.39985 -0.0489,-0.6059 -0.17245,-0.61464 -0.0757,-0.006 -0.1974,0.11811 -0.30594,0.15316 -0.40665,0.13136 -0.84149,0.15234 -1.26555,0.20513 -0.002,4.2e-4 -0.006,7.2e-4 -0.009,9.6e-4 -0.58734,0.0598 -1.28523,0.11596 -1.98944,0.1632 -1.32713,0.0695 -2.65644,0.12474 -3.98541,0.13289 -1.32898,-0.008 -2.65828,-0.0635 -3.98541,-0.13289 -0.7044,-0.0472 -1.4024,-0.10351 -1.98984,-0.1633 -0.002,-3.6e-4 -0.006,-6.3e-4 -0.008,-9.6e-4 -0.42406,-0.0529 -0.85878,-0.0739 -1.26545,-0.20514 -0.10853,-0.0351 -0.2302,-0.15853 -0.30603,-0.15316 z"
         id="path1028" />
    </g>
  </g>
</svg>
