<?xml version="1.0" encoding="UTF-8" standalone="no"?>
<svg
   xmlns:dc="http://purl.org/dc/elements/1.1/"
   xmlns:cc="http://creativecommons.org/ns#"
   xmlns:rdf="http://www.w3.org/1999/02/22-rdf-syntax-ns#"
   xmlns:svg="http://www.w3.org/2000/svg"
   xmlns="http://www.w3.org/2000/svg"
   xmlns:xlink="http://www.w3.org/1999/xlink"
   xmlns:sodipodi="http://sodipodi.sourceforge.net/DTD/sodipodi-0.dtd"
   xmlns:inkscape="http://www.inkscape.org/namespaces/inkscape"
   enable-background="new 0 0 128 128"
   viewBox="0 0 128 128"
   version="1.1"
   id="svg88"
   sodipodi:docname="xfce-ui.svg"
   inkscape:version="0.91 r13725">
  <metadata
     id="metadata94">
    <rdf:RDF>
      <cc:Work
         rdf:about="">
        <dc:format>image/svg+xml</dc:format>
        <dc:type
           rdf:resource="http://purl.org/dc/dcmitype/StillImage" />
      </cc:Work>
    </rdf:RDF>
  </metadata>
  <defs
     id="defs92">
    <linearGradient
       inkscape:collect="always"
       id="linearGradient930">
      <stop
         style="stop-color:#4a4a4a;stop-opacity:1"
         offset="0"
         id="stop926" />
      <stop
         id="stop4548"
         offset="0.75696701"
         style="stop-color:#4a4a4a;stop-opacity:1" />
      <stop
         style="stop-color:#161616;stop-opacity:1"
         offset="1"
         id="stop928" />
    </linearGradient>
    <linearGradient
       y2="119.072646"
       y1="17.956377"
       x2="68.87367"
       x1="73.82343"
       gradientUnits="userSpaceOnUse"
       id="linearGradient910">
      <stop
         id="stop906"
         stop-color="#2c2d31"
         offset="0" />
      <stop
         offset="0.72577316"
         stop-color="#2c2d31"
         id="stop912"
         style="stop-color:#393b3f;stop-opacity:1;" />
      <stop
         id="stop908"
         stop-color="#3c3e43"
         offset="1"
         style="stop-color:#35373b;stop-opacity:1" />
    </linearGradient>
    <radialGradient
       inkscape:collect="always"
       xlink:href="#linearGradient910"
       id="radialGradient914"
       gradientUnits="userSpaceOnUse"
       cx="64.984589"
       cy="65.332527"
       fx="64.984589"
       fy="65.332527"
       r="59.750519" />
    <radialGradient
       inkscape:collect="always"
       xlink:href="#linearGradient930"
       id="radialGradient4544"
       cx="219.41699"
       cy="67.200195"
       fx="219.41699"
       fy="67.200195"
       r="59.15527"
       gradientTransform="matrix(0.86000313,-0.51028875,0.50552676,0.85197765,-3.253807,121.91316)"
       gradientUnits="userSpaceOnUse" />
  </defs>
  <sodipodi:namedview
     pagecolor="#ffffff"
     bordercolor="#666666"
     borderopacity="1"
     objecttolerance="10"
     gridtolerance="10"
     guidetolerance="10"
     inkscape:pageopacity="0"
     inkscape:pageshadow="2"
     inkscape:window-width="1920"
     inkscape:window-height="1025"
     id="namedview90"
     showgrid="false"
     showguides="true"
     inkscape:zoom="3.6874999"
     inkscape:cx="48.71612"
     inkscape:cy="89.534974"
     inkscape:window-x="0"
     inkscape:window-y="26"
     inkscape:window-maximized="1"
     inkscape:current-layer="svg88" />
  <linearGradient
     id="a">
    <stop
       offset="0"
       id="stop2" />
    <stop
       offset="1"
       stop-opacity="0"
       id="stop4" />
  </linearGradient>
  <linearGradient
     id="b"
     gradientUnits="userSpaceOnUse"
     x1="196.604783"
     x2="239.83294"
     y1="30.725644"
     y2="106.350642">
    <stop
       offset="0"
       stop-color="#cad1d4"
       id="stop7"
       style="stop-color:#e2e6e8;stop-opacity:1" />
    <stop
       offset="1"
       stop-color="#8c8a88"
       id="stop9"
       style="stop-color:#838d91;stop-opacity:1" />
  </linearGradient>
  <linearGradient
     id="c"
     gradientUnits="userSpaceOnUse"
     x1="202.687495"
     x2="227.871089"
     y1="37.208948"
     y2="97.865198">
    <stop
       offset="0"
       stop-color="#494f52"
       id="stop12" />
    <stop
       offset="1"
       stop-color="#98a1a6"
       id="stop14" />
  </linearGradient>
  <radialGradient
     id="d"
     cx="218.594287"
     cy="69.600549"
     gradientUnits="userSpaceOnUse"
     r="3.005204">
    <stop
       offset="0"
       stop-color="#27282c"
       id="stop17" />
    <stop
       offset="1"
       stop-color="#27282c"
       id="stop19" />
  </radialGradient>
  <linearGradient
     id="e"
     gradientUnits="userSpaceOnUse"
     x1="214.771043"
     x2="222.417527"
     y1="69.600548"
     y2="69.600548">
    <stop
       offset="0"
       stop-color="#5f6569"
       id="stop22" />
    <stop
       offset="1"
       stop-color="#686e72"
       id="stop24" />
  </linearGradient>
  <linearGradient
     id="f"
     gradientUnits="userSpaceOnUse"
     x1="71.179447"
     x2="70.103435"
     y1=".985817"
     y2="126.497276">
    <stop
       offset="0"
       stop-color="#f6f6f6"
       stop-opacity=".988372"
       id="stop27" />
    <stop
       offset="1"
       stop-color="#bfbfbf"
       id="stop29" />
  </linearGradient>
  <linearGradient
     id="g"
     gradientUnits="userSpaceOnUse"
     x1="50.234587"
     x2="71.234591"
     y1="8.332533"
     y2="120.83253">
    <stop
       offset="0"
       stop-color="#afb0b1"
       id="stop32" />
    <stop
       offset="1"
       stop-color="#bdbebf"
       id="stop34" />
  </linearGradient>
  <linearGradient
     id="h"
     gradientUnits="userSpaceOnUse"
     x1="73.82343"
     x2="68.87367"
     y1="17.956377"
     y2="119.072646">
    <stop
       offset="0"
       stop-color="#2c2d31"
       id="stop37" />
    <stop
       offset="1"
       stop-color="#3c3e43"
       id="stop39" />
  </linearGradient>
  <filter
     id="i"
     color-interpolation-filters="sRGB"
     height="1.071836"
     width="1.072165"
     x="-.036083"
     y="-.035918">
    <feGaussianBlur
       stdDeviation="1.7787305"
       id="feGaussianBlur42" />
  </filter>
  <filter
     id="j"
     color-interpolation-filters="sRGB"
     height="1.072"
     width="1.072"
     x="-.036"
     y="-.036">
    <feGaussianBlur
       stdDeviation="1.7925294"
       id="feGaussianBlur45" />
  </filter>
  <linearGradient
     id="k"
     gradientUnits="userSpaceOnUse"
     x1="-8.20096"
     x2="47.86439"
     xlink:href="#a"
     y1=".985813"
     y2="56.025164" />
  <linearGradient
     id="l"
     gradientUnits="userSpaceOnUse"
     x1="118.04905"
     x2="92.11439"
     xlink:href="#a"
     y1="115.23581"
     y2="89.525164" />
  <g
     transform="matrix(.9612497 0 0 .9612497 2.018173 2.031656)"
     id="g86">
    <circle
       cx="64.984589"
       cy="65.332527"
       r="59.750519"
       id="circle50"
       fill="url(#h)" />
    <circle
       cx="64.984589"
       cy="65.332527"
       r="59.750519"
       id="circle52"
       style="fill-opacity:1;fill:url(#radialGradient914)"
       fill="url(#h)" />
    <path
       d="m64.985492 5.5818047a59.750519 59.750519 0 0 0 -59.7519603 59.7500003 59.750519 59.750519 0 0 0 59.7519603 59.751955 59.750519 59.750519 0 0 0 59.749998-59.751955 59.750519 59.750519 0 0 0 -59.749998-59.7500003zm0 5.2500003a54.500519 54.500519 0 0 1 54.499998 54.5 54.500519 54.500519 0 0 1 -54.499998 54.501955 54.500519 54.500519 0 0 1 -54.50196-54.501955 54.500519 54.500519 0 0 1 54.50196-54.5z"
       id="path54"
       filter="url(#j)"
       fill-opacity=".19186" />
    <g
       transform="translate(-154.14928 -2.12132)"
       id="g62">
      <path
         d="m217.16211 7.7734375a59.750519 59.750519 0 0 0 -7.25586.6855469 33.700947 33.700947 0 0 1 1.57422 8.2558596 33.700947 33.700947 0 0 1 -31.62109 35.660156 33.700947 33.700947 0 0 1 -17.39649-3.703125 59.750519 59.750519 0 0 0 -2.20117 8.980469c.62981-.787922 1.36347-1.831234 2.3164-3.197266l-.79296-.410156c1.52488.659419 3.09067 1.219631 4.6875 1.679687-.0332 4.519531-.36455 6.301474 1.71093 6.859375 1.79693.483009 2.37735-1.122548 3.91993-5.632812 1.47306.192356 2.95588.300683 4.4414.324219 1.13174 4.929958 1.50356 6.624156 3.38867 6.322265 2.11644-.338939 1.97912-2.141206 2.41016-6.613281 1.48385-.198634 2.95506-.48223 4.40625-.849609 2.10042 4.354046 2.86289 5.892256 4.59961 5.193359 1.99446-.802619 1.45113-2.533028.87695-7.019531 1.34859-.554073 2.66541-1.18164 3.94336-1.882813 3.27363 3.664737 4.42723 4.946431 5.91406 3.78711 1.68798-1.316155.70309-2.829243-1.07226-6.941407 1.19871-.920464 2.34231-1.909876 3.42578-2.96289 3.93565 2.632091 5.37162 3.549729 6.50391 2.080078 1.28955-1.673777-.005-2.897585-2.67774-6.332031.87132-1.125282 1.67926-2.298125 2.42188-3.511719 4.69323 1.347372 6.34989 1.813417 6.98828.04492.71288-1.974901-.87472-2.755419-4.41992-5.173828.59314-1.412058 1.10317-2.858212 1.52539-4.330078 4.86084.157982 6.57944.201678 6.76562-1.666016.20859-2.092684-1.52898-2.459297-5.57226-3.94336.19372-1.531441.29669-3.073704.30664-4.617187 4.60682-.887608 6.26628-1.248147 6.03906-3.082031-.26005-2.098563-2.04219-2.058657-6.36524-2.623047-.2039-1.444383-.49021-2.876703-.85546-4.2890626.81818-.4217281 1.44513-.7563726 2.06445-1.0917969zm.19336 36.6757815-2.62891.34375c-.12138.0159-.22415.08029-.29297.169922-.0688.0896-.09.203772-.0879.326171l.0566 3.277344a19.489632 19.489632 0 0 0 -5.42968 2.275391l-2.24024-2.355469c-.0763-.0958-.18097-.155122-.29297-.169922-.11199-.0148-.229.01339-.32617.08789l-2.10547 1.613281c-.0972.0745-.15512.180969-.16992.292969s.0271.221855.0879.328125l1.625 2.839844a19.489632 19.489632 0 0 0 -3.53711 4.667968l-3.08789-.908203c-.11392-.0448-.2335-.04505-.33789-.002-.10439.0432-.19137.127155-.23828.240234l-1.01563 2.449219c-.0469.11308-.0451.233501-.002.337891.0432.10439.13447.178594.24024.240234l2.82617 1.646485a19.489632 19.489632 0 0 0 -.75391 5.302734 19.489632 19.489632 0 0 0 .0176.5l-3.15039.761719c-.12105.0182-.2261.0784-.29492.167968-.0688.0896-.1019.204792-.0859.326172l.34375 2.628907c.0159.12138.0784.226101.16797.294921.0896.0688.2057.08544.32812.08594l3.28711.01367a19.489632 19.489632 0 0 0 2.26953 5.388672l-2.3457 2.232422c-.0957.0763-.15512.180968-.16992.292968s.0134.230965.0879.328125l1.61328 2.103516c.0745.0972.18097.155122.29297.169922.11199.0148.2199-.02709.32617-.08789l2.83203-1.61914a19.489632 19.489632 0 0 0 4.67383 3.539062l-.90625 3.080078c-.0448.11392-.0432.233491 0 .337891.0432.10439.1252.193334.23828.240234l2.44922 1.015625c.11307.0469.23545.0432.33984 0 .1044-.0432.17665-.134464.23829-.240234l1.64453-2.822266a19.489632 19.489632 0 0 0 5.29297.751953 19.489632 19.489632 0 0 0 .51171-.01758l.76172 3.150391c.0182.12106.0784.224149.16797.292969.0896.0688.20675.1038.32813.08789l2.6289-.345703c.12138-.0159.22415-.0784.29297-.167969.0688-.0896.0874-.205705.0879-.328125l.0137-3.289062a19.489632 19.489632 0 0 0 5.25586-2.197266l2.38672 2.263672c.61961.0819.18097.155122.29297.169922.11199.0148.22901-.01339.32617-.08789l2.10547-1.613281c.0972-.0745.15317-.180969.16797-.292969s-.0249-.221221-.0879-.326171l-1.67773-2.794922a19.489632 19.489632 0 0 0 3.49023-4.56836l3.20117.767578c.57755-.23887.23546.0432.33985 0 .1044-.0432.19138-.125201.23828-.238281l1.01562-2.449219c.0469-.11308.045-.235453.002-.339843-.0432-.10439-.13318-.178902-.24024-.238282l-2.88086-1.597656a19.489632 19.489632 0 0 0 .76172-5.330078 19.489632 19.489632 0 0 0 -.0137-.365234l3.14648-.931641c.38074-.49565.22415-.0784.29297-.167969.0688-.0896.1038-.204792.0879-.326172l-.3457-2.630859c-.0159-.12138-.0784-.224149-.16797-.292969-.0896-.0688-.20573-.08804-.32812-.08594l-3.27735.05664a19.489632 19.489632 0 0 0 -2.20312-5.296875l2.27148-2.394531c.0819-.61961.15317-.180969.16797-.292969.0148-.11199-.0134-.230965-.0879-.328125l-1.61133-2.103515c-.0745-.0972-.18097-.155122-.29297-.169922-.11199-.0148-.22317.02489-.32812.08789l-2.80274 1.683593a19.489632 19.489632 0 0 0 -4.5625-3.488281l.76953-3.208984c-.23887-.57755.0432-.233501 0-.337891s-.1252-.193334-.23828-.240234l-2.44922-1.015625c-.11307-.0469-.23349-.0432-.33789 0-.10439.0432-.18085.131231-.24023.238281l-1.59961 2.884765a19.489632 19.489632 0 0 0 -5.33984-.763671 19.489632 19.489632 0 0 0 -.35157.01172l-.93164-3.144531c-.49565-.38073-.0803-.226102-.16992-.294922-.0896-.0688-.20479-.101887-.32617-.08594zm1.7793 7.625a15.379573 15.379573 0 0 1 15.3789 15.378906 15.379573 15.379573 0 0 1 -15.3789 15.378906 15.379573 15.379573 0 0 1 -15.37891-15.378906 15.379573 15.379573 0 0 1 15.37891-15.378906zm49.91015 18.033203c-2.1338-.01066-2.30295 1.778604-3.44336 6.078125-1.48296-.05272-2.96779-.02044-4.44726.0957-1.44871-4.737159-1.95274-6.390221-3.79492-5.958984-2.09178.489672-1.81958 2.280606-1.9336 6.794922-1.4157.326998-2.81122.732399-4.18164 1.214843-2.54292-4.258136-3.42885-5.740717-5.11523-4.880859-1.93903.988672-1.20784 2.668408-.21875 7.210937-1.27953.668455-2.5213 1.407121-3.71875 2.212891-3.72902-3.361829-5.00921-4.530219-6.375-3.205078-1.54088 1.495015-.38965 2.892417 1.83203 6.816406-1.07627.99515-2.0956 2.050518-3.05274 3.160156-4.42504-2.366076-5.94987-3.192217-6.95703-1.578125-1.14298 1.831771.32882 2.903355 3.46485 6.222657-.76672 1.206066-1.46646 2.453625-2.09571 3.736328-4.41241-.942466-6.0886-1.624013-7.05273.294922-.85265 1.697097.64112 2.570377 4.94726 5.107427-.43761 1.38951-.79744 2.80287-1.07617 4.23242-4.46348.22819-6.25341.0171-6.68555 2.11133-.38022 1.8428 1.27462 2.31292 5.98829 3.61914-.0563 1.43456-.0327 2.87088.0703 4.30273-4.21708 1.47658-5.99403 1.77927-5.81836 3.91016.15259 1.85073 1.85709 1.85768 6.60156 1.78515.24821 1.09279.55892 2.16947.90039 3.23633a59.750519 59.750519 0 0 0 5.60547-1.00976c-2.21462-6.65324-2.69661-14.02347.98242-23.53711.68163-1.7626 1.49026-3.281737 2.41016-4.470708a33.700947 33.700947 0 0 1 17.06055-13.925781c.93356-.474026 2.21832-.839722 3.64453-1.123047a33.700947 33.700947 0 0 1 3.10547-.636719 33.700947 33.700947 0 0 1 3.35351-.320312 33.700947 33.700947 0 0 1 13.50977 2.179687 59.750519 59.750519 0 0 0 2.01758-10.271484c-.80264.791594-1.62121 2.250978-2.99024 4.40039-1.38809-.429816-2.79892-.782129-4.22656-1.054687-.31017-5.009207-.40789-6.740487-2.31055-6.75z"
         id="path56"
         filter="url(#i)"
         fill-opacity=".453488" />
      <path
         d="m217.16211 7.7734375a59.750519 59.750519 0 0 0 -7.25586.6855469 33.700947 33.700947 0 0 1 1.57422 8.2558596 33.700947 33.700947 0 0 1 -31.62109 35.660156 33.700947 33.700947 0 0 1 -17.39649-3.703125 59.750519 59.750519 0 0 0 -2.20117 8.980469c.62981-.787922 1.36347-1.831234 2.3164-3.197266l-.79296-.410156c1.52488.659419 3.09067 1.219631 4.6875 1.679687-.0332 4.519531-.36455 6.301474 1.71093 6.859375 1.79693.483009 2.37735-1.122548 3.91993-5.632812 1.47306.192356 2.95588.300683 4.4414.324219 1.13174 4.929958 1.50356 6.624156 3.38867 6.322265 2.11644-.338939 1.97912-2.141206 2.41016-6.613281 1.48385-.198634 2.95506-.48223 4.40625-.849609 2.10042 4.354046 2.86289 5.892256 4.59961 5.193359 1.99446-.802619 1.45113-2.533028.87695-7.019531 1.34859-.554073 2.66541-1.18164 3.94336-1.882813 3.27363 3.664737 4.42723 4.946431 5.91406 3.78711 1.68798-1.316155.70309-2.829243-1.07226-6.941407 1.19871-.920464 2.34231-1.909876 3.42578-2.96289 3.93565 2.632091 5.37162 3.549729 6.50391 2.080078 1.28955-1.673777-.005-2.897585-2.67774-6.332031.87132-1.125282 1.67926-2.298125 2.42188-3.511719 4.69323 1.347372 6.34989 1.813417 6.98828.04492.71288-1.974901-.87472-2.755419-4.41992-5.173828.59314-1.412058 1.10317-2.858212 1.52539-4.330078 4.86084.157982 6.57944.201678 6.76562-1.666016.20859-2.092684-1.52898-2.459297-5.57226-3.94336.19372-1.531441.29669-3.073704.30664-4.617187 4.60682-.887608 6.26628-1.248147 6.03906-3.082031-.26005-2.098563-2.04219-2.058657-6.36524-2.623047-.2039-1.444383-.49021-2.876703-.85546-4.2890626.81818-.4217281 1.44513-.7563726 2.06445-1.0917969zm.19336 36.6757815-2.62891.34375c-.12138.0159-.22415.08029-.29297.169922-.0688.0896-.09.203772-.0879.326171l.0566 3.277344a19.489632 19.489632 0 0 0 -5.42968 2.275391l-2.24024-2.355469c-.0763-.0958-.18097-.155122-.29297-.169922-.11199-.0148-.229.01339-.32617.08789l-2.10547 1.613281c-.0972.0745-.15512.180969-.16992.292969s.0271.221855.0879.328125l1.625 2.839844a19.489632 19.489632 0 0 0 -3.53711 4.667968l-3.08789-.908203c-.11392-.0448-.2335-.04505-.33789-.002-.10439.0432-.19137.127155-.23828.240234l-1.01563 2.449219c-.0469.11308-.0451.233501-.002.337891.0432.10439.13447.178594.24024.240234l2.82617 1.646485a19.489632 19.489632 0 0 0 -.75391 5.302734 19.489632 19.489632 0 0 0 .0176.5l-3.15039.761719c-.12105.0182-.2261.0784-.29492.167968-.0688.0896-.1019.204792-.0859.326172l.34375 2.628907c.0159.12138.0784.226101.16797.294921.0896.0688.2057.08544.32812.08594l3.28711.01367a19.489632 19.489632 0 0 0 2.26953 5.388672l-2.3457 2.232422c-.0957.0763-.15512.180968-.16992.292968s.0134.230965.0879.328125l1.61328 2.103516c.0745.0972.18097.155122.29297.169922.11199.0148.2199-.02709.32617-.08789l2.83203-1.61914a19.489632 19.489632 0 0 0 4.67383 3.539062l-.90625 3.080078c-.0448.11392-.0432.233491 0 .337891.0432.10439.1252.193334.23828.240234l2.44922 1.015625c.11307.0469.23545.0432.33984 0 .1044-.0432.17665-.134464.23829-.240234l1.64453-2.822266a19.489632 19.489632 0 0 0 5.29297.751953 19.489632 19.489632 0 0 0 .51171-.01758l.76172 3.150391c.0182.12106.0784.224149.16797.292969.0896.0688.20675.1038.32813.08789l2.6289-.345703c.12138-.0159.22415-.0784.29297-.167969.0688-.0896.0874-.205705.0879-.328125l.0137-3.289062a19.489632 19.489632 0 0 0 5.25586-2.197266l2.38672 2.263672c.61961.0819.18097.155122.29297.169922.11199.0148.22901-.01339.32617-.08789l2.10547-1.613281c.0972-.0745.15317-.180969.16797-.292969s-.0249-.221221-.0879-.326171l-1.67773-2.794922a19.489632 19.489632 0 0 0 3.49023-4.56836l3.20117.767578c.57755-.23887.23546.0432.33985 0 .1044-.0432.19138-.125201.23828-.238281l1.01562-2.449219c.0469-.11308.045-.235453.002-.339843-.0432-.10439-.13318-.178902-.24024-.238282l-2.88086-1.597656a19.489632 19.489632 0 0 0 .76172-5.330078 19.489632 19.489632 0 0 0 -.0137-.365234l3.14648-.931641c.38074-.49565.22415-.0784.29297-.167969.0688-.0896.1038-.204792.0879-.326172l-.3457-2.630859c-.0159-.12138-.0784-.224149-.16797-.292969-.0896-.0688-.20573-.08804-.32812-.08594l-3.27735.05664a19.489632 19.489632 0 0 0 -2.20312-5.296875l2.27148-2.394531c.0819-.61961.15317-.180969.16797-.292969.0148-.11199-.0134-.230965-.0879-.328125l-1.61133-2.103515c-.0745-.0972-.18097-.155122-.29297-.169922-.11199-.0148-.22317.02489-.32812.08789l-2.80274 1.683593a19.489632 19.489632 0 0 0 -4.5625-3.488281l.76953-3.208984c-.23887-.57755.0432-.233501 0-.337891s-.1252-.193334-.23828-.240234l-2.44922-1.015625c-.11307-.0469-.23349-.0432-.33789 0-.10439.0432-.18085.131231-.24023.238281l-1.59961 2.884765a19.489632 19.489632 0 0 0 -5.33984-.763671 19.489632 19.489632 0 0 0 -.35157.01172l-.93164-3.144531c-.49565-.38073-.0803-.226102-.16992-.294922-.0896-.0688-.20479-.101887-.32617-.08594zm1.7793 7.625a15.379573 15.379573 0 0 1 15.3789 15.378906 15.379573 15.379573 0 0 1 -15.3789 15.378906 15.379573 15.379573 0 0 1 -15.37891-15.378906 15.379573 15.379573 0 0 1 15.37891-15.378906zm49.91015 18.033203c-2.1338-.01066-2.30295 1.778604-3.44336 6.078125-1.48296-.05272-2.96779-.02044-4.44726.0957-1.44871-4.737159-1.95274-6.390221-3.79492-5.958984-2.09178.489672-1.81958 2.280606-1.9336 6.794922-1.4157.326998-2.81122.732399-4.18164 1.214843-2.54292-4.258136-3.42885-5.740717-5.11523-4.880859-1.93903.988672-1.20784 2.668408-.21875 7.210937-1.27953.668455-2.5213 1.407121-3.71875 2.212891-3.72902-3.361829-5.00921-4.530219-6.375-3.205078-1.54088 1.495015-.38965 2.892417 1.83203 6.816406-1.07627.99515-2.0956 2.050518-3.05274 3.160156-4.42504-2.366076-5.94987-3.192217-6.95703-1.578125-1.14298 1.831771.32882 2.903355 3.46485 6.222657-.76672 1.206066-1.46646 2.453625-2.09571 3.736328-4.41241-.942466-6.0886-1.624013-7.05273.294922-.85265 1.697097.64112 2.570377 4.94726 5.107427-.43761 1.38951-.79744 2.80287-1.07617 4.23242-4.46348.22819-6.25341.0171-6.68555 2.11133-.38022 1.8428 1.27462 2.31292 5.98829 3.61914-.0563 1.43456-.0327 2.87088.0703 4.30273-4.21708 1.47658-5.99403 1.77927-5.81836 3.91016.15259 1.85073 1.85709 1.85768 6.60156 1.78515.24821 1.09279.55892 2.16947.90039 3.23633a59.750519 59.750519 0 0 0 5.60547-1.00976c-2.21462-6.65324-2.69661-14.02347.98242-23.53711.68163-1.7626 1.49026-3.281737 2.41016-4.470708a33.700947 33.700947 0 0 1 17.06055-13.925781c.93356-.474026 2.21832-.839722 3.64453-1.123047a33.700947 33.700947 0 0 1 3.10547-.636719 33.700947 33.700947 0 0 1 3.35351-.320312 33.700947 33.700947 0 0 1 13.50977 2.179687 59.750519 59.750519 0 0 0 2.01758-10.271484c-.80264.791594-1.62121 2.250978-2.99024 4.40039-1.38809-.429816-2.79892-.782129-4.22656-1.054687-.31017-5.009207-.40789-6.740487-2.31055-6.75z"
         id="path58"
         style="fill-opacity:1;fill:url(#radialGradient4544)"
         fill="#424546" />
      <path
         d="m217.16211 7.7734375a59.750519 59.750519 0 0 0 -1.49414.052734c-.30934.1614911-.521.2824949-.86719.4609375a.65006498.65006498 0 0 0 -.33203.7402344c.35919 1.3889436.6394 2.7988666.83984 4.2187506a.65006498.65006498 0 0 0 .56055.552734c2.17484.283934 3.70535.429269 4.59375.710938.4442.140834.70864.30197.87695.488281.16832.186311.28015.424903.33399.859375.0446.360077-.002.540592-.10352.699219-.10154.158627-.30999.338033-.72461.523437-.82923.370809-2.38786.697171-4.68945 1.140625a.65006498.65006498 0 0 0 -.52734.634766c-.01 1.517367-.11027 3.033074-.30079 4.539062a.65006498.65006498 0 0 0 .41993.691407c2.03366.746442 3.47972 1.22422 4.27539 1.693359.39783.234569.61801.44939.74023.667969.12222.218578.1779.475521.13477.908203-.0367.368457-.12323.537107-.25977.669922-.13653.132814-.38609.261723-.8457.349609-.91923.175772-2.56231.139517-4.99219.06055a.65006498.65006498 0 0 0 -.64648.470703c-.41508 1.446977-.91671 2.869188-1.5 4.257812a.65006498.65006498 0 0 0 .23242.789063c1.78302 1.216314 3.06346 2.030184 3.7168 2.677734.32666.323775.4862.584788.55078.826172.0646.241385.0556.503717-.0918.91211-.12602.349098-.25089.490543-.41602.585937-.16512.09539-.4396.16051-.9082.132813-.9372-.05539-2.52682-.494396-4.87305-1.167969a.65006498.65006498 0 0 0 -.73437.285156c-.73038 1.193594-1.52431 2.346918-2.38086 3.453125a.65006498.65006498 0 0 0 0 .796875c1.34454 1.727842 2.3306 2.906747 2.76367 3.730469.21654.411861.29059.710463.2793.960937-.0113.250475-.10027.499251-.36719.845704-.22257.288888-.38176.386415-.5664.427734-.18467.04132-.46044.02106-.88868-.140625-.85648-.323367-2.2054-1.196577-4.17187-2.511719a.65006498.65006498 0 0 0 -.81445.07422c-1.06548 1.03552-2.1905 2.009009-3.36915 2.914062a.65006498.65006498 0 0 0 -.20117.773438c.89352 2.069604 1.57548 3.490056 1.80078 4.416015.11266.462981.1138.776891.041 1.019532s-.22207.463271-.57227.736328c-.29376.229056-.47481.282861-.66601.27539-.1912-.0075-.45835-.101948-.8418-.376953-.7669-.550009-1.88486-1.775267-3.52148-3.607421a.65006498.65006498 0 0 0 -.79688-.136719c-1.25626.689271-2.55037 1.306531-3.87695 1.851562a.65006498.65006498 0 0 0 -.39844.683594c.28903 2.258422.55613 3.825288.51953 4.785156-.0183.479935-.10354.784113-.24023.998047s-.33982.384141-.75391.550781c-.34229.137747-.52998.1412-.71094.08203-.18095-.05917-.41096-.221608-.70117-.585938-.58042-.728659-1.30952-2.192859-2.35937-4.369141a.65006498.65006498 0 0 0 -.7461-.347656c-1.42702.36126-2.87282.640602-4.33203.835938a.65006498.65006498 0 0 0 -.56054.582031c-.21696 2.250899-.30564 3.827862-.55469 4.75-.12453.461069-.27437.73644-.45508.914063-.18071.177621-.41821.298802-.85742.36914-.37425.05993-.56006.02012-.72461-.08008-.16455-.100194-.3557-.315256-.56055-.751953-.4097-.873395-.80116-2.526513-1.36719-4.992188a.65006498.65006498 0 0 0 -.62302-.505859c-1.46079-.02314-2.9186-.129198-4.36719-.318359a.65006498.65006498 0 0 0 -.69922.433593c-.77085 2.253859-1.31481 3.775004-1.80078 4.556641-.24299.390819-.45105.574808-.62305.654297-.17199.07949-.35931.10086-.71289.0059-.43091-.115832-.65315-.261123-.81445-.457031s-.28176-.488992-.35742-.962891c-.15132-.947798-.0734-2.533572-.0566-4.808593a.65006498.65006498 0 0 0 -.47071-.628907c-1.57056-.452487-3.11018-1.002079-4.60937-1.65039a.65006498.65006498 0 0 0 -.55664 1.173828l.10547.05469c-.40982.583602-.76216 1.074613-1.11719 1.566407a59.750519 59.750519 0 0 0 -.21289 1.408203c.62981-.787922 1.36347-1.831234 2.3164-3.197266l-.79296-.410156c1.52488.659419 3.09067 1.219631 4.6875 1.679687-.0332 4.519531-.36455 6.301474 1.71093 6.859375 1.79693.483009 2.37735-1.122548 3.91993-5.632812 1.47306.192356 2.95588.300683 4.4414.324219 1.13174 4.929958 1.50356 6.624156 3.38867 6.322265 2.11644-.338939 1.97912-2.141206 2.41016-6.613281 1.48385-.198634 2.95506-.48223 4.40625-.849609 2.10042 4.354046 2.86289 5.892256 4.59961 5.193359 1.99446-.802619 1.45113-2.533028.87695-7.019531 1.34859-.554073 2.66541-1.18164 3.94336-1.882813 3.27363 3.664737 4.42723 4.946431 5.91406 3.78711 1.68798-1.316155.70309-2.829243-1.07226-6.941407 1.19871-.920464 2.34231-1.909876 3.42578-2.96289 3.93565 2.632091 5.37162 3.549729 6.50391 2.080078 1.28955-1.673777-.005-2.897585-2.67774-6.332031.87132-1.125282 1.67926-2.298125 2.42188-3.511719 4.69323 1.347372 6.34989 1.813417 6.98828.04492.71288-1.974901-.87472-2.755419-4.41992-5.173828.59314-1.412058 1.10317-2.858212 1.52539-4.330078 4.86084.157982 6.57944.201678 6.76562-1.666016.20859-2.092684-1.52898-2.459297-5.57226-3.94336.19372-1.531441.29669-3.073704.30664-4.617187 4.60682-.887608 6.26628-1.248147 6.03906-3.082031-.26005-2.098563-2.04219-2.058657-6.36524-2.623047-.2039-1.444383-.49021-2.876703-.85546-4.2890626.81818-.4217281 1.44513-.7563726 2.06445-1.0917969zm-6.57227.6035156a59.750519 59.750519 0 0 0 -.68359.082031 33.700947 33.700947 0 0 1 1.57422 8.2558599 33.700947 33.700947 0 0 1 -31.62109 35.660156 33.700947 33.700947 0 0 1 -17.39649-3.703125 59.750519 59.750519 0 0 0 -.23242.636719c5.38903 2.754242 11.47448 4.08367 17.66797 3.714844 18.92992-1.136277 33.36701-17.417749 32.23047-36.347657-.17284-2.878804-.70444-5.657292-1.53907-8.2988279zm6.76563 36.0722659-2.62891.34375c-.12138.0159-.22415.08029-.29297.169922-.0688.0896-.09.203772-.0879.326171l.0566 3.277344a19.489632 19.489632 0 0 0 -5.42968 2.275391l-2.24024-2.355469c-.0763-.0958-.18097-.155122-.29297-.169922-.11199-.0148-.229.01339-.32617.08789l-2.10547 1.613281c-.0972.0745-.15512.180969-.16992.292969s.0271.221855.0879.328125l1.625 2.839844a19.489632 19.489632 0 0 0 -3.53711 4.667968l-3.08789-.908203c-.11392-.0448-.2335-.04505-.33789-.002-.10439.0432-.19137.127155-.23828.240234l-1.01563 2.449219c-.0469.11308-.0451.233501-.002.337891.0432.10439.13447.178594.24024.240234l2.82617 1.646485a19.489632 19.489632 0 0 0 -.75391 5.302734 19.489632 19.489632 0 0 0 .0176.5l-3.15039.761719c-.12105.0182-.2261.0784-.29492.167968-.0688.0896-.1019.204792-.0859.326172l.34375 2.628907c.0159.12138.0784.226101.16797.294921.0896.0688.2057.08544.32812.08594l3.28711.01367a19.489632 19.489632 0 0 0 2.26953 5.388672l-2.3457 2.232422c-.0957.0763-.15512.180968-.16992.292968s.0134.230965.0879.328125l1.61328 2.103516c.0745.0972.18097.155122.29297.169922.11199.0148.2199-.02709.32617-.08789l2.83203-1.61914a19.489632 19.489632 0 0 0 4.67383 3.539062l-.90625 3.080078c-.0448.11392-.0432.233491 0 .337891.0432.10439.1252.193334.23828.240234l2.44922 1.015625c.11307.0469.23545.0432.33984 0 .1044-.0432.17665-.134464.23829-.240234l1.64453-2.822266a19.489632 19.489632 0 0 0 5.29297.751953 19.489632 19.489632 0 0 0 .51171-.01758l.76172 3.150391c.0182.12106.0784.224149.16797.292969.0896.0688.20675.1038.32813.08789l2.6289-.345703c.12138-.0159.22415-.0784.29297-.167969.0688-.0896.0874-.205705.0879-.328125l.0137-3.289062a19.489632 19.489632 0 0 0 5.25586-2.197266l2.38672 2.263672c.61961.0819.18097.155122.29297.169922.11199.0148.22901-.01339.32617-.08789l2.10547-1.613281c.0972-.0745.15317-.180969.16797-.292969s-.0249-.221221-.0879-.326171l-1.67773-2.794922a19.489632 19.489632 0 0 0 3.49023-4.56836l3.20117.767578c.57755-.23887.23546.0432.33985 0 .1044-.0432.19138-.125201.23828-.238281l1.01562-2.449219c.0469-.11308.045-.235453.002-.339843-.0432-.10439-.13318-.178902-.24024-.238282l-2.88086-1.597656a19.489632 19.489632 0 0 0 .76172-5.330078 19.489632 19.489632 0 0 0 -.0137-.365234l3.14648-.931641c.38074-.49565.22415-.0784.29297-.167969.0688-.0896.1038-.204792.0879-.326172l-.3457-2.630859c-.0159-.12138-.0784-.224149-.16797-.292969-.0896-.0688-.20573-.08804-.32812-.08594l-3.27735.05664a19.489632 19.489632 0 0 0 -2.20312-5.296875l2.27148-2.394531c.0819-.61961.15317-.180969.16797-.292969.0148-.11199-.0134-.230965-.0879-.328125l-.18555-.240234c-.001.00032-.003-.000321-.004 0 .00087-.000525.003-.0011.004-.002l-1.42578-1.861328c-.0745-.0972-.18097-.155122-.29297-.169922-.11199-.0148-.22317.02489-.32812.08789l-2.80274 1.683593a19.489632 19.489632 0 0 0 -4.5625-3.488281l.76953-3.208984c-.23887-.57755.0432-.233501 0-.337891s-.1252-.193334-.23828-.240234l-.2832-.117188-2.16602-.898437c-.11307-.0469-.23349-.0432-.33789 0-.10439.0432-.18085.131231-.24023.238281l-1.59961 2.884765a19.489632 19.489632 0 0 0 -5.33984-.763671 19.489632 19.489632 0 0 0 -.35157.01172l-.93164-3.144531c-.49565-.38073-.0803-.226102-.16992-.294922-.0896-.0688-.20479-.101887-.32617-.08594zm-.14258.673828c.0196.02015.044.04221.0645.06055l.88282 2.976562a.65006498.65006498 0 0 0 .65039.464844c.10739-.0046.21481-.009.32226-.01172.001.000004.003-.000004.004 0 1.74517.006 3.4814.254507 5.1582.738281a.65006498.65006498 0 0 0 .74805-.310546l1.5332-2.765625 2.0625.855468c.007.0274.0189.05785.0274.08398l-.72852 3.039062a.65006498.65006498 0 0 0 .31836.720703c1.62856.90002 3.11463 2.037437 4.41016 3.373047a.65006498.65006498 0 0 0 .80078.103516l2.6875-1.615234 1.35937 1.77539c-.008.02761-.0138.06053-.0195.08789l-2.14844 2.265625a.65006498.65006498 0 0 0 -.0859.783203c.95856 1.592349 1.67547 3.316694 2.1289 5.119141a.65006498.65006498 0 0 0 .64258.492187l3.14258-.05469.29101 2.21289c-.0205.01995-.042.04568-.0605.06641l-2.97657.88086a.65006498.65006498 0 0 0 -.46484.654297c.005.112417.008.223443.0117.335937-.006 1.741925-.25406 3.47458-.73633 5.148438a.65006498.65006498 0 0 0 .31055.748046l2.76172 1.53125-.85547 2.064454c-.0271.0069-.0581.01698-.084.02539l-3.03125-.726562a.65006498.65006498 0 0 0 -.7207.318359c-.90013 1.630689-2.03827 3.118888-3.375 4.416016a.65006498.65006498 0 0 0 -.10352.800781l1.60938 2.679688-1.77344 1.357421c-.0276-.0078-.0605-.01377-.0879-.01953l-2.25781-2.140625a.65006498.65006498 0 0 0 -.7832-.08594c-1.58036.953012-3.29167 1.66771-5.08008 2.123046a.65006498.65006498 0 0 0 -.49024.628907l-.0137 3.166015-2.25781.296875-.72852-3.013671a.65006498.65006498 0 0 0 -.66211-.496094c-.15959.0076-.31878.01211-.47851.01563h-.002c-1.73012-.0063-3.44991-.250577-5.11329-.726563a.65006498.65006498 0 0 0 -.74218.296875l-1.58399 2.71875-2.10156-.871093.86719-2.947266a.65006498.65006498 0 0 0 -.3125-.75586c-1.66987-.90602-3.1927-2.0583-4.51758-3.419921a.65006498.65006498 0 0 0 -.78906-.111329l-2.72657 1.558594-1.38476-1.80664 2.24414-2.136719a.65006498.65006498 0 0 0 .10742-.810547c-.98906-1.616121-1.72818-3.372223-2.19336-5.208984a.65006498.65006498 0 0 0 -.6289-.490235l-3.16407-.01367-.29492-2.255859 3.01367-.728516a.65006498.65006498 0 0 0 .4961-.662109c-.007-.155819-.012-.310841-.0156-.466797v-.002c.006-1.73337.25103-3.456722.72852-5.123047a.65006498.65006498 0 0 0 -.29688-.742187l-2.72265-1.585938.87304-2.101562 2.95313.86914a.65006498.65006498 0 0 0 .7539-.3125c.90593-1.667733 2.05943-3.18843 3.41993-4.511719a.65006498.65006498 0 0 0 .11132-.789062l-1.5664-2.736328 1.80859-1.384766 2.14453 2.253906a.65006498.65006498 0 0 0 .81055.107422c1.62807-.994702 3.39723-1.736041 5.24805-2.199218a.65006498.65006498 0 0 0 .49218-.642578l-.0547-3.142579zm1.92188 6.300781c-8.84465.000381-16.02892 7.184647-16.0293 16.029297.00038 8.84465 7.18465 16.028916 16.0293 16.029297 8.84464-.000387 16.02891-7.184651 16.02929-16.029297-.00038-8.844646-7.18465-16.02891-16.02929-16.029297zm0 .650391a15.379573 15.379573 0 0 1 15.3789 15.378906 15.379573 15.379573 0 0 1 -15.3789 15.378906 15.379573 15.379573 0 0 1 -15.37891-15.378906 15.379573 15.379573 0 0 1 15.37891-15.378906zm49.91015 18.033203c-2.1338-.01066-2.30295 1.778604-3.44336 6.078125-1.48296-.05272-2.96779-.02044-4.44726.0957-1.44871-4.737159-1.95274-6.390221-3.79492-5.958984-2.09178.489672-1.81958 2.280606-1.9336 6.794922-1.4157.326998-2.81122.732399-4.18164 1.214843-2.54292-4.258136-3.42885-5.740717-5.11523-4.880859-1.93903.988672-1.20784 2.668408-.21875 7.210937-1.27953.668455-2.5213 1.407121-3.71875 2.212891-3.72902-3.361829-5.00921-4.530219-6.375-3.205078-1.54088 1.495015-.38965 2.892417 1.83203 6.816406-1.07627.99515-2.0956 2.050518-3.05274 3.160156-4.42504-2.366076-5.94987-3.192217-6.95703-1.578125-1.14298 1.831771.32882 2.903355 3.46485 6.222657-.76672 1.206066-1.46646 2.453625-2.09571 3.736328-4.41241-.942466-6.0886-1.624013-7.05273.294922-.85265 1.697097.64112 2.570377 4.94726 5.107427-.43761 1.38951-.79744 2.80287-1.07617 4.23242-4.46348.22819-6.25341.0171-6.68555 2.11133-.38022 1.8428 1.27462 2.31292 5.98829 3.61914-.0563 1.43456-.0327 2.87088.0703 4.30273-4.21708 1.47658-5.99403 1.77927-5.81836 3.91016.15259 1.85073 1.85709 1.85769 6.60156 1.78515.24821 1.09279.55892 2.16947.90039 3.23633a59.750519 59.750519 0 0 0 .65821-.0781c-.35212-1.08815-.67043-2.18709-.92383-3.30274a.65006498.65006498 0 0 0 -.64453-.50586c-2.37073.0363-3.97874.0371-4.875-.15625-.44813-.0967-.6916-.23032-.82422-.36523-.13263-.13491-.21414-.30206-.24414-.66602-.0364-.44204.0235-.70021.15234-.91796.12886-.21776.3616-.43152.77734-.66211.83149-.4612 2.33274-.92094 4.45508-1.66407a.65006498.65006498 0 0 0 .4336-.66015c-.10128-1.40791-.12368-2.82001-.0684-4.23047a.65006498.65006498 0 0 0 -.47657-.65235c-2.35636-.65295-3.94286-1.11135-4.77148-1.55468-.41431-.22167-.61601-.41988-.70703-.58789-.091-.16802-.12195-.3548-.0469-.71875.0896-.43447.22127-.66338.40625-.83594.18499-.17256.46576-.312.92969-.41602.92786-.20802 2.49971-.22695 4.7461-.34179a.65006498.65006498 0 0 0 .60546-.52344c.27403-1.4054.6263-2.79568 1.05664-4.16211a.65006498.65006498 0 0 0 -.28906-.75586c-2.15329-1.26865-3.59632-2.13467-4.29687-2.78516-.35028-.325231-.49567-.570992-.54102-.757811-.0453-.186819-.0283-.376632.14063-.712891.20018-.398427.38726-.586604.61132-.705078.22407-.118473.53516-.177445 1.01368-.15625.95704.04239 2.48987.43575 4.71093.910156a.65006498.65006498 0 0 0 .72071-.347656c.61873-1.261256 1.30664-2.487922 2.06054-3.673828a.65006498.65006498 0 0 0 -.0762-.796875c-1.57889-1.671168-2.72913-2.784574-3.27148-3.585938-.27118-.400681-.38219-.699339-.39844-.953124-.0163-.253789.0457-.511936.2832-.892579.19962-.319902.35166-.433796.53516-.492187.1835-.05839.47198-.06054.93359.07031.92323.261698 2.41798 1.045284 4.63086 2.228516a.65006498.65006498 0 0 0 .79883-.148438c.9412-1.091155 1.94367-2.128903 3.00195-3.107421a.65006498.65006498 0 0 0 .125-.796875c-1.11825-1.975095-1.95612-3.320161-2.2832-4.220704-.16354-.450271-.19826-.764046-.15234-1.013671.0459-.249626.17036-.484576.49023-.794922.27076-.262705.44471-.33702.63672-.34961s.47205.05495.88867.292969c.83325.476042 2.09609 1.596123 3.96094 3.277344a.65006498.65006498 0 0 0 .79883.05664c1.17742-.792291 2.39793-1.518406 3.65625-2.175781a.65006498.65006498 0 0 0 .33398-.714843c-.49808-2.287526-.91817-3.856679-.97461-4.835938-.0282-.48963.0298-.8078.14649-1.035156.11673-.227356.30335-.417222.70703-.623047.33373-.170167.52219-.188438.70898-.144531.18679.04391.43378.187538.75977.533203.65197.69133 1.52152 2.118996 2.79297 4.248047a.65006498.65006498 0 0 0 .77539.279296c1.34763-.474418 2.71914-.873746 4.11133-1.195312a.65006498.65006498 0 0 0 .5039-.617188c.0574-2.272378.0307-3.857257.21289-4.798828.0911-.470785.22306-.758798.39063-.949218.16757-.190421.39384-.328026.82812-.429688.36441-.0853.5521-.05799.72266.0293s.37389.285708.60742.699219c.46707.827021.97094 2.418469 1.69531 4.787109a.65006498.65006498 0 0 0 .67188.458985c1.45501-.114222 2.91491-.14559 4.37304-.09375a.65006498.65006498 0 0 0 .65235-.484376c.57389-2.16366.91541-3.690238 1.31055-4.550781.19757-.430271.39065-.675533.59765-.820312s.45978-.224866.90235-.222657c.37712.0019.5551.07177.70117.197266.14606.125496.29861.368499.42969.830078.26213.923159.38004 2.60827.53515 5.113282a.65006498.65006498 0 0 0 .52735.597656c1.40377.268001 2.79116.614417 4.15624 1.037109a.65006498.65006498 0 0 0 .74024-.271484c.98075-1.539796 1.68358-2.723264 2.25586-3.523438a59.750519 59.750519 0 0 0 .18555-1.226562c-.80264.791594-1.62121 2.250978-2.99024 4.40039-1.38809-.429816-2.79892-.782129-4.22656-1.054687-.31017-5.009207-.40789-6.740487-2.31055-6.75zm-4.38476 10.8125c-.5459-.000981-1.09392.01006-1.64454.03516-1.14411.05178-2.28472.160427-3.41796.326172a.65006498.65006498 0 0 0 -.006 0c-1.05362.164824-2.0991.380503-3.13282.642578-1.44975.288002-2.76556.656508-3.79101 1.173828-7.18343 2.649185-13.27456 7.619518-17.30859 14.126953-.96735 1.253235-1.79754 2.819777-2.49415 4.621087-3.71575 9.60862-3.2382 17.16423-1.00781 23.91407a59.750519 59.750519 0 0 0 .63086-.14258c-2.21462-6.65324-2.69661-14.02347.98242-23.53711.68163-1.7626 1.49026-3.28173 2.41016-4.470701a33.700947 33.700947 0 0 1 17.06055-13.925781c.93356-.474026 2.21832-.839722 3.64453-1.123047a33.700947 33.700947 0 0 1 3.10547-.636719 33.700947 33.700947 0 0 1 3.35351-.320312 33.700947 33.700947 0 0 1 13.50977 2.179687 59.750519 59.750519 0 0 0 .16601-.648437c-3.77075-1.427306-7.84-2.207262-12.06054-2.214844z"
         id="path60"
         style="fill:#ffffff;fill-opacity:0.06060606"
         fill-opacity=".052326"
         fill="#fff" />
    </g>
    <path
       d="m64.984592.81691046c-35.58964 0-64.51562034 28.92598254-64.51562034 64.51562554 0 35.589644 28.92598034 64.515634 64.51562034 64.515614 35.589638 0 64.515618-28.92597 64.515618-64.515614 0-35.589643-28.92598-64.51562554-64.515618-64.51562554zm0 7.00000004c31.80656 0 57.515618 25.7090635 57.515618 57.5156255s-25.709058 57.515614-57.515618 57.515614c-31.80656.00002-57.5156203-25.709052-57.5156203-57.515614s25.7090603-57.5156255 57.5156203-57.5156255z"
       id="path68"
       fill="url(#f)" />
    <path
       d="m64.984592 6.5825305c-32.43489 0-58.7500003 26.3151165-58.7500003 58.7500005 0 32.43488 26.3151103 58.749999 58.7500003 58.749999 32.43488 0 58.749998-26.315119 58.749998-58.749999 0-32.434884-26.315118-58.7500005-58.749998-58.7500005zm0 1.234375c31.80656 0 57.515628 25.7090635 57.515618 57.5156255 0 31.80656-25.709058 57.515629-57.515618 57.515619-31.80657.00002-57.5156303-25.709059-57.5156303-57.515619 0-19.080245 9.2517603-35.965723 23.5214803-46.423828 9.51776-6.975442 21.26783-11.0917975 33.99415-11.0917975z"
       id="path70"
       fill="url(#g)" />
    <g
       transform="translate(-153.6097 -4.268019)"
       id="g84">
      <path
         d="m215.18749 34.458946-12.5 2.75 6.10157 11.728516c-2.67203-9.836922 3.45673-11.205341 9.33593-11.232422 2.37739-.01095 4.83635.350331 6.92774.798828 5.26786 1.039838 10.56013 3.869163 14.1543 6.859375 3.23994 2.729058 6.01428 6.098599 7.9043 9.792969 1.26693 2.476438 1.96219 4.935243 1.62695 7.193359-.356 2.397928-2.82064 4.304094-7.37891 5.501953l10.70313-2.392578-1.125-9.75-6-10-9.875-8.75zm-17.01953 8.414062-7.88086 5.84961-5.66015 10.197266-2.64063 12.925781 7.77344 18.46289 8.63086 9.451172 7.10547-11.148437c-7.18301 7.232507-11.43148 2.607293-14.39453-2.470703-1.19818-2.053403-2.1142-4.362993-2.77149-6.398438-1.7334-5.082022-1.92923-11.077798-1.13672-15.685547.74346-4.170405 2.27489-8.26015 4.5293-11.74414 1.51119-2.335416 3.29281-4.167126 5.41602-5.00586 2.25466-.890664 5.13661.290024 8.45312 3.638672zm43.4961 28.78125c9.85504 2.604416 7.97474 8.596094 5.05859 13.701172-1.17921 2.064353-2.72214 4.014614-4.15625 5.601563-3.53445 4.042183-8.62894 7.210588-13.01562 8.828125-3.98341 1.441342-8.29112 2.159602-12.43555 1.949222-2.77813-.14102-5.255-.77007-7.04297-2.189456-1.89867-1.507265-2.31793-4.594117-1.07617-9.140626l-3.27735 10.466792 9.00586 3.9004 11.66016-.19727 12.51563-4.17578 12.10156-15.962892 3.86914-12.201171z"
         id="path72"
         fill="url(#c)" />
      <path
         d="m218.5011 24.38493c-2.14068.181132-2.13093 1.993306-2.89844 6.443359a38.98402 38.878212 0 0 0 -4.31445.595703c-1.8985-4.581908-2.56025-6.178463-4.35351-5.572266-2.06191.69701-1.58157 2.465567-1.26172 7.103516a38.98402 38.878212 0 0 0 -4 1.650391c-3.20204-3.867092-4.30022-5.208761-5.84375-4.095704-1.7414 1.255742-.80489 2.805061.82422 7.009766a38.98402 38.878212 0 0 0 -3.47852 2.683594c-4.03511-2.982807-5.4237-4.021276-6.6543-2.570313-1.39655 1.646643-.0961 2.921141 2.52539 6.660157a38.98402 38.878212 0 0 0 -2.61523 3.392578c-4.22907-1.572415-5.78926-2.489292-7.02149-.730469-1.08976 1.555502.26163 2.636762 4.1543 5.771484a38.98402 38.878212 0 0 0 -1.67773 4.03125c-4.44938-.421551-6.19059-.890304-6.92188 1.119141-.64346 1.768166.92599 2.473205 5.40039 4.449219a38.98402 38.878212 0 0 0 -.55468 4.267578c-4.38664.849376-6.189.891553-6.32422 3.02539-.11743 1.8533 1.5686 2.106323 6.27343 2.722657a38.98402 38.878212 0 0 0 .625 4.537109c-4.03071 1.766189-5.76468 2.217812-5.42773 4.314453.3001 1.867317 2.0208 1.707262 6.94922 1.25a38.98402 38.878212 0 0 0 1.74219 4.197266c-3.43654 2.663629-4.99314 3.530701-4.15821 5.470703.75058 1.743957 2.38096 1.161553 7.08985-.501953a38.98402 38.878212 0 0 0 2.54687 3.289062c-2.5918 3.80583-3.88611 5.094156-2.46289 6.728519 1.24135 1.42549 2.6183.38074 6.55469-2.609378a38.98402 38.878212 0 0 0 3.48633 2.687498c-1.57759 4.39171-2.52708 5.96415-.73047 7.19923 1.57347 1.08169 2.63871-.29087 5.77734-4.25977l-.76758-.45704a38.98402 38.878212 0 0 0 4.57813 1.95899c-.30411 4.50942-.74142 6.26788 1.29687 6.94923 1.76473.58989 2.43975-.97903 4.25-5.38869a38.98402 38.878212 0 0 0 4.41407.58985c.83409 4.98896 1.10408 6.70394 3.0039 6.51563 2.13296-.21142 2.10431-2.01885 2.80274-6.45704a38.98402 38.878212 0 0 0 4.44922-.58398c1.83556 4.47217 2.50379 6.05249 4.27929 5.45899 2.039-.68158 1.601-2.44026 1.29688-6.95313a38.98402 38.878212 0 0 0 4.04883-1.64453c3.04799 3.85444 4.12211 5.20285 5.67578 4.13477 1.76386-1.21258.87127-2.78098-.6543-6.9922a38.98402 38.878212 0 0 0 3.59765-2.751949c3.77073 2.863349 5.14881 3.865909 6.36719 2.466799 1.38759-1.593438.16915-2.893884-2.29297-6.482424a38.98402 38.878212 0 0 0 2.62891-3.359375c4.60399 1.62637 6.22937 2.189923 6.97266.462891.83002-1.928605-.70777-2.803054-4.10157-5.429688a38.98402 38.878212 0 0 0 1.78125-4.230468c4.84262.449161 6.55569.595358 6.85352-1.257813.3337-2.076414-1.37721-2.545694-5.32422-4.269531a38.98402 38.878212 0 0 0 .58203-4.589844c4.65175-.60977 6.32974-.870637 6.21289-2.714844-.13374-2.110387-1.91583-2.177407-6.19726-3a38.98402 38.878212 0 0 0 -.59571-4.332031c4.39744-1.942328 5.95506-2.655211 5.31641-4.410156-.72532-1.993036-2.4576-1.547582-6.82617-1.128906a38.98402 38.878212 0 0 0 -1.69141-4.091797c3.8157-3.072792 5.15266-4.159051 4.07227-5.701172-1.22703-1.751402-2.78801-.847253-6.97657.712891a38.98402 38.878212 0 0 0 -2.6914-3.47461c2.82953-3.998598 3.81632-5.409847 2.35547-6.597656-1.64128-1.334511-2.89945-.07045-6.41211 2.517578a38.98402 38.878212 0 0 0 -3.5586-2.722656c1.8726-4.570986 2.52694-6.168467.83008-7-1.95314-.957122-2.86132.634323-5.89648 4.146484a38.98402 38.878212 0 0 0 -4.0293-1.65625c.41957-5.001232.57453-6.728324-1.30664-7.013672-2.10969-.320008-2.53717 1.426948-4.28906 5.515625a38.98402 38.878212 0 0 0 -4.41406-.550781c-.74638-4.897178-1.00539-6.60678-2.89063-6.447265zm-1.55664 11.949218c4.31545-.07229 9.43898.698428 11.10352 1.421875 7.24556 2.208669 13.94648 6.268764 19.65234 15.716797 1.06265 1.759586 1.82614 3.468106 2.16992 5.027344.3413 1.639526.21329 3.546804-.8457 5.050781-.90751 1.195963-2.03129 2.322984-3.59961 2.466797-4.88074.45727-11.4985.199058-16.7207.142578-.87881-.0095-1.71805-.365158-1.97071-.642578-1.5473-.975153-2.5889-3.097278-4.31445-3.695313-2.7548-1.276259-3.87005-.206038-5.42383-2.117187-2.86222-4.591694-5.63176-9.309055-8.17383-13.994141-1.84185-3.206128-.62749-6.415091 2.14844-8.144531 1.08614-.842512 3.38534-1.189051 5.97461-1.232422zm-19.23437 9.886719c.22474-.0071.45092.000363.67968.02344 1.48741.203781 3.02105.629881 3.91602 1.925781 2.79368 4.028158 5.81647 9.920232 8.33008 14.498047.42299.770367.52593 1.676927.4082 2.033203-.0903 1.826727-1.42927 3.775315-1.10352 5.572267.23995 3.026582 1.72101 3.471957.81836 5.763672-2.59606 4.747255-5.34903 9.476095-8.18359 13.990234-1.88958 3.178231-5.28123 3.694921-8.15039 2.125-3.37896-1.421015-7.91832-12.084115-8.2168-14.97266-1.63141-7.39695-1.38104-15.227739 4.05078-24.835937 1.01162-1.789412 2.12657-3.292679 3.31641-4.357422 1.10338-.964243 2.56159-1.716251 4.13477-1.765625zm38.61328 26.914062c2.70969.01403 5.40894.0691 8.07226.167969 3.69722.04731 5.84103 2.726366 5.91602 5.996094.45885 3.636774-6.50511 12.898804-8.85742 14.601562-5.59024 5.111318-12.4983 8.810156-23.53516 8.910156-2.05549.0186-3.91462-.19529-5.43164-.69336-1.58486-.54107-3.16083-1.61964-3.91602-3.296874-.56722-1.390018-.96581-2.932452-.29101-4.355468 2.09165-4.433475 5.68488-9.997131 8.39258-14.462891.45566-.751507 1.18923-1.292961 1.55664-1.369141 1.62714-.835159 3.98362-.651443 5.37695-1.832031 2.50113-1.721086 2.14798-3.2257 4.58398-3.589844 2.70464-.06268 5.42312-.0902 8.13282-.07617z"
         id="path74"
         fill="url(#b)" />
      <path
         d="m218.50195 24.384727c-2.14068.181132-2.13092 1.993307-2.89843 6.44336a38.98402 38.878212 0 0 0 -4.31446.595703c-1.8985-4.581908-2.56025-6.178463-4.35351-5.572266-2.06191.69701-1.58157 2.465567-1.26172 7.103516a38.98402 38.878212 0 0 0 -4 1.65039c-3.20204-3.867092-4.30022-5.20876-5.84375-4.095703-1.7414 1.255742-.80489 2.805061.82422 7.009766a38.98402 38.878212 0 0 0 -3.47852 2.683594c-4.03511-2.982807-5.42369-4.021276-6.65429-2.570313-1.39655 1.646643-.0961 2.92114 2.52539 6.660156a38.98402 38.878212 0 0 0 -2.61524 3.392578c-4.22907-1.572414-5.78925-2.489291-7.02148-.730468-1.08976 1.555502.26162 2.636762 4.15429 5.771484a38.98402 38.878212 0 0 0 -1.67773 4.03125c-4.44938-.421551-6.19059-.890304-6.92188 1.119141-.64346 1.768166.926 2.473204 5.40039 4.449219a38.98402 38.878212 0 0 0 -.55468 4.267578c-4.38664.849376-6.189.891553-6.32422 3.02539-.11743 1.8533 1.56861 2.106323 6.27344 2.722656a38.98402 38.878212 0 0 0 .625 4.53711c-4.03071 1.766189-5.76469 2.217812-5.42774 4.314453.3001 1.867317 2.0208 1.707262 6.94922 1.25a38.98402 38.878212 0 0 0 1.74219 4.197266c-3.43654 2.663629-4.99314 3.530701-4.15821 5.470703.75059 1.743957 2.38096 1.161553 7.08985-.501953a38.98402 38.878212 0 0 0 2.54687 3.289062c-2.5918 3.80583-3.88611 5.094151-2.46289 6.728511 1.24135 1.42549 2.6183.38075 6.55469-2.60937a38.98402 38.878212 0 0 0 3.48633 2.6875c-1.57759 4.3917-2.52708 5.96414-.73047 7.19922 1.57347 1.08169 2.63871-.29086 5.77734-4.25977l-.76757-.45703a38.98402 38.878212 0 0 0 4.57812 1.95899c-.30411 4.50941-.74141 6.26787 1.29688 6.94922 1.76473.58989 2.43975-.97902 4.25-5.38868a38.98402 38.878212 0 0 0 4.41406.58985c.83409 4.98895 1.10408 6.70394 3.0039 6.51563 2.13296-.21142 2.10431-2.01885 2.80274-6.45704a38.98402 38.878212 0 0 0 4.44922-.58398c1.83556 4.47216 2.50379 6.05248 4.27929 5.45898 2.039-.68158 1.601-2.44026 1.29688-6.95313a38.98402 38.878212 0 0 0 4.04883-1.64453c3.04799 3.85444 4.12211 5.20285 5.67578 4.13477 1.76386-1.21257.87127-2.78096-.6543-6.99219a38.98402 38.878212 0 0 0 3.59766-2.751951c3.77073 2.863351 5.14881 3.865901 6.36719 2.466801 1.38759-1.593444.16915-2.893886-2.29297-6.482426a38.98402 38.878212 0 0 0 2.6289-3.359375c4.60399 1.62637 6.22937 2.189923 6.97266.462891.83002-1.928605-.70776-2.803054-4.10156-5.429688a38.98402 38.878212 0 0 0 1.78125-4.230468c4.84262.449161 6.55568.595358 6.85351-1.257813.3337-2.076414-1.37721-2.545694-5.32422-4.269531a38.98402 38.878212 0 0 0 .58203-4.589844c4.65175-.60977 6.32975-.870637 6.2129-2.714844-.13374-2.110387-1.91584-2.177407-6.19727-3a38.98402 38.878212 0 0 0 -.5957-4.332031c4.39744-1.942328 5.95505-2.655211 5.3164-4.410156-.72532-1.993036-2.4576-1.547582-6.82617-1.128907a38.98402 38.878212 0 0 0 -1.6914-4.091796c3.81569-3.072792 5.15265-4.159051 4.07226-5.701172-1.22703-1.751402-2.788-.847254-6.97656.71289a38.98402 38.878212 0 0 0 -2.69141-3.474609c2.82953-3.998598 3.81632-5.409847 2.35547-6.597656-1.64128-1.334511-2.89945-.07045-6.41211 2.517578a38.98402 38.878212 0 0 0 -3.55859-2.722656c1.8726-4.570986 2.52694-6.168467.83008-7-1.95314-.957122-2.86133.634323-5.89649 4.146484a38.98402 38.878212 0 0 0 -4.0293-1.65625c.41957-5.001232.57453-6.728324-1.30664-7.013672-2.10969-.320008-2.53717 1.426948-4.28906 5.515625a38.98402 38.878212 0 0 0 -4.41406-.550781c-.74638-4.897178-1.00539-6.606781-2.89063-6.447266zm.043.498047c.39559-.03347.61903.02518.8086.160156.18957.13498.37763.391085.55468.84961.35411.917049.61704 2.566985.99024 5.015625a.50005.50005 0 0 0 .46094.421875c1.46172.09838 2.91645.281108 4.35742.544922a.50005.50005 0 0 0 .54883-.294922c.8803-2.054502 1.43776-3.515318 1.9707-4.335938.26647-.41031.51174-.648024.76953-.777344.25779-.129318.55737-.174979 1.01563-.105468.39534.05997.60059.171218.7539.347656s.27502.468938.33984.960938c.12967.983999-.001 2.668973-.21093 5.169921a.50005.50005 0 0 0 .33398.513672c1.35544.470619 2.68423 1.016212 3.97852 1.634766a.50005.50005 0 0 0 .59375-.125c1.52587-1.765682 2.52414-3.041763 3.29687-3.693359.38637-.325799.69841-.487985.98633-.53711.28792-.04913.5883-.0014 1.01367.207031.35601.174458.51816.339893.61133.552735.0932.212841.12445.526659.041 1.009765-.16683.966213-.78831 2.513338-1.72461 4.798829a.50005.50005 0 0 0 .18164.603515c1.22173.827937 2.39539 1.725105 3.51367 2.6875a.50005.50005 0 0 0 .62305.02344c1.76467-1.300163 2.96731-2.257266 3.83203-2.683594.43236-.213164.76102-.291825 1.04687-.271485s.56384.134302.91992.423829c.30624.248995.42741.445837.47071.673828.0433.22799.002.540667-.18555.990234-.37522.899135-1.31785 2.256829-2.73242 4.255859a.50005.50005 0 0 0 .0312.617188c.94969 1.092496 1.83614 2.237383 2.65625 3.429688a.50005.50005 0 0 0 .58594.185546c2.10484-.784008 3.55225-1.393335 4.51757-1.576172.48267-.09142.82561-.07755 1.09766.01953s.51077.281618.77734.662109c.22647.323248.28838.546392.26758.777344s-.14555.519349-.44922.900391c-.60733.762081-1.88727 1.811419-3.79492 3.347656a.50005.50005 0 0 0 -.13672.605468c.633 1.313662 1.19076 2.662179 1.66992 4.039063a.50005.50005 0 0 0 .51954.333984c2.1948-.210345 3.72781-.416949 4.69336-.339843.48277.03855.80542.140407 1.04101.304687s.41681.40536.57422.837891c.13361.367138.13731.597696.0586.814453-.0787.216757-.27119.461073-.65625.748047-.77011.573948-2.25122 1.247905-4.44921 2.21875a.50005.50005 0 0 0 -.28907.552734c.27629 1.413265.47248 2.842082.58789 4.277344a.50005.50005 0 0 0 .4043.449219c2.15087.413247 3.66885.648398 4.56836.99414.44975.172871.73113.360252.91016.583985.17902.223732.28544.505075.31445.96289.0244.384941-.0392.606165-.17383.791016-.13459.184851-.38157.363103-.82226.529297-.88142.332388-2.45876.56249-4.78321.867187a.50005.50005 0 0 0 -.43359.462891c-.10116 1.520254-.29465 3.033739-.57617 4.53125a.50005.50005 0 0 0 .29297.550781c1.98252.865864 3.39557 1.425557 4.1875 1.958984.39594.266714.6259.510442.75.767579.12408.257137.16412.553803.0918 1.003906-.0624.388134-.17247.591106-.34765.742187-.17519.151082-.46478.271629-.94532.333985-.96107.12471-2.59865-.01179-5.01953-.236328a.50005.50005 0 0 0 -.51758.332031c-.50315 1.425295-1.09173 2.819517-1.75976 4.175781a.50005.50005 0 0 0 .14258.615235c1.70456 1.31925 2.93392 2.206793 3.56836 2.916015.31721.354611.48008.646463.53711.925781.057.279318.0237.578041-.15626.996094-.15575.361907-.31243.531094-.51953.634766-.20709.103672-.51751.149393-1 .0918-.96497-.1152-2.52645-.64982-4.82812-1.462891a.50005.50005 0 0 0 -.57617.185547c-.80359 1.151872-1.67053 2.257196-2.59571 3.314453a.50005.50005 0 0 0 -.0352.613281c1.23689 1.802764 2.15111 3.034927 2.54687 3.91211.19788.438591.26442.769969.23438 1.05469-.03.28472-.15215.55866-.45313.90429-.25451.29227-.45504.40483-.68164.44141-.22659.0366-.52983-.0111-.96289-.20508-.86612-.38796-2.15858-1.34251-4.04297-2.773435a.50005.50005 0 0 0 -.6289.01953c-1.12998.973491-2.31511 1.880725-3.55078 2.716795a.50005.50005 0 0 0 -.19141.58399c.76665 2.11628 1.36412 3.57094 1.53906 4.53906.0875.48406.0721.82828-.0273 1.09961-.0995.27132-.28665.508-.66992.77148-.32579.22396-.5502.28468-.78125.26172-.23106-.0229-.51939-.15107-.89844-.45898-.7581-.61583-1.79645-1.90888-3.32031-3.83594a.50005.50005 0 0 0 -.60547-.14063c-1.30083.61529-2.63632 1.15688-3.99805 1.62305a.50005.50005 0 0 0 -.33594.50586c.15285 2.26815.32772 3.84371.23047 4.83008-.0486.49319-.15768.8223-.32812 1.05664-.17045.23435-.41605.41039-.85938.5586-.37165.12422-.60352.11988-.81836.0352-.21484-.0848-.4551-.28316-.73242-.67773-.55464-.78915-1.18988-2.29575-2.10742-4.53125a.50005.50005 0 0 0 -.55664-.30079c-1.45179.27613-2.91859.46827-4.39258.57618a.50005.50005 0 0 0 -.45703.41992c-.351 2.23043-.5299 3.79742-.84375 4.73242-.15693.4675-.33659.76113-.55469.95117s-.49544.30757-.95898.35352c-.39967.0396-.62802-.0168-.82032-.15039-.19229-.1336-.38393-.38987-.56836-.85352-.36884-.92729-.65708-2.60069-1.07421-5.0957a.50005.50005 0 0 0 -.45508-.41602c-1.46247-.11113-2.91721-.30528-4.35742-.58203a.50005.50005 0 0 0 -.55664.30078c-.90476 2.2039-1.53669 3.69202-2.0879 4.47071-.2756.38934-.51249.58414-.72656.66797-.21407.0838-.44556.0881-.81445-.0352-.44314-.14813-.68895-.32433-.85938-.55859-.17042-.23427-.27946-.56178-.32812-1.05469-.0973-.98583.0776-2.56172.23047-4.82813a.50005.50005 0 0 0 -.33203-.5039c-1.54631-.54789-3.05398-1.19354-4.51758-1.9336a.50005.50005 0 0 0 -.48242.875l.25586.15235c-1.29901 1.63674-2.33945 2.94905-3.02539 3.51367-.3855.3173-.67706.44836-.91016.47266s-.46003-.0361-.79102-.26368c-.39139-.26906-.5795-.50971-.67773-.78516-.0982-.27544-.10909-.62662-.0137-1.125.19089-.99674.81621-2.49901 1.60937-4.70703a.50005.50005 0 0 0 -.1875-.58203c-1.19644-.81892-2.34724-1.705958-3.44336-2.654294a.50005.50005 0 0 0 -.6289-.01953c-1.96817 1.495044-3.3038 2.493574-4.19532 2.904294-.44575.20536-.75632.2578-.98632.22266-.23001-.0351-.43295-.14823-.69336-.44727-.3098-.35575-.43191-.63395-.45899-.92382-.0271-.28988.0466-.631152.25977-1.085942.42628-.909579 1.39629-2.196149 2.69922-4.109375a.50005.50005 0 0 0 -.0352-.607422c-.89549-1.036792-1.73427-2.121869-2.51367-3.248047a.50005.50005 0 0 0 -.57813-.185546c-2.35463.831819-3.94465 1.381903-4.92578 1.503906-.49056.061-.80461.0158-1.01367-.08789s-.36772-.274294-.52539-.640625c-.18108-.420758-.21252-.719783-.1543-1 .0582-.280217.22095-.574512.54297-.93164.64405-.714258 1.89079-1.609152 3.61719-2.947266a.50005.50005 0 0 0 .14258-.613281c-.65374-1.346466-1.22697-2.729268-1.71875-4.142579a.50005.50005 0 0 0 -.51953-.333984c-2.46423.228632-4.12697.370569-5.10157.248047-.48729-.06126-.77842-.18062-.95508-.332031-.17664-.151412-.28859-.356231-.35156-.748047-.0731-.455051-.0324-.753408.0937-1.011719.12616-.258311.36149-.504483.76563-.773437.80828-.537908 2.25024-1.104803 4.27539-1.992188a.50005.50005 0 0 0 .28906-.554687c-.29371-1.479487-.49996-2.974855-.61719-4.478516a.50005.50005 0 0 0 -.43359-.457031c-2.35131-.308021-3.94366-.536293-4.83399-.869141-.44515-.166424-.69652-.346026-.83203-.53125-.1355-.185224-.19836-.407672-.17382-.794922.0294-.463597.13677-.746085.31835-.970703.18161-.224617.46835-.414483.92774-.587891.91878-.346812 2.47143-.580988 4.67578-1.007812a.50005.50005 0 0 0 .40234-.453125c.10439-1.413186.28848-2.819862.54883-4.212891a.50005.50005 0 0 0 -.29101-.548828c-2.23686-.987857-3.74112-1.669518-4.52344-2.248047-.39116-.289264-.58627-.534178-.66602-.751953-.0797-.217775-.0763-.449685.0586-.820312.15888-.436571.34059-.677557.57812-.841797.23754-.164241.56495-.265967 1.05469-.302735.97948-.07353 2.53557.139724 4.77148.351563a.50005.50005 0 0 0 .51954-.332031c.47688-1.356318 1.02797-2.685995 1.65429-3.980469a.50005.50005 0 0 0 -.13476-.605469c-1.94648-1.567475-3.25165-2.631329-3.8711-3.402344-.30972-.385505-.43544-.677672-.45703-.910156-.0216-.232483.0406-.456395.26953-.783203.2679-.382377.50649-.567277.7793-.664062.27281-.09678.61786-.108848 1.10352-.01563.97131.186454 2.42922.801526 4.55468 1.591796a.50005.50005 0 0 0 .58594-.185546c.79823-1.162734 1.66049-2.281396 2.58203-3.34961a.50005.50005 0 0 0 .0312-.613281c-1.31772-1.879464-2.29483-3.14548-2.72851-4.044922-.21685-.449721-.29519-.788576-.27149-1.078125s.14152-.567579.44531-.925781c.25862-.304928.46074-.423102.69141-.460938.23067-.03784.54534.01172.99805.214844.90541.406252 2.26929 1.402937 4.28711 2.894531a.50005.50005 0 0 0 .625-.02344c1.09372-.946785 2.23988-1.832475 3.43359-2.650391a.50005.50005 0 0 0 .18359-.591797c-.81874-2.113157-1.45306-3.562514-1.65234-4.53125-.0996-.484367-.0932-.829244 0-1.103515.0932-.274272.27576-.516093.6543-.789063.32441-.233939.54821-.299942.78125-.28125.23304.01869.52722.143159.91797.449219.7815.612121 1.86557 1.906047 3.46679 3.839844a.50005.50005 0 0 0 .60157.132812c1.28497-.6156 2.60176-1.159175 3.94726-1.628906a.50005.50005 0 0 0 .33399-.507812c-.16081-2.331763-.35047-3.943508-.26172-4.951172.0444-.503833.15076-.836579.32031-1.074219s.4161-.416536.86523-.568359c.3764-.127239.60953-.124762.82618-.03906.21665.0857.46026.288431.74218.691406.56384.805951 1.21287 2.345771 2.16211 4.636719a.50005.50005 0 0 0 .5586.298828c1.40765-.275033 2.83013-.471176 4.25976-.58789a.50005.50005 0 0 0 .45117-.41211c.38575-2.236578.58704-3.809541.91407-4.74414.16351-.467301.34756-.759869.56836-.947266.22079-.187397.50145-.300469.96679-.339844zm-1.60745 10.951172c-2.62032.04389-4.94969.328813-6.25586 1.332031-1.46249.920061-2.54014 2.237952-2.99609 3.777344-.45873 1.548781-.27724 3.308251.70117 5.013672.00078.0014.00095.0025.002.0039 2.54589 4.691497 5.31896 9.412234 8.1836 14.007813a.50005.50005 0 0 0 .0352.05078c.84265 1.036455 1.71233 1.339192 2.57031 1.476562.858.137371 1.72558.174395 3.03126.779297a.50005.50005 0 0 0 .0469.01953c.71929.249287 1.36106.857073 2.01953 1.572265.63557.690317 1.29173 1.455973 2.11719 2.001953.23744.250088.53728.402999.92578.541016.39991.14207.87574.244539 1.38086.25 5.20967.05634 11.83173.31806 16.77148-.144531 1.78324-.163521 3.0169-1.428303 3.95313-2.66211a.50005.50005 0 0 0 .01-.01563c1.16264-1.651171 1.28989-3.69976.92774-5.439453a.50005.50005 0 0 0 -.002-.0059c-.36108-1.63619-1.14857-3.386266-2.23047-5.177735-5.74865-9.518874-12.57421-13.680599-19.88086-15.917968l-.006-.002c-.94544-.409947-2.63477-.766133-4.6836-1.042969-2.05145-.277191-4.4303-.454668-6.62109-.417969zm.008.5c4.31545-.07229 9.43898.698428 11.10352 1.421875 7.24556 2.208669 13.94648 6.268764 19.65234 15.716797 1.06265 1.759586 1.82614 3.468106 2.16992 5.027344.3413 1.639526.21329 3.546804-.8457 5.050781-.90751 1.195963-2.03129 2.322984-3.59961 2.466797-4.88074.45727-11.4985.199058-16.7207.142578-.87881-.0095-1.71804-.365158-1.9707-.642578-1.5473-.975153-2.58891-3.097278-4.31446-3.695313-2.7548-1.276259-3.87005-.206038-5.42383-2.117187-2.86222-4.591694-5.63175-9.309055-8.17382-13.994141-1.84185-3.206128-.6275-6.415091 2.14843-8.144531 1.08614-.842512 3.38534-1.189051 5.97461-1.232422zm-19.25 9.386719c-1.7226.05406-3.27651.865556-4.44726 1.888672a.50005.50005 0 0 0 -.006.0039c-1.24845 1.11719-2.38793 2.662387-3.41797 4.484375-5.47512 9.684792-5.74836 17.677178-4.10938 25.144531.0862.819601.43337 2.024218.95899 3.466797.52742 1.447526 1.23491 3.110456 2.04101 4.730469.80611 1.620013 1.70869 3.196181 2.63868 4.474609.92563 1.27245 1.85687 2.259791 2.86523 2.689453 1.5192.822477 3.19696 1.112042 4.76172.753907 1.57577-.360655 3.01953-1.382381 4.02539-3.074219 2.83855-4.520971 5.59479-9.25402 8.19336-14.00586a.50005.50005 0 0 0 .0254-.05664c.48954-1.242892.32518-2.148223.0234-2.962891-.3017-.814667-.69487-1.589016-.8086-3.023437a.50005.50005 0 0 0 -.006-.05078c-.13577-.748955.0786-1.606639.37891-2.53125.29004-.893097.63677-1.838134.70703-2.826171.10159-.330149.0883-.665813.0176-1.072266-.0727-.418296-.21981-.883457-.46289-1.326172-2.50748-4.566657-5.52832-10.464096-8.35547-14.541016l-.002-.002c-1.01783-1.47156-2.72418-1.926604-4.25781-2.136719a.50005.50005 0 0 0 -.0176-.002c-.2508-.0253-.49973-.03317-.7461-.02539zm.0156.5c.22474-.0071.45093.00036.67969.02344 1.48741.203781 3.02104.629881 3.91601 1.925782 2.79368 4.028157 5.81647 9.920231 8.33008 14.498046.42299.770367.52593 1.676927.4082 2.033204-.0903 1.826726-1.42926 3.775313-1.10351 5.572265.23995 3.026582 1.72101 3.471957.81836 5.763672-2.59606 4.747255-5.34904 9.476095-8.1836 13.990234-1.88958 3.178231-5.28123 3.694921-8.15039 2.125-3.37896-1.421015-7.91832-12.084111-8.21679-14.972656-1.63141-7.39695-1.38104-15.227739 4.05078-24.835937 1.01162-1.789412 2.12656-3.292679 3.3164-4.357422 1.10338-.964243 2.56159-1.716251 4.13477-1.765625zm38.61523 26.414062c-2.71481-.01406-5.43747.01339-8.14648.07617a.50005.50005 0 0 0 -.0625.0059c-1.32108.197481-2.023.7925-2.57813 1.460938-.55512.668438-1.02938 1.395195-2.21484 2.210938a.50005.50005 0 0 0 -.0391.03125c-.58084.492149-1.43208.734857-2.38282.9375-.91937.195955-1.91325.368482-2.80468.802734-.33444.07762-.61825.256456-.9336.519531-.32592.271904-.65606.63055-.91797 1.0625-2.70104 4.454787-6.29882 10.020851-8.41601 14.507813-.7674 1.61828-.30585 3.325815.2793 4.759765a.50005.50005 0 0 0 .008.01563c.82916 1.841514 2.52776 2.990484 4.20898 3.564454a.50005.50005 0 0 0 .006.002c1.59174.5226 3.4989.73769 5.5918.71875 11.11919-.10075 18.1782-3.856805 23.82422-9.00586.66756-.483225 1.54145-1.391807 2.53125-2.572265.9898-1.18046 2.07636-2.622833 3.07617-4.13086.99981-1.508026 1.91261-3.078901 2.55469-4.523437.63822-1.435861 1.02699-2.733121.89648-3.820313-.0462-1.729054-.63274-3.328525-1.72656-4.505859-1.10035-1.184353-2.70963-1.924035-4.67774-1.949219-2.66519-.09881-5.36535-.153933-8.07617-.167969zm-.002.5c2.70969.01403 5.40895.0691 8.07227.167969 3.69721.04731 5.84102 2.726366 5.91601 5.996094.45885 3.636774-6.50511 12.898804-8.85742 14.601562-5.59024 5.111318-12.4983 8.810158-23.53516 8.910158-2.05549.0186-3.91462-.19529-5.43164-.69336-1.58486-.54107-3.16082-1.61965-3.91601-3.296876-.56722-1.390018-.96582-2.932453-.29102-4.355469 2.09165-4.433475 5.68488-9.99713 8.39258-14.46289.45566-.751507 1.18923-1.292961 1.55664-1.369141 1.62714-.835159 3.98362-.651443 5.37695-1.832031 2.50113-1.721086 2.14799-3.2257 4.58399-3.589844 2.70464-.06268 5.42311-.0902 8.13281-.07617z"
         id="path76"
         fill-opacity=".267442"
         fill="#fff" />
      <path
         d="m218.59331 65.777306a3.8227959 3.8227959 0 0 0 -3.82227 3.822266 3.8227959 3.8227959 0 0 0 3.82227 3.824218 3.8227959 3.8227959 0 0 0 3.82422-3.824218 3.8227959 3.8227959 0 0 0 -3.82422-3.822266zm-.0215.794922a3.0052037 3.0052037 0 0 1 3.00586 3.005859 3.0052037 3.0052037 0 0 1 -3.00586 3.00586 3.0052037 3.0052037 0 0 1 -3.00586-3.00586 3.0052037 3.0052037 0 0 1 3.00586-3.005859z"
         id="path78"
         fill="url(#e)" />
      <circle
         cx="218.59428"
         cy="69.600548"
         r="3.005204"
         id="circle80"
         fill="url(#d)" />
      <path
         d="m218.59331 65.591758c-2.21211.000308-4.00751 1.7957-4.00781 4.007813-.00083 2.212911 1.7949 4.009458 4.00781 4.009766 2.21371.000824 4.01059-1.796056 4.00976-4.009766-.0003-2.212912-1.79685-4.008636-4.00976-4.007813zm0 .195313c2.10757-.000785 3.81611 1.704925 3.81641 3.8125.00078 2.108338-1.70807 3.815238-3.81641 3.814453-2.10758-.000293-3.81329-1.706878-3.8125-3.814453.00029-2.106812 1.70569-3.812207 3.8125-3.8125z"
         id="path82"
         fill-opacity=".383721"
         fill="#fff" />
    </g>
  </g>
</svg>
