<?xml version="1.0" encoding="UTF-8" standalone="no"?>
<!-- Created with Inkscape (http://www.inkscape.org/) -->

<svg
   xmlns:dc="http://purl.org/dc/elements/1.1/"
   xmlns:cc="http://creativecommons.org/ns#"
   xmlns:rdf="http://www.w3.org/1999/02/22-rdf-syntax-ns#"
   xmlns:svg="http://www.w3.org/2000/svg"
   xmlns="http://www.w3.org/2000/svg"
   xmlns:xlink="http://www.w3.org/1999/xlink"
   xmlns:sodipodi="http://sodipodi.sourceforge.net/DTD/sodipodi-0.dtd"
   xmlns:inkscape="http://www.inkscape.org/namespaces/inkscape"
   version="1.1"
   id="svg2"
   width="128"
   height="128"
   viewBox="0 0 128 128"
   sodipodi:docname="qtconfig.svg"
   inkscape:version="0.92.1 r15371">
  <metadata
     id="metadata8">
    <rdf:RDF>
      <cc:Work
         rdf:about="">
        <dc:format>image/svg+xml</dc:format>
        <dc:type
           rdf:resource="http://purl.org/dc/dcmitype/StillImage" />
        <dc:title></dc:title>
      </cc:Work>
    </rdf:RDF>
  </metadata>
  <defs
     id="defs6">
    <linearGradient
       inkscape:collect="always"
       id="linearGradient4629">
      <stop
         style="stop-color:#000000;stop-opacity:1;"
         offset="0"
         id="stop4625" />
      <stop
         style="stop-color:#000000;stop-opacity:0;"
         offset="1"
         id="stop4627" />
    </linearGradient>
    <linearGradient
       inkscape:collect="always"
       id="linearGradient4617">
      <stop
         style="stop-color:#e6e9e9;stop-opacity:1"
         offset="0"
         id="stop4613" />
      <stop
         style="stop-color:#f7f8f8;stop-opacity:1"
         offset="1"
         id="stop4615" />
    </linearGradient>
    <linearGradient
       inkscape:collect="always"
       id="linearGradient843-9">
      <stop
         style="stop-color:#00cd89;stop-opacity:1"
         offset="0"
         id="stop839" />
      <stop
         style="stop-color:#00a0a0;stop-opacity:1"
         offset="1"
         id="stop841" />
    </linearGradient>
    <linearGradient
       inkscape:collect="always"
       id="linearGradient827">
      <stop
         style="stop-color:#000000;stop-opacity:1"
         offset="0"
         id="stop823" />
      <stop
         id="stop833"
         offset="0.95644003"
         style="stop-color:#202020;stop-opacity:1" />
      <stop
         style="stop-color:#212121;stop-opacity:0.57647059;"
         offset="0.9767887"
         id="stop837" />
      <stop
         style="stop-color:#242424;stop-opacity:0"
         offset="1"
         id="stop825" />
    </linearGradient>
    <radialGradient
       inkscape:collect="always"
       xlink:href="#linearGradient827"
       id="radialGradient829"
       cx="-466.44064"
       cy="527.18646"
       fx="-466.44064"
       fy="527.18646"
       r="496.81354"
       gradientUnits="userSpaceOnUse"
       gradientTransform="matrix(0.12130735,0,0,0.12161697,118.76332,0.34911052)" />
    <linearGradient
       inkscape:collect="always"
       xlink:href="#linearGradient843-9"
       id="linearGradient845"
       x1="-513.94678"
       y1="92.873978"
       x2="-519.38519"
       y2="915.13129"
       gradientUnits="userSpaceOnUse"
       gradientTransform="matrix(0.12681401,0,0,0.12681401,131.78649,3.661987)" />
    <linearGradient
       id="a">
      <stop
         id="stop4498"
         offset="0"
         stop-color="#3889e9" />
      <stop
         id="stop4500"
         offset="1"
         stop-color="#5ea5fb" />
    </linearGradient>
    <linearGradient
       xlink:href="#a"
       gradientUnits="userSpaceOnUse"
       y2="517.8"
       y1="545.8"
       x2="399.57"
       x1="399.57"
       id="d" />
    <linearGradient
       xlink:href="#a"
       gradientUnits="userSpaceOnUse"
       y2="267.75"
       y1="267.75"
       x2="536"
       x1="-.5"
       id="b" />
    <filter
       color-interpolation-filters="sRGB"
       height="1.072"
       width="1.072"
       y="-.036"
       x="-.036"
       id="f">
      <feGaussianBlur
         id="feGaussianBlur4505"
         stdDeviation="0.41999874" />
    </filter>
    <linearGradient
       gradientUnits="userSpaceOnUse"
       y2="545.8"
       y1="517.8"
       x2="400.57"
       x1="400.57"
       id="e">
      <stop
         id="stop4508"
         offset="0"
         stop-color="#49b202" />
      <stop
         id="stop4510"
         offset="1"
         stop-color="#8cd958" />
    </linearGradient>
    <linearGradient
       gradientUnits="userSpaceOnUse"
       y2="47.998"
       y1="16.002"
       x2="32"
       x1="32"
       id="c">
      <stop
         id="stop4513"
         offset="0"
         stop-color="#fff" />
      <stop
         id="stop4515"
         offset="1"
         stop-color="#daffd8" />
    </linearGradient>
    <filter
       color-interpolation-filters="sRGB"
       height="1.12"
       width="1.12"
       y="-.060004"
       x="-.059996"
       id="g">
      <feGaussianBlur
         id="feGaussianBlur4518"
         stdDeviation="0.79995118" />
    </filter>
    <linearGradient
       inkscape:collect="always"
       xlink:href="#linearGradient4617"
       id="linearGradient4619"
       x1="94.344826"
       y1="70.280907"
       x2="94.72834"
       y2="123.39781"
       gradientUnits="userSpaceOnUse" />
    <radialGradient
       inkscape:collect="always"
       xlink:href="#linearGradient4629"
       id="radialGradient4631"
       cx="99.522285"
       cy="91.37426"
       fx="99.522285"
       fy="91.37426"
       r="35.858704"
       gradientUnits="userSpaceOnUse"
       gradientTransform="translate(-6.1362486,3.6433976)" />
  </defs>
  <sodipodi:namedview
     pagecolor="#ffffff"
     bordercolor="#666666"
     borderopacity="1"
     objecttolerance="10"
     gridtolerance="10"
     guidetolerance="10"
     inkscape:pageopacity="0"
     inkscape:pageshadow="2"
     inkscape:window-width="1920"
     inkscape:window-height="1040"
     id="namedview4"
     showgrid="false"
     inkscape:zoom="1.3037282"
     inkscape:cx="95.091426"
     inkscape:cy="39.273634"
     inkscape:window-x="0"
     inkscape:window-y="0"
     inkscape:window-maximized="1"
     inkscape:current-layer="svg2" />
  <path
     inkscape:connector-curvature="0"
     d=""
     cx="621.95471"
     cy="755.98816"
     rx="110.06896"
     ry="34.918427"
     style="opacity:0.10100002;fill:#1b1b1b;fill-opacity:1;stroke:none;stroke-width:2.96896577;stroke-linecap:round;stroke-linejoin:round;stroke-miterlimit:4;stroke-dasharray:none;stroke-dashoffset:0;stroke-opacity:1;paint-order:normal"
     id="path1456" />
  <path
     inkscape:connector-curvature="0"
     d=""
     id="path1470"
     style="opacity:0.10100002;fill:#1b1b1b;fill-opacity:1;stroke:none;stroke-width:2.96896577;stroke-linecap:round;stroke-linejoin:round;stroke-miterlimit:4;stroke-dasharray:none;stroke-dashoffset:0;stroke-opacity:1;paint-order:normal"
     ry="34.918427"
     rx="110.06896"
     cy="755.98816"
     cx="621.95471" />
  <path
     id="circle821"
     style="opacity:0.275;fill:url(#radialGradient829);fill-opacity:1;stroke:none;stroke-width:0.92476499;stroke-linecap:round;stroke-linejoin:round;stroke-miterlimit:4;stroke-dasharray:none;stroke-dashoffset:0;stroke-opacity:1;paint-order:fill markers stroke"
     sodipodi:type="arc"
     sodipodi:cx="62.180641"
     sodipodi:cy="64.463936"
     sodipodi:rx="73.45755"
     sodipodi:ry="69.055603"
     sodipodi:start="0"
     sodipodi:end="6.2811238"
     d="M 135.63819,64.463936 A 73.45755,69.055603 0 0 1 62.218499,133.51953 73.45755,69.055603 0 0 1 -11.27687,64.535115 73.45755,69.055603 0 0 1 62.067066,-4.5915846 73.45755,69.055603 0 0 1 135.63804,64.321577 l -73.457399,0.142359 z" />
  <circle
     style="opacity:1;fill:url(#linearGradient845);fill-opacity:1;stroke:none;stroke-width:0.76088405;stroke-linecap:round;stroke-linejoin:round;stroke-miterlimit:4;stroke-dasharray:none;stroke-dashoffset:0;stroke-opacity:1;paint-order:fill markers stroke"
     id="path819"
     cx="62.180641"
     cy="64.463936"
     r="58.600967" />
  <path
     inkscape:connector-curvature="0"
     style="fill:#ffffff;fill-opacity:1;stroke-width:0.36659765;enable-background:new"
     d="m 52.039068,35.296725 c -0.634292,-0.04722 -1.285243,-0.05988 -1.958054,-0.04059 -5.585363,0.160118 -9.70026,2.399779 -12.320767,6.708913 -2.621414,4.2854 -3.811664,10.402535 -3.583561,18.36177 0.232897,8.12633 1.777135,14.288021 4.640856,18.463897 2.003118,2.920769 4.62375,4.77555 7.859385,5.575473 0,0 0.650114,-0.05621 0.723133,0.638701 1.362237,8.949963 6.972955,8.809173 13.370745,8.625813 0,0 0.829693,-0.0233 0.806024,-0.84913 l -0.142644,-4.953878 c -0.02367,-0.825783 -0.849414,-0.801866 -0.849414,-0.801866 -3.19652,0.09161 -4.022341,0.325048 -4.970193,-2.85404 1.07499,-0.299147 2.071669,-0.694164 2.991455,-1.197376 2.075715,-1.159837 3.76947,-2.805632 5.080431,-4.948405 1.309987,-2.166516 2.25183,-4.808505 2.822973,-7.93453 0.596389,-3.126825 0.841376,-6.697809 0.72622,-10.713342 C 67.004809,51.323256 65.438441,45.255251 62.526454,41.176482 59.977862,37.586718 56.479213,35.626758 52.039002,35.296723 Z m -1.066041,4.039334 c 0.785578,0.133503 1.440439,0.510627 2.019484,1.133797 0.45479,0.472134 0.862689,1.095927 1.243785,1.847361 0.219122,0.555324 0.437973,1.145141 0.620129,1.816387 0.491498,1.811734 0.864669,4.01593 1.118668,6.632368 0.253496,2.612049 0.421256,5.593047 0.516709,8.922585 0.09608,3.353541 0.101858,6.366809 -2.21e-4,9.036728 -0.10301,2.650251 -0.350805,4.907619 -0.736447,6.790862 -0.145095,0.69926 -0.32114,1.336313 -0.513926,1.925045 -0.03245,0.07636 -0.06231,0.161437 -0.09566,0.235308 -0.309252,0.685582 -0.651586,1.265126 -1.034634,1.734357 -0.724388,0.920578 -1.614397,1.362285 -2.779991,1.395693 -1.165633,0.03344 -2.074981,-0.360088 -2.850833,-1.237672 -0.759784,-0.892051 -1.400933,-2.204288 -1.89675,-3.970603 -0.498195,-1.795659 -0.865038,-4.000227 -1.120407,-6.607454 -0.256605,-2.63606 -0.446643,-5.635733 -0.542313,-8.974437 -0.09504,-3.314769 -0.07694,-6.261286 0.02959,-8.859452 0.106291,-2.593167 0.35047,-4.780312 0.744855,-6.552468 0.394182,-1.766774 0.967114,-3.093099 1.67078,-3.976299 0.723168,-0.873708 1.60572,-1.312274 2.776514,-1.345864 0.292721,-0.0083 0.5688,0.0092 0.830687,0.05366 z m 31.257297,2.572075 -6.396122,0.18392 c -2.195116,9.980733 -0.5451,9.795825 -5.50349,9.937932 l 0.183325,5.866224 3.373742,-0.09847 c 0,0 0.359303,13.130739 0.477643,17.259863 0,0 -0.751293,4.978475 3.451765,7.337456 4.32495,2.427366 12.232588,-0.230802 12.394917,-0.35383 l -0.164208,-5.78145 c 0,0 -2.001989,0.705885 -3.330468,0.614672 -1.041625,0.02986 -1.894615,-0.333805 -2.556143,-1.096132 -0.661576,-0.762284 -1.012667,-1.91547 -1.056705,-3.453084 l -0.408536,-14.780996 6.822509,-0.195896 -0.179463,-5.861785 -6.826665,0.19562 z"
     id="path849-2" />
  <path
     style="opacity:1;fill:url(#radialGradient4631);fill-opacity:1;stroke:none;stroke-width:2.25301194;stroke-linecap:round;stroke-linejoin:bevel;stroke-miterlimit:4;stroke-dasharray:none;stroke-dashoffset:0;stroke-opacity:1"
     d="M 93.386719 59.158203 A 35.858704 35.858704 0 0 0 57.527344 95.017578 A 35.858704 35.858704 0 0 0 70.279297 122.43945 A 58.600967 58.600967 0 0 0 120.32227 71.414062 A 35.858704 35.858704 0 0 0 93.386719 59.158203 z "
     id="circle4621" />
  <circle
     style="opacity:1;fill:url(#linearGradient4619);fill-opacity:1;stroke:none;stroke-width:2;stroke-linecap:round;stroke-linejoin:bevel;stroke-miterlimit:4;stroke-dasharray:none;stroke-dashoffset:0;stroke-opacity:1"
     id="path4496"
     cx="95.495369"
     cy="95.401176"
     r="31.831789" />
  <path
     d="m 107.78128,76.204462 -0.96483,2.577423 c -0.0628,0.169042 0.002,0.39342 0.14361,0.502622 l 1.13541,0.869095 c 0.13912,0.10621 0.37697,0.112184 0.52356,0.0075 l 2.23782,-1.597577 c 0.14659,-0.1047 0.36949,-0.08676 0.49663,0.04189 l 0.93794,0.937939 c 0.13016,0.130146 0.1466,0.350041 0.0418,0.496628 l -1.59758,2.236377 c -0.1047,0.146587 -0.10023,0.381452 0.009,0.523556 l 0.87062,1.135409 c 0.10621,0.139122 0.33508,0.206446 0.50262,0.143615 l 2.57445,-0.964838 c 0.16904,-0.06283 0.37846,0.0118 0.46822,0.169041 l 0.66267,1.147339 c 0.0927,0.160056 0.0509,0.375468 -0.0882,0.490654 l -2.12411,1.748715 c -0.13912,0.115186 -0.19595,0.342566 -0.12714,0.507105 l 0.546,1.320892 c 0.0673,0.161576 0.26926,0.285718 0.44876,0.269258 l 2.73896,-0.266266 c 0.1795,-0.01795 0.3635,0.109182 0.40988,0.284218 l 0.34255,1.280485 c 0.0479,0.178018 -0.0478,0.375469 -0.21242,0.450258 l -2.50556,1.139835 c -0.16454,0.07478 -0.27822,0.279725 -0.25428,0.457742 l 0.18697,1.416616 c 0.0223,0.173524 0.18697,0.345548 0.365,0.375468 l 2.71355,0.451759 c 0.17802,0.02992 0.32162,0.200442 0.32162,0.379951 v 1.325317 c 0,0.183992 -0.14362,0.351532 -0.32162,0.379951 l -2.71057,0.451759 c -0.17801,0.02992 -0.34106,0.19746 -0.3635,0.375468 l -0.18548,1.418155 c -0.0223,0.173505 0.0912,0.382948 0.25429,0.457748 l 2.50113,1.138391 c 0.16306,0.0748 0.25879,0.27674 0.21242,0.45026 l -0.34256,1.28048 c -0.0479,0.17802 -0.23039,0.30217 -0.40988,0.28422 l -2.73587,-0.26473 c -0.17951,-0.018 -0.37995,0.10321 -0.44876,0.26926 l -0.549,1.32089 c -0.0672,0.16155 -0.0118,0.39342 0.12715,0.50711 l 2.1241,1.74871 c 0.13913,0.11517 0.17951,0.33358 0.0882,0.49066 l -0.66267,1.14734 c -0.0927,0.16005 -0.30067,0.23186 -0.46971,0.16904 l -2.57743,-0.96484 c -0.16904,-0.0628 -0.39342,0.002 -0.50262,0.14361 l -0.8691,1.13541 c -0.10621,0.13912 -0.11218,0.37697 -0.008,0.52356 l 1.59758,2.23782 c 0.10472,0.14659 0.0868,0.36948 -0.0418,0.49663 l -0.93794,0.93794 c -0.13015,0.13014 -0.35004,0.14658 -0.49663,0.0419 l -2.23638,-1.59758 c -0.14659,-0.1047 -0.38145,-0.10023 -0.52355,0.009 l -1.13541,0.87045 c -0.13911,0.10621 -0.20642,0.33508 -0.14362,0.50262 l 0.96484,2.57444 c 0.0628,0.16904 -0.012,0.37846 -0.16904,0.46822 l -1.14734,0.66267 c -0.16006,0.0927 -0.37547,0.0509 -0.49065,-0.0882 l -1.74853,-2.1242 c -0.11524,-0.13905 -0.34259,-0.1959 -0.50714,-0.1271 l -1.32089,0.546 c -0.16155,0.0672 -0.28572,0.26926 -0.26926,0.44877 l 0.26627,2.73895 c 0.018,0.17951 -0.1092,0.36349 -0.28422,0.40987 l -1.28049,0.34256 c -0.17802,0.0478 -0.37547,-0.0479 -0.45026,-0.21242 l -1.139829,-2.50556 c -0.07478,-0.16455 -0.279725,-0.27825 -0.457742,-0.25429 l -1.416616,0.18697 c -0.173525,0.0223 -0.345549,0.18698 -0.375468,0.365 l -0.451759,2.71356 c -0.02992,0.17801 -0.200442,0.32161 -0.379951,0.32161 h -1.325317 c -0.183992,0 -0.351533,-0.14361 -0.379952,-0.32161 l -0.451758,-2.71057 c -0.02992,-0.17802 -0.19746,-0.34107 -0.375468,-0.3635 l -1.418155,-0.18549 c -0.173525,-0.0223 -0.382953,0.0912 -0.457743,0.25429 l -1.138391,2.50113 c -0.07478,0.16306 -0.276743,0.2588 -0.450258,0.21243 l -1.280486,-0.34256 c -0.178017,-0.0479 -0.302169,-0.23038 -0.284218,-0.40987 l 0.264775,-2.73597 c 0.01795,-0.17951 -0.103208,-0.37995 -0.269258,-0.44877 l -1.320892,-0.54898 c -0.161547,-0.0673 -0.39342,-0.0118 -0.507105,0.12714 l -1.748715,2.12411 c -0.115166,0.13912 -0.33358,0.17951 -0.490654,0.0882 l -1.147338,-0.66267 c -0.160056,-0.0927 -0.231863,-0.30067 -0.169042,-0.46971 l 0.964838,-2.57742 c 0.06283,-0.16904 -0.0015,-0.39342 -0.143614,-0.50262 l -1.135409,-0.8691 c -0.139122,-0.10621 -0.376969,-0.11218 -0.523566,-0.008 l -2.23782,1.59758 c -0.146587,0.10472 -0.369484,0.0868 -0.496628,-0.0418 l -0.93794,-0.9379 c -0.130145,-0.13014 -0.146587,-0.35003 -0.0419,-0.49663 l 1.597577,-2.23637 c 0.104719,-0.14659 0.100236,-0.38146 -0.0089,-0.52356 l -0.870605,-1.13541 c -0.10621,-0.1391 -0.335082,-0.20642 -0.502622,-0.14361 l -2.574441,0.96483 c -0.16907,0.0629 -0.378489,-0.0117 -0.468248,-0.16899 l -0.662716,-1.14734 c -0.09274,-0.16005 -0.05087,-0.37547 0.08825,-0.49064 l 2.124106,-1.74872 c 0.139132,-0.11517 0.195979,-0.34257 0.127154,-0.50711 l -0.545991,-1.32089 c -0.0673,-0.16155 -0.269258,-0.28572 -0.448766,-0.26926 l -2.738951,0.26627 c -0.179509,0.018 -0.3635,-0.10919 -0.409871,-0.28422 L 73.0209,100.73677 c -0.04787,-0.17802 0.04787,-0.37547 0.212421,-0.45027 l 2.505557,-1.139831 c 0.164549,-0.0748 0.278234,-0.279729 0.254289,-0.457746 l -0.18705,-1.416754 c -0.02258,-0.173505 -0.186993,-0.345538 -0.365011,-0.375458 l -2.713552,-0.451759 c -0.178018,-0.02992 -0.321613,-0.200442 -0.321613,-0.379951 v -1.325317 c 0,-0.184002 0.143615,-0.351533 0.321613,-0.379952 l 2.71057,-0.451758 c 0.178017,-0.02992 0.341065,-0.19746 0.3635,-0.375468 l 0.185512,-1.418155 c 0.02232,-0.173506 -0.09123,-0.382943 -0.254289,-0.457743 l -2.501132,-1.138391 c -0.163038,-0.07478 -0.258791,-0.276743 -0.21242,-0.450267 l 0.342556,-1.280486 c 0.04787,-0.178018 0.230382,-0.30217 0.409871,-0.284218 l 2.735969,0.264775 c 0.179508,0.01795 0.379951,-0.103209 0.448766,-0.269258 l 0.548993,-1.320892 c 0.06728,-0.161547 0.0118,-0.39342 -0.127144,-0.507105 L 75.2542,84.922147 C 75.115097,84.80698 75.074691,84.588566 75.16595,84.431493 l 0.662668,-1.147339 c 0.09277,-0.160056 0.300669,-0.231863 0.469711,-0.169041 l 2.577423,0.964838 c 0.169041,0.06283 0.393419,-0.0016 0.502622,-0.143615 l 0.869094,-1.135409 c 0.106211,-0.139121 0.112185,-0.376969 0.0075,-0.523556 l -1.597577,-2.23782 c -0.104699,-0.146587 -0.08676,-0.369484 0.04189,-0.496628 l 0.937939,-0.937939 c 0.130146,-0.130146 0.350041,-0.146588 0.496629,-0.04189 l 2.236376,1.597577 c 0.146588,0.1047 0.381453,0.100236 0.523557,-0.0089 l 1.135409,-0.870615 c 0.139122,-0.10621 0.206446,-0.335081 0.143614,-0.502622 l -0.964934,-2.574441 c -0.06283,-0.169041 0.0118,-0.37846 0.169042,-0.468219 l 1.147338,-0.662581 c 0.160056,-0.09274 0.375468,-0.05086 0.490654,0.08825 l 1.748715,2.124106 c 0.115167,0.139122 0.342556,0.19595 0.507105,0.127144 l 1.320892,-0.546 c 0.161576,-0.06729 0.285719,-0.269258 0.269258,-0.448767 l -0.266266,-2.738951 c -0.01795,-0.179508 0.109183,-0.3635 0.284218,-0.409871 l 1.280486,-0.342556 c 0.178017,-0.04787 0.375468,0.04787 0.450257,0.21242 l 1.139931,2.505558 c 0.07478,0.164549 0.279725,0.278224 0.457743,0.254289 l 1.416615,-0.186974 c 0.173506,-0.02233 0.345549,-0.186974 0.375468,-0.364992 l 0.451759,-2.713553 c 0.02992,-0.178017 0.200443,-0.321612 0.379951,-0.321612 h 1.325318 c 0.183991,0 0.351532,0.143614 0.379951,0.321612 l 0.451758,2.710571 c 0.02991,0.178017 0.197461,0.341065 0.375468,0.3635 l 1.418156,0.185483 c 0.173524,0.02233 0.382952,-0.09123 0.457742,-0.254289 l 1.13839,-2.501132 c 0.0747,-0.163058 0.27674,-0.258791 0.45025,-0.21242 l 1.2805,0.342556 c 0.17801,0.04787 0.30217,0.230353 0.28422,0.409871 l -0.26478,2.735968 c -0.018,0.179509 0.10324,0.379952 0.26927,0.448767 l 1.32089,0.548993 c 0.16155,0.0673 0.39342,0.0118 0.5071,-0.127145 l 1.74872,-2.124105 c 0.11519,-0.139103 0.33358,-0.179509 0.49065,-0.08826 l 1.14734,0.662669 c 0.16006,0.09274 0.23187,0.300668 0.16904,0.46971 z m -4.39194,5.49137 c -3.718698,-2.148061 -7.947572,-2.614846 -11.805289,-1.636443 -0.743451,0.188484 -0.306653,0.08528 -0.306653,0.08528 -1.035163,0.353033 -1.447978,1.419598 -0.925942,2.370967 0,0 -0.300669,-0.548993 0.02385,0.04189 1.546781,2.822745 4.643229,8.471217 4.643229,8.471217 0.700063,1.277504 2.448701,2.288713 3.907262,2.258793 0,0 6.859883,-0.142104 10.291983,-0.213911 0.63727,-0.01333 0,0 0,0 1.05604,-0.02233 1.74275,-0.910973 1.51234,-1.905721 -1.07104,-3.85637 -3.59757,-7.311758 -7.33869,-9.471941 z m -0.25879,27.549208 c 3.75612,-2.08225 6.33345,-5.46597 7.48223,-9.277411 0.2214,-0.73449 0.0852,-0.30666 0.0852,-0.30666 0.23035,-1.069601 -0.4712,-1.971617 -1.55573,-2.015006 0,0 0.62528,0.0254 -0.0479,-0.0016 -3.21612,-0.127144 -9.651262,-0.382953 -9.651262,-0.382953 -1.455483,-0.05835 -3.223631,0.919949 -3.949111,2.185489 0,0 -3.410653,5.953351 -5.117422,8.932041 -0.31713,0.55348 0,0 0,0 -0.525057,0.91698 -0.115167,1.96258 0.855645,2.27823 0,0 -0.613334,-0.17053 0,0 3.857909,1.06806 8.121321,0.68212 11.89861,-1.4121 z m -18.727225,-2.52056 c 0.758421,0.68364 1.869836,0.51458 2.400887,-0.39941 0,0 -0.320112,0.55049 0,0 1.726202,-2.96628 5.175818,-8.897309 5.175818,-8.897309 0.732975,-1.261052 0.697091,-3.280487 -0.08078,-4.513063 0,0 -3.439033,-5.446539 -5.157828,-8.167307 -0.360508,-0.569936 -0.0254,-0.04038 -0.0254,-0.04038 -0.578913,-0.916976 -1.711291,-1.074031 -2.522105,-0.339565 0,0 0.302169,-0.332089 -0.222888,0.22738 -2.725482,2.900479 -4.367986,6.824 -4.293139,11.119352 0.07478,4.318642 1.872819,8.203192 4.727023,11.009682 z"
     class="shp86"
     id="gear-3"
     inkscape:connector-curvature="0"
     style="opacity:1;fill:#333333;fill-opacity:1;stroke-width:2.56693649" />
</svg>
