<?xml version="1.0" encoding="UTF-8" standalone="no"?>
<!-- Generator: Adobe Illustrator 21.1.0, SVG Export Plug-In . SVG Version: 6.00 Build 0)  -->

<svg
   xmlns:dc="http://purl.org/dc/elements/1.1/"
   xmlns:cc="http://creativecommons.org/ns#"
   xmlns:rdf="http://www.w3.org/1999/02/22-rdf-syntax-ns#"
   xmlns:svg="http://www.w3.org/2000/svg"
   xmlns="http://www.w3.org/2000/svg"
   xmlns:xlink="http://www.w3.org/1999/xlink"
   xmlns:sodipodi="http://sodipodi.sourceforge.net/DTD/sodipodi-0.dtd"
   xmlns:inkscape="http://www.inkscape.org/namespaces/inkscape"
   version="1.0"
   id="Layer_1"
   x="0px"
   y="0px"
   viewBox="0 0 128 128"
   style="enable-background:new 0 0 128 128;"
   xml:space="preserve"
   sodipodi:docname="screenie.svg"
   inkscape:version="0.92.2pre0 (973e216, 2017-07-25)"><metadata
     id="metadata9"><rdf:RDF><cc:Work
         rdf:about=""><dc:format>image/svg+xml</dc:format><dc:type
           rdf:resource="http://purl.org/dc/dcmitype/StillImage" /></cc:Work></rdf:RDF></metadata><defs
     id="defs7"><linearGradient
       inkscape:collect="always"
       id="linearGradient838"><stop
         style="stop-color:#f3f1f3;stop-opacity:1;"
         offset="0"
         id="stop834" /><stop
         style="stop-color:#dcdadc;stop-opacity:1"
         offset="1"
         id="stop836" /></linearGradient><linearGradient
       inkscape:collect="always"
       xlink:href="#linearGradient838"
       id="linearGradient840"
       x1="69.516396"
       y1="87.581085"
       x2="68.903137"
       y2="113.27663"
       gradientUnits="userSpaceOnUse"
       gradientTransform="translate(174.55828,-72.588759)" /><filter
       inkscape:collect="always"
       style="color-interpolation-filters:sRGB"
       id="filter1044"
       x="-0.016976304"
       width="1.0339526"
       y="-0.019155079"
       height="1.0383102"><feGaussianBlur
         inkscape:collect="always"
         stdDeviation="0.80949148"
         id="feGaussianBlur1046" /></filter></defs><sodipodi:namedview
     pagecolor="#ffffff"
     bordercolor="#666666"
     borderopacity="1"
     objecttolerance="10"
     gridtolerance="10"
     guidetolerance="10"
     inkscape:pageopacity="0"
     inkscape:pageshadow="2"
     inkscape:window-width="1360"
     inkscape:window-height="740"
     id="namedview5"
     showgrid="false"
     inkscape:zoom="2"
     inkscape:cx="155.1264"
     inkscape:cy="39.275841"
     inkscape:window-x="0"
     inkscape:window-y="0"
     inkscape:window-maximized="1"
     inkscape:current-layer="Layer_1" /><g
     id="g1056"
     transform="translate(-168.5,1)"><rect
       id="rect890"
       width="114.44067"
       height="101.42373"
       x="175.04225"
       y="14.109272"
       ry="3.5254238"
       style="opacity:1;fill:#1a1a1a;fill-opacity:0.48868779;filter:url(#filter1044)" /><rect
       style="opacity:1;fill:#fdfdfd;fill-opacity:1"
       ry="3.5254238"
       y="14.109272"
       x="175.04225"
       height="101.42373"
       width="114.44067"
       id="rect22" /><path
       inkscape:connector-curvature="0"
       id="path829"
       d="m 178.56922,14.109272 c -1.95309,0 -3.52734,1.572306 -3.52734,3.525391 v 23.552738 c 20.05069,-0.06356 97.39424,-0.38393 114.4414,-0.45508 V 17.634663 c 0,-1.953085 -1.5723,-3.525391 -3.52539,-3.525391 z"
       style="fill:url(#linearGradient840);fill-opacity:1;stroke:none;stroke-width:1px;stroke-linecap:butt;stroke-linejoin:miter;stroke-opacity:1" /><g
       transform="translate(151,-1)"
       id="g851"><circle
         style="opacity:1;fill:#ff6159;fill-opacity:1;stroke:#e1453f;stroke-width:0.40000001;stroke-miterlimit:4;stroke-dasharray:none;stroke-opacity:1"
         id="path842"
         cx="42.60952"
         cy="28.877758"
         r="6.7163224" /><circle
         r="6.7163224"
         cy="28.877758"
         cx="64.100372"
         id="circle844"
         style="opacity:1;fill:#ffbe2f;fill-opacity:1;stroke:#dfa023;stroke-width:0.40000001;stroke-miterlimit:4;stroke-dasharray:none;stroke-opacity:1" /><circle
         style="opacity:1;fill:#28ca40;fill-opacity:1;stroke:#1bac2c;stroke-width:0.40000001;stroke-miterlimit:4;stroke-dasharray:none;stroke-opacity:1"
         id="circle846"
         cx="85.591217"
         cy="28.877758"
         r="6.7163224" /></g><path
       inkscape:connector-curvature="0"
       id="rect853"
       d="m 224.61805,50.105469 c -2.11301,0 -3.88263,1.354661 -4.53516,3.240234 l -0.10547,-0.05859 c -0.1663,2.82403 -2.02829,4.017999 -4.66992,4.507813 h -12.22265 c -1.16961,0 -2.11133,0.94172 -2.11133,2.111328 v 2.845703 h 62.57812 V 59.90625 c 0,-1.169608 -0.94171,-2.11133 -2.11132,-2.111328 h -11.46289 c -2.23433,-0.410421 -3.91762,-1.317029 -4.49805,-3.279297 -0.0293,-0.347463 -0.0928,-0.681739 -0.19141,-1.003906 -0.007,-0.07779 -0.0265,-0.144206 -0.0312,-0.22461 l -0.0332,0.01758 c -0.664,-1.864272 -2.42172,-3.199219 -4.51953,-3.199219 z m -14.94336,4.509765 a 2.859375,2.859375 0 0 0 -2.63477,1.75 h 5.26758 a 2.859375,2.859375 0 0 0 -2.63281,-1.75 z m -8.70117,9.53711 v 3.708984 23.353516 3.355468 h 62.57812 V 91.214844 67.861328 64.152344 Z m 31.3789,1.208984 c 7.65984,0 13.91016,6.252273 13.91016,13.91211 0,7.659836 -6.25032,13.910156 -13.91016,13.910156 -7.65983,0 -13.9121,-6.250321 -13.9121,-13.910156 0,-7.659839 6.25227,-13.91211 13.9121,-13.91211 z m 0,3.900391 c -5.55212,0 -10.01171,4.459598 -10.01171,10.011719 0,5.552117 4.45959,10.009765 10.01171,10.009765 5.55212,0 10.01172,-4.457646 10.01172,-10.009765 0,-5.552121 -4.4596,-10.011719 -10.01172,-10.011719 z m -31.36328,26.708984 c 0.0848,2.465027 2.08388,4.427737 4.57032,4.427737 h 53.40625 c 2.48642,0 4.48549,-1.96273 4.57031,-4.427737 z"
       style="opacity:1;fill:#cecece;fill-opacity:1;stroke:none;stroke-width:0.40000001;stroke-miterlimit:4;stroke-dasharray:none;stroke-opacity:1" /></g></svg>