<svg enable-background="new 0 0 128 128" viewBox="0 0 128 128" xmlns="http://www.w3.org/2000/svg" xmlns:xlink="http://www.w3.org/1999/xlink"><linearGradient id="a" gradientUnits="userSpaceOnUse" x1="244.074676" x2="243.461417" y1="14.992326" y2="40.687871"><stop offset="0" stop-color="#f3f1f3"/><stop offset="1" stop-color="#dcdadc"/></linearGradient><filter id="b" color-interpolation-filters="sRGB" height="1.03831" width="1.033953" x="-.016976" y="-.019155"><feGaussianBlur stdDeviation=".80949148"/></filter><g transform="translate(-168.5 1)"><rect fill="#1a1a1a" fill-opacity=".488688" filter="url(#b)" height="101.42373" ry="3.525424" width="114.44067" x="175.04225" y="14.109272"/><rect fill="#fdfdfd" height="101.42373" ry="3.525424" width="114.44067" x="175.04225" y="14.109272"/><path d="m178.56922 14.109272c-1.95309 0-3.52734 1.572306-3.52734 3.525391v23.552738c20.05069-.06356 97.39424-.38393 114.4414-.45508v-23.097658c0-1.953085-1.5723-3.525391-3.52539-3.525391z" fill="url(#a)"/><g stroke-width=".4"><circle cx="193.60952" cy="27.877758" fill="#ff6159" r="6.716322" stroke="#e1453f"/><circle cx="215.100372" cy="27.877758" fill="#ffbe2f" r="6.716322" stroke="#dfa023"/><circle cx="236.591217" cy="27.877758" fill="#28ca40" r="6.716322" stroke="#1bac2c"/></g><path d="m224.61805 50.105469c-2.11301 0-3.88263 1.354661-4.53516 3.240234l-.10547-.05859c-.1663 2.82403-2.02829 4.017999-4.66992 4.507813h-12.22265c-1.16961 0-2.11133.94172-2.11133 2.111328v2.845703h62.57812v-2.845707c0-1.169608-.94171-2.11133-2.11132-2.111328h-11.46289c-2.23433-.410421-3.91762-1.317029-4.49805-3.279297-.0293-.347463-.0928-.681739-.19141-1.003906-.007-.07779-.0265-.144206-.0312-.22461l-.0332.01758c-.664-1.864272-2.42172-3.199219-4.51953-3.199219zm-14.94336 4.509765a2.859375 2.859375 0 0 0 -2.63477 1.75h5.26758a2.859375 2.859375 0 0 0 -2.63281-1.75zm-8.70117 9.53711v3.708984 23.353516 3.355468h62.57812v-3.355468-23.353516-3.708984zm31.3789 1.208984c7.65984 0 13.91016 6.252273 13.91016 13.91211 0 7.659836-6.25032 13.910156-13.91016 13.910156-7.65983 0-13.9121-6.250321-13.9121-13.910156 0-7.659839 6.25227-13.91211 13.9121-13.91211zm0 3.900391c-5.55212 0-10.01171 4.459598-10.01171 10.011719 0 5.552117 4.45959 10.009765 10.01171 10.009765s10.01172-4.457646 10.01172-10.009765c0-5.552121-4.4596-10.011719-10.01172-10.011719zm-31.36328 26.708984c.0848 2.465027 2.08388 4.427737 4.57032 4.427737h53.40625c2.48642 0 4.48549-1.96273 4.57031-4.427737z" fill="#cecece"/></g></svg>