<?xml version="1.0" encoding="UTF-8" standalone="no"?>
<svg
   xmlns:dc="http://purl.org/dc/elements/1.1/"
   xmlns:cc="http://creativecommons.org/ns#"
   xmlns:rdf="http://www.w3.org/1999/02/22-rdf-syntax-ns#"
   xmlns:svg="http://www.w3.org/2000/svg"
   xmlns="http://www.w3.org/2000/svg"
   xmlns:xlink="http://www.w3.org/1999/xlink"
   xmlns:sodipodi="http://sodipodi.sourceforge.net/DTD/sodipodi-0.dtd"
   xmlns:inkscape="http://www.inkscape.org/namespaces/inkscape"
   viewBox="0 0 128 128"
   version="1.1"
   id="svg47"
   sodipodi:docname="zsnes.svg"
   width="128"
   height="128"
   inkscape:version="0.92.1 r15371">
  <metadata
     id="metadata51">
    <rdf:RDF>
      <cc:Work
         rdf:about="">
        <dc:format>image/svg+xml</dc:format>
        <dc:type
           rdf:resource="http://purl.org/dc/dcmitype/StillImage" />
        <dc:title></dc:title>
      </cc:Work>
    </rdf:RDF>
  </metadata>
  <sodipodi:namedview
     pagecolor="#ffffff"
     bordercolor="#666666"
     borderopacity="1"
     objecttolerance="10"
     gridtolerance="10"
     guidetolerance="10"
     inkscape:pageopacity="0"
     inkscape:pageshadow="2"
     inkscape:window-width="1920"
     inkscape:window-height="1040"
     id="namedview49"
     showgrid="false"
     inkscape:zoom="1.7383042"
     inkscape:cx="24"
     inkscape:cy="24"
     inkscape:window-x="0"
     inkscape:window-y="0"
     inkscape:window-maximized="1"
     inkscape:current-layer="svg47" />
  <defs
     id="defs27">
    <linearGradient
       id="8"
       x1="-42.740002"
       y1="20.17"
       x2="-42.945"
       y2="8.2220001"
       gradientUnits="userSpaceOnUse">
      <stop
         stop-color="#ceb270"
         id="stop2" />
      <stop
         offset="1"
         stop-color="#ffe6b5"
         id="stop4" />
    </linearGradient>
    <linearGradient
       xlink:href="#6"
       id="5"
       x1="-46.349998"
       y1="14.902"
       x2="-46.459999"
       y2="7.8340001"
       gradientUnits="userSpaceOnUse" />
    <linearGradient
       xlink:href="#6"
       id="7"
       x1="-39.02"
       y1="14.978"
       x2="-39.27"
       y2="8.3509998"
       gradientUnits="userSpaceOnUse" />
    <linearGradient
       id="6">
      <stop
         stop-color="#141414"
         id="stop9" />
      <stop
         offset="1"
         stop-color="#2d2d2f"
         id="stop11" />
    </linearGradient>
    <linearGradient
       xlink:href="#1"
       id="4"
       x1="-58.804001"
       y1="5.5110002"
       x2="-56.150002"
       y2="-4.1500001"
       gradientUnits="userSpaceOnUse" />
    <linearGradient
       id="3"
       x1="-43.715"
       y1="9.6630001"
       x2="-43.470001"
       y2="-13.524"
       gradientUnits="userSpaceOnUse">
      <stop
         stop-color="#c52828"
         id="stop15" />
      <stop
         offset="1"
         stop-color="#ff5454"
         id="stop17" />
    </linearGradient>
    <linearGradient
       xlink:href="#1"
       id="0"
       x1="-26.599001"
       y1="6.02"
       x2="-28.01"
       y2="-4.658"
       gradientUnits="userSpaceOnUse" />
    <linearGradient
       xlink:href="#1"
       id="2"
       x1="-43.299999"
       y1="4.7930002"
       x2="-43.473999"
       y2="-11.173"
       gradientUnits="userSpaceOnUse" />
    <linearGradient
       id="1">
      <stop
         stop-color="#e0e0e0"
         id="stop22" />
      <stop
         offset="1"
         stop-color="#fcf9f9"
         id="stop24" />
    </linearGradient>
  </defs>
  <g
     transform="matrix(3.6348404,0,0,3.6348404,218.83742,57.873981)"
     id="g45"
     style="enable-background:new">
    <path
       d="m -52.71,13.562 c -2.869,-1.059 -6.665,-3.506 -6.665,-9.678 0,-6.173 5.104,-17.455 16.751,-17.455 11.647,0 16.751,11.282 16.751,17.455 0,6.173 -3.796,8.62 -6.665,9.678 -6.821,1.4 -13.223,1.344 -20.17,0"
       id="path29"
       inkscape:connector-curvature="0"
       style="fill:url(#3)" />
    <path
       d="m -42.625,18.538 c 2.886,0 6.287,-0.363 7.822,-2.025 1.143,-1.237 1.443,-3.511 1.416,-5.04 -0.618,-0.865 -3.453,-3.2 -9.238,-3.2 -5.784,0 -8.62,2.335 -9.238,3.2 -0.027,1.525 0.273,3.798 1.416,5.04 1.535,1.662 4.936,2.025 7.822,2.025"
       id="path31"
       inkscape:connector-curvature="0"
       style="fill:url(#8)" />
    <path
       d="m -47.06,12.426 c 0,1.481 0.14,2.807 0.882,2.807 0.742,0 0.882,-1.29 0.882,-2.771 0,-1.481 -0.032,-2.771 -0.837,-2.771 -0.805,0 -0.927,1.254 -0.927,2.735"
       id="path33"
       inkscape:connector-curvature="0"
       style="fill:url(#5)" />
    <path
       d="m -38.19,12.426 c 0,1.481 -0.14,2.807 -0.882,2.807 -0.742,0 -0.882,-1.29 -0.882,-2.771 0,-1.481 0.032,-2.771 0.837,-2.771 0.805,0 0.927,1.254 0.927,2.735"
       id="path35"
       inkscape:connector-curvature="0"
       style="fill:url(#7)" />
    <path
       d="m -42.625,-11.1 c -4.361,0 -7.897,3.427 -7.897,7.655 0,4.228 3.535,7.655 7.897,7.655 4.361,0 7.897,-3.427 7.897,-7.655 0,-4.228 -3.535,-7.655 -7.897,-7.655"
       id="path37"
       inkscape:connector-curvature="0"
       style="opacity:0.95;fill:url(#2)" />
    <g
       id="g43"
       style="fill-rule:evenodd">
      <path
         d="m -58.948,7.149 c 3.571,-2.066 4.542,-8.938 2.327,-12.428 -1.909,2.578 -3.657,8.179 -2.327,12.428"
         id="path39"
         inkscape:connector-curvature="0"
         style="opacity:0.95;fill:url(#4)" />
      <path
         d="m -26.345,7.149 c -3.571,-2.066 -4.542,-8.938 -2.327,-12.428 1.909,2.578 3.657,8.179 2.327,12.428"
         id="path41"
         inkscape:connector-curvature="0"
         style="opacity:0.95;fill:url(#0)" />
    </g>
  </g>
</svg>
