<?xml version="1.0" encoding="UTF-8" standalone="no"?>
<!-- Created with Inkscape (http://www.inkscape.org/) -->

<svg
   xmlns:dc="http://purl.org/dc/elements/1.1/"
   xmlns:cc="http://creativecommons.org/ns#"
   xmlns:rdf="http://www.w3.org/1999/02/22-rdf-syntax-ns#"
   xmlns:svg="http://www.w3.org/2000/svg"
   xmlns="http://www.w3.org/2000/svg"
   xmlns:xlink="http://www.w3.org/1999/xlink"
   xmlns:sodipodi="http://sodipodi.sourceforge.net/DTD/sodipodi-0.dtd"
   xmlns:inkscape="http://www.inkscape.org/namespaces/inkscape"
   version="1.1"
   id="svg2"
   width="128"
   height="128"
   viewBox="0 0 128 128"
   sodipodi:docname="softwarecenter.svg"
   inkscape:version="0.92.4 5da689c313, 2019-01-14">
  <metadata
     id="metadata8">
    <rdf:RDF>
      <cc:Work
         rdf:about="">
        <dc:format>image/svg+xml</dc:format>
        <dc:type
           rdf:resource="http://purl.org/dc/dcmitype/StillImage" />
        <dc:title></dc:title>
      </cc:Work>
    </rdf:RDF>
  </metadata>
  <defs
     id="defs6">
    <linearGradient
       inkscape:collect="always"
       id="linearGradient833">
      <stop
         style="stop-color:#1174f7;stop-opacity:1"
         offset="0"
         id="stop829" />
      <stop
         style="stop-color:#02bffd;stop-opacity:1"
         offset="1"
         id="stop831" />
    </linearGradient>
    <linearGradient
       inkscape:collect="always"
       id="linearGradient823">
      <stop
         style="stop-color:#012fcc;stop-opacity:1"
         offset="0"
         id="stop819" />
      <stop
         style="stop-color:#01c2fe;stop-opacity:1"
         offset="1"
         id="stop821" />
    </linearGradient>
    <linearGradient
       inkscape:collect="always"
       xlink:href="#linearGradient823"
       id="linearGradient825"
       x1="-741.83197"
       y1="959.04749"
       x2="-741.83197"
       y2="93.836403"
       gradientUnits="userSpaceOnUse"
       gradientTransform="translate(0,-896)" />
    <linearGradient
       inkscape:collect="always"
       xlink:href="#linearGradient833"
       id="linearGradient835"
       x1="-738.76385"
       y1="931.43433"
       x2="-738.76385"
       y2="152.13077"
       gradientUnits="userSpaceOnUse"
       gradientTransform="translate(0,-896)" />
  </defs>
  <sodipodi:namedview
     pagecolor="#ffffff"
     bordercolor="#666666"
     borderopacity="1"
     objecttolerance="10"
     gridtolerance="10"
     guidetolerance="10"
     inkscape:pageopacity="0"
     inkscape:pageshadow="2"
     inkscape:window-width="1920"
     inkscape:window-height="1028"
     id="namedview4"
     showgrid="false"
     inkscape:zoom="3.6875"
     inkscape:cx="142.84134"
     inkscape:cy="42.694467"
     inkscape:window-x="0"
     inkscape:window-y="26"
     inkscape:window-maximized="1"
     inkscape:current-layer="svg2" />
  <g
     id="g1022"
     transform="matrix(0.13667801,0,0,0.13667801,162.31231,116.47416)">
    <circle
       r="449.08475"
       cy="-381.83057"
       cx="-722.28461"
       id="path817"
       style="opacity:1;fill:url(#linearGradient825);fill-opacity:1;stroke:none;stroke-width:5.75799751;stroke-linecap:round;stroke-linejoin:round;stroke-miterlimit:4;stroke-dasharray:none;stroke-opacity:1" />
    <circle
       style="opacity:1;fill:url(#linearGradient835);fill-opacity:1;stroke:none;stroke-width:5.16792202;stroke-linecap:round;stroke-linejoin:round;stroke-miterlimit:4;stroke-dasharray:none;stroke-opacity:1"
       id="circle827"
       cx="-722.28461"
       cy="-381.83057"
       r="403.06287" />
    <g
       style="opacity:0.40500004"
       transform="translate(-599.55963,-406.62969)"
       id="g998">
      <path
         inkscape:connector-curvature="0"
         style="opacity:1;fill:none;fill-opacity:1;stroke:#064ead;stroke-width:1;stroke-linecap:round;stroke-linejoin:round;stroke-miterlimit:4;stroke-dasharray:none;stroke-opacity:0.01960784;filter:url(#d);image-rendering:optimizeSpeed"
         d="m -172.43046,-245.27168 c -5.87522,0.15304 -11.80389,1.72434 -17.2532,4.87086 -17.43862,10.06909 -23.40129,32.36157 -13.33179,49.8001 l 37.25857,64.52339 -119.13029,206.36403 h -93.00598 c -20.13736,0 -36.45212,16.3146 -36.45212,36.4526 0,20.13803 16.31476,36.45253 36.45212,36.45253 h 331.536531 c 16.01977,-29.79325 -4.6214,-72.90513 -41.2127,-72.90513 H -200.73856 l 156.390421,-270.88742 c 10.06901,-17.43853 4.10682,-39.73101 -13.33163,-49.8001 -17.43854,-10.06901 -39.73103,-4.09095 -49.800191,13.3475 0,0 -8.08248,28.02706 -16.19411,28.07086 -8.09867,0 -16.20948,-28.07086 -16.20948,-28.07086 -6.92298,-11.98897 -19.62079,-18.55577 -32.54691,-18.21836 z m 102.636691,139.57924 c -21.5567,17.81294 -43.355741,70.7194 -12.87302,123.52749 44.946,77.83289 89.8927304,155.68484 134.81907,233.51775 10.06901,17.43845 32.36148,23.40064 49.800019,13.33163 17.43853,-10.06901 23.40064,-32.3457 13.33163,-49.78424 L 79.669611,153.17604 h 52.773179 c 20.13802,0 36.45253,-16.31458 36.45253,-36.4526 0,-20.13801 -16.31451,-36.45252 -36.45253,-36.45252 H 37.571271 C 1.7878114,18.28046 -34.010309,-43.70198 -69.793769,-105.69244 Z m -237.091471,270.4131 c -11.05572,0.49473 -21.40456,6.18857 -27.15428,16.14666 l -26.21986,45.41934 c -9.19906,15.93299 -3.05421,36.57342 13.7739,46.28923 16.8289,9.71581 37.7865,4.72043 46.98557,-11.21247 l 26.22068,-45.41944 c 9.19824,-15.93297 3.05339,-36.5892 -13.7747,-46.30502 -6.31085,-3.64342 -13.1982,-5.21513 -19.83131,-4.9183 z"
         id="path868-1-8" />
      <path
         id="path946"
         d="m -172.43046,-245.27168 c -5.87522,0.15304 -11.80389,1.72434 -17.2532,4.87086 -17.43862,10.06909 -23.40129,32.36157 -13.33179,49.8001 l 37.25857,64.52339 -119.13029,206.36403 h -93.00598 c -20.13736,0 -36.45212,16.3146 -36.45212,36.4526 0,20.13803 16.31476,36.45253 36.45212,36.45253 h 331.536531 c 16.01977,-29.79325 -4.6214,-72.90513 -41.2127,-72.90513 H -200.73856 l 156.390421,-270.88742 c 10.06901,-17.43853 4.10682,-39.73101 -13.33163,-49.8001 -17.43854,-10.06901 -39.73103,-4.09095 -49.800191,13.3475 0,0 -8.08248,28.02706 -16.19411,28.07086 -8.09867,0 -16.20948,-28.07086 -16.20948,-28.07086 -6.92298,-11.98897 -19.62079,-18.55577 -32.54691,-18.21836 z m 102.636691,139.57924 c -21.5567,17.81294 -43.355741,70.7194 -12.87302,123.52749 44.946,77.83289 89.8927304,155.68484 134.81907,233.51775 10.06901,17.43845 32.36148,23.40064 49.800019,13.33163 17.43853,-10.06901 23.40064,-32.3457 13.33163,-49.78424 L 79.669611,153.17604 h 52.773179 c 20.13802,0 36.45253,-16.31458 36.45253,-36.4526 0,-20.13801 -16.31451,-36.45252 -36.45253,-36.45252 H 37.571271 C 1.7878114,18.28046 -34.010309,-43.70198 -69.793769,-105.69244 Z m -237.091471,270.4131 c -11.05572,0.49473 -21.40456,6.18857 -27.15428,16.14666 l -26.21986,45.41934 c -9.19906,15.93299 -3.05421,36.57342 13.7739,46.28923 16.8289,9.71581 37.7865,4.72043 46.98557,-11.21247 l 26.22068,-45.41944 c 9.19824,-15.93297 3.05339,-36.5892 -13.7747,-46.30502 -6.31085,-3.64342 -13.1982,-5.21513 -19.83131,-4.9183 z"
         style="opacity:1;fill:none;fill-opacity:1;stroke:#064ead;stroke-width:2;stroke-linecap:round;stroke-linejoin:round;stroke-miterlimit:4;stroke-dasharray:none;stroke-opacity:0.01960784;filter:url(#d);image-rendering:optimizeSpeed"
         inkscape:connector-curvature="0" />
      <path
         inkscape:connector-curvature="0"
         style="opacity:1;fill:none;fill-opacity:1;stroke:#064ead;stroke-width:3;stroke-linecap:round;stroke-linejoin:round;stroke-miterlimit:4;stroke-dasharray:none;stroke-opacity:0.01960784;filter:url(#d);image-rendering:optimizeSpeed"
         d="m -172.43046,-245.27168 c -5.87522,0.15304 -11.80389,1.72434 -17.2532,4.87086 -17.43862,10.06909 -23.40129,32.36157 -13.33179,49.8001 l 37.25857,64.52339 -119.13029,206.36403 h -93.00598 c -20.13736,0 -36.45212,16.3146 -36.45212,36.4526 0,20.13803 16.31476,36.45253 36.45212,36.45253 h 331.536531 c 16.01977,-29.79325 -4.6214,-72.90513 -41.2127,-72.90513 H -200.73856 l 156.390421,-270.88742 c 10.06901,-17.43853 4.10682,-39.73101 -13.33163,-49.8001 -17.43854,-10.06901 -39.73103,-4.09095 -49.800191,13.3475 0,0 -8.08248,28.02706 -16.19411,28.07086 -8.09867,0 -16.20948,-28.07086 -16.20948,-28.07086 -6.92298,-11.98897 -19.62079,-18.55577 -32.54691,-18.21836 z m 102.636691,139.57924 c -21.5567,17.81294 -43.355741,70.7194 -12.87302,123.52749 44.946,77.83289 89.8927304,155.68484 134.81907,233.51775 10.06901,17.43845 32.36148,23.40064 49.800019,13.33163 17.43853,-10.06901 23.40064,-32.3457 13.33163,-49.78424 L 79.669611,153.17604 h 52.773179 c 20.13802,0 36.45253,-16.31458 36.45253,-36.4526 0,-20.13801 -16.31451,-36.45252 -36.45253,-36.45252 H 37.571271 C 1.7878114,18.28046 -34.010309,-43.70198 -69.793769,-105.69244 Z m -237.091471,270.4131 c -11.05572,0.49473 -21.40456,6.18857 -27.15428,16.14666 l -26.21986,45.41934 c -9.19906,15.93299 -3.05421,36.57342 13.7739,46.28923 16.8289,9.71581 37.7865,4.72043 46.98557,-11.21247 l 26.22068,-45.41944 c 9.19824,-15.93297 3.05339,-36.5892 -13.7747,-46.30502 -6.31085,-3.64342 -13.1982,-5.21513 -19.83131,-4.9183 z"
         id="path948" />
      <path
         id="path950"
         d="m -172.43046,-245.27168 c -5.87522,0.15304 -11.80389,1.72434 -17.2532,4.87086 -17.43862,10.06909 -23.40129,32.36157 -13.33179,49.8001 l 37.25857,64.52339 -119.13029,206.36403 h -93.00598 c -20.13736,0 -36.45212,16.3146 -36.45212,36.4526 0,20.13803 16.31476,36.45253 36.45212,36.45253 h 331.536531 c 16.01977,-29.79325 -4.6214,-72.90513 -41.2127,-72.90513 H -200.73856 l 156.390421,-270.88742 c 10.06901,-17.43853 4.10682,-39.73101 -13.33163,-49.8001 -17.43854,-10.06901 -39.73103,-4.09095 -49.800191,13.3475 0,0 -8.08248,28.02706 -16.19411,28.07086 -8.09867,0 -16.20948,-28.07086 -16.20948,-28.07086 -6.92298,-11.98897 -19.62079,-18.55577 -32.54691,-18.21836 z m 102.636691,139.57924 c -21.5567,17.81294 -43.355741,70.7194 -12.87302,123.52749 44.946,77.83289 89.8927304,155.68484 134.81907,233.51775 10.06901,17.43845 32.36148,23.40064 49.800019,13.33163 17.43853,-10.06901 23.40064,-32.3457 13.33163,-49.78424 L 79.669611,153.17604 h 52.773179 c 20.13802,0 36.45253,-16.31458 36.45253,-36.4526 0,-20.13801 -16.31451,-36.45252 -36.45253,-36.45252 H 37.571271 C 1.7878114,18.28046 -34.010309,-43.70198 -69.793769,-105.69244 Z m -237.091471,270.4131 c -11.05572,0.49473 -21.40456,6.18857 -27.15428,16.14666 l -26.21986,45.41934 c -9.19906,15.93299 -3.05421,36.57342 13.7739,46.28923 16.8289,9.71581 37.7865,4.72043 46.98557,-11.21247 l 26.22068,-45.41944 c 9.19824,-15.93297 3.05339,-36.5892 -13.7747,-46.30502 -6.31085,-3.64342 -13.1982,-5.21513 -19.83131,-4.9183 z"
         style="opacity:1;fill:none;fill-opacity:1;stroke:#064ead;stroke-width:4;stroke-linecap:round;stroke-linejoin:round;stroke-miterlimit:4;stroke-dasharray:none;stroke-opacity:0.01960784;filter:url(#d);image-rendering:optimizeSpeed"
         inkscape:connector-curvature="0" />
      <path
         inkscape:connector-curvature="0"
         style="opacity:1;fill:none;fill-opacity:1;stroke:#064ead;stroke-width:5;stroke-linecap:round;stroke-linejoin:round;stroke-miterlimit:4;stroke-dasharray:none;stroke-opacity:0.01960784;filter:url(#d);image-rendering:optimizeSpeed"
         d="m -172.43046,-245.27168 c -5.87522,0.15304 -11.80389,1.72434 -17.2532,4.87086 -17.43862,10.06909 -23.40129,32.36157 -13.33179,49.8001 l 37.25857,64.52339 -119.13029,206.36403 h -93.00598 c -20.13736,0 -36.45212,16.3146 -36.45212,36.4526 0,20.13803 16.31476,36.45253 36.45212,36.45253 h 331.536531 c 16.01977,-29.79325 -4.6214,-72.90513 -41.2127,-72.90513 H -200.73856 l 156.390421,-270.88742 c 10.06901,-17.43853 4.10682,-39.73101 -13.33163,-49.8001 -17.43854,-10.06901 -39.73103,-4.09095 -49.800191,13.3475 0,0 -8.08248,28.02706 -16.19411,28.07086 -8.09867,0 -16.20948,-28.07086 -16.20948,-28.07086 -6.92298,-11.98897 -19.62079,-18.55577 -32.54691,-18.21836 z m 102.636691,139.57924 c -21.5567,17.81294 -43.355741,70.7194 -12.87302,123.52749 44.946,77.83289 89.8927304,155.68484 134.81907,233.51775 10.06901,17.43845 32.36148,23.40064 49.800019,13.33163 17.43853,-10.06901 23.40064,-32.3457 13.33163,-49.78424 L 79.669611,153.17604 h 52.773179 c 20.13802,0 36.45253,-16.31458 36.45253,-36.4526 0,-20.13801 -16.31451,-36.45252 -36.45253,-36.45252 H 37.571271 C 1.7878114,18.28046 -34.010309,-43.70198 -69.793769,-105.69244 Z m -237.091471,270.4131 c -11.05572,0.49473 -21.40456,6.18857 -27.15428,16.14666 l -26.21986,45.41934 c -9.19906,15.93299 -3.05421,36.57342 13.7739,46.28923 16.8289,9.71581 37.7865,4.72043 46.98557,-11.21247 l 26.22068,-45.41944 c 9.19824,-15.93297 3.05339,-36.5892 -13.7747,-46.30502 -6.31085,-3.64342 -13.1982,-5.21513 -19.83131,-4.9183 z"
         id="path952" />
      <path
         id="path954"
         d="m -172.43046,-245.27168 c -5.87522,0.15304 -11.80389,1.72434 -17.2532,4.87086 -17.43862,10.06909 -23.40129,32.36157 -13.33179,49.8001 l 37.25857,64.52339 -119.13029,206.36403 h -93.00598 c -20.13736,0 -36.45212,16.3146 -36.45212,36.4526 0,20.13803 16.31476,36.45253 36.45212,36.45253 h 331.536531 c 16.01977,-29.79325 -4.6214,-72.90513 -41.2127,-72.90513 H -200.73856 l 156.390421,-270.88742 c 10.06901,-17.43853 4.10682,-39.73101 -13.33163,-49.8001 -17.43854,-10.06901 -39.73103,-4.09095 -49.800191,13.3475 0,0 -8.08248,28.02706 -16.19411,28.07086 -8.09867,0 -16.20948,-28.07086 -16.20948,-28.07086 -6.92298,-11.98897 -19.62079,-18.55577 -32.54691,-18.21836 z m 102.636691,139.57924 c -21.5567,17.81294 -43.355741,70.7194 -12.87302,123.52749 44.946,77.83289 89.8927304,155.68484 134.81907,233.51775 10.06901,17.43845 32.36148,23.40064 49.800019,13.33163 17.43853,-10.06901 23.40064,-32.3457 13.33163,-49.78424 L 79.669611,153.17604 h 52.773179 c 20.13802,0 36.45253,-16.31458 36.45253,-36.4526 0,-20.13801 -16.31451,-36.45252 -36.45253,-36.45252 H 37.571271 C 1.7878114,18.28046 -34.010309,-43.70198 -69.793769,-105.69244 Z m -237.091471,270.4131 c -11.05572,0.49473 -21.40456,6.18857 -27.15428,16.14666 l -26.21986,45.41934 c -9.19906,15.93299 -3.05421,36.57342 13.7739,46.28923 16.8289,9.71581 37.7865,4.72043 46.98557,-11.21247 l 26.22068,-45.41944 c 9.19824,-15.93297 3.05339,-36.5892 -13.7747,-46.30502 -6.31085,-3.64342 -13.1982,-5.21513 -19.83131,-4.9183 z"
         style="opacity:1;fill:none;fill-opacity:1;stroke:#064ead;stroke-width:8;stroke-linecap:round;stroke-linejoin:round;stroke-miterlimit:4;stroke-dasharray:none;stroke-opacity:0.01960784;filter:url(#d);image-rendering:optimizeSpeed"
         inkscape:connector-curvature="0" />
      <path
         inkscape:connector-curvature="0"
         style="opacity:1;fill:none;fill-opacity:1;stroke:#064ead;stroke-width:11;stroke-linecap:round;stroke-linejoin:round;stroke-miterlimit:4;stroke-dasharray:none;stroke-opacity:0.01960784;filter:url(#d);image-rendering:optimizeSpeed"
         d="m -172.43046,-245.27168 c -5.87522,0.15304 -11.80389,1.72434 -17.2532,4.87086 -17.43862,10.06909 -23.40129,32.36157 -13.33179,49.8001 l 37.25857,64.52339 -119.13029,206.36403 h -93.00598 c -20.13736,0 -36.45212,16.3146 -36.45212,36.4526 0,20.13803 16.31476,36.45253 36.45212,36.45253 h 331.536531 c 16.01977,-29.79325 -4.6214,-72.90513 -41.2127,-72.90513 H -200.73856 l 156.390421,-270.88742 c 10.06901,-17.43853 4.10682,-39.73101 -13.33163,-49.8001 -17.43854,-10.06901 -39.73103,-4.09095 -49.800191,13.3475 0,0 -8.08248,28.02706 -16.19411,28.07086 -8.09867,0 -16.20948,-28.07086 -16.20948,-28.07086 -6.92298,-11.98897 -19.62079,-18.55577 -32.54691,-18.21836 z m 102.636691,139.57924 c -21.5567,17.81294 -43.355741,70.7194 -12.87302,123.52749 44.946,77.83289 89.8927304,155.68484 134.81907,233.51775 10.06901,17.43845 32.36148,23.40064 49.800019,13.33163 17.43853,-10.06901 23.40064,-32.3457 13.33163,-49.78424 L 79.669611,153.17604 h 52.773179 c 20.13802,0 36.45253,-16.31458 36.45253,-36.4526 0,-20.13801 -16.31451,-36.45252 -36.45253,-36.45252 H 37.571271 C 1.7878114,18.28046 -34.010309,-43.70198 -69.793769,-105.69244 Z m -237.091471,270.4131 c -11.05572,0.49473 -21.40456,6.18857 -27.15428,16.14666 l -26.21986,45.41934 c -9.19906,15.93299 -3.05421,36.57342 13.7739,46.28923 16.8289,9.71581 37.7865,4.72043 46.98557,-11.21247 l 26.22068,-45.41944 c 9.19824,-15.93297 3.05339,-36.5892 -13.7747,-46.30502 -6.31085,-3.64342 -13.1982,-5.21513 -19.83131,-4.9183 z"
         id="path956" />
      <path
         id="path958"
         d="m -172.43046,-245.27168 c -5.87522,0.15304 -11.80389,1.72434 -17.2532,4.87086 -17.43862,10.06909 -23.40129,32.36157 -13.33179,49.8001 l 37.25857,64.52339 -119.13029,206.36403 h -93.00598 c -20.13736,0 -36.45212,16.3146 -36.45212,36.4526 0,20.13803 16.31476,36.45253 36.45212,36.45253 h 331.536531 c 16.01977,-29.79325 -4.6214,-72.90513 -41.2127,-72.90513 H -200.73856 l 156.390421,-270.88742 c 10.06901,-17.43853 4.10682,-39.73101 -13.33163,-49.8001 -17.43854,-10.06901 -39.73103,-4.09095 -49.800191,13.3475 0,0 -8.08248,28.02706 -16.19411,28.07086 -8.09867,0 -16.20948,-28.07086 -16.20948,-28.07086 -6.92298,-11.98897 -19.62079,-18.55577 -32.54691,-18.21836 z m 102.636691,139.57924 c -21.5567,17.81294 -43.355741,70.7194 -12.87302,123.52749 44.946,77.83289 89.8927304,155.68484 134.81907,233.51775 10.06901,17.43845 32.36148,23.40064 49.800019,13.33163 17.43853,-10.06901 23.40064,-32.3457 13.33163,-49.78424 L 79.669611,153.17604 h 52.773179 c 20.13802,0 36.45253,-16.31458 36.45253,-36.4526 0,-20.13801 -16.31451,-36.45252 -36.45253,-36.45252 H 37.571271 C 1.7878114,18.28046 -34.010309,-43.70198 -69.793769,-105.69244 Z m -237.091471,270.4131 c -11.05572,0.49473 -21.40456,6.18857 -27.15428,16.14666 l -26.21986,45.41934 c -9.19906,15.93299 -3.05421,36.57342 13.7739,46.28923 16.8289,9.71581 37.7865,4.72043 46.98557,-11.21247 l 26.22068,-45.41944 c 9.19824,-15.93297 3.05339,-36.5892 -13.7747,-46.30502 -6.31085,-3.64342 -13.1982,-5.21513 -19.83131,-4.9183 z"
         style="opacity:1;fill:none;fill-opacity:1;stroke:#064ead;stroke-width:14;stroke-linecap:round;stroke-linejoin:round;stroke-miterlimit:4;stroke-dasharray:none;stroke-opacity:0.01960784;filter:url(#d);image-rendering:optimizeSpeed"
         inkscape:connector-curvature="0" />
      <path
         inkscape:connector-curvature="0"
         style="opacity:1;fill:none;fill-opacity:1;stroke:#064ead;stroke-width:17;stroke-linecap:round;stroke-linejoin:round;stroke-miterlimit:4;stroke-dasharray:none;stroke-opacity:0.01960784;filter:url(#d);image-rendering:optimizeSpeed"
         d="m -172.43046,-245.27168 c -5.87522,0.15304 -11.80389,1.72434 -17.2532,4.87086 -17.43862,10.06909 -23.40129,32.36157 -13.33179,49.8001 l 37.25857,64.52339 -119.13029,206.36403 h -93.00598 c -20.13736,0 -36.45212,16.3146 -36.45212,36.4526 0,20.13803 16.31476,36.45253 36.45212,36.45253 h 331.536531 c 16.01977,-29.79325 -4.6214,-72.90513 -41.2127,-72.90513 H -200.73856 l 156.390421,-270.88742 c 10.06901,-17.43853 4.10682,-39.73101 -13.33163,-49.8001 -17.43854,-10.06901 -39.73103,-4.09095 -49.800191,13.3475 0,0 -8.08248,28.02706 -16.19411,28.07086 -8.09867,0 -16.20948,-28.07086 -16.20948,-28.07086 -6.92298,-11.98897 -19.62079,-18.55577 -32.54691,-18.21836 z m 102.636691,139.57924 c -21.5567,17.81294 -43.355741,70.7194 -12.87302,123.52749 44.946,77.83289 89.8927304,155.68484 134.81907,233.51775 10.06901,17.43845 32.36148,23.40064 49.800019,13.33163 17.43853,-10.06901 23.40064,-32.3457 13.33163,-49.78424 L 79.669611,153.17604 h 52.773179 c 20.13802,0 36.45253,-16.31458 36.45253,-36.4526 0,-20.13801 -16.31451,-36.45252 -36.45253,-36.45252 H 37.571271 C 1.7878114,18.28046 -34.010309,-43.70198 -69.793769,-105.69244 Z m -237.091471,270.4131 c -11.05572,0.49473 -21.40456,6.18857 -27.15428,16.14666 l -26.21986,45.41934 c -9.19906,15.93299 -3.05421,36.57342 13.7739,46.28923 16.8289,9.71581 37.7865,4.72043 46.98557,-11.21247 l 26.22068,-45.41944 c 9.19824,-15.93297 3.05339,-36.5892 -13.7747,-46.30502 -6.31085,-3.64342 -13.1982,-5.21513 -19.83131,-4.9183 z"
         id="path960" />
      <path
         id="path962"
         d="m -172.43046,-245.27168 c -5.87522,0.15304 -11.80389,1.72434 -17.2532,4.87086 -17.43862,10.06909 -23.40129,32.36157 -13.33179,49.8001 l 37.25857,64.52339 -119.13029,206.36403 h -93.00598 c -20.13736,0 -36.45212,16.3146 -36.45212,36.4526 0,20.13803 16.31476,36.45253 36.45212,36.45253 h 331.536531 c 16.01977,-29.79325 -4.6214,-72.90513 -41.2127,-72.90513 H -200.73856 l 156.390421,-270.88742 c 10.06901,-17.43853 4.10682,-39.73101 -13.33163,-49.8001 -17.43854,-10.06901 -39.73103,-4.09095 -49.800191,13.3475 0,0 -8.08248,28.02706 -16.19411,28.07086 -8.09867,0 -16.20948,-28.07086 -16.20948,-28.07086 -6.92298,-11.98897 -19.62079,-18.55577 -32.54691,-18.21836 z m 102.636691,139.57924 c -21.5567,17.81294 -43.355741,70.7194 -12.87302,123.52749 44.946,77.83289 89.8927304,155.68484 134.81907,233.51775 10.06901,17.43845 32.36148,23.40064 49.800019,13.33163 17.43853,-10.06901 23.40064,-32.3457 13.33163,-49.78424 L 79.669611,153.17604 h 52.773179 c 20.13802,0 36.45253,-16.31458 36.45253,-36.4526 0,-20.13801 -16.31451,-36.45252 -36.45253,-36.45252 H 37.571271 C 1.7878114,18.28046 -34.010309,-43.70198 -69.793769,-105.69244 Z m -237.091471,270.4131 c -11.05572,0.49473 -21.40456,6.18857 -27.15428,16.14666 l -26.21986,45.41934 c -9.19906,15.93299 -3.05421,36.57342 13.7739,46.28923 16.8289,9.71581 37.7865,4.72043 46.98557,-11.21247 l 26.22068,-45.41944 c 9.19824,-15.93297 3.05339,-36.5892 -13.7747,-46.30502 -6.31085,-3.64342 -13.1982,-5.21513 -19.83131,-4.9183 z"
         style="opacity:1;fill:none;fill-opacity:1;stroke:#064ead;stroke-width:20;stroke-linecap:round;stroke-linejoin:round;stroke-miterlimit:4;stroke-dasharray:none;stroke-opacity:0.01960784;filter:url(#d);image-rendering:optimizeSpeed"
         inkscape:connector-curvature="0" />
      <path
         inkscape:connector-curvature="0"
         style="opacity:1;fill:none;fill-opacity:1;stroke:#064ead;stroke-width:26;stroke-linecap:round;stroke-linejoin:round;stroke-miterlimit:4;stroke-dasharray:none;stroke-opacity:0.01960784;filter:url(#d);image-rendering:optimizeSpeed"
         d="m -172.43046,-245.27168 c -5.87522,0.15304 -11.80389,1.72434 -17.2532,4.87086 -17.43862,10.06909 -23.40129,32.36157 -13.33179,49.8001 l 37.25857,64.52339 -119.13029,206.36403 h -93.00598 c -20.13736,0 -36.45212,16.3146 -36.45212,36.4526 0,20.13803 16.31476,36.45253 36.45212,36.45253 h 331.536531 c 16.01977,-29.79325 -4.6214,-72.90513 -41.2127,-72.90513 H -200.73856 l 156.390421,-270.88742 c 10.06901,-17.43853 4.10682,-39.73101 -13.33163,-49.8001 -17.43854,-10.06901 -39.73103,-4.09095 -49.800191,13.3475 0,0 -8.08248,28.02706 -16.19411,28.07086 -8.09867,0 -16.20948,-28.07086 -16.20948,-28.07086 -6.92298,-11.98897 -19.62079,-18.55577 -32.54691,-18.21836 z m 102.636691,139.57924 c -21.5567,17.81294 -43.355741,70.7194 -12.87302,123.52749 44.946,77.83289 89.8927304,155.68484 134.81907,233.51775 10.06901,17.43845 32.36148,23.40064 49.800019,13.33163 17.43853,-10.06901 23.40064,-32.3457 13.33163,-49.78424 L 79.669611,153.17604 h 52.773179 c 20.13802,0 36.45253,-16.31458 36.45253,-36.4526 0,-20.13801 -16.31451,-36.45252 -36.45253,-36.45252 H 37.571271 C 1.7878114,18.28046 -34.010309,-43.70198 -69.793769,-105.69244 Z m -237.091471,270.4131 c -11.05572,0.49473 -21.40456,6.18857 -27.15428,16.14666 l -26.21986,45.41934 c -9.19906,15.93299 -3.05421,36.57342 13.7739,46.28923 16.8289,9.71581 37.7865,4.72043 46.98557,-11.21247 l 26.22068,-45.41944 c 9.19824,-15.93297 3.05339,-36.5892 -13.7747,-46.30502 -6.31085,-3.64342 -13.1982,-5.21513 -19.83131,-4.9183 z"
         id="path964" />
      <path
         id="path966"
         d="m -172.43046,-245.27168 c -5.87522,0.15304 -11.80389,1.72434 -17.2532,4.87086 -17.43862,10.06909 -23.40129,32.36157 -13.33179,49.8001 l 37.25857,64.52339 -119.13029,206.36403 h -93.00598 c -20.13736,0 -36.45212,16.3146 -36.45212,36.4526 0,20.13803 16.31476,36.45253 36.45212,36.45253 h 331.536531 c 16.01977,-29.79325 -4.6214,-72.90513 -41.2127,-72.90513 H -200.73856 l 156.390421,-270.88742 c 10.06901,-17.43853 4.10682,-39.73101 -13.33163,-49.8001 -17.43854,-10.06901 -39.73103,-4.09095 -49.800191,13.3475 0,0 -8.08248,28.02706 -16.19411,28.07086 -8.09867,0 -16.20948,-28.07086 -16.20948,-28.07086 -6.92298,-11.98897 -19.62079,-18.55577 -32.54691,-18.21836 z m 102.636691,139.57924 c -21.5567,17.81294 -43.355741,70.7194 -12.87302,123.52749 44.946,77.83289 89.8927304,155.68484 134.81907,233.51775 10.06901,17.43845 32.36148,23.40064 49.800019,13.33163 17.43853,-10.06901 23.40064,-32.3457 13.33163,-49.78424 L 79.669611,153.17604 h 52.773179 c 20.13802,0 36.45253,-16.31458 36.45253,-36.4526 0,-20.13801 -16.31451,-36.45252 -36.45253,-36.45252 H 37.571271 C 1.7878114,18.28046 -34.010309,-43.70198 -69.793769,-105.69244 Z m -237.091471,270.4131 c -11.05572,0.49473 -21.40456,6.18857 -27.15428,16.14666 l -26.21986,45.41934 c -9.19906,15.93299 -3.05421,36.57342 13.7739,46.28923 16.8289,9.71581 37.7865,4.72043 46.98557,-11.21247 l 26.22068,-45.41944 c 9.19824,-15.93297 3.05339,-36.5892 -13.7747,-46.30502 -6.31085,-3.64342 -13.1982,-5.21513 -19.83131,-4.9183 z"
         style="opacity:1;fill:none;fill-opacity:1;stroke:#064ead;stroke-width:32;stroke-linecap:round;stroke-linejoin:round;stroke-miterlimit:4;stroke-dasharray:none;stroke-opacity:0.01960784;filter:url(#d);image-rendering:optimizeSpeed"
         inkscape:connector-curvature="0" />
      <path
         inkscape:connector-curvature="0"
         style="opacity:1;fill:none;fill-opacity:1;stroke:#064ead;stroke-width:38;stroke-linecap:round;stroke-linejoin:round;stroke-miterlimit:4;stroke-dasharray:none;stroke-opacity:0.01960784;filter:url(#d);image-rendering:optimizeSpeed"
         d="m -172.43046,-245.27168 c -5.87522,0.15304 -11.80389,1.72434 -17.2532,4.87086 -17.43862,10.06909 -23.40129,32.36157 -13.33179,49.8001 l 37.25857,64.52339 -119.13029,206.36403 h -93.00598 c -20.13736,0 -36.45212,16.3146 -36.45212,36.4526 0,20.13803 16.31476,36.45253 36.45212,36.45253 h 331.536531 c 16.01977,-29.79325 -4.6214,-72.90513 -41.2127,-72.90513 H -200.73856 l 156.390421,-270.88742 c 10.06901,-17.43853 4.10682,-39.73101 -13.33163,-49.8001 -17.43854,-10.06901 -39.73103,-4.09095 -49.800191,13.3475 0,0 -8.08248,28.02706 -16.19411,28.07086 -8.09867,0 -16.20948,-28.07086 -16.20948,-28.07086 -6.92298,-11.98897 -19.62079,-18.55577 -32.54691,-18.21836 z m 102.636691,139.57924 c -21.5567,17.81294 -43.355741,70.7194 -12.87302,123.52749 44.946,77.83289 89.8927304,155.68484 134.81907,233.51775 10.06901,17.43845 32.36148,23.40064 49.800019,13.33163 17.43853,-10.06901 23.40064,-32.3457 13.33163,-49.78424 L 79.669611,153.17604 h 52.773179 c 20.13802,0 36.45253,-16.31458 36.45253,-36.4526 0,-20.13801 -16.31451,-36.45252 -36.45253,-36.45252 H 37.571271 C 1.7878114,18.28046 -34.010309,-43.70198 -69.793769,-105.69244 Z m -237.091471,270.4131 c -11.05572,0.49473 -21.40456,6.18857 -27.15428,16.14666 l -26.21986,45.41934 c -9.19906,15.93299 -3.05421,36.57342 13.7739,46.28923 16.8289,9.71581 37.7865,4.72043 46.98557,-11.21247 l 26.22068,-45.41944 c 9.19824,-15.93297 3.05339,-36.5892 -13.7747,-46.30502 -6.31085,-3.64342 -13.1982,-5.21513 -19.83131,-4.9183 z"
         id="path968" />
      <path
         id="path970"
         d="m -172.43046,-245.27168 c -5.87522,0.15304 -11.80389,1.72434 -17.2532,4.87086 -17.43862,10.06909 -23.40129,32.36157 -13.33179,49.8001 l 37.25857,64.52339 -119.13029,206.36403 h -93.00598 c -20.13736,0 -36.45212,16.3146 -36.45212,36.4526 0,20.13803 16.31476,36.45253 36.45212,36.45253 h 331.536531 c 16.01977,-29.79325 -4.6214,-72.90513 -41.2127,-72.90513 H -200.73856 l 156.390421,-270.88742 c 10.06901,-17.43853 4.10682,-39.73101 -13.33163,-49.8001 -17.43854,-10.06901 -39.73103,-4.09095 -49.800191,13.3475 0,0 -8.08248,28.02706 -16.19411,28.07086 -8.09867,0 -16.20948,-28.07086 -16.20948,-28.07086 -6.92298,-11.98897 -19.62079,-18.55577 -32.54691,-18.21836 z m 102.636691,139.57924 c -21.5567,17.81294 -43.355741,70.7194 -12.87302,123.52749 44.946,77.83289 89.8927304,155.68484 134.81907,233.51775 10.06901,17.43845 32.36148,23.40064 49.800019,13.33163 17.43853,-10.06901 23.40064,-32.3457 13.33163,-49.78424 L 79.669611,153.17604 h 52.773179 c 20.13802,0 36.45253,-16.31458 36.45253,-36.4526 0,-20.13801 -16.31451,-36.45252 -36.45253,-36.45252 H 37.571271 C 1.7878114,18.28046 -34.010309,-43.70198 -69.793769,-105.69244 Z m -237.091471,270.4131 c -11.05572,0.49473 -21.40456,6.18857 -27.15428,16.14666 l -26.21986,45.41934 c -9.19906,15.93299 -3.05421,36.57342 13.7739,46.28923 16.8289,9.71581 37.7865,4.72043 46.98557,-11.21247 l 26.22068,-45.41944 c 9.19824,-15.93297 3.05339,-36.5892 -13.7747,-46.30502 -6.31085,-3.64342 -13.1982,-5.21513 -19.83131,-4.9183 z"
         style="opacity:1;fill:none;fill-opacity:1;stroke:#064ead;stroke-width:44;stroke-linecap:round;stroke-linejoin:round;stroke-miterlimit:4;stroke-dasharray:none;stroke-opacity:0.01960784;filter:url(#d);image-rendering:optimizeSpeed"
         inkscape:connector-curvature="0" />
      <path
         inkscape:connector-curvature="0"
         style="opacity:1;fill:none;fill-opacity:1;stroke:#064ead;stroke-width:54;stroke-linecap:round;stroke-linejoin:round;stroke-miterlimit:4;stroke-dasharray:none;stroke-opacity:0.01960784;filter:url(#d);image-rendering:optimizeSpeed"
         d="m -172.43046,-245.27168 c -5.87522,0.15304 -11.80389,1.72434 -17.2532,4.87086 -17.43862,10.06909 -23.40129,32.36157 -13.33179,49.8001 l 37.25857,64.52339 -119.13029,206.36403 h -93.00598 c -20.13736,0 -36.45212,16.3146 -36.45212,36.4526 0,20.13803 16.31476,36.45253 36.45212,36.45253 h 331.536531 c 16.01977,-29.79325 -4.6214,-72.90513 -41.2127,-72.90513 H -200.73856 l 156.390421,-270.88742 c 10.06901,-17.43853 4.10682,-39.73101 -13.33163,-49.8001 -17.43854,-10.06901 -39.73103,-4.09095 -49.800191,13.3475 0,0 -8.08248,28.02706 -16.19411,28.07086 -8.09867,0 -16.20948,-28.07086 -16.20948,-28.07086 -6.92298,-11.98897 -19.62079,-18.55577 -32.54691,-18.21836 z m 102.636691,139.57924 c -21.5567,17.81294 -43.355741,70.7194 -12.87302,123.52749 44.946,77.83289 89.8927304,155.68484 134.81907,233.51775 10.06901,17.43845 32.36148,23.40064 49.800019,13.33163 17.43853,-10.06901 23.40064,-32.3457 13.33163,-49.78424 L 79.669611,153.17604 h 52.773179 c 20.13802,0 36.45253,-16.31458 36.45253,-36.4526 0,-20.13801 -16.31451,-36.45252 -36.45253,-36.45252 H 37.571271 C 1.7878114,18.28046 -34.010309,-43.70198 -69.793769,-105.69244 Z m -237.091471,270.4131 c -11.05572,0.49473 -21.40456,6.18857 -27.15428,16.14666 l -26.21986,45.41934 c -9.19906,15.93299 -3.05421,36.57342 13.7739,46.28923 16.8289,9.71581 37.7865,4.72043 46.98557,-11.21247 l 26.22068,-45.41944 c 9.19824,-15.93297 3.05339,-36.5892 -13.7747,-46.30502 -6.31085,-3.64342 -13.1982,-5.21513 -19.83131,-4.9183 z"
         id="path972" />
      <path
         id="path974"
         d="m -172.43046,-245.27168 c -5.87522,0.15304 -11.80389,1.72434 -17.2532,4.87086 -17.43862,10.06909 -23.40129,32.36157 -13.33179,49.8001 l 37.25857,64.52339 -119.13029,206.36403 h -93.00598 c -20.13736,0 -36.45212,16.3146 -36.45212,36.4526 0,20.13803 16.31476,36.45253 36.45212,36.45253 h 331.536531 c 16.01977,-29.79325 -4.6214,-72.90513 -41.2127,-72.90513 H -200.73856 l 156.390421,-270.88742 c 10.06901,-17.43853 4.10682,-39.73101 -13.33163,-49.8001 -17.43854,-10.06901 -39.73103,-4.09095 -49.800191,13.3475 0,0 -8.08248,28.02706 -16.19411,28.07086 -8.09867,0 -16.20948,-28.07086 -16.20948,-28.07086 -6.92298,-11.98897 -19.62079,-18.55577 -32.54691,-18.21836 z m 102.636691,139.57924 c -21.5567,17.81294 -43.355741,70.7194 -12.87302,123.52749 44.946,77.83289 89.8927304,155.68484 134.81907,233.51775 10.06901,17.43845 32.36148,23.40064 49.800019,13.33163 17.43853,-10.06901 23.40064,-32.3457 13.33163,-49.78424 L 79.669611,153.17604 h 52.773179 c 20.13802,0 36.45253,-16.31458 36.45253,-36.4526 0,-20.13801 -16.31451,-36.45252 -36.45253,-36.45252 H 37.571271 C 1.7878114,18.28046 -34.010309,-43.70198 -69.793769,-105.69244 Z m -237.091471,270.4131 c -11.05572,0.49473 -21.40456,6.18857 -27.15428,16.14666 l -26.21986,45.41934 c -9.19906,15.93299 -3.05421,36.57342 13.7739,46.28923 16.8289,9.71581 37.7865,4.72043 46.98557,-11.21247 l 26.22068,-45.41944 c 9.19824,-15.93297 3.05339,-36.5892 -13.7747,-46.30502 -6.31085,-3.64342 -13.1982,-5.21513 -19.83131,-4.9183 z"
         style="opacity:1;fill:none;fill-opacity:1;stroke:#064ead;stroke-width:64;stroke-linecap:round;stroke-linejoin:round;stroke-miterlimit:4;stroke-dasharray:none;stroke-opacity:0.01960784;filter:url(#d);image-rendering:optimizeSpeed"
         inkscape:connector-curvature="0" />
      <path
         inkscape:connector-curvature="0"
         style="opacity:1;fill:none;fill-opacity:1;stroke:#064ead;stroke-width:74;stroke-linecap:round;stroke-linejoin:round;stroke-miterlimit:4;stroke-dasharray:none;stroke-opacity:0.01960784;filter:url(#d);image-rendering:optimizeSpeed"
         d="m -172.43046,-245.27168 c -5.87522,0.15304 -11.80389,1.72434 -17.2532,4.87086 -17.43862,10.06909 -23.40129,32.36157 -13.33179,49.8001 l 37.25857,64.52339 -119.13029,206.36403 h -93.00598 c -20.13736,0 -36.45212,16.3146 -36.45212,36.4526 0,20.13803 16.31476,36.45253 36.45212,36.45253 h 331.536531 c 16.01977,-29.79325 -4.6214,-72.90513 -41.2127,-72.90513 H -200.73856 l 156.390421,-270.88742 c 10.06901,-17.43853 4.10682,-39.73101 -13.33163,-49.8001 -17.43854,-10.06901 -39.73103,-4.09095 -49.800191,13.3475 0,0 -8.08248,28.02706 -16.19411,28.07086 -8.09867,0 -16.20948,-28.07086 -16.20948,-28.07086 -6.92298,-11.98897 -19.62079,-18.55577 -32.54691,-18.21836 z m 102.636691,139.57924 c -21.5567,17.81294 -43.355741,70.7194 -12.87302,123.52749 44.946,77.83289 89.8927304,155.68484 134.81907,233.51775 10.06901,17.43845 32.36148,23.40064 49.800019,13.33163 17.43853,-10.06901 23.40064,-32.3457 13.33163,-49.78424 L 79.669611,153.17604 h 52.773179 c 20.13802,0 36.45253,-16.31458 36.45253,-36.4526 0,-20.13801 -16.31451,-36.45252 -36.45253,-36.45252 H 37.571271 C 1.7878114,18.28046 -34.010309,-43.70198 -69.793769,-105.69244 Z m -237.091471,270.4131 c -11.05572,0.49473 -21.40456,6.18857 -27.15428,16.14666 l -26.21986,45.41934 c -9.19906,15.93299 -3.05421,36.57342 13.7739,46.28923 16.8289,9.71581 37.7865,4.72043 46.98557,-11.21247 l 26.22068,-45.41944 c 9.19824,-15.93297 3.05339,-36.5892 -13.7747,-46.30502 -6.31085,-3.64342 -13.1982,-5.21513 -19.83131,-4.9183 z"
         id="path976" />
      <path
         id="path978"
         d="m -172.43046,-245.27168 c -5.87522,0.15304 -11.80389,1.72434 -17.2532,4.87086 -17.43862,10.06909 -23.40129,32.36157 -13.33179,49.8001 l 37.25857,64.52339 -119.13029,206.36403 h -93.00598 c -20.13736,0 -36.45212,16.3146 -36.45212,36.4526 0,20.13803 16.31476,36.45253 36.45212,36.45253 h 331.536531 c 16.01977,-29.79325 -4.6214,-72.90513 -41.2127,-72.90513 H -200.73856 l 156.390421,-270.88742 c 10.06901,-17.43853 4.10682,-39.73101 -13.33163,-49.8001 -17.43854,-10.06901 -39.73103,-4.09095 -49.800191,13.3475 0,0 -8.08248,28.02706 -16.19411,28.07086 -8.09867,0 -16.20948,-28.07086 -16.20948,-28.07086 -6.92298,-11.98897 -19.62079,-18.55577 -32.54691,-18.21836 z m 102.636691,139.57924 c -21.5567,17.81294 -43.355741,70.7194 -12.87302,123.52749 44.946,77.83289 89.8927304,155.68484 134.81907,233.51775 10.06901,17.43845 32.36148,23.40064 49.800019,13.33163 17.43853,-10.06901 23.40064,-32.3457 13.33163,-49.78424 L 79.669611,153.17604 h 52.773179 c 20.13802,0 36.45253,-16.31458 36.45253,-36.4526 0,-20.13801 -16.31451,-36.45252 -36.45253,-36.45252 H 37.571271 C 1.7878114,18.28046 -34.010309,-43.70198 -69.793769,-105.69244 Z m -237.091471,270.4131 c -11.05572,0.49473 -21.40456,6.18857 -27.15428,16.14666 l -26.21986,45.41934 c -9.19906,15.93299 -3.05421,36.57342 13.7739,46.28923 16.8289,9.71581 37.7865,4.72043 46.98557,-11.21247 l 26.22068,-45.41944 c 9.19824,-15.93297 3.05339,-36.5892 -13.7747,-46.30502 -6.31085,-3.64342 -13.1982,-5.21513 -19.83131,-4.9183 z"
         style="opacity:1;fill:none;fill-opacity:1;stroke:#064ead;stroke-width:90;stroke-linecap:round;stroke-linejoin:round;stroke-miterlimit:4;stroke-dasharray:none;stroke-opacity:0.01960784;filter:url(#d);image-rendering:optimizeSpeed"
         inkscape:connector-curvature="0" />
    </g>
    <path
       id="path868-1"
       d="m -771.99009,-651.90137 c -5.87522,0.15304 -11.80389,1.72434 -17.2532,4.87086 -17.43862,10.06909 -23.40129,32.36157 -13.33179,49.8001 l 37.25857,64.52339 -119.13029,206.36403 h -93.00598 c -20.13736,0 -36.45212,16.3146 -36.45212,36.4526 0,20.13803 16.31476,36.45253 36.45212,36.45253 h 331.53653 c 16.01977,-29.79325 -4.6214,-72.90513 -41.2127,-72.90513 h -113.16924 l 156.39042,-270.88742 c 10.06901,-17.43853 4.10682,-39.73101 -13.33163,-49.8001 -17.43854,-10.06901 -39.73103,-4.09095 -49.80019,13.3475 0,0 -8.08248,28.02706 -16.19411,28.07086 -8.09867,0 -16.20948,-28.07086 -16.20948,-28.07086 -6.92298,-11.98897 -19.62079,-18.55577 -32.54691,-18.21836 z m 102.63669,139.57924 c -21.5567,17.81294 -43.35574,70.7194 -12.87302,123.52749 44.946,77.83289 89.89273,155.68484 134.81907,233.51775 10.06901,17.43845 32.36148,23.40064 49.80002,13.33163 17.43853,-10.06901 23.40064,-32.3457 13.33163,-49.78424 l -35.61432,-61.72415 h 52.77318 c 20.13802,0 36.45253,-16.31458 36.45253,-36.4526 0,-20.13801 -16.31451,-36.45252 -36.45253,-36.45252 h -94.87152 c -35.78346,-61.99046 -71.58158,-123.9729 -107.36504,-185.96336 z m -237.09147,270.4131 c -11.05572,0.49473 -21.40456,6.18857 -27.15428,16.14666 l -26.21986,45.41934 c -9.19906,15.93299 -3.05421,36.57342 13.7739,46.28923 16.8289,9.71581 37.7865,4.72043 46.98557,-11.21247 l 26.22068,-45.41944 c 9.19824,-15.93297 3.05339,-36.5892 -13.7747,-46.30502 -6.31085,-3.64342 -13.1982,-5.21513 -19.83131,-4.9183 z"
       style="opacity:1;fill:#ffffff;fill-opacity:1;stroke-width:1.97045243;filter:url(#d);image-rendering:optimizeSpeed"
       inkscape:connector-curvature="0" />
  </g>
</svg>
