<svg enable-background="new 0 0 1024 1024" height="128" image-rendering="optimizeSpeed" viewBox="0 0 128 128" width="128" xmlns="http://www.w3.org/2000/svg" xmlns:xlink="http://www.w3.org/1999/xlink"><linearGradient id="a"><stop offset="0" stop-color="#fff"/><stop offset="1" stop-color="#d7d7d7"/></linearGradient><linearGradient gradientUnits="userSpaceOnUse" x1="520" x2="520" y1="4" y2="1024"><stop offset="0" stop-color="#f9f9f9"/><stop offset="1" stop-color="#c8c8c8"/></linearGradient><linearGradient id="b" gradientUnits="userSpaceOnUse" x1="520" x2="520" xlink:href="#a" y1="4" y2="1024"/><linearGradient gradientUnits="userSpaceOnUse" x1="520" x2="520" y1="4" y2="1024"><stop offset="0" stop-color="#fff"/><stop offset="1" stop-color="#e6e6e6"/></linearGradient><linearGradient id="c" gradientUnits="userSpaceOnUse" x1="520" x2="520.03137" y1="44" y2="985.85095"><stop offset="0" stop-color="#15c4fc"/><stop offset="1" stop-color="#1863ee"/></linearGradient><filter id="d" color-interpolation-filters="sRGB" height="1.076161" width="1.06827" x="-.034135" y="-.03808"><feGaussianBlur stdDeviation="4.2100112"/></filter><linearGradient id="e" gradientUnits="userSpaceOnUse" x1="-250.45039" x2="-240.58372" xlink:href="#a" y1="308.69714" y2="792.16382"/><path d="m986.739 315.98644q-9.3288-22.61695-21.0441-44.31186c-4.3932-8.18983-9.0576-16.32543-13.9932-24.29831-21.20678-34.38644-47.07797-66.87458-77.61356-97.41017-99.95933-99.95932-220.69153-149.9661-362.08814-149.9661s-262.07458 50.00678-362.0339 149.9661-149.9661 220.63729-149.9661 362.0339 50.00678 262.12881 149.9661 362.08814c99.95932 99.95932 220.63729 149.91186 362.0339 149.91186s262.12881-49.95254 362.08814-149.91186c55.05084-55.10509 94.96946-116.5017 119.70166-184.1356 20.1221-55.15932 30.2102-114.44068 30.2102-177.95254 0-48.70508-5.9119-94.96949-17.7898-138.79322-1.356-4.93559-2.7661-9.87119-4.2305-14.75254-4.4475-14.42712-9.5458-28.58305-15.2407-42.4678z" fill="url(#b)" stroke-width="1.084746" transform="matrix(.11958582598 0 0 .11958582598 2.00000058 3.54410774)"/><path d="m969.7 392c-1.1-4.35-2.35-9-3.65-13.6-2.5-8.75-5.35-17.6-8.45-26.35-6.45-18.25-14.15-36.05-23.15-53.65-3.8-7.4-7.95-14.95-12.3-22.4h-.025q-30.601-52.01-76.325-97.75c-92.15-92.15-203.45-138.25-333.8-138.25s-241.6 46.1-333.75 138.25-138.25 203.4-138.25 333.75 46.1 241.65 138.25 333.8c68.05 68.05 146.5 110.95 234.9 128.65 31.95 6.4 64.75 9.55 98.85 9.55 130.35 0 241.65-46.05 333.8-138.2 48.6-48.6 84.4-102.5 107.35-161.8 17-43.95 27-90.8 29.95-140.75.6-10.2.9-20.65.9-31.25 0-41.75-4.7-81.6-14.3-120z" fill="url(#c)" transform="matrix(.11958582598 0 0 .11958582598 2.00000058 3.54410774)"/><g filter="url(#d)" opacity=".2" transform="matrix(.24335430081 0 0 .24335430081 122.73546522286 -67.73691113215)"><path d="m-268.22656 400.01367c-2.98181.0778-5.98828.87969-8.75391 2.47656-8.85 5.11-11.87953 16.41954-6.76953 25.26954l18.91016 32.75-60.46094 104.73046h-47.19922c-10.22 0-18.5 8.28-18.5 18.5s8.28 18.5 18.5 18.5h168.25977c8.13-15.12-2.34993-37-20.91993-37h-57.42968l79.36914-137.48046c5.11-8.85 2.08047-20.15954-6.76953-25.26954s-20.15954-2.08046-25.26954 6.76954c0 0-4.10393 14.22779-8.2207 14.25-4.11 0-8.23047-14.25-8.23047-14.25-3.51312-6.08438-9.95564-9.41733-16.51562-9.2461zm52.08594 70.83594c-10.94 9.04-21.9993 35.88945-6.5293 62.68945 22.81 39.5 45.61992 79.01172 68.41992 118.51172 5.11 8.85 16.41953 11.87953 25.26953 6.76953s11.87953-16.41953 6.76953-25.26953l-18.07812-31.32031h26.78906c10.22 0 18.5-8.28 18.5-18.5s-8.28-18.5-18.5-18.5h-48.15039c-18.16-31.46-36.33023-62.92086-54.49023-94.38086zm-136.82422 150.51172c.009.0641.0128.12236.0215.18555.003-.00073.007-.001.01-.002-.0127-.0594-.0396-.2453-.0312-.18359z"/><rect height="60.323429" opacity="1" rx="17.800562" ry="16.853487" transform="matrix(.8660254 .5 -.5 .8660254 0 0)" width="35.601124" x="4.824857" y="691.98077"/></g><g fill="url(#e)" transform="matrix(.24335430081 0 0 .24335430081 122.73546522286 -68.93745903215)"><path d="m-268.22656 400.01367c-2.98181.0778-5.98828.87969-8.75391 2.47656-8.85 5.11-11.87953 16.41954-6.76953 25.26954l18.91016 32.75-60.46094 104.73046h-47.19922c-10.22 0-18.5 8.28-18.5 18.5s8.28 18.5 18.5 18.5h168.25977c8.13-15.12-2.34993-37-20.91993-37h-57.42968l79.36914-137.48046c5.11-8.85 2.08047-20.15954-6.76953-25.26954s-20.15954-2.08046-25.26954 6.76954c0 0-4.10393 14.22779-8.2207 14.25-4.11 0-8.23047-14.25-8.23047-14.25-3.51312-6.08438-9.95564-9.41733-16.51562-9.2461zm52.08594 70.83594c-10.94 9.04-21.9993 35.88945-6.5293 62.68945 22.81 39.5 45.61992 79.01172 68.41992 118.51172 5.11 8.85 16.41953 11.87953 25.26953 6.76953s11.87953-16.41953 6.76953-25.26953l-18.07812-31.32031h26.78906c10.22 0 18.5-8.28 18.5-18.5s-8.28-18.5-18.5-18.5h-48.15039c-18.16-31.46-36.33023-62.92086-54.49023-94.38086zm-136.82422 150.51172c.009.0641.0128.12236.0215.18555.003-.00073.007-.001.01-.002-.0127-.0594-.0396-.2453-.0312-.18359z"/><rect height="60.323429" rx="17.800562" ry="16.853487" transform="matrix(.8660254 .5 -.5 .8660254 0 0)" width="35.601124" x="4.824857" y="691.98077"/></g></svg>