<?xml version="1.0" encoding="UTF-8" standalone="no"?>
<!-- Generator: flash2svg, http://dissentgraphics.com/tools/flash2svg -->

<svg
   xmlns:dc="http://purl.org/dc/elements/1.1/"
   xmlns:cc="http://creativecommons.org/ns#"
   xmlns:rdf="http://www.w3.org/1999/02/22-rdf-syntax-ns#"
   xmlns:svg="http://www.w3.org/2000/svg"
   xmlns="http://www.w3.org/2000/svg"
   xmlns:xlink="http://www.w3.org/1999/xlink"
   xmlns:sodipodi="http://sodipodi.sourceforge.net/DTD/sodipodi-0.dtd"
   xmlns:inkscape="http://www.inkscape.org/namespaces/inkscape"
   id="App-Store"
   version="1.1"
   style="image-rendering:optimizeSpeed"
   x="0px"
   y="0px"
   width="128"
   height="128"
   viewBox="0 0 128 128"
   enable-background="new 0 0 1024 1024"
   sodipodi:docname="softwarecenter.svg"
   inkscape:export-filename="/home/unc/OSX/software-store.png"
   inkscape:export-xdpi="4.5"
   inkscape:export-ydpi="4.5"
   inkscape:version="0.92.3 (2405546, 2018-03-11)">
  <metadata
     id="metadata26">
    <rdf:RDF>
      <cc:Work
         rdf:about="">
        <dc:format>image/svg+xml</dc:format>
        <dc:type
           rdf:resource="http://purl.org/dc/dcmitype/StillImage" />
        <dc:title></dc:title>
      </cc:Work>
    </rdf:RDF>
  </metadata>
  <sodipodi:namedview
     pagecolor="#ffffff"
     bordercolor="#666666"
     borderopacity="1"
     objecttolerance="10"
     gridtolerance="10"
     guidetolerance="10"
     inkscape:pageopacity="0"
     inkscape:pageshadow="2"
     inkscape:window-width="1360"
     inkscape:window-height="716"
     id="namedview24"
     showgrid="true"
     inkscape:pagecheckerboard="true"
     inkscape:zoom="1.1035156"
     inkscape:cx="71.913479"
     inkscape:cy="118.56459"
     inkscape:window-x="0"
     inkscape:window-y="24"
     inkscape:window-maximized="1"
     inkscape:current-layer="App-Store">
    <inkscape:grid
       type="xygrid"
       id="grid843" />
  </sodipodi:namedview>
  <defs
     transform="matrix(1 0 0 1 0 0) "
     id="defs2">
    <linearGradient
       inkscape:collect="always"
       id="linearGradient904">
      <stop
         style="stop-color:#ffffff;stop-opacity:1"
         offset="0"
         id="stop900" />
      <stop
         style="stop-color:#d7d7d7;stop-opacity:1"
         offset="1"
         id="stop902" />
    </linearGradient>
    <linearGradient
       id="linearGradient868">
      <stop
         id="stop864"
         offset="0"
         style="stop-color:#ffffff;stop-opacity:1" />
      <stop
         id="stop866"
         offset="1"
         style="stop-color:#d7d7d7;stop-opacity:1" />
    </linearGradient>
    <linearGradient
       id="linearGradient863">
      <stop
         id="stop858"
         offset="0"
         style="stop-color:#f9f9f9;stop-opacity:1" />
      <stop
         id="stop861"
         offset="1"
         style="stop-color:#c8c8c8;stop-opacity:1" />
    </linearGradient>
    <linearGradient
       id="linearGradient864"
       inkscape:collect="always">
      <stop
         style="stop-color:#15c4fc;stop-opacity:1"
         offset="0"
         id="stop860" />
      <stop
         style="stop-color:#1863ee;stop-opacity:1"
         offset="1"
         id="stop862" />
    </linearGradient>
    <linearGradient
       id="linearGradient4829">
      <stop
         style="stop-color:#ffffff;stop-opacity:1"
         offset="0"
         id="stop4831" />
      <stop
         style="stop-color:#e6e6e6;stop-opacity:1"
         offset="1"
         id="stop4833" />
    </linearGradient>
    <linearGradient
       inkscape:collect="always"
       xlink:href="#linearGradient863"
       id="linearGradient857"
       x1="520"
       y1="4"
       x2="520"
       y2="1024"
       gradientUnits="userSpaceOnUse" />
    <linearGradient
       inkscape:collect="always"
       xlink:href="#linearGradient868"
       id="linearGradient889"
       gradientUnits="userSpaceOnUse"
       x1="520"
       y1="4"
       x2="520"
       y2="1024" />
    <linearGradient
       inkscape:collect="always"
       xlink:href="#linearGradient4829"
       id="linearGradient891"
       gradientUnits="userSpaceOnUse"
       x1="520"
       y1="4"
       x2="520"
       y2="1024" />
    <linearGradient
       inkscape:collect="always"
       xlink:href="#linearGradient864"
       id="linearGradient866"
       gradientUnits="userSpaceOnUse"
       x1="520"
       y1="44"
       x2="520.03137"
       y2="985.85095" />
    <filter
       inkscape:collect="always"
       style="color-interpolation-filters:sRGB"
       id="filter896"
       x="-0.034135226"
       width="1.0682704"
       y="-0.03808029"
       height="1.0761606">
      <feGaussianBlur
         inkscape:collect="always"
         stdDeviation="4.2100112"
         id="feGaussianBlur898" />
    </filter>
    <linearGradient
       inkscape:collect="always"
       xlink:href="#linearGradient904"
       id="linearGradient906"
       x1="-250.45039"
       y1="308.69714"
       x2="-240.58372"
       y2="792.16382"
       gradientUnits="userSpaceOnUse" />
    <linearGradient
       inkscape:collect="always"
       xlink:href="#linearGradient904"
       id="linearGradient846"
       gradientUnits="userSpaceOnUse"
       x1="-250.45039"
       y1="308.69714"
       x2="-240.58372"
       y2="792.16382" />
    <linearGradient
       inkscape:collect="always"
       xlink:href="#linearGradient904"
       id="linearGradient848"
       gradientUnits="userSpaceOnUse"
       x1="-250.45039"
       y1="308.69714"
       x2="-240.58372"
       y2="792.16382" />
    <linearGradient
       inkscape:collect="always"
       xlink:href="#linearGradient864"
       id="linearGradient849"
       gradientUnits="userSpaceOnUse"
       x1="520"
       y1="44"
       x2="520.03137"
       y2="985.85095" />
    <linearGradient
       inkscape:collect="always"
       xlink:href="#linearGradient864"
       id="linearGradient851"
       gradientUnits="userSpaceOnUse"
       x1="520"
       y1="44"
       x2="520.03137"
       y2="985.85095" />
  </defs>
  <g
     id="g865"
     transform="matrix(0.12005479,0,0,0.12005479,1.7598905,110.87309)">
    <g
       transform="matrix(0.99609375,0,0,0.99609375,2,-894)"
       style="fill:url(#linearGradient857);fill-opacity:1"
       id="shadow">
      <g
         style="fill:url(#linearGradient891);fill-opacity:1"
         id="shape">
        <path
           inkscape:connector-curvature="0"
           style="fill:url(#linearGradient889);fill-opacity:1;stroke-width:1.08474576"
           d="m 986.739,315.98644 q -9.3288,-22.61695 -21.0441,-44.31186 c -4.3932,-8.18983 -9.0576,-16.32543 -13.9932,-24.29831 C 930.49492,212.98983 904.62373,180.50169 874.08814,149.9661 774.12881,50.00678 653.39661,0 512,0 370.60339,0 249.92542,50.00678 149.9661,149.9661 50.00678,249.92542 0,370.60339 0,512 0,653.39661 50.00678,774.12881 149.9661,874.08814 249.92542,974.04746 370.60339,1024 512,1024 653.39661,1024 774.12881,974.04746 874.08814,874.08814 929.13898,818.98305 969.0576,757.58644 993.7898,689.95254 1013.9119,634.79322 1024,575.51186 1024,512 c 0,-48.70508 -5.9119,-94.96949 -17.7898,-138.79322 -1.356,-4.93559 -2.7661,-9.87119 -4.2305,-14.75254 -4.4475,-14.42712 -9.5458,-28.58305 -15.2407,-42.4678 z"
           id="path" />
      </g>
    </g>
    <g
       transform="matrix(0.99609375,0,0,0.99609375,2,-894)"
       style="fill:url(#linearGradient866);fill-opacity:1"
       id="circle">
      <g
         style="fill:url(#linearGradient851);fill-opacity:1"
         id="shape2">
        <path
           inkscape:connector-curvature="0"
           style="fill:url(#linearGradient849);fill-opacity:1"
           d="m 969.7,392 c -1.1,-4.35 -2.35,-9 -3.65,-13.6 -2.5,-8.75 -5.35,-17.6 -8.45,-26.35 C 951.15,333.8 943.45,316 934.45,298.4 930.65,291 926.5,283.45 922.15,276 h -0.025 Q 891.524,223.99 845.8,178.25 C 753.65,86.1 642.35,40 512,40 381.65,40 270.4,86.1 178.25,178.25 86.1,270.4 40,381.65 40,512 c 0,130.35 46.1,241.65 138.25,333.8 68.05,68.05 146.5,110.95 234.9,128.65 31.95,6.4 64.75,9.55 98.85,9.55 130.35,0 241.65,-46.05 333.8,-138.2 48.6,-48.6 84.4,-102.5 107.35,-161.8 17,-43.95 27,-90.8 29.95,-140.75 0.6,-10.2 0.9,-20.65 0.9,-31.25 0,-41.75 -4.7,-81.6 -14.3,-120 z"
           id="path1" />
      </g>
    </g>
    <g
       style="opacity:0.2;fill:#000000;fill-opacity:1;filter:url(#filter896)"
       id="g882"
       transform="matrix(2.027027,0,0,2.027027,1007.6697,-1487.7374)">
      <path
         style="fill:#000000;fill-opacity:1"
         d="m -268.22656,400.01367 c -2.98181,0.0778 -5.98828,0.87969 -8.75391,2.47656 -8.85,5.11 -11.87953,16.41954 -6.76953,25.26954 l 18.91016,32.75 -60.46094,104.73046 H -372.5 c -10.22,0 -18.5,8.28 -18.5,18.5 0,10.22 8.28,18.5 18.5,18.5 h 168.25977 c 8.13,-15.12 -2.34993,-37 -20.91993,-37 h -57.42968 l 79.36914,-137.48046 c 5.11,-8.85 2.08047,-20.15954 -6.76953,-25.26954 -8.85,-5.11 -20.15954,-2.08046 -25.26954,6.76954 0,0 -4.10393,14.22779 -8.2207,14.25 -4.11,0 -8.23047,-14.25 -8.23047,-14.25 -3.51312,-6.08438 -9.95564,-9.41733 -16.51562,-9.2461 z m 52.08594,70.83594 c -10.94,9.04 -21.9993,35.88945 -6.5293,62.68945 22.81,39.5 45.61992,79.01172 68.41992,118.51172 5.11,8.85 16.41953,11.87953 25.26953,6.76953 8.85,-5.11 11.87953,-16.41953 6.76953,-25.26953 l -18.07812,-31.32031 H -113.5 c 10.22,0 18.5,-8.28 18.5,-18.5 0,-10.22 -8.28,-18.5 -18.5,-18.5 h -48.15039 c -18.16,-31.46 -36.33023,-62.92086 -54.49023,-94.38086 z m -136.82422,150.51172 c 0.009,0.0641 0.0128,0.12236 0.0215,0.18555 0.003,-7.3e-4 0.007,-10e-4 0.01,-0.002 -0.0127,-0.0594 -0.0396,-0.2453 -0.0312,-0.18359 z"
         id="path878"
         inkscape:connector-curvature="0" />
      <rect
         ry="16.853487"
         transform="rotate(30)"
         rx="17.800562"
         y="691.98077"
         x="4.8248568"
         height="60.323429"
         width="35.601124"
         id="rect880"
         style="opacity:1;fill:#000000;fill-opacity:1;stroke:none;stroke-width:0.83700001;stroke-linecap:square;stroke-linejoin:miter;stroke-miterlimit:4;stroke-dasharray:none;stroke-opacity:1;paint-order:stroke markers fill" />
    </g>
    <g
       style="fill:url(#linearGradient906);fill-opacity:1"
       transform="matrix(2.027027,0,0,2.027027,1007.6697,-1497.7374)"
       id="g876">
      <path
         inkscape:connector-curvature="0"
         id="shape-3"
         d="m -268.22656,400.01367 c -2.98181,0.0778 -5.98828,0.87969 -8.75391,2.47656 -8.85,5.11 -11.87953,16.41954 -6.76953,25.26954 l 18.91016,32.75 -60.46094,104.73046 H -372.5 c -10.22,0 -18.5,8.28 -18.5,18.5 0,10.22 8.28,18.5 18.5,18.5 h 168.25977 c 8.13,-15.12 -2.34993,-37 -20.91993,-37 h -57.42968 l 79.36914,-137.48046 c 5.11,-8.85 2.08047,-20.15954 -6.76953,-25.26954 -8.85,-5.11 -20.15954,-2.08046 -25.26954,6.76954 0,0 -4.10393,14.22779 -8.2207,14.25 -4.11,0 -8.23047,-14.25 -8.23047,-14.25 -3.51312,-6.08438 -9.95564,-9.41733 -16.51562,-9.2461 z m 52.08594,70.83594 c -10.94,9.04 -21.9993,35.88945 -6.5293,62.68945 22.81,39.5 45.61992,79.01172 68.41992,118.51172 5.11,8.85 16.41953,11.87953 25.26953,6.76953 8.85,-5.11 11.87953,-16.41953 6.76953,-25.26953 l -18.07812,-31.32031 H -113.5 c 10.22,0 18.5,-8.28 18.5,-18.5 0,-10.22 -8.28,-18.5 -18.5,-18.5 h -48.15039 c -18.16,-31.46 -36.33023,-62.92086 -54.49023,-94.38086 z m -136.82422,150.51172 c 0.009,0.0641 0.0128,0.12236 0.0215,0.18555 0.003,-7.3e-4 0.007,-10e-4 0.01,-0.002 -0.0127,-0.0594 -0.0396,-0.2453 -0.0312,-0.18359 z"
         style="fill:url(#linearGradient846);fill-opacity:1" />
      <rect
         style="opacity:1;fill:url(#linearGradient848);fill-opacity:1;stroke:none;stroke-width:0.83700001;stroke-linecap:square;stroke-linejoin:miter;stroke-miterlimit:4;stroke-dasharray:none;stroke-opacity:1;paint-order:stroke markers fill"
         id="rect830"
         width="35.601124"
         height="60.323429"
         x="4.8248568"
         y="691.98077"
         rx="17.800562"
         transform="rotate(30)"
         ry="16.853487" />
    </g>
  </g>
</svg>
