<?xml version="1.0" encoding="UTF-8" standalone="no"?>
<!-- Created with Inkscape (http://www.inkscape.org/) -->

<svg
   xmlns:dc="http://purl.org/dc/elements/1.1/"
   xmlns:cc="http://creativecommons.org/ns#"
   xmlns:rdf="http://www.w3.org/1999/02/22-rdf-syntax-ns#"
   xmlns:svg="http://www.w3.org/2000/svg"
   xmlns="http://www.w3.org/2000/svg"
   xmlns:xlink="http://www.w3.org/1999/xlink"
   xmlns:sodipodi="http://sodipodi.sourceforge.net/DTD/sodipodi-0.dtd"
   xmlns:inkscape="http://www.inkscape.org/namespaces/inkscape"
   version="1.1"
   id="svg2"
   width="136.53333"
   height="136.53333"
   viewBox="0 0 136.53333 136.53333"
   sodipodi:docname="spotify.svg"
   inkscape:version="0.92.3 (2405546, 2018-03-11)">
  <metadata
     id="metadata8">
    <rdf:RDF>
      <cc:Work
         rdf:about="">
        <dc:format>image/svg+xml</dc:format>
        <dc:type
           rdf:resource="http://purl.org/dc/dcmitype/StillImage" />
        <dc:title />
      </cc:Work>
    </rdf:RDF>
  </metadata>
  <defs
     id="defs6">
    <linearGradient
       inkscape:collect="always"
       id="linearGradient821">
      <stop
         style="stop-color:#79dc56;stop-opacity:1"
         offset="0"
         id="stop817" />
      <stop
         style="stop-color:#35b630;stop-opacity:1"
         offset="1"
         id="stop819" />
    </linearGradient>
    <linearGradient
       inkscape:collect="always"
       xlink:href="#linearGradient821"
       id="linearGradient823"
       x1="68.462769"
       y1="23.819031"
       x2="68.286613"
       y2="121.01225"
       gradientUnits="userSpaceOnUse" />
  </defs>
  <sodipodi:namedview
     pagecolor="#ffffff"
     bordercolor="#666666"
     borderopacity="1"
     objecttolerance="10"
     gridtolerance="10"
     guidetolerance="10"
     inkscape:pageopacity="0"
     inkscape:pageshadow="2"
     inkscape:window-width="1360"
     inkscape:window-height="718"
     id="namedview4"
     showgrid="false"
     inkscape:zoom="1.7285157"
     inkscape:cx="-1.1517757"
     inkscape:cy="76.679663"
     inkscape:window-x="0"
     inkscape:window-y="26"
     inkscape:window-maximized="1"
     inkscape:current-layer="svg2"
     showguides="false" />
  <circle
     id="path12"
     cx="68.953224"
     cy="68.365921"
     r="64.021523"
     style="fill:url(#linearGradient823);fill-opacity:1;stroke:#eeeeee;stroke-width:6;stroke-miterlimit:4;stroke-dasharray:none;stroke-opacity:1" />
  <path
     style="fill:#000000;stroke-width:1.33333337"
     d=""
     id="path849"
     inkscape:connector-curvature="0" />
  <path
     style="fill:#000000;stroke-width:1.33333337"
     d=""
     id="path847"
     inkscape:connector-curvature="0" />
  <path
     style="fill:#000000;stroke-width:0.8056497"
     d=""
     id="path916"
     inkscape:connector-curvature="0" />
  <path
     style="fill:#000000;stroke-width:0.8056497"
     d=""
     id="path914"
     inkscape:connector-curvature="0" />
  <path
     style="fill:#272727;stroke-width:0.93604708;fill-opacity:1"
     d="M 88.070348,95.99196 C 76.279338,90.251603 63.516523,88.823856 47.392879,91.441469 38.683195,92.855458 38.46856,92.84583 36.949074,90.9731 c -2.103486,-2.592565 -1.184522,-5.341951 2.177338,-6.51389 5.156731,-1.797651 18.979103,-3.139165 26.987407,-2.619233 10.173803,0.660526 18.89205,2.869054 26.369242,6.679906 4.951457,2.523574 5.976007,3.461134 6.238707,5.708942 0.20686,1.769743 -0.2546,3.105416 -1.34899,3.905714 -2.08275,1.522948 -1.495376,1.65823 -9.30243,-2.142579 z m 5.37249,-16.480809 c -12.526184,-6.024857 -28.55716,-8.38815 -42.817182,-6.312133 -15.680052,2.28275 -18.813329,1.449758 -16.755008,-4.4544 1.423353,-4.08286 10.366488,-6.10404 27.094912,-6.123555 11.103718,-0.0131 14.493472,0.35083 22.200181,2.382646 5.002564,1.318862 12.16332,4.005309 15.912797,5.96987 5.727722,3.001066 6.865482,3.992386 7.118932,6.20267 0.68111,5.940023 -3.62162,6.727691 -12.754632,2.334902 z m 8.788412,-17.74038 C 85.885427,53.338471 56.047803,51.132082 35.544816,56.83954 c -4.872968,1.3565 -8.196263,-7.524278 -3.830727,-10.236869 5.643569,-3.506721 25.016607,-5.57254 40.45675,-4.314053 19.087357,1.555762 40.855831,8.984835 42.216891,14.407636 0.81754,3.257369 -0.21716,5.703218 -2.93764,6.942671 -3.06495,1.396474 -2.77759,1.454716 -9.21884,-1.868154 z"
     id="path1022-3"
     inkscape:connector-curvature="0"
     sodipodi:nodetypes="csccssccccscccccccscsccc" />
</svg>
