<?xml version="1.0" encoding="UTF-8" standalone="no"?>
<!-- Created with Inkscape (http://www.inkscape.org/) -->

<svg
   xmlns:osb="http://www.openswatchbook.org/uri/2009/osb"
   xmlns:dc="http://purl.org/dc/elements/1.1/"
   xmlns:cc="http://creativecommons.org/ns#"
   xmlns:rdf="http://www.w3.org/1999/02/22-rdf-syntax-ns#"
   xmlns:svg="http://www.w3.org/2000/svg"
   xmlns="http://www.w3.org/2000/svg"
   xmlns:sodipodi="http://sodipodi.sourceforge.net/DTD/sodipodi-0.dtd"
   xmlns:inkscape="http://www.inkscape.org/namespaces/inkscape"
   width="128"
   height="128"
   viewBox="0 0 33.866666 33.866668"
   version="1.1"
   id="svg8"
   sodipodi:docname="system-users.svg"
   inkscape:version="0.92.2 5c3e80d, 2017-08-06">
  <defs
     id="defs2">
    <linearGradient
       id="linearGradient6987"
       osb:paint="solid">
      <stop
         style="stop-color:#77d2fb;stop-opacity:1;"
         offset="0"
         id="stop6985" />
    </linearGradient>
  </defs>
  <sodipodi:namedview
     id="base"
     pagecolor="#ffffff"
     bordercolor="#666666"
     borderopacity="1.0"
     inkscape:pageopacity="0.0"
     inkscape:pageshadow="2"
     inkscape:zoom="4"
     inkscape:cx="37.557067"
     inkscape:cy="55.185657"
     inkscape:document-units="mm"
     inkscape:current-layer="layer1"
     showgrid="false"
     inkscape:window-width="1600"
     inkscape:window-height="814"
     inkscape:window-x="0"
     inkscape:window-y="0"
     inkscape:window-maximized="1"
     units="px" />
  <metadata
     id="metadata5">
    <rdf:RDF>
      <cc:Work
         rdf:about="">
        <dc:format>image/svg+xml</dc:format>
        <dc:type
           rdf:resource="http://purl.org/dc/dcmitype/StillImage" />
        <dc:title />
      </cc:Work>
    </rdf:RDF>
  </metadata>
  <g
     inkscape:label="Layer 1"
     inkscape:groupmode="layer"
     id="layer1"
     transform="translate(0,-263.13332)">
    <g
       id="g829"
       transform="translate(0,-0.26458359)">
      <g
         id="g821"
         transform="matrix(0.19247259,0,0,0.19247259,-0.25030184,248.99694)"
         style="opacity:0.25;fill:#000000;stroke-width:5.1955452">
        <path
           inkscape:connector-curvature="0"
           style="opacity:1;fill:#000000;fill-opacity:1;stroke-width:5.1955452"
           d="m 119.25818,105.62782 c -1.82816,-0.0282 -3.36323,0.25171 -5.37022,0.95498 -0.97014,0.33995 -2.67636,0.92332 -3.79202,1.29604 -3.80457,1.27102 -5.50577,2.24759 -7.99073,4.58939 -1.19685,1.1279 -1.67467,1.44993 -2.768831,1.865 -1.71176,0.64935 -2.86972,1.76984 -3.77548,3.65301 -1.45758,3.03041 -1.97644,5.39968 -1.81487,8.2889 0.31272,5.59254 0.87485,11.16089 1.36529,13.52682 0.45564,2.198 0.46928,2.11583 -0.3297,2.00866 -0.59418,-0.0797 -0.72998,-0.0239 -1.1467,0.47129 -0.42482,0.50487 -0.47232,0.70182 -0.47232,1.94768 0,1.7575 0.31006,3.20548 1.3038,6.08335 0.45,1.30323 0.87701,2.94044 0.98908,3.79254 0.30352,2.30774 0.81278,3.13504 2.6448,4.29638 0.75661,0.47962 1.02606,1.35819 1.6831,5.4932 0.944071,5.9413 1.465741,7.41693 3.449921,9.75393 l 1.09296,1.28778 -0.11317,1.62263 c -0.16805,2.40624 -1.50515,10.15223 -1.87792,10.87893 -0.94465,1.84151 -2.951531,2.6282 -9.481081,3.71553 -7.51999,1.25226 -9.59476,1.90726 -16.62483,5.24878 -4.55707,2.16605 -6.4089,3.33101 -8.33541,5.24412 -3.48349,3.45928 -5.4337,7.32003 -6.28747,12.44627 -0.42943,2.57843 -0.72274,5.55921 -0.72295,7.34891 v 1.27899 h 65.369151 21.06124 0.77205 27.79572 v -1.27899 c -2.1e-4,-1.7897 -0.29352,-4.77048 -0.72295,-7.34891 -0.85377,-5.12624 -2.80397,-8.98699 -6.28747,-12.44627 -1.92651,-1.91311 -3.77834,-3.07807 -8.33541,-5.24412 -7.03006,-3.34153 -9.10484,-3.99652 -16.62483,-5.24878 -2.93189,-0.48823 -4.94662,-0.9164 -6.36808,-1.40611 -1.77936,-0.79491 -2.77807,-1.79321 -3.28559,-3.14968 -0.0824,-0.22034 -0.16958,-0.51674 -0.2589,-0.8692 -0.14807,-0.71453 -0.31186,-1.57022 -0.47749,-2.50372 -0.0103,0.008 -0.0207,0.0153 -0.031,0.0233 -0.44015,-2.52451 -0.81648,-5.67005 -0.81648,-7.34167 0,-1.04467 0.0311,-1.12254 0.71623,-1.78955 1.40619,-1.36904 2.49191,-3.42139 2.99362,-5.66012 0.097,-0.4328 0.33522,-1.87429 0.52968,-3.20343 0.36806,-2.51564 1.09281,-5.80232 1.41025,-6.39547 0.10111,-0.18892 0.57664,-0.54218 1.05678,-0.78548 1.02337,-0.51858 1.86285,-1.79274 2.03244,-3.08457 0.21126,-1.60929 0.48297,-2.77041 0.99063,-4.23385 0.84243,-2.4285 1.20462,-4.18757 1.20562,-5.86166 0.002,-2.47772 -0.71598,-3.65032 -1.94924,-3.18481 -0.2857,0.1078 -0.51935,0.12989 -0.51935,0.0491 0,-0.0808 0.19782,-0.96672 0.43925,-1.96887 1.58705,-6.58776 2.01501,-12.94457 1.2268,-18.22163 -0.33729,-2.25816 -0.69895,-3.31382 -1.66863,-4.8705 -0.3876,-0.62223 -0.98817,-1.67692 -1.33429,-2.34353 -1.24687,-2.40134 -3.02546,-3.65663 -7.00887,-4.9475 -1.31858,-0.4273 -3.50367,-1.21978 -4.85552,-1.76062 -3.02166,-1.2089 -5.56022,-1.84887 -7.87704,-1.98592 -0.27537,-0.0163 -0.5424,-0.0265 -0.80356,-0.0305 z"
           id="path817" />
        <path
           inkscape:connector-curvature="0"
           id="path819"
           d="m 61.049839,105.62782 c -1.82815,-0.0282 -3.36323,0.25171 -5.37021,0.95498 -0.97014,0.33995 -2.67636,0.92332 -3.79202,1.29604 -3.80456,1.27102 -5.50576,2.24759 -7.99073,4.58939 -1.19684,1.1279 -1.67466,1.44993 -2.76882,1.865 -1.71176,0.64935 -2.86972,1.76984 -3.77548,3.65301 -1.45758,3.03041 -1.97644,5.39968 -1.81487,8.2889 0.31272,5.59254 0.87485,11.16089 1.36528,13.52682 0.45565,2.198 0.46929,2.11583 -0.32969,2.00866 -0.59418,-0.0797 -0.72998,-0.0239 -1.1467,0.47129 -0.42482,0.50487 -0.47232,0.70182 -0.47232,1.94768 0,1.7575 0.31005,3.20548 1.30379,6.08335 0.45,1.30323 0.87702,2.94044 0.98909,3.79254 0.30352,2.30774 0.81278,3.13504 2.6448,4.29638 0.75661,0.47962 1.02606,1.35819 1.6831,5.4932 0.94407,5.9413 1.46574,7.41693 3.44992,9.75393 l 1.09296,1.28778 -0.11318,1.62263 c -0.16805,2.40624 -1.50515,10.15223 -1.87792,10.87893 -0.94464,1.84151 -2.95152,2.6282 -9.48107,3.71553 -7.51999,1.25226 -9.59477,1.90726 -16.62483,5.24878 -4.55706,2.16605 -6.40889,3.33101 -8.3353999,5.24412 -3.4835,3.45928 -5.43371,7.32003 -6.28748,12.44627 -0.42943,2.57843 -0.72274,5.55921 -0.72295,7.34891 v 1.27899 h 65.3691299 21.06125 0.77205 27.795721 v -1.27899 c -2.1e-4,-1.7897 -0.29353,-4.77048 -0.72296,-7.34891 -0.85377,-5.12624 -2.80397,-8.98699 -6.28747,-12.44627 -1.92651,-1.91311 -3.77834,-3.07807 -8.33541,-5.24412 -7.030061,-3.34153 -9.104831,-3.99652 -16.624821,-5.24878 -2.9319,-0.48823 -4.94663,-0.9164 -6.36809,-1.40611 -1.77936,-0.79491 -2.77806,-1.79321 -3.28559,-3.14968 -0.0824,-0.22034 -0.16957,-0.51674 -0.2589,-0.8692 -0.14806,-0.71453 -0.31186,-1.57022 -0.47749,-2.50372 -0.0102,0.008 -0.0207,0.0153 -0.031,0.0233 -0.44015,-2.52451 -0.81649,-5.67005 -0.81649,-7.34167 0,-1.04467 0.0311,-1.12254 0.71624,-1.78955 1.40619,-1.36904 2.49191,-3.42139 2.99361,-5.66012 0.097,-0.4328 0.33523,-1.87429 0.52969,-3.20343 0.36806,-2.51564 1.09281,-5.80232 1.41025,-6.39547 0.10111,-0.18892 0.57664,-0.54218 1.05678,-0.78548 1.02337,-0.51858 1.86285,-1.79274 2.03244,-3.08457 0.21126,-1.60929 0.48297,-2.77041 0.99063,-4.23385 0.84243,-2.4285 1.20462,-4.18757 1.20562,-5.86166 0.002,-2.47772 -0.71598,-3.65032 -1.94924,-3.18481 -0.2857,0.1078 -0.51935,0.12989 -0.51935,0.0491 0,-0.0808 0.19782,-0.96672 0.43925,-1.96887 1.58705,-6.58776 2.01501,-12.94457 1.2268,-18.22163 -0.33729,-2.25816 -0.69895,-3.31382 -1.66863,-4.8705 -0.3876,-0.62223 -0.98817,-1.67692 -1.33429,-2.34353 -1.24687,-2.40134 -3.02546,-3.65663 -7.00887,-4.9475 -1.31858,-0.4273 -3.50367,-1.21978 -4.85552,-1.76062 -3.02166,-1.2089 -5.56022,-1.84887 -7.87704,-1.98592 -0.27537,-0.0163 -0.5424,-0.0265 -0.80357,-0.0305 z"
           style="fill:#000000;fill-opacity:1;stroke-width:5.1955452" />
      </g>
      <g
         style="stroke-width:5.1955452"
         transform="matrix(0.19247259,0,0,0.19247259,-0.25030184,248.46777)"
         id="g1862">
        <path
           id="path1858"
           d="m 119.25818,105.62782 c -1.82816,-0.0282 -3.36323,0.25171 -5.37022,0.95498 -0.97014,0.33995 -2.67636,0.92332 -3.79202,1.29604 -3.80457,1.27102 -5.50577,2.24759 -7.99073,4.58939 -1.19685,1.1279 -1.67467,1.44993 -2.768831,1.865 -1.71176,0.64935 -2.86972,1.76984 -3.77548,3.65301 -1.45758,3.03041 -1.97644,5.39968 -1.81487,8.2889 0.31272,5.59254 0.87485,11.16089 1.36529,13.52682 0.45564,2.198 0.46928,2.11583 -0.3297,2.00866 -0.59418,-0.0797 -0.72998,-0.0239 -1.1467,0.47129 -0.42482,0.50487 -0.47232,0.70182 -0.47232,1.94768 0,1.7575 0.31006,3.20548 1.3038,6.08335 0.45,1.30323 0.87701,2.94044 0.98908,3.79254 0.30352,2.30774 0.81278,3.13504 2.6448,4.29638 0.75661,0.47962 1.02606,1.35819 1.6831,5.4932 0.944071,5.9413 1.465741,7.41693 3.449921,9.75393 l 1.09296,1.28778 -0.11317,1.62263 c -0.16805,2.40624 -1.50515,10.15223 -1.87792,10.87893 -0.94465,1.84151 -2.951531,2.6282 -9.481081,3.71553 -7.51999,1.25226 -9.59476,1.90726 -16.62483,5.24878 -4.55707,2.16605 -6.4089,3.33101 -8.33541,5.24412 -3.48349,3.45928 -5.4337,7.32003 -6.28747,12.44627 -0.42943,2.57843 -0.72274,5.55921 -0.72295,7.34891 v 1.27899 h 65.369151 21.06124 0.77205 27.79572 v -1.27899 c -2.1e-4,-1.7897 -0.29352,-4.77048 -0.72295,-7.34891 -0.85377,-5.12624 -2.80397,-8.98699 -6.28747,-12.44627 -1.92651,-1.91311 -3.77834,-3.07807 -8.33541,-5.24412 -7.03006,-3.34153 -9.10484,-3.99652 -16.62483,-5.24878 -2.93189,-0.48823 -4.94662,-0.9164 -6.36808,-1.40611 -1.77936,-0.79491 -2.77807,-1.79321 -3.28559,-3.14968 -0.0824,-0.22034 -0.16958,-0.51674 -0.2589,-0.8692 -0.14807,-0.71453 -0.31186,-1.57022 -0.47749,-2.50372 -0.0103,0.008 -0.0207,0.0153 -0.031,0.0233 -0.44015,-2.52451 -0.81648,-5.67005 -0.81648,-7.34167 0,-1.04467 0.0311,-1.12254 0.71623,-1.78955 1.40619,-1.36904 2.49191,-3.42139 2.99362,-5.66012 0.097,-0.4328 0.33522,-1.87429 0.52968,-3.20343 0.36806,-2.51564 1.09281,-5.80232 1.41025,-6.39547 0.10111,-0.18892 0.57664,-0.54218 1.05678,-0.78548 1.02337,-0.51858 1.86285,-1.79274 2.03244,-3.08457 0.21126,-1.60929 0.48297,-2.77041 0.99063,-4.23385 0.84243,-2.4285 1.20462,-4.18757 1.20562,-5.86166 0.002,-2.47772 -0.71598,-3.65032 -1.94924,-3.18481 -0.2857,0.1078 -0.51935,0.12989 -0.51935,0.0491 0,-0.0808 0.19782,-0.96672 0.43925,-1.96887 1.58705,-6.58776 2.01501,-12.94457 1.2268,-18.22163 -0.33729,-2.25816 -0.69895,-3.31382 -1.66863,-4.8705 -0.3876,-0.62223 -0.98817,-1.67692 -1.33429,-2.34353 -1.24687,-2.40134 -3.02546,-3.65663 -7.00887,-4.9475 -1.31858,-0.4273 -3.50367,-1.21978 -4.85552,-1.76062 -3.02166,-1.2089 -5.56022,-1.84887 -7.87704,-1.98592 -0.27537,-0.0163 -0.5424,-0.0265 -0.80356,-0.0305 z"
           style="opacity:1;fill:#3d3d3d;fill-opacity:1;stroke-width:5.1955452"
           inkscape:connector-curvature="0" />
        <path
           style="fill:#000000;fill-opacity:1;stroke-width:5.1955452"
           d="m 61.049839,105.62782 c -1.82815,-0.0282 -3.36323,0.25171 -5.37021,0.95498 -0.97014,0.33995 -2.67636,0.92332 -3.79202,1.29604 -3.80456,1.27102 -5.50576,2.24759 -7.99073,4.58939 -1.19684,1.1279 -1.67466,1.44993 -2.76882,1.865 -1.71176,0.64935 -2.86972,1.76984 -3.77548,3.65301 -1.45758,3.03041 -1.97644,5.39968 -1.81487,8.2889 0.31272,5.59254 0.87485,11.16089 1.36528,13.52682 0.45565,2.198 0.46929,2.11583 -0.32969,2.00866 -0.59418,-0.0797 -0.72998,-0.0239 -1.1467,0.47129 -0.42482,0.50487 -0.47232,0.70182 -0.47232,1.94768 0,1.7575 0.31005,3.20548 1.30379,6.08335 0.45,1.30323 0.87702,2.94044 0.98909,3.79254 0.30352,2.30774 0.81278,3.13504 2.6448,4.29638 0.75661,0.47962 1.02606,1.35819 1.6831,5.4932 0.94407,5.9413 1.46574,7.41693 3.44992,9.75393 l 1.09296,1.28778 -0.11318,1.62263 c -0.16805,2.40624 -1.50515,10.15223 -1.87792,10.87893 -0.94464,1.84151 -2.95152,2.6282 -9.48107,3.71553 -7.51999,1.25226 -9.59477,1.90726 -16.62483,5.24878 -4.55706,2.16605 -6.40889,3.33101 -8.3353999,5.24412 -3.4835,3.45928 -5.43371,7.32003 -6.28748,12.44627 -0.42943,2.57843 -0.72274,5.55921 -0.72295,7.34891 v 1.27899 h 65.3691299 21.06125 0.77205 27.795721 v -1.27899 c -2.1e-4,-1.7897 -0.29353,-4.77048 -0.72296,-7.34891 -0.85377,-5.12624 -2.80397,-8.98699 -6.28747,-12.44627 -1.92651,-1.91311 -3.77834,-3.07807 -8.33541,-5.24412 -7.030061,-3.34153 -9.104831,-3.99652 -16.624821,-5.24878 -2.9319,-0.48823 -4.94663,-0.9164 -6.36809,-1.40611 -1.77936,-0.79491 -2.77806,-1.79321 -3.28559,-3.14968 -0.0824,-0.22034 -0.16957,-0.51674 -0.2589,-0.8692 -0.14806,-0.71453 -0.31186,-1.57022 -0.47749,-2.50372 -0.0102,0.008 -0.0207,0.0153 -0.031,0.0233 -0.44015,-2.52451 -0.81649,-5.67005 -0.81649,-7.34167 0,-1.04467 0.0311,-1.12254 0.71624,-1.78955 1.40619,-1.36904 2.49191,-3.42139 2.99361,-5.66012 0.097,-0.4328 0.33523,-1.87429 0.52969,-3.20343 0.36806,-2.51564 1.09281,-5.80232 1.41025,-6.39547 0.10111,-0.18892 0.57664,-0.54218 1.05678,-0.78548 1.02337,-0.51858 1.86285,-1.79274 2.03244,-3.08457 0.21126,-1.60929 0.48297,-2.77041 0.99063,-4.23385 0.84243,-2.4285 1.20462,-4.18757 1.20562,-5.86166 0.002,-2.47772 -0.71598,-3.65032 -1.94924,-3.18481 -0.2857,0.1078 -0.51935,0.12989 -0.51935,0.0491 0,-0.0808 0.19782,-0.96672 0.43925,-1.96887 1.58705,-6.58776 2.01501,-12.94457 1.2268,-18.22163 -0.33729,-2.25816 -0.69895,-3.31382 -1.66863,-4.8705 -0.3876,-0.62223 -0.98817,-1.67692 -1.33429,-2.34353 -1.24687,-2.40134 -3.02546,-3.65663 -7.00887,-4.9475 -1.31858,-0.4273 -3.50367,-1.21978 -4.85552,-1.76062 -3.02166,-1.2089 -5.56022,-1.84887 -7.87704,-1.98592 -0.27537,-0.0163 -0.5424,-0.0265 -0.80357,-0.0305 z"
           id="path880"
           inkscape:connector-curvature="0" />
      </g>
    </g>
  </g>
</svg>
