<?xml version="1.0" encoding="UTF-8" standalone="no"?>
<svg
   xmlns:dc="http://purl.org/dc/elements/1.1/"
   xmlns:cc="http://creativecommons.org/ns#"
   xmlns:rdf="http://www.w3.org/1999/02/22-rdf-syntax-ns#"
   xmlns:svg="http://www.w3.org/2000/svg"
   xmlns="http://www.w3.org/2000/svg"
   xmlns:xlink="http://www.w3.org/1999/xlink"
   xmlns:sodipodi="http://sodipodi.sourceforge.net/DTD/sodipodi-0.dtd"
   xmlns:inkscape="http://www.inkscape.org/namespaces/inkscape"
   height="136.53333"
   viewBox="0 0 136.53333 136.53333"
   width="136.53333"
   version="1.1"
   id="svg59"
   sodipodi:docname="vivaldi.svg"
   inkscape:version="0.92.3 (2405546, 2018-03-11)">
  <metadata
     id="metadata65">
    <rdf:RDF>
      <cc:Work
         rdf:about="">
        <dc:format>image/svg+xml</dc:format>
        <dc:type
           rdf:resource="http://purl.org/dc/dcmitype/StillImage" />
        <dc:title></dc:title>
      </cc:Work>
    </rdf:RDF>
  </metadata>
  <defs
     id="defs63">
    <linearGradient
       inkscape:collect="always"
       id="linearGradient846">
      <stop
         style="stop-color:#f89f8e;stop-opacity:1"
         offset="0"
         id="stop842" />
      <stop
         style="stop-color:#f55d83;stop-opacity:0.96197718"
         offset="1"
         id="stop844" />
    </linearGradient>
    <linearGradient
       id="b">
      <stop
         id="stop875"
         stop-color="#17c7e7"
         offset="0" />
      <stop
         id="stop877"
         stop-opacity="0"
         stop-color="#c054f2"
         offset="1" />
    </linearGradient>
    <linearGradient
       inkscape:collect="always"
       xlink:href="#linearGradient846"
       id="linearGradient848"
       x1="27.27117"
       y1="14.216588"
       x2="108.13528"
       y2="126.50993"
       gradientUnits="userSpaceOnUse" />
  </defs>
  <sodipodi:namedview
     pagecolor="#ffffff"
     bordercolor="#666666"
     borderopacity="1"
     objecttolerance="10"
     gridtolerance="10"
     guidetolerance="10"
     inkscape:pageopacity="0"
     inkscape:pageshadow="2"
     inkscape:window-width="1920"
     inkscape:window-height="1026"
     id="namedview61"
     showgrid="false"
     inkscape:zoom="13.828126"
     inkscape:cx="47.321482"
     inkscape:cy="86.510472"
     inkscape:window-x="0"
     inkscape:window-y="28"
     inkscape:window-maximized="1"
     inkscape:current-layer="svg59" />
  <linearGradient
     id="a">
    <stop
       offset="0"
       stop-color="#9760ef"
       id="stop2" />
    <stop
       offset="1"
       stop-color="#c054f2"
       stop-opacity="0"
       id="stop4" />
  </linearGradient>
  <linearGradient
     id="b-3">
    <stop
       offset="0"
       stop-color="#17c7e7"
       id="stop7" />
    <stop
       offset="1"
       stop-color="#c054f2"
       stop-opacity="0"
       id="stop9" />
  </linearGradient>
  <linearGradient
     id="c"
     gradientUnits="userSpaceOnUse"
     x1="62.04421"
     x2="66.81698"
     y1="5.831234"
     y2="47.148641">
    <stop
       offset="0"
       stop-color="#e83c2b"
       id="stop12" />
    <stop
       offset="1"
       stop-color="#c054f2"
       stop-opacity=".792157"
       id="stop14" />
  </linearGradient>
  <linearGradient
     id="d"
     gradientUnits="userSpaceOnUse"
     x1="88.22553"
     x2="38.18116"
     xlink:href="#b-3"
     y1="119.556361"
     y2="35.285226" />
  <linearGradient
     id="e"
     gradientUnits="userSpaceOnUse"
     x1="61.6262"
     x2="95.3216"
     y1="48.640058"
     y2="103.021981">
    <stop
       offset="0"
       stop-color="#f66456"
       id="stop18" />
    <stop
       offset="1"
       stop-color="#d9493e"
       stop-opacity="0"
       id="stop20" />
  </linearGradient>
  <linearGradient
     id="f"
     gradientUnits="userSpaceOnUse"
     x1="32.31499"
     x2="61.76681"
     xlink:href="#a"
     y1="92.483823"
     y2="57.318029" />
  <linearGradient
     id="g"
     gradientUnits="userSpaceOnUse"
     x1="96.53194"
     x2="61.76681"
     xlink:href="#b-3"
     y1="97.690601"
     y2="59.053621" />
  <linearGradient
     id="h"
     gradientUnits="userSpaceOnUse"
     x1="139.34325"
     x2="61.76681"
     xlink:href="#a"
     y1="-7.023515"
     y2="59.053621" />
  <filter
     id="i"
     color-interpolation-filters="sRGB"
     height="1.108812"
     width="1.139866"
     x="-.069933"
     y="-.054406">
    <feGaussianBlur
       stdDeviation="1.9764485"
       id="feGaussianBlur26" />
  </filter>
  <path
     style="color:#000000;font-style:normal;font-variant:normal;font-weight:normal;font-stretch:normal;font-size:medium;line-height:normal;font-family:sans-serif;font-variant-ligatures:normal;font-variant-position:normal;font-variant-caps:normal;font-variant-numeric:normal;font-variant-alternates:normal;font-feature-settings:normal;text-indent:0;text-align:start;text-decoration:none;text-decoration-line:none;text-decoration-style:solid;text-decoration-color:#000000;letter-spacing:normal;word-spacing:normal;text-transform:none;writing-mode:lr-tb;direction:ltr;text-orientation:mixed;dominant-baseline:auto;baseline-shift:baseline;text-anchor:start;white-space:normal;shape-padding:0;clip-rule:nonzero;display:inline;overflow:visible;visibility:visible;opacity:1;isolation:auto;mix-blend-mode:normal;color-interpolation:sRGB;color-interpolation-filters:linearRGB;solid-color:#000000;solid-opacity:1;vector-effect:none;fill:url(#linearGradient848);fill-opacity:1;fill-rule:nonzero;stroke:none;stroke-width:6;stroke-linecap:butt;stroke-linejoin:miter;stroke-miterlimit:4;stroke-dasharray:none;stroke-dashoffset:0;stroke-opacity:1;color-rendering:auto;image-rendering:auto;shape-rendering:auto;text-rendering:auto;enable-background:accumulate"
     d="M 68.113281,2.2167969 C 31.13385,2.216797 1.0898439,32.25885 1.0898438,69.238281 c -6e-7,36.979429 30.0440062,67.021489 67.0234372,67.021489 36.979429,0 67.021489,-30.04206 67.021489,-67.021489 0,-36.979432 -30.04206,-67.0214864 -67.021489,-67.0214841 z"
     id="circle45"
     inkscape:connector-curvature="0"
     sodipodi:nodetypes="sssss" />
  <path
     id="path852-3"
     d="m 30.738452,50.226781 31.22515,55.167319 c 0,0 1.690106,2.95321 5.945232,2.95321 4.252139,0 5.945231,-2.95321 5.945231,-2.95321 0,0 21.702631,-33.240736 30.556265,-50.971917 0.88985,-1.779684 1.84837,-3.580274 2.25149,-5.533153 0.27472,-1.325809 0.4061,-2.747168 0.0896,-4.064018 -0.38521,-1.606497 -1.12874,-3.248824 -2.34108,-4.368594 -1.40045,-1.29296 -3.34437,-2.087252 -5.237523,-2.284331 -2.036491,-0.215003 -4.207351,0.274729 -6.031831,1.227266 -1.281014,0.674851 -2.418703,1.752817 -3.135354,3.015916 -0.710681,1.251155 -0.892829,2.76807 -0.973451,4.204359 -0.05373,0.988387 0.140331,1.98274 0.343394,2.950223 0.06868,0.331451 0.182145,0.653943 0.295618,0.970464 0.289647,0.809224 0.683809,1.576638 0.979427,2.382871 0.244865,0.662905 0.585265,1.313863 0.662903,2.018572 0.125414,1.1347 0.09555,2.347038 -0.322495,3.407085 -2.039474,5.1599 -5.545097,10.122718 -10.179451,13.153563 -1.92003,1.254143 -4.377554,1.567677 -6.667853,1.666217 -2.6128,0.11049 -5.622739,-0.09555 -7.742839,-1.248171 -2.120096,-1.152615 -3.11744,-3.153273 -4.446233,-4.918029 -6.097517,-8.092202 -16.064961,-25.817409 -16.064961,-25.817409 0,0 -4.33276,-7.659225 -12.129343,-3.015913 -7.793599,4.646297 -3.030844,12.06365 -3.030844,12.06365 z"
     inkscape:connector-curvature="0"
     style="fill:none;fill-rule:evenodd;stroke-width:2.8797586;stroke:#000000;stroke-opacity:0.05703422" />
  <path
     style="fill:none;fill-rule:evenodd;stroke-width:5;stroke:#000000;stroke-opacity:0.03422053;stroke-miterlimit:4;stroke-dasharray:none"
     inkscape:connector-curvature="0"
     d="m 30.738452,50.226781 31.22515,55.167319 c 0,0 1.690106,2.95321 5.945232,2.95321 4.252139,0 5.945231,-2.95321 5.945231,-2.95321 0,0 21.702631,-33.240736 30.556265,-50.971917 0.88985,-1.779684 1.84837,-3.580274 2.25149,-5.533153 0.27472,-1.325809 0.4061,-2.747168 0.0896,-4.064018 -0.38521,-1.606497 -1.12874,-3.248824 -2.34108,-4.368594 -1.40045,-1.29296 -3.34437,-2.087252 -5.237523,-2.284331 -2.036491,-0.215003 -4.207351,0.274729 -6.031831,1.227266 -1.281014,0.674851 -2.418703,1.752817 -3.135354,3.015916 -0.710681,1.251155 -0.892829,2.76807 -0.973451,4.204359 -0.05373,0.988387 0.140331,1.98274 0.343394,2.950223 0.06868,0.331451 0.182145,0.653943 0.295618,0.970464 0.289647,0.809224 0.683809,1.576638 0.979427,2.382871 0.244865,0.662905 0.585265,1.313863 0.662903,2.018572 0.125414,1.1347 0.09555,2.347038 -0.322495,3.407085 -2.039474,5.1599 -5.545097,10.122718 -10.179451,13.153563 -1.92003,1.254143 -4.377554,1.567677 -6.667853,1.666217 -2.6128,0.11049 -5.622739,-0.09555 -7.742839,-1.248171 -2.120096,-1.152615 -3.11744,-3.153273 -4.446233,-4.918029 -6.097517,-8.092202 -16.064961,-25.817409 -16.064961,-25.817409 0,0 -4.33276,-7.659225 -12.129343,-3.015913 -7.793599,4.646297 -3.030844,12.06365 -3.030844,12.06365 z"
     id="path884" />
  <path
     style="opacity:1;fill:#ffffff;fill-opacity:1;stroke:none;stroke-width:2;stroke-linecap:round;stroke-linejoin:round;stroke-miterlimit:4;stroke-dasharray:none;stroke-dashoffset:0;stroke-opacity:1;paint-order:fill markers stroke"
     d="M 68.111328 9.7167969 C 35.238549 9.7168664 8.5899132 36.365502 8.5898438 69.238281 C 8.5899105 102.11182 35.239737 128.76078 68.113281 128.75977 C 100.98606 128.7597 127.6347 102.11106 127.63477 69.238281 C 127.6347 36.364737 100.98487 9.7157851 68.111328 9.7167969 z M 38.945312 36.681641 C 43.453085 36.8769 45.890625 41.185547 45.890625 41.185547 C 45.890625 41.185547 55.857561 58.909751 61.955078 67.001953 C 63.283871 68.766709 64.280295 70.767307 66.400391 71.919922 C 68.520491 73.072543 71.531731 73.278459 74.144531 73.167969 C 76.43483 73.069429 78.89247 72.756096 80.8125 71.501953 C 85.446854 68.471108 88.95076 63.509509 90.990234 58.349609 C 91.408279 57.289562 91.439867 56.076106 91.314453 54.941406 C 91.236815 54.236697 90.895256 53.586733 90.650391 52.923828 C 90.354773 52.117595 89.961522 51.35024 89.671875 50.541016 C 89.558402 50.224495 89.44368 49.901764 89.375 49.570312 C 89.171937 48.602829 88.97752 47.607528 89.03125 46.619141 C 89.111872 45.182852 89.295178 43.667171 90.005859 42.416016 C 90.72251 41.152917 91.859611 40.073288 93.140625 39.398438 C 94.965105 38.445901 97.135384 37.956872 99.171875 38.171875 C 101.06503 38.368954 103.00971 39.164071 104.41016 40.457031 C 105.6225 41.576801 106.36674 43.217722 106.75195 44.824219 C 107.06845 46.141069 106.93683 47.562863 106.66211 48.888672 C 106.25899 50.841551 105.30001 52.642191 104.41016 54.421875 C 95.556522 72.153056 73.853516 105.39453 73.853516 105.39453 C 73.853516 105.39453 72.160342 108.34766 67.908203 108.34766 C 63.653077 108.34766 61.962891 105.39453 61.962891 105.39453 L 30.738281 50.226562 L 30.730469 50.232422 C 30.730469 50.232422 25.966167 42.816219 33.759766 38.169922 C 35.708911 37.009094 37.442722 36.616554 38.945312 36.681641 z "
     id="path898" />
</svg>
