<?xml version="1.0" encoding="UTF-8" standalone="no"?>
<!-- Created with Inkscape (http://www.inkscape.org/) -->

<svg
   xmlns:dc="http://purl.org/dc/elements/1.1/"
   xmlns:cc="http://creativecommons.org/ns#"
   xmlns:rdf="http://www.w3.org/1999/02/22-rdf-syntax-ns#"
   xmlns:svg="http://www.w3.org/2000/svg"
   xmlns="http://www.w3.org/2000/svg"
   xmlns:xlink="http://www.w3.org/1999/xlink"
   xmlns:sodipodi="http://sodipodi.sourceforge.net/DTD/sodipodi-0.dtd"
   xmlns:inkscape="http://www.inkscape.org/namespaces/inkscape"
   version="1.1"
   id="svg2"
   width="136.53333"
   height="136.53333"
   viewBox="0 0 136.53333 136.53333"
   sodipodi:docname="vlc.svg"
   inkscape:version="0.92.2 (5c3e80d, 2017-08-06)">
  <metadata
     id="metadata8">
    <rdf:RDF>
      <cc:Work
         rdf:about="">
        <dc:format>image/svg+xml</dc:format>
        <dc:type
           rdf:resource="http://purl.org/dc/dcmitype/StillImage" />
        <dc:title></dc:title>
      </cc:Work>
    </rdf:RDF>
  </metadata>
  <defs
     id="defs6">
    <linearGradient
       inkscape:collect="always"
       id="linearGradient821">
      <stop
         style="stop-color:#faa55e;stop-opacity:1"
         offset="0"
         id="stop817" />
      <stop
         style="stop-color:#f87509;stop-opacity:1"
         offset="1"
         id="stop819" />
    </linearGradient>
    <linearGradient
       inkscape:collect="always"
       xlink:href="#linearGradient821"
       id="linearGradient823"
       x1="68.462769"
       y1="23.819031"
       x2="68.286613"
       y2="121.01225"
       gradientUnits="userSpaceOnUse" />
  </defs>
  <sodipodi:namedview
     pagecolor="#ffffff"
     bordercolor="#666666"
     borderopacity="1"
     objecttolerance="10"
     gridtolerance="10"
     guidetolerance="10"
     inkscape:pageopacity="0"
     inkscape:pageshadow="2"
     inkscape:window-width="1360"
     inkscape:window-height="717"
     id="namedview4"
     showgrid="false"
     inkscape:zoom="1.7285157"
     inkscape:cx="168.56109"
     inkscape:cy="94.792486"
     inkscape:window-x="0"
     inkscape:window-y="25"
     inkscape:window-maximized="1"
     inkscape:current-layer="svg2"
     showguides="false" />
  <circle
     id="path12"
     cx="68.953224"
     cy="68.365921"
     r="64.021523"
     style="fill:url(#linearGradient823);fill-opacity:1;stroke:#eeeeee;stroke-width:6;stroke-miterlimit:4;stroke-dasharray:none;stroke-opacity:1" />
  <path
     style="fill:#000000;stroke-width:1.33333337"
     d=""
     id="path849"
     inkscape:connector-curvature="0" />
  <path
     style="fill:#000000;stroke-width:1.33333337"
     d=""
     id="path847"
     inkscape:connector-curvature="0" />
  <path
     style="fill:#ffffff;fill-opacity:1;stroke:none;stroke-width:7.34953785;stroke-miterlimit:4;stroke-dasharray:none"
     d="m 65.688213,29.421154 c -0.832821,0 -1.243766,0.711669 -1.503917,1.502813 l -2.601489,7.912679 c -0.260157,0.791145 0.686799,1.336326 1.502812,1.502812 3.686811,0.752198 7.302844,0.78945 10.83549,0 0.812774,-0.181633 1.752465,-0.708291 1.502812,-1.502812 l -2.485548,-7.912679 c -0.249652,-0.794521 -0.671095,-1.502813 -1.503916,-1.502813 z m 13.64788,23.024725 c -6.940237,3.111709 -14.989876,2.908859 -21.505349,0.408553 l -3.597475,12.347135 c 0,1.585482 1.434317,2.170413 2.860975,2.86208 7.099422,3.441916 16.09861,3.745043 23.222376,0 1.403372,-0.737768 3.319447,-1.344001 2.86208,-2.86208 z M 45.789471,74.892004 c -1.585482,0 -2.373935,1.353613 -2.86208,2.862079 l -7.053612,21.797956 c -0.488145,1.508471 1.276597,2.860981 2.862079,2.860981 h 59.495264 c 1.585476,0 3.335658,-1.34788 2.862078,-2.860981 L 94.270365,77.754083 C 93.796773,76.240985 92.99487,74.892004 91.409388,74.892004 h -5.695451 c 0.607943,1.32503 0.859659,2.706594 0.171151,3.72225 -4.983897,7.352053 -29.922585,7.442877 -34.343852,0.106002 -0.6436,-1.068023 -0.857855,-2.337475 -0.518973,-3.828252 z"
     id="rect855"
     inkscape:connector-curvature="0" />
</svg>
