<?xml version="1.0" encoding="UTF-8" standalone="no"?>
<!-- Created with Inkscape (http://www.inkscape.org/) -->

<svg
   xmlns:dc="http://purl.org/dc/elements/1.1/"
   xmlns:cc="http://creativecommons.org/ns#"
   xmlns:rdf="http://www.w3.org/1999/02/22-rdf-syntax-ns#"
   xmlns:svg="http://www.w3.org/2000/svg"
   xmlns="http://www.w3.org/2000/svg"
   xmlns:xlink="http://www.w3.org/1999/xlink"
   xmlns:sodipodi="http://sodipodi.sourceforge.net/DTD/sodipodi-0.dtd"
   xmlns:inkscape="http://www.inkscape.org/namespaces/inkscape"
   version="1.1"
   id="svg2"
   width="128"
   height="128"
   viewBox="0 0 128 128"
   sodipodi:docname="vlc.svg"
   inkscape:version="0.92.4 (5da689c313, 2019-01-14)">
  <metadata
     id="metadata8">
    <rdf:RDF>
      <cc:Work
         rdf:about="">
        <dc:format>image/svg+xml</dc:format>
        <dc:type
           rdf:resource="http://purl.org/dc/dcmitype/StillImage" />
        <dc:title></dc:title>
      </cc:Work>
    </rdf:RDF>
  </metadata>
  <defs
     id="defs6">
    <linearGradient
       inkscape:collect="always"
       id="linearGradient833">
      <stop
         style="stop-color:#fc830c;stop-opacity:1"
         offset="0"
         id="stop829" />
      <stop
         style="stop-color:#ffae15;stop-opacity:1"
         offset="1"
         id="stop831" />
    </linearGradient>
    <linearGradient
       inkscape:collect="always"
       id="linearGradient823">
      <stop
         style="stop-color:#e47300;stop-opacity:1"
         offset="0"
         id="stop819" />
      <stop
         style="stop-color:#ffae15;stop-opacity:1"
         offset="1"
         id="stop821" />
    </linearGradient>
    <linearGradient
       inkscape:collect="always"
       xlink:href="#linearGradient823"
       id="linearGradient825"
       x1="-741.83197"
       y1="959.04749"
       x2="-741.83197"
       y2="93.836403"
       gradientUnits="userSpaceOnUse"
       gradientTransform="matrix(0.13667801,0,0,0.13667801,162.31231,-5.989337)" />
    <linearGradient
       inkscape:collect="always"
       xlink:href="#linearGradient833"
       id="linearGradient835"
       x1="-738.76385"
       y1="931.43433"
       x2="-738.76385"
       y2="152.13077"
       gradientUnits="userSpaceOnUse"
       gradientTransform="matrix(0.13667801,0,0,0.13667801,162.31231,-5.989337)" />
  </defs>
  <sodipodi:namedview
     pagecolor="#ffffff"
     bordercolor="#666666"
     borderopacity="1"
     objecttolerance="10"
     gridtolerance="10"
     guidetolerance="10"
     inkscape:pageopacity="0"
     inkscape:pageshadow="2"
     inkscape:window-width="1920"
     inkscape:window-height="1025"
     id="namedview4"
     showgrid="false"
     inkscape:zoom="1.4275398"
     inkscape:cx="-81.009936"
     inkscape:cy="29.911256"
     inkscape:window-x="0"
     inkscape:window-y="29"
     inkscape:window-maximized="1"
     inkscape:current-layer="svg2" />
  <circle
     style="opacity:1;fill:url(#linearGradient825);fill-opacity:1;stroke:none;stroke-width:0.78699166;stroke-linecap:round;stroke-linejoin:round;stroke-miterlimit:4;stroke-dasharray:none;stroke-opacity:1"
     id="path817"
     cx="63.591888"
     cy="64.286316"
     r="61.380009" />
  <circle
     r="55.089832"
     cy="64.286316"
     cx="63.591888"
     id="circle827"
     style="opacity:1;fill:url(#linearGradient835);fill-opacity:1;stroke:none;stroke-width:0.70634133;stroke-linecap:round;stroke-linejoin:round;stroke-miterlimit:4;stroke-dasharray:none;stroke-opacity:1" />
  <g
     id="g1015"
     transform="translate(3.134654,0.41901842)">
    <g
       style="opacity:0.32600014"
       transform="translate(169.17216,5.9543)"
       id="g978">
      <path
         style="fill:none;fill-opacity:1;stroke:#000000;stroke-width:0.1;stroke-linecap:round;stroke-linejoin:round;stroke-miterlimit:4;stroke-dasharray:none;stroke-opacity:0.00784314"
         d="m -111.30053,24.154244 c -0.77036,0 -1.15048,0.658294 -1.39112,1.390102 l -2.40638,7.319232 c -0.24065,0.73181 0.63529,1.236102 1.3901,1.390102 3.4103,0.695783 6.75513,0.730241 10.02283,0 0.75182,-0.168011 1.62103,-0.65517 1.3901,-1.390102 l -2.29913,-7.319232 c -0.23093,-0.734932 -0.62076,-1.390102 -1.39112,-1.390102 z m 12.624294,21.297881 c -6.419724,2.878332 -13.865644,2.690696 -19.892454,0.377912 l -3.32767,11.421105 c 0,1.466572 1.32674,2.007633 2.6464,2.647426 6.56697,3.183774 14.89123,3.464166 21.480712,0 1.29812,-0.682436 3.07049,-1.243202 2.647426,-2.647426 z m -31.030644,20.762676 c -1.46657,0 -2.19589,1.252093 -2.64742,2.647425 l -6.5246,20.163117 c -0.45153,1.395336 1.18086,2.646408 2.64743,2.646408 h 55.033145 c 1.466566,0 3.085485,-1.24679 2.647423,-2.646408 l -6.311125,-20.163117 c -0.438073,-1.399617 -1.179834,-2.647425 -2.646405,-2.647425 h -5.268295 c 0.562348,1.225653 0.795185,2.503601 0.158315,3.443083 -4.610107,6.800653 -27.678408,6.884665 -31.768078,0.09805 -0.59533,-0.987922 -0.79352,-2.162165 -0.48005,-3.541135 z"
         id="path879"
         inkscape:connector-curvature="0" />
      <path
         inkscape:connector-curvature="0"
         id="path881"
         d="m -111.30053,24.154244 c -0.77036,0 -1.15048,0.658294 -1.39112,1.390102 l -2.40638,7.319232 c -0.24065,0.73181 0.63529,1.236102 1.3901,1.390102 3.4103,0.695783 6.75513,0.730241 10.02283,0 0.75182,-0.168011 1.62103,-0.65517 1.3901,-1.390102 l -2.29913,-7.319232 c -0.23093,-0.734932 -0.62076,-1.390102 -1.39112,-1.390102 z m 12.624294,21.297881 c -6.419724,2.878332 -13.865644,2.690696 -19.892454,0.377912 l -3.32767,11.421105 c 0,1.466572 1.32674,2.007633 2.6464,2.647426 6.56697,3.183774 14.89123,3.464166 21.480712,0 1.29812,-0.682436 3.07049,-1.243202 2.647426,-2.647426 z m -31.030644,20.762676 c -1.46657,0 -2.19589,1.252093 -2.64742,2.647425 l -6.5246,20.163117 c -0.45153,1.395336 1.18086,2.646408 2.64743,2.646408 h 55.033145 c 1.466566,0 3.085485,-1.24679 2.647423,-2.646408 l -6.311125,-20.163117 c -0.438073,-1.399617 -1.179834,-2.647425 -2.646405,-2.647425 h -5.268295 c 0.562348,1.225653 0.795185,2.503601 0.158315,3.443083 -4.610107,6.800653 -27.678408,6.884665 -31.768078,0.09805 -0.59533,-0.987922 -0.79352,-2.162165 -0.48005,-3.541135 z"
         style="fill:none;fill-opacity:1;stroke:#000000;stroke-width:0.2;stroke-linecap:round;stroke-linejoin:round;stroke-miterlimit:4;stroke-dasharray:none;stroke-opacity:0.00784314" />
      <path
         style="fill:none;fill-opacity:1;stroke:#000000;stroke-width:0.30000001;stroke-linecap:round;stroke-linejoin:round;stroke-miterlimit:4;stroke-dasharray:none;stroke-opacity:0.00784314"
         d="m -111.30053,24.154244 c -0.77036,0 -1.15048,0.658294 -1.39112,1.390102 l -2.40638,7.319232 c -0.24065,0.73181 0.63529,1.236102 1.3901,1.390102 3.4103,0.695783 6.75513,0.730241 10.02283,0 0.75182,-0.168011 1.62103,-0.65517 1.3901,-1.390102 l -2.29913,-7.319232 c -0.23093,-0.734932 -0.62076,-1.390102 -1.39112,-1.390102 z m 12.624294,21.297881 c -6.419724,2.878332 -13.865644,2.690696 -19.892454,0.377912 l -3.32767,11.421105 c 0,1.466572 1.32674,2.007633 2.6464,2.647426 6.56697,3.183774 14.89123,3.464166 21.480712,0 1.29812,-0.682436 3.07049,-1.243202 2.647426,-2.647426 z m -31.030644,20.762676 c -1.46657,0 -2.19589,1.252093 -2.64742,2.647425 l -6.5246,20.163117 c -0.45153,1.395336 1.18086,2.646408 2.64743,2.646408 h 55.033145 c 1.466566,0 3.085485,-1.24679 2.647423,-2.646408 l -6.311125,-20.163117 c -0.438073,-1.399617 -1.179834,-2.647425 -2.646405,-2.647425 h -5.268295 c 0.562348,1.225653 0.795185,2.503601 0.158315,3.443083 -4.610107,6.800653 -27.678408,6.884665 -31.768078,0.09805 -0.59533,-0.987922 -0.79352,-2.162165 -0.48005,-3.541135 z"
         id="path883"
         inkscape:connector-curvature="0" />
      <path
         inkscape:connector-curvature="0"
         id="path885"
         d="m -111.30053,24.154244 c -0.77036,0 -1.15048,0.658294 -1.39112,1.390102 l -2.40638,7.319232 c -0.24065,0.73181 0.63529,1.236102 1.3901,1.390102 3.4103,0.695783 6.75513,0.730241 10.02283,0 0.75182,-0.168011 1.62103,-0.65517 1.3901,-1.390102 l -2.29913,-7.319232 c -0.23093,-0.734932 -0.62076,-1.390102 -1.39112,-1.390102 z m 12.624294,21.297881 c -6.419724,2.878332 -13.865644,2.690696 -19.892454,0.377912 l -3.32767,11.421105 c 0,1.466572 1.32674,2.007633 2.6464,2.647426 6.56697,3.183774 14.89123,3.464166 21.480712,0 1.29812,-0.682436 3.07049,-1.243202 2.647426,-2.647426 z m -31.030644,20.762676 c -1.46657,0 -2.19589,1.252093 -2.64742,2.647425 l -6.5246,20.163117 c -0.45153,1.395336 1.18086,2.646408 2.64743,2.646408 h 55.033145 c 1.466566,0 3.085485,-1.24679 2.647423,-2.646408 l -6.311125,-20.163117 c -0.438073,-1.399617 -1.179834,-2.647425 -2.646405,-2.647425 h -5.268295 c 0.562348,1.225653 0.795185,2.503601 0.158315,3.443083 -4.610107,6.800653 -27.678408,6.884665 -31.768078,0.09805 -0.59533,-0.987922 -0.79352,-2.162165 -0.48005,-3.541135 z"
         style="fill:none;fill-opacity:1;stroke:#000000;stroke-width:0.40000001;stroke-linecap:round;stroke-linejoin:round;stroke-miterlimit:4;stroke-dasharray:none;stroke-opacity:0.00784314" />
      <path
         style="fill:none;fill-opacity:1;stroke:#000000;stroke-width:0.5;stroke-linecap:round;stroke-linejoin:round;stroke-miterlimit:4;stroke-dasharray:none;stroke-opacity:0.00784314"
         d="m -111.30053,24.154244 c -0.77036,0 -1.15048,0.658294 -1.39112,1.390102 l -2.40638,7.319232 c -0.24065,0.73181 0.63529,1.236102 1.3901,1.390102 3.4103,0.695783 6.75513,0.730241 10.02283,0 0.75182,-0.168011 1.62103,-0.65517 1.3901,-1.390102 l -2.29913,-7.319232 c -0.23093,-0.734932 -0.62076,-1.390102 -1.39112,-1.390102 z m 12.624294,21.297881 c -6.419724,2.878332 -13.865644,2.690696 -19.892454,0.377912 l -3.32767,11.421105 c 0,1.466572 1.32674,2.007633 2.6464,2.647426 6.56697,3.183774 14.89123,3.464166 21.480712,0 1.29812,-0.682436 3.07049,-1.243202 2.647426,-2.647426 z m -31.030644,20.762676 c -1.46657,0 -2.19589,1.252093 -2.64742,2.647425 l -6.5246,20.163117 c -0.45153,1.395336 1.18086,2.646408 2.64743,2.646408 h 55.033145 c 1.466566,0 3.085485,-1.24679 2.647423,-2.646408 l -6.311125,-20.163117 c -0.438073,-1.399617 -1.179834,-2.647425 -2.646405,-2.647425 h -5.268295 c 0.562348,1.225653 0.795185,2.503601 0.158315,3.443083 -4.610107,6.800653 -27.678408,6.884665 -31.768078,0.09805 -0.59533,-0.987922 -0.79352,-2.162165 -0.48005,-3.541135 z"
         id="path887"
         inkscape:connector-curvature="0" />
      <path
         inkscape:connector-curvature="0"
         id="path889"
         d="m -111.30053,24.154244 c -0.77036,0 -1.15048,0.658294 -1.39112,1.390102 l -2.40638,7.319232 c -0.24065,0.73181 0.63529,1.236102 1.3901,1.390102 3.4103,0.695783 6.75513,0.730241 10.02283,0 0.75182,-0.168011 1.62103,-0.65517 1.3901,-1.390102 l -2.29913,-7.319232 c -0.23093,-0.734932 -0.62076,-1.390102 -1.39112,-1.390102 z m 12.624294,21.297881 c -6.419724,2.878332 -13.865644,2.690696 -19.892454,0.377912 l -3.32767,11.421105 c 0,1.466572 1.32674,2.007633 2.6464,2.647426 6.56697,3.183774 14.89123,3.464166 21.480712,0 1.29812,-0.682436 3.07049,-1.243202 2.647426,-2.647426 z m -31.030644,20.762676 c -1.46657,0 -2.19589,1.252093 -2.64742,2.647425 l -6.5246,20.163117 c -0.45153,1.395336 1.18086,2.646408 2.64743,2.646408 h 55.033145 c 1.466566,0 3.085485,-1.24679 2.647423,-2.646408 l -6.311125,-20.163117 c -0.438073,-1.399617 -1.179834,-2.647425 -2.646405,-2.647425 h -5.268295 c 0.562348,1.225653 0.795185,2.503601 0.158315,3.443083 -4.610107,6.800653 -27.678408,6.884665 -31.768078,0.09805 -0.59533,-0.987922 -0.79352,-2.162165 -0.48005,-3.541135 z"
         style="fill:none;fill-opacity:1;stroke:#000000;stroke-width:0.60000002;stroke-linecap:round;stroke-linejoin:round;stroke-miterlimit:4;stroke-dasharray:none;stroke-opacity:0.00784314" />
      <path
         style="fill:none;fill-opacity:1;stroke:#000000;stroke-width:0.69999999;stroke-linecap:round;stroke-linejoin:round;stroke-miterlimit:4;stroke-dasharray:none;stroke-opacity:0.00784314"
         d="m -111.30053,24.154244 c -0.77036,0 -1.15048,0.658294 -1.39112,1.390102 l -2.40638,7.319232 c -0.24065,0.73181 0.63529,1.236102 1.3901,1.390102 3.4103,0.695783 6.75513,0.730241 10.02283,0 0.75182,-0.168011 1.62103,-0.65517 1.3901,-1.390102 l -2.29913,-7.319232 c -0.23093,-0.734932 -0.62076,-1.390102 -1.39112,-1.390102 z m 12.624294,21.297881 c -6.419724,2.878332 -13.865644,2.690696 -19.892454,0.377912 l -3.32767,11.421105 c 0,1.466572 1.32674,2.007633 2.6464,2.647426 6.56697,3.183774 14.89123,3.464166 21.480712,0 1.29812,-0.682436 3.07049,-1.243202 2.647426,-2.647426 z m -31.030644,20.762676 c -1.46657,0 -2.19589,1.252093 -2.64742,2.647425 l -6.5246,20.163117 c -0.45153,1.395336 1.18086,2.646408 2.64743,2.646408 h 55.033145 c 1.466566,0 3.085485,-1.24679 2.647423,-2.646408 l -6.311125,-20.163117 c -0.438073,-1.399617 -1.179834,-2.647425 -2.646405,-2.647425 h -5.268295 c 0.562348,1.225653 0.795185,2.503601 0.158315,3.443083 -4.610107,6.800653 -27.678408,6.884665 -31.768078,0.09805 -0.59533,-0.987922 -0.79352,-2.162165 -0.48005,-3.541135 z"
         id="path891"
         inkscape:connector-curvature="0" />
      <path
         inkscape:connector-curvature="0"
         id="path893"
         d="m -111.30053,24.154244 c -0.77036,0 -1.15048,0.658294 -1.39112,1.390102 l -2.40638,7.319232 c -0.24065,0.73181 0.63529,1.236102 1.3901,1.390102 3.4103,0.695783 6.75513,0.730241 10.02283,0 0.75182,-0.168011 1.62103,-0.65517 1.3901,-1.390102 l -2.29913,-7.319232 c -0.23093,-0.734932 -0.62076,-1.390102 -1.39112,-1.390102 z m 12.624294,21.297881 c -6.419724,2.878332 -13.865644,2.690696 -19.892454,0.377912 l -3.32767,11.421105 c 0,1.466572 1.32674,2.007633 2.6464,2.647426 6.56697,3.183774 14.89123,3.464166 21.480712,0 1.29812,-0.682436 3.07049,-1.243202 2.647426,-2.647426 z m -31.030644,20.762676 c -1.46657,0 -2.19589,1.252093 -2.64742,2.647425 l -6.5246,20.163117 c -0.45153,1.395336 1.18086,2.646408 2.64743,2.646408 h 55.033145 c 1.466566,0 3.085485,-1.24679 2.647423,-2.646408 l -6.311125,-20.163117 c -0.438073,-1.399617 -1.179834,-2.647425 -2.646405,-2.647425 h -5.268295 c 0.562348,1.225653 0.795185,2.503601 0.158315,3.443083 -4.610107,6.800653 -27.678408,6.884665 -31.768078,0.09805 -0.59533,-0.987922 -0.79352,-2.162165 -0.48005,-3.541135 z"
         style="fill:none;fill-opacity:1;stroke:#000000;stroke-width:0.89999998;stroke-linecap:round;stroke-linejoin:round;stroke-miterlimit:4;stroke-dasharray:none;stroke-opacity:0.00784314" />
      <path
         style="fill:none;fill-opacity:1;stroke:#000000;stroke-width:1.10000002;stroke-linecap:round;stroke-linejoin:round;stroke-miterlimit:4;stroke-dasharray:none;stroke-opacity:0.00784314"
         d="m -111.30053,24.154244 c -0.77036,0 -1.15048,0.658294 -1.39112,1.390102 l -2.40638,7.319232 c -0.24065,0.73181 0.63529,1.236102 1.3901,1.390102 3.4103,0.695783 6.75513,0.730241 10.02283,0 0.75182,-0.168011 1.62103,-0.65517 1.3901,-1.390102 l -2.29913,-7.319232 c -0.23093,-0.734932 -0.62076,-1.390102 -1.39112,-1.390102 z m 12.624294,21.297881 c -6.419724,2.878332 -13.865644,2.690696 -19.892454,0.377912 l -3.32767,11.421105 c 0,1.466572 1.32674,2.007633 2.6464,2.647426 6.56697,3.183774 14.89123,3.464166 21.480712,0 1.29812,-0.682436 3.07049,-1.243202 2.647426,-2.647426 z m -31.030644,20.762676 c -1.46657,0 -2.19589,1.252093 -2.64742,2.647425 l -6.5246,20.163117 c -0.45153,1.395336 1.18086,2.646408 2.64743,2.646408 h 55.033145 c 1.466566,0 3.085485,-1.24679 2.647423,-2.646408 l -6.311125,-20.163117 c -0.438073,-1.399617 -1.179834,-2.647425 -2.646405,-2.647425 h -5.268295 c 0.562348,1.225653 0.795185,2.503601 0.158315,3.443083 -4.610107,6.800653 -27.678408,6.884665 -31.768078,0.09805 -0.59533,-0.987922 -0.79352,-2.162165 -0.48005,-3.541135 z"
         id="path895"
         inkscape:connector-curvature="0" />
      <path
         inkscape:connector-curvature="0"
         id="path897"
         d="m -111.30053,24.154244 c -0.77036,0 -1.15048,0.658294 -1.39112,1.390102 l -2.40638,7.319232 c -0.24065,0.73181 0.63529,1.236102 1.3901,1.390102 3.4103,0.695783 6.75513,0.730241 10.02283,0 0.75182,-0.168011 1.62103,-0.65517 1.3901,-1.390102 l -2.29913,-7.319232 c -0.23093,-0.734932 -0.62076,-1.390102 -1.39112,-1.390102 z m 12.624294,21.297881 c -6.419724,2.878332 -13.865644,2.690696 -19.892454,0.377912 l -3.32767,11.421105 c 0,1.466572 1.32674,2.007633 2.6464,2.647426 6.56697,3.183774 14.89123,3.464166 21.480712,0 1.29812,-0.682436 3.07049,-1.243202 2.647426,-2.647426 z m -31.030644,20.762676 c -1.46657,0 -2.19589,1.252093 -2.64742,2.647425 l -6.5246,20.163117 c -0.45153,1.395336 1.18086,2.646408 2.64743,2.646408 h 55.033145 c 1.466566,0 3.085485,-1.24679 2.647423,-2.646408 l -6.311125,-20.163117 c -0.438073,-1.399617 -1.179834,-2.647425 -2.646405,-2.647425 h -5.268295 c 0.562348,1.225653 0.795185,2.503601 0.158315,3.443083 -4.610107,6.800653 -27.678408,6.884665 -31.768078,0.09805 -0.59533,-0.987922 -0.79352,-2.162165 -0.48005,-3.541135 z"
         style="fill:none;fill-opacity:1;stroke:#000000;stroke-width:1.29999995;stroke-linecap:round;stroke-linejoin:round;stroke-miterlimit:4;stroke-dasharray:none;stroke-opacity:0.00784314" />
      <path
         style="fill:none;fill-opacity:1;stroke:#000000;stroke-width:1.5;stroke-linecap:round;stroke-linejoin:round;stroke-miterlimit:4;stroke-dasharray:none;stroke-opacity:0.00784314"
         d="m -111.30053,24.154244 c -0.77036,0 -1.15048,0.658294 -1.39112,1.390102 l -2.40638,7.319232 c -0.24065,0.73181 0.63529,1.236102 1.3901,1.390102 3.4103,0.695783 6.75513,0.730241 10.02283,0 0.75182,-0.168011 1.62103,-0.65517 1.3901,-1.390102 l -2.29913,-7.319232 c -0.23093,-0.734932 -0.62076,-1.390102 -1.39112,-1.390102 z m 12.624294,21.297881 c -6.419724,2.878332 -13.865644,2.690696 -19.892454,0.377912 l -3.32767,11.421105 c 0,1.466572 1.32674,2.007633 2.6464,2.647426 6.56697,3.183774 14.89123,3.464166 21.480712,0 1.29812,-0.682436 3.07049,-1.243202 2.647426,-2.647426 z m -31.030644,20.762676 c -1.46657,0 -2.19589,1.252093 -2.64742,2.647425 l -6.5246,20.163117 c -0.45153,1.395336 1.18086,2.646408 2.64743,2.646408 h 55.033145 c 1.466566,0 3.085485,-1.24679 2.647423,-2.646408 l -6.311125,-20.163117 c -0.438073,-1.399617 -1.179834,-2.647425 -2.646405,-2.647425 h -5.268295 c 0.562348,1.225653 0.795185,2.503601 0.158315,3.443083 -4.610107,6.800653 -27.678408,6.884665 -31.768078,0.09805 -0.59533,-0.987922 -0.79352,-2.162165 -0.48005,-3.541135 z"
         id="path899"
         inkscape:connector-curvature="0" />
      <path
         inkscape:connector-curvature="0"
         id="path901"
         d="m -111.30053,24.154244 c -0.77036,0 -1.15048,0.658294 -1.39112,1.390102 l -2.40638,7.319232 c -0.24065,0.73181 0.63529,1.236102 1.3901,1.390102 3.4103,0.695783 6.75513,0.730241 10.02283,0 0.75182,-0.168011 1.62103,-0.65517 1.3901,-1.390102 l -2.29913,-7.319232 c -0.23093,-0.734932 -0.62076,-1.390102 -1.39112,-1.390102 z m 12.624294,21.297881 c -6.419724,2.878332 -13.865644,2.690696 -19.892454,0.377912 l -3.32767,11.421105 c 0,1.466572 1.32674,2.007633 2.6464,2.647426 6.56697,3.183774 14.89123,3.464166 21.480712,0 1.29812,-0.682436 3.07049,-1.243202 2.647426,-2.647426 z m -31.030644,20.762676 c -1.46657,0 -2.19589,1.252093 -2.64742,2.647425 l -6.5246,20.163117 c -0.45153,1.395336 1.18086,2.646408 2.64743,2.646408 h 55.033145 c 1.466566,0 3.085485,-1.24679 2.647423,-2.646408 l -6.311125,-20.163117 c -0.438073,-1.399617 -1.179834,-2.647425 -2.646405,-2.647425 h -5.268295 c 0.562348,1.225653 0.795185,2.503601 0.158315,3.443083 -4.610107,6.800653 -27.678408,6.884665 -31.768078,0.09805 -0.59533,-0.987922 -0.79352,-2.162165 -0.48005,-3.541135 z"
         style="fill:none;fill-opacity:1;stroke:#000000;stroke-width:1.70000005;stroke-linecap:round;stroke-linejoin:round;stroke-miterlimit:4;stroke-dasharray:none;stroke-opacity:0.00784314" />
      <path
         style="fill:none;fill-opacity:1;stroke:#000000;stroke-width:1.89999998;stroke-linecap:round;stroke-linejoin:round;stroke-miterlimit:4;stroke-dasharray:none;stroke-opacity:0.00784314"
         d="m -111.30053,24.154244 c -0.77036,0 -1.15048,0.658294 -1.39112,1.390102 l -2.40638,7.319232 c -0.24065,0.73181 0.63529,1.236102 1.3901,1.390102 3.4103,0.695783 6.75513,0.730241 10.02283,0 0.75182,-0.168011 1.62103,-0.65517 1.3901,-1.390102 l -2.29913,-7.319232 c -0.23093,-0.734932 -0.62076,-1.390102 -1.39112,-1.390102 z m 12.624294,21.297881 c -6.419724,2.878332 -13.865644,2.690696 -19.892454,0.377912 l -3.32767,11.421105 c 0,1.466572 1.32674,2.007633 2.6464,2.647426 6.56697,3.183774 14.89123,3.464166 21.480712,0 1.29812,-0.682436 3.07049,-1.243202 2.647426,-2.647426 z m -31.030644,20.762676 c -1.46657,0 -2.19589,1.252093 -2.64742,2.647425 l -6.5246,20.163117 c -0.45153,1.395336 1.18086,2.646408 2.64743,2.646408 h 55.033145 c 1.466566,0 3.085485,-1.24679 2.647423,-2.646408 l -6.311125,-20.163117 c -0.438073,-1.399617 -1.179834,-2.647425 -2.646405,-2.647425 h -5.268295 c 0.562348,1.225653 0.795185,2.503601 0.158315,3.443083 -4.610107,6.800653 -27.678408,6.884665 -31.768078,0.09805 -0.59533,-0.987922 -0.79352,-2.162165 -0.48005,-3.541135 z"
         id="path903"
         inkscape:connector-curvature="0" />
      <path
         inkscape:connector-curvature="0"
         id="path905"
         d="m -111.30053,24.154244 c -0.77036,0 -1.15048,0.658294 -1.39112,1.390102 l -2.40638,7.319232 c -0.24065,0.73181 0.63529,1.236102 1.3901,1.390102 3.4103,0.695783 6.75513,0.730241 10.02283,0 0.75182,-0.168011 1.62103,-0.65517 1.3901,-1.390102 l -2.29913,-7.319232 c -0.23093,-0.734932 -0.62076,-1.390102 -1.39112,-1.390102 z m 12.624294,21.297881 c -6.419724,2.878332 -13.865644,2.690696 -19.892454,0.377912 l -3.32767,11.421105 c 0,1.466572 1.32674,2.007633 2.6464,2.647426 6.56697,3.183774 14.89123,3.464166 21.480712,0 1.29812,-0.682436 3.07049,-1.243202 2.647426,-2.647426 z m -31.030644,20.762676 c -1.46657,0 -2.19589,1.252093 -2.64742,2.647425 l -6.5246,20.163117 c -0.45153,1.395336 1.18086,2.646408 2.64743,2.646408 h 55.033145 c 1.466566,0 3.085485,-1.24679 2.647423,-2.646408 l -6.311125,-20.163117 c -0.438073,-1.399617 -1.179834,-2.647425 -2.646405,-2.647425 h -5.268295 c 0.562348,1.225653 0.795185,2.503601 0.158315,3.443083 -4.610107,6.800653 -27.678408,6.884665 -31.768078,0.09805 -0.59533,-0.987922 -0.79352,-2.162165 -0.48005,-3.541135 z"
         style="fill:none;fill-opacity:1;stroke:#000000;stroke-width:2.0999999;stroke-linecap:round;stroke-linejoin:round;stroke-miterlimit:4;stroke-dasharray:none;stroke-opacity:0.00784314" />
      <path
         style="fill:none;fill-opacity:1;stroke:#000000;stroke-width:2.5;stroke-linecap:round;stroke-linejoin:round;stroke-miterlimit:4;stroke-dasharray:none;stroke-opacity:0.00784314"
         d="m -111.30053,24.154244 c -0.77036,0 -1.15048,0.658294 -1.39112,1.390102 l -2.40638,7.319232 c -0.24065,0.73181 0.63529,1.236102 1.3901,1.390102 3.4103,0.695783 6.75513,0.730241 10.02283,0 0.75182,-0.168011 1.62103,-0.65517 1.3901,-1.390102 l -2.29913,-7.319232 c -0.23093,-0.734932 -0.62076,-1.390102 -1.39112,-1.390102 z m 12.624294,21.297881 c -6.419724,2.878332 -13.865644,2.690696 -19.892454,0.377912 l -3.32767,11.421105 c 0,1.466572 1.32674,2.007633 2.6464,2.647426 6.56697,3.183774 14.89123,3.464166 21.480712,0 1.29812,-0.682436 3.07049,-1.243202 2.647426,-2.647426 z m -31.030644,20.762676 c -1.46657,0 -2.19589,1.252093 -2.64742,2.647425 l -6.5246,20.163117 c -0.45153,1.395336 1.18086,2.646408 2.64743,2.646408 h 55.033145 c 1.466566,0 3.085485,-1.24679 2.647423,-2.646408 l -6.311125,-20.163117 c -0.438073,-1.399617 -1.179834,-2.647425 -2.646405,-2.647425 h -5.268295 c 0.562348,1.225653 0.795185,2.503601 0.158315,3.443083 -4.610107,6.800653 -27.678408,6.884665 -31.768078,0.09805 -0.59533,-0.987922 -0.79352,-2.162165 -0.48005,-3.541135 z"
         id="path907"
         inkscape:connector-curvature="0" />
      <path
         inkscape:connector-curvature="0"
         id="path909"
         d="m -111.30053,24.154244 c -0.77036,0 -1.15048,0.658294 -1.39112,1.390102 l -2.40638,7.319232 c -0.24065,0.73181 0.63529,1.236102 1.3901,1.390102 3.4103,0.695783 6.75513,0.730241 10.02283,0 0.75182,-0.168011 1.62103,-0.65517 1.3901,-1.390102 l -2.29913,-7.319232 c -0.23093,-0.734932 -0.62076,-1.390102 -1.39112,-1.390102 z m 12.624294,21.297881 c -6.419724,2.878332 -13.865644,2.690696 -19.892454,0.377912 l -3.32767,11.421105 c 0,1.466572 1.32674,2.007633 2.6464,2.647426 6.56697,3.183774 14.89123,3.464166 21.480712,0 1.29812,-0.682436 3.07049,-1.243202 2.647426,-2.647426 z m -31.030644,20.762676 c -1.46657,0 -2.19589,1.252093 -2.64742,2.647425 l -6.5246,20.163117 c -0.45153,1.395336 1.18086,2.646408 2.64743,2.646408 h 55.033145 c 1.466566,0 3.085485,-1.24679 2.647423,-2.646408 l -6.311125,-20.163117 c -0.438073,-1.399617 -1.179834,-2.647425 -2.646405,-2.647425 h -5.268295 c 0.562348,1.225653 0.795185,2.503601 0.158315,3.443083 -4.610107,6.800653 -27.678408,6.884665 -31.768078,0.09805 -0.59533,-0.987922 -0.79352,-2.162165 -0.48005,-3.541135 z"
         style="fill:none;fill-opacity:1;stroke:#000000;stroke-width:2.9000001;stroke-linecap:round;stroke-linejoin:round;stroke-miterlimit:4;stroke-dasharray:none;stroke-opacity:0.00784314" />
      <path
         style="fill:none;fill-opacity:1;stroke:#000000;stroke-width:3.29999995;stroke-linecap:round;stroke-linejoin:round;stroke-miterlimit:4;stroke-dasharray:none;stroke-opacity:0.00784314"
         d="m -111.30053,24.154244 c -0.77036,0 -1.15048,0.658294 -1.39112,1.390102 l -2.40638,7.319232 c -0.24065,0.73181 0.63529,1.236102 1.3901,1.390102 3.4103,0.695783 6.75513,0.730241 10.02283,0 0.75182,-0.168011 1.62103,-0.65517 1.3901,-1.390102 l -2.29913,-7.319232 c -0.23093,-0.734932 -0.62076,-1.390102 -1.39112,-1.390102 z m 12.624294,21.297881 c -6.419724,2.878332 -13.865644,2.690696 -19.892454,0.377912 l -3.32767,11.421105 c 0,1.466572 1.32674,2.007633 2.6464,2.647426 6.56697,3.183774 14.89123,3.464166 21.480712,0 1.29812,-0.682436 3.07049,-1.243202 2.647426,-2.647426 z m -31.030644,20.762676 c -1.46657,0 -2.19589,1.252093 -2.64742,2.647425 l -6.5246,20.163117 c -0.45153,1.395336 1.18086,2.646408 2.64743,2.646408 h 55.033145 c 1.466566,0 3.085485,-1.24679 2.647423,-2.646408 l -6.311125,-20.163117 c -0.438073,-1.399617 -1.179834,-2.647425 -2.646405,-2.647425 h -5.268295 c 0.562348,1.225653 0.795185,2.503601 0.158315,3.443083 -4.610107,6.800653 -27.678408,6.884665 -31.768078,0.09805 -0.59533,-0.987922 -0.79352,-2.162165 -0.48005,-3.541135 z"
         id="path911"
         inkscape:connector-curvature="0" />
      <path
         inkscape:connector-curvature="0"
         id="path913"
         d="m -111.30053,24.154244 c -0.77036,0 -1.15048,0.658294 -1.39112,1.390102 l -2.40638,7.319232 c -0.24065,0.73181 0.63529,1.236102 1.3901,1.390102 3.4103,0.695783 6.75513,0.730241 10.02283,0 0.75182,-0.168011 1.62103,-0.65517 1.3901,-1.390102 l -2.29913,-7.319232 c -0.23093,-0.734932 -0.62076,-1.390102 -1.39112,-1.390102 z m 12.624294,21.297881 c -6.419724,2.878332 -13.865644,2.690696 -19.892454,0.377912 l -3.32767,11.421105 c 0,1.466572 1.32674,2.007633 2.6464,2.647426 6.56697,3.183774 14.89123,3.464166 21.480712,0 1.29812,-0.682436 3.07049,-1.243202 2.647426,-2.647426 z m -31.030644,20.762676 c -1.46657,0 -2.19589,1.252093 -2.64742,2.647425 l -6.5246,20.163117 c -0.45153,1.395336 1.18086,2.646408 2.64743,2.646408 h 55.033145 c 1.466566,0 3.085485,-1.24679 2.647423,-2.646408 l -6.311125,-20.163117 c -0.438073,-1.399617 -1.179834,-2.647425 -2.646405,-2.647425 h -5.268295 c 0.562348,1.225653 0.795185,2.503601 0.158315,3.443083 -4.610107,6.800653 -27.678408,6.884665 -31.768078,0.09805 -0.59533,-0.987922 -0.79352,-2.162165 -0.48005,-3.541135 z"
         style="fill:none;fill-opacity:1;stroke:#000000;stroke-width:3.70000005;stroke-linecap:round;stroke-linejoin:round;stroke-miterlimit:4;stroke-dasharray:none;stroke-opacity:0.00784314" />
      <path
         style="fill:none;fill-opacity:1;stroke:#000000;stroke-width:4.0999999;stroke-linecap:round;stroke-linejoin:round;stroke-miterlimit:4;stroke-dasharray:none;stroke-opacity:0.00784314"
         d="m -111.30053,24.154244 c -0.77036,0 -1.15048,0.658294 -1.39112,1.390102 l -2.40638,7.319232 c -0.24065,0.73181 0.63529,1.236102 1.3901,1.390102 3.4103,0.695783 6.75513,0.730241 10.02283,0 0.75182,-0.168011 1.62103,-0.65517 1.3901,-1.390102 l -2.29913,-7.319232 c -0.23093,-0.734932 -0.62076,-1.390102 -1.39112,-1.390102 z m 12.624294,21.297881 c -6.419724,2.878332 -13.865644,2.690696 -19.892454,0.377912 l -3.32767,11.421105 c 0,1.466572 1.32674,2.007633 2.6464,2.647426 6.56697,3.183774 14.89123,3.464166 21.480712,0 1.29812,-0.682436 3.07049,-1.243202 2.647426,-2.647426 z m -31.030644,20.762676 c -1.46657,0 -2.19589,1.252093 -2.64742,2.647425 l -6.5246,20.163117 c -0.45153,1.395336 1.18086,2.646408 2.64743,2.646408 h 55.033145 c 1.466566,0 3.085485,-1.24679 2.647423,-2.646408 l -6.311125,-20.163117 c -0.438073,-1.399617 -1.179834,-2.647425 -2.646405,-2.647425 h -5.268295 c 0.562348,1.225653 0.795185,2.503601 0.158315,3.443083 -4.610107,6.800653 -27.678408,6.884665 -31.768078,0.09805 -0.59533,-0.987922 -0.79352,-2.162165 -0.48005,-3.541135 z"
         id="path915"
         inkscape:connector-curvature="0" />
      <path
         inkscape:connector-curvature="0"
         id="path917"
         d="m -111.30053,24.154244 c -0.77036,0 -1.15048,0.658294 -1.39112,1.390102 l -2.40638,7.319232 c -0.24065,0.73181 0.63529,1.236102 1.3901,1.390102 3.4103,0.695783 6.75513,0.730241 10.02283,0 0.75182,-0.168011 1.62103,-0.65517 1.3901,-1.390102 l -2.29913,-7.319232 c -0.23093,-0.734932 -0.62076,-1.390102 -1.39112,-1.390102 z m 12.624294,21.297881 c -6.419724,2.878332 -13.865644,2.690696 -19.892454,0.377912 l -3.32767,11.421105 c 0,1.466572 1.32674,2.007633 2.6464,2.647426 6.56697,3.183774 14.89123,3.464166 21.480712,0 1.29812,-0.682436 3.07049,-1.243202 2.647426,-2.647426 z m -31.030644,20.762676 c -1.46657,0 -2.19589,1.252093 -2.64742,2.647425 l -6.5246,20.163117 c -0.45153,1.395336 1.18086,2.646408 2.64743,2.646408 h 55.033145 c 1.466566,0 3.085485,-1.24679 2.647423,-2.646408 l -6.311125,-20.163117 c -0.438073,-1.399617 -1.179834,-2.647425 -2.646405,-2.647425 h -5.268295 c 0.562348,1.225653 0.795185,2.503601 0.158315,3.443083 -4.610107,6.800653 -27.678408,6.884665 -31.768078,0.09805 -0.59533,-0.987922 -0.79352,-2.162165 -0.48005,-3.541135 z"
         style="fill:none;fill-opacity:1;stroke:#000000;stroke-width:4.5;stroke-linecap:round;stroke-linejoin:round;stroke-miterlimit:4;stroke-dasharray:none;stroke-opacity:0.00784314" />
      <path
         style="fill:none;fill-opacity:1;stroke:#000000;stroke-width:4.9000001;stroke-linecap:round;stroke-linejoin:round;stroke-miterlimit:4;stroke-dasharray:none;stroke-opacity:0.00784314"
         d="m -111.30053,24.154244 c -0.77036,0 -1.15048,0.658294 -1.39112,1.390102 l -2.40638,7.319232 c -0.24065,0.73181 0.63529,1.236102 1.3901,1.390102 3.4103,0.695783 6.75513,0.730241 10.02283,0 0.75182,-0.168011 1.62103,-0.65517 1.3901,-1.390102 l -2.29913,-7.319232 c -0.23093,-0.734932 -0.62076,-1.390102 -1.39112,-1.390102 z m 12.624294,21.297881 c -6.419724,2.878332 -13.865644,2.690696 -19.892454,0.377912 l -3.32767,11.421105 c 0,1.466572 1.32674,2.007633 2.6464,2.647426 6.56697,3.183774 14.89123,3.464166 21.480712,0 1.29812,-0.682436 3.07049,-1.243202 2.647426,-2.647426 z m -31.030644,20.762676 c -1.46657,0 -2.19589,1.252093 -2.64742,2.647425 l -6.5246,20.163117 c -0.45153,1.395336 1.18086,2.646408 2.64743,2.646408 h 55.033145 c 1.466566,0 3.085485,-1.24679 2.647423,-2.646408 l -6.311125,-20.163117 c -0.438073,-1.399617 -1.179834,-2.647425 -2.646405,-2.647425 h -5.268295 c 0.562348,1.225653 0.795185,2.503601 0.158315,3.443083 -4.610107,6.800653 -27.678408,6.884665 -31.768078,0.09805 -0.59533,-0.987922 -0.79352,-2.162165 -0.48005,-3.541135 z"
         id="path919"
         inkscape:connector-curvature="0" />
      <path
         inkscape:connector-curvature="0"
         id="path921"
         d="m -111.30053,24.154244 c -0.77036,0 -1.15048,0.658294 -1.39112,1.390102 l -2.40638,7.319232 c -0.24065,0.73181 0.63529,1.236102 1.3901,1.390102 3.4103,0.695783 6.75513,0.730241 10.02283,0 0.75182,-0.168011 1.62103,-0.65517 1.3901,-1.390102 l -2.29913,-7.319232 c -0.23093,-0.734932 -0.62076,-1.390102 -1.39112,-1.390102 z m 12.624294,21.297881 c -6.419724,2.878332 -13.865644,2.690696 -19.892454,0.377912 l -3.32767,11.421105 c 0,1.466572 1.32674,2.007633 2.6464,2.647426 6.56697,3.183774 14.89123,3.464166 21.480712,0 1.29812,-0.682436 3.07049,-1.243202 2.647426,-2.647426 z m -31.030644,20.762676 c -1.46657,0 -2.19589,1.252093 -2.64742,2.647425 l -6.5246,20.163117 c -0.45153,1.395336 1.18086,2.646408 2.64743,2.646408 h 55.033145 c 1.466566,0 3.085485,-1.24679 2.647423,-2.646408 l -6.311125,-20.163117 c -0.438073,-1.399617 -1.179834,-2.647425 -2.646405,-2.647425 h -5.268295 c 0.562348,1.225653 0.795185,2.503601 0.158315,3.443083 -4.610107,6.800653 -27.678408,6.884665 -31.768078,0.09805 -0.59533,-0.987922 -0.79352,-2.162165 -0.48005,-3.541135 z"
         style="fill:none;fill-opacity:1;stroke:#000000;stroke-width:5.30000019;stroke-linecap:round;stroke-linejoin:round;stroke-miterlimit:4;stroke-dasharray:none;stroke-opacity:0.00784314" />
      <path
         style="fill:none;fill-opacity:1;stroke:#000000;stroke-width:5.9000001;stroke-linecap:round;stroke-linejoin:round;stroke-miterlimit:4;stroke-dasharray:none;stroke-opacity:0.00784314"
         d="m -111.30053,24.154244 c -0.77036,0 -1.15048,0.658294 -1.39112,1.390102 l -2.40638,7.319232 c -0.24065,0.73181 0.63529,1.236102 1.3901,1.390102 3.4103,0.695783 6.75513,0.730241 10.02283,0 0.75182,-0.168011 1.62103,-0.65517 1.3901,-1.390102 l -2.29913,-7.319232 c -0.23093,-0.734932 -0.62076,-1.390102 -1.39112,-1.390102 z m 12.624294,21.297881 c -6.419724,2.878332 -13.865644,2.690696 -19.892454,0.377912 l -3.32767,11.421105 c 0,1.466572 1.32674,2.007633 2.6464,2.647426 6.56697,3.183774 14.89123,3.464166 21.480712,0 1.29812,-0.682436 3.07049,-1.243202 2.647426,-2.647426 z m -31.030644,20.762676 c -1.46657,0 -2.19589,1.252093 -2.64742,2.647425 l -6.5246,20.163117 c -0.45153,1.395336 1.18086,2.646408 2.64743,2.646408 h 55.033145 c 1.466566,0 3.085485,-1.24679 2.647423,-2.646408 l -6.311125,-20.163117 c -0.438073,-1.399617 -1.179834,-2.647425 -2.646405,-2.647425 h -5.268295 c 0.562348,1.225653 0.795185,2.503601 0.158315,3.443083 -4.610107,6.800653 -27.678408,6.884665 -31.768078,0.09805 -0.59533,-0.987922 -0.79352,-2.162165 -0.48005,-3.541135 z"
         id="path923"
         inkscape:connector-curvature="0" />
      <path
         inkscape:connector-curvature="0"
         id="path925"
         d="m -111.30053,24.154244 c -0.77036,0 -1.15048,0.658294 -1.39112,1.390102 l -2.40638,7.319232 c -0.24065,0.73181 0.63529,1.236102 1.3901,1.390102 3.4103,0.695783 6.75513,0.730241 10.02283,0 0.75182,-0.168011 1.62103,-0.65517 1.3901,-1.390102 l -2.29913,-7.319232 c -0.23093,-0.734932 -0.62076,-1.390102 -1.39112,-1.390102 z m 12.624294,21.297881 c -6.419724,2.878332 -13.865644,2.690696 -19.892454,0.377912 l -3.32767,11.421105 c 0,1.466572 1.32674,2.007633 2.6464,2.647426 6.56697,3.183774 14.89123,3.464166 21.480712,0 1.29812,-0.682436 3.07049,-1.243202 2.647426,-2.647426 z m -31.030644,20.762676 c -1.46657,0 -2.19589,1.252093 -2.64742,2.647425 l -6.5246,20.163117 c -0.45153,1.395336 1.18086,2.646408 2.64743,2.646408 h 55.033145 c 1.466566,0 3.085485,-1.24679 2.647423,-2.646408 l -6.311125,-20.163117 c -0.438073,-1.399617 -1.179834,-2.647425 -2.646405,-2.647425 h -5.268295 c 0.562348,1.225653 0.795185,2.503601 0.158315,3.443083 -4.610107,6.800653 -27.678408,6.884665 -31.768078,0.09805 -0.59533,-0.987922 -0.79352,-2.162165 -0.48005,-3.541135 z"
         style="fill:none;fill-opacity:1;stroke:#000000;stroke-width:6.5;stroke-linecap:round;stroke-linejoin:round;stroke-miterlimit:4;stroke-dasharray:none;stroke-opacity:0.00784314" />
      <path
         style="fill:none;fill-opacity:1;stroke:#000000;stroke-width:7.0999999;stroke-linecap:round;stroke-linejoin:round;stroke-miterlimit:4;stroke-dasharray:none;stroke-opacity:0.00784314"
         d="m -111.30053,24.154244 c -0.77036,0 -1.15048,0.658294 -1.39112,1.390102 l -2.40638,7.319232 c -0.24065,0.73181 0.63529,1.236102 1.3901,1.390102 3.4103,0.695783 6.75513,0.730241 10.02283,0 0.75182,-0.168011 1.62103,-0.65517 1.3901,-1.390102 l -2.29913,-7.319232 c -0.23093,-0.734932 -0.62076,-1.390102 -1.39112,-1.390102 z m 12.624294,21.297881 c -6.419724,2.878332 -13.865644,2.690696 -19.892454,0.377912 l -3.32767,11.421105 c 0,1.466572 1.32674,2.007633 2.6464,2.647426 6.56697,3.183774 14.89123,3.464166 21.480712,0 1.29812,-0.682436 3.07049,-1.243202 2.647426,-2.647426 z m -31.030644,20.762676 c -1.46657,0 -2.19589,1.252093 -2.64742,2.647425 l -6.5246,20.163117 c -0.45153,1.395336 1.18086,2.646408 2.64743,2.646408 h 55.033145 c 1.466566,0 3.085485,-1.24679 2.647423,-2.646408 l -6.311125,-20.163117 c -0.438073,-1.399617 -1.179834,-2.647425 -2.646405,-2.647425 h -5.268295 c 0.562348,1.225653 0.795185,2.503601 0.158315,3.443083 -4.610107,6.800653 -27.678408,6.884665 -31.768078,0.09805 -0.59533,-0.987922 -0.79352,-2.162165 -0.48005,-3.541135 z"
         id="path927"
         inkscape:connector-curvature="0" />
      <path
         inkscape:connector-curvature="0"
         id="path929"
         d="m -111.30053,24.154244 c -0.77036,0 -1.15048,0.658294 -1.39112,1.390102 l -2.40638,7.319232 c -0.24065,0.73181 0.63529,1.236102 1.3901,1.390102 3.4103,0.695783 6.75513,0.730241 10.02283,0 0.75182,-0.168011 1.62103,-0.65517 1.3901,-1.390102 l -2.29913,-7.319232 c -0.23093,-0.734932 -0.62076,-1.390102 -1.39112,-1.390102 z m 12.624294,21.297881 c -6.419724,2.878332 -13.865644,2.690696 -19.892454,0.377912 l -3.32767,11.421105 c 0,1.466572 1.32674,2.007633 2.6464,2.647426 6.56697,3.183774 14.89123,3.464166 21.480712,0 1.29812,-0.682436 3.07049,-1.243202 2.647426,-2.647426 z m -31.030644,20.762676 c -1.46657,0 -2.19589,1.252093 -2.64742,2.647425 l -6.5246,20.163117 c -0.45153,1.395336 1.18086,2.646408 2.64743,2.646408 h 55.033145 c 1.466566,0 3.085485,-1.24679 2.647423,-2.646408 l -6.311125,-20.163117 c -0.438073,-1.399617 -1.179834,-2.647425 -2.646405,-2.647425 h -5.268295 c 0.562348,1.225653 0.795185,2.503601 0.158315,3.443083 -4.610107,6.800653 -27.678408,6.884665 -31.768078,0.09805 -0.59533,-0.987922 -0.79352,-2.162165 -0.48005,-3.541135 z"
         style="fill:none;fill-opacity:1;stroke:#000000;stroke-width:7.69999981;stroke-linecap:round;stroke-linejoin:round;stroke-miterlimit:4;stroke-dasharray:none;stroke-opacity:0.00784314" />
      <path
         style="fill:none;fill-opacity:1;stroke:#000000;stroke-width:8.30000019;stroke-linecap:round;stroke-linejoin:round;stroke-miterlimit:4;stroke-dasharray:none;stroke-opacity:0.00784314"
         d="m -111.30053,24.154244 c -0.77036,0 -1.15048,0.658294 -1.39112,1.390102 l -2.40638,7.319232 c -0.24065,0.73181 0.63529,1.236102 1.3901,1.390102 3.4103,0.695783 6.75513,0.730241 10.02283,0 0.75182,-0.168011 1.62103,-0.65517 1.3901,-1.390102 l -2.29913,-7.319232 c -0.23093,-0.734932 -0.62076,-1.390102 -1.39112,-1.390102 z m 12.624294,21.297881 c -6.419724,2.878332 -13.865644,2.690696 -19.892454,0.377912 l -3.32767,11.421105 c 0,1.466572 1.32674,2.007633 2.6464,2.647426 6.56697,3.183774 14.89123,3.464166 21.480712,0 1.29812,-0.682436 3.07049,-1.243202 2.647426,-2.647426 z m -31.030644,20.762676 c -1.46657,0 -2.19589,1.252093 -2.64742,2.647425 l -6.5246,20.163117 c -0.45153,1.395336 1.18086,2.646408 2.64743,2.646408 h 55.033145 c 1.466566,0 3.085485,-1.24679 2.647423,-2.646408 l -6.311125,-20.163117 c -0.438073,-1.399617 -1.179834,-2.647425 -2.646405,-2.647425 h -5.268295 c 0.562348,1.225653 0.795185,2.503601 0.158315,3.443083 -4.610107,6.800653 -27.678408,6.884665 -31.768078,0.09805 -0.59533,-0.987922 -0.79352,-2.162165 -0.48005,-3.541135 z"
         id="path931"
         inkscape:connector-curvature="0" />
      <path
         inkscape:connector-curvature="0"
         id="path933"
         d="m -111.30053,24.154244 c -0.77036,0 -1.15048,0.658294 -1.39112,1.390102 l -2.40638,7.319232 c -0.24065,0.73181 0.63529,1.236102 1.3901,1.390102 3.4103,0.695783 6.75513,0.730241 10.02283,0 0.75182,-0.168011 1.62103,-0.65517 1.3901,-1.390102 l -2.29913,-7.319232 c -0.23093,-0.734932 -0.62076,-1.390102 -1.39112,-1.390102 z m 12.624294,21.297881 c -6.419724,2.878332 -13.865644,2.690696 -19.892454,0.377912 l -3.32767,11.421105 c 0,1.466572 1.32674,2.007633 2.6464,2.647426 6.56697,3.183774 14.89123,3.464166 21.480712,0 1.29812,-0.682436 3.07049,-1.243202 2.647426,-2.647426 z m -31.030644,20.762676 c -1.46657,0 -2.19589,1.252093 -2.64742,2.647425 l -6.5246,20.163117 c -0.45153,1.395336 1.18086,2.646408 2.64743,2.646408 h 55.033145 c 1.466566,0 3.085485,-1.24679 2.647423,-2.646408 l -6.311125,-20.163117 c -0.438073,-1.399617 -1.179834,-2.647425 -2.646405,-2.647425 h -5.268295 c 0.562348,1.225653 0.795185,2.503601 0.158315,3.443083 -4.610107,6.800653 -27.678408,6.884665 -31.768078,0.09805 -0.59533,-0.987922 -0.79352,-2.162165 -0.48005,-3.541135 z"
         style="fill:none;fill-opacity:1;stroke:#000000;stroke-width:9.30000019;stroke-linecap:round;stroke-linejoin:round;stroke-miterlimit:4;stroke-dasharray:none;stroke-opacity:0.00784314" />
      <path
         style="fill:none;fill-opacity:1;stroke:#000000;stroke-width:10.30000019;stroke-linecap:round;stroke-linejoin:round;stroke-miterlimit:4;stroke-dasharray:none;stroke-opacity:0.00784314"
         d="m -111.30053,24.154244 c -0.77036,0 -1.15048,0.658294 -1.39112,1.390102 l -2.40638,7.319232 c -0.24065,0.73181 0.63529,1.236102 1.3901,1.390102 3.4103,0.695783 6.75513,0.730241 10.02283,0 0.75182,-0.168011 1.62103,-0.65517 1.3901,-1.390102 l -2.29913,-7.319232 c -0.23093,-0.734932 -0.62076,-1.390102 -1.39112,-1.390102 z m 12.624294,21.297881 c -6.419724,2.878332 -13.865644,2.690696 -19.892454,0.377912 l -3.32767,11.421105 c 0,1.466572 1.32674,2.007633 2.6464,2.647426 6.56697,3.183774 14.89123,3.464166 21.480712,0 1.29812,-0.682436 3.07049,-1.243202 2.647426,-2.647426 z m -31.030644,20.762676 c -1.46657,0 -2.19589,1.252093 -2.64742,2.647425 l -6.5246,20.163117 c -0.45153,1.395336 1.18086,2.646408 2.64743,2.646408 h 55.033145 c 1.466566,0 3.085485,-1.24679 2.647423,-2.646408 l -6.311125,-20.163117 c -0.438073,-1.399617 -1.179834,-2.647425 -2.646405,-2.647425 h -5.268295 c 0.562348,1.225653 0.795185,2.503601 0.158315,3.443083 -4.610107,6.800653 -27.678408,6.884665 -31.768078,0.09805 -0.59533,-0.987922 -0.79352,-2.162165 -0.48005,-3.541135 z"
         id="path935"
         inkscape:connector-curvature="0" />
      <path
         inkscape:connector-curvature="0"
         id="path937"
         d="m -111.30053,24.154244 c -0.77036,0 -1.15048,0.658294 -1.39112,1.390102 l -2.40638,7.319232 c -0.24065,0.73181 0.63529,1.236102 1.3901,1.390102 3.4103,0.695783 6.75513,0.730241 10.02283,0 0.75182,-0.168011 1.62103,-0.65517 1.3901,-1.390102 l -2.29913,-7.319232 c -0.23093,-0.734932 -0.62076,-1.390102 -1.39112,-1.390102 z m 12.624294,21.297881 c -6.419724,2.878332 -13.865644,2.690696 -19.892454,0.377912 l -3.32767,11.421105 c 0,1.466572 1.32674,2.007633 2.6464,2.647426 6.56697,3.183774 14.89123,3.464166 21.480712,0 1.29812,-0.682436 3.07049,-1.243202 2.647426,-2.647426 z m -31.030644,20.762676 c -1.46657,0 -2.19589,1.252093 -2.64742,2.647425 l -6.5246,20.163117 c -0.45153,1.395336 1.18086,2.646408 2.64743,2.646408 h 55.033145 c 1.466566,0 3.085485,-1.24679 2.647423,-2.646408 l -6.311125,-20.163117 c -0.438073,-1.399617 -1.179834,-2.647425 -2.646405,-2.647425 h -5.268295 c 0.562348,1.225653 0.795185,2.503601 0.158315,3.443083 -4.610107,6.800653 -27.678408,6.884665 -31.768078,0.09805 -0.59533,-0.987922 -0.79352,-2.162165 -0.48005,-3.541135 z"
         style="fill:none;fill-opacity:1;stroke:#000000;stroke-width:11.30000019;stroke-linecap:round;stroke-linejoin:round;stroke-miterlimit:4;stroke-dasharray:none;stroke-opacity:0.00784314" />
      <path
         style="fill:none;fill-opacity:1;stroke:#000000;stroke-width:12.30000019;stroke-linecap:round;stroke-linejoin:round;stroke-miterlimit:4;stroke-dasharray:none;stroke-opacity:0.00784314"
         d="m -111.30053,24.154244 c -0.77036,0 -1.15048,0.658294 -1.39112,1.390102 l -2.40638,7.319232 c -0.24065,0.73181 0.63529,1.236102 1.3901,1.390102 3.4103,0.695783 6.75513,0.730241 10.02283,0 0.75182,-0.168011 1.62103,-0.65517 1.3901,-1.390102 l -2.29913,-7.319232 c -0.23093,-0.734932 -0.62076,-1.390102 -1.39112,-1.390102 z m 12.624294,21.297881 c -6.419724,2.878332 -13.865644,2.690696 -19.892454,0.377912 l -3.32767,11.421105 c 0,1.466572 1.32674,2.007633 2.6464,2.647426 6.56697,3.183774 14.89123,3.464166 21.480712,0 1.29812,-0.682436 3.07049,-1.243202 2.647426,-2.647426 z m -31.030644,20.762676 c -1.46657,0 -2.19589,1.252093 -2.64742,2.647425 l -6.5246,20.163117 c -0.45153,1.395336 1.18086,2.646408 2.64743,2.646408 h 55.033145 c 1.466566,0 3.085485,-1.24679 2.647423,-2.646408 l -6.311125,-20.163117 c -0.438073,-1.399617 -1.179834,-2.647425 -2.646405,-2.647425 h -5.268295 c 0.562348,1.225653 0.795185,2.503601 0.158315,3.443083 -4.610107,6.800653 -27.678408,6.884665 -31.768078,0.09805 -0.59533,-0.987922 -0.79352,-2.162165 -0.48005,-3.541135 z"
         id="path939"
         inkscape:connector-curvature="0" />
      <path
         inkscape:connector-curvature="0"
         id="path941"
         d="m -111.30053,24.154244 c -0.77036,0 -1.15048,0.658294 -1.39112,1.390102 l -2.40638,7.319232 c -0.24065,0.73181 0.63529,1.236102 1.3901,1.390102 3.4103,0.695783 6.75513,0.730241 10.02283,0 0.75182,-0.168011 1.62103,-0.65517 1.3901,-1.390102 l -2.29913,-7.319232 c -0.23093,-0.734932 -0.62076,-1.390102 -1.39112,-1.390102 z m 12.624294,21.297881 c -6.419724,2.878332 -13.865644,2.690696 -19.892454,0.377912 l -3.32767,11.421105 c 0,1.466572 1.32674,2.007633 2.6464,2.647426 6.56697,3.183774 14.89123,3.464166 21.480712,0 1.29812,-0.682436 3.07049,-1.243202 2.647426,-2.647426 z m -31.030644,20.762676 c -1.46657,0 -2.19589,1.252093 -2.64742,2.647425 l -6.5246,20.163117 c -0.45153,1.395336 1.18086,2.646408 2.64743,2.646408 h 55.033145 c 1.466566,0 3.085485,-1.24679 2.647423,-2.646408 l -6.311125,-20.163117 c -0.438073,-1.399617 -1.179834,-2.647425 -2.646405,-2.647425 h -5.268295 c 0.562348,1.225653 0.795185,2.503601 0.158315,3.443083 -4.610107,6.800653 -27.678408,6.884665 -31.768078,0.09805 -0.59533,-0.987922 -0.79352,-2.162165 -0.48005,-3.541135 z"
         style="fill:none;fill-opacity:1;stroke:#000000;stroke-width:13.30000019;stroke-linecap:round;stroke-linejoin:round;stroke-miterlimit:4;stroke-dasharray:none;stroke-opacity:0.00784314" />
      <path
         style="fill:none;fill-opacity:1;stroke:#000000;stroke-width:15.30000019;stroke-linecap:round;stroke-linejoin:round;stroke-miterlimit:4;stroke-dasharray:none;stroke-opacity:0.00784314"
         d="m -111.30053,24.154244 c -0.77036,0 -1.15048,0.658294 -1.39112,1.390102 l -2.40638,7.319232 c -0.24065,0.73181 0.63529,1.236102 1.3901,1.390102 3.4103,0.695783 6.75513,0.730241 10.02283,0 0.75182,-0.168011 1.62103,-0.65517 1.3901,-1.390102 l -2.29913,-7.319232 c -0.23093,-0.734932 -0.62076,-1.390102 -1.39112,-1.390102 z m 12.624294,21.297881 c -6.419724,2.878332 -13.865644,2.690696 -19.892454,0.377912 l -3.32767,11.421105 c 0,1.466572 1.32674,2.007633 2.6464,2.647426 6.56697,3.183774 14.89123,3.464166 21.480712,0 1.29812,-0.682436 3.07049,-1.243202 2.647426,-2.647426 z m -31.030644,20.762676 c -1.46657,0 -2.19589,1.252093 -2.64742,2.647425 l -6.5246,20.163117 c -0.45153,1.395336 1.18086,2.646408 2.64743,2.646408 h 55.033145 c 1.466566,0 3.085485,-1.24679 2.647423,-2.646408 l -6.311125,-20.163117 c -0.438073,-1.399617 -1.179834,-2.647425 -2.646405,-2.647425 h -5.268295 c 0.562348,1.225653 0.795185,2.503601 0.158315,3.443083 -4.610107,6.800653 -27.678408,6.884665 -31.768078,0.09805 -0.59533,-0.987922 -0.79352,-2.162165 -0.48005,-3.541135 z"
         id="path943"
         inkscape:connector-curvature="0" />
    </g>
    <path
       style="fill:#ffffff;fill-opacity:1;stroke:none;stroke-width:6.79832602;stroke-miterlimit:4;stroke-dasharray:none"
       d="m 57.871631,30.108544 c -0.77036,0 -1.150484,0.658294 -1.391124,1.390102 l -2.406379,7.319232 c -0.240645,0.73181 0.63529,1.236102 1.390102,1.390102 3.410302,0.695783 6.755134,0.730241 10.022834,0 0.751816,-0.168011 1.62103,-0.65517 1.390101,-1.390102 l -2.299133,-7.319232 c -0.230928,-0.734932 -0.620763,-1.390102 -1.391123,-1.390102 z m 12.624295,21.297881 c -6.419722,2.878332 -13.865642,2.690696 -19.892458,0.377912 l -3.327666,11.421105 c 0,1.466572 1.326744,2.007633 2.646404,2.647426 6.566968,3.183774 14.891221,3.464166 21.480708,0 1.29812,-0.682436 3.07049,-1.243202 2.647426,-2.647426 z M 39.465285,72.169101 c -1.466571,0 -2.195891,1.252093 -2.647425,2.647425 l -6.524595,20.163117 c -0.451534,1.395336 1.180853,2.646408 2.647425,2.646408 h 55.033147 c 1.466566,0 3.085485,-1.24679 2.647423,-2.646408 L 84.310135,74.816526 C 83.872062,73.416909 83.130301,72.169101 81.66373,72.169101 h -5.268295 c 0.562348,1.225653 0.795185,2.503601 0.158315,3.443083 -4.610107,6.800653 -27.678405,6.884665 -31.768079,0.09805 -0.595331,-0.987922 -0.793517,-2.162165 -0.480051,-3.541135 z"
       id="rect855-6"
       inkscape:connector-curvature="0" />
  </g>
</svg>
