<?xml version="1.0" encoding="UTF-8" standalone="no"?>
<!-- Created with Inkscape (http://www.inkscape.org/) -->

<svg
   xmlns:dc="http://purl.org/dc/elements/1.1/"
   xmlns:cc="http://creativecommons.org/ns#"
   xmlns:rdf="http://www.w3.org/1999/02/22-rdf-syntax-ns#"
   xmlns:svg="http://www.w3.org/2000/svg"
   xmlns="http://www.w3.org/2000/svg"
   xmlns:sodipodi="http://sodipodi.sourceforge.net/DTD/sodipodi-0.dtd"
   xmlns:inkscape="http://www.inkscape.org/namespaces/inkscape"
   width="128"
   height="128"
   version="1.1"
   viewBox="0 0 33.866 33.866"
   id="svg135"
   sodipodi:docname="waterfox.svg"
   inkscape:version="0.92.4 (5da689c313, 2019-01-14)">
  <sodipodi:namedview
     pagecolor="#ffffff"
     bordercolor="#666666"
     borderopacity="1"
     objecttolerance="10"
     gridtolerance="10"
     guidetolerance="10"
     inkscape:pageopacity="0"
     inkscape:pageshadow="2"
     inkscape:window-width="1920"
     inkscape:window-height="1022"
     id="namedview137"
     showgrid="false"
     inkscape:zoom="3.6875"
     inkscape:cx="32"
     inkscape:cy="86.237288"
     inkscape:window-x="0"
     inkscape:window-y="30"
     inkscape:window-maximized="1"
     inkscape:current-layer="svg135" />
  <defs
     id="defs73">
    <linearGradient
       id="linearGradient852"
       x1="-112.45"
       x2="-112.42"
       y1="271.04001"
       y2="265.14001"
       gradientUnits="userSpaceOnUse">
      <stop
         stop-color="#0094eb"
         offset="0"
         id="stop2" />
      <stop
         stop-color="#06cfeb"
         offset="1"
         id="stop4" />
    </linearGradient>
    <linearGradient
       id="linearGradient860"
       x1="7.0401001"
       x2="5.7666998"
       y1="286.23999"
       y2="293.70999"
       gradientUnits="userSpaceOnUse">
      <stop
         stop-color="#29f2ff"
         offset="0"
         id="stop7" />
      <stop
         stop-color="#16d5fb"
         offset="1"
         id="stop9" />
    </linearGradient>
    <linearGradient
       id="linearGradient868"
       x1="32.799"
       x2="27.072001"
       y1="42.111"
       y2="39.571999"
       gradientUnits="userSpaceOnUse">
      <stop
         stop-color="#19dafc"
         offset="0"
         id="stop12" />
      <stop
         stop-color="#17c2f9"
         offset="1"
         id="stop14" />
    </linearGradient>
    <linearGradient
       id="linearGradient878"
       x1="8.9981003"
       x2="10.294"
       y1="289.45001"
       y2="291.56"
       gradientUnits="userSpaceOnUse">
      <stop
         stop-color="#059af2"
         offset="0"
         id="stop17" />
      <stop
         stop-color="#0598f3"
         stop-opacity="0"
         offset="1"
         id="stop19" />
    </linearGradient>
    <linearGradient
       id="linearGradient886"
       x1="11.571"
       x2="11.096"
       y1="293.42999"
       y2="289.54999"
       gradientUnits="userSpaceOnUse">
      <stop
         stop-color="#0bc3fc"
         offset="0"
         id="stop22" />
      <stop
         stop-color="#0dd4fe"
         offset="1"
         id="stop24" />
    </linearGradient>
    <linearGradient
       id="linearGradient894"
       x1="11.607"
       x2="11.217"
       y1="294.76001"
       y2="291.42001"
       gradientUnits="userSpaceOnUse">
      <stop
         stop-color="#09a7f8"
         offset="0"
         id="stop27" />
      <stop
         stop-color="#0fbffb"
         offset="1"
         id="stop29" />
    </linearGradient>
    <linearGradient
       id="linearGradient902"
       x1="11.713"
       x2="14.149"
       y1="291.60001"
       y2="286.73001"
       gradientUnits="userSpaceOnUse">
      <stop
         stop-color="#3a7aec"
         offset="0"
         id="stop32" />
      <stop
         stop-color="#7892f2"
         offset="1"
         id="stop34" />
    </linearGradient>
    <linearGradient
       id="linearGradient924"
       x1="5.2502999"
       x2="5.5640998"
       y1="287.29999"
       y2="285.59"
       gradientUnits="userSpaceOnUse">
      <stop
         stop-color="#08e3ff"
         offset="0"
         id="stop37" />
      <stop
         stop-color="#5cfbfc"
         offset="1"
         id="stop39" />
    </linearGradient>
    <linearGradient
       id="linearGradient932"
       x1="10.855"
       x2="11.759"
       y1="283.67999"
       y2="282.57001"
       gradientUnits="userSpaceOnUse">
      <stop
         stop-color="#6ee8fe"
         offset="0"
         id="stop42" />
      <stop
         stop-color="#a3f0fe"
         offset="1"
         id="stop44" />
    </linearGradient>
    <linearGradient
       id="linearGradient968"
       x1="30.379"
       x2="45.719002"
       y1="24.664"
       y2="24.664"
       gradientUnits="userSpaceOnUse">
      <stop
         stop-color="#b6fdfe"
         offset="0"
         id="stop47" />
      <stop
         stop-color="#cafefe"
         offset="1"
         id="stop49" />
    </linearGradient>
    <linearGradient
       id="linearGradient976"
       x1="38.877998"
       x2="41.801998"
       y1="24.172001"
       y2="27.079"
       gradientUnits="userSpaceOnUse">
      <stop
         stop-color="#abe7f8"
         offset="0"
         id="stop52" />
      <stop
         stop-color="#bef6fd"
         offset="1"
         id="stop54" />
    </linearGradient>
    <radialGradient
       id="radialGradient978"
       cx="8.6604996"
       cy="283.81"
       r="1.5041"
       gradientTransform="matrix(1.9106,0.078065,-0.047151,1.154,5.4527,-44.482)"
       gradientUnits="userSpaceOnUse">
      <stop
         stop-color="#8df5fe"
         offset="0"
         id="stop57" />
      <stop
         stop-color="#46eaff"
         offset="1"
         id="stop59" />
    </radialGradient>
    <linearGradient
       id="linearGradient1002"
       x1="8.3722"
       x2="8.3248997"
       y1="281.26001"
       y2="295.34"
       gradientUnits="userSpaceOnUse">
      <stop
         stop-color="#f1f1f1"
         offset="0"
         id="stop62" />
      <stop
         stop-color="#fff"
         offset="1"
         id="stop64" />
    </linearGradient>
    <filter
       id="filter1022"
       x="-0.035999998"
       y="-0.035999998"
       width="1.072"
       height="1.072"
       style="color-interpolation-filters:sRGB">
      <feGaussianBlur
         stdDeviation="0.238125"
         id="feGaussianBlur67" />
    </filter>
    <filter
       id="filter1080"
       x="-0.056001998"
       y="-0.064612001"
       width="1.112"
       height="1.1292"
       style="color-interpolation-filters:sRGB">
      <feGaussianBlur
         stdDeviation="0.32652092"
         id="feGaussianBlur70" />
    </filter>
  </defs>
  <metadata
     id="metadata75">
    <rdf:RDF>
      <cc:Work
         rdf:about="">
        <dc:format>image/svg+xml</dc:format>
        <dc:type
           rdf:resource="http://purl.org/dc/dcmitype/StillImage" />
        <dc:title></dc:title>
      </cc:Work>
    </rdf:RDF>
  </metadata>
  <g
     transform="matrix(1.9907892,0,0,1.9907892,0.04191075,-557.44001)"
     id="g133">
    <circle
       cx="8.4666996"
       cy="288.53"
       r="7.9375"
       style="opacity:0.25;paint-order:normal;filter:url(#filter1022)"
       id="circle77" />
    <circle
       cx="8.4666996"
       cy="288.53"
       r="7.9375"
       style="fill:url(#linearGradient1002);paint-order:normal"
       id="circle79" />
    <g
       transform="matrix(0.86977,0,0,0.86977,1.2455,37.569)"
       id="g105"
       style="opacity:0.15;filter:url(#filter1080)">
      <path
         transform="matrix(0.92176,-0.38775,0.4003,0.91639,0,0)"
         d="m -112.36,264.53 c 0.73666,0 1.5053,0.66631 1.5029,1.403 l -0.0216,6.6115 c -0.002,0.73668 -0.7176,1.1739 -1.4543,1.1739 -0.7367,0 -1.4573,-0.62167 -1.4582,-1.3583 l -0.008,-6.3663 c -9.2e-4,-0.73665 0.70255,-1.4638 1.4392,-1.4638 z"
         style="opacity:1;paint-order:normal"
         id="path81"
         inkscape:connector-curvature="0" />
      <path
         d="m 14.627,285.98 c -0.67903,-0.28564 -1.6543,0.0269 -1.9469,0.70293 l -2.6267,6.0671 c -0.29305,0.67586 0.17974,1.4485 0.85876,1.7341 0.67903,0.28564 1.604,-0.0991 1.8997,-0.7738 l 2.5558,-5.8308 c 0.29573,-0.6747 -0.06162,-1.6138 -0.74064,-1.8995 z"
         style="opacity:1;paint-order:normal"
         id="path83"
         inkscape:connector-curvature="0" />
      <path
         d="m 9.4787,286.92 c 0.74869,0.97276 1.3095,2.1081 1.7264,2.8238 0.41692,0.71564 0.48742,0.86607 0.80484,1.4515 0.31743,0.58542 1.0304,1.0651 1.7583,0.33374 -0.06556,0.16646 -0.63891,1.5792 -0.92787,2.1644 -0.19233,0.38953 -0.31829,0.52394 -0.65837,0.71608 -0.64137,0.36238 -1.6181,0.13869 -1.9925,-0.49576 l -3.2294,-5.4734 c 1.153,-0.69533 1.3235,-0.83713 2.5186,-1.5204 z"
         style="opacity:1;paint-order:normal"
         id="path85"
         inkscape:connector-curvature="0" />
      <path
         d="m 7.5214,287.46 c 0.83279,0.98115 2.8291,4.5533 3.1749,5.0159 0.34575,0.46256 0.98119,0.95821 1.6226,0.59583 0.34008,-0.19214 0.50591,-0.37395 0.78858,-0.70383 0.22693,-0.26483 0.48073,-0.57508 0.67748,-0.83303 0.0015,-0.002 0.0031,-0.003 0.0047,-0.004 -0.06556,0.16646 -0.65672,1.5764 -0.94568,2.1616 -0.19233,0.38953 -0.31828,0.52358 -0.65836,0.71572 -0.64137,0.36238 -1.6183,0.13887 -1.9926,-0.49558 l -3.2293,-5.4737 c 0.23046,-0.38236 0.31257,-0.51306 0.55777,-0.97893 z"
         style="opacity:1;paint-order:normal"
         id="path87"
         inkscape:connector-curvature="0" />
      <path
         d="m 9.4787,286.92 c 0.74869,0.97276 1.3095,2.1081 1.7264,2.8238 0.41692,0.71564 0.48742,0.86607 0.80484,1.4515 0.31743,0.58542 1.0304,1.0651 1.7583,0.33374 -0.06556,0.16646 -0.63891,1.5792 -0.92787,2.1644 -0.19233,0.38953 -0.31829,0.52394 -0.65837,0.71608 -0.64137,0.36238 -1.6181,0.13869 -1.9925,-0.49576 l -3.2294,-5.4734 c 1.153,-0.69533 1.3235,-0.83713 2.5186,-1.5204 z"
         style="opacity:1;paint-order:normal"
         id="path89"
         inkscape:connector-curvature="0" />
      <path
         d="m 9.7166,285.33 c -0.80203,0.16087 -1.7942,0.97097 -2.2435,1.5548 -0.74869,0.97276 -1.3095,2.1081 -1.7264,2.8238 -0.41692,0.71564 -0.48742,0.86607 -0.80484,1.4515 -0.31743,0.58542 -1.0481,1.0681 -1.776,0.33669 0.065564,0.16646 0.65662,1.5762 0.94559,2.1614 0.19233,0.38953 0.31829,0.52394 0.65837,0.71608 0.64137,0.36238 1.6181,0.13869 1.9925,-0.49576 l 3.2294,-5.4734 c 0.18717,-0.31723 0.54304,-0.83477 1.0511,-1.347 0.54335,-0.54774 1.2342,-0.86621 1.0125,-1.2202 -0.47647,-0.76079 -1.5367,-0.66876 -2.3387,-0.5079 z"
         style="opacity:1;paint-order:normal"
         id="path91"
         inkscape:connector-curvature="0" />
      <path
         transform="matrix(0.26458,0,0,0.26458,0,280.07)"
         d="m 44.643,21.932 c -0.18143,-0.01305 -0.37094,-0.013 -0.57031,0.002 -2.7191,0.20398 -6.1896,3.0272 -7.5328,4.6097 -3.1476,3.7083 -11.577,18.472 -12.883,20.22 -1.3068,1.7483 -3.7084,3.6216 -6.1325,2.252 -1.2853,-0.7262 -1.9121,-1.4134 -2.9805,-2.6602 -0.85767,-1.0009 -1.8169,-2.1735 -2.5605,-3.1484 -0.0058,-0.0058 -0.01175,-0.0098 -0.01758,-0.01563 0.2478,0.62914 2.4821,5.958 3.5742,8.1699 0.72693,1.4722 1.203,1.9789 2.4883,2.7051 2.4241,1.3696 6.1164,0.52488 7.5312,-1.873 l 12.205,-20.688 c 0.70742,-1.199 2.0523,-3.154 3.9727,-5.0898 1.8616,-1.8766 4.1735,-3.0421 3.9668,-4.2402 -0.32136,-0.12555 -0.67,-0.21605 -1.0605,-0.24414 z"
         style="opacity:1;paint-order:normal"
         id="path93"
         inkscape:connector-curvature="0" />
      <path
         d="m 5.801,287.44 c -0.45626,-0.16508 -0.8287,-0.49434 -0.87998,-1.1136 -0.051274,-0.61926 0.31706,-1.0637 0.74271,-1.0421 0.42565,0.0216 0.57116,0.37722 0.47182,0.70906 -0.099344,0.33185 -0.19943,0.45763 -0.26153,0.68705 -0.0621,0.22942 -0.0636,0.46943 -0.07302,0.75954 z"
         id="path95"
         inkscape:connector-curvature="0"
         style="opacity:1" />
      <path
         d="m 6.9991,286.19 c -0.38464,-0.65771 -0.28243,-1.4041 -0.058465,-1.9544 0.22396,-0.55032 0.76373,-1.1601 1.3614,-1.3196 0.59767,-0.1595 1.1417,-0.0736 1.3865,0.53454 0.2448,0.60812 -0.28531,1.361 -0.91874,1.5368 -0.63343,0.1758 -1.219,0.51572 -1.7707,1.2027 z"
         id="path97"
         inkscape:connector-curvature="0" />
      <circle
         cx="11.342"
         cy="283.14001"
         r="0.67653"
         style="opacity:1;paint-order:normal"
         id="circle99" />
      <path
         transform="matrix(0.26458,0,0,0.26458,0,280.07)"
         d="m 40.379,19.467 c -1.2434,-0.0014 -2.5176,0.18998 -3.6543,0.41797 -1.4267,0.28617 -3.0086,1.1241 -4.4648,2.1523 -1.0042,1.2503 -1.745,2.7416 -1.8555,4.459 -0.29625,3.4556 2.1038,4.2135 4.1875,2.4375 0.31882,-0.27175 0.4981,-0.50086 0.6875,-0.71289 0.89753,-0.83277 6.3117,-2.9258 9.7676,-4.6992 0.58502,-0.59856 0.87259,-1.1468 0.51562,-1.7168 -1.1255,-1.7971 -3.1113,-2.3355 -5.1836,-2.3379 z"
         style="opacity:1;paint-order:normal"
         id="path101"
         inkscape:connector-curvature="0" />
      <path
         transform="matrix(0.26458,0,0,0.26458,0,280.07)"
         d="m 44.643,21.932 c -0.18143,-0.01305 -0.37094,-0.01305 -0.57031,0.002 -2.7191,0.20398 -6.19,3.0269 -7.5332,4.6094 -0.35325,0.41618 -0.77928,0.98777 -1.248,1.6484 0.96322,1.4549 2.679,1.6774 4.3945,0.5625 0.59158,-0.75002 1.2594,-1.5401 2.0508,-2.3379 1.8616,-1.8766 4.1735,-3.0421 3.9668,-4.2402 -0.32136,-0.12555 -0.67,-0.21605 -1.0605,-0.24414 z"
         style="opacity:1;paint-order:normal"
         id="path103"
         inkscape:connector-curvature="0" />
    </g>
    <g
       transform="matrix(0.86977,0,0,0.86977,1.0951,37.207)"
       id="g131">
      <path
         transform="matrix(0.92176,-0.38775,0.4003,0.91639,0,0)"
         d="m -112.36,264.53 c 0.73666,0 1.5053,0.66631 1.5029,1.403 l -0.0216,6.6115 c -0.002,0.73668 -0.7176,1.1739 -1.4543,1.1739 -0.7367,0 -1.4573,-0.62167 -1.4582,-1.3583 l -0.008,-6.3663 c -9.2e-4,-0.73665 0.70255,-1.4638 1.4392,-1.4638 z"
         style="fill:url(#linearGradient852);paint-order:normal"
         id="path107"
         inkscape:connector-curvature="0" />
      <path
         d="m 14.627,285.98 c -0.67903,-0.28564 -1.6543,0.0269 -1.9469,0.70293 l -2.6267,6.0671 c -0.29305,0.67586 0.17974,1.4485 0.85876,1.7341 0.67903,0.28564 1.604,-0.0991 1.8997,-0.7738 l 2.5558,-5.8308 c 0.29573,-0.6747 -0.06162,-1.6138 -0.74064,-1.8995 z"
         style="fill:url(#linearGradient902);paint-order:normal"
         id="path109"
         inkscape:connector-curvature="0" />
      <path
         d="m 9.4787,286.92 c 0.74869,0.97276 1.3095,2.1081 1.7264,2.8238 0.41692,0.71564 0.48742,0.86607 0.80484,1.4515 0.31743,0.58542 1.0304,1.0651 1.7583,0.33374 -0.06556,0.16646 -0.63891,1.5792 -0.92787,2.1644 -0.19233,0.38953 -0.31829,0.52394 -0.65837,0.71608 -0.64137,0.36238 -1.6181,0.13869 -1.9925,-0.49576 l -3.2294,-5.4734 c 1.153,-0.69533 1.3235,-0.83713 2.5186,-1.5204 z"
         style="fill:url(#linearGradient886);paint-order:normal"
         id="path111"
         inkscape:connector-curvature="0" />
      <path
         d="m 7.5214,287.46 c 0.83279,0.98115 2.8291,4.5533 3.1749,5.0159 0.34575,0.46256 0.98119,0.95821 1.6226,0.59583 0.34008,-0.19214 0.50591,-0.37395 0.78858,-0.70383 0.22693,-0.26483 0.48073,-0.57508 0.67748,-0.83303 0.0015,-0.002 0.0031,-0.003 0.0047,-0.004 -0.06556,0.16646 -0.65672,1.5764 -0.94568,2.1616 -0.19233,0.38953 -0.31828,0.52358 -0.65836,0.71572 -0.64137,0.36238 -1.6183,0.13887 -1.9926,-0.49558 l -3.2293,-5.4737 c 0.23046,-0.38236 0.31257,-0.51306 0.55777,-0.97893 z"
         style="fill:url(#linearGradient894);paint-order:normal"
         id="path113"
         inkscape:connector-curvature="0" />
      <path
         d="m 9.4787,286.92 c 0.74869,0.97276 1.3095,2.1081 1.7264,2.8238 0.41692,0.71564 0.48742,0.86607 0.80484,1.4515 0.31743,0.58542 1.0304,1.0651 1.7583,0.33374 -0.06556,0.16646 -0.63891,1.5792 -0.92787,2.1644 -0.19233,0.38953 -0.31829,0.52394 -0.65837,0.71608 -0.64137,0.36238 -1.6181,0.13869 -1.9925,-0.49576 l -3.2294,-5.4734 c 1.153,-0.69533 1.3235,-0.83713 2.5186,-1.5204 z"
         style="fill:url(#linearGradient878);paint-order:normal"
         id="path115"
         inkscape:connector-curvature="0" />
      <path
         d="m 9.7114,285.37 c -0.80203,0.16087 -1.789,0.92972 -2.2383,1.5136 -0.74869,0.97276 -1.3095,2.1081 -1.7264,2.8238 -0.41692,0.71564 -0.48742,0.86607 -0.80484,1.4515 -0.31743,0.58542 -1.0481,1.0681 -1.776,0.33669 0.065564,0.16646 0.65662,1.5762 0.94559,2.1614 0.19233,0.38953 0.31829,0.52394 0.65837,0.71608 0.64137,0.36238 1.6181,0.13869 1.9925,-0.49576 l 3.2294,-5.4734 c 0.18717,-0.31723 0.54304,-0.83477 1.0511,-1.347 0.54335,-0.54774 1.1977,-0.85163 0.97604,-1.2056 -0.47647,-0.76079 -1.4745,-0.65242 -2.2765,-0.49156 z"
         style="fill:url(#linearGradient860);paint-order:normal"
         id="path117"
         inkscape:connector-curvature="0" />
      <path
         transform="matrix(0.26458,0,0,0.26458,0,280.07)"
         d="m 44.643,21.932 c -0.18143,-0.01305 -0.37094,-0.013 -0.57031,0.002 -2.7191,0.20398 -6.1896,3.0272 -7.5328,4.6097 -3.1476,3.7083 -11.577,18.472 -12.883,20.22 -1.3068,1.7483 -3.7084,3.6216 -6.1325,2.252 -1.2853,-0.7262 -1.9121,-1.4134 -2.9805,-2.6602 -0.85767,-1.0009 -1.8169,-2.1735 -2.5605,-3.1484 -0.0058,-0.0058 -0.01175,-0.0098 -0.01758,-0.01563 0.2478,0.62914 2.4821,5.958 3.5742,8.1699 0.72693,1.4722 1.203,1.9789 2.4883,2.7051 2.4241,1.3696 6.1164,0.52488 7.5312,-1.873 l 12.205,-20.688 c 0.70742,-1.199 1.9834,-3.1816 3.9038,-5.1174 1.8616,-1.8766 4.1184,-2.9594 3.9117,-4.1575 -0.32136,-0.12555 -0.54599,-0.27117 -0.93649,-0.29926 z"
         style="fill:url(#linearGradient868);paint-order:normal"
         id="path119"
         inkscape:connector-curvature="0" />
      <path
         d="m 5.801,287.44 c -0.45626,-0.16508 -0.8287,-0.49434 -0.87998,-1.1136 -0.051274,-0.61926 0.31706,-1.0637 0.74271,-1.0421 0.42565,0.0216 0.57116,0.37722 0.47182,0.70906 -0.099344,0.33185 -0.19943,0.45763 -0.26153,0.68705 -0.0621,0.22942 -0.0636,0.46943 -0.07302,0.75954 z"
         id="path121"
         inkscape:connector-curvature="0"
         style="fill:url(#linearGradient924)" />
      <path
         d="m 6.9991,286.19 c -0.38464,-0.65771 -0.28243,-1.4041 -0.058465,-1.9544 0.22396,-0.55032 0.76373,-1.1601 1.3614,-1.3196 0.59767,-0.1595 1.1417,-0.0736 1.3865,0.53454 0.2448,0.60812 -0.28531,1.361 -0.91874,1.5368 -0.63343,0.1758 -1.219,0.51572 -1.7707,1.2027 z"
         id="path123"
         inkscape:connector-curvature="0"
         style="fill:url(#radialGradient978)" />
      <circle
         cx="11.342"
         cy="283.14001"
         r="0.67653"
         style="fill:url(#linearGradient932);paint-order:normal"
         id="circle125" />
      <path
         transform="matrix(0.26458,0,0,0.26458,0,280.07)"
         d="m 40.379,19.467 c -1.2434,-0.0014 -2.5176,0.18998 -3.6543,0.41797 -1.4267,0.28617 -3.0086,1.1241 -4.4648,2.1523 -1.0042,1.2503 -1.745,2.7416 -1.8555,4.459 -0.29625,3.4556 2.1038,4.2135 4.1875,2.4375 0.31882,-0.27175 0.4981,-0.50086 0.6875,-0.71289 0.89753,-0.83277 6.3117,-2.9258 9.7676,-4.6992 0.58502,-0.59856 0.87259,-1.1468 0.51562,-1.7168 -1.1255,-1.7971 -3.1113,-2.3355 -5.1836,-2.3379 z"
         style="fill:url(#linearGradient968);paint-order:normal"
         id="path127"
         inkscape:connector-curvature="0" />
      <path
         transform="matrix(0.26458,0,0,0.26458,0,280.07)"
         d="m 44.643,21.932 c -0.18143,-0.01305 -0.37094,-0.01305 -0.57031,0.002 -2.7191,0.20398 -6.19,3.0269 -7.5332,4.6094 -0.35325,0.41618 -0.77928,0.98777 -1.248,1.6484 0.96322,1.4549 2.679,1.6774 4.3945,0.5625 0.59158,-0.75002 1.2594,-1.5401 2.0508,-2.3379 1.8616,-1.8766 4.1735,-3.0421 3.9668,-4.2402 -0.32136,-0.12555 -0.67,-0.21605 -1.0605,-0.24414 z"
         style="fill:url(#linearGradient976);paint-order:normal"
         id="path129"
         inkscape:connector-curvature="0" />
    </g>
  </g>
</svg>
