<?xml version="1.0" encoding="UTF-8" standalone="no"?>
<svg
   xmlns:svg="http://www.w3.org/2000/svg"
   xmlns="http://www.w3.org/2000/svg"
   xmlns:sodipodi="http://sodipodi.sourceforge.net/DTD/sodipodi-0.dtd"
   xmlns:inkscape="http://www.inkscape.org/namespaces/inkscape"
   width="22"
   height="22"
   viewBox="0 0 22 22"
   version="1.1"
   id="svg7"
   sodipodi:docname="color-select.svg"
   inkscape:version="1.1-dev (1:0.92.0+devel+202004260039+9758c7a)">
  <sodipodi:namedview
     width="22px"
     pagecolor="#ffffff"
     bordercolor="#666666"
     borderopacity="1"
     objecttolerance="10"
     gridtolerance="10"
     guidetolerance="10"
     inkscape:pageopacity="0"
     inkscape:pageshadow="2"
     inkscape:window-width="1920"
     inkscape:window-height="1024"
     id="namedview9"
     showgrid="false"
     inkscape:zoom="23.375"
     inkscape:cx="8"
     inkscape:cy="8"
     inkscape:window-x="0"
     inkscape:window-y="30"
     inkscape:window-maximized="1"
     inkscape:current-layer="svg7" />
  <defs
     id="defs3">
    <style
       id="current-color-scheme"
       type="text/css">
   .ColorScheme-Text { color:#5c616c; } .ColorScheme-Highlight { color:#5294e2; }
  </style>
  </defs>
  <path
     d="m 16.268164,1.3696269 c -0.911525,0.010525 -1.818299,0.369216 -2.509074,1.0753159 v 0.00233 L 11.272845,4.9883094 10.875594,4.6001917 C 10.467457,4.2009109 9.9368583,4.005397 9.4098737,4.0111714 9.1463691,4.0135091 8.8851873,4.0672796 8.638202,4.1709748 8.3912249,4.2746585 8.1597757,4.428103 7.9601341,4.6321618 7.6606689,4.938268 7.4744957,5.3126038 7.4030698,5.7029072 c -0.023811,0.130101 -0.033408,0.2609389 -0.031959,0.3926882 0,0 0,0.00233 0,0.00233 0.00163,0.1309892 0.014587,0.261605 0.0411,0.3904086 0,0 0,0.00233 0,0.00233 0.079965,0.3886436 0.2737933,0.7575907 0.5798957,1.0570573 L 8.412188,7.9586902 8.69757,8.2372213 4.8757392,12.143529 c -0.1953726,0.199698 -0.3576087,0.419362 -0.4885737,0.650669 -0.2619311,0.462613 -0.3969476,0.975701 -0.4041003,1.490833 -0.00361,0.257561 0.025062,0.514876 0.084477,0.767107 l -2.1574851,2.207709 c -0.081217,0.083 -0.1517964,0.171085 -0.2123232,0.264832 -0.2428812,0.37512 -0.3200652,0.822642 -0.2328717,1.244273 1.531e-4,7.37e-4 -1.543e-4,0.0012 0,0.0023 0.065577,0.315035 0.2240802,0.615309 0.4725921,0.858423 4.242e-4,4.2e-4 -4.256e-4,0.0023 0,0.0023 0.1165893,0.114079 0.2470566,0.200529 0.3835529,0.273961 0.00152,8.06e-4 0.00305,0.0012 0.00456,0.0023 0.6403689,0.34198 1.449521,0.244971 1.9839738,-0.301372 l 2.1597682,-2.207711 c 1.0134891,0.214896 2.1069232,-0.07131 2.8880622,-0.869841 l 3.8218336,-3.906279 0.705463,0.68949 c 0.816276,0.798562 2.116884,0.78437 2.915458,-0.03191 0.798568,-0.816271 0.784314,-2.116897 -0.03196,-2.915458 L 16.370913,9.974831 18.857159,7.4337905 c 1.137866,-1.1630903 1.305122,-2.8865041 0.545649,-4.2327766 -0.02546,-0.04664 -0.04764,-0.093631 -0.07534,-0.1392655 -0.04213,-0.067447 -0.08535,-0.1335144 -0.13242,-0.1986352 -0.116433,-0.164935 -0.242657,-0.3258139 -0.392684,-0.4725839 0,0 -0.0023,0 -0.0023,0 C 18.623473,2.2178325 18.43543,2.0672634 18.236081,1.9384833 18.036616,1.8096439 17.826196,1.7038686 17.610525,1.6188529 17.395005,1.5338721 17.173468,1.4705516 16.94844,1.4293588 16.723294,1.3880957 16.495971,1.3675227 16.268089,1.3699774 Z"
     style="opacity:1;fill:#e9e8e8;fill-opacity:1;stroke:#000000;stroke-width:1.75338;stroke-linecap:butt;stroke-linejoin:round;stroke-miterlimit:4;stroke-dasharray:none;stroke-dashoffset:1;stroke-opacity:0.162864"
     id="rect1020-3" />
  <path
     d="M 14.847772,6.4336129 C 13.60611,5.2188796 11.629726,5.2405514 10.414999,6.4822402 L 4.8765147,12.143523 c -0.7814896,0.798818 -1.0452513,1.899534 -0.8076291,2.908433 l -2.1585524,2.206412 c -0.6497683,0.664171 -0.6365722,1.721568 0.02761,2.371338 0.6641833,0.64978 1.721611,0.639786 2.3713794,-0.02443 l 2.1601538,-2.20805 c 1.0134893,0.214895 2.1072764,-0.07106 2.8884152,-0.869562 L 14.896377,10.86637 c 1.214725,-1.241654 1.193056,-3.218046 -0.0486,-4.4327677 z"
     style="opacity:1;fill:#e9e8e8;fill-opacity:1;stroke:none;stroke-width:2.33785;stroke-linecap:butt;stroke-linejoin:round;stroke-miterlimit:4;stroke-dasharray:4.67569, 2.33785;stroke-dashoffset:1.16892;stroke-opacity:1"
     id="rect1020" />
  <path
     d="m 12.620421,5.5378204 c -0.801145,0.00935 -1.598067,0.324341 -2.20543,0.9451796 l -5.5386868,5.659693 c -0.7814895,0.798818 -1.045824,1.89971 -0.8082007,2.908609 l -2.1574863,2.207722 c -0.6497683,0.664171 -0.6367849,1.720036 0.0274,2.369804 0.1178745,0.115257 0.2499508,0.204749 0.3881187,0.278531 -0.1434222,-0.549557 -0.00994,-1.156357 0.4177989,-1.59357 L 4.903702,16.108358 C 4.6660804,15.099462 4.9304125,13.99857 5.7119043,13.19975 L 11.250591,7.5377779 C 12.401384,6.3614437 14.226304,6.2956216 15.471957,7.3231753 15.317516,7.0025512 15.118558,6.696796 14.848682,6.4327831 14.227852,5.8254104 13.421567,5.52903 12.620423,5.5378204 Z"
     style="opacity:1;fill:#242222;fill-opacity:0.103055;stroke:none;stroke-width:2.33785;stroke-linecap:butt;stroke-linejoin:round;stroke-miterlimit:4;stroke-dasharray:4.67569, 2.33785;stroke-dashoffset:1.16892;stroke-opacity:1"
     id="path1039" />
  <path
     sodipodi:nodetypes="sscsssssscss"
     d="M 18.802015,2.3900618 C 17.389837,1.0085113 15.140601,1.033164 13.759052,2.4453518 L 11.27264,4.986895 10.876072,4.5989294 C 10.059797,3.800356 8.7592766,3.8146169 7.9607104,4.6308411 7.162135,5.4471235 7.1764038,6.7476443 7.9926804,7.5462058 l 5.8930286,5.7651992 c 0.816273,0.798561 2.116786,0.784313 2.915362,-0.03203 0.798565,-0.816271 0.784306,-2.116791 -0.03196,-2.915353 L 16.3709,9.9744569 18.857311,7.4329137 c 1.381549,-1.4121761 1.356883,-3.6614183 -0.05529,-5.042957 z"
     style="opacity:1;fill:#ec9648;fill-opacity:1;stroke:none;stroke-width:2.33785;stroke-linecap:butt;stroke-linejoin:round;stroke-miterlimit:4;stroke-dasharray:4.67569, 2.33785;stroke-dashoffset:1.16892;stroke-opacity:1"
     id="rect1027" />
  <path
     d="m 16.26874,1.3689606 c -0.911526,0.010525 -1.818301,0.3692277 -2.509075,1.0753276 L 11.273419,4.9876081 10.876168,4.5994904 C 10.059893,3.8009171 8.7592755,3.8152247 7.9607092,4.6314021 7.1621336,5.4476845 7.1763945,6.7482988 7.9926675,7.5468604 L 8.4127494,7.9578072 C 8.3435024,7.3621121 8.5250947,6.7414021 8.9789466,6.2774799 9.7775129,5.4612558 11.078132,5.4469482 11.894406,6.2455683 l 0.397252,0.3881175 2.486245,-2.5410405 C 16.130741,2.7098091 18.3091,2.666898 19.725278,3.9625207 19.560473,3.3867793 19.263285,2.8398635 18.802924,2.389489 18.096835,1.6987138 17.180261,1.358978 16.268736,1.3689606 Z"
     style="opacity:1;fill:#ffffff;fill-opacity:0.246956;stroke:none;stroke-width:2.33785;stroke-linecap:butt;stroke-linejoin:round;stroke-miterlimit:4;stroke-dasharray:4.67569, 2.33785;stroke-dashoffset:1.16892;stroke-opacity:1"
     id="path1034" />
</svg>
