<?xml version="1.0" encoding="UTF-8" standalone="no"?>
<svg
   xmlns:dc="http://purl.org/dc/elements/1.1/"
   xmlns:cc="http://creativecommons.org/ns#"
   xmlns:rdf="http://www.w3.org/1999/02/22-rdf-syntax-ns#"
   xmlns:svg="http://www.w3.org/2000/svg"
   xmlns="http://www.w3.org/2000/svg"
   xmlns:sodipodi="http://sodipodi.sourceforge.net/DTD/sodipodi-0.dtd"
   xmlns:inkscape="http://www.inkscape.org/namespaces/inkscape"
   viewBox="0 0 22 22"
   id="svg2"
   version="1.1"
   inkscape:version="0.92.4 (unknown)"
   sodipodi:docname="document-save.svg"
   width="22"
   height="22">
  <metadata
     id="metadata10">
    <rdf:RDF>
      <cc:Work
         rdf:about="">
        <dc:format>image/svg+xml</dc:format>
        <dc:type
           rdf:resource="http://purl.org/dc/dcmitype/StillImage" />
        <dc:title></dc:title>
      </cc:Work>
    </rdf:RDF>
  </metadata>
  <sodipodi:namedview
     pagecolor="#ffffff"
     bordercolor="#666666"
     borderopacity="1"
     objecttolerance="10"
     gridtolerance="10"
     guidetolerance="10"
     inkscape:pageopacity="0"
     inkscape:pageshadow="2"
     inkscape:window-width="1920"
     inkscape:window-height="1016"
     id="namedview8"
     showgrid="false"
     inkscape:zoom="20.59375"
     inkscape:cx="3.6783005"
     inkscape:cy="4.1153262"
     inkscape:current-layer="svg2"
     inkscape:window-x="0"
     inkscape:window-y="27"
     inkscape:window-maximized="1" />
  <defs
     id="defs3051">
    <style
       type="text/css"
       id="current-color-scheme">
      .ColorScheme-Text {
        color:#bebebe;
      }
      </style>
  </defs>
  <path
     style="color:#bebebe;fill:#000000;fill-opacity:0.3125;stroke:none;stroke-width:1.46939802"
     d="M 4.850627,3.5060126 C 4.4438241,3.5053277 4.1119688,3.8339537 4.113058,4.2407116 l 0.03731,13.3250294 c 0.00109,0.406804 0.3278956,0.734699 0.7346991,0.734699 H 17.799698 c 0.406804,0 0.734699,-0.327895 0.734699,-0.734699 V 6.5050764 c 0,0 -0.07709,-0.3841932 -0.215244,-0.522324 L 15.96869,3.7384759 C 15.827386,3.6036024 15.641764,3.5235608 15.446365,3.523232 Z m 0.4936258,0.057398 H 15.460714 V 8.9645975 H 5.3442528 Z M 11.483008,4.085736 c -0.126816,0 -0.229593,0.1176363 -0.229593,0.2640325 v 3.88013 c 0,0.1464402 0.102777,0.2640317 0.229593,0.2640317 h 1.74491 c 0.126816,0 0.229594,-0.1175915 0.229594,-0.2640317 v -3.88013 c 0,-0.1463962 -0.102778,-0.2640325 -0.229594,-0.2640325 z"
     id="path6"
     inkscape:connector-curvature="0" />
  <path
     style="color:#bebebe;fill:#000000;fill-opacity:0.68208092;stroke:none;stroke-width:1.46939802"
     d="m 3.1745947,1.8816388 c -0.4068034,0 -0.7375689,0.3308096 -0.7375689,0.7375689 V 18.776847 c 0,0.406805 0.3307655,0.737569 0.7375689,0.737569 H 19.332234 c 0.406804,0 0.737569,-0.330764 0.737569,-0.737569 V 6.04015 c 0,-0.1952977 -0.07709,-0.3841932 -0.215243,-0.5223254 L 16.430748,2.0968827 C 16.292618,1.9587593 16.106691,1.8816388 15.911291,1.8816388 Z m 1.6760323,1.6243738 10.595738,0.01722 c 0.195399,3.288e-4 0.381021,0.08037 0.522325,0.2152439 l 2.350463,2.244276 c 0.138153,0.1381381 0.215244,0.5223254 0.215244,0.5223254 V 17.565741 c 0,0.406804 -0.327895,0.734699 -0.734699,0.734699 H 4.8850659 c -0.4068035,0 -0.7336097,-0.327895 -0.7346991,-0.734699 L 4.113058,4.2407116 C 4.1119688,3.8339538 4.4438241,3.5053279 4.850627,3.5060126 Z"
     id="path818"
     inkscape:connector-curvature="0" />
</svg>
