<?xml version="1.0" encoding="UTF-8" standalone="no"?>
<svg
   xmlns:svg="http://www.w3.org/2000/svg"
   xmlns="http://www.w3.org/2000/svg"
   xmlns:sodipodi="http://sodipodi.sourceforge.net/DTD/sodipodi-0.dtd"
   xmlns:inkscape="http://www.inkscape.org/namespaces/inkscape"
   width="22"
   height="22"
   viewBox="0 0 22 22"
   version="1.1"
   id="svg7"
   sodipodi:docname="draw-eraser.svg"
   inkscape:version="1.1-dev (1:0.92.0+devel+202004260039+9758c7a)">
  <sodipodi:namedview
     width="22px"
     pagecolor="#ffffff"
     bordercolor="#666666"
     borderopacity="1"
     objecttolerance="10"
     gridtolerance="10"
     guidetolerance="10"
     inkscape:pageopacity="0"
     inkscape:pageshadow="2"
     inkscape:window-width="1920"
     inkscape:window-height="1024"
     id="namedview9"
     showgrid="false"
     inkscape:zoom="33.057242"
     inkscape:cx="8"
     inkscape:cy="10.420045"
     inkscape:window-x="0"
     inkscape:window-y="30"
     inkscape:window-maximized="1"
     inkscape:current-layer="svg7" />
  <defs
     id="defs3">
    <style
       id="current-color-scheme"
       type="text/css">
   .ColorScheme-Text { color:#5c616c; } .ColorScheme-Highlight { color:#5294e2; }
  </style>
  </defs>
  <g
     id="g973"
     transform="matrix(1.0754476,0,0,1.0754476,-5.7080253,-290.36698)">
    <path
       sodipodi:nodetypes="ssscccsscss"
       d="m 208.92627,174.38898 h 8.48137 c 0.45684,0 0.82461,0.36778 0.82461,0.82461 v 7.30814 5.26565 l -2.97555,2.86711 h -6.33043 c -0.45684,0 -0.82462,-0.36778 -0.82462,-0.82462 v -7.30814 -7.30814 c 0,-0.45683 0.36778,-0.82461 0.82462,-0.82461 z"
       transform="rotate(46.311403)"
       style="opacity:1;fill:#f1a1c6;fill-opacity:1;stroke:#000000;stroke-width:1.5;stroke-linecap:round;stroke-linejoin:round;stroke-miterlimit:4;stroke-dasharray:none;stroke-opacity:0.286799"
       id="path968" />
    <path
       id="rect963"
       style="opacity:1;fill:#f1a1c6;fill-opacity:1;stroke:none;stroke-width:1.5;stroke-linecap:round;stroke-linejoin:round;stroke-miterlimit:4;stroke-dasharray:none;stroke-opacity:1"
       transform="rotate(46.311403)"
       d="m 208.92627,174.38898 h 8.48137 c 0.45684,0 0.82461,0.36778 0.82461,0.82461 v 7.30814 5.26565 l -2.97555,2.86711 h -6.33043 c -0.45684,0 -0.82462,-0.36778 -0.82462,-0.82462 v -7.30814 -7.30814 c 0,-0.45683 0.36778,-0.82461 0.82462,-0.82461 z"
       sodipodi:nodetypes="ssscccsscss" />
    <path
       sodipodi:nodetypes="cccsscc"
       d="m 218.23225,182.52173 v 5.26565 l -2.97555,2.86711 h -6.33043 c -0.45684,0 -0.82462,-0.36778 -0.82462,-0.82462 v -7.30814 z"
       transform="rotate(46.311403)"
       style="opacity:1;fill:#ebeced;fill-opacity:1;stroke:none;stroke-width:1.5;stroke-linecap:round;stroke-linejoin:round;stroke-miterlimit:4;stroke-dasharray:none;stroke-opacity:1"
       id="path966" />
  </g>
</svg>
