<?xml version="1.0" encoding="UTF-8" standalone="no"?>
<svg
   xmlns:svg="http://www.w3.org/2000/svg"
   xmlns="http://www.w3.org/2000/svg"
   xmlns:xlink="http://www.w3.org/1999/xlink"
   xmlns:sodipodi="http://sodipodi.sourceforge.net/DTD/sodipodi-0.dtd"
   xmlns:inkscape="http://www.inkscape.org/namespaces/inkscape"
   inkscape:version="1.1-dev (1:0.92.0+devel+202004260039+9758c7a)"
   sodipodi:docname="draw-line.svg"
   id="svg7"
   version="1.1"
   viewBox="0 0 16 16"
   height="16"
   width="16">
  <sodipodi:namedview
     inkscape:current-layer="svg7"
     inkscape:window-maximized="1"
     inkscape:window-y="30"
     inkscape:window-x="0"
     inkscape:cy="8"
     inkscape:cx="8"
     inkscape:zoom="23.375"
     showgrid="false"
     id="namedview9"
     inkscape:window-height="1024"
     inkscape:window-width="1920"
     inkscape:pageshadow="2"
     inkscape:pageopacity="0"
     guidetolerance="10"
     gridtolerance="10"
     objecttolerance="10"
     borderopacity="1"
     bordercolor="#666666"
     pagecolor="#ffffff" />
  <defs
     id="defs3">
    <linearGradient
       id="linearGradient832"
       inkscape:collect="always">
      <stop
         id="stop828"
         offset="0"
         style="stop-color:#a7bcd9;stop-opacity:1" />
      <stop
         id="stop830"
         offset="1"
         style="stop-color:#93a1b4;stop-opacity:1" />
    </linearGradient>
    <style
       type="text/css"
       id="current-color-scheme">
   .ColorScheme-Text { color:#5c616c; } .ColorScheme-Highlight { color:#5294e2; }
  </style>
    <linearGradient
       gradientTransform="matrix(0.94813912,0,0,0.94813912,-0.44239209,0.42293329)"
       gradientUnits="userSpaceOnUse"
       y2="5.3971639"
       x2="14.900047"
       y1="0.59111494"
       x1="11.975828"
       id="linearGradient834"
       xlink:href="#linearGradient832"
       inkscape:collect="always" />
    <linearGradient
       y2="5.3971639"
       x2="14.900047"
       y1="0.59111494"
       x1="11.975828"
       gradientTransform="matrix(0.94813912,0,0,0.94813912,-9.1335044,9.1045414)"
       gradientUnits="userSpaceOnUse"
       id="linearGradient838"
       xlink:href="#linearGradient832"
       inkscape:collect="always" />
  </defs>
  <g
     transform="matrix(0.94813912,0,0,0.94813912,0.31437681,0.49918404)"
     id="g857">
    <path
       d="M 12.482422,0.09765625 A 3.1138153,3.1138153 0 0 0 9.3691406,3.2109375 3.1138153,3.1138153 0 0 0 10.125,5.1796875 L 9.7636719,5.5410156 8.0722656,7.2324219 6.3828125,8.921875 5.2910156,10.013672 A 3.1138153,3.1138153 0 0 0 3.3164062,9.2539062 3.1138153,3.1138153 0 0 0 0.203125,12.367188 3.1138153,3.1138153 0 0 0 3.3164062,15.480469 3.1138153,3.1138153 0 0 0 6.4296875,12.367188 3.1138153,3.1138153 0 0 0 5.9316406,10.787109 L 7.0898438,9.6289062 8.7792969,7.9394531 10.470703,6.2480469 10.894531,5.8222656 a 3.1138153,3.1138153 0 0 0 1.587891,0.5019532 3.1138153,3.1138153 0 0 0 3.113281,-3.1132813 3.1138153,3.1138153 0 0 0 -3.113281,-3.11328125 z"
       style="color:#000000;fill:none;stroke:#000000;stroke-width:0.8;stroke-miterlimit:4;stroke-dasharray:none;stroke-opacity:0.17"
       id="path861" />
    <path
       id="path859"
       d="M 5.0452339,10.966356 6.7358109,9.2757789 8.426388,7.5852018 10.116965,5.8946248 11.807542,4.2040477"
       style="color:#000000;fill:none;stroke-width:1px" />
  </g>
  <path
     sodipodi:nodetypes="ccccc"
     id="path840"
     d="M 5.0979604,10.896815 6.7008626,9.2939128 8.3037648,7.6910106 9.906667,6.0881084 11.509569,4.4852061"
     style="fill:none;stroke:#869eb6;stroke-width:0.94814px;stroke-linecap:butt;stroke-linejoin:miter;stroke-opacity:1" />
  <circle
     r="2.9523301"
     cy="3.5437288"
     cx="12.149867"
     id="path826"
     style="opacity:1;fill:url(#linearGradient834);fill-opacity:1;stroke:none;stroke-width:8.95879;stroke-linecap:round;stroke-linejoin:round;stroke-opacity:0.02" />
  <circle
     style="opacity:1;fill:url(#linearGradient838);fill-opacity:1;stroke:none;stroke-width:8.95879;stroke-linecap:round;stroke-linejoin:round;stroke-opacity:0.02"
     id="circle836"
     cx="3.4587548"
     cy="12.225336"
     r="2.9523301" />
</svg>
