<?xml version="1.0" encoding="UTF-8" standalone="no"?>
<svg
   xmlns:svg="http://www.w3.org/2000/svg"
   xmlns="http://www.w3.org/2000/svg"
   xmlns:xlink="http://www.w3.org/1999/xlink"
   xmlns:sodipodi="http://sodipodi.sourceforge.net/DTD/sodipodi-0.dtd"
   xmlns:inkscape="http://www.inkscape.org/namespaces/inkscape"
   inkscape:version="1.1-dev (1:0.92.0+devel+202004260039+9758c7a)"
   sodipodi:docname="zoom.svg"
   id="svg7"
   version="1.1"
   viewBox="0 0 16 16"
   height="16"
   width="16">
  <sodipodi:namedview
     inkscape:current-layer="svg7"
     inkscape:window-maximized="1"
     inkscape:window-y="30"
     inkscape:window-x="0"
     inkscape:cy="8"
     inkscape:cx="9.5828877"
     inkscape:zoom="23.375"
     showgrid="false"
     id="namedview9"
     inkscape:window-height="1024"
     inkscape:window-width="1920"
     inkscape:pageshadow="2"
     inkscape:pageopacity="0"
     guidetolerance="10"
     gridtolerance="10"
     objecttolerance="10"
     borderopacity="1"
     bordercolor="#666666"
     pagecolor="#ffffff" />
  <defs
     id="defs3">
    <style
       type="text/css"
       id="current-color-scheme">
   .ColorScheme-Text { color:#5c616c; } .ColorScheme-Highlight { color:#5294e2; }
  </style>
    <linearGradient
       inkscape:collect="always"
       xlink:href="#linearGradient861"
       id="linearGradient863"
       x1="38.808792"
       y1="578.65491"
       x2="39.918625"
       y2="589.36188"
       gradientUnits="userSpaceOnUse"
       gradientTransform="translate(7.8311667,-3.0491858)" />
    <linearGradient
       inkscape:collect="always"
       id="linearGradient861">
      <stop
         style="stop-color:#ffffff;stop-opacity:1"
         offset="0"
         id="stop857" />
      <stop
         style="stop-color:#ffffff;stop-opacity:0"
         offset="1"
         id="stop859" />
    </linearGradient>
  </defs>
  <g
     transform="matrix(0.84389618,0,0,0.84389618,-33.605063,-488.14367)"
     id="g871">
    <path
       d="m 48.259766,580.66211 a 5.7228612,5.7228612 0 0 0 -5.72461,5.72266 5.7228612,5.7228612 0 0 0 5.72461,5.72265 5.7228612,5.7228612 0 0 0 5.722656,-5.72265 5.7228612,5.7228612 0 0 0 -5.722656,-5.72266 z m 0.126953,3.94141 a 3.6152937,1.7859946 0 0 1 3.615234,1.78515 3.6152937,1.7859946 0 0 1 -3.615234,1.78516 3.6152937,1.7859946 0 0 1 -3.615235,-1.78516 3.6152937,1.7859946 0 0 1 3.615235,-1.78515 z"
       style="color:#000000;fill:url(#linearGradient863);fill-opacity:1;stroke:none;stroke-width:1.57111;stroke-linecap:round;stroke-linejoin:round"
       id="path836" />
    <path
       id="path838"
       style="color:#000000;fill:#7f9ec8;fill-opacity:1;stroke-width:1.7;stroke-linecap:round;stroke-linejoin:round"
       d="m 48.374701,579.49748 c -3.879317,0 -7.042965,3.1617 -7.042969,7.04101 -2e-6,3.87933 3.163647,7.04297 7.042969,7.04297 1.514102,0 2.914304,-0.48637 4.064453,-1.30469 l 2.611328,2.91211 a 1.25,1.25 0 0 0 1.765625,0.0957 1.25,1.25 0 0 0 0.0957,-1.76563 l -2.714844,-3.02734 c 0.768509,-1.12824 1.218751,-2.48986 1.21875,-3.95313 -4e-6,-3.87931 -3.161698,-7.04101 -7.041015,-7.04101 z m 0,1.69922 c 2.96057,0 5.341794,2.38122 5.341797,5.34179 2e-6,2.96058 -2.381224,5.34375 -5.341797,5.34375 -2.960574,0 -5.343752,-2.38317 -5.34375,-5.34375 3e-6,-2.96057 2.383179,-5.34179 5.34375,-5.34179 z" />
  </g>
</svg>
