<?xml version="1.0" encoding="UTF-8" standalone="no"?>
<svg
   xmlns:svg="http://www.w3.org/2000/svg"
   xmlns="http://www.w3.org/2000/svg"
   xmlns:sodipodi="http://sodipodi.sourceforge.net/DTD/sodipodi-0.dtd"
   xmlns:inkscape="http://www.inkscape.org/namespaces/inkscape"
   width="22"
   height="22"
   viewBox="0 0 22 22"
   version="1.1"
   id="svg7"
   sodipodi:docname="format-text-larger.svg"
   inkscape:version="1.1-dev (1:0.92.0+devel+202004260039+9758c7a)">
  <sodipodi:namedview
     width="22px"
     pagecolor="#ffffff"
     bordercolor="#666666"
     borderopacity="1"
     objecttolerance="10"
     gridtolerance="10"
     guidetolerance="10"
     inkscape:pageopacity="0"
     inkscape:pageshadow="2"
     inkscape:window-width="1920"
     inkscape:window-height="1024"
     id="namedview9"
     showgrid="false"
     inkscape:zoom="23.375"
     inkscape:cx="6.335735"
     inkscape:cy="7.8605245"
     inkscape:window-x="0"
     inkscape:window-y="30"
     inkscape:window-maximized="1"
     inkscape:current-layer="svg7" />
  <defs
     id="defs3">
    <style
       id="current-color-scheme"
       type="text/css">
   .ColorScheme-Text { color:#5c616c; } .ColorScheme-Highlight { color:#5294e2; }
  </style>
  </defs>
  <g
     transform="matrix(1.4216018,0,0,1.4216018,-0.36097731,-0.48909504)"
     aria-label="T"
     id="g912"
     style="font-style:normal;font-variant:normal;font-weight:normal;font-stretch:normal;font-size:19.7632px;line-height:1.25;font-family:'Bitstream Charter';-inkscape-font-specification:'Bitstream Charter';letter-spacing:0px;word-spacing:0px;stroke:#000000;stroke-width:0.8;stroke-linecap:round;stroke-linejoin:round;stroke-miterlimit:4;stroke-dasharray:none;stroke-opacity:0.0792495">
    <path
       sodipodi:nodetypes="ccccccccccccccccccccc"
       id="path910"
       style="fill:#dddcdf;fill-opacity:1;stroke:#000000;stroke-width:0.8;stroke-linecap:round;stroke-linejoin:round;stroke-miterlimit:4;stroke-dasharray:none;stroke-opacity:0.0792495"
       d="M 2.4501223,1.5600917 V 5.4121779 H 3.5370984 L 3.8137832,4.5306466 4.090468,4.2341985 h 3.0435329 v 9.4012085 l -0.3557376,0.276685 -1.3241344,0.09882 v 0.810291 H 10.612324 V 14.010908 L 9.2881898,13.912088 8.9324522,13.635403 V 4.2341985 h 3.0435328 l 0.276685,0.2964481 0.276685,0.8815273 h 1.086976 V 1.5600877 Z" />
  </g>
  <path
     sodipodi:nodetypes="ccccccccccccccccccccc"
     id="path830"
     style="font-style:normal;font-variant:normal;font-weight:normal;font-stretch:normal;font-size:19.7632px;line-height:1.25;font-family:'Bitstream Charter';-inkscape-font-specification:'Bitstream Charter';letter-spacing:0px;word-spacing:0px;fill:#c2bfc8;fill-opacity:1;stroke:none;stroke-width:0.702386"
     d="M 3.1221209,1.7287341 V 7.2048667 H 4.6673681 L 5.0607037,5.9516803 5.4540393,5.5302491 H 9.7807311 V 18.895024 L 9.2750139,19.28836 7.3926221,19.428842 v 1.151912 H 14.725522 V 19.428837 L 12.84313,19.288354 12.337413,18.895018 V 5.5302491 h 4.326691 l 0.393336,0.4214312 0.393336,1.2531807 h 1.545247 V 1.7287284 Z" />
  <g
     transform="matrix(1.4216018,0,0,1.4216018,-0.36097731,-0.48909504)"
     style="font-style:normal;font-variant:normal;font-weight:normal;font-stretch:normal;font-size:19.7632px;line-height:1.25;font-family:'Bitstream Charter';-inkscape-font-specification:'Bitstream Charter';letter-spacing:0px;word-spacing:0px;stroke:none;stroke-width:0.494081"
     id="g841"
     aria-label="T">
    <path
       d="M 2.4501223,1.5600917 V 5.4121779 H 3.5370984 L 3.8137832,4.5306466 4.090468,4.2341985 h 3.0435329 v 9.4012085 l -0.3557376,0.276685 -1.3241344,0.09882 v 0.810291 H 10.612324 V 14.010908 L 9.2881898,13.912088 8.9324522,13.635403 V 4.2341985 h 3.0435328 l 0.276685,0.2964481 0.276685,0.8815273 h 1.086976 V 1.5600877 Z"
       style="fill:#dddcdf;fill-opacity:1;stroke:none;stroke-width:0.5;stroke-miterlimit:4;stroke-dasharray:none;stroke-opacity:1"
       id="path839"
       sodipodi:nodetypes="ccccccccccccccccccccc" />
  </g>
  <path
     id="path875"
     d="M 3.1221209,1.7287341 V 7.2048667 H 4.6673681 L 5.0607037,5.9516803 5.4540393,5.5302491 H 9.7807311 V 18.895024 L 9.2750139,19.28836 7.3926221,19.428842 v 1.151912 H 14.725522 V 19.428837 L 12.84313,19.288354 12.337413,18.895018 V 5.5302491 h 4.326691 l 0.393336,0.4214312 0.393336,1.2531807 h 1.545247 V 1.7287284 Z"
     style="color:#000000;font-style:normal;font-variant:normal;font-weight:normal;font-stretch:normal;font-size:19.7632px;line-height:1.25;font-family:'Bitstream Charter';-inkscape-font-specification:'Bitstream Charter';letter-spacing:0px;word-spacing:0px;fill:none;fill-opacity:0.086986;stroke-width:0.710801" />
  <path
     d="M 3.1208365,1.7293812 V 7.2047693 H 4.6673837 L 5.061656,5.952538 5.4531519,5.5305 H 9.7818182 V 18.894113 L 9.2737067,19.288384 7.3939714,19.42999 v 1.149497 H 14.726882 V 19.42999 L 12.844371,19.288384 12.336259,18.894113 V 5.5305 h 4.328666 l 0.391496,0.422038 0.394273,1.2522313 h 1.546548 V 1.7293812 Z M 3.4762369,2.0847817 H 18.641841 v 4.7645872 h -0.93015 L 17.372949,5.7692848 16.817636,5.1750996 H 11.980859 V 19.069035 l 0.72746,0.56642 1.663163,0.122173 v 0.466461 H 7.7493719 v -0.466464 l 1.6603865,-0.12217 0.7274606,-0.56642 V 5.1750996 H 5.3004408 L 4.7451276,5.7692848 4.4063864,6.8493689 H 3.4762369 Z"
     style="color:#000000;font-style:normal;font-variant:normal;font-weight:normal;font-stretch:normal;font-size:19.7632px;line-height:1.25;font-family:'Bitstream Charter';-inkscape-font-specification:'Bitstream Charter';letter-spacing:0px;word-spacing:0px;fill:#000000;fill-opacity:0.0321658;stroke-width:0.710801"
     id="path877" />
  <path
     id="path881"
     style="color:#000000;font-style:normal;font-variant:normal;font-weight:normal;font-stretch:normal;font-size:19.7632px;line-height:1.25;font-family:'Bitstream Charter';-inkscape-font-specification:'Bitstream Charter';letter-spacing:0px;word-spacing:0px;fill:#000000;fill-opacity:0.0615943;stroke-width:1.0662"
     d="M 3.1208365,1.7293812 V 7.2047693 H 4.6673837 L 5.061656,5.952538 5.4531519,5.5305 H 9.7818182 V 18.894113 L 9.2737067,19.288384 7.3939714,19.42999 v 1.149497 H 14.726882 V 19.42999 L 12.844371,19.288384 12.336259,18.894113 V 5.5305 h 4.328666 l 0.391496,0.422038 0.394273,1.2522313 h 1.546548 V 1.7293812 Z M 3.6539372,2.2624819 H 18.464141 V 6.6716687 H 17.84219 L 17.528437,5.677658 16.895381,4.9973993 H 11.803158 V 19.155109 l 0.838523,0.652494 1.5521,0.116614 v 0.122172 H 7.9270721 V 19.924217 L 9.476396,19.807603 10.314919,19.155109 V 4.9973993 H 5.2226969 L 4.5896399,5.677658 4.275888,6.6716687 H 3.6539372 Z" />
</svg>
