<?xml version="1.0" encoding="UTF-8" standalone="no"?>
<svg
   xmlns:svg="http://www.w3.org/2000/svg"
   xmlns="http://www.w3.org/2000/svg"
   xmlns:sodipodi="http://sodipodi.sourceforge.net/DTD/sodipodi-0.dtd"
   xmlns:inkscape="http://www.inkscape.org/namespaces/inkscape"
   inkscape:version="1.1-dev (1:0.92.0+devel+202004260039+9758c7a)"
   sodipodi:docname="draw-polygon-star.svg"
   id="svg7"
   version="1.1"
   viewBox="0 0 16 16"
   height="16"
   width="16">
  <sodipodi:namedview
     inkscape:current-layer="svg7"
     inkscape:window-maximized="1"
     inkscape:window-y="30"
     inkscape:window-x="0"
     inkscape:cy="8"
     inkscape:cx="8"
     inkscape:zoom="23.375"
     showgrid="false"
     id="namedview9"
     inkscape:window-height="1024"
     inkscape:window-width="1920"
     inkscape:pageshadow="2"
     inkscape:pageopacity="0"
     guidetolerance="10"
     gridtolerance="10"
     objecttolerance="10"
     borderopacity="1"
     bordercolor="#666666"
     pagecolor="#ffffff" />
  <defs
     id="defs3">
    <style
       type="text/css"
       id="current-color-scheme">
   .ColorScheme-Text { color:#5c616c; } .ColorScheme-Highlight { color:#5294e2; }
  </style>
  </defs>
  <g
     transform="matrix(0.6560384,0.02919013,-0.02919013,0.6560384,23.006995,-354.75004)"
     inkscape:transform-center-y="-0.92265595"
     inkscape:transform-center-x="0.49165434"
     id="g834">
    <path
       id="path836"
       d="m 9.1062007,562.84466 -7.0434243,-4.79402 -6.4734679,5.53955 2.382844,-8.18012 -7.2688397,-4.44482 8.51610292,-0.26158 1.98107788,-8.2866 2.8803971,8.01846 8.4932133,-0.67658 -6.7359198,5.21726 z"
       style="color:#000000;fill:none;stroke-linecap:round;stroke-linejoin:round" />
    <path
       id="path838"
       d="m 1.1738281,541.91797 a 0.50005,0.50005 0 0 0 -0.45898435,0.38281 l -1.89257815,7.91406 -8.1347656,0.25 a 0.50005,0.50005 0 0 0 -0.2441406,0.92774 l 6.9414062,4.24414 -2.2753906,7.81445 a 0.50005,0.50005 0 0 0 0.8046875,0.51953 l 6.1835938,-5.29101 6.7265625,4.57812 a 0.50005,0.50005 0 0 0 0.7441406,-0.60547 l -3.1210938,-7.51562 6.4335934,-4.98242 a 0.50005,0.50005 0 0 0 -0.345703,-0.89453 l -8.113281,0.64648 -2.75,-7.6582 a 0.50005,0.50005 0 0 0 -0.4980469,-0.33008 z m 0.1230469,2.24609 2.3125,6.44141 a 0.50005,0.50005 0 0 0 0.5117187,0.32812 l 6.8203123,-0.54297 -5.410156,4.18946 a 0.50005,0.50005 0 0 0 -0.1542969,0.58789 l 2.625,6.32031 -5.6582031,-3.85156 a 0.50005,0.50005 0 0 0 -0.6054688,0.0332 l -5.1992187,4.44922 1.9140625,-6.56836 a 0.50005,0.50005 0 0 0 -0.2207031,-0.56641 l -5.8378906,-3.57031 6.8398437,-0.21094 a 0.50005,0.50005 0 0 0 0.47070312,-0.38281 z"
       style="color:#000000;fill:#7878a7;stroke-linecap:round;stroke-linejoin:round" />
    <g
       id="g842">
      <path
         transform="matrix(1.4834743,-0.06600652,0.06600652,1.4834743,-10.844752,541.90682)"
         d="m 8.0800781,-0.1328125 c -0.3678474,0.003721 -0.6953577,0.25188717 -0.796875,0.60546875 a 0.50005,0.50005 0 0 0 0,0.001953 L 5.8789062,5.3730469 0.78125,5.3027344 C 0.39675184,5.2974903 0.06944663,5.5734222 -0.02929688,5.890625 -0.12815275,6.2081869 -0.0156732,6.622219 0.3046875,6.8359375 L 4.5292969,9.6835938 2.8867188,14.511719 c -0.1227936,0.363258 0.038406,0.759194 0.3085937,0.951172 0.270188,0.191977 0.6954185,0.212033 0.9980469,-0.02344 l 4.0175781,-3.138672 4.0820315,3.050781 c 0.307574,0.231782 0.734881,0.202186 1.001953,0.0039 0.266746,-0.197997 0.419067,-0.597826 0.287109,-0.958985 v -0.002 L 11.837891,9.6074219 16.001953,6.6679688 C 16.31688,6.4469317 16.42036,6.0318145 16.314453,5.7167969 16.208671,5.4021421 15.87611,5.1330641 15.492188,5.1464844 h -0.002 L 10.396484,5.3261719 8.8886719,0.45703125 a 0.50005,0.50005 0 0 0 0,-0.001953 C 8.7797368,0.10384831 8.4477952,-0.13669412 8.0800781,-0.1328125 Z m 0.015625,1.4082031 0.041016,0.1386719 a 0.50005,0.50005 0 0 0 -0.080078,-0.00195 z m 0.00586,0.6074219 1.3613281,4.4023437 A 0.33674714,0.33674714 0 0 0 9.7988281,6.5214844 L 14.402344,6.359375 10.638672,9.015625 A 0.33674714,0.33674714 0 0 0 10.515625,9.4082031 L 12.09375,13.738281 8.4023438,10.976562 a 0.33674714,0.33674714 0 0 0 -0.4082032,0.0059 L 4.3632812,13.818359 5.8476562,9.4570312 A 0.33674714,0.33674714 0 0 0 5.7148438,9.0703125 L 1.8945312,6.4921875 6.5019531,6.5566406 A 0.33674714,0.33674714 0 0 0 6.8300781,6.3125 Z m 6.8769539,4.2832031 -0.13086,0.091797 A 0.50005,0.50005 0 0 0 14.820312,6.171875 Z M 1.3144531,6.3105469 1.4609375,6.3125 a 0.50005,0.50005 0 0 0 -0.025391,0.080078 z m 11.0859379,7.7656251 0.05469,0.148437 -0.126953,-0.09375 a 0.50005,0.50005 0 0 0 0.07227,-0.05469 z M 4.0566406,14.177734 A 0.50005,0.50005 0 0 0 4.125,14.224609 l -0.1152344,0.08984 z"
         style="color:#000000;fill:#000000;fill-opacity:0.194673;stroke-width:0.999999;stroke-linecap:round;stroke-linejoin:round"
         id="path846" />
      <path
         id="path844"
         d="m 1.1738281,541.91797 a 0.50005,0.50005 0 0 0 -0.45898435,0.38281 l -1.89257815,7.91406 -8.1347656,0.25 a 0.50005,0.50005 0 0 0 -0.2441406,0.92774 l 6.9414062,4.24414 -2.2753906,7.81445 a 0.50005,0.50005 0 0 0 0.8046875,0.51953 l 6.1835938,-5.29101 6.7265625,4.57812 a 0.50005,0.50005 0 0 0 0.7441406,-0.60547 l -3.1210938,-7.51562 6.4335934,-4.98242 a 0.50005,0.50005 0 0 0 -0.345703,-0.89453 l -8.113281,0.64648 -2.75,-7.6582 a 0.50005,0.50005 0 0 0 -0.4980469,-0.33008 z m 0.1230469,2.24609 2.3125,6.44141 a 0.50005,0.50005 0 0 0 0.5117187,0.32812 l 6.8203123,-0.54297 -5.410156,4.18946 a 0.50005,0.50005 0 0 0 -0.1542969,0.58789 l 2.625,6.32031 -5.6582031,-3.85156 a 0.50005,0.50005 0 0 0 -0.6054688,0.0332 l -5.1992187,4.44922 1.9140625,-6.56836 a 0.50005,0.50005 0 0 0 -0.2207031,-0.56641 l -5.8378906,-3.57031 6.8398437,-0.21094 a 0.50005,0.50005 0 0 0 0.47070312,-0.38281 z"
         style="color:#000000;fill:#7878a7;stroke-width:1.48494;stroke-linecap:round;stroke-linejoin:round" />
    </g>
  </g>
  <path
     id="path987"
     style="opacity:1;fill:#e9e5f3;fill-opacity:0.2805;stroke:none;stroke-width:0.656687;stroke-linecap:round;stroke-linejoin:round;stroke-miterlimit:4;stroke-dasharray:none;stroke-opacity:1"
     inkscape:transform-center-x="0.50339909"
     inkscape:transform-center-y="-0.90824459"
     d="M 7.973573,2.28032 6.734996,6.6006146 A 0.32837658,0.32837658 0 0 1 6.4150224,6.838013 L 1.9216653,6.7767422 5.6473272,9.289419 A 0.32837658,0.32837658 0 0 1 5.7755844,9.6674409 L 4.328154,13.920668 7.8689144,11.153572 a 0.32837658,0.32837658 0 0 1 0.3981799,-0.004 l 3.5995717,2.69197 -1.53761,-4.2229866 a 0.32837658,0.32837658 0 0 1 0.118385,-0.381172 L 14.119001,6.6468555 9.6287652,6.8039813 A 0.32837658,0.32837658 0 0 1 9.302636,6.573786 Z" />
</svg>
