<?xml version="1.0" encoding="UTF-8" standalone="no"?>
<svg
   xmlns:dc="http://purl.org/dc/elements/1.1/"
   xmlns:cc="http://creativecommons.org/ns#"
   xmlns:rdf="http://www.w3.org/1999/02/22-rdf-syntax-ns#"
   xmlns:svg="http://www.w3.org/2000/svg"
   xmlns="http://www.w3.org/2000/svg"
   xmlns:sodipodi="http://sodipodi.sourceforge.net/DTD/sodipodi-0.dtd"
   xmlns:inkscape="http://www.inkscape.org/namespaces/inkscape"
   width="22"
   height="22"
   version="1.1"
   id="svg4"
   sodipodi:docname="send-mail.svg"
   inkscape:version="0.92.4 (unknown)">
  <metadata
     id="metadata10">
    <rdf:RDF>
      <cc:Work
         rdf:about="">
        <dc:format>image/svg+xml</dc:format>
        <dc:type
           rdf:resource="http://purl.org/dc/dcmitype/StillImage" />
        <dc:title></dc:title>
      </cc:Work>
    </rdf:RDF>
  </metadata>
  <defs
     id="defs8" />
  <sodipodi:namedview
     pagecolor="#ffffff"
     bordercolor="#666666"
     borderopacity="1"
     objecttolerance="10"
     gridtolerance="10"
     guidetolerance="10"
     inkscape:pageopacity="0"
     inkscape:pageshadow="2"
     inkscape:window-width="1920"
     inkscape:window-height="1015"
     id="namedview6"
     showgrid="false"
     inkscape:zoom="29.5"
     inkscape:cx="5.579891"
     inkscape:cy="10.641458"
     inkscape:window-x="0"
     inkscape:window-y="27"
     inkscape:window-maximized="1"
     inkscape:current-layer="svg4" />
  <path
     style="overflow:visible;fill:#000000;fill-opacity:0.07999998;stroke-width:1.34915721"
     d="M 18.027117,3.9642787 3.7134034,10.035485 8.3511311,12.351714 c 2.0817499,-1.933342 7.0867219,-5.7902651 8.7299949,-7.433539 -1.643273,1.6432739 -5.50553,6.650881 -7.4361742,8.732631 l 2.3214992,4.645632 6.063301,-14.3321593 z"
     id="path817"
     inkscape:connector-curvature="0" />
  <path
     d="M 20.421661,1.545261 0.67,10.024714 l 7.5336936,3.764148 3.7641484,7.529646 0.0094,0.0081 0.0054,0.0054 8.465961,-19.7813424 -0.0054,-0.0027 h -0.0081 -0.0054 c -0.0016,-0.0013 -0.0034,-0.00222 -0.0054,-0.0027 z M 18.029605,3.9642998 11.966493,18.296396 9.6459426,13.651248 C 11.576587,11.569499 15.437874,6.5614273 17.081148,4.9181539 15.437874,6.5614273 10.43385,10.418668 8.3521009,12.35201 L 3.7123494,10.035507 18.028256,3.9642998 Z"
     overflow="visible"
     id="path2"
     inkscape:connector-curvature="0"
     style="overflow:visible;fill:#000000;fill-opacity:0.57983195;stroke-width:1.34915721"
     sodipodi:nodetypes="cccccccccccccccccccc" />
</svg>
